<?xml version="1.0" standalone="no"?>
<!DOCTYPE svg PUBLIC "-//W3C//DTD SVG 1.1//EN" "http://www.w3.org/Graphics/SVG/1.1/DTD/svg11.dtd" >
<svg xmlns="http://www.w3.org/2000/svg" xmlns:xlink="http://www.w3.org/1999/xlink" version="1.1">
<metadata>
Created by FontForge 20170731 at Tue Jan 24 14:25:49 2017
 By Aleksey,,,
(c) TIGHTYPE 2016
</metadata>
<defs>
<font id="Sneak-MediumItalic" horiz-adv-x="592" >
  <font-face 
    font-family="Sneak Medium"
    font-weight="500"
    font-style="italic"
    font-stretch="normal"
    units-per-em="1000"
    panose-1="0 0 6 0 0 0 0 0 0 0"
    ascent="800"
    descent="-200"
    x-height="500"
    cap-height="700"
    bbox="-309 -309 2275 959"
    underline-thickness="50"
    underline-position="-200"
    slope="-13"
    unicode-range="U+000D-27FC"
  />
<missing-glyph horiz-adv-x="821" 
d="M793 350q0 -150 -105 -255t-255 -105t-255 106t-105 254q0 149 105.5 254.5t254.5 105.5q151 0 255.5 -105.5t104.5 -254.5zM245 533v-45h44v-128h46v128h44v45h-134zM487 533v-45h45v-128h45v128h45v45h-135zM433 81q109 0 187 76t81 183l-46 8q0 -92 -65 -156.5
t-157 -64.5q-91 0 -156 64.5t-65 156.5l-46 -8q3 -107 81 -183t186 -76z" />
    <glyph glyph-name="f_f.liga" unicode="ff" horiz-adv-x="747" 
d="M745 611q-83 0 -101 -83l-6 -28h130l-19 -83h-131l-96 -417h-113l96 417h-233l-96 -417h-113l96 417h-91l18 83h92l10 43q18 77 67 117t124 40h115l-21 -89h-74q-83 0 -101 -83l-6 -28h232l10 43q18 77 67 117t124 40h115l-21 -89h-74z" />
    <glyph glyph-name="f_f_i.liga" unicode="ffi" horiz-adv-x="994" 
d="M983 500l-115 -500h-113l96 417h-233l-96 -417h-113l96 417h-233l-96 -417h-113l96 417h-91l18 83h92l10 43q18 77 67 117t124 40h115l-21 -89h-74q-83 0 -101 -83l-6 -28h232l10 43q18 77 67 117t124 40h115l-21 -89h-74q-83 0 -101 -83l-6 -28h345zM910 687h123
l-25 -108h-123z" />
    <glyph glyph-name="f_f_j.liga" unicode="ffj" horiz-adv-x="994" 
d="M983 500l-107 -464h1l-25 -105q-34 -151 -200 -151h-113l22 91h70q94 0 116 94l16 71l88 381h-233l-96 -417h-113l96 417h-233l-96 -417h-113l96 417h-91l18 83h92l10 43q18 77 67 117t124 40h115l-21 -89h-74q-83 0 -101 -83l-6 -28h232l10 43q18 77 67 117t124 40h115
l-21 -89h-74q-83 0 -101 -83l-6 -28h345zM910 687h123l-25 -108h-123z" />
    <glyph glyph-name="f_f_l.liga" unicode="ffl" horiz-adv-x="1012" 
d="M936 710h114l-164 -710h-114l96 417h-250l-96 -417h-113l96 417h-233l-96 -417h-113l96 417h-91l18 83h92l10 43q18 77 67 117t124 40h115l-21 -89h-74q-83 0 -101 -83l-6 -28h232l10 43q18 77 67 117t124 40h115l-21 -89h-74q-83 0 -101 -83l-6 -28h249z" />
    <glyph glyph-name="f_i.liga" unicode="fi" horiz-adv-x="651" 
d="M640 500l-115 -500h-113l96 417h-236l-96 -417h-113l96 417h-91l18 83h92l10 43q18 77 67 117t124 40h115l-21 -89h-74q-83 0 -101 -83l-6 -28h348zM567 687h123l-25 -108h-123z" />
    <glyph glyph-name="f_j.liga" unicode="fj" horiz-adv-x="648" 
d="M637 500l-107 -464h1l-25 -105q-34 -151 -200 -151h-113l22 91h70q94 0 116 94l16 71l88 381h-233l-96 -417h-113l96 417h-91l18 83h92l10 43q18 77 67 117t124 40h115l-21 -89h-74q-83 0 -101 -83l-6 -28h345zM564 687h123l-25 -108h-123z" />
    <glyph glyph-name="f_l.liga" unicode="fl" horiz-adv-x="663" 
d="M587 710h114l-164 -710h-114l96 417h-247l-96 -417h-113l96 417h-91l18 83h92l10 43q18 77 67 117t124 40h115l-21 -89h-74q-83 0 -101 -83l-6 -28h246z" />
    <glyph glyph-name=".notdef" horiz-adv-x="821" 
d="M793 350q0 -150 -105 -255t-255 -105t-255 106t-105 254q0 149 105.5 254.5t254.5 105.5q151 0 255.5 -105.5t104.5 -254.5zM245 533v-45h44v-128h46v128h44v45h-134zM487 533v-45h45v-128h45v128h45v45h-135zM433 81q109 0 187 76t81 183l-46 8q0 -92 -65 -156.5
t-157 -64.5q-91 0 -156 64.5t-65 156.5l-46 -8q3 -107 81 -183t186 -76z" />
    <glyph glyph-name=".null" horiz-adv-x="0" 
 />
    <glyph glyph-name="nonmarkingreturn" horiz-adv-x="333" 
 />
    <glyph glyph-name="NULL" horiz-adv-x="0" 
 />
    <glyph glyph-name="NULL" horiz-adv-x="0" 
 />
    <glyph glyph-name="CR" unicode="&#xd;" horiz-adv-x="250" 
 />
    <glyph glyph-name="space" unicode=" " horiz-adv-x="260" 
 />
    <glyph glyph-name="exclam" unicode="!" horiz-adv-x="228" 
d="M157 700h121l-132 -491h-84zM-9 0l29 123h128l-28 -123h-129z" />
    <glyph glyph-name="quotedbl" unicode="&#x22;" horiz-adv-x="366" 
d="M100 420l50 280h105l-79 -280h-76zM269 420l50 280h105l-79 -280h-76z" />
    <glyph glyph-name="numbersign" unicode="#" horiz-adv-x="684" 
d="M661 391h-102l-67 -162h105l-19 -84h-121l-60 -145h-95l60 145h-150l-60 -145h-95l60 145h-86l19 84h102l67 162h-104l19 84h120l60 145h95l-60 -145h150l60 145h95l-60 -145h86zM397 229l67 162h-150l-67 -162h150z" />
    <glyph glyph-name="dollar" unicode="$" horiz-adv-x="581" 
d="M583 473h-107q14 100 -64 131l-57 -247q65 -33 98 -71t33 -102q0 -87 -59.5 -136.5t-155.5 -56.5l-21 -91h-94l22 95q-83 16 -116 71t-20 135h106q-11 -84 53 -107l45 195q-82 39 -117.5 82t-35.5 108q0 97 69 158t179 67l20 86h94l-21 -92q87 -17 126 -77.5t23 -147.5z
M208 489q0 -55 63 -91l48 211q-49 -9 -80 -41.5t-31 -78.5zM370 172q0 43 -41 73l-35 -155q76 16 76 82z" />
    <glyph glyph-name="percent" unicode="%" horiz-adv-x="815" 
d="M256 400q-60 0 -97.5 37.5t-37.5 94.5q0 72 57 125t130 53q60 0 97.5 -37.5t37.5 -95.5q0 -72 -57 -124.5t-130 -52.5zM56 0l647 700h108l-646 -700h-109zM266 481q35 0 61 27t26 63q0 26 -14 42t-41 16q-35 0 -61.5 -27t-26.5 -63q0 -26 15 -42t41 -16zM554 -10
q-60 0 -97.5 37.5t-37.5 94.5q0 72 57 125t130 53q60 0 97.5 -37.5t37.5 -95.5q0 -72 -57 -124.5t-130 -52.5zM564 71q35 0 61 27t26 63q0 26 -14 42t-41 16q-35 0 -61.5 -27t-26.5 -63q0 -26 15 -42t41 -16z" />
    <glyph glyph-name="ampersand" unicode="&#x26;" horiz-adv-x="656" 
d="M598 86h43l-20 -86h-44q-86 0 -142 53q-91 -63 -209 -63q-100 0 -159 45.5t-59 125.5q0 71 48 120t138 91q-50 78 -50 142q0 85 64.5 140.5t158.5 55.5q79 0 126.5 -40.5t47.5 -108.5q0 -38 -16 -71.5t-46.5 -60t-62 -45.5t-73.5 -39l103 -142q41 58 67 172h98
q-36 -159 -103 -251q40 -38 90 -38zM362 625q-48 0 -82 -34.5t-34 -78.5q0 -41 44 -99q69 29 107.5 61t38.5 79q0 34 -19.5 53t-54.5 19zM121 169q0 -44 31 -67t82 -23q74 0 139 48l-104 142q-16 22 -24 32q-58 -27 -91 -57t-33 -75z" />
    <glyph glyph-name="quotesingle" unicode="'" horiz-adv-x="197" 
d="M100 420l50 280h105l-79 -280h-76z" />
    <glyph glyph-name="parenleft" unicode="(" horiz-adv-x="305" 
d="M368 819l51 -56q-270 -268 -270 -577q0 -176 65 -324l-69 -41q-38 68 -68.5 169.5t-30.5 211.5q0 91 25.5 180.5t61 154t84 126t82.5 94.5t69 62z" />
    <glyph glyph-name="parenright" unicode=")" horiz-adv-x="308" 
d="M-30 -179l-51 56q270 268 270 577q0 176 -65 324l69 41q38 -68 68.5 -169.5t30.5 -211.5q0 -91 -25.5 -180.5t-61 -154t-84 -126t-82.5 -94.5t-69 -62z" />
    <glyph glyph-name="asterisk" unicode="*" horiz-adv-x="399" 
d="M431 556l-119 -31l78 -94l-56 -41l-66 104l-66 -104l-56 41l78 94l-119 31l21 67l115 -45l-8 122h70l-8 -122l115 45z" />
    <glyph glyph-name="plus" unicode="+" horiz-adv-x="580" 
d="M539 288l-21 -90h-189l-46 -198h-100l46 198h-190l20 90h191l44 192h100l-44 -192h189z" />
    <glyph glyph-name="comma" unicode="," horiz-adv-x="231" 
d="M20 123h131l-18 -79q-22 -93 -62 -130t-124 -44l13 54q42 2 61.5 21.5t27.5 54.5h-57z" />
    <glyph glyph-name="hyphen" unicode="-" horiz-adv-x="519" 
d="M71 341h418l-20 -90h-418z" />
    <glyph glyph-name="period" unicode="." horiz-adv-x="228" 
d="M-9 0l29 123h128l-28 -123h-129z" />
    <glyph glyph-name="slash" unicode="/" horiz-adv-x="476" 
d="M-59 -50l529 800h111l-529 -800h-111z" />
    <glyph glyph-name="zero" unicode="0" horiz-adv-x="652" 
d="M286 -10q-117 0 -173.5 75.5t-56.5 192.5q0 74 22 151t63.5 145.5t111.5 112t156 43.5q118 0 174.5 -75.5t56.5 -192.5q0 -58 -13 -119.5t-42 -121.5t-69.5 -106.5t-100 -75.5t-129.5 -29zM294 91q66 0 118.5 53.5t78.5 132.5t26 164q0 168 -114 168q-66 0 -119 -53.5
t-79 -132t-26 -162.5q0 -170 115 -170z" />
    <glyph glyph-name="one" unicode="1" horiz-adv-x="485" 
d="M505 700l-162 -700h-119l106 460q-93 -52 -246 -55l22 100q49 2 93.5 12t88.5 31t75.5 60t44.5 92h97z" />
    <glyph glyph-name="two" unicode="2" horiz-adv-x="623" 
d="M502 0h-505l17 74l206 140q58 39 84.5 57.5t69.5 53t62.5 59.5t35.5 59.5t16 69.5q0 47 -24.5 73t-71.5 26q-67 0 -109 -50.5t-57 -132.5h-115q54 281 284 281q101 0 156 -52.5t55 -138.5q0 -96 -69 -175t-212 -176l-106 -73h305z" />
    <glyph glyph-name="three" unicode="3" horiz-adv-x="627" 
d="M630 525q0 -69 -46.5 -118.5t-124.5 -70.5q76 -39 76 -134q0 -87 -67.5 -149.5t-190.5 -62.5t-176.5 62.5t-38.5 158.5h117q-19 -124 102 -124q64 0 102 34t38 86q0 42 -26.5 66.5t-79.5 24.5h-52l13 57l6 26h58q77 0 123.5 38t46.5 94q0 46 -31.5 72.5t-83.5 26.5
q-61 0 -112.5 -38.5t-71.5 -108.5h-112q29 110 107 177.5t194 67.5q102 0 166 -51t64 -134z" />
    <glyph glyph-name="four" unicode="4" horiz-adv-x="639" 
d="M598 236l-22 -94h-110l-33 -142h-109l33 142h-336l17 71l413 487h144l-107 -464h110zM173 236h206l78 340z" />
    <glyph glyph-name="five" unicode="5" horiz-adv-x="623" 
d="M599 601h-288l-69 -177q48 30 111 30q93 0 148.5 -56t55.5 -148q0 -112 -81.5 -186t-205.5 -74q-119 0 -178.5 67.5t-44.5 164.5h111q-6 -58 23 -97t96 -39q74 0 122 46.5t48 116.5q0 55 -32.5 85t-92.5 30q-23 0 -44.5 -4.5t-37.5 -12t-26.5 -14t-20.5 -14.5t-11 -9
l-79 39l133 351h386z" />
    <glyph glyph-name="six" unicode="6" horiz-adv-x="647" 
d="M641 494h-104q3 48 -22 84.5t-88 36.5q-84 0 -141.5 -68t-84.5 -174q68 83 179 83q92 0 146 -56.5t54 -142.5q0 -111 -84 -189t-204 -78q-131 0 -185.5 98.5t-13.5 273.5q41 177 127 262.5t206 85.5q112 0 168.5 -63t46.5 -153zM360 368q-64 0 -117.5 -48.5t-53.5 -123.5
q0 -55 30 -84t77 -29q64 0 118 48.5t54 123.5q0 54 -30.5 83.5t-77.5 29.5z" />
    <glyph glyph-name="seven" unicode="7" horiz-adv-x="595" 
d="M155 700h497l-18 -73l-460 -627h-141l442 599h-344z" />
    <glyph glyph-name="eight" unicode="8" horiz-adv-x="647" 
d="M649 520q0 -81 -53 -129.5t-134 -70.5q83 -43 83 -131q0 -89 -79 -144t-185 -55q-93 0 -153.5 44.5t-60.5 122.5q0 118 148 170q-103 44 -103 149q0 99 84 164.5t214 65.5q111 0 175 -49.5t64 -136.5zM350 367q7 1 19.5 3.5t43.5 13t54.5 25.5t43 43t19.5 63q0 46 -32 73
t-91 27q-77 0 -127 -41.5t-50 -96.5q0 -41 30 -68.5t60 -34.5zM285 81q63 0 104.5 34t41.5 82q0 35 -24.5 58.5t-48.5 29.5l-25 6q-6 -1 -16 -3t-36 -11.5t-45.5 -22.5t-35.5 -37t-16 -53q0 -39 26.5 -61t74.5 -22z" />
    <glyph glyph-name="nine" unicode="9" horiz-adv-x="636" 
d="M396 710q131 0 185.5 -98.5t13.5 -273.5q-41 -177 -127 -262.5t-206 -85.5q-112 0 -168.5 63t-46.5 153h104q-3 -48 22 -84.5t88 -36.5q84 0 141.5 68t84.5 174q-68 -83 -179 -83q-92 0 -146 56.5t-54 142.5q0 111 84 189t204 78zM328 332q64 0 117.5 48.5t53.5 123.5
q0 55 -30 84t-77 29q-64 0 -118 -48.5t-54 -123.5q0 -54 30.5 -83.5t77.5 -29.5z" />
    <glyph glyph-name="colon" unicode=":" horiz-adv-x="228" 
d="M78 377l29 123h128l-28 -123h-129zM-9 0l29 123h128l-28 -123h-129z" />
    <glyph glyph-name="semicolon" unicode=";" horiz-adv-x="231" 
d="M109 500h128l-28 -123h-129zM-8 0l28 123h131l-18 -79q-22 -93 -62 -130t-124 -44l13 54q42 2 61.5 21.5t27.5 54.5h-57z" />
    <glyph glyph-name="less" unicode="&#x3c;" horiz-adv-x="582" 
d="M99 292l457 198l-26 -120l-336 -137l273 -138l-26 -105l-367 198z" />
    <glyph glyph-name="equal" unicode="=" horiz-adv-x="585" 
d="M88 394h480l-21 -90h-479zM34 179h480l-21 -90h-479z" />
    <glyph glyph-name="greater" unicode="&#x3e;" horiz-adv-x="574" 
d="M478 188l-457 -198l26 120l336 137l-273 138l26 105l367 -198z" />
    <glyph glyph-name="question" unicode="?" horiz-adv-x="512" 
d="M351 710q87 0 137 -41.5t50 -118.5q0 -43 -17 -77t-42.5 -54t-57 -41.5t-59.5 -39t-51 -46.5t-31 -65l-5 -18h-105l7 30q12 54 42.5 93.5t64.5 61.5t66.5 41.5t53.5 45.5t21 61q0 75 -80 75q-52 0 -91.5 -37.5t-55.5 -119.5h-107q46 250 260 250zM110 0l29 123h128
l-28 -123h-129z" />
    <glyph glyph-name="at" unicode="@" horiz-adv-x="981" 
d="M565 710q169 0 277 -99t108 -264q0 -134 -70 -230t-175 -96q-93 0 -120 73q-60 -73 -158 -73q-82 0 -127 52t-45 138q0 116 75.5 203t176.5 87q46 0 79.5 -21t48.5 -56l15 67h92l-64 -280q-27 -110 44 -110q61 0 98.5 75t37.5 166q0 127 -77.5 206t-210.5 79
q-111 0 -210 -54.5t-160.5 -154t-61.5 -218.5q0 -131 75 -209t212 -78q113 0 189 54l45 -61q-106 -76 -248 -76q-166 0 -267.5 100t-101.5 271q0 145 75 263.5t194 182t254 63.5zM450 100q71 0 110 62t39 145q0 114 -85 114q-70 0 -116.5 -65t-46.5 -141q0 -49 23.5 -82
t75.5 -33z" />
    <glyph glyph-name="A" unicode="A" horiz-adv-x="686" 
d="M490 0l-19 166h-287l-97 -166h-127l416 700h142l93 -700h-121zM240 263h220l-36 315z" />
    <glyph glyph-name="B" unicode="B" horiz-adv-x="639" 
d="M664 534q0 -67 -47 -118t-148 -69q102 -40 102 -148q0 -87 -66.5 -143t-204.5 -56h-167h-116l162 700h116h173q96 0 146 -47t50 -119zM395 401q70 0 110 31t40 82q0 40 -26 63t-76 23h-171l-46 -199h169zM309 102q73 0 108 30t35 78q0 45 -28 70t-80 25h-140l-47 -203
h152z" />
    <glyph glyph-name="C" unicode="C" horiz-adv-x="743" 
d="M694 256q-39 -136 -133.5 -201t-217.5 -65q-136 0 -209.5 75.5t-74.5 209.5q-2 179 115 307t299 128q134 0 202.5 -70.5t59.5 -178.5h-120q3 67 -35.5 106t-117.5 39q-127 0 -204 -95.5t-77 -226.5q0 -93 44 -143t132 -50q151 0 217 165h120z" />
    <glyph glyph-name="D" unicode="D" horiz-adv-x="712" 
d="M400 700q143 0 218.5 -79.5t75.5 -214.5q0 -59 -14 -115t-46.5 -109.5t-80 -93.5t-120.5 -64t-163 -24h-253l162 700h221zM271 102q65 0 117.5 19.5t85 50t54.5 71.5t30.5 82t8.5 84q0 89 -44 139t-151 50h-96l-114 -496h109z" />
    <glyph glyph-name="E" unicode="E" horiz-adv-x="594" 
d="M613 595h-338l-45 -192h317l-23 -98h-316l-47 -200h339l-24 -105h-459l162 700h459z" />
    <glyph glyph-name="F" unicode="F" horiz-adv-x="565" 
d="M591 594h-317l-46 -201h304l-24 -103h-304l-67 -290h-120l162 700h437z" />
    <glyph glyph-name="G" unicode="G" horiz-adv-x="763" 
d="M736 458h-117q8 72 -29 111t-113 39q-122 0 -208.5 -95t-86.5 -228q0 -90 45.5 -142t140.5 -52q83 0 142.5 44t81.5 140h-231l20 89h337l-7 -30h1l-77 -334h-76l12 103q-83 -112 -234 -113q-130 -1 -202.5 75t-74.5 211q-2 180 117 307t303 127q135 0 204.5 -70.5
t51.5 -181.5z" />
    <glyph glyph-name="H" unicode="H" horiz-adv-x="735" 
d="M639 700h124l-162 -700h-124l70 304h-337l-70 -304h-123l162 700h123l-68 -293h337z" />
    <glyph glyph-name="I" unicode="I" horiz-adv-x="272" 
d="M138 0h-121l162 700h121z" />
    <glyph glyph-name="J" unicode="J" horiz-adv-x="648" 
d="M559 700h120l-107 -465q-27 -120 -105 -182.5t-196 -62.5q-131 0 -190.5 73t-30.5 203l7 32h119l-7 -32q-19 -86 9 -129.5t99 -43.5q141 0 182 178z" />
    <glyph glyph-name="K" unicode="K" horiz-adv-x="636" 
d="M708 700l-347 -313l204 -387h-131l-164 305l-80 -72l-54 -233h-119l162 700h119l-67 -291l318 291h159z" />
    <glyph glyph-name="L" unicode="L" horiz-adv-x="584" 
d="M164 107h348l-24 -107h-471l162 700h122z" />
    <glyph glyph-name="M" unicode="M" horiz-adv-x="897" 
d="M925 700l-162 -700h-114l128 553l-328 -553h-119l-70 554l-128 -554h-115l162 700h161l74 -577l335 577h176z" />
    <glyph glyph-name="N" unicode="N" horiz-adv-x="739" 
d="M651 700h116l-162 -700h-140l-200 565l-131 -565h-117l162 700h142l199 -565z" />
    <glyph glyph-name="O" unicode="O" horiz-adv-x="785" 
d="M352 -10q-141 0 -216 77.5t-75 217.5q0 183 117.5 304t298.5 121q140 0 215.5 -78t75.5 -218q0 -182 -117.5 -303t-298.5 -121zM360 93q118 0 198.5 94t80.5 227q0 91 -43.5 142t-126.5 51q-118 0 -198.5 -94t-80.5 -227q0 -92 43.5 -142.5t126.5 -50.5z" />
    <glyph glyph-name="P" unicode="P" horiz-adv-x="602" 
d="M404 700q114 0 169 -61.5t55 -153.5q0 -109 -74.5 -183.5t-219.5 -74.5h-145l-53 -227h-119l162 700h119h106zM341 327q80 0 122.5 44.5t42.5 109.5q0 53 -27.5 85.5t-86.5 32.5h-117l-63 -272h129z" />
    <glyph glyph-name="Q" unicode="Q" horiz-adv-x="785" 
d="M768 414q0 -182 -117 -302l85 -112h-115l-41 54q-100 -64 -228 -64q-141 0 -216 77.5t-75 217.5q0 183 117.5 304t298.5 121q140 0 215.5 -78t75.5 -218zM360 93q83 0 152 51l-128 169l73 56l120 -158q62 87 62 203q0 91 -43.5 142t-126.5 51q-118 0 -198.5 -94
t-80.5 -227q0 -92 43.5 -142.5t126.5 -50.5z" />
    <glyph glyph-name="R" unicode="R" horiz-adv-x="646" 
d="M641 507q0 -78 -50 -132t-158 -74q99 -30 112 -149l17 -152h-125l-16 148q-8 74 -54.5 93t-172.5 19l-60 -260h-117l162 700h231q121 0 176 -55t55 -138zM360 358q78 0 117.5 38.5t39.5 94.5q0 45 -26.5 74.5t-83.5 29.5h-135l-55 -237h143z" />
    <glyph glyph-name="S" unicode="S" horiz-adv-x="644" 
d="M171 215q-16 -124 116 -124q63 0 99 27.5t36 72.5q0 17 -6.5 30t-15.5 21.5t-31 18t-39.5 15.5t-54.5 17q-94 27 -138.5 69t-44.5 114q0 106 85.5 170t209.5 64q126 0 200 -68t55 -187h-118q11 72 -23.5 111.5t-112.5 39.5q-73 0 -123 -33t-50 -89q0 -23 8.5 -39.5
t30.5 -29t42 -20.5t59 -20q42 -12 68 -22t58.5 -30.5t48.5 -53t16 -76.5q0 -94 -72.5 -148.5t-187.5 -54.5q-124 0 -186 62t-47 163h118z" />
    <glyph glyph-name="T" unicode="T" horiz-adv-x="642" 
d="M712 700l-25 -105h-226l-138 -595h-121l138 595h-227l25 105h574z" />
    <glyph glyph-name="U" unicode="U" horiz-adv-x="727" 
d="M177 700h121l-92 -397q-48 -209 123 -209q168 0 216 209l92 397h121l-97 -421q-31 -138 -118 -215t-230 -74q-143 2 -202.5 84t-23.5 238z" />
    <glyph glyph-name="V" unicode="V" horiz-adv-x="711" 
d="M652 700h142l-424 -700h-145l-100 700h128l69 -571z" />
    <glyph glyph-name="W" unicode="W" horiz-adv-x="1013" 
d="M959 700h129l-338 -700h-126l-37 578l-305 -578h-135l-13 700h119l-4 -557l293 557h136l35 -542z" />
    <glyph glyph-name="X" unicode="X" horiz-adv-x="678" 
d="M742 700l-306 -342l162 -358h-135l-117 258l-231 -258h-151l331 370l-151 330h137l104 -229l205 229h152z" />
    <glyph glyph-name="Y" unicode="Y" horiz-adv-x="684" 
d="M616 700h146l-515 -700h-147l208 278l-185 422h137l131 -314z" />
    <glyph glyph-name="Z" unicode="Z" horiz-adv-x="648" 
d="M681 700l-17 -75l-474 -520h368l-25 -105h-543l18 75l473 520h-335l24 105h511z" />
    <glyph glyph-name="bracketleft" unicode="[" horiz-adv-x="325" 
d="M434 723h-148l-187 -802h150l-21 -88h-249l226 978h249z" />
    <glyph glyph-name="backslash" unicode="\" horiz-adv-x="462" 
d="M383 -50h-99l-159 800h99z" />
    <glyph glyph-name="bracketright" unicode="]" horiz-adv-x="325" 
d="M379 811l-226 -978h-249l20 88h148l187 802h-150l21 88h249z" />
    <glyph glyph-name="asciicircum" unicode="^" horiz-adv-x="584" 
d="M446 700l119 -379h-113l-78 256l-197 -255h-126l295 378h100z" />
    <glyph glyph-name="underscore" unicode="_" horiz-adv-x="509" 
d="M-6 29h418l-20 -90h-418z" />
    <glyph glyph-name="grave" unicode="`" horiz-adv-x="424" 
d="M319 699l70 -134h-90l-102 134h122z" />
    <glyph glyph-name="a" unicode="a" 
d="M471 500h110l-115 -500h-110l13 55q-25 -27 -67 -46t-93 -19q-82 0 -130 52.5t-48 148.5q0 133 84.5 226t193.5 93q51 0 89 -22.5t56 -63.5zM244 77q57 0 100.5 39t61.5 102l7 29q4 21 4 49q0 122 -97 122q-77 0 -125.5 -69t-48.5 -155q0 -117 98 -117z" />
    <glyph glyph-name="b" unicode="b" horiz-adv-x="589" 
d="M372 510q80 0 131.5 -59t51.5 -160q0 -127 -78.5 -214t-190.5 -87q-108 0 -147 91l-19 -81h-110l164 710h110l-63 -272q59 72 151 72zM275 76q72 0 118 62.5t46 150.5q0 57 -23.5 93.5t-74.5 36.5q-71 0 -118.5 -66t-47.5 -154q0 -123 100 -123z" />
    <glyph glyph-name="c" unicode="c" horiz-adv-x="570" 
d="M422 315q4 49 -21.5 77t-74.5 28q-78 0 -129.5 -64.5t-51.5 -148.5q0 -58 28.5 -92.5t81.5 -34.5q97 0 139 101h112q-69 -191 -254 -191q-104 0 -162 57t-58 154q0 124 83 216t211 92q101 0 158 -55.5t46 -138.5h-108z" />
    <glyph glyph-name="d" unicode="d" horiz-adv-x="589" 
d="M516 710h111l-164 -710h-111l14 62q-23 -28 -63.5 -50t-95.5 -22q-84 0 -130 55t-46 148q0 130 82.5 223.5t191.5 93.5q50 0 89 -24t56 -61zM243 76q74 0 121.5 65.5t47.5 152.5q0 60 -25.5 92.5t-74.5 32.5q-75 0 -121 -69.5t-46 -153.5q0 -56 24.5 -88t73.5 -32z" />
    <glyph glyph-name="e" unicode="e" horiz-adv-x="568" 
d="M323 509q112 0 162 -72t29 -194q-3 -18 -4 -20h-364q-1 -7 -1 -20q0 -126 115 -126q91 0 130 87h109q-65 -174 -244 -174q-109 0 -165.5 59t-56.5 156q0 121 80 212.5t210 91.5zM161 296h252q15 129 -92 129q-57 0 -98.5 -36t-61.5 -93z" />
    <glyph glyph-name="f" unicode="f" horiz-adv-x="401" 
d="M399 611q-83 0 -101 -83l-6 -28h130l-19 -83h-131l-96 -417h-113l96 417h-91l18 83h92l10 43q18 77 67 117t124 40h115l-21 -89h-74z" />
    <glyph glyph-name="g" unicode="g" horiz-adv-x="588" 
d="M467 500h109l-102 -444l-14 -64q-26 -114 -92 -168t-178 -54q-122 0 -168 54t-34 132h105q-6 -43 16.5 -71t84.5 -28q69 0 105.5 37t53.5 108l12 54l1 3q-63 -69 -160 -69q-82 0 -129 53t-47 147q0 132 84 226t194 94q50 0 89 -22.5t53 -63.5zM243 76q75 0 122 64.5
t47 157.5q0 121 -95 121q-76 0 -124.5 -68.5t-48.5 -155.5q0 -119 99 -119z" />
    <glyph glyph-name="h" unicode="h" horiz-adv-x="593" 
d="M418 510q77 0 110.5 -53t10.5 -155l-70 -302h-113l63 271q18 76 5.5 111t-61.5 35q-61 0 -118 -67.5t-87 -197.5l1 3l-36 -155h-112l115 500l49 210h112l-49 -210l-30 -131q86 141 210 141z" />
    <glyph glyph-name="i" unicode="i" horiz-adv-x="250" 
d="M141 579l25 108h123l-25 -108h-123zM124 0h-113l115 500h113z" />
    <glyph glyph-name="j" unicode="j" horiz-adv-x="250" 
d="M166 687h123l-25 -108h-123zM126 500h113l-107 -464h1l-25 -105q-34 -151 -200 -151h-113l22 91h70q94 0 116 94l16 71z" />
    <glyph glyph-name="k" unicode="k" horiz-adv-x="527" 
d="M561 500l-255 -219l152 -281h-117l-115 213l-75 -64l-34 -149h-107l164 710h107l-95 -413l236 203h139z" />
    <glyph glyph-name="l" unicode="l" horiz-adv-x="250" 
d="M124 0h-114l164 710h114z" />
    <glyph glyph-name="m" unicode="m" horiz-adv-x="888" 
d="M715 509q74 0 107.5 -54t9.5 -160l-69 -295h-110l66 285q30 130 -53 130q-58 0 -106.5 -59.5t-74.5 -171.5v1l-42 -185h-110l64 275q33 140 -51 140q-58 0 -106 -57.5t-75 -173.5l10 47l-53 -231h-111l115 500h111l-26 -114q70 123 184 123q58 0 91 -33t33 -102
q77 135 196 135z" />
    <glyph glyph-name="n" unicode="n" horiz-adv-x="593" 
d="M418 510q77 0 110.5 -53t10.5 -155l-70 -302h-113l63 271q18 76 5.5 111t-61.5 35q-61 0 -118 -67.5t-87 -197.5l1 3l-36 -155h-112l115 500h112l-30 -131q86 141 210 141z" />
    <glyph glyph-name="o" unicode="o" horiz-adv-x="578" 
d="M245 -10q-101 0 -156.5 57t-55.5 157q0 131 86.5 218t215.5 87q102 0 156 -57.5t54 -157.5q0 -131 -85.5 -217.5t-214.5 -86.5zM254 78q78 0 127.5 67t49.5 151q0 58 -26.5 91.5t-79.5 33.5q-77 0 -127 -66t-50 -152q0 -58 26 -91.5t80 -33.5z" />
    <glyph glyph-name="p" unicode="p" horiz-adv-x="591" 
d="M377 510q80 0 130 -58.5t50 -158.5q0 -125 -75 -214t-184 -89q-59 0 -99 25.5t-58 62.5l-69 -298h-112l166 720h112l-14 -62q26 33 67 52.5t86 19.5zM279 76q74 0 118.5 62.5t44.5 148.5q0 59 -24 95.5t-77 36.5q-71 0 -117 -63.5t-46 -153.5q0 -126 101 -126z" />
    <glyph glyph-name="q" unicode="q" horiz-adv-x="591" 
d="M468 500h112l-166 -720h-112l63 273q-57 -63 -151 -63q-87 0 -134.5 54t-47.5 150q0 131 81.5 223.5t189.5 92.5q52 0 92 -23t56 -61zM246 76q73 0 119.5 63t46.5 155q0 125 -95 125q-75 0 -123 -69t-48 -155q0 -56 25 -87.5t75 -31.5z" />
    <glyph glyph-name="r" unicode="r" horiz-adv-x="441" 
d="M390 500h79l-21 -95h-66q-81 0 -132 -43.5t-81 -171.5l2 8l-46 -198h-114l115 500h114l-23 -100q57 101 173 100z" />
    <glyph glyph-name="s" unicode="s" horiz-adv-x="510" 
d="M137 157q-11 -85 85 -85q42 0 67.5 16.5t25.5 47.5q0 10 -2 17.5t-8.5 14t-11.5 10.5t-18 9t-19.5 7t-25.5 7.5t-27 8.5q-71 21 -107.5 51.5t-36.5 84.5q0 74 63.5 118.5t161.5 44.5q101 0 157.5 -48.5t46.5 -134.5h-103q6 48 -23 72.5t-82 24.5q-50 0 -79.5 -20.5
t-29.5 -52.5q0 -26 21 -38t80 -30q73 -21 113.5 -52t40.5 -90q0 -72 -59 -111t-146 -39q-97 0 -148.5 47.5t-40.5 119.5h105z" />
    <glyph glyph-name="t" unicode="t" horiz-adv-x="392" 
d="M265 417l-53 -228q-24 -99 69 -99h50l-20 -90h-61q-93 0 -132.5 50.5t-19.5 135.5l53 231h-93l18 83h94l27 115l118 20l-31 -135h126l-19 -83h-126z" />
    <glyph glyph-name="u" unicode="u" 
d="M469 500h112l-115 -500h-112l28 121q-79 -131 -202 -131q-79 0 -115 51.5t-13 150.5l71 308h114l-65 -282q-17 -70 -4 -102.5t60 -32.5q66 0 120.5 66t85.5 199v-1z" />
    <glyph glyph-name="v" unicode="v" horiz-adv-x="555" 
d="M473 501h129l-317 -501h-131l-86 501h114l56 -390z" />
    <glyph glyph-name="w" unicode="w" horiz-adv-x="767" 
d="M690 501h112l-248 -501h-111l-27 394l-208 -394h-112l-16 501h100l6 -371l194 371h114l24 -362z" />
    <glyph glyph-name="x" unicode="x" horiz-adv-x="528" 
d="M456 0h-124l-81 172l-158 -172h-138l248 262l-116 239h122l72 -160l143 160h135l-228 -245z" />
    <glyph glyph-name="y" unicode="y" horiz-adv-x="566" 
d="M489 500h124l-373 -594q-43 -68 -90.5 -97t-128.5 -29h-93l20 89h65q48 0 75.5 17.5t59.5 66.5l35 54l-117 493h114l82 -375z" />
    <glyph glyph-name="z" unicode="z" horiz-adv-x="498" 
d="M493 501l-15 -71l-323 -338h255l-22 -92h-409l15 65l331 344h-239l20 92h387z" />
    <glyph glyph-name="braceleft" unicode="{" horiz-adv-x="361" 
d="M428 811h63l-20 -88h-38q-41 0 -67.5 -18.5t-38.5 -68.5l-39 -167q-29 -126 -137 -151q93 -41 65 -163l-33 -142q-12 -53 8.5 -72.5t67.5 -19.5h26l-20 -88h-39q-84 0 -123 48t-17 143l34 146q12 55 -6 79t-74 34l11 49l7 29q61 10 90.5 34t41.5 79l39 173q20 84 67 124
t132 40z" />
    <glyph glyph-name="bar" unicode="|" horiz-adv-x="251" 
d="M94 -100h-100l208 900h100z" />
    <glyph glyph-name="braceright" unicode="}" horiz-adv-x="362" 
d="M355 361l-11 -49l-7 -29q-61 -10 -90.5 -34t-41.5 -79l-39 -173q-20 -84 -67 -124t-132 -40h-63l20 88h38q41 0 67.5 18.5t38.5 68.5l39 167q29 126 137 151q-93 41 -65 163l33 142q12 53 -8.5 72.5t-67.5 19.5h-26l20 88h39q84 0 123 -48t17 -143l-34 -146
q-12 -55 6 -79t74 -34z" />
    <glyph glyph-name="asciitilde" unicode="~" horiz-adv-x="595" 
d="M36 169q20 77 66 121t111 44q42 0 73.5 -21t57 -42t52.5 -21q56 0 81 74h79q-19 -76 -65.5 -120t-111.5 -44q-33 0 -59.5 13t-41.5 29t-36 29t-43 13q-60 0 -84 -75h-79z" />
    <glyph glyph-name="uni00A0" unicode="&#xa0;" horiz-adv-x="240" 
 />
    <glyph glyph-name="exclamdown" unicode="&#xa1;" horiz-adv-x="228" 
d="M231 480l-29 -123h-128l28 123h129zM65 -220h-121l132 491h84z" />
    <glyph glyph-name="cent" unicode="&#xa2;" horiz-adv-x="595" 
d="M579 419h-104q4 39 -14.5 64.5t-54.5 33.5l-79 -338q81 14 119 95h106q-31 -85 -96 -132.5t-149 -52.5l-21 -89h-93l22 96q-74 17 -114 72t-40 138q0 118 78 202.5t195 99.5l21 92h93l-21 -92q78 -12 119.5 -60.5t32.5 -128.5zM169 310q0 -95 67 -124l76 326
q-63 -19 -103 -73t-40 -129z" />
    <glyph glyph-name="sterling" unicode="&#xa3;" horiz-adv-x="628" 
d="M608 475h-104q17 141 -102 141q-66 0 -105.5 -40t-39.5 -94q0 -21 8 -42.5t15.5 -33t25.5 -35t24 -31.5h187l-18 -77h-133q3 -15 3 -32q0 -93 -94 -138h251l-22 -93h-497l17 76q236 16 236 144q0 22 -8 43h-168l18 77h100q-54 68 -54 142q0 103 76 165.5t181 62.5
q104 0 162.5 -63t40.5 -172z" />
    <glyph glyph-name="currency" unicode="&#xa4;" horiz-adv-x="632" 
d="M522 366q18 -34 18 -80q0 -92 -65 -162l60 -83l-67 -51l-64 81q-60 -30 -127 -30q-65 0 -111 31l-102 -82l-50 60l97 84q-19 38 -19 82q0 92 64 159l-60 83l68 52l62 -82q60 31 130 31q66 0 112 -31l100 82l50 -61zM290 129q62 0 105 44t43 104q0 41 -25 67.5t-71 26.5
q-62 0 -105 -44t-43 -104q0 -42 25 -68t71 -26z" />
    <glyph glyph-name="yen" unicode="&#xa5;" horiz-adv-x="667" 
d="M755 699l-291 -309h140l-18 -76h-184l-20 -87h184l-17 -76h-185l-34 -151h-109l35 151h-184l17 76h184l21 87h-185l18 76h153l-149 309h117l122 -266l245 266h140z" />
    <glyph glyph-name="brokenbar" unicode="&#xa6;" horiz-adv-x="251" 
d="M228 480h-100l74 320h100zM94 -100h-100l74 320h100z" />
    <glyph glyph-name="section" unicode="&#xa7;" horiz-adv-x="502" 
d="M509 520h-93q7 47 -15.5 77t-75.5 30q-43 0 -73.5 -20t-30.5 -54q0 -9 2.5 -17t6 -13.5t11.5 -11.5t13.5 -9.5t18 -9t19.5 -8t23 -8.5l24 -9q70 -26 100 -55t30 -76q0 -92 -113 -128q50 -41 50 -106q0 -72 -58.5 -117t-150.5 -45q-102 0 -153 55.5t-36 142.5h96
q-15 -115 98 -115q49 0 75.5 20.5t26.5 53.5q0 21 -12.5 35.5t-29 22.5t-53.5 22q-9 3 -13 5q-64 25 -97 53.5t-33 79.5q0 86 109 124q-56 40 -56 107q0 73 59.5 118.5t147.5 45.5q98 0 146.5 -56.5t36.5 -133.5zM372 315q0 23 -15.5 38.5t-34.5 23.5t-54 20q-11 3 -16 5
q-10 3 -22 8q-65 -24 -65 -75q0 -8 1.5 -15.5t6 -13.5t8 -11t12 -10t14 -8t17 -7.5t18 -7t21 -7.5t21.5 -8q4 -1 20 -8q68 24 68 76z" />
    <glyph glyph-name="dieresis" unicode="&#xa8;" horiz-adv-x="424" 
d="M135 578l25 103h107l-24 -103h-108zM340 578l25 103h107l-24 -103h-108z" />
    <glyph glyph-name="copyright" unicode="&#xa9;" horiz-adv-x="818" 
d="M431 -10q-152 0 -255 103.5t-103 256.5t103 256.5t255 103.5t255 -103.5t103 -256.5t-103 -256.5t-255 -103.5zM431 52q123 0 206 86.5t83 211.5t-83 211.5t-206 86.5t-206 -86.5t-83 -211.5t83 -211.5t206 -86.5zM605 302q-8 -75 -53 -113.5t-117 -38.5q-88 0 -138 54
t-50 143q0 91 50.5 147t135.5 56q71 0 115.5 -39t52.5 -103h-76q-14 78 -91 78q-52 0 -82 -38t-30 -99q0 -62 30.5 -99t83.5 -37q79 0 94 89h75z" />
    <glyph glyph-name="guillemotleft" unicode="&#xab;" horiz-adv-x="633" 
d="M395 490l-216 -204l111 -186h-122l-112 199l202 191h137zM638 490l-216 -204l111 -186h-122l-112 199l202 191h137z" />
    <glyph glyph-name="logicalnot" unicode="&#xac;" horiz-adv-x="580" 
d="M557 366l-21 -90l-39 -165h-98l39 165h-381l20 90h480z" />
    <glyph glyph-name="uni00AD" unicode="&#xad;" horiz-adv-x="519" 
d="M71 341h418l-20 -90h-418z" />
    <glyph glyph-name="registered" unicode="&#xae;" horiz-adv-x="818" 
d="M431 710q152 0 255 -103.5t103 -256.5t-103 -256.5t-255 -103.5t-255 103.5t-103 256.5t103 256.5t255 103.5zM431 52q123 0 206 86.5t83 211.5t-83 211.5t-206 86.5t-206 -86.5t-83 -211.5t83 -211.5t206 -86.5zM483 330q61 -13 82 -81l27 -89h-81l-27 85q-3 9 -6.5 16
t-6 12.5t-8.5 9.5t-8.5 7t-10.5 5t-10 3t-13 1.5t-13 0.5h-15.5h-15.5v-140h-73v390h123q77 0 111.5 -34.5t34.5 -84.5q0 -84 -90 -101zM431 484h-54v-123h54q32 0 48.5 18.5t16.5 43.5q0 27 -16 44t-49 17z" />
    <glyph glyph-name="macron" unicode="&#xaf;" horiz-adv-x="424" 
d="M161 658h289l-17 -77h-290z" />
    <glyph glyph-name="degree" unicode="&#xb0;" horiz-adv-x="394" 
d="M238 410q-60 0 -97.5 37.5t-37.5 94.5q0 72 57 125t130 53q60 0 97.5 -37.5t37.5 -95.5q0 -72 -57 -124.5t-130 -52.5zM248 491q35 0 61 27t26 63q0 26 -14 42t-41 16q-35 0 -61.5 -27t-26.5 -63q0 -26 15 -42t41 -16z" />
    <glyph glyph-name="plusminus" unicode="&#xb1;" horiz-adv-x="586" 
d="M362 352h191l-21 -88h-190l-30 -127h-97l29 127h-191l20 88h192l29 128h98zM-2 -1l20 88h480l-21 -88h-479z" />
    <glyph glyph-name="uni00B2" unicode="&#xb2;" horiz-adv-x="366" 
d="M358 410h-271l10 44l102 66q38 25 57.5 39t41 33.5t30.5 38t9 39.5q0 44 -42 44q-32 0 -52.5 -25.5t-27.5 -64.5h-71q12 68 51.5 109.5t102.5 41.5q52 0 83 -27t31 -75t-33 -86.5t-103 -85.5l-50 -33h145z" />
    <glyph glyph-name="uni00B3" unicode="&#xb3;" horiz-adv-x="358" 
d="M329 577q40 -16 40 -66q0 -44 -37.5 -77.5t-103.5 -33.5q-67 0 -98 34t-22 85h72q-5 -31 10 -45t40 -14q31 0 51 17.5t20 39.5q0 40 -58 40h-26l12 48h34q37 0 59.5 18.5t22.5 46.5q0 44 -56 44q-73 0 -96 -72h-69q40 131 168 131q58 0 92.5 -26t34.5 -71q0 -72 -90 -99z
" />
    <glyph glyph-name="acute" unicode="&#xb4;" horiz-adv-x="424" 
d="M311 699h133l-155 -134h-99z" />
    <glyph glyph-name="uni00B5" unicode="&#xb5;" 
d="M469 500h112l-115 -500h-112l28 121q-79 -131 -202 -131q-40 0 -69 13l-51 -223h-103l94 406q0 1 0.5 3t0.5 3l71 308h114l-65 -282q-17 -70 -4 -102.5t60 -32.5q66 0 120.5 66t85.5 199v-1z" />
    <glyph glyph-name="paragraph" unicode="&#xb6;" 
d="M113 473q0 70 39.5 125t102.5 81q51 21 149 21h247l-12 -52h-80l-150 -648h-60l150 648h-80l-150 -648h-60l74 320q-85 0 -132 49q-38 36 -38 104z" />
    <glyph glyph-name="periodcentered" unicode="&#xb7;" horiz-adv-x="229" 
d="M49 245l29 123h128l-28 -123h-129z" />
    <glyph glyph-name="cedilla" unicode="&#xb8;" horiz-adv-x="424" 
d="M171 1q49 -36 49 -91t-41 -87.5t-120 -32.5h-47l15 63h36q43 0 65 18.5t22 48.5q0 43 -51 80z" />
    <glyph glyph-name="uni00B9" unicode="&#xb9;" horiz-adv-x="299" 
d="M351 770l-83 -360h-71l54 232q-56 -30 -130 -31l14 60q54 1 101 26t58 73h57z" />
    <glyph glyph-name="guillemotright" unicode="&#xbb;" horiz-adv-x="633" 
d="M240 490l112 -199l-202 -191h-137l216 204l-111 186h122zM483 490l112 -199l-202 -191h-137l216 204l-111 186h122z" />
    <glyph glyph-name="onequarter" unicode="&#xbc;" horiz-adv-x="774" 
d="M10 0l748 700h94l-748 -700h-94zM335 700l-83 -360h-71l54 232q-56 -30 -130 -31l14 60q54 1 101 26t58 73h57zM722 129l-13 -57h-58l-16 -72h-68l17 72h-176l9 42l215 246h86l-53 -231h57zM500 129h97l36 156z" />
    <glyph glyph-name="onehalf" unicode="&#xbd;" horiz-adv-x="842" 
d="M10 0l748 700h94l-748 -700h-94zM335 700l-83 -360h-71l54 232q-56 -30 -130 -31l14 60q54 1 101 26t58 73h57zM739 0h-271l10 44l102 66q38 25 57.5 39t41 33.5t30.5 38t9 39.5q0 44 -42 44q-32 0 -52.5 -25.5t-27.5 -64.5h-71q12 68 51.5 109.5t102.5 41.5q52 0 83 -27
t31 -75t-33 -86.5t-103 -85.5l-50 -33h145z" />
    <glyph glyph-name="threequarters" unicode="&#xbe;" horiz-adv-x="802" 
d="M313 507q40 -16 40 -66q0 -44 -37.5 -77.5t-103.5 -33.5q-67 0 -98 34t-22 85h72q-5 -31 10 -45t40 -14q31 0 51 17.5t20 39.5q0 40 -58 40h-26l12 48h34q37 0 59.5 18.5t22.5 46.5q0 44 -56 44q-73 0 -96 -72h-69q40 131 168 131q58 0 92.5 -26t34.5 -71q0 -72 -90 -99z
M38 0l748 700h94l-748 -700h-94zM750 129l-13 -57h-58l-16 -72h-68l17 72h-176l9 42l215 246h86l-53 -231h57zM528 129h97l36 156z" />
    <glyph glyph-name="questiondown" unicode="&#xbf;" horiz-adv-x="465" 
d="M224 355l29 123h128l-28 -123h-129zM142 -229q-87 0 -137 41.5t-50 118.5q0 43 17 77t42.5 54t57 41.5t59.5 39t51 46.5t31 65l5 18h105l-7 -30q-12 -54 -42.5 -93.5t-64.5 -61.5t-66.5 -41.5t-53.5 -45.5t-21 -61q0 -75 80 -75q52 0 91.5 37.5t55.5 119.5h107
q-46 -250 -260 -250z" />
    <glyph glyph-name="Agrave" unicode="&#xc0;" horiz-adv-x="686" 
d="M542 777h-99l-112 147h134zM490 0l-19 166h-287l-97 -166h-127l416 700h142l93 -700h-121zM240 263h220l-36 315z" />
    <glyph glyph-name="Aacute" unicode="&#xc1;" horiz-adv-x="686" 
d="M662 924l-171 -147h-109l133 147h147zM518 700l93 -700h-121l-19 166h-287l-97 -166h-127l416 700h142zM240 263h220l-36 315z" />
    <glyph glyph-name="Acircumflex" unicode="&#xc2;" horiz-adv-x="686" 
d="M482 848l-78 -79h-107l144 143h106l77 -143h-99zM518 700l93 -700h-121l-19 166h-287l-97 -166h-127l416 700h142zM240 263h220l-36 315z" />
    <glyph glyph-name="Atilde" unicode="&#xc3;" horiz-adv-x="686" 
d="M618 908h76q-23 -65 -63 -99t-90 -34q-36 0 -59.5 12.5t-40.5 25.5t-38 13q-39 0 -63 -46h-73q21 65 60.5 99t92.5 34q44 0 77.5 -25.5t57.5 -25.5q42 0 63 46zM518 700l93 -700h-121l-19 166h-287l-97 -166h-127l416 700h142zM240 263h220l-36 315z" />
    <glyph glyph-name="Adieresis" unicode="&#xc4;" horiz-adv-x="686" 
d="M437 890l-26 -113h-119l27 113h118zM544 890h118l-26 -113h-118zM518 700l93 -700h-121l-19 166h-287l-97 -166h-127l416 700h142zM240 263h220l-36 315z" />
    <glyph glyph-name="Aring" unicode="&#xc5;" horiz-adv-x="686" 
d="M490 0l-19 166h-287l-97 -166h-127l396 666q-21 27 -21 64q0 54 41 92t96 38q47 0 73.5 -28.5t26.5 -71.5q0 -61 -49 -100l88 -660h-121zM464 789q-21 0 -37 -16.5t-16 -36.5q0 -15 9 -25t25 -10q20 0 36 16.5t16 36.5q0 14 -8.5 24.5t-24.5 10.5zM240 263h220l-36 315z
" />
    <glyph glyph-name="AE" unicode="&#xc6;" horiz-adv-x="891" 
d="M911 596h-379l25 -193h286l-22 -98h-251l27 -201h199l-23 -104h-283l-19 166h-287l-97 -166h-127l416 700h559zM240 263h220l-36 315z" />
    <glyph glyph-name="Ccedilla" unicode="&#xc7;" horiz-adv-x="743" 
d="M735 461h-120q3 67 -35.5 106t-117.5 39q-127 0 -204 -95.5t-77 -226.5q0 -93 44 -143t132 -50q151 0 217 165h120q-38 -130 -126.5 -195t-205.5 -71q42 -38 42 -89q0 -60 -45.5 -96t-131.5 -36h-52l16 69h40q47 0 71.5 20.5t24.5 53.5q0 44 -50 83q-105 17 -161 90
t-57 190q-2 179 115 307t299 128q134 0 202.5 -70.5t59.5 -178.5z" />
    <glyph glyph-name="Egrave" unicode="&#xc8;" horiz-adv-x="594" 
d="M504 777h-99l-112 147h134zM613 595h-338l-45 -192h317l-23 -98h-316l-47 -200h339l-24 -105h-459l162 700h459z" />
    <glyph glyph-name="Eacute" unicode="&#xc9;" horiz-adv-x="594" 
d="M624 924l-171 -147h-109l133 147h147zM613 595h-338l-45 -192h317l-23 -98h-316l-47 -200h339l-24 -105h-459l162 700h459z" />
    <glyph glyph-name="Ecircumflex" unicode="&#xca;" horiz-adv-x="594" 
d="M444 848l-78 -79h-107l144 143h106l77 -143h-99zM613 595h-338l-45 -192h317l-23 -98h-316l-47 -200h339l-24 -105h-459l162 700h459z" />
    <glyph glyph-name="Edieresis" unicode="&#xcb;" horiz-adv-x="594" 
d="M399 890l-26 -113h-119l27 113h118zM624 890l-26 -113h-118l26 113h118zM613 595h-338l-45 -192h317l-23 -98h-316l-47 -200h339l-24 -105h-459l162 700h459z" />
    <glyph glyph-name="Igrave" unicode="&#xcc;" horiz-adv-x="272" 
d="M258 924l77 -147h-99l-112 147h134zM138 0h-121l162 700h121z" />
    <glyph glyph-name="Iacute" unicode="&#xcd;" horiz-adv-x="272" 
d="M308 924h147l-171 -147h-109zM138 0h-121l162 700h121z" />
    <glyph glyph-name="Icircumflex" unicode="&#xce;" horiz-adv-x="272" 
d="M417 769h-99l-43 79l-78 -79h-107l144 143h106zM138 0h-121l162 700h121z" />
    <glyph glyph-name="Idieresis" unicode="&#xcf;" horiz-adv-x="272" 
d="M85 777l27 113h118l-26 -113h-119zM311 777l26 113h118l-26 -113h-118zM138 0h-121l162 700h121z" />
    <glyph glyph-name="Eth" unicode="&#xd0;" horiz-adv-x="712" 
d="M400 700q143 0 218.5 -79.5t75.5 -214.5q0 -59 -14 -115t-46.5 -109.5t-80 -93.5t-120.5 -64t-163 -24h-253l69 300h-134l23 99h134l70 301h221zM271 102q65 0 117.5 19.5t85 50t54.5 71.5t30.5 82t8.5 84q0 89 -44 139t-151 50h-96l-46 -199h221l-23 -99h-221l-45 -198
h109z" />
    <glyph glyph-name="Ntilde" unicode="&#xd1;" horiz-adv-x="739" 
d="M429 826q-39 0 -63 -46h-73q21 65 60.5 99t92.5 34q44 0 77.5 -25.5t57.5 -25.5q42 0 63 46h76q-23 -65 -63 -99t-90 -34q-36 0 -59.5 12.5t-40.5 25.5t-38 13zM651 700h116l-162 -700h-140l-200 565l-131 -565h-117l162 700h142l199 -565z" />
    <glyph glyph-name="Ograve" unicode="&#xd2;" horiz-adv-x="785" 
d="M500 924l77 -147h-99l-112 147h134zM352 -10q-141 0 -216 77.5t-75 217.5q0 183 117.5 304t298.5 121q140 0 215.5 -78t75.5 -218q0 -182 -117.5 -303t-298.5 -121zM360 93q118 0 198.5 94t80.5 227q0 91 -43.5 142t-126.5 51q-118 0 -198.5 -94t-80.5 -227
q0 -92 43.5 -142.5t126.5 -50.5z" />
    <glyph glyph-name="Oacute" unicode="&#xd3;" horiz-adv-x="785" 
d="M550 924h147l-171 -147h-109zM352 -10q-141 0 -216 77.5t-75 217.5q0 183 117.5 304t298.5 121q140 0 215.5 -78t75.5 -218q0 -182 -117.5 -303t-298.5 -121zM360 93q118 0 198.5 94t80.5 227q0 91 -43.5 142t-126.5 51q-118 0 -198.5 -94t-80.5 -227q0 -92 43.5 -142.5
t126.5 -50.5z" />
    <glyph glyph-name="Ocircumflex" unicode="&#xd4;" horiz-adv-x="785" 
d="M659 769h-99l-43 79l-78 -79h-107l144 143h106zM352 -10q-141 0 -216 77.5t-75 217.5q0 183 117.5 304t298.5 121q140 0 215.5 -78t75.5 -218q0 -182 -117.5 -303t-298.5 -121zM360 93q118 0 198.5 94t80.5 227q0 91 -43.5 142t-126.5 51q-118 0 -198.5 -94t-80.5 -227
q0 -92 43.5 -142.5t126.5 -50.5z" />
    <glyph glyph-name="Otilde" unicode="&#xd5;" horiz-adv-x="785" 
d="M302 780q21 65 60.5 99t92.5 34q44 0 77.5 -25.5t57.5 -25.5q42 0 63 46h76q-23 -65 -63 -99t-90 -34q-36 0 -59.5 12.5t-40.5 25.5t-38 13q-39 0 -63 -46h-73zM352 -10q-141 0 -216 77.5t-75 217.5q0 183 117.5 304t298.5 121q140 0 215.5 -78t75.5 -218
q0 -182 -117.5 -303t-298.5 -121zM360 93q118 0 198.5 94t80.5 227q0 91 -43.5 142t-126.5 51q-118 0 -198.5 -94t-80.5 -227q0 -92 43.5 -142.5t126.5 -50.5z" />
    <glyph glyph-name="Odieresis" unicode="&#xd6;" horiz-adv-x="785" 
d="M327 777l27 113h118l-26 -113h-119zM553 777l26 113h118l-26 -113h-118zM352 -10q-141 0 -216 77.5t-75 217.5q0 183 117.5 304t298.5 121q140 0 215.5 -78t75.5 -218q0 -182 -117.5 -303t-298.5 -121zM360 93q118 0 198.5 94t80.5 227q0 91 -43.5 142t-126.5 51
q-118 0 -198.5 -94t-80.5 -227q0 -92 43.5 -142.5t126.5 -50.5z" />
    <glyph glyph-name="multiply" unicode="&#xd7;" horiz-adv-x="583" 
d="M532 391l-181 -150l114 -150l-70 -55l-113 148l-179 -148l-54 66l181 150l-114 150l70 56l113 -149l179 148z" />
    <glyph glyph-name="Oslash" unicode="&#xd8;" horiz-adv-x="785" 
d="M815 665l-87 -80q40 -71 40 -171q0 -182 -117.5 -303t-298.5 -121q-127 0 -202 64l-81 -74l-57 55l88 81q-39 68 -39 169q0 183 117.5 304t298.5 121q126 0 201 -64l80 74zM190 286q0 -45 10 -78l388 356q-43 43 -119 43q-118 0 -198.5 -94t-80.5 -227zM639 414
q0 42 -11 80l-388 -357q42 -44 120 -44q118 0 198.5 94t80.5 227z" />
    <glyph glyph-name="Ugrave" unicode="&#xd9;" horiz-adv-x="727" 
d="M486 924l77 -147h-99l-112 147h134zM177 700h121l-92 -397q-48 -209 123 -209q168 0 216 209l92 397h121l-97 -421q-31 -138 -118 -215t-230 -74q-143 2 -202.5 84t-23.5 238z" />
    <glyph glyph-name="Uacute" unicode="&#xda;" horiz-adv-x="727" 
d="M536 924h147l-171 -147h-109zM177 700h121l-92 -397q-48 -209 123 -209q168 0 216 209l92 397h121l-97 -421q-31 -138 -118 -215t-230 -74q-143 2 -202.5 84t-23.5 238z" />
    <glyph glyph-name="Ucircumflex" unicode="&#xdb;" horiz-adv-x="727" 
d="M645 769h-99l-43 79l-78 -79h-107l144 143h106zM177 700h121l-92 -397q-48 -209 123 -209q168 0 216 209l92 397h121l-97 -421q-31 -138 -118 -215t-230 -74q-143 2 -202.5 84t-23.5 238z" />
    <glyph glyph-name="Udieresis" unicode="&#xdc;" horiz-adv-x="727" 
d="M313 777l27 113h118l-26 -113h-119zM539 777l26 113h118l-26 -113h-118zM177 700h121l-92 -397q-48 -209 123 -209q168 0 216 209l92 397h121l-97 -421q-31 -138 -118 -215t-230 -74q-143 2 -202.5 84t-23.5 238z" />
    <glyph glyph-name="Yacute" unicode="&#xdd;" horiz-adv-x="684" 
d="M663 924l-171 -147h-109l133 147h147zM616 700h146l-515 -700h-147l208 278l-185 422h137l131 -314z" />
    <glyph glyph-name="Thorn" unicode="&#xde;" horiz-adv-x="626" 
d="M377 587q114 0 169 -61.5t55 -153.5q0 -109 -74.5 -183.5t-219.5 -74.5h-145l-26 -114h-119l162 700h119l-26 -113h105zM314 214q80 0 122.5 44.5t42.5 109.5q0 53 -27.5 85.5t-86.5 32.5h-117l-62 -272h128z" />
    <glyph glyph-name="germandbls" unicode="&#xdf;" horiz-adv-x="562" 
d="M404 391q113 -38 113 -169q0 -100 -70 -161t-204 -61h-37l20 91h26q79 0 118 40t39 100q0 50 -29.5 80.5t-93.5 30.5h-43l20 83h23q62 0 98 35t36 84q0 32 -17.5 52.5t-52.5 20.5q-39 0 -69.5 -28.5t-42.5 -81.5l-117 -507h-111l121 522q21 89 82 138.5t147 49.5
q82 0 129 -45t47 -115q0 -59 -34.5 -100t-97.5 -59z" />
    <glyph glyph-name="agrave" unicode="&#xe0;" 
d="M420 565h-90l-102 134h122zM471 500h110l-115 -500h-110l13 55q-25 -27 -67 -46t-93 -19q-82 0 -130 52.5t-48 148.5q0 133 84.5 226t193.5 93q51 0 89 -22.5t56 -63.5zM244 77q57 0 100.5 39t61.5 102l7 29q4 21 4 49q0 122 -97 122q-77 0 -125.5 -69t-48.5 -155
q0 -117 98 -117z" />
    <glyph glyph-name="aacute" unicode="&#xe1;" 
d="M537 699l-155 -134h-99l121 134h133zM471 500h110l-115 -500h-110l13 55q-25 -27 -67 -46t-93 -19q-82 0 -130 52.5t-48 148.5q0 133 84.5 226t193.5 93q51 0 89 -22.5t56 -63.5zM244 77q57 0 100.5 39t61.5 102l7 29q4 21 4 49q0 122 -97 122q-77 0 -125.5 -69
t-48.5 -155q0 -117 98 -117z" />
    <glyph glyph-name="acircumflex" unicode="&#xe2;" 
d="M374 634l-72 -72h-97l131 130h96l70 -130h-90zM471 500h110l-115 -500h-110l13 55q-25 -27 -67 -46t-93 -19q-82 0 -130 52.5t-48 148.5q0 133 84.5 226t193.5 93q51 0 89 -22.5t56 -63.5zM244 77q57 0 100.5 39t61.5 102l7 29q4 21 4 49q0 122 -97 122q-77 0 -125.5 -69
t-48.5 -155q0 -117 98 -117z" />
    <glyph glyph-name="atilde" unicode="&#xe3;" 
d="M300 607q-35 0 -55 -42h-64q38 121 133 121q38 0 68 -23t50 -23q36 0 55 42h66q-20 -59 -55 -90t-78 -31q-41 0 -71 23t-49 23zM471 500h110l-115 -500h-110l13 55q-25 -27 -67 -46t-93 -19q-82 0 -130 52.5t-48 148.5q0 133 84.5 226t193.5 93q51 0 89 -22.5t56 -63.5z
M244 77q57 0 100.5 39t61.5 102l7 29q4 21 4 49q0 122 -97 122q-77 0 -125.5 -69t-48.5 -155q0 -117 98 -117z" />
    <glyph glyph-name="adieresis" unicode="&#xe4;" 
d="M333 681l-24 -103h-108l25 103h107zM538 681l-24 -103h-108l25 103h107zM471 500h110l-115 -500h-110l13 55q-25 -27 -67 -46t-93 -19q-82 0 -130 52.5t-48 148.5q0 133 84.5 226t193.5 93q51 0 89 -22.5t56 -63.5zM244 77q57 0 100.5 39t61.5 102l7 29q4 21 4 49
q0 122 -97 122q-77 0 -125.5 -69t-48.5 -155q0 -117 98 -117z" />
    <glyph glyph-name="aring" unicode="&#xe5;" 
d="M357 542q-44 0 -68.5 26.5t-24.5 65.5q0 48 37 83t88 35q43 0 67 -26t24 -65q0 -49 -36.5 -84t-86.5 -35zM381 687q-19 0 -33.5 -15t-14.5 -33q0 -13 8.5 -22.5t22.5 -9.5q18 0 32.5 15t14.5 33q0 13 -8 22.5t-22 9.5zM471 500h110l-115 -500h-110l13 55q-25 -27 -67 -46
t-93 -19q-82 0 -130 52.5t-48 148.5q0 133 84.5 226t193.5 93q51 0 89 -22.5t56 -63.5zM244 77q57 0 100.5 39t61.5 102l7 29q4 21 4 49q0 122 -97 122q-77 0 -125.5 -69t-48.5 -155q0 -117 98 -117z" />
    <glyph glyph-name="ae" unicode="&#xe6;" horiz-adv-x="913" 
d="M668 509q112 0 162 -72t29 -194q-3 -18 -4 -20h-364q-1 -7 -1 -20q0 -126 115 -126q91 0 130 87h109q-65 -174 -244 -174q-149 0 -200 109q-35 -50 -100.5 -79.5t-135.5 -29.5q-67 0 -108.5 29.5t-41.5 93.5q0 78 63 115.5t188 58.5q89 15 111 27q25 14 31 40
q7 31 -14.5 50t-65.5 19q-101 0 -132 -99h-108q22 83 81 134t162 51q116 0 159 -62q77 62 179 62zM506 296h252q15 129 -92 129q-57 0 -98.5 -36t-61.5 -93zM200 70q58 0 107.5 37t67.5 108l4 16q0 4 2 14q-35 -16 -113 -31q-70 -15 -104.5 -34t-34.5 -57q0 -53 71 -53z" />
    <glyph glyph-name="ccedilla" unicode="&#xe7;" horiz-adv-x="570" 
d="M530 315h-108q4 49 -21.5 77t-74.5 28q-78 0 -129.5 -64.5t-51.5 -148.5q0 -58 28.5 -92.5t81.5 -34.5q97 0 139 101h112q-66 -182 -239 -191q36 -34 36 -80q0 -55 -41 -87.5t-120 -32.5h-47l15 63h36q43 0 65 18.5t22 48.5q0 40 -47 77q-74 17 -114 70.5t-40 133.5
q0 124 83 216t211 92q101 0 158 -55.5t46 -138.5z" />
    <glyph glyph-name="egrave" unicode="&#xe8;" horiz-adv-x="568" 
d="M403 565h-90l-102 134h122zM323 509q112 0 162 -72t29 -194q-3 -18 -4 -20h-364q-1 -7 -1 -20q0 -126 115 -126q91 0 130 87h109q-65 -174 -244 -174q-109 0 -165.5 59t-56.5 156q0 121 80 212.5t210 91.5zM161 296h252q15 129 -92 129q-57 0 -98.5 -36t-61.5 -93z" />
    <glyph glyph-name="eacute" unicode="&#xe9;" horiz-adv-x="568" 
d="M520 699l-155 -134h-99l121 134h133zM323 509q112 0 162 -72t29 -194q-3 -18 -4 -20h-364q-1 -7 -1 -20q0 -126 115 -126q91 0 130 87h109q-65 -174 -244 -174q-109 0 -165.5 59t-56.5 156q0 121 80 212.5t210 91.5zM161 296h252q15 129 -92 129q-57 0 -98.5 -36
t-61.5 -93z" />
    <glyph glyph-name="ecircumflex" unicode="&#xea;" horiz-adv-x="568" 
d="M357 634l-72 -72h-97l131 130h96l70 -130h-90zM323 509q112 0 162 -72t29 -194q-3 -18 -4 -20h-364q-1 -7 -1 -20q0 -126 115 -126q91 0 130 87h109q-65 -174 -244 -174q-109 0 -165.5 59t-56.5 156q0 121 80 212.5t210 91.5zM161 296h252q15 129 -92 129
q-57 0 -98.5 -36t-61.5 -93z" />
    <glyph glyph-name="edieresis" unicode="&#xeb;" horiz-adv-x="568" 
d="M316 681l-24 -103h-108l25 103h107zM521 681l-24 -103h-108l25 103h107zM323 509q112 0 162 -72t29 -194q-3 -18 -4 -20h-364q-1 -7 -1 -20q0 -126 115 -126q91 0 130 87h109q-65 -174 -244 -174q-109 0 -165.5 59t-56.5 156q0 121 80 212.5t210 91.5zM161 296h252
q15 129 -92 129q-57 0 -98.5 -36t-61.5 -93z" />
    <glyph glyph-name="igrave" unicode="&#xec;" horiz-adv-x="250" 
d="M195 699l70 -134h-90l-102 134h122zM124 0h-113l115 500h113z" />
    <glyph glyph-name="iacute" unicode="&#xed;" horiz-adv-x="250" 
d="M249 699h133l-155 -134h-99zM124 0h-113l115 500h113z" />
    <glyph glyph-name="icircumflex" unicode="&#xee;" horiz-adv-x="250" 
d="M347 562h-90l-38 72l-72 -72h-97l131 130h96zM124 0h-113l115 500h113z" />
    <glyph glyph-name="idieresis" unicode="&#xef;" horiz-adv-x="250" 
d="M46 578l25 103h107l-24 -103h-108zM251 578l25 103h107l-24 -103h-108zM124 0h-113l115 500h113z" />
    <glyph glyph-name="eth" unicode="&#xf0;" horiz-adv-x="565" 
d="M580 637l-89 -40q56 -81 56 -212q0 -175 -87.5 -285t-226.5 -110q-90 0 -147 51.5t-57 148.5q0 120 84 200t196 80q104 0 143 -75q2 104 -54 160l-130 -59l-24 51l98 45q-48 19 -111 19h-51l21 89h60q119 0 189 -59l107 49zM244 78q57 0 101 36.5t61 112.5
q17 74 -11.5 114.5t-85.5 40.5q-71 0 -121 -56t-50 -134q0 -58 29 -86t77 -28z" />
    <glyph glyph-name="ntilde" unicode="&#xf1;" horiz-adv-x="593" 
d="M312 607q-35 0 -55 -42h-64q38 121 133 121q38 0 68 -23t50 -23q36 0 55 42h66q-20 -59 -55 -90t-78 -31q-41 0 -71 23t-49 23zM418 510q77 0 110.5 -53t10.5 -155l-70 -302h-113l63 271q18 76 5.5 111t-61.5 35q-61 0 -118 -67.5t-87 -197.5l1 3l-36 -155h-112l115 500
h112l-30 -131q86 141 210 141z" />
    <glyph glyph-name="ograve" unicode="&#xf2;" horiz-adv-x="578" 
d="M352 699l70 -134h-90l-102 134h122zM245 -10q-101 0 -156.5 57t-55.5 157q0 131 86.5 218t215.5 87q102 0 156 -57.5t54 -157.5q0 -131 -85.5 -217.5t-214.5 -86.5zM254 78q78 0 127.5 67t49.5 151q0 58 -26.5 91.5t-79.5 33.5q-77 0 -127 -66t-50 -152q0 -58 26 -91.5
t80 -33.5z" />
    <glyph glyph-name="oacute" unicode="&#xf3;" horiz-adv-x="578" 
d="M406 699h133l-155 -134h-99zM245 -10q-101 0 -156.5 57t-55.5 157q0 131 86.5 218t215.5 87q102 0 156 -57.5t54 -157.5q0 -131 -85.5 -217.5t-214.5 -86.5zM254 78q78 0 127.5 67t49.5 151q0 58 -26.5 91.5t-79.5 33.5q-77 0 -127 -66t-50 -152q0 -58 26 -91.5t80 -33.5
z" />
    <glyph glyph-name="ocircumflex" unicode="&#xf4;" horiz-adv-x="578" 
d="M504 562h-90l-38 72l-72 -72h-97l131 130h96zM245 -10q-101 0 -156.5 57t-55.5 157q0 131 86.5 218t215.5 87q102 0 156 -57.5t54 -157.5q0 -131 -85.5 -217.5t-214.5 -86.5zM254 78q78 0 127.5 67t49.5 151q0 58 -26.5 91.5t-79.5 33.5q-77 0 -127 -66t-50 -152
q0 -58 26 -91.5t80 -33.5z" />
    <glyph glyph-name="otilde" unicode="&#xf5;" horiz-adv-x="578" 
d="M183 565q38 121 133 121q38 0 68 -23t50 -23q36 0 55 42h66q-20 -59 -55 -90t-78 -31q-41 0 -71 23t-49 23q-35 0 -55 -42h-64zM245 -10q-101 0 -156.5 57t-55.5 157q0 131 86.5 218t215.5 87q102 0 156 -57.5t54 -157.5q0 -131 -85.5 -217.5t-214.5 -86.5zM254 78
q78 0 127.5 67t49.5 151q0 58 -26.5 91.5t-79.5 33.5q-77 0 -127 -66t-50 -152q0 -58 26 -91.5t80 -33.5z" />
    <glyph glyph-name="odieresis" unicode="&#xf6;" horiz-adv-x="578" 
d="M203 578l25 103h107l-24 -103h-108zM408 578l25 103h107l-24 -103h-108zM245 -10q-101 0 -156.5 57t-55.5 157q0 131 86.5 218t215.5 87q102 0 156 -57.5t54 -157.5q0 -131 -85.5 -217.5t-214.5 -86.5zM254 78q78 0 127.5 67t49.5 151q0 58 -26.5 91.5t-79.5 33.5
q-77 0 -127 -66t-50 -152q0 -58 26 -91.5t80 -33.5z" />
    <glyph glyph-name="divide" unicode="&#xf7;" horiz-adv-x="580" 
d="M259 360l25 107h112l-25 -107h-112zM59 288h480l-21 -90h-479zM182 21l25 107h112l-25 -107h-112z" />
    <glyph glyph-name="oslash" unicode="&#xf8;" horiz-adv-x="578" 
d="M591 475l-72 -63q26 -50 26 -118q0 -131 -85.5 -217.5t-214.5 -86.5q-96 0 -150 51l-71 -62l-39 41l75 66q-27 48 -27 118q0 131 86.5 218t215.5 87q93 0 148 -50l68 60zM148 203q0 -19 3 -37l252 223q-27 32 -78 32q-77 0 -127 -66t-50 -152zM431 296q0 20 -3 36
l-253 -221q27 -33 79 -33q78 0 127.5 67t49.5 151z" />
    <glyph glyph-name="ugrave" unicode="&#xf9;" 
d="M435 565h-90l-102 134h122zM469 500h112l-115 -500h-112l28 121q-79 -131 -202 -131q-79 0 -115 51.5t-13 150.5l71 308h114l-65 -282q-17 -70 -4 -102.5t60 -32.5q66 0 120.5 66t85.5 199v-1z" />
    <glyph glyph-name="uacute" unicode="&#xfa;" 
d="M552 699l-155 -134h-99l121 134h133zM469 500h112l-115 -500h-112l28 121q-79 -131 -202 -131q-79 0 -115 51.5t-13 150.5l71 308h114l-65 -282q-17 -70 -4 -102.5t60 -32.5q66 0 120.5 66t85.5 199v-1z" />
    <glyph glyph-name="ucircumflex" unicode="&#xfb;" 
d="M389 634l-72 -72h-97l131 130h96l70 -130h-90zM469 500h112l-115 -500h-112l28 121q-79 -131 -202 -131q-79 0 -115 51.5t-13 150.5l71 308h114l-65 -282q-17 -70 -4 -102.5t60 -32.5q66 0 120.5 66t85.5 199v-1z" />
    <glyph glyph-name="udieresis" unicode="&#xfc;" 
d="M348 681l-24 -103h-108l25 103h107zM553 681l-24 -103h-108l25 103h107zM469 500h112l-115 -500h-112l28 121q-79 -131 -202 -131q-79 0 -115 51.5t-13 150.5l71 308h114l-65 -282q-17 -70 -4 -102.5t60 -32.5q66 0 120.5 66t85.5 199v-1z" />
    <glyph glyph-name="yacute" unicode="&#xfd;" horiz-adv-x="566" 
d="M537 699l-155 -134h-99l121 134h133zM489 500h124l-373 -594q-43 -68 -90.5 -97t-128.5 -29h-93l20 89h65q48 0 75.5 17.5t59.5 66.5l35 54l-117 493h114l82 -375z" />
    <glyph glyph-name="thorn" unicode="&#xfe;" horiz-adv-x="591" 
d="M377 510q80 0 130 -58.5t50 -158.5q0 -125 -75 -214t-184 -89q-59 0 -99 25.5t-58 62.5l-69 -298h-112l166 720l49 210h112l-49 -210l-14 -62q26 33 67 52.5t86 19.5zM279 76q74 0 118.5 62.5t44.5 148.5q0 59 -24 95.5t-77 36.5q-71 0 -117 -63.5t-46 -153.5
q0 -126 101 -126z" />
    <glyph glyph-name="ydieresis" unicode="&#xff;" horiz-adv-x="566" 
d="M333 681l-24 -103h-108l25 103h107zM538 681l-24 -103h-108l25 103h107zM489 500h124l-373 -594q-43 -68 -90.5 -97t-128.5 -29h-93l20 89h65q48 0 75.5 17.5t59.5 66.5l35 54l-117 493h114l82 -375z" />
    <glyph glyph-name="Amacron" unicode="&#x100;" horiz-adv-x="686" 
d="M325 874h318l-18 -85h-319zM518 700l93 -700h-121l-19 166h-287l-97 -166h-127l416 700h142zM240 263h220l-36 315z" />
    <glyph glyph-name="amacron" unicode="&#x101;" 
d="M519 658l-17 -77h-290l18 77h289zM471 500h110l-115 -500h-110l13 55q-25 -27 -67 -46t-93 -19q-82 0 -130 52.5t-48 148.5q0 133 84.5 226t193.5 93q51 0 89 -22.5t56 -63.5zM244 77q57 0 100.5 39t61.5 102l7 29q4 21 4 49q0 122 -97 122q-77 0 -125.5 -69t-48.5 -155
q0 -117 98 -117z" />
    <glyph glyph-name="Abreve" unicode="&#x102;" horiz-adv-x="686" 
d="M471 772q-67 0 -101.5 43t-22.5 100h86q-5 -28 7 -47t42 -19t50 18.5t27 47.5h87q-14 -63 -61 -103t-114 -40zM518 700l93 -700h-121l-19 166h-287l-97 -166h-127l416 700h142zM240 263h220l-36 315z" />
    <glyph glyph-name="abreve" unicode="&#x103;" 
d="M358 560q-61 0 -93 39t-20 91h78q-4 -26 6.5 -43t38.5 -17q53 0 70 60h79q-13 -57 -55.5 -93.5t-103.5 -36.5zM471 500h110l-115 -500h-110l13 55q-25 -27 -67 -46t-93 -19q-82 0 -130 52.5t-48 148.5q0 133 84.5 226t193.5 93q51 0 89 -22.5t56 -63.5zM244 77
q57 0 100.5 39t61.5 102l7 29q4 21 4 49q0 122 -97 122q-77 0 -125.5 -69t-48.5 -155q0 -117 98 -117z" />
    <glyph glyph-name="Aogonek" unicode="&#x104;" horiz-adv-x="686" 
d="M610 0q-104 -55 -104 -113q0 -48 67 -48h21l-17 -70h-31q-62 0 -93.5 29t-31.5 74t27.5 72.5t79.5 55.5h-38l-19 166h-287l-97 -166h-127l416 700h142l93 -700h-1zM240 263h220l-36 315z" />
    <glyph glyph-name="aogonek" unicode="&#x105;" 
d="M466 0q-95 -49 -95 -103q0 -43 61 -43h19l-15 -64h-28q-57 0 -85.5 26.5t-28.5 67.5t25 66t72 50h-35l13 55q-25 -27 -67 -46t-93 -19q-82 0 -130 52.5t-48 148.5q0 133 84.5 226t193.5 93q51 0 89 -22.5t56 -63.5l17 76h110zM244 77q57 0 100.5 39t61.5 102l7 29
q4 21 4 49q0 122 -97 122q-77 0 -125.5 -69t-48.5 -155q0 -117 98 -117z" />
    <glyph glyph-name="Cacute" unicode="&#x106;" horiz-adv-x="743" 
d="M544 924h147l-171 -147h-109zM694 256q-39 -136 -133.5 -201t-217.5 -65q-136 0 -209.5 75.5t-74.5 209.5q-2 179 115 307t299 128q134 0 202.5 -70.5t59.5 -178.5h-120q3 67 -35.5 106t-117.5 39q-127 0 -204 -95.5t-77 -226.5q0 -93 44 -143t132 -50q151 0 217 165h120
z" />
    <glyph glyph-name="cacute" unicode="&#x107;" horiz-adv-x="570" 
d="M398 699h133l-155 -134h-99zM422 315q4 49 -21.5 77t-74.5 28q-78 0 -129.5 -64.5t-51.5 -148.5q0 -58 28.5 -92.5t81.5 -34.5q97 0 139 101h112q-69 -191 -254 -191q-104 0 -162 57t-58 154q0 124 83 216t211 92q101 0 158 -55.5t46 -138.5h-108z" />
    <glyph glyph-name="Ccircumflex" unicode="&#x108;" horiz-adv-x="743" 
d="M653 769h-99l-43 79l-78 -79h-107l144 143h106zM694 256q-39 -136 -133.5 -201t-217.5 -65q-136 0 -209.5 75.5t-74.5 209.5q-2 179 115 307t299 128q134 0 202.5 -70.5t59.5 -178.5h-120q3 67 -35.5 106t-117.5 39q-127 0 -204 -95.5t-77 -226.5q0 -93 44 -143t132 -50
q151 0 217 165h120z" />
    <glyph glyph-name="ccircumflex" unicode="&#x109;" horiz-adv-x="570" 
d="M496 562h-90l-38 72l-72 -72h-97l131 130h96zM422 315q4 49 -21.5 77t-74.5 28q-78 0 -129.5 -64.5t-51.5 -148.5q0 -58 28.5 -92.5t81.5 -34.5q97 0 139 101h112q-69 -191 -254 -191q-104 0 -162 57t-58 154q0 124 83 216t211 92q101 0 158 -55.5t46 -138.5h-108z" />
    <glyph glyph-name="Cdotaccent" unicode="&#x10a;" horiz-adv-x="743" 
d="M426 786l27 119h135l-27 -119h-135zM694 256q-39 -136 -133.5 -201t-217.5 -65q-136 0 -209.5 75.5t-74.5 209.5q-2 179 115 307t299 128q134 0 202.5 -70.5t59.5 -178.5h-120q3 67 -35.5 106t-117.5 39q-127 0 -204 -95.5t-77 -226.5q0 -93 44 -143t132 -50
q151 0 217 165h120z" />
    <glyph glyph-name="cdotaccent" unicode="&#x10b;" horiz-adv-x="570" 
d="M290 579l25 108h123l-25 -108h-123zM422 315q4 49 -21.5 77t-74.5 28q-78 0 -129.5 -64.5t-51.5 -148.5q0 -58 28.5 -92.5t81.5 -34.5q97 0 139 101h112q-69 -191 -254 -191q-104 0 -162 57t-58 154q0 124 83 216t211 92q101 0 158 -55.5t46 -138.5h-108z" />
    <glyph glyph-name="Ccaron" unicode="&#x10c;" horiz-adv-x="743" 
d="M580 915h107l-144 -143h-106l-77 143h99l43 -78zM694 256q-39 -136 -133.5 -201t-217.5 -65q-136 0 -209.5 75.5t-74.5 209.5q-2 179 115 307t299 128q134 0 202.5 -70.5t59.5 -178.5h-120q3 67 -35.5 106t-117.5 39q-127 0 -204 -95.5t-77 -226.5q0 -93 44 -143t132 -50
q151 0 217 165h120z" />
    <glyph glyph-name="ccaron" unicode="&#x10d;" horiz-adv-x="570" 
d="M429 692h97l-131 -130h-96l-70 130h90l39 -71zM422 315q4 49 -21.5 77t-74.5 28q-78 0 -129.5 -64.5t-51.5 -148.5q0 -58 28.5 -92.5t81.5 -34.5q97 0 139 101h112q-69 -191 -254 -191q-104 0 -162 57t-58 154q0 124 83 216t211 92q101 0 158 -55.5t46 -138.5h-108z" />
    <glyph glyph-name="Dcaron" unicode="&#x10e;" horiz-adv-x="712" 
d="M492 772h-106l-77 143h99l43 -78l78 78h107zM400 700q143 0 218.5 -79.5t75.5 -214.5q0 -59 -14 -115t-46.5 -109.5t-80 -93.5t-120.5 -64t-163 -24h-253l162 700h221zM271 102q65 0 117.5 19.5t85 50t54.5 71.5t30.5 82t8.5 84q0 89 -44 139t-151 50h-96l-114 -496h109z
" />
    <glyph glyph-name="dcaron" unicode="&#x10f;" horiz-adv-x="589" 
d="M450 425l66 285h111l-164 -710h-111l14 62q-23 -28 -63.5 -50t-95.5 -22q-84 0 -130 55t-46 148q0 130 82.5 223.5t191.5 93.5q50 0 89 -24t56 -61zM700 686h124l-17 -71q-20 -84 -58 -117.5t-118 -39.5l12 49q40 1 58.5 18.5t26.5 49.5h-55zM243 76q74 0 121.5 65.5
t47.5 152.5q0 60 -25.5 92.5t-74.5 32.5q-75 0 -121 -69.5t-46 -153.5q0 -56 24.5 -88t73.5 -32z" />
    <glyph glyph-name="Dcroat" unicode="&#x110;" horiz-adv-x="712" 
d="M400 700q143 0 218.5 -79.5t75.5 -214.5q0 -59 -14 -115t-46.5 -109.5t-80 -93.5t-120.5 -64t-163 -24h-253l69 300h-134l23 99h134l70 301h221zM271 102q65 0 117.5 19.5t85 50t54.5 71.5t30.5 82t8.5 84q0 89 -44 139t-151 50h-96l-46 -199h221l-23 -99h-221l-45 -198
h109z" />
    <glyph glyph-name="dcroat" unicode="&#x111;" horiz-adv-x="589" 
d="M695 634l-19 -80h-85l-128 -554h-111l14 62q-23 -28 -63.5 -50t-95.5 -22q-84 0 -130 55t-46 148q0 130 82.5 223.5t191.5 93.5q50 0 89 -24t56 -61l30 129h-137l18 80h137l18 76h111l-18 -76h86zM243 76q74 0 121.5 65.5t47.5 152.5q0 60 -25.5 92.5t-74.5 32.5
q-75 0 -121 -69.5t-46 -153.5q0 -56 24.5 -88t73.5 -32z" />
    <glyph glyph-name="Emacron" unicode="&#x112;" horiz-adv-x="594" 
d="M605 874l-18 -85h-319l19 85h318zM613 595h-338l-45 -192h317l-23 -98h-316l-47 -200h339l-24 -105h-459l162 700h459z" />
    <glyph glyph-name="emacron" unicode="&#x113;" horiz-adv-x="568" 
d="M502 658l-17 -77h-290l18 77h289zM323 509q112 0 162 -72t29 -194q-3 -18 -4 -20h-364q-1 -7 -1 -20q0 -126 115 -126q91 0 130 87h109q-65 -174 -244 -174q-109 0 -165.5 59t-56.5 156q0 121 80 212.5t210 91.5zM161 296h252q15 129 -92 129q-57 0 -98.5 -36t-61.5 -93z
" />
    <glyph glyph-name="Ebreve" unicode="&#x114;" horiz-adv-x="594" 
d="M433 772q-67 0 -101.5 43t-22.5 100h86q-5 -28 7 -47t42 -19t50 18.5t27 47.5h87q-14 -63 -61 -103t-114 -40zM613 595h-338l-45 -192h317l-23 -98h-316l-47 -200h339l-24 -105h-459l162 700h459z" />
    <glyph glyph-name="ebreve" unicode="&#x115;" horiz-adv-x="568" 
d="M341 560q-61 0 -93 39t-20 91h78q-4 -26 6.5 -43t38.5 -17q53 0 70 60h79q-13 -57 -55.5 -93.5t-103.5 -36.5zM323 509q112 0 162 -72t29 -194q-3 -18 -4 -20h-364q-1 -7 -1 -20q0 -126 115 -126q91 0 130 87h109q-65 -174 -244 -174q-109 0 -165.5 59t-56.5 156
q0 121 80 212.5t210 91.5zM161 296h252q15 129 -92 129q-57 0 -98.5 -36t-61.5 -93z" />
    <glyph glyph-name="Edotaccent" unicode="&#x116;" horiz-adv-x="594" 
d="M521 905l-27 -119h-135l27 119h135zM613 595h-338l-45 -192h317l-23 -98h-316l-47 -200h339l-24 -105h-459l162 700h459z" />
    <glyph glyph-name="edotaccent" unicode="&#x117;" horiz-adv-x="568" 
d="M427 687l-25 -108h-123l25 108h123zM323 509q112 0 162 -72t29 -194q-3 -18 -4 -20h-364q-1 -7 -1 -20q0 -126 115 -126q91 0 130 87h109q-65 -174 -244 -174q-109 0 -165.5 59t-56.5 156q0 121 80 212.5t210 91.5zM161 296h252q15 129 -92 129q-57 0 -98.5 -36
t-61.5 -93z" />
    <glyph glyph-name="Eogonek" unicode="&#x118;" horiz-adv-x="594" 
d="M613 595h-338l-45 -192h317l-23 -98h-316l-47 -200h339l-24 -105h-122q-104 -55 -104 -113q0 -48 67 -48h21l-17 -70h-31q-62 0 -93.5 29t-31.5 74t27.5 72.5t79.5 55.5h-255l162 700h459z" />
    <glyph glyph-name="eogonek" unicode="&#x119;" horiz-adv-x="568" 
d="M323 509q112 0 162 -72t29 -194q-3 -18 -4 -20h-364q-1 -7 -1 -20q0 -126 115 -126q91 0 130 87h109q-60 -161 -220 -173q-78 -45 -78 -94q0 -43 61 -43h19l-15 -64h-28q-57 0 -85.5 26.5t-28.5 67.5q0 38 22 62.5t62 46.5q-86 12 -130.5 69t-44.5 143q0 121 80 212.5
t210 91.5zM161 296h252q15 129 -92 129q-57 0 -98.5 -36t-61.5 -93z" />
    <glyph glyph-name="Ecaron" unicode="&#x11a;" horiz-adv-x="594" 
d="M476 772h-106l-77 143h99l43 -78l78 78h107zM613 595h-338l-45 -192h317l-23 -98h-316l-47 -200h339l-24 -105h-459l162 700h459z" />
    <glyph glyph-name="ecaron" unicode="&#x11b;" horiz-adv-x="568" 
d="M384 562h-96l-70 130h90l39 -71l71 71h97zM323 509q112 0 162 -72t29 -194q-3 -18 -4 -20h-364q-1 -7 -1 -20q0 -126 115 -126q91 0 130 87h109q-65 -174 -244 -174q-109 0 -165.5 59t-56.5 156q0 121 80 212.5t210 91.5zM161 296h252q15 129 -92 129q-57 0 -98.5 -36
t-61.5 -93z" />
    <glyph glyph-name="Gcircumflex" unicode="&#x11c;" horiz-adv-x="763" 
d="M519 848l-78 -79h-107l144 143h106l77 -143h-99zM736 458h-117q8 72 -29 111t-113 39q-122 0 -208.5 -95t-86.5 -228q0 -90 45.5 -142t140.5 -52q83 0 142.5 44t81.5 140h-231l20 89h337l-7 -30h1l-77 -334h-76l12 103q-83 -112 -234 -113q-130 -1 -202.5 75t-74.5 211
q-2 180 117 307t303 127q135 0 204.5 -70.5t51.5 -181.5z" />
    <glyph glyph-name="gcircumflex" unicode="&#x11d;" horiz-adv-x="588" 
d="M366 634l-72 -72h-97l131 130h96l70 -130h-90zM467 500h109l-102 -444l-14 -64q-26 -114 -92 -168t-178 -54q-122 0 -168 54t-34 132h105q-6 -43 16.5 -71t84.5 -28q69 0 105.5 37t53.5 108l12 54l1 3q-63 -69 -160 -69q-82 0 -129 53t-47 147q0 132 84 226t194 94
q50 0 89 -22.5t53 -63.5zM243 76q75 0 122 64.5t47 157.5q0 121 -95 121q-76 0 -124.5 -68.5t-48.5 -155.5q0 -119 99 -119z" />
    <glyph glyph-name="Gbreve" unicode="&#x11e;" horiz-adv-x="763" 
d="M508 772q-67 0 -101.5 43t-22.5 100h86q-5 -28 7 -47t42 -19t50 18.5t27 47.5h87q-14 -63 -61 -103t-114 -40zM736 458h-117q8 72 -29 111t-113 39q-122 0 -208.5 -95t-86.5 -228q0 -90 45.5 -142t140.5 -52q83 0 142.5 44t81.5 140h-231l20 89h337l-7 -30h1l-77 -334
h-76l12 103q-83 -112 -234 -113q-130 -1 -202.5 75t-74.5 211q-2 180 117 307t303 127q135 0 204.5 -70.5t51.5 -181.5z" />
    <glyph glyph-name="gbreve" unicode="&#x11f;" horiz-adv-x="588" 
d="M350 560q-61 0 -93 39t-20 91h78q-4 -26 6.5 -43t38.5 -17q53 0 70 60h79q-13 -57 -55.5 -93.5t-103.5 -36.5zM467 500h109l-102 -444l-14 -64q-26 -114 -92 -168t-178 -54q-122 0 -168 54t-34 132h105q-6 -43 16.5 -71t84.5 -28q69 0 105.5 37t53.5 108l12 54l1 3
q-63 -69 -160 -69q-82 0 -129 53t-47 147q0 132 84 226t194 94q50 0 89 -22.5t53 -63.5zM243 76q75 0 122 64.5t47 157.5q0 121 -95 121q-76 0 -124.5 -68.5t-48.5 -155.5q0 -119 99 -119z" />
    <glyph glyph-name="Gdotaccent" unicode="&#x120;" horiz-adv-x="763" 
d="M596 905l-27 -119h-135l27 119h135zM736 458h-117q8 72 -29 111t-113 39q-122 0 -208.5 -95t-86.5 -228q0 -90 45.5 -142t140.5 -52q83 0 142.5 44t81.5 140h-231l20 89h337l-7 -30h1l-77 -334h-76l12 103q-83 -112 -234 -113q-130 -1 -202.5 75t-74.5 211
q-2 180 117 307t303 127q135 0 204.5 -70.5t51.5 -181.5z" />
    <glyph glyph-name="gdotaccent" unicode="&#x121;" horiz-adv-x="588" 
d="M436 687l-25 -108h-123l25 108h123zM467 500h109l-102 -444l-14 -64q-26 -114 -92 -168t-178 -54q-122 0 -168 54t-34 132h105q-6 -43 16.5 -71t84.5 -28q69 0 105.5 37t53.5 108l12 54l1 3q-63 -69 -160 -69q-82 0 -129 53t-47 147q0 132 84 226t194 94q50 0 89 -22.5
t53 -63.5zM243 76q75 0 122 64.5t47 157.5q0 121 -95 121q-76 0 -124.5 -68.5t-48.5 -155.5q0 -119 99 -119z" />
    <glyph glyph-name="Gcommaaccent" unicode="&#x122;" horiz-adv-x="763" 
d="M736 458h-117q8 72 -29 111t-113 39q-122 0 -208.5 -95t-86.5 -228q0 -90 45.5 -142t140.5 -52q83 0 142.5 44t81.5 140h-231l20 89h337l-7 -30h1l-77 -334h-76l12 103q-83 -112 -234 -113q-130 -1 -202.5 75t-74.5 211q-2 180 117 307t303 127q135 0 204.5 -70.5
t51.5 -181.5zM225 -183l27 116h126l-17 -74q-21 -88 -59.5 -122.5t-119.5 -40.5l12 50q40 2 59 20t27 51h-55z" />
    <glyph glyph-name="gcommaaccent" unicode="&#x123;" horiz-adv-x="588" 
d="M444 665l-22 -98h-105l15 63q17 75 49 104.5t99 34.5l-10 -43q-34 -2 -49.5 -17.5t-21.5 -43.5h45zM467 500h109l-102 -444l-14 -64q-26 -114 -92 -168t-178 -54q-122 0 -168 54t-34 132h105q-6 -43 16.5 -71t84.5 -28q69 0 105.5 37t53.5 108l12 54l1 3
q-63 -69 -160 -69q-82 0 -129 53t-47 147q0 132 84 226t194 94q50 0 89 -22.5t53 -63.5zM243 76q75 0 122 64.5t47 157.5q0 121 -95 121q-76 0 -124.5 -68.5t-48.5 -155.5q0 -119 99 -119z" />
    <glyph glyph-name="Hcircumflex" unicode="&#x124;" horiz-adv-x="735" 
d="M508 848l-78 -79h-107l144 143h106l77 -143h-99zM639 700h124l-162 -700h-124l70 304h-337l-70 -304h-123l162 700h123l-68 -293h337z" />
    <glyph glyph-name="hcircumflex" unicode="&#x125;" horiz-adv-x="593" 
d="M267 844l-72 -72h-97l131 130h96l70 -130h-90zM418 510q77 0 110.5 -53t10.5 -155l-70 -302h-113l63 271q18 76 5.5 111t-61.5 35q-61 0 -118 -67.5t-87 -197.5l1 3l-36 -155h-112l115 500l49 210h112l-49 -210l-30 -131q86 141 210 141z" />
    <glyph glyph-name="Hbar" unicode="&#x126;" horiz-adv-x="725" 
d="M644 700h124l-162 -700h-124l39 167h-337l-39 -167h-123l162 700h123l-40 -173h337zM207 269h337l36 156h-337z" />
    <glyph glyph-name="hbar" unicode="&#x127;" horiz-adv-x="593" 
d="M418 510q77 0 110.5 -53t10.5 -155l-70 -302h-113l63 271q18 76 5.5 111t-61.5 35q-61 0 -118 -67.5t-87 -197.5l1 3l-36 -155h-112l115 500l13 54h-95l18 80h95l18 76h112l-18 -76h127l-19 -80h-126l-13 -54l-30 -131q86 141 210 141z" />
    <glyph glyph-name="Itilde" unicode="&#x128;" horiz-adv-x="272" 
d="M60 780q21 65 60.5 99t92.5 34q44 0 77.5 -25.5t57.5 -25.5q42 0 63 46h76q-23 -65 -63 -99t-90 -34q-36 0 -59.5 12.5t-40.5 25.5t-38 13q-39 0 -63 -46h-73zM138 0h-121l162 700h121z" />
    <glyph glyph-name="itilde" unicode="&#x129;" horiz-adv-x="250" 
d="M26 565q38 121 133 121q39 0 68 -23t50 -23q36 0 55 42h66q-20 -59 -55 -90t-78 -31q-41 0 -71 23t-49 23q-35 0 -55 -42h-64zM124 0h-113l115 500h113z" />
    <glyph glyph-name="Imacron" unicode="&#x12a;" horiz-adv-x="272" 
d="M118 874h318l-18 -85h-319zM138 0h-121l162 700h121z" />
    <glyph glyph-name="imacron" unicode="&#x12b;" horiz-adv-x="250" 
d="M75 658h289l-17 -77h-290zM124 0h-113l115 500h113z" />
    <glyph glyph-name="Ibreve" unicode="&#x12c;" horiz-adv-x="272" 
d="M439 915q-14 -63 -61 -103t-114 -40t-101.5 43t-22.5 100h86q-5 -28 7 -47t42 -19t50 18.5t27 47.5h87zM138 0h-121l162 700h121z" />
    <glyph glyph-name="ibreve" unicode="&#x12d;" horiz-adv-x="250" 
d="M362 690q-13 -57 -55.5 -93.5t-103.5 -36.5t-93 39t-20 91h78q-4 -26 6.5 -43t38.5 -17q53 0 70 60h79zM124 0h-113l115 500h113z" />
    <glyph glyph-name="Iogonek" unicode="&#x12e;" horiz-adv-x="272" 
d="M179 700h121l-162 -700h-1q-104 -55 -104 -113q0 -48 67 -48h21l-17 -70h-31q-62 0 -93.5 29t-31.5 74t27.5 72.5t79.5 55.5h-38z" />
    <glyph glyph-name="iogonek" unicode="&#x12f;" horiz-adv-x="250" 
d="M166 687h123l-25 -108h-123zM11 0l115 500h113l-115 -500q-95 -49 -95 -103q0 -43 61 -43h19l-15 -64h-28q-57 0 -85.5 26.5t-28.5 67.5t25 66t72 50h-38z" />
    <glyph glyph-name="Idotaccent" unicode="&#x130;" horiz-adv-x="272" 
d="M190 786l27 119h135l-27 -119h-135zM138 0h-121l162 700h121z" />
    <glyph glyph-name="dotlessi" unicode="&#x131;" horiz-adv-x="250" 
d="M124 0h-113l115 500h113z" />
    <glyph glyph-name="IJ" unicode="&#x132;" horiz-adv-x="911" 
d="M138 0h-121l162 700h121zM822 700h120l-107 -465q-27 -120 -105 -182.5t-196 -62.5q-131 0 -190.5 73t-30.5 203l7 32h119l-7 -32q-19 -86 9 -129.5t99 -43.5q141 0 182 178z" />
    <glyph glyph-name="ij" unicode="&#x133;" horiz-adv-x="499" 
d="M289 687l-25 -108h-123l25 108h123zM415 687h123l-25 -108h-123zM239 500l-115 -500h-113l115 500h113zM375 500h113l-107 -464h1l-25 -105q-34 -151 -200 -151h-113l22 91h70q94 0 116 94l16 71z" />
    <glyph glyph-name="Jcircumflex" unicode="&#x134;" horiz-adv-x="648" 
d="M796 769h-99l-43 79l-78 -79h-107l144 143h106zM559 700h120l-107 -465q-27 -120 -105 -182.5t-196 -62.5q-131 0 -190.5 73t-30.5 203l7 32h119l-7 -32q-19 -86 9 -129.5t99 -43.5q141 0 182 178z" />
    <glyph glyph-name="jcircumflex" unicode="&#x135;" horiz-adv-x="250" 
d="M277 692l70 -130h-90l-38 72l-72 -72h-97l131 130h96zM126 500h113l-107 -464h1l-25 -105q-34 -151 -200 -151h-113l22 91h70q94 0 116 94l16 71z" />
    <glyph glyph-name="Kcommaaccent" unicode="&#x136;" horiz-adv-x="636" 
d="M708 700l-347 -313l204 -387h-131l-164 305l-80 -72l-54 -233h-119l162 700h119l-67 -291l318 291h159zM161 -183l27 116h126l-17 -74q-21 -88 -59.5 -122.5t-119.5 -40.5l12 50q40 2 59 20t27 51h-55z" />
    <glyph glyph-name="kcommaaccent" unicode="&#x137;" horiz-adv-x="527" 
d="M561 500l-255 -219l152 -281h-117l-115 213l-75 -64l-34 -149h-107l164 710h107l-95 -413l236 203h139zM127 -166l25 105h114l-15 -68q-19 -79 -54 -110.5t-109 -37.5l11 46q37 2 54 18.5t24 46.5h-50z" />
    <glyph glyph-name="Lacute" unicode="&#x139;" horiz-adv-x="584" 
d="M456 924l-171 -147h-109l133 147h147zM164 107h348l-24 -107h-471l162 700h122z" />
    <glyph glyph-name="lacute" unicode="&#x13a;" horiz-adv-x="250" 
d="M297 909h133l-155 -134h-99zM124 0h-114l164 710h114z" />
    <glyph glyph-name="Lcommaaccent" unicode="&#x13b;" horiz-adv-x="584" 
d="M164 107h348l-24 -107h-471l162 700h122zM150 -183l27 116h126l-17 -74q-21 -88 -59.5 -122.5t-119.5 -40.5l12 50q40 2 59 20t27 51h-55z" />
    <glyph glyph-name="lcommaaccent" unicode="&#x13c;" horiz-adv-x="250" 
d="M174 710h114l-164 -710h-114zM-27 -166l25 105h114l-15 -68q-19 -79 -54 -110.5t-109 -37.5l11 46q37 2 54 18.5t24 46.5h-50z" />
    <glyph glyph-name="Lcaron" unicode="&#x13d;" horiz-adv-x="584" 
d="M420 704h126l-17 -74q-21 -88 -59.5 -122.5t-119.5 -40.5l12 50q40 2 59 20t27 51h-55zM301 700l-137 -593h348l-24 -107h-471l162 700h122z" />
    <glyph glyph-name="lcaron" unicode="&#x13e;" horiz-adv-x="250" 
d="M10 0l164 710h114l-164 -710h-114zM363 696h124l-17 -71q-20 -84 -58 -117.5t-118 -39.5l12 49q40 1 58.5 18.5t26.5 49.5h-55z" />
    <glyph glyph-name="Ldot" unicode="&#x13f;" horiz-adv-x="584" 
d="M164 107h348l-24 -107h-471l162 700h122zM463 457l-28 -123h-129l29 123h128z" />
    <glyph glyph-name="Lslash" unicode="&#x141;" horiz-adv-x="584" 
d="M164 107h348l-24 -107h-471l55 237l-114 -65l26 116l115 65l80 347h122l-62 -267l191 109l-27 -117l-191 -108z" />
    <glyph glyph-name="lslash" unicode="&#x142;" horiz-adv-x="250" 
d="M344 533l-23 -98l-115 -79l-82 -356h-114l61 263l-115 -79l23 98l114 79l81 349h114l-59 -256z" />
    <glyph glyph-name="Nacute" unicode="&#x143;" horiz-adv-x="739" 
d="M688 924l-171 -147h-109l133 147h147zM651 700h116l-162 -700h-140l-200 565l-131 -565h-117l162 700h142l199 -565z" />
    <glyph glyph-name="nacute" unicode="&#x144;" horiz-adv-x="593" 
d="M549 699l-155 -134h-99l121 134h133zM418 510q77 0 110.5 -53t10.5 -155l-70 -302h-113l63 271q18 76 5.5 111t-61.5 35q-61 0 -118 -67.5t-87 -197.5l1 3l-36 -155h-112l115 500h112l-30 -131q86 141 210 141z" />
    <glyph glyph-name="Ncommaaccent" unicode="&#x145;" horiz-adv-x="739" 
d="M651 700h116l-162 -700h-140l-200 565l-131 -565h-117l162 700h142l199 -565zM219 -183l27 116h126l-17 -74q-21 -88 -59.5 -122.5t-119.5 -40.5l12 50q40 2 59 20t27 51h-55z" />
    <glyph glyph-name="ncommaaccent" unicode="&#x146;" horiz-adv-x="593" 
d="M418 510q77 0 110.5 -53t10.5 -155l-70 -302h-113l63 271q18 76 5.5 111t-61.5 35q-61 0 -118 -67.5t-87 -197.5l1 3l-36 -155h-112l115 500h112l-30 -131q86 141 210 141zM151 -166l25 105h114l-15 -68q-19 -79 -54 -110.5t-109 -37.5l11 46q37 2 54 18.5t24 46.5h-50z
" />
    <glyph glyph-name="Ncaron" unicode="&#x147;" horiz-adv-x="739" 
d="M540 772h-106l-77 143h99l43 -78l78 78h107zM651 700h116l-162 -700h-140l-200 565l-131 -565h-117l162 700h142l199 -565z" />
    <glyph glyph-name="ncaron" unicode="&#x148;" horiz-adv-x="593" 
d="M413 562h-96l-70 130h90l39 -71l71 71h97zM418 510q77 0 110.5 -53t10.5 -155l-70 -302h-113l63 271q18 76 5.5 111t-61.5 35q-61 0 -118 -67.5t-87 -197.5l1 3l-36 -155h-112l115 500h112l-30 -131q86 141 210 141z" />
    <glyph glyph-name="Eng" unicode="&#x14a;" horiz-adv-x="739" 
d="M767 700l-152 -658l-21 -91q-20 -84 -77.5 -127.5t-138.5 -43.5h-105l22 94h68q97 0 119 92l8 34h-25l-200 565l-131 -565h-117l162 700h142l199 -565l131 565h116z" />
    <glyph glyph-name="eng" unicode="&#x14b;" horiz-adv-x="593" 
d="M418 510q77 0 110.5 -53t10.5 -155l-62 -266h1l-25 -105q-34 -151 -200 -151h-113l22 91h70q94 0 116 94l16 71l55 235q18 76 5.5 111t-61.5 35q-61 0 -118 -67.5t-87 -197.5l1 3l-36 -155h-112l115 500h112l-30 -131q86 141 210 141z" />
    <glyph glyph-name="Omacron" unicode="&#x14c;" horiz-adv-x="785" 
d="M360 874h318l-18 -85h-319zM352 -10q-141 0 -216 77.5t-75 217.5q0 183 117.5 304t298.5 121q140 0 215.5 -78t75.5 -218q0 -182 -117.5 -303t-298.5 -121zM360 93q118 0 198.5 94t80.5 227q0 91 -43.5 142t-126.5 51q-118 0 -198.5 -94t-80.5 -227q0 -92 43.5 -142.5
t126.5 -50.5z" />
    <glyph glyph-name="omacron" unicode="&#x14d;" horiz-adv-x="578" 
d="M232 658h289l-17 -77h-290zM245 -10q-101 0 -156.5 57t-55.5 157q0 131 86.5 218t215.5 87q102 0 156 -57.5t54 -157.5q0 -131 -85.5 -217.5t-214.5 -86.5zM254 78q78 0 127.5 67t49.5 151q0 58 -26.5 91.5t-79.5 33.5q-77 0 -127 -66t-50 -152q0 -58 26 -91.5t80 -33.5z
" />
    <glyph glyph-name="Obreve" unicode="&#x14e;" horiz-adv-x="785" 
d="M681 915q-14 -63 -61 -103t-114 -40t-101.5 43t-22.5 100h86q-5 -28 7 -47t42 -19t50 18.5t27 47.5h87zM352 -10q-141 0 -216 77.5t-75 217.5q0 183 117.5 304t298.5 121q140 0 215.5 -78t75.5 -218q0 -182 -117.5 -303t-298.5 -121zM360 93q118 0 198.5 94t80.5 227
q0 91 -43.5 142t-126.5 51q-118 0 -198.5 -94t-80.5 -227q0 -92 43.5 -142.5t126.5 -50.5z" />
    <glyph glyph-name="obreve" unicode="&#x14f;" horiz-adv-x="578" 
d="M519 690q-13 -57 -55.5 -93.5t-103.5 -36.5t-93 39t-20 91h78q-4 -26 6.5 -43t38.5 -17q53 0 70 60h79zM245 -10q-101 0 -156.5 57t-55.5 157q0 131 86.5 218t215.5 87q102 0 156 -57.5t54 -157.5q0 -131 -85.5 -217.5t-214.5 -86.5zM254 78q78 0 127.5 67t49.5 151
q0 58 -26.5 91.5t-79.5 33.5q-77 0 -127 -66t-50 -152q0 -58 26 -91.5t80 -33.5z" />
    <glyph glyph-name="Ohungarumlaut" unicode="&#x150;" horiz-adv-x="785" 
d="M463 930h123l-136 -149h-98zM649 930h122l-136 -149h-98zM352 -10q-141 0 -216 77.5t-75 217.5q0 183 117.5 304t298.5 121q140 0 215.5 -78t75.5 -218q0 -182 -117.5 -303t-298.5 -121zM360 93q118 0 198.5 94t80.5 227q0 91 -43.5 142t-126.5 51q-118 0 -198.5 -94
t-80.5 -227q0 -92 43.5 -142.5t126.5 -50.5z" />
    <glyph glyph-name="ohungarumlaut" unicode="&#x151;" horiz-adv-x="578" 
d="M321 695h112l-124 -135h-89zM490 695h111l-124 -135h-89zM245 -10q-101 0 -156.5 57t-55.5 157q0 131 86.5 218t215.5 87q102 0 156 -57.5t54 -157.5q0 -131 -85.5 -217.5t-214.5 -86.5zM254 78q78 0 127.5 67t49.5 151q0 58 -26.5 91.5t-79.5 33.5q-77 0 -127 -66
t-50 -152q0 -58 26 -91.5t80 -33.5z" />
    <glyph glyph-name="OE" unicode="&#x152;" horiz-adv-x="1142" 
d="M1161 595h-338l-45 -192h317l-23 -98h-316l-47 -200h339l-24 -105h-459l12 52q-98 -62 -225 -62q-141 0 -216 77.5t-75 217.5q0 183 117.5 304t298.5 121q155 0 230 -95l20 85h459zM360 93q118 0 198.5 94t80.5 227q0 91 -43.5 142t-126.5 51q-118 0 -198.5 -94
t-80.5 -227q0 -92 43.5 -142.5t126.5 -50.5z" />
    <glyph glyph-name="oe" unicode="&#x153;" horiz-adv-x="961" 
d="M716 509q112 0 162 -72t29 -194q-3 -18 -4 -20h-364q-1 -7 -1 -20q0 -126 115 -126q91 0 130 87h109q-65 -174 -244 -174q-132 0 -188 87q-84 -87 -215 -87q-101 0 -156.5 57t-55.5 157q0 131 86.5 218t215.5 87q123 0 177 -85q82 85 204 85zM554 296h252q15 129 -92 129
q-57 0 -98.5 -36t-61.5 -93zM254 78q78 0 127.5 67t49.5 151q0 58 -26.5 91.5t-79.5 33.5q-77 0 -127 -66t-50 -152q0 -58 26 -91.5t80 -33.5z" />
    <glyph glyph-name="Racute" unicode="&#x154;" horiz-adv-x="646" 
d="M613 924l-171 -147h-109l133 147h147zM641 507q0 -78 -50 -132t-158 -74q99 -30 112 -149l17 -152h-125l-16 148q-8 74 -54.5 93t-172.5 19l-60 -260h-117l162 700h231q121 0 176 -55t55 -138zM360 358q78 0 117.5 38.5t39.5 94.5q0 45 -26.5 74.5t-83.5 29.5h-135
l-55 -237h143z" />
    <glyph glyph-name="racute" unicode="&#x155;" horiz-adv-x="441" 
d="M490 699l-155 -134h-99l121 134h133zM217 400q57 101 173 100h79l-21 -95h-66q-81 0 -132 -43.5t-81 -171.5l2 8l-46 -198h-114l115 500h114z" />
    <glyph glyph-name="Rcommaaccent" unicode="&#x156;" horiz-adv-x="646" 
d="M641 507q0 -78 -50 -132t-158 -74q99 -30 112 -149l17 -152h-125l-16 148q-8 74 -54.5 93t-172.5 19l-60 -260h-117l162 700h231q121 0 176 -55t55 -138zM360 358q78 0 117.5 38.5t39.5 94.5q0 45 -26.5 74.5t-83.5 29.5h-135l-55 -237h143zM181 -183l27 116h126l-17 -74
q-21 -88 -59.5 -122.5t-119.5 -40.5l12 50q40 2 59 20t27 51h-55z" />
    <glyph glyph-name="rcommaaccent" unicode="&#x157;" horiz-adv-x="441" 
d="M390 500h79l-21 -95h-66q-81 0 -132 -43.5t-81 -171.5l2 8l-46 -198h-114l115 500h114l-23 -100q57 101 173 100zM-26 -166l25 105h114l-15 -68q-19 -79 -54 -110.5t-109 -37.5l11 46q37 2 54 18.5t24 46.5h-50z" />
    <glyph glyph-name="Rcaron" unicode="&#x158;" horiz-adv-x="646" 
d="M465 772h-106l-77 143h99l43 -78l78 78h107zM641 507q0 -78 -50 -132t-158 -74q99 -30 112 -149l17 -152h-125l-16 148q-8 74 -54.5 93t-172.5 19l-60 -260h-117l162 700h231q121 0 176 -55t55 -138zM360 358q78 0 117.5 38.5t39.5 94.5q0 45 -26.5 74.5t-83.5 29.5h-135
l-55 -237h143z" />
    <glyph glyph-name="rcaron" unicode="&#x159;" horiz-adv-x="441" 
d="M354 562h-96l-70 130h90l39 -71l71 71h97zM217 400q57 101 173 100h79l-21 -95h-66q-81 0 -132 -43.5t-81 -171.5l2 8l-46 -198h-114l115 500h114z" />
    <glyph glyph-name="Sacute" unicode="&#x15a;" horiz-adv-x="644" 
d="M474 924h147l-171 -147h-109zM171 215q-16 -124 116 -124q63 0 99 27.5t36 72.5q0 17 -6.5 30t-15.5 21.5t-31 18t-39.5 15.5t-54.5 17q-94 27 -138.5 69t-44.5 114q0 106 85.5 170t209.5 64q126 0 200 -68t55 -187h-118q11 72 -23.5 111.5t-112.5 39.5q-73 0 -123 -33
t-50 -89q0 -23 8.5 -39.5t30.5 -29t42 -20.5t59 -20q42 -12 68 -22t58.5 -30.5t48.5 -53t16 -76.5q0 -94 -72.5 -148.5t-187.5 -54.5q-124 0 -186 62t-47 163h118z" />
    <glyph glyph-name="sacute" unicode="&#x15b;" horiz-adv-x="510" 
d="M356 699h133l-155 -134h-99zM137 157q-11 -85 85 -85q42 0 67.5 16.5t25.5 47.5q0 10 -2 17.5t-8.5 14t-11.5 10.5t-18 9t-19.5 7t-25.5 7.5t-27 8.5q-71 21 -107.5 51.5t-36.5 84.5q0 74 63.5 118.5t161.5 44.5q101 0 157.5 -48.5t46.5 -134.5h-103q6 48 -23 72.5
t-82 24.5q-50 0 -79.5 -20.5t-29.5 -52.5q0 -26 21 -38t80 -30q73 -21 113.5 -52t40.5 -90q0 -72 -59 -111t-146 -39q-97 0 -148.5 47.5t-40.5 119.5h105z" />
    <glyph glyph-name="Scircumflex" unicode="&#x15c;" horiz-adv-x="644" 
d="M583 769h-99l-43 79l-78 -79h-107l144 143h106zM171 215q-16 -124 116 -124q63 0 99 27.5t36 72.5q0 17 -6.5 30t-15.5 21.5t-31 18t-39.5 15.5t-54.5 17q-94 27 -138.5 69t-44.5 114q0 106 85.5 170t209.5 64q126 0 200 -68t55 -187h-118q11 72 -23.5 111.5t-112.5 39.5
q-73 0 -123 -33t-50 -89q0 -23 8.5 -39.5t30.5 -29t42 -20.5t59 -20q42 -12 68 -22t58.5 -30.5t48.5 -53t16 -76.5q0 -94 -72.5 -148.5t-187.5 -54.5q-124 0 -186 62t-47 163h118z" />
    <glyph glyph-name="scircumflex" unicode="&#x15d;" horiz-adv-x="510" 
d="M454 562h-90l-38 72l-72 -72h-97l131 130h96zM137 157q-11 -85 85 -85q42 0 67.5 16.5t25.5 47.5q0 10 -2 17.5t-8.5 14t-11.5 10.5t-18 9t-19.5 7t-25.5 7.5t-27 8.5q-71 21 -107.5 51.5t-36.5 84.5q0 74 63.5 118.5t161.5 44.5q101 0 157.5 -48.5t46.5 -134.5h-103
q6 48 -23 72.5t-82 24.5q-50 0 -79.5 -20.5t-29.5 -52.5q0 -26 21 -38t80 -30q73 -21 113.5 -52t40.5 -90q0 -72 -59 -111t-146 -39q-97 0 -148.5 47.5t-40.5 119.5h105z" />
    <glyph glyph-name="Scedilla" unicode="&#x15e;" horiz-adv-x="644" 
d="M642 455h-118q11 72 -23.5 111.5t-112.5 39.5q-73 0 -123 -33t-50 -89q0 -23 8.5 -39.5t30.5 -29t42 -20.5t59 -20q42 -12 68 -22t58.5 -30.5t48.5 -53t16 -76.5q0 -91 -68 -145t-177 -58q41 -39 41 -89q0 -60 -45.5 -96t-131.5 -36h-52l16 69h40q47 0 71.5 20.5
t24.5 53.5q0 44 -52 85q-88 17 -130.5 75.5t-29.5 142.5h118q-16 -124 116 -124q63 0 99 27.5t36 72.5q0 17 -6.5 30t-15.5 21.5t-31 18t-39.5 15.5t-54.5 17q-94 27 -138.5 69t-44.5 114q0 106 85.5 170t209.5 64q126 0 200 -68t55 -187z" />
    <glyph glyph-name="scedilla" unicode="&#x15f;" horiz-adv-x="510" 
d="M488 326h-103q6 48 -23 72.5t-82 24.5q-50 0 -79.5 -20.5t-29.5 -52.5q0 -26 21 -38t80 -30q73 -21 113.5 -52t40.5 -90q0 -68 -53 -106.5t-134 -43.5q36 -34 36 -80q0 -55 -41 -87.5t-120 -32.5h-47l15 63h36q43 0 65 18.5t22 48.5q0 40 -46 76q-68 15 -102 58.5
t-25 102.5h105q-11 -85 85 -85q42 0 67.5 16.5t25.5 47.5q0 10 -2 17.5t-8.5 14t-11.5 10.5t-18 9t-19.5 7t-25.5 7.5t-27 8.5q-71 21 -107.5 51.5t-36.5 84.5q0 74 63.5 118.5t161.5 44.5q101 0 157.5 -48.5t46.5 -134.5z" />
    <glyph glyph-name="Scaron" unicode="&#x160;" horiz-adv-x="644" 
d="M510 915h107l-144 -143h-106l-77 143h99l43 -78zM171 215q-16 -124 116 -124q63 0 99 27.5t36 72.5q0 17 -6.5 30t-15.5 21.5t-31 18t-39.5 15.5t-54.5 17q-94 27 -138.5 69t-44.5 114q0 106 85.5 170t209.5 64q126 0 200 -68t55 -187h-118q11 72 -23.5 111.5
t-112.5 39.5q-73 0 -123 -33t-50 -89q0 -23 8.5 -39.5t30.5 -29t42 -20.5t59 -20q42 -12 68 -22t58.5 -30.5t48.5 -53t16 -76.5q0 -94 -72.5 -148.5t-187.5 -54.5q-124 0 -186 62t-47 163h118z" />
    <glyph glyph-name="scaron" unicode="&#x161;" horiz-adv-x="510" 
d="M387 692h97l-131 -130h-96l-70 130h90l39 -71zM137 157q-11 -85 85 -85q42 0 67.5 16.5t25.5 47.5q0 10 -2 17.5t-8.5 14t-11.5 10.5t-18 9t-19.5 7t-25.5 7.5t-27 8.5q-71 21 -107.5 51.5t-36.5 84.5q0 74 63.5 118.5t161.5 44.5q101 0 157.5 -48.5t46.5 -134.5h-103
q6 48 -23 72.5t-82 24.5q-50 0 -79.5 -20.5t-29.5 -52.5q0 -26 21 -38t80 -30q73 -21 113.5 -52t40.5 -90q0 -72 -59 -111t-146 -39q-97 0 -148.5 47.5t-40.5 119.5h105z" />
    <glyph glyph-name="uni0162" unicode="&#x162;" horiz-adv-x="642" 
d="M461 595l-138 -595h-40q53 -40 53 -99q0 -60 -45.5 -96t-131.5 -36h-52l16 69h40q47 0 71.5 20.5t24.5 53.5q0 46 -56 88h-1l138 595h-227l25 105h574l-25 -105h-226z" />
    <glyph glyph-name="uni0163" unicode="&#x163;" horiz-adv-x="392" 
d="M265 417l-53 -228q-24 -99 69 -99h50l-20 -90q47 -36 47 -89q0 -55 -41 -87.5t-120 -32.5h-47l15 63h36q43 0 65 18.5t22 48.5q0 43 -50 79q-86 4 -122.5 54t-17.5 132l53 231h-93l18 83h94l27 115l118 20l-31 -135h126l-19 -83h-126z" />
    <glyph glyph-name="Tcaron" unicode="&#x164;" horiz-adv-x="642" 
d="M492 772h-106l-77 143h99l43 -78l78 78h107zM712 700l-25 -105h-226l-138 -595h-121l138 595h-227l25 105h574z" />
    <glyph glyph-name="tcaron" unicode="&#x165;" horiz-adv-x="392" 
d="M476 701h124l-17 -71q-20 -84 -58 -117.5t-118 -39.5l12 49q40 1 58.5 18.5t26.5 49.5h-55zM265 417l-53 -228q-24 -99 69 -99h50l-20 -90h-61q-93 0 -132.5 50.5t-19.5 135.5l53 231h-93l18 83h94l27 115l118 20l-31 -135h126l-19 -83h-126z" />
    <glyph glyph-name="Tbar" unicode="&#x166;" horiz-adv-x="642" 
d="M687 595h-226l-40 -170h178l-23 -99h-178l-75 -326h-121l75 326h-177l23 99h177l40 170h-227l25 105h574z" />
    <glyph glyph-name="tbar" unicode="&#x167;" horiz-adv-x="392" 
d="M391 417h-126l-21 -90h126l-19 -80h-126l-13 -58q-24 -99 69 -99h50l-20 -90h-61q-93 0 -132.5 50.5t-19.5 135.5l14 61h-94l18 80h95l20 90h-93l18 83h94l27 115l118 20l-31 -135h126z" />
    <glyph glyph-name="Utilde" unicode="&#x168;" horiz-adv-x="727" 
d="M288 780q21 65 60.5 99t92.5 34q44 0 77.5 -25.5t57.5 -25.5q42 0 63 46h76q-23 -65 -63 -99t-90 -34q-36 0 -59.5 12.5t-40.5 25.5t-38 13q-39 0 -63 -46h-73zM177 700h121l-92 -397q-48 -209 123 -209q168 0 216 209l92 397h121l-97 -421q-31 -138 -118 -215t-230 -74
q-143 2 -202.5 84t-23.5 238z" />
    <glyph glyph-name="utilde" unicode="&#x169;" 
d="M315 607q-35 0 -55 -42h-64q38 121 133 121q39 0 68 -23t50 -23q36 0 55 42h66q-20 -59 -55 -90t-78 -31q-41 0 -71 23t-49 23zM469 500h112l-115 -500h-112l28 121q-79 -131 -202 -131q-79 0 -115 51.5t-13 150.5l71 308h114l-65 -282q-17 -70 -4 -102.5t60 -32.5
q66 0 120.5 66t85.5 199v-1z" />
    <glyph glyph-name="Umacron" unicode="&#x16a;" horiz-adv-x="727" 
d="M346 874h318l-18 -85h-319zM177 700h121l-92 -397q-48 -209 123 -209q168 0 216 209l92 397h121l-97 -421q-31 -138 -118 -215t-230 -74q-143 2 -202.5 84t-23.5 238z" />
    <glyph glyph-name="umacron" unicode="&#x16b;" 
d="M534 658l-17 -77h-290l18 77h289zM469 500h112l-115 -500h-112l28 121q-79 -131 -202 -131q-79 0 -115 51.5t-13 150.5l71 308h114l-65 -282q-17 -70 -4 -102.5t60 -32.5q66 0 120.5 66t85.5 199v-1z" />
    <glyph glyph-name="Ubreve" unicode="&#x16c;" horiz-adv-x="727" 
d="M667 915q-14 -63 -61 -103t-114 -40t-101.5 43t-22.5 100h86q-5 -28 7 -47t42 -19t50 18.5t27 47.5h87zM177 700h121l-92 -397q-48 -209 123 -209q168 0 216 209l92 397h121l-97 -421q-31 -138 -118 -215t-230 -74q-143 2 -202.5 84t-23.5 238z" />
    <glyph glyph-name="ubreve" unicode="&#x16d;" 
d="M373 560q-61 0 -93 39t-20 91h78q-4 -26 6.5 -43t38.5 -17q53 0 70 60h79q-13 -57 -55.5 -93.5t-103.5 -36.5zM469 500h112l-115 -500h-112l28 121q-79 -131 -202 -131q-79 0 -115 51.5t-13 150.5l71 308h114l-65 -282q-17 -70 -4 -102.5t60 -32.5q66 0 120.5 66
t85.5 199v-1z" />
    <glyph glyph-name="Uring" unicode="&#x16e;" horiz-adv-x="727" 
d="M481 728q-48 0 -75 29.5t-27 71.5q0 54 41 92t96 38q47 0 73.5 -28.5t26.5 -71.5q0 -53 -40 -92t-95 -39zM489 800q20 0 36 16.5t16 36.5q0 14 -8.5 24.5t-24.5 10.5q-21 0 -37 -16.5t-16 -36.5q0 -15 9 -25t25 -10zM177 700h121l-92 -397q-48 -209 123 -209
q168 0 216 209l92 397h121l-97 -421q-31 -138 -118 -215t-230 -74q-143 2 -202.5 84t-23.5 238z" />
    <glyph glyph-name="uring" unicode="&#x16f;" 
d="M372 542q-44 0 -68.5 26.5t-24.5 65.5q0 48 37 83t88 35q43 0 67 -26t24 -65q0 -49 -36.5 -84t-86.5 -35zM396 687q-19 0 -33.5 -15t-14.5 -33q0 -13 8.5 -22.5t22.5 -9.5q19 0 33 15t14 33q0 13 -8 22.5t-22 9.5zM469 500h112l-115 -500h-112l28 121q-79 -131 -202 -131
q-79 0 -115 51.5t-13 150.5l71 308h114l-65 -282q-17 -70 -4 -102.5t60 -32.5q66 0 120.5 66t85.5 199v-1z" />
    <glyph glyph-name="Uhungarumlaut" unicode="&#x170;" horiz-adv-x="727" 
d="M449 930h123l-136 -149h-98zM635 930h122l-136 -149h-98zM177 700h121l-92 -397q-48 -209 123 -209q168 0 216 209l92 397h121l-97 -421q-31 -138 -118 -215t-230 -74q-143 2 -202.5 84t-23.5 238z" />
    <glyph glyph-name="uhungarumlaut" unicode="&#x171;" 
d="M446 695l-124 -135h-89l101 135h112zM490 560h-89l102 135h111zM434 347l35 153h112l-115 -500h-112l28 121q-79 -131 -202 -131q-79 0 -115 51.5t-13 150.5l71 308h114l-65 -282q-17 -70 -4 -102.5t60 -32.5q66 0 120.5 66t85.5 199v-1z" />
    <glyph glyph-name="Uogonek" unicode="&#x172;" horiz-adv-x="727" 
d="M637 700h121l-97 -421q-27 -118 -96 -193t-179 -92q-94 -50 -94 -107q0 -48 67 -48h21l-17 -70h-31q-62 0 -93.5 29t-31.5 74q0 40 23.5 67t66.5 52q-134 6 -189.5 88t-20.5 233l90 388h121l-92 -397q-48 -209 123 -209q168 0 216 209z" />
    <glyph glyph-name="uogonek" unicode="&#x173;" 
d="M468 0q-95 -49 -95 -103q0 -43 61 -43h19l-15 -64h-28q-57 0 -85.5 26.5t-28.5 67.5t25 66t72 50h-39l28 121q-79 -131 -202 -131q-79 0 -115 51.5t-13 150.5l71 308h114l-65 -282q-17 -70 -4 -102.5t60 -32.5q66 0 120.5 66t85.5 199v-1l35 153h112l-115 -500h2z" />
    <glyph glyph-name="Wcircumflex" unicode="&#x174;" horiz-adv-x="1013" 
d="M646 848l-78 -79h-107l144 143h106l77 -143h-99zM959 700h129l-338 -700h-126l-37 578l-305 -578h-135l-13 700h119l-4 -557l293 557h136l35 -542z" />
    <glyph glyph-name="wcircumflex" unicode="&#x175;" horiz-adv-x="767" 
d="M476 634l-72 -72h-97l131 130h96l70 -130h-90zM690 501h112l-248 -501h-111l-27 394l-208 -394h-112l-16 501h100l6 -371l194 371h114l24 -362z" />
    <glyph glyph-name="Ycircumflex" unicode="&#x176;" horiz-adv-x="684" 
d="M483 848l-78 -79h-107l144 143h106l77 -143h-99zM616 700h146l-515 -700h-147l208 278l-185 422h137l131 -314z" />
    <glyph glyph-name="ycircumflex" unicode="&#x177;" horiz-adv-x="566" 
d="M374 634l-72 -72h-97l131 130h96l70 -130h-90zM489 500h124l-373 -594q-43 -68 -90.5 -97t-128.5 -29h-93l20 89h65q48 0 75.5 17.5t59.5 66.5l35 54l-117 493h114l82 -375z" />
    <glyph glyph-name="Ydieresis" unicode="&#x178;" horiz-adv-x="684" 
d="M438 890l-26 -113h-119l27 113h118zM663 890l-26 -113h-118l26 113h118zM616 700h146l-515 -700h-147l208 278l-185 422h137l131 -314z" />
    <glyph glyph-name="Zacute" unicode="&#x179;" horiz-adv-x="648" 
d="M644 924l-171 -147h-109l133 147h147zM681 700l-17 -75l-474 -520h368l-25 -105h-543l18 75l473 520h-335l24 105h511z" />
    <glyph glyph-name="zacute" unicode="&#x17a;" horiz-adv-x="498" 
d="M499 699l-155 -134h-99l121 134h133zM86 409l20 92h387l-15 -71l-323 -338h255l-22 -92h-409l15 65l331 344h-239z" />
    <glyph glyph-name="Zdotaccent" unicode="&#x17b;" horiz-adv-x="648" 
d="M541 905l-27 -119h-135l27 119h135zM681 700l-17 -75l-474 -520h368l-25 -105h-543l18 75l473 520h-335l24 105h511z" />
    <glyph glyph-name="zdotaccent" unicode="&#x17c;" horiz-adv-x="498" 
d="M406 687l-25 -108h-123l25 108h123zM493 501l-15 -71l-323 -338h255l-22 -92h-409l15 65l331 344h-239l20 92h387z" />
    <glyph glyph-name="Zcaron" unicode="&#x17d;" horiz-adv-x="648" 
d="M496 772h-106l-77 143h99l43 -78l78 78h107zM681 700l-17 -75l-474 -520h368l-25 -105h-543l18 75l473 520h-335l24 105h511z" />
    <glyph glyph-name="zcaron" unicode="&#x17e;" horiz-adv-x="498" 
d="M363 562h-96l-70 130h90l39 -71l71 71h97zM86 409l20 92h387l-15 -71l-323 -338h255l-22 -92h-409l15 65l331 344h-239z" />
    <glyph glyph-name="florin" unicode="&#x192;" horiz-adv-x="636" 
d="M595 700h109l-22 -93h-75q-58 0 -87.5 -26t-54.5 -82l-47 -104h167l-17 -77h-184l-80 -177q-29 -64 -86 -102.5t-133 -38.5h-108l21 93h76q58 0 88 26t55 83l51 116h-148l17 77h165l64 144q72 161 229 161z" />
    <glyph glyph-name="uni01CD" unicode="&#x1cd;" horiz-adv-x="686" 
d="M514 772h-106l-77 143h99l43 -78l78 78h107zM518 700l93 -700h-121l-19 166h-287l-97 -166h-127l416 700h142zM240 263h220l-36 315z" />
    <glyph glyph-name="uni01CE" unicode="&#x1ce;" 
d="M401 562h-96l-70 130h90l39 -71l71 71h97zM471 500h110l-115 -500h-110l13 55q-25 -27 -67 -46t-93 -19q-82 0 -130 52.5t-48 148.5q0 133 84.5 226t193.5 93q51 0 89 -22.5t56 -63.5zM244 77q57 0 100.5 39t61.5 102l7 29q4 21 4 49q0 122 -97 122q-77 0 -125.5 -69
t-48.5 -155q0 -117 98 -117z" />
    <glyph glyph-name="uni01CF" unicode="&#x1cf;" horiz-adv-x="272" 
d="M344 915h107l-144 -143h-106l-77 143h99l43 -78zM138 0h-121l162 700h121z" />
    <glyph glyph-name="uni01D0" unicode="&#x1d0;" horiz-adv-x="250" 
d="M280 692h97l-131 -130h-96l-70 130h90l39 -71zM124 0h-113l115 500h113z" />
    <glyph glyph-name="uni01D1" unicode="&#x1d1;" horiz-adv-x="785" 
d="M586 915h107l-144 -143h-106l-77 143h99l43 -78zM352 -10q-141 0 -216 77.5t-75 217.5q0 183 117.5 304t298.5 121q140 0 215.5 -78t75.5 -218q0 -182 -117.5 -303t-298.5 -121zM360 93q118 0 198.5 94t80.5 227q0 91 -43.5 142t-126.5 51q-118 0 -198.5 -94t-80.5 -227
q0 -92 43.5 -142.5t126.5 -50.5z" />
    <glyph glyph-name="uni01D2" unicode="&#x1d2;" horiz-adv-x="578" 
d="M437 692h97l-131 -130h-96l-70 130h90l39 -71zM245 -10q-101 0 -156.5 57t-55.5 157q0 131 86.5 218t215.5 87q102 0 156 -57.5t54 -157.5q0 -131 -85.5 -217.5t-214.5 -86.5zM254 78q78 0 127.5 67t49.5 151q0 58 -26.5 91.5t-79.5 33.5q-77 0 -127 -66t-50 -152
q0 -58 26 -91.5t80 -33.5z" />
    <glyph glyph-name="uni01D3" unicode="&#x1d3;" horiz-adv-x="727" 
d="M572 915h107l-144 -143h-106l-77 143h99l43 -78zM177 700h121l-92 -397q-48 -209 123 -209q168 0 216 209l92 397h121l-97 -421q-31 -138 -118 -215t-230 -74q-143 2 -202.5 84t-23.5 238z" />
    <glyph glyph-name="uni01D4" unicode="&#x1d4;" 
d="M416 562h-96l-70 130h90l39 -71l71 71h97zM469 500h112l-115 -500h-112l28 121q-79 -131 -202 -131q-79 0 -115 51.5t-13 150.5l71 308h114l-65 -282q-17 -70 -4 -102.5t60 -32.5q66 0 120.5 66t85.5 199v-1z" />
    <glyph glyph-name="uni01E2" unicode="&#x1e2;" horiz-adv-x="891" 
d="M840 874l-18 -85h-319l19 85h318zM911 596h-379l25 -193h286l-22 -98h-251l27 -201h199l-23 -104h-283l-19 166h-287l-97 -166h-127l416 700h559zM240 263h220l-36 315z" />
    <glyph glyph-name="uni01E3" unicode="&#x1e3;" horiz-adv-x="913" 
d="M701 658l-17 -77h-290l18 77h289zM668 509q112 0 162 -72t29 -194q-3 -18 -4 -20h-364q-1 -7 -1 -20q0 -126 115 -126q91 0 130 87h109q-65 -174 -244 -174q-149 0 -200 109q-35 -50 -100.5 -79.5t-135.5 -29.5q-67 0 -108.5 29.5t-41.5 93.5q0 78 63 115.5t188 58.5
q89 15 111 27q25 14 31 40q7 31 -14.5 50t-65.5 19q-101 0 -132 -99h-108q22 83 81 134t162 51q116 0 159 -62q77 62 179 62zM506 296h252q15 129 -92 129q-57 0 -98.5 -36t-61.5 -93zM200 70q58 0 107.5 37t67.5 108l4 16q0 4 2 14q-35 -16 -113 -31q-70 -15 -104.5 -34
t-34.5 -57q0 -53 71 -53z" />
    <glyph glyph-name="uni01EB" unicode="&#x1eb;" horiz-adv-x="578" 
d="M285 -8q-81 -45 -81 -95q0 -43 61 -43h19l-15 -64h-28q-57 0 -85.5 26.5t-28.5 67.5q0 37 21.5 61.5t60.5 46.5q-85 10 -130.5 66t-45.5 146q0 131 86.5 218t215.5 87q102 0 156 -57.5t54 -157.5q0 -120 -73 -204t-187 -98zM148 203q0 -58 26 -91.5t80 -33.5
q78 0 127.5 67t49.5 151q0 58 -26.5 91.5t-79.5 33.5q-77 0 -127 -66t-50 -152z" />
    <glyph glyph-name="AEacute" unicode="&#x1fc;" horiz-adv-x="891" 
d="M859 924l-171 -147h-109l133 147h147zM911 596h-379l25 -193h286l-22 -98h-251l27 -201h199l-23 -104h-283l-19 166h-287l-97 -166h-127l416 700h559zM240 263h220l-36 315z" />
    <glyph glyph-name="aeacute" unicode="&#x1fd;" horiz-adv-x="913" 
d="M719 699l-155 -134h-99l121 134h133zM668 509q112 0 162 -72t29 -194q-3 -18 -4 -20h-364q-1 -7 -1 -20q0 -126 115 -126q91 0 130 87h109q-65 -174 -244 -174q-149 0 -200 109q-35 -50 -100.5 -79.5t-135.5 -29.5q-67 0 -108.5 29.5t-41.5 93.5q0 78 63 115.5t188 58.5
q89 15 111 27q25 14 31 40q7 31 -14.5 50t-65.5 19q-101 0 -132 -99h-108q22 83 81 134t162 51q116 0 159 -62q77 62 179 62zM506 296h252q15 129 -92 129q-57 0 -98.5 -36t-61.5 -93zM200 70q58 0 107.5 37t67.5 108l4 16q0 4 2 14q-35 -16 -113 -31q-70 -15 -104.5 -34
t-34.5 -57q0 -53 71 -53z" />
    <glyph glyph-name="Oslashacute" unicode="&#x1fe;" horiz-adv-x="785" 
d="M697 924l-171 -147h-109l133 147h147zM815 665l-87 -80q40 -71 40 -171q0 -182 -117.5 -303t-298.5 -121q-127 0 -202 64l-81 -74l-57 55l88 81q-39 68 -39 169q0 183 117.5 304t298.5 121q126 0 201 -64l80 74zM190 286q0 -45 10 -78l388 356q-43 43 -119 43
q-118 0 -198.5 -94t-80.5 -227zM639 414q0 42 -11 80l-388 -357q42 -44 120 -44q118 0 198.5 94t80.5 227z" />
    <glyph glyph-name="oslashacute" unicode="&#x1ff;" horiz-adv-x="578" 
d="M539 699l-155 -134h-99l121 134h133zM591 475l-72 -63q26 -50 26 -118q0 -131 -85.5 -217.5t-214.5 -86.5q-96 0 -150 51l-71 -62l-39 41l75 66q-27 48 -27 118q0 131 86.5 218t215.5 87q93 0 148 -50l68 60zM148 203q0 -19 3 -37l252 223q-27 32 -78 32q-77 0 -127 -66
t-50 -152zM431 296q0 20 -3 36l-253 -221q27 -33 79 -33q78 0 127.5 67t49.5 151z" />
    <glyph glyph-name="Scommaaccent" unicode="&#x218;" horiz-adv-x="644" 
d="M642 455h-118q11 72 -23.5 111.5t-112.5 39.5q-73 0 -123 -33t-50 -89q0 -23 8.5 -39.5t30.5 -29t42 -20.5t59 -20q42 -12 68 -22t58.5 -30.5t48.5 -53t16 -76.5q0 -94 -72.5 -148.5t-187.5 -54.5q-124 0 -186 62t-47 163h118q-16 -124 116 -124q63 0 99 27.5t36 72.5
q0 17 -6.5 30t-15.5 21.5t-31 18t-39.5 15.5t-54.5 17q-94 27 -138.5 69t-44.5 114q0 106 85.5 170t209.5 64q126 0 200 -68t55 -187zM163 -183l27 116h126l-17 -74q-21 -88 -59.5 -122.5t-119.5 -40.5l12 50q40 2 59 20t27 51h-55z" />
    <glyph glyph-name="scommaaccent" unicode="&#x219;" horiz-adv-x="510" 
d="M488 326h-103q6 48 -23 72.5t-82 24.5q-50 0 -79.5 -20.5t-29.5 -52.5q0 -26 21 -38t80 -30q73 -21 113.5 -52t40.5 -90q0 -72 -59 -111t-146 -39q-97 0 -148.5 47.5t-40.5 119.5h105q-11 -85 85 -85q42 0 67.5 16.5t25.5 47.5q0 10 -2 17.5t-8.5 14t-11.5 10.5t-18 9
t-19.5 7t-25.5 7.5t-27 8.5q-71 21 -107.5 51.5t-36.5 84.5q0 74 63.5 118.5t161.5 44.5q101 0 157.5 -48.5t46.5 -134.5zM110 -166l25 105h114l-15 -68q-19 -79 -54 -110.5t-109 -37.5l11 46q37 2 54 18.5t24 46.5h-50z" />
    <glyph glyph-name="uni021A" unicode="&#x21a;" horiz-adv-x="642" 
d="M712 700l-25 -105h-226l-138 -595h-121l138 595h-227l25 105h574zM160 -183l27 116h126l-17 -74q-21 -88 -59.5 -122.5t-119.5 -40.5l12 50q40 2 59 20t27 51h-55z" />
    <glyph glyph-name="uni021B" unicode="&#x21b;" horiz-adv-x="392" 
d="M265 417l-53 -228q-24 -99 69 -99h50l-20 -90h-61q-93 0 -132.5 50.5t-19.5 135.5l53 231h-93l18 83h94l27 115l118 20l-31 -135h126l-19 -83h-126zM92 -166l25 105h114l-15 -68q-19 -79 -54 -110.5t-109 -37.5l11 46q37 2 54 18.5t24 46.5h-50z" />
    <glyph glyph-name="uni0226" unicode="&#x226;" horiz-adv-x="686" 
d="M559 905l-27 -119h-135l27 119h135zM490 0l-19 166h-287l-97 -166h-127l416 700h142l93 -700h-121zM240 263h220l-36 315z" />
    <glyph glyph-name="uni0227" unicode="&#x227;" 
d="M444 687l-25 -108h-123l25 108h123zM471 500h110l-115 -500h-110l13 55q-25 -27 -67 -46t-93 -19q-82 0 -130 52.5t-48 148.5q0 133 84.5 226t193.5 93q51 0 89 -22.5t56 -63.5zM244 77q57 0 100.5 39t61.5 102l7 29q4 21 4 49q0 122 -97 122q-77 0 -125.5 -69
t-48.5 -155q0 -117 98 -117z" />
    <glyph glyph-name="uni0232" unicode="&#x232;" horiz-adv-x="684" 
d="M644 874l-18 -85h-319l19 85h318zM616 700h146l-515 -700h-147l208 278l-185 422h137l131 -314z" />
    <glyph glyph-name="uni0233" unicode="&#x233;" horiz-adv-x="566" 
d="M519 658l-17 -77h-290l18 77h289zM489 500h124l-373 -594q-43 -68 -90.5 -97t-128.5 -29h-93l20 89h65q48 0 75.5 17.5t59.5 66.5l35 54l-117 493h114l82 -375z" />
    <glyph glyph-name="uni0237" unicode="&#x237;" horiz-adv-x="250" 
d="M239 500l-107 -464h1l-25 -105q-34 -151 -200 -151h-113l22 91h70q94 0 116 94l16 71l107 464h113z" />
    <glyph glyph-name="circumflex" unicode="&#x2c6;" horiz-adv-x="424" 
d="M432 562h-90l-38 72l-72 -72h-97l131 130h96z" />
    <glyph glyph-name="caron" unicode="&#x2c7;" horiz-adv-x="424" 
d="M366 692h97l-131 -130h-96l-70 130h90l39 -71z" />
    <glyph glyph-name="breve" unicode="&#x2d8;" horiz-adv-x="424" 
d="M449 690q-13 -57 -55.5 -93.5t-103.5 -36.5t-93 39t-20 91h78q-4 -26 6.5 -43t38.5 -17q53 0 70 60h79z" />
    <glyph glyph-name="dotaccent" unicode="&#x2d9;" horiz-adv-x="424" 
d="M227 579l25 108h123l-25 -108h-123z" />
    <glyph glyph-name="ring" unicode="&#x2da;" horiz-adv-x="424" 
d="M288 542q-44 0 -68.5 26.5t-24.5 65.5q0 48 37 83t88 35q43 0 67 -26t24 -65q0 -49 -36.5 -84t-86.5 -35zM295 607q19 0 33 15t14 33q0 13 -8 22.5t-22 9.5q-19 0 -33.5 -15t-14.5 -33q0 -13 8.5 -22.5t22.5 -9.5z" />
    <glyph glyph-name="ogonek" unicode="&#x2db;" horiz-adv-x="424" 
d="M146 1l73 -1q-95 -49 -95 -103q0 -43 61 -43h19l-15 -64h-28q-57 0 -85.5 26.5t-28.5 67.5t25.5 66.5t73.5 50.5z" />
    <glyph glyph-name="tilde" unicode="&#x2dc;" horiz-adv-x="424" 
d="M113 565q38 121 133 121q38 0 68 -23t50 -23q36 0 55 42h66q-20 -59 -55 -90t-78 -31q-41 0 -71 23t-49 23q-35 0 -55 -42h-64z" />
    <glyph glyph-name="hungarumlaut" unicode="&#x2dd;" horiz-adv-x="424" 
d="M224 695h112l-124 -135h-89zM393 695h111l-124 -135h-89z" />
    <glyph glyph-name="uni0394" unicode="&#x394;" horiz-adv-x="733" 
d="M528 700l133 -618l-19 -82h-667l18 82l420 618h115zM134 102h408l-92 481z" />
    <glyph glyph-name="uni03A9" unicode="&#x3a9;" horiz-adv-x="820" 
d="M794 423q0 -100 -50.5 -182.5t-136.5 -133.5h116l-25 -107h-299l18 82q82 21 141.5 78t85 121.5t25.5 129.5q0 83 -46 139.5t-136 56.5q-120 0 -204.5 -96t-84.5 -223q0 -73 31 -130.5t96 -75.5l-19 -82h-300l25 107h137q-89 69 -89 202q0 162 118 281.5t295 119.5
q143 0 222.5 -80t79.5 -207z" />
    <glyph glyph-name="uni03BC" unicode="&#x3bc;" horiz-adv-x="595" 
d="M472 500h112l-115 -500h-112l28 121q-79 -131 -202 -131q-40 0 -69 13l-51 -223h-103l94 406q0 1 0.5 3t0.5 3l71 308h114l-65 -282q-17 -70 -4 -102.5t60 -32.5q66 0 120.5 66t85.5 199v-1z" />
    <glyph glyph-name="pi" unicode="&#x3c0;" horiz-adv-x="689" 
d="M568 410l-50 -221q-24 -99 68 -99h41l-21 -90h-48q-94 0 -134 50t-20 136l51 224h-159l-94 -410h-113l94 410h-116l20 90h609l-20 -90h-108z" />
    <glyph glyph-name="Wgrave" unicode="&#x1e80;" horiz-adv-x="1013" 
d="M706 777h-99l-112 147h134zM959 700h129l-338 -700h-126l-37 578l-305 -578h-135l-13 700h119l-4 -557l293 557h136l35 -542z" />
    <glyph glyph-name="wgrave" unicode="&#x1e81;" horiz-adv-x="767" 
d="M522 565h-90l-102 134h122zM690 501h112l-248 -501h-111l-27 394l-208 -394h-112l-16 501h100l6 -371l194 371h114l24 -362z" />
    <glyph glyph-name="Wacute" unicode="&#x1e82;" horiz-adv-x="1013" 
d="M826 924l-171 -147h-109l133 147h147zM959 700h129l-338 -700h-126l-37 578l-305 -578h-135l-13 700h119l-4 -557l293 557h136l35 -542z" />
    <glyph glyph-name="wacute" unicode="&#x1e83;" horiz-adv-x="767" 
d="M639 699l-155 -134h-99l121 134h133zM690 501h112l-248 -501h-111l-27 394l-208 -394h-112l-16 501h100l6 -371l194 371h114l24 -362z" />
    <glyph glyph-name="Wdieresis" unicode="&#x1e84;" horiz-adv-x="1013" 
d="M601 890l-26 -113h-119l27 113h118zM826 890l-26 -113h-118l26 113h118zM959 700h129l-338 -700h-126l-37 578l-305 -578h-135l-13 700h119l-4 -557l293 557h136l35 -542z" />
    <glyph glyph-name="wdieresis" unicode="&#x1e85;" horiz-adv-x="767" 
d="M435 681l-24 -103h-108l25 103h107zM640 681l-24 -103h-108l25 103h107zM690 501h112l-248 -501h-111l-27 394l-208 -394h-112l-16 501h100l6 -371l194 371h114l24 -362z" />
    <glyph glyph-name="uni1EA0" unicode="&#x1ea0;" horiz-adv-x="686" 
d="M611 0h-121l-19 166h-287l-97 -166h-127l416 700h142zM240 263h220l-36 315zM169 -208l27 119h135l-27 -119h-135z" />
    <glyph glyph-name="uni1EA1" unicode="&#x1ea1;" 
d="M471 500h110l-115 -500h-110l13 55q-25 -27 -67 -46t-93 -19q-82 0 -130 52.5t-48 148.5q0 133 84.5 226t193.5 93q51 0 89 -22.5t56 -63.5zM244 77q57 0 100.5 39t61.5 102l7 29q4 21 4 49q0 122 -97 122q-77 0 -125.5 -69t-48.5 -155q0 -117 98 -117zM131 -197l25 108
h123l-25 -108h-123z" />
    <glyph glyph-name="uni1EB8" unicode="&#x1eb8;" horiz-adv-x="594" 
d="M613 595h-338l-45 -192h317l-23 -98h-316l-47 -200h339l-24 -105h-459l162 700h459zM131 -208l27 119h135l-27 -119h-135z" />
    <glyph glyph-name="uni1EB9" unicode="&#x1eb9;" horiz-adv-x="568" 
d="M323 509q112 0 162 -72t29 -194q-3 -18 -4 -20h-364q-1 -7 -1 -20q0 -126 115 -126q91 0 130 87h109q-65 -174 -244 -174q-109 0 -165.5 59t-56.5 156q0 121 80 212.5t210 91.5zM161 296h252q15 129 -92 129q-57 0 -98.5 -36t-61.5 -93zM127 -197l25 108h123l-25 -108
h-123z" />
    <glyph glyph-name="uni1ECA" unicode="&#x1eca;" horiz-adv-x="272" 
d="M138 0h-121l162 700h121zM-39 -208l27 119h135l-27 -119h-135z" />
    <glyph glyph-name="uni1ECC" unicode="&#x1ecc;" horiz-adv-x="785" 
d="M352 -10q-141 0 -216 77.5t-75 217.5q0 183 117.5 304t298.5 121q140 0 215.5 -78t75.5 -218q0 -182 -117.5 -303t-298.5 -121zM360 93q118 0 198.5 94t80.5 227q0 91 -43.5 142t-126.5 51q-118 0 -198.5 -94t-80.5 -227q0 -92 43.5 -142.5t126.5 -50.5zM217 -208l27 119
h135l-27 -119h-135z" />
    <glyph glyph-name="uni1ECD" unicode="&#x1ecd;" horiz-adv-x="578" 
d="M245 -10q-101 0 -156.5 57t-55.5 157q0 131 86.5 218t215.5 87q102 0 156 -57.5t54 -157.5q0 -131 -85.5 -217.5t-214.5 -86.5zM254 78q78 0 127.5 67t49.5 151q0 58 -26.5 91.5t-79.5 33.5q-77 0 -127 -66t-50 -152q0 -58 26 -91.5t80 -33.5zM124 -197l25 108h123
l-25 -108h-123z" />
    <glyph glyph-name="uni1EE4" unicode="&#x1ee4;" horiz-adv-x="727" 
d="M177 700h121l-92 -397q-48 -209 123 -209q168 0 216 209l92 397h121l-97 -421q-31 -138 -118 -215t-230 -74q-143 2 -202.5 84t-23.5 238zM190 -208l27 119h135l-27 -119h-135z" />
    <glyph glyph-name="uni1EE5" unicode="&#x1ee5;" 
d="M469 500h112l-115 -500h-112l28 121q-79 -131 -202 -131q-79 0 -115 51.5t-13 150.5l71 308h114l-65 -282q-17 -70 -4 -102.5t60 -32.5q66 0 120.5 66t85.5 199v-1zM148 -197l25 108h123l-25 -108h-123z" />
    <glyph glyph-name="Ygrave" unicode="&#x1ef2;" horiz-adv-x="684" 
d="M543 777h-99l-112 147h134zM616 700h146l-515 -700h-147l208 278l-185 422h137l131 -314z" />
    <glyph glyph-name="ygrave" unicode="&#x1ef3;" horiz-adv-x="566" 
d="M420 565h-90l-102 134h122zM489 500h124l-373 -594q-43 -68 -90.5 -97t-128.5 -29h-93l20 89h65q48 0 75.5 17.5t59.5 66.5l35 54l-117 493h114l82 -375z" />
    <glyph glyph-name="uni200B" unicode="&#x200b;" horiz-adv-x="0" 
 />
    <glyph glyph-name="endash" unicode="&#x2013;" horiz-adv-x="728" 
d="M71 341h628l-21 -90h-627z" />
    <glyph glyph-name="emdash" unicode="&#x2014;" horiz-adv-x="1104" 
d="M71 341h1004l-21 -90h-1003z" />
    <glyph glyph-name="quoteleft" unicode="&#x2018;" horiz-adv-x="229" 
d="M289 654q-75 -4 -90 -76h57l-28 -123h-131l18 78q22 94 62 131t124 43z" />
    <glyph glyph-name="quoteright" unicode="&#x2019;" horiz-adv-x="229" 
d="M154 700h131l-18 -79q-22 -93 -62 -130t-124 -44l13 54q42 2 61.5 21.5t27.5 54.5h-57z" />
    <glyph glyph-name="quotesinglbase" unicode="&#x201a;" horiz-adv-x="231" 
d="M20 123h131l-18 -79q-22 -93 -62 -130t-124 -44l13 54q42 2 61.5 21.5t27.5 54.5h-57z" />
    <glyph glyph-name="quotedblleft" unicode="&#x201c;" horiz-adv-x="412" 
d="M289 654q-75 -4 -90 -76h57l-28 -123h-131l18 78q22 94 62 131t124 43zM472 654q-75 -4 -90 -76h57l-28 -123h-131l18 78q22 94 62 131t124 43z" />
    <glyph glyph-name="quotedblright" unicode="&#x201d;" horiz-adv-x="411" 
d="M285 700l-18 -79q-22 -93 -62 -130t-124 -44l13 54q42 2 61.5 21.5t27.5 54.5h-57l28 123h131zM336 700h131l-18 -79q-22 -93 -62 -130t-124 -44l13 54q42 2 61.5 21.5t27.5 54.5h-57z" />
    <glyph glyph-name="quotedblbase" unicode="&#x201e;" horiz-adv-x="414" 
d="M151 123l-18 -79q-22 -93 -62 -130t-124 -44l13 54q42 2 61.5 21.5t27.5 54.5h-57l28 123h131zM203 123h131l-18 -79q-22 -93 -62 -130t-124 -44l13 54q42 2 61.5 21.5t27.5 54.5h-57z" />
    <glyph glyph-name="dagger" unicode="&#x2020;" horiz-adv-x="471" 
d="M498 532l-21 -90h-148l-102 -442h-100l102 442h-147l21 90h147l39 168h100l-39 -168h148z" />
    <glyph glyph-name="daggerdbl" unicode="&#x2021;" horiz-adv-x="473" 
d="M477 442h-148l-42 -184h150l-21 -90h-150l-39 -168h-100l39 168h-145l21 90h145l42 184h-147l21 90h147l39 168h100l-39 -168h148z" />
    <glyph glyph-name="bullet" unicode="&#x2022;" horiz-adv-x="229" 
d="M49 245l29 123h128l-28 -123h-129z" />
    <glyph glyph-name="ellipsis" unicode="&#x2026;" horiz-adv-x="747" 
d="M-9 0l29 123h128l-28 -123h-129zM251 0l29 123h128l-28 -123h-129zM510 0l29 123h128l-28 -123h-129z" />
    <glyph glyph-name="perthousand" unicode="&#x2030;" horiz-adv-x="1170" 
d="M256 400q-60 0 -97.5 37.5t-37.5 94.5q0 72 57 125t130 53q60 0 97.5 -37.5t37.5 -95.5q0 -72 -57 -124.5t-130 -52.5zM56 0l647 700h108l-646 -700h-109zM266 481q35 0 61 27t26 63q0 26 -14 42t-41 16q-35 0 -61.5 -27t-26.5 -63q0 -26 15 -42t41 -16zM554 -10
q-60 0 -97.5 37.5t-37.5 94.5q0 72 57 125t130 53q60 0 97.5 -37.5t37.5 -95.5q0 -72 -57 -124.5t-130 -52.5zM918 -10q-60 0 -97.5 37.5t-37.5 94.5q0 72 57 125t130 53q60 0 97.5 -37.5t37.5 -95.5q0 -72 -57 -124.5t-130 -52.5zM564 71q35 0 61 27t26 63q0 26 -14 42
t-41 16q-35 0 -61.5 -27t-26.5 -63q0 -26 15 -42t41 -16zM928 71q35 0 61 27t26 63q0 26 -14 42t-41 16q-35 0 -61.5 -27t-26.5 -63q0 -26 15 -42t41 -16z" />
    <glyph glyph-name="guilsinglleft" unicode="&#x2039;" horiz-adv-x="390" 
d="M395 490l-216 -204l111 -186h-122l-112 199l202 191h137z" />
    <glyph glyph-name="guilsinglright" unicode="&#x203a;" horiz-adv-x="390" 
d="M240 490l112 -199l-202 -191h-137l216 204l-111 186h122z" />
    <glyph glyph-name="uni2042" unicode="&#x2042;" horiz-adv-x="884" 
d="M558 390l-66 104l-66 -104l-56 41l78 94l-119 31l21 67l115 -45l-8 122h70l-8 -122l115 45l21 -67l-119 -31l78 -94zM402 243l21 -67l-119 -31l78 -94l-56 -41l-66 104l-66 -104l-56 41l78 94l-119 31l21 67l115 -45l-8 122h70l-8 -122zM799 176l-119 -31l78 -94l-56 -41
l-66 104l-66 -104l-56 41l78 94l-119 31l21 67l115 -45l-8 122h70l-8 -122l115 45z" />
    <glyph glyph-name="fraction" unicode="&#x2044;" horiz-adv-x="193" 
d="M-309 0l748 700h94l-748 -700h-94z" />
    <glyph glyph-name="uni2051" unicode="&#x2051;" horiz-adv-x="402" 
d="M433 556l-119 -31l78 -94l-56 -41l-66 104l-66 -104l-56 41l78 94l-119 31l21 67l115 -45l-8 122h70l-8 -122l115 45zM324 243l21 -67l-119 -31l78 -94l-56 -41l-66 104l-66 -104l-56 41l78 94l-119 31l21 67l115 -45l-8 122h70l-8 -122z" />
    <glyph glyph-name="uni2070" unicode="&#x2070;" horiz-adv-x="375" 
d="M236 401q-67 0 -98.5 41.5t-31.5 102.5q0 38 12 77t34 74t60 57t85 22q67 0 98 -41t31 -102q0 -52 -19 -103t-64.5 -89.5t-106.5 -38.5zM239 465q52 0 81.5 51.5t29.5 114.5q0 80 -57 80q-51 0 -81.5 -50t-30.5 -115q0 -81 58 -81z" />
    <glyph glyph-name="uni2074" unicode="&#x2074;" horiz-adv-x="349" 
d="M392 539l-13 -57h-58l-16 -72h-68l17 72h-176l9 42l215 246h86l-53 -231h57zM170 539h97l36 156z" />
    <glyph glyph-name="uni2075" unicode="&#x2075;" horiz-adv-x="354" 
d="M278 645q50 0 78.5 -29t28.5 -79q0 -62 -43.5 -99.5t-112.5 -37.5t-103 36.5t-26 87.5h68q-2 -29 13 -47t50 -18q39 0 63 22t24 55q0 56 -63 56q-48 0 -77 -29l-49 23l71 184h217l-14 -61h-157l-34 -82q31 18 66 18z" />
    <glyph glyph-name="uni2076" unicode="&#x2076;" horiz-adv-x="354" 
d="M274 644q47 0 79 -29t32 -78q0 -59 -45 -98t-108 -39q-126 0 -126 139q0 101 52.5 168.5t137.5 67.5q60 0 93.5 -33t27.5 -81h-64q3 24 -11 40.5t-45 16.5q-45 0 -75.5 -33.5t-44.5 -86.5q40 46 97 46zM230 457q32 0 59 22t27 58q0 26 -15.5 40t-39.5 14q-33 0 -60 -22.5
t-27 -57.5q0 -27 16 -40.5t40 -13.5z" />
    <glyph glyph-name="uni2077" unicode="&#x2077;" horiz-adv-x="323" 
d="M152 770h267l-10 -43l-236 -317h-84l223 298h-174z" />
    <glyph glyph-name="uni2078" unicode="&#x2078;" horiz-adv-x="371" 
d="M336 574q44 -19 44 -69q0 -48 -44 -76.5t-105 -28.5q-54 0 -89 23.5t-35 64.5q0 57 77 89q-55 22 -55 77q0 54 46 87.5t121 33.5q64 0 101.5 -25.5t37.5 -69.5q0 -38 -28 -65.5t-71 -40.5zM294 718q-41 0 -67.5 -19t-26.5 -46q0 -20 16.5 -33t28 -16t21.5 -4q9 0 29 4.5
t43.5 21.5t23.5 43q0 23 -17.5 36t-50.5 13zM178 495q0 -40 56 -40q34 0 55.5 16t21.5 40q0 34 -54 46q-15 -2 -31 -7.5t-32 -20t-16 -34.5z" />
    <glyph glyph-name="uni2079" unicode="&#x2079;" horiz-adv-x="360" 
d="M241 531q-47 0 -79 29t-32 78q0 59 45 98t108 39q126 0 126 -139q0 -101 -52.5 -168.5t-137.5 -67.5q-60 0 -93.5 33t-27.5 81h64q-3 -24 11 -40.5t45 -16.5q45 0 75.5 33.5t44.5 86.5q-40 -46 -97 -46zM285 718q-32 0 -59 -22t-27 -58q0 -26 15.5 -40t39.5 -14
q33 0 60 22.5t27 57.5q0 27 -16 40.5t-40 13.5z" />
    <glyph glyph-name="uni2080" unicode="&#x2080;" horiz-adv-x="375" 
d="M125 -79q-67 0 -98.5 41.5t-31.5 102.5q0 38 12 77t34 74t60 57t85 22q67 0 98 -41t31 -102q0 -52 -19 -103t-64.5 -89.5t-106.5 -38.5zM128 -15q52 0 81.5 51.5t29.5 114.5q0 80 -57 80q-51 0 -81.5 -50t-30.5 -115q0 -81 58 -81z" />
    <glyph glyph-name="uni2081" unicode="&#x2081;" horiz-adv-x="299" 
d="M240 290l-83 -360h-71l54 232q-56 -30 -130 -31l14 60q54 1 101 26t58 73h57z" />
    <glyph glyph-name="uni2082" unicode="&#x2082;" horiz-adv-x="366" 
d="M247 -70h-271l10 44l102 66q38 25 57.5 39t41 33.5t30.5 38t9 39.5q0 44 -42 44q-32 0 -52.5 -25.5t-27.5 -64.5h-71q12 68 51.5 109.5t102.5 41.5q52 0 83 -27t31 -75t-33 -86.5t-103 -85.5l-50 -33h145z" />
    <glyph glyph-name="uni2083" unicode="&#x2083;" horiz-adv-x="358" 
d="M218 97q40 -16 40 -66q0 -44 -37.5 -77.5t-103.5 -33.5q-67 0 -98 34t-22 85h72q-5 -31 10 -45t40 -14q31 0 51 17.5t20 39.5q0 40 -58 40h-26l12 48h34q37 0 59.5 18.5t22.5 46.5q0 44 -56 44q-73 0 -96 -72h-69q40 131 168 131q58 0 92.5 -26t34.5 -71q0 -72 -90 -99z
" />
    <glyph glyph-name="uni2084" unicode="&#x2084;" horiz-adv-x="349" 
d="M281 59l-13 -57h-58l-16 -72h-68l17 72h-176l9 42l215 246h86l-53 -231h57zM59 59h97l36 156z" />
    <glyph glyph-name="uni2085" unicode="&#x2085;" horiz-adv-x="354" 
d="M167 165q50 0 78.5 -29t28.5 -79q0 -62 -43.5 -99.5t-112.5 -37.5t-103 36.5t-26 87.5h68q-2 -29 13 -47t50 -18q39 0 63 22t24 55q0 56 -63 56q-48 0 -77 -29l-49 23l71 184h217l-14 -61h-157l-34 -82q31 18 66 18z" />
    <glyph glyph-name="uni2086" unicode="&#x2086;" horiz-adv-x="354" 
d="M163 164q47 0 79 -29t32 -78q0 -59 -45 -98t-108 -39q-126 0 -126 139q0 101 52.5 168.5t137.5 67.5q60 0 93.5 -33t27.5 -81h-64q3 24 -11 40.5t-45 16.5q-45 0 -75.5 -33.5t-44.5 -86.5q40 46 97 46zM119 -23q32 0 59 22t27 58q0 26 -15.5 40t-39.5 14q-33 0 -60 -22.5
t-27 -57.5q0 -27 16 -40.5t40 -13.5z" />
    <glyph glyph-name="uni2087" unicode="&#x2087;" horiz-adv-x="323" 
d="M41 290h267l-10 -43l-236 -317h-84l223 298h-174z" />
    <glyph glyph-name="uni2088" unicode="&#x2088;" horiz-adv-x="371" 
d="M225 94q44 -19 44 -69q0 -48 -44 -76.5t-105 -28.5q-54 0 -89 23.5t-35 64.5q0 57 77 89q-55 22 -55 77q0 54 46 87.5t121 33.5q64 0 101.5 -25.5t37.5 -69.5q0 -38 -28 -65.5t-71 -40.5zM183 238q-41 0 -67.5 -19t-26.5 -46q0 -20 16.5 -33t28 -16t21.5 -4q9 0 29 4.5
t43.5 21.5t23.5 43q0 23 -17.5 36t-50.5 13zM67 15q0 -40 56 -40q34 0 55.5 16t21.5 40q0 34 -54 46q-15 -2 -31 -7.5t-32 -20t-16 -34.5z" />
    <glyph glyph-name="uni2089" unicode="&#x2089;" horiz-adv-x="360" 
d="M130 51q-47 0 -79 29t-32 78q0 59 45 98t108 39q126 0 126 -139q0 -101 -52.5 -168.5t-137.5 -67.5q-60 0 -93.5 33t-27.5 81h64q-3 -24 11 -40.5t45 -16.5q45 0 75.5 33.5t44.5 86.5q-40 -46 -97 -46zM174 238q-32 0 -59 -22t-27 -58q0 -26 15.5 -40t39.5 -14
q33 0 60 22.5t27 57.5q0 27 -16 40.5t-40 13.5z" />
    <glyph glyph-name="Euro" unicode="&#x20ac;" horiz-adv-x="771" 
d="M770 472h-108q5 62 -27 102t-102 40q-69 0 -127 -40t-94 -108h258l-41 -77h-248q-13 -44 -14 -88h221l-42 -77h-176q11 -68 50.5 -103.5t103.5 -35.5q122 0 182 137h109q-32 -118 -114.5 -175t-186.5 -57q-114 0 -181.5 64t-81.5 170h-117l18 77h97q1 40 13 88h-90l18 77
h98q47 108 139.5 176t211.5 68q115 0 178 -64.5t53 -173.5z" />
    <glyph glyph-name="uni2113" unicode="&#x2113;" horiz-adv-x="429" 
d="M435 494q0 -196 -252 -318q-11 -53 6.5 -74t70.5 -21h47l-18 -81h-54q-77 0 -115 34.5t-32 100.5q-44 -17 -97 -31l19 80q59 20 96 37l55 236q19 85 56.5 129t100.5 44q56 0 86.5 -34t30.5 -102zM246 450l-40 -176q138 91 138 219q0 54 -32 54q-24 0 -39.5 -24.5
t-26.5 -72.5z" />
    <glyph glyph-name="uni2117" unicode="&#x2117;" horiz-adv-x="818" 
d="M431 710q152 0 255 -103.5t103 -256.5t-103 -256.5t-255 -103.5t-255 103.5t-103 256.5t103 256.5t255 103.5zM431 52q123 0 206 86.5t83 211.5t-83 211.5t-206 86.5t-206 -86.5t-83 -211.5t83 -211.5t206 -86.5zM450 543q76 0 113 -37t37 -96q0 -60 -36 -97.5
t-114 -36.5h-61v-123h-73v390h73h61zM456 338q35 0 52.5 20.5t17.5 51.5q0 30 -17.5 50.5t-52.5 20.5h-67v-143h67z" />
    <glyph glyph-name="trademark" unicode="&#x2122;" horiz-adv-x="898" 
d="M439 630h-121l-73 -314h-81l73 314h-122l17 70h323zM946 700l-89 -384h-74l68 292l-166 -292h-84l-29 288l-67 -288h-75l89 384h114l26 -294l163 294h124z" />
    <glyph glyph-name="uni2153" unicode="&#x2153;" horiz-adv-x="847" 
d="M10 0l748 700h94l-748 -700h-94zM335 700l-83 -360h-71l54 232q-56 -30 -130 -31l14 60q54 1 101 26t58 73h57zM723 167q40 -16 40 -66q0 -44 -37.5 -77.5t-103.5 -33.5q-67 0 -98 34t-22 85h72q-5 -31 10 -45t40 -14q31 0 51 17.5t20 39.5q0 40 -58 40h-26l12 48h34
q37 0 59.5 18.5t22.5 46.5q0 44 -56 44q-73 0 -96 -72h-69q40 131 168 131q58 0 92.5 -26t34.5 -71q0 -72 -90 -99z" />
    <glyph glyph-name="uni2154" unicode="&#x2154;" horiz-adv-x="913" 
d="M342 340h-271l10 44l102 66q38 25 57.5 39t41 33.5t30.5 38t9 39.5q0 44 -42 44q-32 0 -52.5 -25.5t-27.5 -64.5h-71q12 68 51.5 109.5t102.5 41.5q52 0 83 -27t31 -75t-33 -86.5t-103 -85.5l-50 -33h145zM76 0l748 700h94l-748 -700h-94zM789 167q40 -16 40 -66
q0 -44 -37.5 -77.5t-103.5 -33.5q-67 0 -98 34t-22 85h72q-5 -31 10 -45t40 -14q31 0 51 17.5t20 39.5q0 40 -58 40h-26l12 48h34q37 0 59.5 18.5t22.5 46.5q0 44 -56 44q-73 0 -96 -72h-69q40 131 168 131q58 0 92.5 -26t34.5 -71q0 -72 -90 -99z" />
    <glyph glyph-name="oneeighth" unicode="&#x215b;" horiz-adv-x="863" 
d="M10 0l748 700h94l-748 -700h-94zM335 700l-83 -360h-71l54 232q-56 -30 -130 -31l14 60q54 1 101 26t58 73h57zM733 164q44 -19 44 -69q0 -48 -44 -76.5t-105 -28.5q-54 0 -89 23.5t-35 64.5q0 57 77 89q-55 22 -55 77q0 54 46 87.5t121 33.5q64 0 101.5 -25.5
t37.5 -69.5q0 -38 -28 -65.5t-71 -40.5zM691 308q-41 0 -67.5 -19t-26.5 -46q0 -20 16.5 -33t28 -16t21.5 -4q9 0 29 4.5t43.5 21.5t23.5 43q0 23 -17.5 36t-50.5 13zM575 85q0 -40 56 -40q34 0 55.5 16t21.5 40q0 34 -54 46q-15 -2 -31 -7.5t-32 -20t-16 -34.5z" />
    <glyph glyph-name="threeeighths" unicode="&#x215c;" horiz-adv-x="891" 
d="M313 507q40 -16 40 -66q0 -44 -37.5 -77.5t-103.5 -33.5q-67 0 -98 34t-22 85h72q-5 -31 10 -45t40 -14q31 0 51 17.5t20 39.5q0 40 -58 40h-26l12 48h34q37 0 59.5 18.5t22.5 46.5q0 44 -56 44q-73 0 -96 -72h-69q40 131 168 131q58 0 92.5 -26t34.5 -71q0 -72 -90 -99z
M38 0l748 700h94l-748 -700h-94zM761 164q44 -19 44 -69q0 -48 -44 -76.5t-105 -28.5q-54 0 -89 23.5t-35 64.5q0 57 77 89q-55 22 -55 77q0 54 46 87.5t121 33.5q64 0 101.5 -25.5t37.5 -69.5q0 -38 -28 -65.5t-71 -40.5zM719 308q-41 0 -67.5 -19t-26.5 -46
q0 -20 16.5 -33t28 -16t21.5 -4q9 0 29 4.5t43.5 21.5t23.5 43q0 23 -17.5 36t-50.5 13zM603 85q0 -40 56 -40q34 0 55.5 16t21.5 40q0 34 -54 46q-15 -2 -31 -7.5t-32 -20t-16 -34.5z" />
    <glyph glyph-name="fiveeighths" unicode="&#x215d;" horiz-adv-x="884" 
d="M31 0l748 700h94l-748 -700h-94zM262 575q50 0 78.5 -29t28.5 -79q0 -62 -43.5 -99.5t-112.5 -37.5t-103 36.5t-26 87.5h68q-2 -29 13 -47t50 -18q39 0 63 22t24 55q0 56 -63 56q-48 0 -77 -29l-49 23l71 184h217l-14 -61h-157l-34 -82q31 18 66 18zM754 164
q44 -19 44 -69q0 -48 -44 -76.5t-105 -28.5q-54 0 -89 23.5t-35 64.5q0 57 77 89q-55 22 -55 77q0 54 46 87.5t121 33.5q64 0 101.5 -25.5t37.5 -69.5q0 -38 -28 -65.5t-71 -40.5zM712 308q-41 0 -67.5 -19t-26.5 -46q0 -20 16.5 -33t28 -16t21.5 -4q9 0 29 4.5t43.5 21.5
t23.5 43q0 23 -17.5 36t-50.5 13zM596 85q0 -40 56 -40q34 0 55.5 16t21.5 40q0 34 -54 46q-15 -2 -31 -7.5t-32 -20t-16 -34.5z" />
    <glyph glyph-name="seveneighths" unicode="&#x215e;" horiz-adv-x="789" 
d="M-64 0l748 700h94l-748 -700h-94zM136 700h267l-10 -43l-236 -317h-84l223 298h-174zM659 164q44 -19 44 -69q0 -48 -44 -76.5t-105 -28.5q-54 0 -89 23.5t-35 64.5q0 57 77 89q-55 22 -55 77q0 54 46 87.5t121 33.5q64 0 101.5 -25.5t37.5 -69.5q0 -38 -28 -65.5
t-71 -40.5zM617 308q-41 0 -67.5 -19t-26.5 -46q0 -20 16.5 -33t28 -16t21.5 -4q9 0 29 4.5t43.5 21.5t23.5 43q0 23 -17.5 36t-50.5 13zM501 85q0 -40 56 -40q34 0 55.5 16t21.5 40q0 34 -54 46q-15 -2 -31 -7.5t-32 -20t-16 -34.5z" />
    <glyph glyph-name="arrowleft" unicode="&#x2190;" horiz-adv-x="721" 
d="M688 329l-19 -86h-473l130 -171l-73 -53l-200 267l323 267l55 -63l-199 -161h456z" />
    <glyph glyph-name="arrowup" unicode="&#x2191;" horiz-adv-x="625" 
d="M606 354l-71 -54l-125 162l-107 -462h-94l107 462l-191 -154l-54 66l319 251z" />
    <glyph glyph-name="arrowright" unicode="&#x2192;" horiz-adv-x="723" 
d="M484 553l200 -267l-323 -267l-55 63l199 161h-456l19 86h473l-130 171z" />
    <glyph glyph-name="arrowdown" unicode="&#x2193;" horiz-adv-x="624" 
d="M523 297l54 -66l-319 -251l-216 271l71 54l125 -162l107 462h94l-107 -462z" />
    <glyph glyph-name="arrowboth" unicode="&#x2194;" horiz-adv-x="867" 
d="M628 553l200 -267l-323 -267l-55 63l199 161h-453l130 -171l-73 -53l-200 267l323 267l55 -63l-199 -161h453l-130 171z" />
    <glyph glyph-name="arrowupdn" unicode="&#x2195;" horiz-adv-x="658" 
d="M336 80l190 153l54 -66l-318 -252l-217 272l71 54l126 -163l104 447l-191 -152l-54 66l319 251l216 -271l-71 -54l-126 162z" />
    <glyph glyph-name="uni2196" unicode="&#x2196;" horiz-adv-x="606" 
d="M498 394l-238 2l253 -329l-74 -59l-251 326l-54 -238h-95l89 384h389z" />
    <glyph glyph-name="uni2197" unicode="&#x2197;" horiz-adv-x="597" 
d="M154 480h420l-94 -405h-93l60 252l-372 -298l-55 69l376 298l-262 -2z" />
    <glyph glyph-name="uni2198" unicode="&#x2198;" horiz-adv-x="605" 
d="M476 434h95l-89 -384h-389l19 86l238 -2l-253 329l74 59l251 -326z" />
    <glyph glyph-name="uni2199" unicode="&#x2199;" horiz-adv-x="594" 
d="M576 402l-376 -298l262 2l-20 -86h-420l94 405h93l-60 -252l372 298z" />
    <glyph glyph-name="uni21A5" unicode="&#x21a5;" horiz-adv-x="625" 
d="M535 300l-125 162l-87 -376h156l-20 -86h-403l20 86h153l87 376l-191 -154l-54 66l319 251l216 -271z" />
    <glyph glyph-name="uni21A7" unicode="&#x21a7;" horiz-adv-x="624" 
d="M332 143l191 154l54 -66l-319 -251l-216 271l71 54l125 -162l87 376h-156l20 86h403l-20 -86h-153z" />
    <glyph glyph-name="emptyset" unicode="&#x2205;" horiz-adv-x="732" 
d="M767 583l-99 -81q36 -63 36 -143q0 -145 -112 -257t-266 -112q-122 0 -197 75l-98 -80l-40 52l98 80q-36 62 -36 142q0 146 112 258.5t266 112.5q122 0 197 -75l99 80zM157 261q0 -41 15 -77l376 306q-47 42 -122 42q-112 0 -190.5 -83.5t-78.5 -187.5zM601 358
q0 42 -15 78l-376 -306q46 -43 122 -43q112 0 190.5 84t78.5 187z" />
    <glyph glyph-name="product" unicode="&#x220f;" horiz-adv-x="694" 
d="M722 700l-162 -700h-109l140 607h-325l-140 -607h-109l162 700h543z" />
    <glyph glyph-name="summation" unicode="&#x2211;" horiz-adv-x="598" 
d="M644 700l-21 -91h-341l175 -259l-276 -259h322l-21 -91h-485l16 69l314 291l-184 271l16 69h485z" />
    <glyph glyph-name="minus" unicode="&#x2212;" horiz-adv-x="580" 
d="M59 288h480l-21 -90h-479z" />
    <glyph glyph-name="radical" unicode="&#x221a;" horiz-adv-x="629" 
d="M585 700h127l-434 -700h-126l-84 500h110l56 -379z" />
    <glyph glyph-name="infinity" unicode="&#x221e;" horiz-adv-x="773" 
d="M572 409q65 0 107.5 -40t42.5 -104q0 -77 -60.5 -130.5t-139.5 -53.5q-98 0 -149 91q-77 -91 -175 -91q-64 0 -106.5 40t-42.5 104q0 78 59.5 131t138.5 53q100 0 151 -91q75 91 174 91zM209 157q36 0 69 23.5t48 46.5l15 23q-1 3 -2 9t-7.5 20t-16 25t-27.5 20t-40 9
q-43 0 -78 -29.5t-35 -75.5q0 -34 20.5 -52.5t53.5 -18.5zM522 157q44 0 79 29.5t35 75.5q0 34 -20.5 52.5t-52.5 18.5q-35 0 -68.5 -23t-49.5 -46l-16 -23q0 -3 1.5 -9t8 -20.5t15.5 -25.5t27 -20t41 -9z" />
    <glyph glyph-name="integral" unicode="&#x222b;" horiz-adv-x="544" 
d="M572 700h66l-21 -91h-46q-59 0 -93 -24t-62 -99l-204 -540q-37 -97 -96.5 -131.5t-153.5 -34.5h-61l21 91h46q58 0 91.5 22t59.5 91l203 534q42 108 99.5 145t150.5 37z" />
    <glyph glyph-name="approxequal" unicode="&#x2248;" horiz-adv-x="618" 
d="M59 269q20 77 66 121t111 44q42 0 73.5 -21t57 -42t52.5 -21q56 0 81 74h79q-19 -76 -65.5 -120t-111.5 -44q-33 0 -59.5 13t-41.5 29t-36 29t-43 13q-60 0 -84 -75h-79zM36 69q20 77 66 121t111 44q42 0 73.5 -21t57 -42t52.5 -21q56 0 81 74h79q-19 -76 -65.5 -120
t-111.5 -44q-33 0 -59.5 13t-41.5 29t-36 29t-43 13q-60 0 -84 -75h-79z" />
    <glyph glyph-name="notequal" unicode="&#x2260;" horiz-adv-x="585" 
d="M547 304h-160l-107 -125h234l-21 -90h-291l-94 -110l-49 40l60 70h-105l20 90h161l107 125h-234l20 90h291l89 105l51 -41l-55 -64h104z" />
    <glyph glyph-name="lessequal" unicode="&#x2264;" horiz-adv-x="580" 
d="M52 256l21 95l511 136l-21 -94l-378 -95l335 -94l-21 -85zM472 0h-480l21 88h479z" />
    <glyph glyph-name="greaterequal" unicode="&#x2265;" horiz-adv-x="581" 
d="M531 256l-511 -137l21 94l379 95l-335 94l20 85l448 -136zM14 87h480l-21 -88h-479z" />
    <glyph glyph-name="uni2460" unicode="&#x2460;" horiz-adv-x="818" 
d="M431 -10q-152 0 -255 103.5t-103 256.5t103 256.5t255 103.5t255 -103.5t103 -256.5t-103 -256.5t-255 -103.5zM431 52q123 0 206 86.5t83 211.5t-83 211.5t-206 86.5t-206 -86.5t-83 -211.5t83 -211.5t206 -86.5zM493 524v-360h-71v232q-49 -30 -123 -31v60q55 1 96 25
t41 74h57z" />
    <glyph glyph-name="uni2461" unicode="&#x2461;" horiz-adv-x="818" 
d="M431 -10q-152 0 -255 103.5t-103 256.5t103 256.5t255 103.5t255 -103.5t103 -256.5t-103 -256.5t-255 -103.5zM431 52q123 0 206 86.5t83 211.5t-83 211.5t-206 86.5t-206 -86.5t-83 -211.5t83 -211.5t206 -86.5zM565 178h-271v44l87 66q56 43 80 72t24 66
q0 25 -14 40.5t-39 15.5q-32 0 -47 -25.5t-13 -64.5h-71q-2 64 31.5 107.5t102.5 43.5q57 0 89.5 -32t32.5 -84q0 -46 -25 -82.5t-75 -75.5l-42 -33h150v-58z" />
    <glyph glyph-name="uni2462" unicode="&#x2462;" horiz-adv-x="818" 
d="M431 -10q-152 0 -255 103.5t-103 256.5t103 256.5t255 103.5t255 -103.5t103 -256.5t-103 -256.5t-255 -103.5zM431 52q123 0 206 86.5t83 211.5t-83 211.5t-206 86.5t-206 -86.5t-83 -211.5t83 -211.5t206 -86.5zM505 339q55 -19 55 -76q0 -41 -32 -70.5t-93 -29.5
q-63 0 -99 33t-40 86h72q3 -31 21 -45t43 -14q28 0 43 14.5t15 34.5q0 21 -16 34.5t-48 13.5h-28v48h34q32 0 50 14.5t18 40.5t-18.5 40t-48.5 14q-73 0 -79 -72h-70q5 60 42 95.5t106 35.5q63 0 101.5 -29.5t38.5 -80.5q0 -66 -67 -87z" />
    <glyph glyph-name="uni2463" unicode="&#x2463;" horiz-adv-x="818" 
d="M431 -10q-152 0 -255 103.5t-103 256.5t103 256.5t255 103.5t255 -103.5t103 -256.5t-103 -256.5t-255 -103.5zM431 52q123 0 206 86.5t83 211.5t-83 211.5t-206 86.5t-206 -86.5t-83 -211.5t83 -211.5t206 -86.5zM568 300v-57h-57v-72h-68v72h-176v42l158 246h86v-231
h57zM344 300h99v160z" />
    <glyph glyph-name="uni2464" unicode="&#x2464;" horiz-adv-x="818" 
d="M431 -10q-152 0 -255 103.5t-103 256.5t103 256.5t255 103.5t255 -103.5t103 -256.5t-103 -256.5t-255 -103.5zM431 52q123 0 206 86.5t83 211.5t-83 211.5t-206 86.5t-206 -86.5t-83 -211.5t83 -211.5t206 -86.5zM441 401q59 0 93.5 -33.5t34.5 -89.5t-38 -89t-101 -33
q-65 0 -101.5 35t-41.5 89h68q4 -28 23 -46.5t53 -18.5t53 17.5t19 46.5q0 32 -20 50.5t-56 18.5q-48 0 -71 -29l-54 23l28 184h218v-61h-158l-15 -83q27 19 66 19z" />
    <glyph glyph-name="uni2465" unicode="&#x2465;" horiz-adv-x="818" 
d="M431 -10q-152 0 -255 103.5t-103 256.5t103 256.5t255 103.5t255 -103.5t103 -256.5t-103 -256.5t-255 -103.5zM431 52q123 0 206 86.5t83 211.5t-83 211.5t-206 86.5t-206 -86.5t-83 -211.5t83 -211.5t206 -86.5zM442 407q53 0 89 -32.5t36 -87.5q0 -56 -37.5 -90
t-98.5 -34q-68 0 -107.5 47t-39.5 139q0 93 42 141t114 48q56 0 91.5 -32.5t40.5 -81.5h-64q-3 24 -20.5 40.5t-50.5 16.5q-44 0 -66 -34t-24 -87q31 47 95 47zM431 220q28 0 48.5 17.5t20.5 49.5t-20 49.5t-48 17.5q-29 0 -49.5 -18t-20.5 -50t20.5 -49t48.5 -17z" />
    <glyph glyph-name="uni2466" unicode="&#x2466;" horiz-adv-x="818" 
d="M431 -10q-152 0 -255 103.5t-103 256.5t103 256.5t255 103.5t255 -103.5t103 -256.5t-103 -256.5t-255 -103.5zM431 52q123 0 206 86.5t83 211.5t-83 211.5t-206 86.5t-206 -86.5t-83 -211.5t83 -211.5t206 -86.5zM309 515h267v-43l-163 -317h-80l155 298h-179v62z" />
    <glyph glyph-name="uni2467" unicode="&#x2467;" horiz-adv-x="818" 
d="M431 -10q-152 0 -255 103.5t-103 256.5t103 256.5t255 103.5t255 -103.5t103 -256.5t-103 -256.5t-255 -103.5zM431 52q123 0 206 86.5t83 211.5t-83 211.5t-206 86.5t-206 -86.5t-83 -211.5t83 -211.5t206 -86.5zM509 338q56 -22 56 -77q0 -45 -38.5 -71.5t-95.5 -26.5
t-95 26.5t-38 71.5q0 54 55 77q-72 27 -72 91q0 49 40.5 79t109.5 30t110 -30t41 -79q0 -64 -73 -91zM431 481q-37 0 -58.5 -16t-21.5 -41q0 -22 19.5 -37.5t36 -19.5t24.5 -4q9 0 25 4t35.5 19t19.5 38q0 26 -21.5 41.5t-58.5 15.5zM367 266q0 -22 17.5 -35t46.5 -13
q30 0 47.5 13t17.5 35q0 43 -65 54q-64 -11 -64 -54z" />
    <glyph glyph-name="uni2468" unicode="&#x2468;" horiz-adv-x="818" 
d="M431 -10q-152 0 -255 103.5t-103 256.5t103 256.5t255 103.5t255 -103.5t103 -256.5t-103 -256.5t-255 -103.5zM431 52q123 0 206 86.5t83 211.5t-83 211.5t-206 86.5t-206 -86.5t-83 -211.5t83 -211.5t206 -86.5zM425 292q-53 0 -89 32.5t-36 87.5q0 56 37.5 90t98.5 34
q68 0 107.5 -47t39.5 -139q0 -93 -42 -141t-113 -48q-56 0 -92 32.5t-41 81.5h64q3 -24 21 -40.5t51 -16.5q43 0 65 34t24 87q-31 -47 -95 -47zM436 479q-28 0 -48.5 -17.5t-20.5 -49.5t20 -49.5t48 -17.5q29 0 49.5 18t20.5 50t-20.5 49t-48.5 17z" />
    <glyph glyph-name="uni2469" unicode="&#x2469;" horiz-adv-x="1093" 
d="M706 710q152 0 255 -103.5t103 -256.5t-103 -256.5t-255 -103.5h-275q-152 0 -255 103.5t-103 256.5t103 256.5t255 103.5h275zM706 52q123 0 206 86.5t83 211.5t-83 211.5t-206 86.5h-275q-123 0 -206 -86.5t-83 -211.5t83 -211.5t206 -86.5h275zM703 162
q-78 0 -115.5 55t-37.5 132t37.5 132t115.5 55q53 0 88.5 -28.5t49.5 -69t14 -89.5t-14 -89.5t-49.5 -69t-88.5 -28.5zM471 530v-360h-71v232q-49 -30 -123 -31v60q55 1 96 25t41 74h57zM703 226q37 0 57 31.5t20 91.5q0 123 -77 123q-78 0 -78 -123t78 -123z" />
    <glyph glyph-name="uni24EA" unicode="&#x24ea;" horiz-adv-x="818" 
d="M431 -10q-152 0 -255 103.5t-103 256.5t103 256.5t255 103.5t255 -103.5t103 -256.5t-103 -256.5t-255 -103.5zM431 52q123 0 206 86.5t83 211.5t-83 211.5t-206 86.5t-206 -86.5t-83 -211.5t83 -211.5t206 -86.5zM431 164q-78 0 -115.5 55t-37.5 132t37.5 132t115.5 55
q53 0 88.5 -28.5t49.5 -69t14 -89.5t-14 -89.5t-49.5 -69t-88.5 -28.5zM431 228q37 0 57 31.5t20 91.5q0 123 -77 123q-78 0 -78 -123t78 -123z" />
    <glyph glyph-name="uni24FF" unicode="&#x24ff;" horiz-adv-x="818" 
d="M431 -10q-152 0 -255 103.5t-103 256.5t103 256.5t255 103.5t255 -103.5t103 -256.5t-103 -256.5t-255 -103.5zM432 164q53 0 88.5 28.5t49.5 69t14 89.5t-14 89.5t-49.5 69t-88.5 28.5q-78 0 -115.5 -55t-37.5 -132t37.5 -132t115.5 -55zM432 228q-78 0 -78 123t78 123
q77 0 77 -123q0 -60 -20 -91.5t-57 -31.5z" />
    <glyph glyph-name="lozenge" unicode="&#x25ca;" horiz-adv-x="595" 
d="M53 296l303 243l202 -261l-303 -243zM167 287l107 -139l171 139l-107 139z" />
    <glyph glyph-name="uni25CF" unicode="&#x25cf;" horiz-adv-x="637" 
d="M331 40q-114 0 -192 78t-78 192t78 192t192 78t192 -78t78 -192t-78 -192t-192 -78z" />
    <glyph glyph-name="smileface" unicode="&#x263a;" horiz-adv-x="822" 
d="M793 350q0 -150 -105 -255t-255 -105t-255 106t-105 254q0 149 105.5 254.5t254.5 105.5q151 0 255.5 -105.5t104.5 -254.5zM245 533v-45h44v-128h46v128h44v45h-134zM487 533v-45h45v-128h45v128h45v45h-135zM433 81q109 0 187 76t81 183l-46 8q0 -92 -65 -156.5
t-157 -64.5q-91 0 -156 64.5t-65 156.5l-46 -8q3 -107 81 -183t186 -76z" />
    <glyph glyph-name="uni2731" unicode="&#x2731;" horiz-adv-x="496" 
d="M457 300l-144 -40l93 -117l-64 -46l-82 124l-83 -124l-64 46l93 117l-144 40l24 75l140 -52l-6 149h79l-6 -149l140 52z" />
    <glyph glyph-name="uni2776" unicode="&#x2776;" horiz-adv-x="818" 
d="M431 -10q-152 0 -255 103.5t-103 256.5t103 256.5t255 103.5t255 -103.5t103 -256.5t-103 -256.5t-255 -103.5zM494 164v360h-57q0 -50 -41 -74t-96 -25v-60q74 1 123 31v-232h71z" />
    <glyph glyph-name="uni2777" unicode="&#x2777;" horiz-adv-x="818" 
d="M431 -10q-152 0 -255 103.5t-103 256.5t103 256.5t255 103.5t255 -103.5t103 -256.5t-103 -256.5t-255 -103.5zM295 178h271v58h-150l42 33q50 39 75 75.5t25 82.5q0 52 -32.5 84t-89.5 32q-69 0 -102.5 -43.5t-31.5 -107.5h71q-2 39 13 64.5t47 25.5q25 0 39 -15.5
t14 -40.5q0 -37 -24 -66t-80 -72l-87 -66v-44z" />
    <glyph glyph-name="uni2778" unicode="&#x2778;" horiz-adv-x="818" 
d="M431 -10q-152 0 -255 103.5t-103 256.5t103 256.5t255 103.5t255 -103.5t103 -256.5t-103 -256.5t-255 -103.5zM506 339q67 21 67 87q0 51 -38.5 80.5t-101.5 29.5q-69 0 -106 -35.5t-42 -95.5h70q6 72 79 72q30 0 48.5 -14t18.5 -40t-18 -40.5t-50 -14.5h-34v-48h28
q32 0 48 -13.5t16 -34.5q0 -20 -15 -34.5t-43 -14.5q-25 0 -43 14t-21 45h-72q4 -53 40 -86t99 -33q61 0 93 29.5t32 70.5q0 57 -55 76z" />
    <glyph glyph-name="uni2779" unicode="&#x2779;" horiz-adv-x="818" 
d="M431 -10q-152 0 -255 103.5t-103 256.5t103 256.5t255 103.5t255 -103.5t103 -256.5t-103 -256.5t-255 -103.5zM569 243v57h-57v231h-86l-158 -246v-42h176v-72h68v72h57zM444 300h-99l99 160v-160z" />
    <glyph glyph-name="uni277A" unicode="&#x277a;" horiz-adv-x="818" 
d="M431 -10q-152 0 -255 103.5t-103 256.5t103 256.5t255 103.5t255 -103.5t103 -256.5t-103 -256.5t-255 -103.5zM442 401q-39 0 -66 -19l15 83h158v61h-218l-28 -184l54 -23q23 29 71 29q36 0 56 -18.5t20 -50.5q0 -29 -19 -46.5t-53 -17.5t-53 18.5t-23 46.5h-68
q5 -54 41.5 -89t101.5 -35q63 0 101 33t38 89t-34.5 89.5t-93.5 33.5z" />
    <glyph glyph-name="uni277B" unicode="&#x277b;" horiz-adv-x="818" 
d="M431 -10q-152 0 -255 103.5t-103 256.5t103 256.5t255 103.5t255 -103.5t103 -256.5t-103 -256.5t-255 -103.5zM443 407q-64 0 -95 -47q2 53 24 87t66 34q33 0 50.5 -16.5t20.5 -40.5h64q-5 49 -40.5 81.5t-91.5 32.5q-72 0 -114 -48t-42 -141q0 -92 39.5 -139t107.5 -47
q61 0 98.5 34t37.5 90q0 55 -36 87.5t-89 32.5zM432 220q-28 0 -48.5 17t-20.5 49t20.5 50t49.5 18q28 0 48 -17.5t20 -49.5t-20.5 -49.5t-48.5 -17.5z" />
    <glyph glyph-name="uni277C" unicode="&#x277c;" horiz-adv-x="818" 
d="M431 -10q-152 0 -255 103.5t-103 256.5t103 256.5t255 103.5t255 -103.5t103 -256.5t-103 -256.5t-255 -103.5zM577 515h-267v-62h179l-155 -298h80l163 317v43z" />
    <glyph glyph-name="uni277D" unicode="&#x277d;" horiz-adv-x="818" 
d="M431 -10q-152 0 -255 103.5t-103 256.5t103 256.5t255 103.5t255 -103.5t103 -256.5t-103 -256.5t-255 -103.5zM510 338q73 27 73 91q0 49 -41 79t-110 30t-109.5 -30t-40.5 -79q0 -64 72 -91q-55 -23 -55 -77q0 -45 38 -71.5t95 -26.5t95.5 26.5t38.5 71.5q0 55 -56 77z
M432 481q37 0 58.5 -15.5t21.5 -41.5q0 -23 -19.5 -38t-35.5 -19t-25 -4q-8 0 -24.5 4t-36 19.5t-19.5 37.5q0 25 21.5 41t58.5 16zM368 266q0 43 64 54q65 -11 65 -54q0 -22 -17.5 -35t-47.5 -13q-29 0 -46.5 13t-17.5 35z" />
    <glyph glyph-name="uni277E" unicode="&#x277e;" horiz-adv-x="818" 
d="M431 -10q-152 0 -255 103.5t-103 256.5t103 256.5t255 103.5t255 -103.5t103 -256.5t-103 -256.5t-255 -103.5zM426 292q64 0 95 47q-2 -53 -24 -87t-65 -34q-33 0 -51 16.5t-21 40.5h-64q5 -49 41 -81.5t92 -32.5q71 0 113 48t42 141q0 92 -39.5 139t-107.5 47
q-61 0 -98.5 -34t-37.5 -90q0 -55 36 -87.5t89 -32.5zM437 479q28 0 48.5 -17t20.5 -49t-20.5 -50t-49.5 -18q-28 0 -48 17.5t-20 49.5t20.5 49.5t48.5 17.5z" />
    <glyph glyph-name="uni277F" unicode="&#x277f;" horiz-adv-x="1092" 
d="M431 710h274q152 0 255 -103.5t103 -256.5t-103 -256.5t-255 -103.5h-274q-152 0 -255 103.5t-103 256.5t103 256.5t255 103.5zM698 162q53 0 88.5 28.5t49.5 69t14 89.5t-14 89.5t-49.5 69t-88.5 28.5q-78 0 -115.5 -55t-37.5 -132t37.5 -132t115.5 -55zM466 170v360
h-57q0 -50 -41 -74t-96 -25v-60q74 1 123 31v-232h71zM698 226q-78 0 -78 123t78 123q77 0 77 -123q0 -60 -20 -91.5t-57 -31.5z" />
    <glyph glyph-name="uni27FB" unicode="&#x27fb;" horiz-adv-x="839" 
d="M724 488h93l-92 -404h-94l37 159h-472l130 -171l-73 -53l-200 267l323 267l55 -63l-199 -161h455z" />
    <glyph glyph-name="uni27FC" unicode="&#x27fc;" horiz-adv-x="841" 
d="M602 553l200 -267l-323 -267l-55 63l199 161h-455l-37 -159h-93l92 404h94l-37 -159h472l-130 171z" />
    <glyph glyph-name="Adieresis.ss02" horiz-adv-x="686" 
d="M347 758q-26 0 -40.5 15t-14.5 40q0 33 25 57t61 24q25 0 39.5 -15.5t14.5 -39.5q0 -33 -24.5 -57t-60.5 -24zM605 894q25 0 39.5 -15.5t14.5 -39.5q0 -33 -24.5 -57t-60.5 -24q-26 0 -40.5 15t-14.5 40q0 33 25 57t61 24zM518 700l93 -700h-121l-19 166h-287l-97 -166
h-127l416 700h142zM240 263h220l-36 315z" />
    <glyph glyph-name="B.ss03" horiz-adv-x="644" 
d="M469 358q118 -35 118 -159q0 -89 -67.5 -144t-208.5 -55h-178h-116l162 700h116h123q106 0 157 -45t51 -116q0 -63 -40 -110t-117 -71zM401 600h-129l-47 -204h118q70 0 113.5 33.5t43.5 87.5q0 39 -25 61t-74 22zM326 100q73 0 108 31t35 79q0 42 -26 66t-75 24h-166
l-46 -200h170z" />
    <glyph glyph-name="Cdotaccent.ss02" horiz-adv-x="743" 
d="M494 773q-29 0 -46 17.5t-17 44.5q0 38 28.5 65.5t69.5 27.5q29 0 45.5 -17.5t16.5 -44.5q0 -38 -28 -65.5t-69 -27.5zM694 256q-39 -136 -133.5 -201t-217.5 -65q-136 0 -209.5 75.5t-74.5 209.5q-2 179 115 307t299 128q134 0 202.5 -70.5t59.5 -178.5h-120
q3 67 -35.5 106t-117.5 39q-127 0 -204 -95.5t-77 -226.5q0 -93 44 -143t132 -50q151 0 217 165h120z" />
    <glyph glyph-name="Edieresis.ss02" horiz-adv-x="594" 
d="M309 758q-26 0 -40.5 15t-14.5 40q0 33 25 57t61 24q25 0 39.5 -15.5t14.5 -39.5q0 -33 -24.5 -57t-60.5 -24zM536 758q-26 0 -40.5 15t-14.5 40q0 33 25 57t61 24q25 0 39.5 -15.5t14.5 -39.5q0 -33 -24.5 -57t-60.5 -24zM613 595h-338l-45 -192h317l-23 -98h-316
l-47 -200h339l-24 -105h-459l162 700h459z" />
    <glyph glyph-name="Edotaccent.ss02" horiz-adv-x="594" 
d="M427 773q-29 0 -46 17.5t-17 44.5q0 38 28.5 65.5t69.5 27.5q29 0 45.5 -17.5t16.5 -44.5q0 -38 -28 -65.5t-69 -27.5zM613 595h-338l-45 -192h317l-23 -98h-316l-47 -200h339l-24 -105h-459l162 700h459z" />
    <glyph glyph-name="Euro.ss07" horiz-adv-x="714" 
d="M697 422h-100q4 54 -24 86t-90 32q-63 0 -114.5 -33t-83.5 -90h236l-39 -72h-227q-10 -34 -13 -77h204l-38 -71h-162q21 -118 137 -118q118 0 166 116h102q-32 -109 -107 -157t-167 -48q-105 0 -167 56.5t-75 150.5h-107l16 71h88q3 40 12 77h-82l17 72h89
q43 95 126.5 154t192.5 59q106 0 163 -55.5t47 -152.5z" />
    <glyph glyph-name="Gcommaaccent.ss02" horiz-adv-x="763" 
d="M736 458h-117q8 72 -29 111t-113 39q-122 0 -208.5 -95t-86.5 -228q0 -90 45.5 -142t140.5 -52q83 0 142.5 44t81.5 140h-231l20 89h337l-7 -30h1l-77 -334h-76l12 103q-83 -112 -234 -113q-130 -1 -202.5 75t-74.5 211q-2 180 117 307t303 127q135 0 204.5 -70.5
t51.5 -181.5zM309 -67q56 0 56 -69q0 -68 -48 -116.5t-134 -56.5l10 44q29 4 53.5 20t30.5 38q-27 1 -40.5 16t-13.5 39q0 34 25.5 59.5t60.5 25.5z" />
    <glyph glyph-name="Gdotaccent.ss02" horiz-adv-x="763" 
d="M502 773q-29 0 -46 17.5t-17 44.5q0 38 28.5 65.5t69.5 27.5q29 0 45.5 -17.5t16.5 -44.5q0 -38 -28 -65.5t-69 -27.5zM736 458h-117q8 72 -29 111t-113 39q-122 0 -208.5 -95t-86.5 -228q0 -90 45.5 -142t140.5 -52q83 0 142.5 44t81.5 140h-231l20 89h337l-7 -30h1
l-77 -334h-76l12 103q-83 -112 -234 -113q-130 -1 -202.5 75t-74.5 211q-2 180 117 307t303 127q135 0 204.5 -70.5t51.5 -181.5z" />
    <glyph glyph-name="I.ss06" horiz-adv-x="432" 
d="M456 599h-99l-116 -498h101l-24 -101h-321l24 101h99l116 498h-101l24 101h321z" />
    <glyph glyph-name="IJ.ss05" horiz-adv-x="617" 
d="M42 105h119q114 0 184.5 57.5t95.5 167.5l85 370h122l-98 -425q-29 -124 -126.5 -199.5t-248.5 -75.5h-157zM198 223h-121l110 477h121z" />
    <glyph glyph-name="IJ.ss05.ss06" horiz-adv-x="984" 
d="M357 599l-116 -498h101l-24 -101h-321l24 101h99l116 498h-101l24 101h321l-24 -101h-99zM1023 700l-98 -425q-29 -124 -126.5 -199.5t-248.5 -75.5h-157l24 105h119q114 0 184.5 57.5t95.5 167.5l60 263h-238l25 107h360z" />
    <glyph glyph-name="IJ.ss06" horiz-adv-x="1040" 
d="M357 599l-116 -498h101l-24 -101h-321l24 101h99l116 498h-101l24 101h321l-24 -101h-99zM1072 700l-19 -78l-89 -387q-27 -120 -105 -182.5t-196 -62.5q-131 0 -190.5 73t-30.5 203l7 32h119l-7 -32q-19 -86 9 -129.5t99 -43.5q141 0 182 178l75 322h-240l25 107h361z
" />
    <glyph glyph-name="Iacute.ss06" horiz-adv-x="432" 
d="M535 924l-171 -147h-109l133 147h147zM480 700l-24 -101h-99l-116 -498h101l-24 -101h-321l24 101h99l116 498h-101l24 101h321z" />
    <glyph glyph-name="Ibreve.ss06" horiz-adv-x="432" 
d="M344 772q-67 0 -101.5 43t-22.5 100h86q-5 -28 7 -47t42 -19t50 18.5t27 47.5h87q-14 -63 -61 -103t-114 -40zM480 700l-24 -101h-99l-116 -498h101l-24 -101h-321l24 101h99l116 498h-101l24 101h321z" />
    <glyph glyph-name="Icircumflex.ss06" horiz-adv-x="432" 
d="M355 848l-78 -79h-107l144 143h106l77 -143h-99zM480 700l-24 -101h-99l-116 -498h101l-24 -101h-321l24 101h99l116 498h-101l24 101h321z" />
    <glyph glyph-name="Idieresis.ss02" horiz-adv-x="272" 
d="M140 758q-26 0 -40.5 15t-14.5 40q0 33 25 57t61 24q25 0 39.5 -15.5t14.5 -39.5q0 -33 -24.5 -57t-60.5 -24zM367 758q-26 0 -40.5 15t-14.5 40q0 33 25 57t61 24q25 0 39.5 -15.5t14.5 -39.5q0 -33 -24.5 -57t-60.5 -24zM138 0h-121l162 700h121z" />
    <glyph glyph-name="Idieresis.ss06" horiz-adv-x="432" 
d="M310 890l-26 -113h-119l27 113h118zM417 890h118l-26 -113h-118zM480 700l-24 -101h-99l-116 -498h101l-24 -101h-321l24 101h99l116 498h-101l24 101h321z" />
    <glyph glyph-name="Idieresis.ss06.ss02" horiz-adv-x="432" 
d="M220 758q-26 0 -40.5 15t-14.5 40q0 33 25 57t61 24q25 0 39.5 -15.5t14.5 -39.5q0 -33 -24.5 -57t-60.5 -24zM478 894q25 0 39.5 -15.5t14.5 -39.5q0 -33 -24.5 -57t-60.5 -24q-26 0 -40.5 15t-14.5 40q0 33 25 57t61 24zM480 700l-24 -101h-99l-116 -498h101l-24 -101
h-321l24 101h99l116 498h-101l24 101h321z" />
    <glyph glyph-name="Idotaccent.ss02" horiz-adv-x="272" 
d="M258 773q-29 0 -46 17.5t-17 44.5q0 38 28.5 65.5t69.5 27.5q29 0 45.5 -17.5t16.5 -44.5q0 -38 -28 -65.5t-69 -27.5zM138 0h-121l162 700h121z" />
    <glyph glyph-name="Idotaccent.ss06" horiz-adv-x="432" 
d="M432 905l-27 -119h-135l27 119h135zM456 599h-99l-116 -498h101l-24 -101h-321l24 101h99l116 498h-101l24 101h321z" />
    <glyph glyph-name="Idotaccent.ss06.ss02" horiz-adv-x="432" 
d="M338 773q-29 0 -46 17.5t-17 44.5q0 38 28.5 65.5t69.5 27.5q29 0 45.5 -17.5t16.5 -44.5q0 -38 -28 -65.5t-69 -27.5zM456 599h-99l-116 -498h101l-24 -101h-321l24 101h99l116 498h-101l24 101h321z" />
    <glyph glyph-name="Igrave.ss06" horiz-adv-x="432" 
d="M415 777h-99l-112 147h134zM456 599h-99l-116 -498h101l-24 -101h-321l24 101h99l116 498h-101l24 101h321z" />
    <glyph glyph-name="Imacron.ss06" horiz-adv-x="432" 
d="M198 874h318l-18 -85h-319zM480 700l-24 -101h-99l-116 -498h101l-24 -101h-321l24 101h99l116 498h-101l24 101h321z" />
    <glyph glyph-name="Iogonek.ss06" horiz-adv-x="432" 
d="M456 599h-99l-116 -498h101l-24 -101h-101q-104 -55 -104 -113q0 -48 67 -48h21l-17 -70h-31q-62 0 -93.5 29t-31.5 74t27.5 72.5t79.5 55.5h-138l24 101h99l116 498h-101l24 101h321z" />
    <glyph glyph-name="Itilde.ss06" horiz-adv-x="432" 
d="M491 908h76q-23 -65 -63 -99t-90 -34q-36 0 -59.5 12.5t-40.5 25.5t-38 13q-39 0 -63 -46h-73q21 65 60.5 99t92.5 34q44 0 77.5 -25.5t57.5 -25.5q42 0 63 46zM480 700l-24 -101h-99l-116 -498h101l-24 -101h-321l24 101h99l116 498h-101l24 101h321z" />
    <glyph glyph-name="J.ss05" horiz-adv-x="552" 
d="M-15 105h119q114 0 184.5 57.5t95.5 167.5l85 370h122l-98 -425q-29 -124 -126.5 -199.5t-248.5 -75.5h-157z" />
    <glyph glyph-name="J.ss05.ss06" horiz-adv-x="552" 
d="M591 700l-98 -425q-29 -124 -126.5 -199.5t-248.5 -75.5h-157l24 105h119q114 0 184.5 57.5t95.5 167.5l60 263h-238l25 107h360z" />
    <glyph glyph-name="J.ss06" horiz-adv-x="648" 
d="M680 700l-19 -78l-89 -387q-27 -120 -105 -182.5t-196 -62.5q-131 0 -190.5 73t-30.5 203l7 32h119l-7 -32q-19 -86 9 -129.5t99 -43.5q141 0 182 178l75 322h-240l25 107h361z" />
    <glyph glyph-name="Jcircumflex.ss05" horiz-adv-x="552" 
d="M708 769h-99l-43 79l-78 -79h-107l144 143h106zM-15 105h119q114 0 184.5 57.5t95.5 167.5l85 370h122l-98 -425q-29 -124 -126.5 -199.5t-248.5 -75.5h-157z" />
    <glyph glyph-name="Jcircumflex.ss05.ss06" horiz-adv-x="552" 
d="M446 848l-78 -79h-107l144 143h106l77 -143h-99zM591 700l-98 -425q-29 -124 -126.5 -199.5t-248.5 -75.5h-157l24 105h119q114 0 184.5 57.5t95.5 167.5l60 263h-238l25 107h360z" />
    <glyph glyph-name="Jcircumflex.ss06" horiz-adv-x="648" 
d="M535 848l-78 -79h-107l144 143h106l77 -143h-99zM680 700l-19 -78l-89 -387q-27 -120 -105 -182.5t-196 -62.5q-131 0 -190.5 73t-30.5 203l7 32h119l-7 -32q-19 -86 9 -129.5t99 -43.5q141 0 182 178l75 322h-240l25 107h361z" />
    <glyph glyph-name="Kcommaaccent.ss02" horiz-adv-x="636" 
d="M708 700l-347 -313l204 -387h-131l-164 305l-80 -72l-54 -233h-119l162 700h119l-67 -291l318 291h159zM245 -67q56 0 56 -69q0 -68 -48 -116.5t-134 -56.5l10 44q29 4 53.5 20t30.5 38q-27 1 -40.5 16t-13.5 39q0 34 25.5 59.5t60.5 25.5z" />
    <glyph glyph-name="Lcaron.ss02" horiz-adv-x="584" 
d="M538 640q0 -69 -49 -119t-137 -58l10 45q30 4 54.5 20.5t30.5 38.5q-27 1 -40.5 16.5t-13.5 40.5q0 34 26 60t61 26q28 0 43 -19t15 -51zM301 700l-137 -593h348l-24 -107h-471l162 700h122z" />
    <glyph glyph-name="Lcommaaccent.ss02" horiz-adv-x="584" 
d="M164 107h348l-24 -107h-471l162 700h122zM234 -67q56 0 56 -69q0 -68 -48 -116.5t-134 -56.5l10 44q29 4 53.5 20t30.5 38q-27 1 -40.5 16t-13.5 39q0 34 25.5 59.5t60.5 25.5z" />
    <glyph glyph-name="Ldot.ss02" horiz-adv-x="584" 
d="M164 107h348l-24 -107h-471l162 700h122zM378 325q-27 0 -42.5 16.5t-15.5 41.5q0 35 26.5 60.5t64.5 25.5q26 0 41.5 -16.5t15.5 -41.5q0 -35 -26 -60.5t-64 -25.5z" />
    <glyph glyph-name="Ncommaaccent.ss02" horiz-adv-x="739" 
d="M651 700h116l-162 -700h-140l-200 565l-131 -565h-117l162 700h142l199 -565zM303 -67q56 0 56 -69q0 -68 -48 -116.5t-134 -56.5l10 44q29 4 53.5 20t30.5 38q-27 1 -40.5 16t-13.5 39q0 34 25.5 59.5t60.5 25.5z" />
    <glyph glyph-name="Odieresis.ss02" horiz-adv-x="785" 
d="M382 758q-26 0 -40.5 15t-14.5 40q0 33 25 57t61 24q25 0 39.5 -15.5t14.5 -39.5q0 -33 -24.5 -57t-60.5 -24zM609 758q-26 0 -40.5 15t-14.5 40q0 33 25 57t61 24q25 0 39.5 -15.5t14.5 -39.5q0 -33 -24.5 -57t-60.5 -24zM352 -10q-141 0 -216 77.5t-75 217.5
q0 183 117.5 304t298.5 121q140 0 215.5 -78t75.5 -218q0 -182 -117.5 -303t-298.5 -121zM360 93q118 0 198.5 94t80.5 227q0 91 -43.5 142t-126.5 51q-118 0 -198.5 -94t-80.5 -227q0 -92 43.5 -142.5t126.5 -50.5z" />
    <glyph glyph-name="Rcommaaccent.ss02" horiz-adv-x="646" 
d="M641 507q0 -78 -50 -132t-158 -74q99 -30 112 -149l17 -152h-125l-16 148q-8 74 -54.5 93t-172.5 19l-60 -260h-117l162 700h231q121 0 176 -55t55 -138zM360 358q78 0 117.5 38.5t39.5 94.5q0 45 -26.5 74.5t-83.5 29.5h-135l-55 -237h143zM265 -67q56 0 56 -69
q0 -68 -48 -116.5t-134 -56.5l10 44q29 4 53.5 20t30.5 38q-27 1 -40.5 16t-13.5 39q0 34 25.5 59.5t60.5 25.5z" />
    <glyph glyph-name="S.ss03" horiz-adv-x="644" 
d="M515 485q9 64 -19.5 94t-94.5 30q-69 0 -108 -28.5t-39 -75.5q0 -41 31.5 -60.5t119.5 -47.5q42 -12 70.5 -25t56 -34.5t41.5 -53t14 -74.5q0 -72 -41.5 -123t-105.5 -74t-143 -23q-130 0 -203.5 65t-52.5 190h119q-19 -151 142 -151q71 0 115.5 29.5t44.5 81.5
q0 43 -31 63t-107 43q-46 13 -75.5 25t-59.5 32.5t-45 52.5t-15 75q0 100 77 157t200 57q129 0 185 -62.5t40 -162.5h-116z" />
    <glyph glyph-name="S_t.ss08" horiz-adv-x="946" 
d="M819 417l-53 -228q-11 -50 5.5 -74.5t63.5 -24.5h51l-21 -90h-58q-94 0 -134 50t-21 136l53 231h-188q18 88 -18.5 138.5t-117.5 50.5q-68 0 -117 -33t-49 -89q0 -23 8.5 -39.5t30.5 -29t42.5 -20.5t59.5 -20q42 -12 67.5 -22t58 -30t48.5 -52t16 -76q0 -94 -73 -149.5
t-189 -55.5q-124 0 -185 62.5t-46 162.5h119q-16 -124 115 -124q64 0 100 27.5t36 72.5q0 17 -6.5 30t-15.5 21.5t-31.5 18t-40 15.5t-54.5 17q-93 27 -138 69.5t-45 112.5q0 105 87 170t207 65q110 0 179.5 -57.5t68.5 -152.5h90l27 115l118 20l-31 -135h127l-19 -83h-127z
" />
    <glyph glyph-name="Sacute.ss03" horiz-adv-x="644" 
d="M487 924h147l-171 -147h-109zM515 485q9 64 -19.5 94t-94.5 30q-69 0 -108 -28.5t-39 -75.5q0 -41 31.5 -60.5t119.5 -47.5q42 -12 70.5 -25t56 -34.5t41.5 -53t14 -74.5q0 -72 -41.5 -123t-105.5 -74t-143 -23q-130 0 -203.5 65t-52.5 190h119q-19 -151 142 -151
q71 0 115.5 29.5t44.5 81.5q0 43 -31 63t-107 43q-46 13 -75.5 25t-59.5 32.5t-45 52.5t-15 75q0 100 77 157t200 57q129 0 185 -62.5t40 -162.5h-116z" />
    <glyph glyph-name="Scaron.ss03" horiz-adv-x="644" 
d="M523 915h107l-144 -143h-106l-77 143h99l43 -78zM515 485q9 64 -19.5 94t-94.5 30q-69 0 -108 -28.5t-39 -75.5q0 -41 31.5 -60.5t119.5 -47.5q42 -12 70.5 -25t56 -34.5t41.5 -53t14 -74.5q0 -72 -41.5 -123t-105.5 -74t-143 -23q-130 0 -203.5 65t-52.5 190h119
q-19 -151 142 -151q71 0 115.5 29.5t44.5 81.5q0 43 -31 63t-107 43q-46 13 -75.5 25t-59.5 32.5t-45 52.5t-15 75q0 100 77 157t200 57q129 0 185 -62.5t40 -162.5h-116z" />
    <glyph glyph-name="Scedilla.ss03" horiz-adv-x="644" 
d="M631 485h-116q9 64 -19.5 94t-94.5 30q-69 0 -108 -28.5t-39 -75.5q0 -41 31.5 -60.5t119.5 -47.5q42 -12 70.5 -25t56 -34.5t41.5 -53t14 -74.5q0 -102 -77 -158.5t-193 -61.5q41 -39 41 -89q0 -60 -45.5 -96t-131.5 -36h-52l16 69h40q47 0 71.5 20.5t24.5 53.5
q0 43 -49 83q-102 15 -155.5 78.5t-35.5 171.5h119q-19 -151 142 -151q71 0 115.5 29.5t44.5 81.5q0 43 -31 63t-107 43q-46 13 -75.5 25t-59.5 32.5t-45 52.5t-15 75q0 100 77 157t200 57q129 0 185 -62.5t40 -162.5z" />
    <glyph glyph-name="Scircumflex.ss03" horiz-adv-x="644" 
d="M596 769h-99l-43 79l-78 -79h-107l144 143h106zM515 485q9 64 -19.5 94t-94.5 30q-69 0 -108 -28.5t-39 -75.5q0 -41 31.5 -60.5t119.5 -47.5q42 -12 70.5 -25t56 -34.5t41.5 -53t14 -74.5q0 -72 -41.5 -123t-105.5 -74t-143 -23q-130 0 -203.5 65t-52.5 190h119
q-19 -151 142 -151q71 0 115.5 29.5t44.5 81.5q0 43 -31 63t-107 43q-46 13 -75.5 25t-59.5 32.5t-45 52.5t-15 75q0 100 77 157t200 57q129 0 185 -62.5t40 -162.5h-116z" />
    <glyph glyph-name="Scommaaccent.ss02" horiz-adv-x="644" 
d="M171 215q-16 -124 116 -124q63 0 99 27.5t36 72.5q0 17 -6.5 30t-15.5 21.5t-31 18t-39.5 15.5t-54.5 17q-94 27 -138.5 69t-44.5 114q0 106 85.5 170t209.5 64q126 0 200 -68t55 -187h-118q11 72 -23.5 111.5t-112.5 39.5q-73 0 -123 -33t-50 -89q0 -23 8.5 -39.5
t30.5 -29t42 -20.5t59 -20q42 -12 68 -22t58.5 -30.5t48.5 -53t16 -76.5q0 -94 -72.5 -148.5t-187.5 -54.5q-124 0 -186 62t-47 163h118zM247 -67q56 0 56 -69q0 -68 -48 -116.5t-134 -56.5l10 44q29 4 53.5 20t30.5 38q-27 1 -40.5 16t-13.5 39q0 34 25.5 59.5t60.5 25.5z
" />
    <glyph glyph-name="Scommaaccent.ss03" horiz-adv-x="644" 
d="M631 485h-116q9 64 -19.5 94t-94.5 30q-69 0 -108 -28.5t-39 -75.5q0 -41 31.5 -60.5t119.5 -47.5q42 -12 70.5 -25t56 -34.5t41.5 -53t14 -74.5q0 -72 -41.5 -123t-105.5 -74t-143 -23q-130 0 -203.5 65t-52.5 190h119q-19 -151 142 -151q71 0 115.5 29.5t44.5 81.5
q0 43 -31 63t-107 43q-46 13 -75.5 25t-59.5 32.5t-45 52.5t-15 75q0 100 77 157t200 57q129 0 185 -62.5t40 -162.5zM176 -183l27 116h126l-17 -74q-21 -88 -59.5 -122.5t-119.5 -40.5l12 50q40 2 59 20t27 51h-55z" />
    <glyph glyph-name="Scommaaccent.ss03.ss02" horiz-adv-x="644" 
d="M515 485q9 64 -19.5 94t-94.5 30q-69 0 -108 -28.5t-39 -75.5q0 -41 31.5 -60.5t119.5 -47.5q42 -12 70.5 -25t56 -34.5t41.5 -53t14 -74.5q0 -72 -41.5 -123t-105.5 -74t-143 -23q-130 0 -203.5 65t-52.5 190h119q-19 -151 142 -151q71 0 115.5 29.5t44.5 81.5
q0 43 -31 63t-107 43q-46 13 -75.5 25t-59.5 32.5t-45 52.5t-15 75q0 100 77 157t200 57q129 0 185 -62.5t40 -162.5h-116zM260 -67q56 0 56 -69q0 -68 -48 -116.5t-134 -56.5l10 44q29 4 53.5 20t30.5 38q-27 1 -40.5 16t-13.5 39q0 34 25.5 59.5t60.5 25.5z" />
    <glyph glyph-name="Udieresis.ss02" horiz-adv-x="727" 
d="M368 758q-26 0 -40.5 15t-14.5 40q0 33 25 57t61 24q25 0 39.5 -15.5t14.5 -39.5q0 -33 -24.5 -57t-60.5 -24zM595 758q-26 0 -40.5 15t-14.5 40q0 33 25 57t61 24q25 0 39.5 -15.5t14.5 -39.5q0 -33 -24.5 -57t-60.5 -24zM177 700h121l-92 -397q-48 -209 123 -209
q168 0 216 209l92 397h121l-97 -421q-31 -138 -118 -215t-230 -74q-143 2 -202.5 84t-23.5 238z" />
    <glyph glyph-name="Wdieresis.ss02" horiz-adv-x="1013" 
d="M511 758q-26 0 -40.5 15t-14.5 40q0 33 25 57t61 24q25 0 39.5 -15.5t14.5 -39.5q0 -33 -24.5 -57t-60.5 -24zM738 758q-26 0 -40.5 15t-14.5 40q0 33 25 57t61 24q25 0 39.5 -15.5t14.5 -39.5q0 -33 -24.5 -57t-60.5 -24zM959 700h129l-338 -700h-126l-37 578l-305 -578
h-135l-13 700h119l-4 -557l293 557h136l35 -542z" />
    <glyph glyph-name="Y.ss04" horiz-adv-x="681" 
d="M767 700l-355 -401l-69 -299h-121l69 300l-169 400h130l116 -284l247 284h152z" />
    <glyph glyph-name="Yacute.ss04" horiz-adv-x="681" 
d="M660 924l-171 -147h-109l133 147h147zM767 700l-355 -401l-69 -299h-121l69 300l-169 400h130l116 -284l247 284h152z" />
    <glyph glyph-name="Ycircumflex.ss04" horiz-adv-x="681" 
d="M480 848l-78 -79h-107l144 143h106l77 -143h-99zM767 700l-355 -401l-69 -299h-121l69 300l-169 400h130l116 -284l247 284h152z" />
    <glyph glyph-name="Ydieresis.ss02" horiz-adv-x="684" 
d="M348 758q-26 0 -40.5 15t-14.5 40q0 33 25 57t61 24q25 0 39.5 -15.5t14.5 -39.5q0 -33 -24.5 -57t-60.5 -24zM575 758q-26 0 -40.5 15t-14.5 40q0 33 25 57t61 24q25 0 39.5 -15.5t14.5 -39.5q0 -33 -24.5 -57t-60.5 -24zM616 700h146l-515 -700h-147l208 278l-185 422
h137l131 -314z" />
    <glyph glyph-name="Ydieresis.ss04" horiz-adv-x="681" 
d="M435 890l-26 -113h-119l27 113h118zM660 890l-26 -113h-118l26 113h118zM767 700l-355 -401l-69 -299h-121l69 300l-169 400h130l116 -284l247 284h152z" />
    <glyph glyph-name="Ydieresis.ss04.ss02" horiz-adv-x="681" 
d="M345 758q-26 0 -40.5 15t-14.5 40q0 33 25 57t61 24q25 0 39.5 -15.5t14.5 -39.5q0 -33 -24.5 -57t-60.5 -24zM572 758q-26 0 -40.5 15t-14.5 40q0 33 25 57t61 24q25 0 39.5 -15.5t14.5 -39.5q0 -33 -24.5 -57t-60.5 -24zM767 700l-355 -401l-69 -299h-121l69 300
l-169 400h130l116 -284l247 284h152z" />
    <glyph glyph-name="Ygrave.ss04" horiz-adv-x="681" 
d="M540 777h-99l-112 147h134zM767 700l-355 -401l-69 -299h-121l69 300l-169 400h130l116 -284l247 284h152z" />
    <glyph glyph-name="Zdotaccent.ss02" horiz-adv-x="648" 
d="M447 773q-29 0 -46 17.5t-17 44.5q0 38 28.5 65.5t69.5 27.5q29 0 45.5 -17.5t16.5 -44.5q0 -38 -28 -65.5t-69 -27.5zM681 700l-17 -75l-474 -520h368l-25 -105h-543l18 75l473 520h-335l24 105h511z" />
    <glyph glyph-name="_eightsuperior" horiz-adv-x="394" 
d="M265 165q56 -22 56 -77q0 -45 -38.5 -71.5t-95.5 -26.5t-95 26.5t-38 71.5q0 54 55 77q-72 27 -72 91q0 49 40.5 79t109.5 30t110 -30t41 -79q0 -64 -73 -91zM187 308q-37 0 -58.5 -16t-21.5 -41q0 -22 19.5 -37.5t36 -19.5t24.5 -4q9 0 25 4t35.5 19t19.5 38
q0 26 -21.5 41.5t-58.5 15.5zM123 93q0 -22 17.5 -35t46.5 -13q30 0 47.5 13t17.5 35q0 43 -65 54q-64 -11 -64 -54z" />
    <glyph glyph-name="a.ss09" horiz-adv-x="554" 
d="M336 509q93 0 142 -45.5t28 -136.5l-76 -327h-105l15 66q-71 -76 -176 -76q-68 0 -109 29t-41 92q0 34 13 61t34 44.5t55 31.5t68 22.5t81 16.5q89 15 111 27q25 15 31 40q7 31 -14.5 50t-65.5 19q-101 0 -132 -99h-108q21 82 82.5 133.5t166.5 51.5zM200 70q55 0 103 34
t69 98l10 45q-27 -14 -114 -33q-69 -14 -104 -33.5t-35 -57.5q0 -53 71 -53z" />
    <glyph glyph-name="aacute.ss09" horiz-adv-x="554" 
d="M530 699l-155 -134h-99l121 134h133zM336 509q93 0 142 -45.5t28 -136.5l-76 -327h-105l15 66q-71 -76 -176 -76q-68 0 -109 29t-41 92q0 34 13 61t34 44.5t55 31.5t68 22.5t81 16.5q89 15 111 27q25 15 31 40q7 31 -14.5 50t-65.5 19q-101 0 -132 -99h-108
q21 82 82.5 133.5t166.5 51.5zM200 70q55 0 103 34t69 98l10 45q-27 -14 -114 -33q-69 -14 -104 -33.5t-35 -57.5q0 -53 71 -53z" />
    <glyph glyph-name="abreve.ss09" horiz-adv-x="554" 
d="M351 560q-61 0 -93 39t-20 91h78q-4 -26 6.5 -43t38.5 -17q53 0 70 60h79q-13 -57 -55.5 -93.5t-103.5 -36.5zM336 509q93 0 142 -45.5t28 -136.5l-76 -327h-105l15 66q-71 -76 -176 -76q-68 0 -109 29t-41 92q0 34 13 61t34 44.5t55 31.5t68 22.5t81 16.5q89 15 111 27
q25 15 31 40q7 31 -14.5 50t-65.5 19q-101 0 -132 -99h-108q21 82 82.5 133.5t166.5 51.5zM200 70q55 0 103 34t69 98l10 45q-27 -14 -114 -33q-69 -14 -104 -33.5t-35 -57.5q0 -53 71 -53z" />
    <glyph glyph-name="acircumflex.ss09" horiz-adv-x="554" 
d="M367 634l-72 -72h-97l131 130h96l70 -130h-90zM336 509q93 0 142 -45.5t28 -136.5l-76 -327h-105l15 66q-71 -76 -176 -76q-68 0 -109 29t-41 92q0 34 13 61t34 44.5t55 31.5t68 22.5t81 16.5q89 15 111 27q25 15 31 40q7 31 -14.5 50t-65.5 19q-101 0 -132 -99h-108
q21 82 82.5 133.5t166.5 51.5zM200 70q55 0 103 34t69 98l10 45q-27 -14 -114 -33q-69 -14 -104 -33.5t-35 -57.5q0 -53 71 -53z" />
    <glyph glyph-name="adieresis.ss02" 
d="M250 563q-23 0 -36.5 14t-13.5 36q0 30 23 52t56 22q23 0 36 -14t13 -36q0 -30 -22.5 -52t-55.5 -22zM457 563q-23 0 -36.5 14t-13.5 36q0 30 23 52t56 22q23 0 36 -14t13 -36q0 -30 -22.5 -52t-55.5 -22zM471 500h110l-115 -500h-110l13 55q-25 -27 -67 -46t-93 -19
q-82 0 -130 52.5t-48 148.5q0 133 84.5 226t193.5 93q51 0 89 -22.5t56 -63.5zM244 77q57 0 100.5 39t61.5 102l7 29q4 21 4 49q0 122 -97 122q-77 0 -125.5 -69t-48.5 -155q0 -117 98 -117z" />
    <glyph glyph-name="adieresis.ss09" horiz-adv-x="554" 
d="M326 681l-24 -103h-108l25 103h107zM531 681l-24 -103h-108l25 103h107zM336 509q93 0 142 -45.5t28 -136.5l-76 -327h-105l15 66q-71 -76 -176 -76q-68 0 -109 29t-41 92q0 34 13 61t34 44.5t55 31.5t68 22.5t81 16.5q89 15 111 27q25 15 31 40q7 31 -14.5 50t-65.5 19
q-101 0 -132 -99h-108q21 82 82.5 133.5t166.5 51.5zM200 70q55 0 103 34t69 98l10 45q-27 -14 -114 -33q-69 -14 -104 -33.5t-35 -57.5q0 -53 71 -53z" />
    <glyph glyph-name="adieresis.ss09.ss02" horiz-adv-x="554" 
d="M243 563q-23 0 -36.5 14t-13.5 36q0 30 23 52t56 22q23 0 36 -14t13 -36q0 -30 -22.5 -52t-55.5 -22zM450 563q-23 0 -36.5 14t-13.5 36q0 30 23 52t56 22q23 0 36 -14t13 -36q0 -30 -22.5 -52t-55.5 -22zM336 509q93 0 142 -45.5t28 -136.5l-76 -327h-105l15 66
q-71 -76 -176 -76q-68 0 -109 29t-41 92q0 34 13 61t34 44.5t55 31.5t68 22.5t81 16.5q89 15 111 27q25 15 31 40q7 31 -14.5 50t-65.5 19q-101 0 -132 -99h-108q21 82 82.5 133.5t166.5 51.5zM200 70q55 0 103 34t69 98l10 45q-27 -14 -114 -33q-69 -14 -104 -33.5
t-35 -57.5q0 -53 71 -53z" />
    <glyph glyph-name="agrave.ss09" horiz-adv-x="554" 
d="M413 565h-90l-102 134h122zM336 509q93 0 142 -45.5t28 -136.5l-76 -327h-105l15 66q-71 -76 -176 -76q-68 0 -109 29t-41 92q0 34 13 61t34 44.5t55 31.5t68 22.5t81 16.5q89 15 111 27q25 15 31 40q7 31 -14.5 50t-65.5 19q-101 0 -132 -99h-108q21 82 82.5 133.5
t166.5 51.5zM200 70q55 0 103 34t69 98l10 45q-27 -14 -114 -33q-69 -14 -104 -33.5t-35 -57.5q0 -53 71 -53z" />
    <glyph glyph-name="amacron.ss09" horiz-adv-x="554" 
d="M512 658l-17 -77h-290l18 77h289zM336 509q93 0 142 -45.5t28 -136.5l-76 -327h-105l15 66q-71 -76 -176 -76q-68 0 -109 29t-41 92q0 34 13 61t34 44.5t55 31.5t68 22.5t81 16.5q89 15 111 27q25 15 31 40q7 31 -14.5 50t-65.5 19q-101 0 -132 -99h-108
q21 82 82.5 133.5t166.5 51.5zM200 70q55 0 103 34t69 98l10 45q-27 -14 -114 -33q-69 -14 -104 -33.5t-35 -57.5q0 -53 71 -53z" />
    <glyph glyph-name="aogonek.ss09" horiz-adv-x="554" 
d="M336 509q93 0 142 -45.5t28 -136.5l-76 -327q-95 -49 -95 -103q0 -43 61 -43h19l-15 -64h-28q-57 0 -85.5 26.5t-28.5 67.5t25 66t72 50h-30l15 66q-71 -76 -176 -76q-68 0 -109 29t-41 92q0 34 13 61t34 44.5t55 31.5t68 22.5t81 16.5q89 15 111 27q25 15 31 40
q7 31 -14.5 50t-65.5 19q-101 0 -132 -99h-108q21 82 82.5 133.5t166.5 51.5zM200 70q55 0 103 34t69 98l10 45q-27 -14 -114 -33q-69 -14 -104 -33.5t-35 -57.5q0 -53 71 -53z" />
    <glyph glyph-name="aring.ss09" horiz-adv-x="554" 
d="M350 542q-44 0 -68.5 26.5t-24.5 65.5q0 48 37 83t88 35q43 0 67 -26t24 -65q0 -49 -36.5 -84t-86.5 -35zM374 687q-19 0 -33.5 -15t-14.5 -33q0 -13 8.5 -22.5t22.5 -9.5q19 0 33 15t14 33q0 13 -8 22.5t-22 9.5zM336 509q93 0 142 -45.5t28 -136.5l-76 -327h-105l15 66
q-71 -76 -176 -76q-68 0 -109 29t-41 92q0 34 13 61t34 44.5t55 31.5t68 22.5t81 16.5q89 15 111 27q25 15 31 40q7 31 -14.5 50t-65.5 19q-101 0 -132 -99h-108q21 82 82.5 133.5t166.5 51.5zM200 70q55 0 103 34t69 98l10 45q-27 -14 -114 -33q-69 -14 -104 -33.5
t-35 -57.5q0 -53 71 -53z" />
    <glyph glyph-name="at.case" horiz-adv-x="982" 
d="M584 790q169 0 277 -99t108 -264q0 -134 -70 -230t-175 -96q-93 0 -120 73q-60 -73 -158 -73q-82 0 -127 52t-45 138q0 116 75.5 203t176.5 87q46 0 79.5 -21t48.5 -56l15 67h92l-64 -280q-27 -110 44 -110q61 0 98.5 75t37.5 166q0 127 -77.5 206t-210.5 79
q-111 0 -210 -54.5t-160.5 -154t-61.5 -218.5q0 -131 75 -209t212 -78q113 0 189 54l45 -61q-106 -76 -248 -76q-166 0 -267.5 100t-101.5 271q0 145 75 263.5t194 182t254 63.5zM469 180q71 0 110 62t39 145q0 114 -85 114q-70 0 -116.5 -65t-46.5 -141q0 -49 23.5 -82
t75.5 -33z" />
    <glyph glyph-name="atilde.ss09" horiz-adv-x="554" 
d="M293 607q-35 0 -55 -42h-64q38 121 133 121q39 0 68 -23t50 -23q36 0 55 42h66q-20 -59 -55 -90t-78 -31q-41 0 -71 23t-49 23zM336 509q93 0 142 -45.5t28 -136.5l-76 -327h-105l15 66q-71 -76 -176 -76q-68 0 -109 29t-41 92q0 34 13 61t34 44.5t55 31.5t68 22.5
t81 16.5q89 15 111 27q25 15 31 40q7 31 -14.5 50t-65.5 19q-101 0 -132 -99h-108q21 82 82.5 133.5t166.5 51.5zM200 70q55 0 103 34t69 98l10 45q-27 -14 -114 -33q-69 -14 -104 -33.5t-35 -57.5q0 -53 71 -53z" />
    <glyph glyph-name="braceleft.case" horiz-adv-x="360" 
d="M434 839h63l-20 -88h-38q-41 0 -67.5 -18.5t-38.5 -68.5l-39 -167q-29 -126 -137 -151q93 -41 65 -163l-33 -142q-12 -53 8.5 -72.5t67.5 -19.5h26l-20 -88h-39q-84 0 -123 48t-17 143l34 146q12 55 -6 79t-74 34l11 49l7 29q61 10 90.5 34t41.5 79l39 173q20 84 67 124
t132 40z" />
    <glyph glyph-name="braceright.case" horiz-adv-x="362" 
d="M362 389l-11 -49l-7 -29q-61 -10 -90.5 -34t-41.5 -79l-39 -173q-20 -84 -67 -124t-132 -40h-63l20 88h38q41 0 67.5 18.5t38.5 68.5l39 167q29 126 137 151q-93 41 -65 163l33 142q12 53 -8.5 72.5t-67.5 19.5h-26l20 88h39q84 0 123 -48t17 -143l-34 -146
q-12 -55 6 -79t74 -34z" />
    <glyph glyph-name="bracketleft.case" horiz-adv-x="324" 
d="M440 751h-148l-187 -802h150l-21 -88h-249l226 978h249z" />
    <glyph glyph-name="bracketright.case" horiz-adv-x="326" 
d="M386 839l-226 -978h-249l20 88h148l187 802h-150l21 88h249z" />
    <glyph glyph-name="bullet.case" horiz-adv-x="229" 
d="M64 310l29 123h128l-28 -123h-129z" />
    <glyph glyph-name="bullet.case.ss02" horiz-adv-x="246" 
d="M134 295q-27 0 -42.5 16.5t-15.5 41.5q0 35 26.5 60.5t64.5 25.5q26 0 41.5 -16.5t15.5 -41.5q0 -35 -26 -60.5t-64 -25.5z" />
    <glyph glyph-name="bullet.ss02" horiz-adv-x="246" 
d="M120 236q-27 0 -42.5 16.5t-15.5 41.5q0 35 26.5 60.5t64.5 25.5q26 0 41.5 -16.5t15.5 -41.5q0 -35 -26 -60.5t-64 -25.5z" />
    <glyph glyph-name="cdotaccent.ss02" horiz-adv-x="570" 
d="M351 567q-26 0 -41.5 16t-15.5 41q0 34 26 59t63 25q26 0 41 -15.5t15 -40.5q0 -35 -25.5 -60t-62.5 -25zM422 315q4 49 -21.5 77t-74.5 28q-78 0 -129.5 -64.5t-51.5 -148.5q0 -58 28.5 -92.5t81.5 -34.5q97 0 139 101h112q-69 -191 -254 -191q-104 0 -162 57t-58 154
q0 124 83 216t211 92q101 0 158 -55.5t46 -138.5h-108z" />
    <glyph glyph-name="cent.ss07" horiz-adv-x="542" 
d="M518 374h-101q2 61 -59 79l-66 -288q69 15 99 77h101q-27 -75 -85.5 -117t-134.5 -48l-18 -77h-85l19 83q-66 15 -103 64.5t-37 124.5q0 106 69.5 181.5t176.5 88.5l18 78h85l-18 -80q69 -11 107.5 -54t31.5 -112zM155 274q0 -79 53 -103l64 278q-51 -17 -84 -64
t-33 -111z" />
    <glyph glyph-name="colon.ss02" horiz-adv-x="245" 
d="M149 366q-27 0 -42.5 16.5t-15.5 41.5q0 35 26.5 60.5t64.5 25.5q26 0 41.5 -16.5t15.5 -41.5q0 -35 -26 -60.5t-64 -25.5zM62 -10q-27 0 -42.5 16.5t-15.5 41.5q0 35 26.5 60.5t64.5 25.5q26 0 41.5 -16.5t15.5 -41.5q0 -35 -26 -60.5t-64 -25.5z" />
    <glyph glyph-name="comma.ss02" horiz-adv-x="241" 
d="M85 134q28 0 43 -19t15 -52q0 -70 -49.5 -120t-137.5 -58l10 45q30 4 55 20.5t31 39.5q-28 1 -41.5 16.5t-13.5 40.5q0 35 26.5 61t61.5 26z" />
    <glyph glyph-name="dcaron.ss02" horiz-adv-x="589" 
d="M450 425l66 285h111l-164 -710h-111l14 62q-23 -28 -63.5 -50t-95.5 -22q-84 0 -130 55t-46 148q0 130 82.5 223.5t191.5 93.5q50 0 89 -24t56 -61zM753 696q27 0 41 -17.5t14 -46.5q0 -63 -47 -108t-131 -52l10 40q29 4 52 18.5t29 35.5q-52 1 -52 51q0 32 25 55.5
t59 23.5zM243 76q74 0 121.5 65.5t47.5 152.5q0 60 -25.5 92.5t-74.5 32.5q-75 0 -121 -69.5t-46 -153.5q0 -56 24.5 -88t73.5 -32z" />
    <glyph glyph-name="dieresis.ss02" horiz-adv-x="424" 
d="M213 563q-23 0 -36.5 14t-13.5 36q0 30 23 52t56 22q23 0 36 -14t13 -36q0 -30 -22.5 -52t-55.5 -22zM420 563q-23 0 -36.5 14t-13.5 36q0 30 23 52t56 22q23 0 36 -14t13 -36q0 -30 -22.5 -52t-55.5 -22z" />
    <glyph glyph-name="divide.ss02" horiz-adv-x="580" 
d="M325 356q-23 0 -36.5 14t-13.5 36q0 30 23 52t56 22q23 0 36 -14t13 -36q0 -30 -22.5 -52t-55.5 -22zM59 288h480l-21 -90h-479zM244 7q-23 0 -36.5 14t-13.5 36q0 30 23 52t56 22q23 0 36 -14t13 -36q0 -30 -22.5 -52t-55.5 -22z" />
    <glyph glyph-name="dollar.ss03" horiz-adv-x="578" 
d="M567 494h-105q13 83 -48 107l-50 -215q73 -33 111 -75.5t38 -108.5q0 -89 -67.5 -145.5t-172.5 -65.5l-21 -91h-94l22 94q-91 16 -130 75.5t-23 151.5h107q-16 -104 68 -131l52 226q-69 30 -105.5 67t-36.5 103q0 88 67 147t164 70l20 87h94l-21 -90q78 -15 111.5 -71.5
t19.5 -134.5zM229 501q0 -47 50 -76l41 178q-40 -10 -65.5 -37t-25.5 -65zM397 189q0 56 -58 89l-44 -193q45 9 73.5 35t28.5 69z" />
    <glyph glyph-name="dollar.ss07" horiz-adv-x="529" 
d="M522 431h-102q10 79 -50 103l-49 -210q56 -27 88 -62t32 -94q0 -76 -55 -123.5t-142 -54.5l-17 -72h-85l18 77q-70 14 -98.5 63.5t-17.5 117.5h101q-9 -65 37 -87l39 171q-1 0 -5 2q-134 65 -134 175q0 82 63.5 134t160.5 57l17 72h85l-18 -77q75 -14 110 -64.5
t22 -127.5zM193 439q0 -47 52 -77l41 176q-41 -9 -67 -35t-26 -64zM330 164q0 37 -33 58l-31 -137q30 8 47 29t17 50z" />
    <glyph glyph-name="dollar.ss07.ss03" horiz-adv-x="519" 
d="M499 443h-100q9 66 -34 87l-44 -188q61 -25 94.5 -60t33.5 -99q0 -83 -58.5 -134t-150.5 -59l-17 -72h-85l17 75q-78 13 -113.5 65t-21.5 130h102q-10 -82 54 -104l44 188q-59 25 -91.5 58.5t-32.5 95.5q0 81 58.5 137t147.5 65l17 72h85l-18 -77q68 -14 97 -64t16 -116z
M208 440q0 -41 36 -64l36 157q-32 -10 -52 -34t-20 -59zM338 169q0 45 -41 69l-36 -157q77 15 77 88z" />
    <glyph glyph-name="dotaccent.ss02" horiz-adv-x="425" 
d="M290 567q-26 0 -41.5 16t-15.5 41q0 34 26 59t63 25q26 0 41 -15.5t15 -40.5q0 -35 -25.5 -60t-62.5 -25z" />
    <glyph glyph-name="edieresis.ss02" horiz-adv-x="568" 
d="M233 563q-23 0 -36.5 14t-13.5 36q0 30 23 52t56 22q23 0 36 -14t13 -36q0 -30 -22.5 -52t-55.5 -22zM440 563q-23 0 -36.5 14t-13.5 36q0 30 23 52t56 22q23 0 36 -14t13 -36q0 -30 -22.5 -52t-55.5 -22zM323 509q112 0 162 -72t29 -194q-3 -18 -4 -20h-364
q-1 -7 -1 -20q0 -126 115 -126q91 0 130 87h109q-65 -174 -244 -174q-109 0 -165.5 59t-56.5 156q0 121 80 212.5t210 91.5zM161 296h252q15 129 -92 129q-57 0 -98.5 -36t-61.5 -93z" />
    <glyph glyph-name="edotaccent.ss02" horiz-adv-x="568" 
d="M340 567q-26 0 -41.5 16t-15.5 41q0 34 26 59t63 25q26 0 41 -15.5t15 -40.5q0 -35 -25.5 -60t-62.5 -25zM323 509q112 0 162 -72t29 -194q-3 -18 -4 -20h-364q-1 -7 -1 -20q0 -126 115 -126q91 0 130 87h109q-65 -174 -244 -174q-109 0 -165.5 59t-56.5 156
q0 121 80 212.5t210 91.5zM161 296h252q15 129 -92 129q-57 0 -98.5 -36t-61.5 -93z" />
    <glyph glyph-name="eight.dnom" horiz-adv-x="371" 
d="M241 164q44 -19 44 -69q0 -48 -44 -76.5t-105 -28.5q-54 0 -89 23.5t-35 64.5q0 57 77 89q-55 22 -55 77q0 54 46 87.5t121 33.5q64 0 101.5 -25.5t37.5 -69.5q0 -38 -28 -65.5t-71 -40.5zM199 308q-41 0 -67.5 -19t-26.5 -46q0 -20 16.5 -33t28 -16t21.5 -4q9 0 29 4.5
t43.5 21.5t23.5 43q0 23 -17.5 36t-50.5 13zM83 85q0 -40 56 -40q34 0 55.5 16t21.5 40q0 34 -54 46q-15 -2 -31 -7.5t-32 -20t-16 -34.5z" />
    <glyph glyph-name="eight.dnom.ss03" horiz-adv-x="371" 
d="M250 190q54 -22 54 -76q0 -55 -46.5 -89.5t-122.5 -34.5q-62 0 -99.5 25t-37.5 68q0 76 96 107q-41 19 -41 62q0 51 43.5 82t105.5 31q53 0 88.5 -24t35.5 -63q0 -59 -76 -88zM199 310q-34 0 -55.5 -16t-21.5 -40q0 -16 13 -27.5t23 -14.5t18 -4q7 1 16 3.5t25 9
t26.5 19.5t10.5 30q0 40 -55 40zM139 47q41 0 67.5 19t26.5 47q0 19 -16 32t-30 16.5t-21 3.5q-9 0 -29 -5t-43.5 -22t-23.5 -43q0 -22 18 -35t51 -13z" />
    <glyph glyph-name="eight.numr" horiz-adv-x="371" 
d="M320 504q44 -19 44 -69q0 -48 -44 -76.5t-105 -28.5q-54 0 -89 23.5t-35 64.5q0 57 77 89q-55 22 -55 77q0 54 46 87.5t121 33.5q64 0 101.5 -25.5t37.5 -69.5q0 -38 -28 -65.5t-71 -40.5zM278 648q-41 0 -67.5 -19t-26.5 -46q0 -20 16.5 -33t28 -16t21.5 -4q9 0 29 4.5
t43.5 21.5t23.5 43q0 23 -17.5 36t-50.5 13zM162 425q0 -40 56 -40q34 0 55.5 16t21.5 40q0 34 -54 46q-15 -2 -31 -7.5t-32 -20t-16 -34.5z" />
    <glyph glyph-name="eight.numr.ss03" horiz-adv-x="371" 
d="M329 530q54 -22 54 -76q0 -55 -46.5 -89.5t-122.5 -34.5q-62 0 -99.5 25t-37.5 68q0 76 96 107q-41 19 -41 62q0 51 43.5 82t105.5 31q53 0 88.5 -24t35.5 -63q0 -59 -76 -88zM278 650q-34 0 -55.5 -16t-21.5 -40q0 -16 13 -27.5t23 -14.5t18 -4q7 1 16 3.5t25 9
t26.5 19.5t10.5 30q0 40 -55 40zM218 387q41 0 67.5 19t26.5 47q0 19 -16 32t-30 16.5t-21 3.5q-9 0 -29 -5t-43.5 -22t-23.5 -43q0 -22 18 -35t51 -13z" />
    <glyph glyph-name="eight.ss03" horiz-adv-x="647" 
d="M625 536q0 -124 -156 -171q110 -51 110 -157q0 -92 -82 -155t-213 -63q-113 0 -177.5 49t-64.5 134q0 82 55 131.5t137 71.5q-87 45 -87 133q0 85 78.5 141t185.5 56q94 0 154 -46t60 -124zM359 405q6 1 16 3t36 11.5t45.5 22t35.5 36.5t16 53q0 40 -26 62t-75 22
q-63 0 -104.5 -34t-41.5 -83q0 -36 24.5 -59t48.5 -29zM287 83q76 0 126 41.5t50 97.5q0 42 -30.5 69t-60.5 33l-30 6q-7 -1 -19.5 -3t-43.5 -12.5t-54.5 -24.5t-43 -42.5t-19.5 -63.5q0 -47 32 -74t93 -27z" />
    <glyph glyph-name="eight.ss07" horiz-adv-x="612" 
d="M604 462q0 -71 -50 -114t-124 -62q80 -41 80 -121q0 -79 -73 -127t-176 -48q-90 0 -146.5 38t-56.5 108q0 109 137 155q-98 41 -98 134q0 87 79 146t201 59q106 0 166.5 -46t60.5 -122zM324 327q7 1 18 2.5t40 10.5t51 21.5t40 36.5t18 55q0 41 -30.5 64.5t-88.5 23.5
q-72 0 -118 -35t-46 -84q0 -37 29 -60.5t58 -29.5zM266 76q59 0 97.5 28.5t38.5 70.5q0 32 -23.5 53t-46.5 26l-24 5l-15 -2.5t-33 -9.5t-42.5 -19t-33.5 -32t-15 -47q0 -35 25 -54t72 -19z" />
    <glyph glyph-name="eight.ss07.ss03" horiz-adv-x="612" 
d="M442 325q100 -43 100 -138q0 -85 -77 -141t-199 -56q-109 0 -170.5 44.5t-61.5 120.5q0 70 50.5 114t124.5 64q-80 40 -80 118t73.5 128.5t174.5 50.5q90 0 147 -41.5t57 -110.5q0 -107 -139 -153zM373 544q-59 0 -97.5 -29t-38.5 -71q0 -20 10 -36t23.5 -24.5t27.5 -14
t24 -7.5l10 -1l15 2.5t33 9.5t42 19t33 32t15 46q0 35 -25 54.5t-72 19.5zM267 78q72 0 118.5 35t46.5 84q0 38 -29 61.5t-58 28.5l-29 5q-7 -1 -18 -2.5t-40 -10.5t-51.5 -21.5t-40.5 -36.5t-18 -55q0 -41 30.5 -64.5t88.5 -23.5z" />
    <glyph glyph-name="eight.tf" horiz-adv-x="655" 
d="M653 520q0 -81 -53 -129.5t-134 -70.5q83 -43 83 -131q0 -89 -79 -144t-185 -55q-93 0 -153.5 44.5t-60.5 122.5q0 118 148 170q-103 44 -103 149q0 99 84 164.5t214 65.5q111 0 175 -49.5t64 -136.5zM354 367q7 1 19.5 3.5t43.5 13t54.5 25.5t43 43t19.5 63q0 46 -32 73
t-91 27q-77 0 -127 -41.5t-50 -96.5q0 -41 30 -68.5t60 -34.5zM289 81q63 0 104.5 34t41.5 82q0 35 -24.5 58.5t-48.5 29.5l-25 6q-6 -1 -16 -3t-36 -11.5t-45.5 -22.5t-35.5 -37t-16 -53q0 -39 26.5 -61t74.5 -22z" />
    <glyph glyph-name="eight.tf.ss03" horiz-adv-x="655" 
d="M629 536q0 -124 -156 -171q110 -51 110 -157q0 -92 -82 -155t-213 -63q-113 0 -177.5 49t-64.5 134q0 82 55 131.5t137 71.5q-87 45 -87 133q0 85 78.5 141t185.5 56q94 0 154 -46t60 -124zM363 405q6 1 16 3t36 11.5t45.5 22t35.5 36.5t16 53q0 40 -26 62t-75 22
q-63 0 -104.5 -34t-41.5 -83q0 -36 24.5 -59t48.5 -29zM291 83q76 0 126 41.5t50 97.5q0 42 -30.5 69t-60.5 33l-30 6q-7 -1 -19.5 -3t-43.5 -12.5t-54.5 -24.5t-43 -42.5t-19.5 -63.5q0 -47 32 -74t93 -27z" />
    <glyph glyph-name="eight.tf.ss07" horiz-adv-x="609" 
d="M603 462q0 -71 -50 -114t-124 -62q80 -41 80 -121q0 -79 -73 -127t-176 -48q-90 0 -146.5 38t-56.5 108q0 109 137 155q-98 41 -98 134q0 87 79 146t201 59q106 0 166.5 -46t60.5 -122zM323 327q7 1 18 2.5t40 10.5t51 21.5t40 36.5t18 55q0 41 -30.5 64.5t-88.5 23.5
q-72 0 -118 -35t-46 -84q0 -37 29 -60.5t58 -29.5zM265 76q59 0 97.5 28.5t38.5 70.5q0 32 -23.5 53t-47.5 26l-23 5l-15 -2.5t-33 -9.5t-42.5 -19t-33.5 -32t-15 -47q0 -35 25 -54t72 -19z" />
    <glyph glyph-name="eight.tf.ss07.ss03" horiz-adv-x="609" 
d="M441 325q100 -43 100 -138q0 -85 -77 -141t-199 -56q-109 0 -170.5 44.5t-61.5 120.5q0 70 50.5 114t124.5 64q-80 40 -80 118t73.5 128.5t174.5 50.5q90 0 147 -41.5t57 -110.5q0 -107 -139 -153zM372 544q-59 0 -97.5 -29t-38.5 -71q0 -32 24 -53t48 -25l23 -5l15 2.5
t33 9.5t42 19t33 32t15 46q0 35 -25 54.5t-72 19.5zM266 78q72 0 118.5 35t46.5 84q0 38 -29 61.5t-58 28.5l-29 5q-7 -1 -18 -2.5t-40 -10.5t-51.5 -21.5t-40.5 -36.5t-18 -55q0 -41 30.5 -64.5t88.5 -23.5z" />
    <glyph glyph-name="ellipsis.ss02" horiz-adv-x="747" 
d="M62 -10q-27 0 -42.5 16.5t-15.5 41.5q0 35 26.5 60.5t64.5 25.5q26 0 41.5 -16.5t15.5 -41.5q0 -35 -26 -60.5t-64 -25.5zM314 -10q-27 0 -42.5 16.5t-15.5 41.5q0 35 26.5 60.5t64.5 25.5q26 0 41.5 -16.5t15.5 -41.5q0 -35 -26 -60.5t-64 -25.5zM565 -10
q-27 0 -42.5 16.5t-15.5 41.5q0 35 26.5 60.5t64.5 25.5q26 0 41.5 -16.5t15.5 -41.5q0 -35 -26 -60.5t-64 -25.5z" />
    <glyph glyph-name="emdash.case" horiz-adv-x="1104" 
d="M86 406h1004l-21 -90h-1003z" />
    <glyph glyph-name="endash.case" horiz-adv-x="728" 
d="M86 406h628l-21 -90h-627z" />
    <glyph glyph-name="exclam.ss02" horiz-adv-x="244" 
d="M165 700h121l-132 -491h-84zM62 -10q-27 0 -42.5 16.5t-15.5 41.5q0 35 26.5 60.5t64.5 25.5q26 0 41.5 -16.5t15.5 -41.5q0 -35 -26 -60.5t-64 -25.5z" />
    <glyph glyph-name="exclamdown.case" horiz-adv-x="228" 
d="M282 700l-29 -123h-128l28 123h129zM116 0h-121l132 491h84z" />
    <glyph glyph-name="exclamdown.case.ss02" horiz-adv-x="244" 
d="M196 566q-27 0 -42.5 16.5t-15.5 41.5q0 35 26.5 60.5t64.5 25.5q26 0 41.5 -16.5t15.5 -41.5q0 -35 -26 -60.5t-64 -25.5zM4 0l132 491h84l-95 -491h-121z" />
    <glyph glyph-name="exclamdown.ss02" horiz-adv-x="245" 
d="M145 346q-27 0 -42.5 16.5t-15.5 41.5q0 35 26.5 60.5t64.5 25.5q26 0 41.5 -16.5t15.5 -41.5q0 -35 -26 -60.5t-64 -25.5zM-47 -220l132 491h84l-95 -491h-121z" />
    <glyph glyph-name="f_f_i.liga.ss02" horiz-adv-x="1009" 
d="M982 708q26 0 41 -15.5t15 -40.5q0 -35 -25.5 -60t-62.5 -25q-26 0 -41.5 16t-15.5 41q0 34 26 59t63 25zM987 500l-115 -500h-113l96 417h-237l-96 -417h-113l96 417h-233l-96 -417h-113l96 417h-91l18 83h92l10 43q18 77 67 117t124 40h115l-21 -89h-74q-83 0 -101 -83
l-6 -28h232l10 43q18 77 67 117t124 40h115l-21 -89h-74q-83 0 -101 -83l-6 -28h349z" />
    <glyph glyph-name="f_f_j.liga.ss02" horiz-adv-x="1010" 
d="M983 708q26 0 41 -15.5t15 -40.5q0 -35 -25.5 -60t-62.5 -25q-26 0 -41.5 16t-15.5 41q0 34 26 59t63 25zM988 500l-107 -464h1l-25 -105q-34 -151 -200 -151h-113l22 91h70q94 0 116 94l16 71l88 381h-238l-96 -417h-113l96 417h-233l-96 -417h-113l96 417h-91l18 83h92
l10 43q18 77 67 117t124 40h115l-21 -89h-74q-83 0 -101 -83l-6 -28h232l10 43q18 77 67 117t124 40h115l-21 -89h-74q-83 0 -101 -83l-6 -28h350z" />
    <glyph glyph-name="f_i.liga.ss02" horiz-adv-x="664" 
d="M637 708q26 0 41 -15.5t15 -40.5q0 -35 -25.5 -60t-62.5 -25q-26 0 -41.5 16t-15.5 41q0 34 26 59t63 25zM642 500l-115 -500h-113l96 417h-238l-96 -417h-113l96 417h-91l18 83h92l10 43q18 77 67 117t124 40h115l-21 -89h-74q-83 0 -101 -83l-6 -28h350z" />
    <glyph glyph-name="f_j.liga.ss02" horiz-adv-x="654" 
d="M638 708q26 0 41 -15.5t15 -40.5q0 -35 -25.5 -60t-62.5 -25q-26 0 -41.5 16t-15.5 41q0 34 26 59t63 25zM643 500l-107 -464h1l-25 -105q-34 -151 -200 -151h-113l22 91h70q94 0 116 94l16 71l88 381h-239l-96 -417h-113l96 417h-91l18 83h92l10 43q18 77 67 117t124 40
h115l-21 -89h-74q-83 0 -101 -83l-6 -28h351z" />
    <glyph glyph-name="five.dnom" horiz-adv-x="354" 
d="M183 235q50 0 78.5 -29t28.5 -79q0 -62 -43.5 -99.5t-112.5 -37.5t-103 36.5t-26 87.5h68q-2 -29 13 -47t50 -18q39 0 63 22t24 55q0 56 -63 56q-48 0 -77 -29l-49 23l71 184h217l-14 -61h-157l-34 -82q31 18 66 18z" />
    <glyph glyph-name="five.numr" horiz-adv-x="354" 
d="M262 575q50 0 78.5 -29t28.5 -79q0 -62 -43.5 -99.5t-112.5 -37.5t-103 36.5t-26 87.5h68q-2 -29 13 -47t50 -18q39 0 63 22t24 55q0 56 -63 56q-48 0 -77 -29l-49 23l71 184h217l-14 -61h-157l-34 -82q31 18 66 18z" />
    <glyph glyph-name="five.ss07" horiz-adv-x="571" 
d="M540 527h-258l-61 -151q45 27 103 27q85 0 133 -49t48 -131q0 -104 -74.5 -168.5t-186.5 -64.5q-109 0 -161.5 60.5t-40.5 147.5h104q-4 -51 20 -84.5t85 -33.5q66 0 109 39.5t43 100.5q0 48 -28 74t-81 26q-80 0 -128 -48l-74 37l118 311h352z" />
    <glyph glyph-name="five.tf" horiz-adv-x="655" 
d="M615 601h-288l-69 -177q48 30 111 30q93 0 148.5 -56t55.5 -148q0 -112 -81.5 -186t-205.5 -74q-119 0 -178.5 67.5t-44.5 164.5h111q-6 -58 23 -97t96 -39q74 0 122 46.5t48 116.5q0 55 -32.5 85t-92.5 30q-23 0 -44.5 -4.5t-37.5 -12t-26.5 -14t-20.5 -14.5t-11 -9
l-79 39l133 351h386z" />
    <glyph glyph-name="five.tf.ss07" horiz-adv-x="609" 
d="M558 527h-258l-61 -151q45 27 103 27q85 0 133 -49t48 -131q0 -104 -74.5 -168.5t-186.5 -64.5q-109 0 -161.5 60.5t-40.5 147.5h104q-4 -51 20 -84.5t85 -33.5q66 0 109 39.5t43 100.5q0 48 -28 74t-81 26q-80 0 -128 -48l-74 37l118 311h352z" />
    <glyph glyph-name="fiveeighths.ss03" horiz-adv-x="865" 
d="M31 0l748 700h94l-748 -700h-94zM262 575q50 0 78.5 -29t28.5 -79q0 -62 -43.5 -99.5t-112.5 -37.5t-103 36.5t-26 87.5h68q-2 -29 13 -47t50 -18q39 0 63 22t24 55q0 56 -63 56q-48 0 -77 -29l-49 23l71 184h217l-14 -61h-157l-34 -82q31 18 66 18zM744 190
q54 -22 54 -76q0 -55 -46.5 -89.5t-122.5 -34.5q-62 0 -99.5 25t-37.5 68q0 76 96 107q-41 19 -41 62q0 51 43.5 82t105.5 31q53 0 88.5 -24t35.5 -63q0 -59 -76 -88zM693 310q-34 0 -55.5 -16t-21.5 -40q0 -16 13 -27.5t23 -14.5t18 -4q7 1 16 3.5t25 9t26.5 19.5t10.5 30
q0 40 -55 40zM633 47q41 0 67.5 19t26.5 47q0 19 -16 32t-30 16.5t-21 3.5q-9 0 -29 -5t-43.5 -22t-23.5 -43q0 -22 18 -35t51 -13z" />
    <glyph glyph-name="florin.ss07" horiz-adv-x="573" 
d="M515 620h97l-19 -86h-64q-49 0 -74.5 -23.5t-48.5 -76.5l-34 -78h138l-17 -73h-154l-63 -144q-61 -139 -202 -139h-87l20 86h63q50 0 75 23.5t48 76.5l42 97h-124l17 73h139l53 122q61 142 195 142z" />
    <glyph glyph-name="four.dnom" horiz-adv-x="349" 
d="M297 129l-13 -57h-58l-16 -72h-68l17 72h-176l9 42l215 246h86l-53 -231h57zM75 129h97l36 156z" />
    <glyph glyph-name="four.numr" horiz-adv-x="349" 
d="M376 469l-13 -57h-58l-16 -72h-68l17 72h-176l9 42l215 246h86l-53 -231h57zM154 469h97l36 156z" />
    <glyph glyph-name="four.ss07" horiz-adv-x="591" 
d="M546 213l-21 -88h-99l-29 -125h-103l29 125h-305l15 66l372 429h135l-94 -407h100zM163 213h180l67 290z" />
    <glyph glyph-name="four.tf" horiz-adv-x="655" 
d="M601 236l-22 -94h-110l-33 -142h-109l33 142h-336l17 71l413 487h144l-107 -464h110zM176 236h206l78 340z" />
    <glyph glyph-name="four.tf.ss07" horiz-adv-x="609" 
d="M551 213l-21 -88h-99l-29 -125h-103l29 125h-305l15 66l372 429h135l-94 -407h100zM168 213h180l67 290z" />
    <glyph glyph-name="gcommaaccent.ss02" horiz-adv-x="588" 
d="M357 548q-28 0 -43 19t-15 52q0 70 49.5 120t137.5 58l-10 -45q-30 -4 -55 -20.5t-31 -39.5q28 -1 41.5 -16.5t13.5 -40.5q0 -35 -26.5 -61t-61.5 -26zM467 500h109l-102 -444l-14 -64q-26 -114 -92 -168t-178 -54q-122 0 -168 54t-34 132h105q-6 -43 16.5 -71t84.5 -28
q69 0 105.5 37t53.5 108l12 54l1 3q-63 -69 -160 -69q-82 0 -129 53t-47 147q0 132 84 226t194 94q50 0 89 -22.5t53 -63.5zM243 76q75 0 122 64.5t47 157.5q0 121 -95 121q-76 0 -124.5 -68.5t-48.5 -155.5q0 -119 99 -119z" />
    <glyph glyph-name="gdotaccent.ss02" horiz-adv-x="588" 
d="M349 567q-26 0 -41.5 16t-15.5 41q0 34 26 59t63 25q26 0 41 -15.5t15 -40.5q0 -35 -25.5 -60t-62.5 -25zM467 500h109l-102 -444l-14 -64q-26 -114 -92 -168t-178 -54q-122 0 -168 54t-34 132h105q-6 -43 16.5 -71t84.5 -28q69 0 105.5 37t53.5 108l12 54l1 3
q-63 -69 -160 -69q-82 0 -129 53t-47 147q0 132 84 226t194 94q50 0 89 -22.5t53 -63.5zM243 76q75 0 122 64.5t47 157.5q0 121 -95 121q-76 0 -124.5 -68.5t-48.5 -155.5q0 -119 99 -119z" />
    <glyph glyph-name="guillemotleft.case" horiz-adv-x="633" 
d="M410 555l-216 -204l111 -186h-122l-112 199l202 191h137zM653 555l-216 -204l111 -186h-122l-112 199l202 191h137z" />
    <glyph glyph-name="guillemotright.case" horiz-adv-x="633" 
d="M255 555l112 -199l-202 -191h-137l216 204l-111 186h122zM498 555l112 -199l-202 -191h-137l216 204l-111 186h122z" />
    <glyph glyph-name="guilsinglleft.case" horiz-adv-x="390" 
d="M410 555l-216 -204l111 -186h-122l-112 199l202 191h137z" />
    <glyph glyph-name="guilsinglright.case" horiz-adv-x="390" 
d="M255 555l112 -199l-202 -191h-137l216 204l-111 186h122z" />
    <glyph glyph-name="hyphen.case" horiz-adv-x="519" 
d="M86 406h418l-20 -90h-418z" />
    <glyph glyph-name="i.loclTRK" horiz-adv-x="250" 
d="M141 579l25 108h123l-25 -108h-123zM124 0h-113l115 500h113z" />
    <glyph glyph-name="i.loclTRK.ss02" horiz-adv-x="250" 
d="M202 567q-26 0 -41.5 16t-15.5 41q0 34 26 59t63 25q26 0 41 -15.5t15 -40.5q0 -35 -25.5 -60t-62.5 -25zM124 0h-113l115 500h113z" />
    <glyph glyph-name="i.ss02" horiz-adv-x="250" 
d="M202 567q-26 0 -41.5 16t-15.5 41q0 34 26 59t63 25q26 0 41 -15.5t15 -40.5q0 -35 -25.5 -60t-62.5 -25zM124 0h-113l115 500h113z" />
    <glyph glyph-name="idieresis.ss02" horiz-adv-x="250" 
d="M95 563q-23 0 -36.5 14t-13.5 36q0 30 23 52t56 22q23 0 36 -14t13 -36q0 -30 -22.5 -52t-55.5 -22zM302 563q-23 0 -36.5 14t-13.5 36q0 30 23 52t56 22q23 0 36 -14t13 -36q0 -30 -22.5 -52t-55.5 -22zM124 0h-113l115 500h113z" />
    <glyph glyph-name="ij.ss02" horiz-adv-x="499" 
d="M202 567q-26 0 -41.5 16t-15.5 41q0 34 26 59t63 25q26 0 41 -15.5t15 -40.5q0 -35 -25.5 -60t-62.5 -25zM483 708q26 0 41 -15.5t15 -40.5q0 -35 -25.5 -60t-62.5 -25q-26 0 -41.5 16t-15.5 41q0 34 26 59t63 25zM239 500l-115 -500h-113l115 500h113zM375 500h113
l-107 -464h1l-25 -105q-34 -151 -200 -151h-113l22 91h70q94 0 116 94l16 71z" />
    <glyph glyph-name="iogonek.ss02" horiz-adv-x="250" 
d="M234 708q26 0 41 -15.5t15 -40.5q0 -35 -25.5 -60t-62.5 -25q-26 0 -41.5 16t-15.5 41q0 34 26 59t63 25zM11 0l115 500h113l-115 -500q-95 -49 -95 -103q0 -43 61 -43h19l-15 -64h-28q-57 0 -85.5 26.5t-28.5 67.5t25 66t72 50h-38z" />
    <glyph glyph-name="j.ss02" horiz-adv-x="250" 
d="M234 708q26 0 41 -15.5t15 -40.5q0 -35 -25.5 -60t-62.5 -25q-26 0 -41.5 16t-15.5 41q0 34 26 59t63 25zM126 500h113l-107 -464h1l-25 -105q-34 -151 -200 -151h-113l22 91h70q94 0 116 94l16 71z" />
    <glyph glyph-name="kcommaaccent.ss02" horiz-adv-x="527" 
d="M561 500l-255 -219l152 -281h-117l-115 213l-75 -64l-34 -149h-107l164 710h107l-95 -413l236 203h139zM205 -56q26 0 39.5 -17.5t13.5 -46.5q0 -63 -45 -108t-124 -52l9 40q28 4 50 18.5t28 35.5q-25 1 -37.5 15t-12.5 36q0 32 23.5 55.5t55.5 23.5z" />
    <glyph glyph-name="lcaron.ss02" horiz-adv-x="250" 
d="M124 0h-114l164 710h114zM416 706q27 0 41 -17.5t14 -46.5q0 -63 -47 -108t-131 -52l10 40q29 4 52 18.5t29 35.5q-52 1 -52 51q0 32 25 55.5t59 23.5z" />
    <glyph glyph-name="lcommaaccent.ss02" horiz-adv-x="250" 
d="M124 0h-114l164 710h114zM51 -56q26 0 39.5 -17.5t13.5 -46.5q0 -63 -45 -108t-124 -52l9 40q28 4 50 18.5t28 35.5q-25 1 -37.5 15t-12.5 36q0 32 23.5 55.5t55.5 23.5z" />
    <glyph glyph-name="ncommaaccent.ss02" horiz-adv-x="593" 
d="M418 510q77 0 110.5 -53t10.5 -155l-70 -302h-113l63 271q18 76 5.5 111t-61.5 35q-61 0 -118 -67.5t-87 -197.5l1 3l-36 -155h-112l115 500h112l-30 -131q86 141 210 141zM229 -56q26 0 39.5 -17.5t13.5 -46.5q0 -63 -45 -108t-124 -52l9 40q28 4 50 18.5t28 35.5
q-25 1 -37.5 15t-12.5 36q0 32 23.5 55.5t55.5 23.5z" />
    <glyph glyph-name="nine.dnom" horiz-adv-x="360" 
d="M146 121q-47 0 -79 29t-32 78q0 59 45 98t108 39q126 0 126 -139q0 -101 -52.5 -168.5t-137.5 -67.5q-60 0 -93.5 33t-27.5 81h64q-3 -24 11 -40.5t45 -16.5q45 0 75.5 33.5t44.5 86.5q-40 -46 -97 -46zM190 308q-32 0 -59 -22t-27 -58q0 -26 15.5 -40t39.5 -14
q33 0 60 22.5t27 57.5q0 27 -16 40.5t-40 13.5z" />
    <glyph glyph-name="nine.numr" horiz-adv-x="360" 
d="M225 461q-47 0 -79 29t-32 78q0 59 45 98t108 39q126 0 126 -139q0 -101 -52.5 -168.5t-137.5 -67.5q-60 0 -93.5 33t-27.5 81h64q-3 -24 11 -40.5t45 -16.5q45 0 75.5 33.5t44.5 86.5q-40 -46 -97 -46zM269 648q-32 0 -59 -22t-27 -58q0 -26 15.5 -40t39.5 -14
q33 0 60 22.5t27 57.5q0 27 -16 40.5t-40 13.5z" />
    <glyph glyph-name="nine.ss07" horiz-adv-x="588" 
d="M353 630q119 0 170.5 -88t15.5 -243q-37 -158 -117 -233.5t-187 -75.5q-100 0 -152 55.5t-42 137.5h97q-3 -42 20 -73t78 -31q74 0 124.5 58t74.5 149q-61 -72 -157 -72q-80 0 -131 49t-51 131q0 101 75 168.5t182 67.5zM296 297q57 0 104 41.5t47 105.5q0 48 -27 73.5
t-70 25.5q-57 0 -103 -41.5t-46 -106.5q0 -48 27 -73t68 -25z" />
    <glyph glyph-name="nine.tf" horiz-adv-x="655" 
d="M404 710q131 0 185.5 -98.5t13.5 -273.5q-41 -177 -127 -262.5t-206 -85.5q-112 0 -168.5 63t-46.5 153h104q-3 -48 22 -84.5t88 -36.5q84 0 141.5 68t84.5 174q-68 -83 -179 -83q-92 0 -146 56.5t-54 142.5q0 111 84 189t204 78zM336 332q64 0 117.5 48.5t53.5 123.5
q0 55 -30 84t-77 29q-64 0 -118 -48.5t-54 -123.5q0 -54 30.5 -83.5t77.5 -29.5z" />
    <glyph glyph-name="nine.tf.ss07" horiz-adv-x="609" 
d="M363 630q119 0 170.5 -88t15.5 -243q-37 -158 -117 -233.5t-187 -75.5q-100 0 -152 55.5t-42 137.5h97q-3 -42 20 -73t78 -31q74 0 124.5 58t74.5 149q-61 -72 -157 -72q-80 0 -131 49t-51 131q0 101 75 168.5t182 67.5zM306 297q57 0 104 41.5t47 105.5q0 48 -27 73.5
t-70 25.5q-57 0 -103 -41.5t-46 -106.5q0 -48 27 -73t68 -25z" />
    <glyph glyph-name="odieresis.ss02" horiz-adv-x="578" 
d="M252 563q-23 0 -36.5 14t-13.5 36q0 30 23 52t56 22q23 0 36 -14t13 -36q0 -30 -22.5 -52t-55.5 -22zM459 563q-23 0 -36.5 14t-13.5 36q0 30 23 52t56 22q23 0 36 -14t13 -36q0 -30 -22.5 -52t-55.5 -22zM245 -10q-101 0 -156.5 57t-55.5 157q0 131 86.5 218t215.5 87
q102 0 156 -57.5t54 -157.5q0 -131 -85.5 -217.5t-214.5 -86.5zM254 78q78 0 127.5 67t49.5 151q0 58 -26.5 91.5t-79.5 33.5q-77 0 -127 -66t-50 -152q0 -58 26 -91.5t80 -33.5z" />
    <glyph glyph-name="one.dnom" horiz-adv-x="299" 
d="M256 360l-83 -360h-71l54 232q-56 -30 -130 -31l14 60q54 1 101 26t58 73h57z" />
    <glyph glyph-name="one.dnom.ss06" horiz-adv-x="334" 
d="M191 60h73l-13 -60h-253l14 60h108l40 172q-56 -30 -130 -31l14 60q54 1 101 26t58 73h58z" />
    <glyph glyph-name="one.numr" horiz-adv-x="299" 
d="M335 700l-83 -360h-71l54 232q-56 -30 -130 -31l14 60q54 1 101 26t58 73h57z" />
    <glyph glyph-name="one.numr.ss06" horiz-adv-x="334" 
d="M270 400h73l-13 -60h-253l14 60h108l40 172q-56 -30 -130 -31l14 60q54 1 101 26t58 73h58z" />
    <glyph glyph-name="one.ss06" horiz-adv-x="589" 
d="M365 97h150l-22 -97h-461l22 97h192l84 363q-93 -52 -246 -55l22 100q49 2 93.5 12t88.5 31t75.5 60t44.5 92h97z" />
    <glyph glyph-name="one.ss07" horiz-adv-x="424" 
d="M433 620l-143 -620h-114l91 398q-81 -41 -202 -44l22 94q89 3 161.5 43.5t93.5 128.5h91z" />
    <glyph glyph-name="one.ss07.ss06" horiz-adv-x="557" 
d="M312 94h134l-22 -94h-424l22 94h176l69 304q-81 -41 -202 -44l22 94q89 3 161.5 43.5t93.5 128.5h91z" />
    <glyph glyph-name="one.tf" horiz-adv-x="655" 
d="M413 97h150l-22 -97h-461l22 97h192l84 363q-93 -52 -246 -55l22 100q49 2 93.5 12t88.5 31t75.5 60t44.5 92h97z" />
    <glyph glyph-name="one.tf.ss07" horiz-adv-x="609" 
d="M370 94h134l-22 -94h-424l22 94h176l69 304q-81 -41 -202 -44l22 94q89 3 161.5 43.5t93.5 128.5h91z" />
    <glyph glyph-name="oneeighth.ss03" horiz-adv-x="844" 
d="M10 0l748 700h94l-748 -700h-94zM335 700l-83 -360h-71l54 232q-56 -30 -130 -31l14 60q54 1 101 26t58 73h57zM723 190q54 -22 54 -76q0 -55 -46.5 -89.5t-122.5 -34.5q-62 0 -99.5 25t-37.5 68q0 76 96 107q-41 19 -41 62q0 51 43.5 82t105.5 31q53 0 88.5 -24
t35.5 -63q0 -59 -76 -88zM672 310q-34 0 -55.5 -16t-21.5 -40q0 -16 13 -27.5t23 -14.5t18 -4q7 1 16 3.5t25 9t26.5 19.5t10.5 30q0 40 -55 40zM612 47q41 0 67.5 19t26.5 47q0 19 -16 32t-30 16.5t-21 3.5q-9 0 -29 -5t-43.5 -22t-23.5 -43q0 -22 18 -35t51 -13z" />
    <glyph glyph-name="oneeighth.ss06" horiz-adv-x="897" 
d="M44 0l748 700h94l-748 -700h-94zM270 400h73l-13 -60h-253l14 60h108l40 172q-56 -30 -130 -31l14 60q54 1 101 26t58 73h58zM767 164q44 -19 44 -69q0 -48 -44 -76.5t-105 -28.5q-54 0 -89 23.5t-35 64.5q0 57 77 89q-55 22 -55 77q0 54 46 87.5t121 33.5
q64 0 101.5 -25.5t37.5 -69.5q0 -38 -28 -65.5t-71 -40.5zM725 308q-41 0 -67.5 -19t-26.5 -46q0 -20 16.5 -33t28 -16t21.5 -4q9 0 29 4.5t43.5 21.5t23.5 43q0 23 -17.5 36t-50.5 13zM609 85q0 -40 56 -40q34 0 55.5 16t21.5 40q0 34 -54 46q-15 -2 -31 -7.5t-32 -20
t-16 -34.5z" />
    <glyph glyph-name="oneeighth.ss06.ss03" horiz-adv-x="878" 
d="M44 0l748 700h94l-748 -700h-94zM270 400h73l-13 -60h-253l14 60h108l40 172q-56 -30 -130 -31l14 60q54 1 101 26t58 73h58zM757 190q54 -22 54 -76q0 -55 -46.5 -89.5t-122.5 -34.5q-62 0 -99.5 25t-37.5 68q0 76 96 107q-41 19 -41 62q0 51 43.5 82t105.5 31
q53 0 88.5 -24t35.5 -63q0 -59 -76 -88zM706 310q-34 0 -55.5 -16t-21.5 -40q0 -16 13 -27.5t23 -14.5t18 -4q7 1 16 3.5t25 9t26.5 19.5t10.5 30q0 40 -55 40zM646 47q41 0 67.5 19t26.5 47q0 19 -16 32t-30 16.5t-21 3.5q-9 0 -29 -5t-43.5 -22t-23.5 -43q0 -22 18 -35
t51 -13z" />
    <glyph glyph-name="onehalf.ss06" horiz-adv-x="876" 
d="M44 0l748 700h94l-748 -700h-94zM270 400h73l-13 -60h-253l14 60h108l40 172q-56 -30 -130 -31l14 60q54 1 101 26t58 73h58zM773 0h-271l10 44l102 66q38 25 57.5 39t41 33.5t30.5 38t9 39.5q0 44 -42 44q-32 0 -52.5 -25.5t-27.5 -64.5h-71q12 68 51.5 109.5
t102.5 41.5q52 0 83 -27t31 -75t-33 -86.5t-103 -85.5l-50 -33h145z" />
    <glyph glyph-name="onequarter.ss06" horiz-adv-x="808" 
d="M44 0l748 700h94l-748 -700h-94zM270 400h73l-13 -60h-253l14 60h108l40 172q-56 -30 -130 -31l14 60q54 1 101 26t58 73h58zM756 129l-13 -57h-58l-16 -72h-68l17 72h-176l9 42l215 246h86l-53 -231h57zM534 129h97l36 156z" />
    <glyph glyph-name="parenleft.case" horiz-adv-x="305" 
d="M375 849l51 -56q-270 -268 -270 -577q0 -176 65 -324l-69 -41q-38 68 -68.5 169.5t-30.5 211.5q0 91 25.5 180.5t61 154t84 126t82.5 94.5t69 62z" />
    <glyph glyph-name="parenright.case" horiz-adv-x="308" 
d="M-23 -149l-51 56q270 268 270 577q0 176 -65 324l69 41q38 -68 68.5 -169.5t30.5 -211.5q0 -91 -25.5 -180.5t-61 -154t-84 -126t-82.5 -94.5t-69 -62z" />
    <glyph glyph-name="percent.ss07" horiz-adv-x="866" 
d="M238 320q-60 0 -97.5 37.5t-37.5 94.5q0 72 57 125t130 53q60 0 97.5 -37.5t37.5 -95.5q0 -72 -57 -124.5t-130 -52.5zM97 0l593 620h109l-593 -620h-109zM248 401q35 0 61 27t26 63q0 26 -14 42t-41 16q-35 0 -61.5 -27t-26.5 -63q0 -26 15 -42t41 -16zM605 -10
q-60 0 -97.5 37.5t-37.5 94.5q0 72 57 125t130 53q60 0 97.5 -37.5t37.5 -95.5q0 -72 -57 -124.5t-130 -52.5zM615 71q35 0 61 27t26 63q0 26 -14 42t-41 16q-35 0 -61.5 -27t-26.5 -63q0 -26 15 -42t41 -16z" />
    <glyph glyph-name="period.ss02" horiz-adv-x="244" 
d="M62 -10q-27 0 -42.5 16.5t-15.5 41.5q0 35 26.5 60.5t64.5 25.5q26 0 41.5 -16.5t15.5 -41.5q0 -35 -26 -60.5t-64 -25.5z" />
    <glyph glyph-name="periodcentered.case" horiz-adv-x="229" 
d="M64 310l29 123h128l-28 -123h-129z" />
    <glyph glyph-name="periodcentered.case.ss02" horiz-adv-x="246" 
d="M134 295q-27 0 -42.5 16.5t-15.5 41.5q0 35 26.5 60.5t64.5 25.5q26 0 41.5 -16.5t15.5 -41.5q0 -35 -26 -60.5t-64 -25.5z" />
    <glyph glyph-name="periodcentered.ss02" horiz-adv-x="246" 
d="M120 236q-27 0 -42.5 16.5t-15.5 41.5q0 35 26.5 60.5t64.5 25.5q26 0 41.5 -16.5t15.5 -41.5q0 -35 -26 -60.5t-64 -25.5z" />
    <glyph glyph-name="perthousand.ss07" horiz-adv-x="1222" 
d="M238 320q-60 0 -97.5 37.5t-37.5 94.5q0 72 57 125t130 53q60 0 97.5 -37.5t37.5 -95.5q0 -72 -57 -124.5t-130 -52.5zM97 0l593 620h109l-593 -620h-109zM248 401q35 0 61 27t26 63q0 26 -14 42t-41 16q-35 0 -61.5 -27t-26.5 -63q0 -26 15 -42t41 -16zM605 -10
q-60 0 -97.5 37.5t-37.5 94.5q0 72 57 125t130 53q60 0 97.5 -37.5t37.5 -95.5q0 -72 -57 -124.5t-130 -52.5zM970 -10q-60 0 -97.5 37.5t-37.5 94.5q0 72 57 125t130 53q60 0 97.5 -37.5t37.5 -95.5q0 -72 -57 -124.5t-130 -52.5zM615 71q35 0 61 27t26 63q0 26 -14 42
t-41 16q-35 0 -61.5 -27t-26.5 -63q0 -26 15 -42t41 -16zM980 71q35 0 61 27t26 63q0 26 -14 42t-41 16q-35 0 -61.5 -27t-26.5 -63q0 -26 15 -42t41 -16z" />
    <glyph glyph-name="question.ss02" horiz-adv-x="512" 
d="M351 710q87 0 137 -41.5t50 -118.5q0 -43 -17 -77t-42.5 -54t-57 -41.5t-59.5 -39t-51 -46.5t-31 -65l-5 -18h-105l7 30q12 54 42.5 93.5t64.5 61.5t66.5 41.5t53.5 45.5t21 61q0 75 -80 75q-52 0 -91.5 -37.5t-55.5 -119.5h-107q46 250 260 250zM173 -10
q-27 0 -42.5 16.5t-15.5 41.5q0 35 26.5 60.5t64.5 25.5q26 0 41.5 -16.5t15.5 -41.5q0 -35 -26 -60.5t-64 -25.5z" />
    <glyph glyph-name="questiondown.case" horiz-adv-x="502" 
d="M285 575l29 123h128l-28 -123h-129zM203 -9q-87 0 -137 41.5t-50 118.5q0 43 17 77t42.5 54t57 41.5t59.5 39t51 46.5t31 65l5 18h105l-7 -30q-12 -54 -42.5 -93.5t-64.5 -61.5t-66.5 -41.5t-53.5 -45.5t-21 -61q0 -75 80 -75q52 0 91.5 37.5t55.5 119.5h107
q-46 -250 -260 -250z" />
    <glyph glyph-name="questiondown.case.ss02" horiz-adv-x="502" 
d="M348 565q-27 0 -42.5 16.5t-15.5 41.5q0 35 26.5 60.5t64.5 25.5q26 0 41.5 -16.5t15.5 -41.5q0 -35 -26 -60.5t-64 -25.5zM203 -9q-87 0 -137 41.5t-50 118.5q0 43 17 77t42.5 54t57 41.5t59.5 39t51 46.5t31 65l5 18h105l-7 -30q-12 -54 -42.5 -93.5t-64.5 -61.5
t-66.5 -41.5t-53.5 -45.5t-21 -61q0 -75 80 -75q52 0 91.5 37.5t55.5 119.5h107q-46 -250 -260 -250z" />
    <glyph glyph-name="questiondown.ss02" horiz-adv-x="465" 
d="M287 345q-27 0 -42.5 16.5t-15.5 41.5q0 35 26.5 60.5t64.5 25.5q26 0 41.5 -16.5t15.5 -41.5q0 -35 -26 -60.5t-64 -25.5zM142 -229q-87 0 -137 41.5t-50 118.5q0 43 17 77t42.5 54t57 41.5t59.5 39t51 46.5t31 65l5 18h105l-7 -30q-12 -54 -42.5 -93.5t-64.5 -61.5
t-66.5 -41.5t-53.5 -45.5t-21 -61q0 -75 80 -75q52 0 91.5 37.5t55.5 119.5h107q-46 -250 -260 -250z" />
    <glyph glyph-name="quotedbl.ss02" horiz-adv-x="366" 
d="M106 420l28 207q4 41 23 62t47 21t37.5 -20t-3.5 -63l-69 -207h-63zM274 420l28 207q4 41 23 62t47 21t37.5 -20t-3.5 -63l-69 -207h-63z" />
    <glyph glyph-name="quotedblbase.ss02" horiz-adv-x="411" 
d="M80 139q29 0 44 -20.5t15 -56.5q0 -70 -48.5 -123t-136.5 -59l11 47q32 4 55 21t30 42q-26 1 -39.5 18t-13.5 42q0 37 25 63t58 26zM260 139q29 0 44 -20.5t15 -56.5q0 -70 -48.5 -123t-136.5 -59l11 47q32 4 55 21t30 42q-26 1 -39.5 18t-13.5 42q0 37 25 63t58 26z" />
    <glyph glyph-name="quotedblleft.ss02" horiz-adv-x="411" 
d="M171 452q-29 0 -44 20.5t-15 56.5q0 70 48.5 123t136.5 59l-11 -46q-32 -5 -55 -22t-29 -42q25 -1 38.5 -18t13.5 -42q0 -37 -25 -63t-58 -26zM351 452q-29 0 -44 20.5t-15 56.5q0 70 48.5 123t136.5 59l-11 -46q-32 -5 -55 -22t-29 -42q25 -1 38.5 -18t13.5 -42
q0 -37 -25 -63t-58 -26z" />
    <glyph glyph-name="quotedblright.ss02" horiz-adv-x="412" 
d="M211 707q29 0 44 -20.5t15 -56.5q0 -70 -48.5 -123t-136.5 -59l11 47q32 4 55 21t30 42q-26 1 -39.5 18t-13.5 42q0 37 25 63t58 26zM392 707q29 0 44 -20.5t15 -56.5q0 -70 -48.5 -123t-136.5 -59l11 47q32 4 55 21t30 42q-26 1 -39.5 18t-13.5 42q0 37 25 63t58 26z
" />
    <glyph glyph-name="quoteleft.ss02" horiz-adv-x="231" 
d="M171 452q-29 0 -44 20.5t-15 56.5q0 70 48.5 123t136.5 59l-11 -46q-32 -5 -55 -22t-29 -42q25 -1 38.5 -18t13.5 -42q0 -37 -25 -63t-58 -26z" />
    <glyph glyph-name="quoteright.ss02" horiz-adv-x="231" 
d="M211 707q29 0 44 -20.5t15 -56.5q0 -70 -48.5 -123t-136.5 -59l11 47q32 4 55 21t30 42q-26 1 -39.5 18t-13.5 42q0 37 25 63t58 26z" />
    <glyph glyph-name="quotesinglbase.ss02" horiz-adv-x="231" 
d="M80 139q29 0 44 -20.5t15 -56.5q0 -70 -48.5 -123t-136.5 -59l11 47q32 4 55 21t30 42q-26 1 -39.5 18t-13.5 42q0 37 25 63t58 26z" />
    <glyph glyph-name="quotesingle.ss02" horiz-adv-x="198" 
d="M106 420l28 207q4 41 23 62t47 21t37.5 -20t-3.5 -63l-69 -207h-63z" />
    <glyph glyph-name="rcommaaccent.ss02" horiz-adv-x="441" 
d="M390 500h79l-21 -95h-66q-81 0 -132 -43.5t-81 -171.5l2 8l-46 -198h-114l115 500h114l-23 -100q57 101 173 100zM52 -56q26 0 39.5 -17.5t13.5 -46.5q0 -63 -45 -108t-124 -52l9 40q28 4 50 18.5t28 35.5q-25 1 -37.5 15t-12.5 36q0 32 23.5 55.5t55.5 23.5z" />
    <glyph glyph-name="s.ss03" horiz-adv-x="510" 
d="M375 342q11 85 -82 85q-45 0 -73 -18t-28 -50q0 -10 2.5 -18t9.5 -14t12.5 -10.5t18 -9t20.5 -7t24 -6.5t25 -7q69 -19 106.5 -50t37.5 -86q0 -73 -61.5 -117t-164.5 -44t-158 47.5t-44 136.5h106q-8 -51 20 -74.5t80 -23.5q53 0 81.5 21t28.5 51q0 26 -22.5 38.5
t-78.5 27.5q-37 9 -59 17t-47.5 23t-37.5 38.5t-12 55.5q0 73 62 117t157 44q93 0 142 -43t37 -124h-102z" />
    <glyph glyph-name="sacute.ss03" horiz-adv-x="510" 
d="M378 699h133l-155 -134h-99zM375 342q11 85 -82 85q-45 0 -73 -18t-28 -50q0 -10 2.5 -18t9.5 -14t12.5 -10.5t18 -9t20.5 -7t24 -6.5t25 -7q69 -19 106.5 -50t37.5 -86q0 -73 -61.5 -117t-164.5 -44t-158 47.5t-44 136.5h106q-8 -51 20 -74.5t80 -23.5q53 0 81.5 21
t28.5 51q0 26 -22.5 38.5t-78.5 27.5q-37 9 -59 17t-47.5 23t-37.5 38.5t-12 55.5q0 73 62 117t157 44q93 0 142 -43t37 -124h-102z" />
    <glyph glyph-name="scaron.ss03" horiz-adv-x="510" 
d="M409 692h97l-131 -130h-96l-70 130h90l39 -71zM375 342q11 85 -82 85q-45 0 -73 -18t-28 -50q0 -10 2.5 -18t9.5 -14t12.5 -10.5t18 -9t20.5 -7t24 -6.5t25 -7q69 -19 106.5 -50t37.5 -86q0 -73 -61.5 -117t-164.5 -44t-158 47.5t-44 136.5h106q-8 -51 20 -74.5t80 -23.5
q53 0 81.5 21t28.5 51q0 26 -22.5 38.5t-78.5 27.5q-37 9 -59 17t-47.5 23t-37.5 38.5t-12 55.5q0 73 62 117t157 44q93 0 142 -43t37 -124h-102z" />
    <glyph glyph-name="scedilla.ss03" horiz-adv-x="510" 
d="M477 342h-102q11 85 -82 85q-45 0 -73 -18t-28 -50q0 -10 2.5 -18t9.5 -14t12.5 -10.5t18 -9t20.5 -7t24 -6.5t25 -7q69 -19 106.5 -50t37.5 -86q0 -69 -55.5 -112t-149.5 -48q37 -35 37 -81q0 -55 -41 -87.5t-120 -32.5h-47l15 63h36q43 0 65 18.5t22 48.5q0 40 -43 74
q-78 12 -117.5 58t-29.5 122h106q-8 -51 20 -74.5t80 -23.5q53 0 81.5 21t28.5 51q0 26 -22.5 38.5t-78.5 27.5q-37 9 -59 17t-47.5 23t-37.5 38.5t-12 55.5q0 73 62 117t157 44q93 0 142 -43t37 -124z" />
    <glyph glyph-name="scircumflex.ss03" horiz-adv-x="510" 
d="M476 562h-90l-38 72l-72 -72h-97l131 130h96zM375 342q11 85 -82 85q-45 0 -73 -18t-28 -50q0 -10 2.5 -18t9.5 -14t12.5 -10.5t18 -9t20.5 -7t24 -6.5t25 -7q69 -19 106.5 -50t37.5 -86q0 -73 -61.5 -117t-164.5 -44t-158 47.5t-44 136.5h106q-8 -51 20 -74.5t80 -23.5
q53 0 81.5 21t28.5 51q0 26 -22.5 38.5t-78.5 27.5q-37 9 -59 17t-47.5 23t-37.5 38.5t-12 55.5q0 73 62 117t157 44q93 0 142 -43t37 -124h-102z" />
    <glyph glyph-name="scommaaccent.ss02" horiz-adv-x="510" 
d="M137 157q-11 -85 85 -85q42 0 67.5 16.5t25.5 47.5q0 10 -2 17.5t-8.5 14t-11.5 10.5t-18 9t-19.5 7t-25.5 7.5t-27 8.5q-71 21 -107.5 51.5t-36.5 84.5q0 74 63.5 118.5t161.5 44.5q101 0 157.5 -48.5t46.5 -134.5h-103q6 48 -23 72.5t-82 24.5q-50 0 -79.5 -20.5
t-29.5 -52.5q0 -26 21 -38t80 -30q73 -21 113.5 -52t40.5 -90q0 -72 -59 -111t-146 -39q-97 0 -148.5 47.5t-40.5 119.5h105zM188 -56q26 0 39.5 -17.5t13.5 -46.5q0 -63 -45 -108t-124 -52l9 40q28 4 50 18.5t28 35.5q-25 1 -37.5 15t-12.5 36q0 32 23.5 55.5t55.5 23.5z
" />
    <glyph glyph-name="scommaaccent.ss03" horiz-adv-x="510" 
d="M477 342h-102q11 85 -82 85q-45 0 -73 -18t-28 -50q0 -10 2.5 -18t9.5 -14t12.5 -10.5t18 -9t20.5 -7t24 -6.5t25 -7q69 -19 106.5 -50t37.5 -86q0 -73 -61.5 -117t-164.5 -44t-158 47.5t-44 136.5h106q-8 -51 20 -74.5t80 -23.5q53 0 81.5 21t28.5 51q0 26 -22.5 38.5
t-78.5 27.5q-37 9 -59 17t-47.5 23t-37.5 38.5t-12 55.5q0 73 62 117t157 44q93 0 142 -43t37 -124zM115 -166l25 105h114l-15 -68q-19 -79 -54 -110.5t-109 -37.5l11 46q37 2 54 18.5t24 46.5h-50z" />
    <glyph glyph-name="scommaaccent.ss03.ss02" horiz-adv-x="510" 
d="M375 342q11 85 -82 85q-45 0 -73 -18t-28 -50q0 -10 2.5 -18t9.5 -14t12.5 -10.5t18 -9t20.5 -7t24 -6.5t25 -7q69 -19 106.5 -50t37.5 -86q0 -73 -61.5 -117t-164.5 -44t-158 47.5t-44 136.5h106q-8 -51 20 -74.5t80 -23.5q53 0 81.5 21t28.5 51q0 26 -22.5 38.5
t-78.5 27.5q-37 9 -59 17t-47.5 23t-37.5 38.5t-12 55.5q0 73 62 117t157 44q93 0 142 -43t37 -124h-102zM193 -56q26 0 39.5 -17.5t13.5 -46.5q0 -63 -45 -108t-124 -52l9 40q28 4 50 18.5t28 35.5q-25 1 -37.5 15t-12.5 36q0 32 23.5 55.5t55.5 23.5z" />
    <glyph glyph-name="semicolon.ss02" horiz-adv-x="241" 
d="M145 366q-27 0 -42.5 16.5t-15.5 41.5q0 35 26.5 60.5t64.5 25.5q26 0 41.5 -16.5t15.5 -41.5q0 -35 -26 -60.5t-64 -25.5zM85 134q28 0 43 -19t15 -52q0 -70 -49.5 -120t-137.5 -58l10 45q30 4 55 20.5t31 39.5q-28 1 -41.5 16.5t-13.5 40.5q0 35 26.5 61t61.5 26z" />
    <glyph glyph-name="seven.dnom" horiz-adv-x="323" 
d="M57 360h267l-10 -43l-236 -317h-84l223 298h-174z" />
    <glyph glyph-name="seven.dnom.ss06" horiz-adv-x="324" 
d="M325 360l-10 -43l-236 -317h-84l223 298h-108l-13 -52h-66l27 114h267z" />
    <glyph glyph-name="seven.numr" horiz-adv-x="323" 
d="M136 700h267l-10 -43l-236 -317h-84l223 298h-174z" />
    <glyph glyph-name="seven.numr.ss06" horiz-adv-x="324" 
d="M404 700l-10 -43l-236 -317h-84l223 298h-108l-13 -52h-66l27 114h267z" />
    <glyph glyph-name="seven.ss06" horiz-adv-x="595" 
d="M652 700l-18 -73l-460 -627h-141l442 599h-235l-24 -103h-109l24 103l24 101h497z" />
    <glyph glyph-name="seven.ss07" horiz-adv-x="556" 
d="M143 620h452l-15 -67l-413 -553h-129l394 526h-310z" />
    <glyph glyph-name="seven.ss07.ss06" horiz-adv-x="556" 
d="M595 620l-15 -67l-413 -553h-129l394 526h-210l-21 -93h-101l43 187h452z" />
    <glyph glyph-name="seven.tf" horiz-adv-x="655" 
d="M175 700h497l-18 -73l-460 -627h-141l442 599h-344z" />
    <glyph glyph-name="seven.tf.ss06" horiz-adv-x="595" 
d="M652 700l-18 -73l-460 -627h-141l442 599h-235l-24 -103h-109l24 103l24 101h497z" />
    <glyph glyph-name="seven.tf.ss07" horiz-adv-x="609" 
d="M164 620h452l-15 -67l-413 -553h-129l394 526h-310z" />
    <glyph glyph-name="seven.tf.ss07.ss06" horiz-adv-x="609" 
d="M616 620l-15 -67l-413 -553h-129l394 526h-210l-21 -93h-101l43 187h452z" />
    <glyph glyph-name="seveneighths.ss03" horiz-adv-x="770" 
d="M-64 0l748 700h94l-748 -700h-94zM136 700h267l-10 -43l-236 -317h-84l223 298h-174zM649 190q54 -22 54 -76q0 -55 -46.5 -89.5t-122.5 -34.5q-62 0 -99.5 25t-37.5 68q0 76 96 107q-41 19 -41 62q0 51 43.5 82t105.5 31q53 0 88.5 -24t35.5 -63q0 -59 -76 -88zM598 310
q-34 0 -55.5 -16t-21.5 -40q0 -16 13 -27.5t23 -14.5t18 -4q7 1 16 3.5t25 9t26.5 19.5t10.5 30q0 40 -55 40zM538 47q41 0 67.5 19t26.5 47q0 19 -16 32t-30 16.5t-21 3.5q-9 0 -29 -5t-43.5 -22t-23.5 -43q0 -22 18 -35t51 -13z" />
    <glyph glyph-name="seveneighths.ss06" horiz-adv-x="790" 
d="M-63 0l748 700h94l-748 -700h-94zM404 700l-10 -43l-236 -317h-84l223 298h-108l-13 -52h-66l27 114h267zM660 164q44 -19 44 -69q0 -48 -44 -76.5t-105 -28.5q-54 0 -89 23.5t-35 64.5q0 57 77 89q-55 22 -55 77q0 54 46 87.5t121 33.5q64 0 101.5 -25.5t37.5 -69.5
q0 -38 -28 -65.5t-71 -40.5zM618 308q-41 0 -67.5 -19t-26.5 -46q0 -20 16.5 -33t28 -16t21.5 -4q9 0 29 4.5t43.5 21.5t23.5 43q0 23 -17.5 36t-50.5 13zM502 85q0 -40 56 -40q34 0 55.5 16t21.5 40q0 34 -54 46q-15 -2 -31 -7.5t-32 -20t-16 -34.5z" />
    <glyph glyph-name="seveneighths.ss06.ss03" horiz-adv-x="771" 
d="M-63 0l748 700h94l-748 -700h-94zM404 700l-10 -43l-236 -317h-84l223 298h-108l-13 -52h-66l27 114h267zM650 190q54 -22 54 -76q0 -55 -46.5 -89.5t-122.5 -34.5q-62 0 -99.5 25t-37.5 68q0 76 96 107q-41 19 -41 62q0 51 43.5 82t105.5 31q53 0 88.5 -24t35.5 -63
q0 -59 -76 -88zM599 310q-34 0 -55.5 -16t-21.5 -40q0 -16 13 -27.5t23 -14.5t18 -4q7 1 16 3.5t25 9t26.5 19.5t10.5 30q0 40 -55 40zM539 47q41 0 67.5 19t26.5 47q0 19 -16 32t-30 16.5t-21 3.5q-9 0 -29 -5t-43.5 -22t-23.5 -43q0 -22 18 -35t51 -13z" />
    <glyph glyph-name="six.dnom" horiz-adv-x="354" 
d="M179 234q47 0 79 -29t32 -78q0 -59 -45 -98t-108 -39q-126 0 -126 139q0 101 52.5 168.5t137.5 67.5q60 0 93.5 -33t27.5 -81h-64q3 24 -11 40.5t-45 16.5q-45 0 -75.5 -33.5t-44.5 -86.5q40 46 97 46zM135 47q32 0 59 22t27 58q0 26 -15.5 40t-39.5 14q-33 0 -60 -22.5
t-27 -57.5q0 -27 16 -40.5t40 -13.5z" />
    <glyph glyph-name="six.numr" horiz-adv-x="354" 
d="M258 574q47 0 79 -29t32 -78q0 -59 -45 -98t-108 -39q-126 0 -126 139q0 101 52.5 168.5t137.5 67.5q60 0 93.5 -33t27.5 -81h-64q3 24 -11 40.5t-45 16.5q-45 0 -75.5 -33.5t-44.5 -86.5q40 46 97 46zM214 387q32 0 59 22t27 58q0 26 -15.5 40t-39.5 14q-33 0 -60 -22.5
t-27 -57.5q0 -27 16 -40.5t40 -13.5z" />
    <glyph glyph-name="six.ss07" horiz-adv-x="584" 
d="M570 437h-97q3 42 -20 73t-78 31q-74 0 -124.5 -58t-74.5 -149q61 72 157 72q80 0 131 -49t51 -131q0 -101 -75 -168.5t-182 -67.5q-119 0 -170.5 88t-15.5 243q37 158 117 233.5t187 75.5q100 0 152 -55.5t42 -137.5zM315 323q-57 0 -104 -41.5t-47 -105.5
q0 -48 27 -73.5t70 -25.5q57 0 103 41.5t46 106.5q0 48 -27 73t-68 25z" />
    <glyph glyph-name="six.tf" horiz-adv-x="655" 
d="M643 494h-104q3 48 -22 84.5t-88 36.5q-84 0 -141.5 -68t-84.5 -174q68 83 179 83q92 0 146 -56.5t54 -142.5q0 -111 -84 -189t-204 -78q-131 0 -185.5 98.5t-13.5 273.5q41 177 127 262.5t206 85.5q112 0 168.5 -63t46.5 -153zM362 368q-64 0 -117.5 -48.5t-53.5 -123.5
q0 -55 30 -84t77 -29q64 0 118 48.5t54 123.5q0 54 -30.5 83.5t-77.5 29.5z" />
    <glyph glyph-name="six.tf.ss07" horiz-adv-x="609" 
d="M584 437h-97q3 42 -20 73t-78 31q-74 0 -124.5 -58t-74.5 -149q61 72 157 72q80 0 131 -49t51 -131q0 -101 -75 -168.5t-182 -67.5q-119 0 -170.5 88t-15.5 243q37 158 117 233.5t187 75.5q100 0 152 -55.5t42 -137.5zM329 323q-57 0 -104 -41.5t-47 -105.5
q0 -48 27 -73.5t70 -25.5q57 0 103 41.5t46 106.5q0 48 -27 73t-68 25z" />
    <glyph glyph-name="sterling.ss07" horiz-adv-x="570" 
d="M542 422l-94 1q20 122 -86 122q-61 0 -95.5 -35.5t-34.5 -83.5q0 -15 3 -28t11 -27t13 -21.5t17.5 -24t16.5 -21.5h170l-17 -73h-118q3 -12 3 -27q0 -80 -82 -120h222l-19 -84h-443l16 68q208 15 208 127q0 19 -6 36h-149l17 73h84q-45 61 -45 124q0 92 64.5 147
t161.5 55q94 0 146.5 -53.5t35.5 -154.5z" />
    <glyph glyph-name="tcaron.ss02" horiz-adv-x="392" 
d="M584 647q0 -63 -47 -108t-130 -52l-16 -70h-126l-53 -228q-24 -99 69 -99h50l-20 -90h-61q-93 0 -132.5 50.5t-19.5 135.5l53 231h-93l18 83h94l27 115l118 20l-31 -135h125l7 27q29 4 52 18.5t29 35.5q-52 1 -52 51q0 32 25 55.5t59 23.5q27 0 41 -17.5t14 -46.5z" />
    <glyph glyph-name="three.dnom" horiz-adv-x="358" 
d="M234 167q40 -16 40 -66q0 -44 -37.5 -77.5t-103.5 -33.5q-67 0 -98 34t-22 85h72q-5 -31 10 -45t40 -14q31 0 51 17.5t20 39.5q0 40 -58 40h-26l12 48h34q37 0 59.5 18.5t22.5 46.5q0 44 -56 44q-73 0 -96 -72h-69q40 131 168 131q58 0 92.5 -26t34.5 -71q0 -72 -90 -99z
" />
    <glyph glyph-name="three.dnom.ss03" horiz-adv-x="358" 
d="M239 186q50 -18 50 -70q0 -56 -45.5 -91t-115.5 -35t-102 36t-23 95h70q-10 -72 62 -72q35 0 58.5 17t23.5 47q0 45 -62 45h-30l12 48h28q36 0 56 16.5t20 40.5q0 17 -12.5 28.5t-35.5 11.5q-59 0 -78 -59h-72q17 56 57 87.5t100 31.5q55 0 84.5 -25t29.5 -60
q0 -66 -75 -92z" />
    <glyph glyph-name="three.numr" horiz-adv-x="358" 
d="M313 507q40 -16 40 -66q0 -44 -37.5 -77.5t-103.5 -33.5q-67 0 -98 34t-22 85h72q-5 -31 10 -45t40 -14q31 0 51 17.5t20 39.5q0 40 -58 40h-26l12 48h34q37 0 59.5 18.5t22.5 46.5q0 44 -56 44q-73 0 -96 -72h-69q40 131 168 131q58 0 92.5 -26t34.5 -71q0 -72 -90 -99z
" />
    <glyph glyph-name="three.numr.ss03" horiz-adv-x="358" 
d="M318 526q50 -18 50 -70q0 -56 -45.5 -91t-115.5 -35t-102 36t-23 95h70q-10 -72 62 -72q35 0 58.5 17t23.5 47q0 45 -62 45h-30l12 48h28q36 0 56 16.5t20 40.5q0 17 -12.5 28.5t-35.5 11.5q-59 0 -78 -59h-72q17 56 57 87.5t100 31.5q55 0 84.5 -25t29.5 -60
q0 -66 -75 -92z" />
    <glyph glyph-name="three.ss03" horiz-adv-x="627" 
d="M613 537q0 -63 -39.5 -108.5t-103.5 -65.5q90 -43 90 -148q0 -101 -79.5 -163t-201.5 -62q-128 0 -189 68.5t-43 176.5h112q-11 -72 22.5 -110.5t99.5 -38.5q68 0 115 36.5t47 97.5q0 48 -31.5 73.5t-90.5 25.5h-54l14 55l6 28h53q73 0 113.5 35t40.5 86q0 39 -24 64
t-72 25q-50 0 -92 -30t-62 -93h-118q34 107 105 164t174 57q101 0 154.5 -50t53.5 -123z" />
    <glyph glyph-name="three.ss07" horiz-adv-x="577" 
d="M568 464q0 -66 -43 -110t-113 -62q73 -36 73 -118q0 -76 -63.5 -130t-170.5 -54q-110 0 -159 57t-36 142h109q-8 -56 18 -81.5t73 -25.5q55 0 89 31.5t34 74.5q0 74 -99 74h-43l11 47l7 30h57q65 0 104.5 32.5t39.5 82.5q0 41 -27 63t-72 22q-55 0 -100 -33t-65 -96h-107
q32 104 103.5 162t173.5 58q92 0 149 -45t57 -121z" />
    <glyph glyph-name="three.ss07.ss03" horiz-adv-x="577" 
d="M554 479q0 -54 -37.5 -96.5t-98.5 -60.5q89 -36 89 -133q0 -89 -73.5 -144t-188.5 -55q-118 0 -170 59.5t-36 160.5h106q-10 -65 18 -97.5t88 -32.5q62 0 103.5 31t41.5 85q0 84 -105 84h-50l14 60l4 17h48q64 0 99.5 30t35.5 74q0 34 -21.5 55.5t-63.5 21.5
q-43 0 -79.5 -26t-54.5 -82h-112q30 95 95 147.5t160 52.5q89 0 138.5 -44.5t49.5 -106.5z" />
    </font>
</defs>
</svg>
