<?xml version="1.0" standalone="no"?>
<!DOCTYPE svg PUBLIC "-//W3C//DTD SVG 1.1//EN" "http://www.w3.org/Graphics/SVG/1.1/DTD/svg11.dtd" >
<svg xmlns="http://www.w3.org/2000/svg" xmlns:xlink="http://www.w3.org/1999/xlink" version="1.1">
<metadata>
Created by FontForge 20170731 at Tue Jan 24 14:25:49 2017
 By Aleksey,,,
(c) TIGHTYPE 2016
</metadata>
<defs>
<font id="Sneak-BlackItalic" horiz-adv-x="785" >
  <font-face 
    font-family="Sneak Black"
    font-weight="900"
    font-style="italic"
    font-stretch="normal"
    units-per-em="1000"
    panose-1="0 0 10 0 0 0 0 0 0 0"
    ascent="800"
    descent="-200"
    x-height="500"
    cap-height="700"
    bbox="-308 -353 2360 983"
    underline-thickness="50"
    underline-position="-200"
    slope="-13"
    unicode-range="U+000D-27FC"
  />
<missing-glyph horiz-adv-x="788" 
d="M777 350q0 -150 -105 -255t-255 -105t-255 106t-105 254q0 149 105.5 254.5t254.5 105.5q151 0 255.5 -105.5t104.5 -254.5zM229 533v-45h44v-128h46v128h44v45h-134zM471 533v-45h45v-128h45v128h45v45h-135zM417 81q109 0 187 76t81 183l-46 8q0 -92 -65 -156.5
t-157 -64.5q-91 0 -156 64.5t-65 156.5l-46 -8q3 -107 81 -183t186 -76z" />
    <glyph glyph-name="f_f.liga" unicode="ff" horiz-adv-x="826" 
d="M799 573q-35 0 -55 -19t-26 -47l-2 -7h142l-26 -115h-142l-89 -385h-168l88 385h-214l-89 -385h-168l88 385h-93l26 115h93l6 25q41 175 222 175h160l-30 -127h-106q-35 0 -55 -19t-26 -47l-2 -7h214l6 25q41 175 222 175h160l-30 -127h-106z" />
    <glyph glyph-name="f_f_i.liga" unicode="ffi" horiz-adv-x="1107" 
d="M1109 500l-115 -500h-170l89 385h-223l-89 -385h-168l88 385h-214l-89 -385h-168l88 385h-93l26 115h93l6 25q41 175 222 175h160l-30 -127h-106q-35 0 -55 -19t-26 -47l-2 -7h214l6 25q41 175 222 175h160l-30 -127h-106q-35 0 -55 -19t-26 -47l-2 -7h393zM985 700h172
l-32 -138h-172z" />
    <glyph glyph-name="f_f_j.liga" unicode="ffj" horiz-adv-x="1107" 
d="M1109 500l-100 -433l-23 -103q-22 -95 -82 -139.5t-165 -44.5h-141l31 132h72q103 0 124 93l16 69l72 311h-223l-89 -385h-168l88 385h-214l-89 -385h-168l88 385h-93l26 115h93l6 25q41 175 222 175h160l-30 -127h-106q-35 0 -55 -19t-26 -47l-2 -7h214l6 25
q41 175 222 175h160l-30 -127h-106q-35 0 -55 -19t-26 -47l-2 -7h393zM985 700h172l-32 -138h-172z" />
    <glyph glyph-name="f_f_l.liga" unicode="ffl" horiz-adv-x="1137" 
d="M1016 710h172l-164 -710h-172l89 385h-251l-89 -385h-168l88 385h-214l-89 -385h-168l88 385h-93l26 115h93l6 25q41 175 222 175h160l-30 -127h-106q-35 0 -55 -19t-26 -47l-2 -7h214l6 25q41 175 222 175h160l-30 -127h-106q-35 0 -55 -19t-26 -47l-2 -7h251z" />
    <glyph glyph-name="f_i.liga" unicode="fi" horiz-adv-x="724" 
d="M726 500l-115 -500h-170l89 385h-223l-89 -385h-168l88 385h-93l26 115h93l6 25q41 175 222 175h160l-30 -127h-106q-35 0 -55 -19t-26 -47l-2 -7h393zM602 700h172l-32 -138h-172z" />
    <glyph glyph-name="f_j.liga" unicode="fj" horiz-adv-x="724" 
d="M726 500l-100 -433l-23 -103q-22 -95 -82 -139.5t-165 -44.5h-141l31 132h72q103 0 124 93l16 69l72 311h-223l-89 -385h-168l88 385h-93l26 115h93l6 25q41 175 222 175h160l-30 -127h-106q-35 0 -55 -19t-26 -47l-2 -7h393zM602 700h172l-32 -138h-172z" />
    <glyph glyph-name="f_l.liga" unicode="fl" horiz-adv-x="754" 
d="M633 710h172l-164 -710h-172l89 385h-251l-89 -385h-168l88 385h-93l26 115h93l6 25q41 175 222 175h160l-30 -127h-106q-35 0 -55 -19t-26 -47l-2 -7h251z" />
    <glyph glyph-name=".notdef" horiz-adv-x="788" 
d="M777 350q0 -150 -105 -255t-255 -105t-255 106t-105 254q0 149 105.5 254.5t254.5 105.5q151 0 255.5 -105.5t104.5 -254.5zM229 533v-45h44v-128h46v128h44v45h-134zM471 533v-45h45v-128h45v128h45v45h-135zM417 81q109 0 187 76t81 183l-46 8q0 -92 -65 -156.5
t-157 -64.5q-91 0 -156 64.5t-65 156.5l-46 -8q3 -107 81 -183t186 -76z" />
    <glyph glyph-name=".null" horiz-adv-x="0" 
 />
    <glyph glyph-name="nonmarkingreturn" horiz-adv-x="333" 
 />
    <glyph glyph-name="NULL" horiz-adv-x="0" 
 />
    <glyph glyph-name="NULL" horiz-adv-x="0" 
 />
    <glyph glyph-name="CR" unicode="&#xd;" horiz-adv-x="250" 
 />
    <glyph glyph-name="space" unicode=" " horiz-adv-x="260" 
 />
    <glyph glyph-name="exclam" unicode="!" horiz-adv-x="282" 
d="M157 700h176l-134 -461h-122zM-8 0l39 170h182l-39 -170h-182z" />
    <glyph glyph-name="quotedbl" unicode="&#x22;" horiz-adv-x="392" 
d="M78 420l46 280h152l-84 -280h-114zM278 420l46 280h152l-84 -280h-114z" />
    <glyph glyph-name="numbersign" unicode="#" horiz-adv-x="674" 
d="M664 380h-105l-57 -139h103l-28 -120h-125l-50 -121h-131l50 121h-98l-50 -121h-131l50 121h-82l28 120h104l57 139h-102l27 120h125l50 121h131l-50 -121h98l50 121h131l-50 -121h82zM371 241l57 139h-98l-57 -139h98z" />
    <glyph glyph-name="dollar" unicode="$" horiz-adv-x="583" 
d="M605 476h-157q7 52 -23 76.5t-73 24.5t-73 -24.5t-30 -60.5q0 -8 1.5 -15.5t5.5 -14t7.5 -11.5t11.5 -10.5t12 -9t15 -9l16 -8t18 -8.5t18 -8q38 -18 61 -31t50 -36t40 -54.5t13 -72.5q0 -92 -63 -145.5t-161 -65.5l-22 -93h-131l23 98q-81 18 -115 75t-20 140h155
q-6 -43 18 -63t65 -20q33 0 55.5 12.5t22.5 39.5q0 28 -23.5 46.5t-73.5 42.5q-94 46 -132 91t-38 113q0 102 69.5 162.5t179.5 70.5l19 82h131l-20 -89q87 -20 125.5 -80t22.5 -145z" />
    <glyph glyph-name="percent" unicode="%" horiz-adv-x="813" 
d="M241 390q-62 0 -100.5 39t-38.5 98q0 75 59.5 129t134.5 54q62 0 100.5 -39t38.5 -98q0 -75 -59.5 -129t-134.5 -54zM49 0l626 700h146l-626 -700h-146zM258 501q23 0 40 18t17 42q0 17 -9.5 27.5t-26.5 10.5q-23 0 -40 -18t-17 -42q0 -17 9.5 -27.5t26.5 -10.5zM564 -10
q-62 0 -100.5 39t-38.5 98q0 75 59.5 129t134.5 54q62 0 100.5 -39t38.5 -98q0 -75 -59.5 -129t-134.5 -54zM581 101q23 0 40 18t17 42q0 17 -9.5 27.5t-26.5 10.5q-23 0 -40 -18t-17 -42q0 -17 9.5 -27.5t26.5 -10.5z" />
    <glyph glyph-name="ampersand" unicode="&#x26;" horiz-adv-x="691" 
d="M627 122h49l-28 -122h-50q-101 0 -154 37q-91 -47 -202 -47q-112 0 -174.5 48t-62.5 135q0 77 47 125t128 85q-39 70 -39 131q0 90 67.5 143t166.5 53q88 0 141.5 -42.5t53.5 -113.5q0 -69 -50 -118t-134 -90l74 -106q39 54 60 150h144q-35 -153 -107 -252q32 -16 70 -16
zM367 591q-31 0 -54.5 -22t-23.5 -54q0 -29 28 -74q52 23 76.5 45.5t24.5 53.5q0 24 -14 37.5t-37 13.5zM173 185q0 -33 22.5 -50t61.5 -17q44 0 92 24l-88 122l-13 18q-75 -42 -75 -97z" />
    <glyph glyph-name="quotesingle" unicode="'" horiz-adv-x="192" 
d="M78 420l46 280h152l-84 -280h-114z" />
    <glyph glyph-name="parenleft" unicode="(" horiz-adv-x="341" 
d="M379 850l73 -79q-131 -132 -201 -273t-70 -315q0 -194 68 -333l-99 -60q-40 59 -79.5 177t-39.5 241q0 78 18.5 155t51 140.5t68 118t78.5 101t72.5 74.5t59.5 53z" />
    <glyph glyph-name="parenright" unicode=")" horiz-adv-x="343" 
d="M-5 -210l-73 79q131 132 201 273t70 315q0 194 -68 333l99 60q40 -59 79.5 -177t39.5 -241q0 -78 -18.5 -155t-51 -140.5t-68 -118t-78.5 -101t-72.5 -74.5t-59.5 -53z" />
    <glyph glyph-name="asterisk" unicode="*" horiz-adv-x="393" 
d="M432 546l-108 -25l72 -84l-73 -53l-57 95l-58 -95l-73 53l72 84l-108 25l28 87l103 -44l-10 111h91l-10 -111l103 44z" />
    <glyph glyph-name="plus" unicode="+" horiz-adv-x="570" 
d="M553 305l-30 -130h-184l-40 -175h-142l40 175h-184l30 130h185l40 175h142l-40 -175h183z" />
    <glyph glyph-name="comma" unicode="," horiz-adv-x="282" 
d="M32 170h182l-24 -104q-26 -114 -83 -162t-169 -53l16 72q54 0 82 24.5t34 52.5h-77z" />
    <glyph glyph-name="hyphen" unicode="-" horiz-adv-x="517" 
d="M55 360h457l-30 -130h-457z" />
    <glyph glyph-name="period" unicode="." horiz-adv-x="282" 
d="M-8 0l39 170h182l-39 -170h-182z" />
    <glyph glyph-name="slash" unicode="/" horiz-adv-x="511" 
d="M-69 -50l529 800h166l-529 -800h-166z" />
    <glyph glyph-name="zero" unicode="0" horiz-adv-x="669" 
d="M296 -10q-130 0 -192.5 78t-62.5 199q0 59 14 119.5t44.5 119t73.5 104t106.5 73t137.5 27.5q131 0 193.5 -78t62.5 -199q0 -59 -14 -119t-44.5 -118.5t-73.5 -104t-106.5 -73.5t-138.5 -28zM313 139q47 0 83 30.5t55 78t28.5 95.5t9.5 93q0 65 -21 95t-67 30
q-47 0 -83 -30t-55 -77t-28.5 -95t-9.5 -93q0 -65 21 -96t67 -31z" />
    <glyph glyph-name="one" unicode="1" horiz-adv-x="508" 
d="M542 700l-162 -700h-178l93 402q-91 -37 -237 -40l34 149q70 1 129.5 16.5t112.5 59.5t69 113h139z" />
    <glyph glyph-name="two" unicode="2" horiz-adv-x="634" 
d="M536 0h-552l25 103l184 115q54 34 80 51t64.5 43.5t56 44.5t37.5 41.5t27 46t7 48.5q0 75 -67 75q-56 0 -91.5 -47.5t-51.5 -119.5h-168q34 153 111 231t208 78q112 0 172.5 -53.5t60.5 -147.5q0 -91 -59.5 -164.5t-184.5 -154.5l-83 -54h255z" />
    <glyph glyph-name="three" unicode="3" horiz-adv-x="636" 
d="M654 517q0 -67 -43 -114t-121 -67q74 -37 74 -131q0 -88 -71 -151.5t-203 -63.5q-73 0 -125 21.5t-76.5 55.5t-35 77t0.5 86h175q-19 -101 69 -101q44 0 71 26t27 63q0 66 -84 66h-39l8 37l16 73h52q59 0 92.5 27.5t33.5 70.5q0 37 -23.5 56.5t-61.5 19.5
q-50 0 -90.5 -33.5t-56.5 -90.5h-165q75 266 327 266q116 0 182.5 -54t66.5 -139z" />
    <glyph glyph-name="four" unicode="4" horiz-adv-x="668" 
d="M635 270l-31 -135h-108l-31 -135h-159l31 135h-331l23 100l403 465h195l-100 -430h108zM220 270h148l56 239z" />
    <glyph glyph-name="five" unicode="5" horiz-adv-x="628" 
d="M606 555h-273l-41 -106q40 21 92 21q87 0 141.5 -55.5t54.5 -150.5q0 -119 -85 -196.5t-219 -77.5q-69 0 -121 22t-79 59t-36.5 80.5t-1.5 89.5h163q-11 -113 87 -113q59 0 97 39t38 92q0 40 -23.5 64t-69.5 24q-66 0 -121 -53l-120 50l135 356h416z" />
    <glyph glyph-name="six" unicode="6" horiz-adv-x="660" 
d="M667 488h-148q2 42 -21 65.5t-69 23.5q-67 0 -114 -47.5t-72 -121.5q61 56 152 56q93 0 152.5 -57t59.5 -152q0 -118 -89.5 -191.5t-212.5 -73.5q-139 0 -201 100.5t-20 280.5q79 339 341 339q123 0 189 -64.5t53 -157.5zM362 341q-46 0 -88 -37.5t-42 -96.5
q0 -43 23 -64t55 -21q46 0 88 35t42 95q0 44 -23 66.5t-55 22.5z" />
    <glyph glyph-name="seven" unicode="7" horiz-adv-x="628" 
d="M152 700h538l-24 -101l-445 -599h-205l411 552h-310z" />
    <glyph glyph-name="eight" unicode="8" horiz-adv-x="662" 
d="M673 507q0 -142 -164 -192q60 -43 60 -121q0 -95 -81.5 -150t-195.5 -55q-99 0 -164 44.5t-65 131.5q0 111 116 162q-80 43 -80 138q0 102 86 169t230 67q123 0 190.5 -51.5t67.5 -142.5zM406 574q-56 0 -95.5 -30.5t-39.5 -74.5q0 -20 9.5 -36t22.5 -25t26.5 -15
t22.5 -8l10 -2q6 1 15 3t32.5 11t41.5 20.5t33 33.5t15 48q0 36 -25 55.5t-68 19.5zM301 117q45 0 74 25.5t29 65.5q0 29 -16 48.5t-32 25.5l-16 5q-4 -1 -11.5 -3t-26 -10.5t-32.5 -20t-25.5 -31.5t-11.5 -44q0 -61 68 -61z" />
    <glyph glyph-name="nine" unicode="9" horiz-adv-x="648" 
d="M396 710q139 0 201 -100.5t20 -280.5q-79 -339 -341 -339q-123 0 -189 64.5t-53 157.5h148q-2 -42 21 -65.5t69 -23.5q67 0 114 47.5t72 121.5q-61 -56 -152 -56q-93 0 -152.5 57t-59.5 152q0 118 89.5 191.5t212.5 73.5zM339 359q46 0 88 37.5t42 96.5q0 43 -23 64
t-55 21q-46 0 -88 -35t-42 -95q0 -44 23 -66.5t55 -22.5z" />
    <glyph glyph-name="colon" unicode=":" horiz-adv-x="282" 
d="M68 330l39 170h182l-39 -170h-182zM-8 0l39 170h182l-39 -170h-182z" />
    <glyph glyph-name="semicolon" unicode=";" horiz-adv-x="282" 
d="M106 500h182l-39 -170h-182zM-7 0l39 170h182l-24 -104q-26 -114 -83 -162t-169 -53l16 72q54 0 82 24.5t34 52.5h-77z" />
    <glyph glyph-name="less" unicode="&#x3c;" horiz-adv-x="574" 
d="M83 323l481 167l-36 -168l-325 -92l282 -92l-36 -148l-405 167z" />
    <glyph glyph-name="equal" unicode="=" horiz-adv-x="574" 
d="M72 413h510l-30 -130h-510zM17 193h510l-30 -130h-510z" />
    <glyph glyph-name="greater" unicode="&#x3e;" horiz-adv-x="573" 
d="M486 157l-481 -167l36 168l325 92l-282 92l36 148l405 -167z" />
    <glyph glyph-name="question" unicode="?" horiz-adv-x="528" 
d="M353 710q99 0 155.5 -45.5t56.5 -126.5q0 -50 -23 -86t-57 -56.5t-69.5 -39t-64 -46.5t-36.5 -66l-1 -5h-152l5 21q13 54 41.5 92t59.5 57.5t61 35t49 34.5t19 46q0 51 -54 51q-36 0 -66.5 -26.5t-44.5 -89.5h-156q44 250 277 250zM92 0l39 170h182l-39 -170h-182z" />
    <glyph glyph-name="at" unicode="@" horiz-adv-x="947" 
d="M546 710q167 0 278 -97t111 -259q0 -137 -76 -237.5t-187 -100.5q-88 0 -120 63q-58 -63 -151 -63q-84 0 -126.5 49.5t-42.5 135.5q0 123 78.5 209t172.5 86q78 0 116 -62l12 52h126l-64 -280q-20 -79 31 -79q28 0 49.5 22.5t33 57t17.5 69.5t6 67q0 109 -68.5 180
t-188.5 71q-159 0 -276.5 -118t-117.5 -281q0 -114 64.5 -181.5t189.5 -67.5q110 0 175 48l62 -80q-117 -84 -260 -84q-166 0 -265.5 99.5t-99.5 267.5q0 143 72.5 261.5t192 185t256.5 66.5zM437 124q54 0 89 50.5t35 124.5q0 89 -64 89q-57 0 -94.5 -54t-37.5 -120
q0 -90 72 -90z" />
    <glyph glyph-name="A" unicode="A" horiz-adv-x="731" 
d="M488 0l-14 143h-258l-81 -143h-188l416 700h213l92 -700h-180zM295 282h165l-25 246z" />
    <glyph glyph-name="B" unicode="B" horiz-adv-x="653" 
d="M694 527q0 -65 -44 -112.5t-141 -67.5q97 -41 97 -145q0 -86 -70.5 -144t-225.5 -58h-139h-169l162 700h169h145q104 0 160 -48t56 -125zM411 424q58 0 82.5 20.5t24.5 49.5t-20.5 45.5t-59.5 16.5h-138l-31 -132h142zM326 148q51 0 79 19.5t28 53.5q0 30 -20.5 48.5
t-58.5 18.5h-116l-33 -140h121z" />
    <glyph glyph-name="C" unicode="C" horiz-adv-x="753" 
d="M727 283q-36 -147 -139 -220t-242 -73q-147 0 -224.5 79t-77.5 217q0 179 119.5 301.5t307.5 122.5q149 0 223 -78t62 -192h-179q3 56 -27 86.5t-95 30.5q-106 0 -167 -76t-61 -186q0 -159 136 -159q133 0 185 147h179z" />
    <glyph glyph-name="D" unicode="D" horiz-adv-x="731" 
d="M411 700q157 0 237 -81t80 -222q0 -75 -23 -142.5t-71 -126t-134.5 -93.5t-200.5 -35h-297l162 700h247zM307 149q107 0 169.5 65t62.5 180q0 80 -37.5 118.5t-129.5 38.5h-62l-94 -402h91z" />
    <glyph glyph-name="E" unicode="E" horiz-adv-x="613" 
d="M638 546h-333l-28 -124h304l-32 -141h-305l-29 -127h333l-36 -154h-510l162 700h510z" />
    <glyph glyph-name="F" unicode="F" horiz-adv-x="581" 
d="M613 543h-307l-33 -141h289l-35 -151h-289l-58 -251h-178l162 700h486z" />
    <glyph glyph-name="G" unicode="G" horiz-adv-x="768" 
d="M748 443h-173q4 55 -27.5 85.5t-89.5 30.5q-94 0 -161.5 -75t-67.5 -184q0 -79 39.5 -121t116.5 -42q62 0 111.5 28.5t65.5 94.5h-205l28 121h355l-14 -61l-74 -320h-104l4 83q-80 -93 -221 -93q-131 0 -208 78t-77 223q0 182 118 300.5t303 118.5q146 0 223 -75t58 -192
z" />
    <glyph glyph-name="H" unicode="H" horiz-adv-x="757" 
d="M616 700h185l-162 -700h-185l65 280h-267l-65 -280h-185l162 700h185l-62 -269h267z" />
    <glyph glyph-name="I" unicode="I" horiz-adv-x="300" 
d="M182 0h-180l162 700h180z" />
    <glyph glyph-name="J" unicode="J" horiz-adv-x="672" 
d="M538 700h179l-110 -482q-26 -115 -108 -171.5t-205 -56.5q-151 0 -219.5 80t-36.5 219l7 31h180l-7 -31q-34 -149 87 -149q50 0 83.5 29.5t50.5 103.5z" />
    <glyph glyph-name="K" unicode="K" horiz-adv-x="687" 
d="M770 700l-332 -299l191 -401h-190l-135 280l-79 -71l-48 -209h-175l162 700h175l-55 -239l254 239h232z" />
    <glyph glyph-name="L" unicode="L" horiz-adv-x="592" 
d="M218 158h335l-36 -158h-515l162 700h179z" />
    <glyph glyph-name="M" unicode="M" horiz-adv-x="935" 
d="M979 700l-162 -700h-167l109 472l-270 -472h-161l-49 476l-110 -476h-167l162 700h230l56 -500l274 500h255z" />
    <glyph glyph-name="N" unicode="N" horiz-adv-x="758" 
d="M630 700h172l-162 -700h-203l-150 483l-112 -483h-173l162 700h204l150 -484z" />
    <glyph glyph-name="O" unicode="O" horiz-adv-x="794" 
d="M364 -10q-149 0 -233 78t-84 226q0 181 119 298.5t310 117.5q149 0 233 -78t84 -226q0 -181 -119 -298.5t-310 -117.5zM377 141q94 0 157.5 77t63.5 184q0 75 -34.5 116t-100.5 41q-94 0 -157.5 -77t-63.5 -184q0 -75 34.5 -116t100.5 -41z" />
    <glyph glyph-name="P" unicode="P" horiz-adv-x="629" 
d="M420 700q125 0 184.5 -64t59.5 -162q0 -51 -16.5 -97.5t-51 -88t-98.5 -66.5t-150 -25h-123l-46 -197h-176l46 197h-1l30 126l87 377h176h79zM357 341q60 0 92.5 36t32.5 83q0 94 -91 94h-84l-49 -213h99z" />
    <glyph glyph-name="Q" unicode="Q" horiz-adv-x="794" 
d="M793 406q0 -176 -113 -292l85 -114h-161l-28 38q-94 -48 -212 -48q-149 0 -233 78t-84 226q0 181 119 298.5t310 117.5q149 0 233 -78t84 -226zM377 141q54 0 101 28l-111 148l104 79l96 -129q31 62 31 135q0 75 -34.5 116t-100.5 41q-94 0 -157.5 -77t-63.5 -184
q0 -75 34.5 -116t100.5 -41z" />
    <glyph glyph-name="R" unicode="R" horiz-adv-x="665" 
d="M676 501q0 -163 -212 -203q64 -17 95 -55.5t38 -113.5l13 -129h-186l-15 126q-7 64 -45 85.5t-136 21.5l-54 -233h-172l162 700h252q137 0 198.5 -56t61.5 -143zM371 373q56 0 87 27t31 69q0 34 -22.5 55.5t-70.5 21.5h-96l-40 -173h111z" />
    <glyph glyph-name="S" unicode="S" horiz-adv-x="653" 
d="M223 230q-8 -44 16.5 -69t72.5 -25q37 0 62.5 15.5t25.5 46.5q0 29 -25 42t-91 28q-107 25 -158 68.5t-51 126.5q0 116 89 181.5t217 65.5q62 0 117.5 -16.5t99 -48.5t63 -85.5t6.5 -120.5h-174q11 59 -20 88.5t-90 29.5q-54 0 -90 -22t-36 -58q0 -23 18.5 -40t38 -23.5
t57.5 -16.5q40 -10 63.5 -17.5t56.5 -23.5t50.5 -34.5t31 -49t13.5 -70.5q0 -104 -78 -158t-196 -54q-138 0 -211 69.5t-55 170.5h177z" />
    <glyph glyph-name="T" unicode="T" horiz-adv-x="649" 
d="M733 700l-36 -154h-215l-126 -546h-180l126 546h-214l36 154h609z" />
    <glyph glyph-name="U" unicode="U" horiz-adv-x="752" 
d="M162 700h180l-91 -393q-38 -164 104 -164q134 0 172 164l91 393h180l-100 -432q-30 -131 -122 -204.5t-242 -73.5q-160 0 -228 86.5t-28 259.5z" />
    <glyph glyph-name="V" unicode="V" horiz-adv-x="754" 
d="M648 700h210l-430 -700h-218l-106 700h193l57 -514z" />
    <glyph glyph-name="W" unicode="W" horiz-adv-x="1044" 
d="M950 700h193l-358 -700h-187l-14 490l-241 -490h-201l-33 700h182l1 -486l238 486h193l12 -459z" />
    <glyph glyph-name="X" unicode="X" horiz-adv-x="723" 
d="M802 700l-310 -344l163 -356h-201l-96 207l-186 -207h-220l331 368l-154 332h205l83 -182l164 182h221z" />
    <glyph glyph-name="Y" unicode="Y" horiz-adv-x="747" 
d="M628 700h218l-542 -700h-220l227 288l-202 412h208l117 -260z" />
    <glyph glyph-name="Z" unicode="Z" horiz-adv-x="681" 
d="M729 700l-24 -104l-428 -442h339l-36 -154h-603l24 104l428 442h-309l36 154h573z" />
    <glyph glyph-name="bracketleft" unicode="[" horiz-adv-x="378" 
d="M485 715h-174l-182 -786h175l-30 -127h-317l240 1040h317z" />
    <glyph glyph-name="backslash" unicode="\" horiz-adv-x="492" 
d="M423 -50h-149l-159 800h149z" />
    <glyph glyph-name="bracketright" unicode="]" horiz-adv-x="377" 
d="M454 842l-240 -1040h-317l29 127h174l182 786h-175l30 127h317z" />
    <glyph glyph-name="asciicircum" unicode="^" horiz-adv-x="585" 
d="M467 700l113 -380h-157l-59 207l-155 -206h-173l289 379h142z" />
    <glyph glyph-name="underscore" unicode="_" horiz-adv-x="517" 
d="M-17 48h457l-30 -130h-457z" />
    <glyph glyph-name="grave" unicode="`" horiz-adv-x="450" 
d="M348 700l77 -145h-121l-124 145h168z" />
    <glyph glyph-name="a" unicode="a" horiz-adv-x="611" 
d="M451 500h162l-115 -500h-162l10 46q-51 -56 -144 -56q-82 0 -134 53.5t-52 153.5q0 132 86 222.5t194 90.5q98 0 142 -68zM261 109q42 0 78 32.5t49 85.5l3 11q4 19 4 43q0 98 -76 98q-57 0 -94 -52t-37 -121q0 -47 19 -72t54 -25z" />
    <glyph glyph-name="b" unicode="b" horiz-adv-x="611" 
d="M401 510q82 0 135 -61.5t53 -162.5q0 -124 -77.5 -210t-193.5 -86q-101 0 -143 70l-14 -60h-164l164 710h164l-59 -254q54 54 135 54zM291 109q57 0 91 51t34 119q0 100 -76 100q-54 0 -88.5 -49t-34.5 -121q0 -100 74 -100z" />
    <glyph glyph-name="c" unicode="c" horiz-adv-x="581" 
d="M390 299q7 81 -66 81q-60 0 -98 -49t-38 -115q0 -44 21 -69t56 -25q74 0 108 82h162q-33 -103 -103.5 -158.5t-173.5 -55.5q-114 0 -176 59t-62 158q0 128 87 215.5t224 87.5q115 0 174 -61t46 -150h-161z" />
    <glyph glyph-name="d" unicode="d" horiz-adv-x="610" 
d="M497 710h164l-164 -710h-164l11 49q-50 -59 -142 -59q-88 0 -136 56.5t-48 152.5q0 133 86 222t199 89q93 0 134 -59zM265 109q55 0 90.5 52t35.5 121q0 97 -76 97q-58 0 -91.5 -53t-33.5 -119q0 -46 19 -72t56 -26z" />
    <glyph glyph-name="e" unicode="e" horiz-adv-x="576" 
d="M321 510q120 0 175.5 -72t38.5 -202q-2 -18 -4 -24h-346v-6q0 -49 19.5 -71t64.5 -22q67 0 94 58h161q-39 -93 -102 -137t-162 -44q-121 0 -180.5 60t-59.5 159q0 122 81 211.5t220 89.5zM205 307h177q7 85 -65 85q-75 0 -112 -85z" />
    <glyph glyph-name="f" unicode="f" horiz-adv-x="443" 
d="M416 573q-35 0 -55 -19t-26 -47l-2 -7h142l-26 -115h-142l-89 -385h-168l88 385h-93l26 115h93l6 25q41 175 222 175h160l-30 -127h-106z" />
    <glyph glyph-name="g" unicode="g" horiz-adv-x="610" 
d="M451 500h161l-103 -449l-15 -66q-25 -112 -95.5 -163.5t-195.5 -51.5q-75 0 -125 17t-72 46.5t-28.5 60t-1.5 67.5h155q-4 -34 15.5 -51.5t66.5 -17.5q51 0 80 24t42 78l12 54q-56 -58 -150 -58q-84 0 -132 54.5t-48 150.5q0 134 86.5 224.5t198.5 90.5q46 0 84.5 -17
t51.5 -51zM261 109q56 0 94.5 49.5t38.5 124.5q0 98 -74 98q-57 0 -95.5 -51t-38.5 -124q0 -97 75 -97z" />
    <glyph glyph-name="h" unicode="h" horiz-adv-x="622" 
d="M451 510q80 0 116 -56t9 -173l-65 -281h-170l57 244q17 68 8 98.5t-51 30.5q-48 0 -86 -47t-67 -171l-36 -155h-168l115 500l49 210h168l-49 -210l-22 -97q75 107 192 107z" />
    <glyph glyph-name="i" unicode="i" horiz-adv-x="281" 
d="M127 562l32 138h172l-32 -138h-172zM168 0h-170l115 500h170z" />
    <glyph glyph-name="j" unicode="j" horiz-adv-x="281" 
d="M159 700h172l-32 -138h-172zM113 500h170l-100 -433l-23 -103q-22 -95 -82 -139.5t-165 -44.5h-141l31 132h72q103 0 124 93l16 69z" />
    <glyph glyph-name="k" unicode="k" horiz-adv-x="570" 
d="M616 500l-246 -215l142 -285h-168l-91 183l-66 -58l-29 -125h-161l164 710h161l-86 -374l181 164h199z" />
    <glyph glyph-name="l" unicode="l" horiz-adv-x="282" 
d="M169 0h-172l164 710h172z" />
    <glyph glyph-name="m" unicode="m" horiz-adv-x="920" 
d="M758 510q75 0 109 -55.5t6 -177.5l-64 -277h-164l62 267q13 58 3.5 82t-42.5 24q-43 0 -78.5 -43t-62.5 -153l-40 -177h-164l62 267q13 58 4 82t-42 24q-93 0 -140 -192l-42 -181h-167l115 500h167l-24 -105q68 115 180 115q123 0 127 -127q78 127 195 127z" />
    <glyph glyph-name="n" unicode="n" horiz-adv-x="622" 
d="M451 510q80 0 116 -56t9 -173l-65 -281h-170l57 244q17 68 8 98.5t-51 30.5q-48 0 -86 -47t-67 -171l-36 -155h-168l115 500h168l-22 -97q75 107 192 107z" />
    <glyph glyph-name="o" unicode="o" horiz-adv-x="584" 
d="M248 -10q-108 0 -168 55.5t-60 162.5q0 135 89.5 218.5t226.5 83.5q108 0 167.5 -56t59.5 -163q0 -135 -89 -218t-226 -83zM267 116q61 0 93 54.5t32 119.5q0 93 -73 93q-58 0 -92.5 -52.5t-34.5 -120.5q0 -94 75 -94z" />
    <glyph glyph-name="p" unicode="p" horiz-adv-x="615" 
d="M406 510q82 0 135 -60t53 -160q0 -123 -77 -211.5t-185 -88.5q-98 0 -151 78l-66 -288h-168l166 720h168l-12 -52l1 1v1q53 60 136 60zM297 109q52 0 88 49t36 115q0 46 -19 76t-58 30q-51 0 -87 -49t-36 -119q0 -49 19.5 -75.5t56.5 -26.5z" />
    <glyph glyph-name="q" unicode="q" horiz-adv-x="615" 
d="M449 500h168l-166 -720h-168l60 262q-43 -52 -133 -52q-91 0 -141 57.5t-50 155.5q0 131 81.5 219t190.5 88q48 0 88 -18.5t57 -48.5zM263 109q51 0 89.5 49t38.5 122q0 99 -73 99q-54 0 -90.5 -51.5t-36.5 -120.5q0 -46 18.5 -72t53.5 -26z" />
    <glyph glyph-name="r" unicode="r" horiz-adv-x="468" 
d="M431 500h81l-32 -142h-65q-42 0 -67.5 -5t-54.5 -23t-49.5 -58.5t-36.5 -105.5l-38 -166h-171l115 500h171l-22 -96q53 96 169 96z" />
    <glyph glyph-name="s" unicode="s" horiz-adv-x="528" 
d="M177 167q-7 -63 60 -63q57 0 57 39q0 20 -17 29t-68 22q-82 21 -125 52.5t-43 93.5q0 78 66.5 124t176.5 46q120 0 180 -53.5t52 -133.5h-151q1 30 -22.5 47t-62.5 17q-30 0 -51.5 -10t-21.5 -31q0 -10 5 -16.5t19.5 -12t25.5 -8.5t37 -9q78 -18 121 -49.5t43 -97.5
q0 -79 -62 -121t-159 -42q-109 0 -168.5 51t-47.5 126h156z" />
    <glyph glyph-name="t" unicode="t" horiz-adv-x="422" 
d="M294 385l-37 -162q-11 -46 6 -69.5t70 -23.5h46l-30 -130h-75q-110 0 -160.5 59.5t-27.5 158.5l38 167h-91l26 115h92l25 110l177 30l-32 -140h133l-26 -115h-134z" />
    <glyph glyph-name="u" unicode="u" horiz-adv-x="621" 
d="M455 500h168l-115 -500h-168l21 90q-65 -100 -182 -100q-85 0 -123 54.5t-13 162.5l67 293h171l-62 -267q-14 -55 -3.5 -80.5t49.5 -25.5q49 0 86.5 45.5t66.5 166.5z" />
    <glyph glyph-name="v" unicode="v" horiz-adv-x="583" 
d="M460 500h190l-321 -500h-191l-91 500h166l46 -338z" />
    <glyph glyph-name="w" unicode="w" horiz-adv-x="786" 
d="M677 500h166l-258 -500h-154l-18 340l-174 -340h-154l-28 500h149l7 -304l151 304h161l13 -289z" />
    <glyph glyph-name="x" unicode="x" horiz-adv-x="552" 
d="M499 0h-184l-63 126l-112 -126h-203l245 259l-122 241h179l57 -128l113 128h196l-235 -251z" />
    <glyph glyph-name="y" unicode="y" horiz-adv-x="592" 
d="M480 500h184l-391 -597q-44 -67 -97.5 -95t-153.5 -28h-102l30 130h62q57 0 81 17t63 73l24 34l-138 466h171l82 -306z" />
    <glyph glyph-name="z" unicode="z" horiz-adv-x="504" 
d="M516 500l-22 -99l-272 -267h219l-31 -134h-448l21 90l286 277h-212l30 133h429z" />
    <glyph glyph-name="braceleft" unicode="{" horiz-adv-x="430" 
d="M456 842h111l-29 -126h-60q-87 0 -109 -90l-38 -163q-28 -117 -157 -148q111 -50 82 -176l-25 -107q-23 -104 90 -104h35l-29 -126h-66q-94 0 -145 62t-28 164l27 116q13 55 -8.5 83t-82.5 41l9 39l16 69q67 13 101.5 41t46.5 83l35 153q19 82 78.5 135.5t145.5 53.5z
" />
    <glyph glyph-name="bar" unicode="|" horiz-adv-x="262" 
d="M121 -100h-142l208 900h142z" />
    <glyph glyph-name="braceright" unicode="}" horiz-adv-x="431" 
d="M440 376l-9 -39l-16 -69q-67 -13 -101.5 -41t-46.5 -83l-35 -153q-19 -82 -78.5 -135.5t-145.5 -53.5h-111l29 126h60q87 0 109 90l38 163q28 117 157 148q-111 50 -82 176l25 107q23 104 -90 104h-35l29 126h66q94 0 145 -62t28 -164l-27 -116q-13 -55 8.5 -83t82.5 -41
z" />
    <glyph glyph-name="asciitilde" unicode="~" horiz-adv-x="600" 
d="M18 157q20 85 71 138.5t125 53.5q46 0 81.5 -20.5t61.5 -40.5t50 -20q20 0 33 11t18 21.5t14 35.5h108q-20 -85 -71 -138t-125 -53q-36 0 -65.5 12.5t-45 28t-35.5 28t-40 12.5q-29 0 -45.5 -18.5t-27.5 -50.5h-107z" />
    <glyph glyph-name="uni00A0" unicode="&#xa0;" horiz-adv-x="240" 
 />
    <glyph glyph-name="exclamdown" unicode="&#xa1;" horiz-adv-x="281" 
d="M284 480l-39 -170h-182l39 170h182zM119 -220h-176l134 461h122z" />
    <glyph glyph-name="cent" unicode="&#xa2;" horiz-adv-x="608" 
d="M602 403h-151q3 40 -20 61.5t-68 21.5q-67 0 -114.5 -45.5t-47.5 -125.5q0 -107 99 -107q91 0 126 83h156q-66 -184 -255 -203l-20 -88h-131l22 96q-74 20 -114 73.5t-40 138.5q0 118 76 199t196 100l22 93h131l-22 -93q81 -15 123 -66.5t32 -137.5z" />
    <glyph glyph-name="sterling" unicode="&#xa3;" horiz-adv-x="656" 
d="M633 446l-152 1q24 128 -76 128q-49 0 -77.5 -29.5t-28.5 -67.5q0 -23 11.5 -42.5t33.5 -44t32 -40.5h170l-24 -102h-118q-3 -74 -58 -115h218l-31 -134h-522l25 109q105 6 158 34t53 91q0 10 -1 15h-174l24 102h98q-17 22 -26.5 37.5t-18 42t-8.5 56.5q0 102 81 162.5
t190 60.5q116 0 181 -71t40 -193z" />
    <glyph glyph-name="currency" unicode="&#xa4;" horiz-adv-x="648" 
d="M561 286q0 -87 -53 -148l59 -77l-92 -71l-63 77q-60 -26 -132 -26q-64 0 -110 26l-98 -77l-65 78l92 79q-13 29 -13 67q0 87 53 149l-58 74l92 73l62 -77q60 26 131 26q62 0 111 -27l99 78l66 -82l-94 -76q13 -29 13 -66zM304 165q48 0 79.5 28.5t31.5 75.5
q0 31 -19.5 48.5t-52.5 17.5q-47 0 -79 -29t-32 -75q0 -31 19 -48.5t53 -17.5z" />
    <glyph glyph-name="yen" unicode="&#xa5;" horiz-adv-x="710" 
d="M810 698l-290 -298h128l-23 -100h-179l-15 -64h179l-23 -100h-179l-31 -136h-160l31 136h-179l23 100h179l15 64h-179l23 100h142l-152 298h170l106 -225l210 225h204z" />
    <glyph glyph-name="brokenbar" unicode="&#xa6;" horiz-adv-x="262" 
d="M255 480h-142l74 320h142zM121 -100h-142l74 320h142z" />
    <glyph glyph-name="section" unicode="&#xa7;" horiz-adv-x="473" 
d="M499 510h-122q9 40 -9 65t-63 25q-35 0 -52 -14.5t-17 -36.5t19 -34.5t74 -32.5q73 -27 103 -56t30 -77q0 -95 -106 -132q50 -46 50 -110q0 -75 -61.5 -121t-154.5 -46q-106 0 -159.5 59.5t-35.5 148.5h129q-20 -99 72 -99q36 0 53.5 15t17.5 39q0 21 -16.5 33t-66.5 32
q-33 13 -50.5 22t-39.5 24.5t-32 37.5t-10 51q0 88 103 123q-58 45 -58 114q0 75 61 122.5t154 47.5q104 0 153.5 -59.5t33.5 -140.5zM287 260h1q45 19 45 56q0 13 -5 22.5t-17 16.5t-21.5 11t-30.5 11.5t-32 11.5q-45 -19 -45 -55q0 -12 5 -21.5t17 -17t22.5 -12t30 -11.5
t30.5 -12z" />
    <glyph glyph-name="dieresis" unicode="&#xa8;" horiz-adv-x="450" 
d="M119 569l30 131h140l-30 -131h-140zM339 569l30 131h140l-30 -131h-140z" />
    <glyph glyph-name="copyright" unicode="&#xa9;" 
d="M415 -10q-152 0 -255 103.5t-103 256.5t103 256.5t255 103.5t255 -103.5t103 -256.5t-103 -256.5t-255 -103.5zM415 70q115 0 193 81.5t78 198.5t-78 198.5t-193 81.5t-193 -81.5t-78 -198.5t78 -198.5t193 -81.5zM597 313q-7 -80 -55 -121.5t-123 -41.5q-89 0 -140.5 54
t-51.5 145q0 92 51 146.5t137 54.5q75 0 122 -41.5t55 -108.5h-99q-11 65 -75 65q-44 0 -68 -30.5t-24 -83.5q0 -56 25 -88t68 -32q66 0 79 82h99z" />
    <glyph glyph-name="guillemotleft" unicode="&#xab;" horiz-adv-x="659" 
d="M417 490l-211 -209l103 -181h-172l-102 200l192 190h190zM685 490l-211 -209l103 -181h-172l-102 200l192 190h190z" />
    <glyph glyph-name="logicalnot" unicode="&#xac;" horiz-adv-x="570" 
d="M571 384l-21 -90l-9 -39l-40 -171h-138l40 171h-372l30 130h510v-1z" />
    <glyph glyph-name="uni00AD" unicode="&#xad;" horiz-adv-x="517" 
d="M55 360h457l-30 -130h-457z" />
    <glyph glyph-name="registered" unicode="&#xae;" 
d="M415 710q152 0 255 -103.5t103 -256.5t-103 -256.5t-255 -103.5t-255 103.5t-103 256.5t103 256.5t255 103.5zM415 70q115 0 193 81.5t78 198.5t-78 198.5t-193 81.5t-193 -81.5t-78 -198.5t78 -198.5t193 -81.5zM470 328q37 -7 57 -26t32 -58l24 -84h-107l-24 80
q-5 18 -12 29t-18.5 15t-18.5 4.5t-26 0.5v-129h-95v390h127q82 0 118 -35.5t36 -87.5q0 -82 -93 -99zM410 464h-33v-96h33q26 0 39 13t13 34q0 49 -52 49z" />
    <glyph glyph-name="macron" unicode="&#xaf;" horiz-adv-x="450" 
d="M169 680h310l-24 -103h-310z" />
    <glyph glyph-name="degree" unicode="&#xb0;" horiz-adv-x="404" 
d="M248 410q-62 0 -100.5 39t-38.5 98q0 75 59.5 129t134.5 54q62 0 100.5 -39t38.5 -98q0 -75 -59.5 -129t-134.5 -54zM265 521q23 0 40 18t17 42q0 17 -9.5 27.5t-26.5 10.5q-23 0 -40 -18t-17 -42q0 -17 9.5 -27.5t26.5 -10.5z" />
    <glyph glyph-name="plusminus" unicode="&#xb1;" horiz-adv-x="572" 
d="M386 385h187l-30 -123h-185l-22 -95h-137l22 95h-188l30 123h186l22 95h137zM-27 0l30 125h510l-30 -125h-510z" />
    <glyph glyph-name="uni00B2" unicode="&#xb2;" horiz-adv-x="376" 
d="M372 410h-284l13 56l91 56q78 49 107.5 77t29.5 63t-29 35q-48 0 -68 -84h-92q16 75 57.5 118.5t109.5 43.5q55 0 87 -28t32 -78q0 -46 -29 -82t-90 -77l-39 -26h121z" />
    <glyph glyph-name="uni00B3" unicode="&#xb3;" horiz-adv-x="360" 
d="M339 575q38 -16 38 -68q0 -43 -36.5 -75t-106.5 -32q-76 0 -108.5 37t-21.5 89h95q-9 -49 36 -49q23 0 38 12.5t15 29.5q0 31 -50 31h-18l14 59h33q28 0 45 14t17 37q0 36 -43 36q-60 0 -79 -64h-92q42 139 176 139q64 0 99 -27t35 -74q0 -71 -86 -95z" />
    <glyph glyph-name="acute" unicode="&#xb4;" horiz-adv-x="450" 
d="M307 700h183l-180 -145h-133z" />
    <glyph glyph-name="uni00B5" unicode="&#xb5;" horiz-adv-x="621" 
d="M455 500h168l-115 -500h-168l21 90q-65 -100 -182 -100q-19 0 -36 3l-49 -213h-150l108 468l58 252h171l-62 -267q-14 -55 -3.5 -80.5t49.5 -25.5q49 0 86.5 45.5t66.5 166.5z" />
    <glyph glyph-name="paragraph" unicode="&#xb6;" horiz-adv-x="569" 
d="M105 473q0 70 39.5 125t102.5 81q51 21 149 21h247l-12 -52h-80l-150 -648h-60l150 648h-80l-150 -648h-60l74 320q-85 0 -132 49q-38 36 -38 104z" />
    <glyph glyph-name="periodcentered" unicode="&#xb7;" horiz-adv-x="242" 
d="M29 245l39 170h182l-39 -170h-182z" />
    <glyph glyph-name="cedilla" unicode="&#xb8;" horiz-adv-x="450" 
d="M200 0q45 -43 45 -93q0 -127 -179 -127h-43l18 77h37q42 0 62.5 19.5t20.5 47.5q0 37 -50 76h89z" />
    <glyph glyph-name="uni00B9" unicode="&#xb9;" horiz-adv-x="309" 
d="M374 770l-83 -360h-95l48 208q-55 -24 -127 -25l19 81q59 0 106 22.5t59 73.5h73z" />
    <glyph glyph-name="guillemotright" unicode="&#xbb;" horiz-adv-x="659" 
d="M271 490l102 -200l-192 -190h-190l211 209l-103 181h172zM539 490l102 -200l-192 -190h-190l211 209l-103 181h172z" />
    <glyph glyph-name="onequarter" unicode="&#xbc;" horiz-adv-x="788" 
d="M14 0l748 700h118l-748 -700h-118zM358 700l-83 -360h-95l48 208q-55 -24 -127 -25l19 81q59 0 106 22.5t59 73.5h73zM746 142l-17 -73h-56l-16 -69h-87l16 69h-173l12 54l209 237h106l-50 -218h56zM530 142h73l26 115z" />
    <glyph glyph-name="onehalf" unicode="&#xbd;" horiz-adv-x="848" 
d="M14 0l748 700h118l-748 -700h-118zM358 700l-83 -360h-95l48 208q-55 -24 -127 -25l19 81q59 0 106 22.5t59 73.5h73zM749 0h-284l13 56l91 56q78 49 107.5 77t29.5 63t-29 35q-48 0 -68 -84h-92q16 75 57.5 118.5t109.5 43.5q55 0 87 -28t32 -78q0 -46 -29 -82t-90 -77
l-39 -26h121z" />
    <glyph glyph-name="threequarters" unicode="&#xbe;" horiz-adv-x="808" 
d="M323 505q38 -16 38 -68q0 -43 -36.5 -75t-106.5 -32q-76 0 -108.5 37t-21.5 89h95q-9 -49 36 -49q23 0 38 12.5t15 29.5q0 31 -50 31h-18l14 59h33q28 0 45 14t17 37q0 36 -43 36q-60 0 -79 -64h-92q42 139 176 139q64 0 99 -27t35 -74q0 -71 -86 -95zM34 0l748 700h118
l-748 -700h-118zM766 142l-17 -73h-56l-16 -69h-87l16 69h-173l12 54l209 237h106l-50 -218h56zM550 142h73l26 115z" />
    <glyph glyph-name="questiondown" unicode="&#xbf;" horiz-adv-x="476" 
d="M188 310l39 170h182l-39 -170h-182zM148 -229q-99 0 -155.5 45.5t-56.5 126.5q0 50 23 86t57 56.5t69.5 39t64 46.5t36.5 66l1 5h152l-5 -21q-13 -54 -41.5 -92t-59.5 -57.5t-61 -35t-49 -34.5t-19 -46q0 -51 54 -51q36 0 66.5 26.5t44.5 89.5h156q-44 -250 -277 -250z
" />
    <glyph glyph-name="Agrave" unicode="&#xc0;" horiz-adv-x="731" 
d="M584 776h-133l-136 159h185zM488 0l-14 143h-258l-81 -143h-188l416 700h213l92 -700h-180zM295 282h165l-25 246z" />
    <glyph glyph-name="Aacute" unicode="&#xc1;" horiz-adv-x="731" 
d="M722 935l-198 -159h-146l143 159h201zM576 700l92 -700h-180l-14 143h-258l-81 -143h-188l416 700h213zM295 282h165l-25 246z" />
    <glyph glyph-name="Acircumflex" unicode="&#xc2;" horiz-adv-x="731" 
d="M500 840l-70 -67h-140l158 148h136l87 -148h-133zM576 700l92 -700h-180l-14 143h-258l-81 -143h-188l416 700h213zM295 282h165l-25 246z" />
    <glyph glyph-name="Atilde" unicode="&#xc3;" horiz-adv-x="731" 
d="M646 919h105q-51 -157 -185 -157q-51 0 -88.5 22.5t-57.5 22.5q-37 0 -59 -40h-103q48 158 184 158q39 0 64 -11.5t41.5 -22.5t35.5 -11q43 0 63 39zM576 700l92 -700h-180l-14 143h-258l-81 -143h-188l416 700h213zM295 282h165l-25 246z" />
    <glyph glyph-name="Adieresis" unicode="&#xc4;" horiz-adv-x="731" 
d="M472 920l-34 -144h-154l33 144h155zM559 920h155l-34 -144h-154zM576 700l92 -700h-180l-14 143h-258l-81 -143h-188l416 700h213zM295 282h165l-25 246z" />
    <glyph glyph-name="Aring" unicode="&#xc5;" horiz-adv-x="731" 
d="M488 0l-14 143h-258l-81 -143h-188l403 677q-8 22 -8 44q0 58 44.5 99.5t104.5 41.5q52 0 81.5 -32t29.5 -78q0 -39 -23 -75l89 -677h-180zM480 771q-16 0 -29.5 -13t-13.5 -29q0 -12 7.5 -20.5t19.5 -8.5q16 0 29.5 13t13.5 29q0 12 -7.5 20.5t-19.5 8.5zM295 282h165
l-25 246z" />
    <glyph glyph-name="AE" unicode="&#xc6;" horiz-adv-x="907" 
d="M933 548h-337l17 -126h262l-32 -141h-212l17 -129h193l-35 -152h-318l-14 143h-258l-81 -143h-188l416 700h605zM295 282h165l-25 246z" />
    <glyph glyph-name="Ccedilla" unicode="&#xc7;" horiz-adv-x="753" 
d="M756 440h-179q3 56 -27 86.5t-95 30.5q-106 0 -167 -76t-61 -186q0 -159 136 -159q133 0 185 147h179q-33 -136 -125 -209t-218 -83q40 -42 40 -93q0 -140 -197 -140h-47l20 85h41q46 0 68.5 21t22.5 52q0 38 -48 78q-118 16 -179 93t-61 199q0 179 119.5 301.5
t307.5 122.5q149 0 223 -78t62 -192z" />
    <glyph glyph-name="Egrave" unicode="&#xc8;" horiz-adv-x="613" 
d="M533 776h-133l-136 159h185zM638 546h-333l-28 -124h304l-32 -141h-305l-29 -127h333l-36 -154h-510l162 700h510z" />
    <glyph glyph-name="Eacute" unicode="&#xc9;" horiz-adv-x="613" 
d="M671 935l-198 -159h-146l143 159h201zM638 546h-333l-28 -124h304l-32 -141h-305l-29 -127h333l-36 -154h-510l162 700h510z" />
    <glyph glyph-name="Ecircumflex" unicode="&#xca;" horiz-adv-x="613" 
d="M449 840l-70 -67h-140l158 148h136l87 -148h-133zM638 546h-333l-28 -124h304l-32 -141h-305l-29 -127h333l-36 -154h-510l162 700h510z" />
    <glyph glyph-name="Edieresis" unicode="&#xcb;" horiz-adv-x="613" 
d="M421 920l-34 -144h-154l33 144h155zM663 920l-34 -144h-154l33 144h155zM638 546h-333l-28 -124h304l-32 -141h-305l-29 -127h333l-36 -154h-510l162 700h510z" />
    <glyph glyph-name="Igrave" unicode="&#xcc;" horiz-adv-x="300" 
d="M284 935l84 -159h-133l-136 159h185zM182 0h-180l162 700h180z" />
    <glyph glyph-name="Iacute" unicode="&#xcd;" horiz-adv-x="300" 
d="M305 935h201l-198 -159h-146zM182 0h-180l162 700h180z" />
    <glyph glyph-name="Icircumflex" unicode="&#xce;" horiz-adv-x="300" 
d="M455 773h-133l-38 67l-70 -67h-140l158 148h136zM182 0h-180l162 700h180z" />
    <glyph glyph-name="Idieresis" unicode="&#xcf;" horiz-adv-x="300" 
d="M68 776l33 144h155l-34 -144h-154zM310 776l33 144h155l-34 -144h-154zM182 0h-180l162 700h180z" />
    <glyph glyph-name="Eth" unicode="&#xd0;" horiz-adv-x="731" 
d="M411 700q157 0 237 -81t80 -222q0 -75 -23 -142.5t-71 -126t-134.5 -93.5t-200.5 -35h-297l65 279h-136l33 142h135l65 279h247zM307 149q107 0 169.5 65t62.5 180q0 80 -37.5 118.5t-129.5 38.5h-62l-31 -130h176l-33 -142h-175l-31 -130h91z" />
    <glyph glyph-name="Ntilde" unicode="&#xd1;" horiz-adv-x="758" 
d="M433 807q-37 0 -59 -40h-103q48 158 184 158q39 0 64 -11.5t41.5 -22.5t35.5 -11q43 0 63 39h105q-51 -157 -185 -157q-51 0 -88.5 22.5t-57.5 22.5zM630 700h172l-162 -700h-203l-150 483l-112 -483h-173l162 700h204l150 -484z" />
    <glyph glyph-name="Ograve" unicode="&#xd2;" horiz-adv-x="794" 
d="M514 935l84 -159h-133l-136 159h185zM364 -10q-149 0 -233 78t-84 226q0 181 119 298.5t310 117.5q149 0 233 -78t84 -226q0 -181 -119 -298.5t-310 -117.5zM377 141q94 0 157.5 77t63.5 184q0 75 -34.5 116t-100.5 41q-94 0 -157.5 -77t-63.5 -184q0 -75 34.5 -116
t100.5 -41z" />
    <glyph glyph-name="Oacute" unicode="&#xd3;" horiz-adv-x="794" 
d="M535 935h201l-198 -159h-146zM364 -10q-149 0 -233 78t-84 226q0 181 119 298.5t310 117.5q149 0 233 -78t84 -226q0 -181 -119 -298.5t-310 -117.5zM377 141q94 0 157.5 77t63.5 184q0 75 -34.5 116t-100.5 41q-94 0 -157.5 -77t-63.5 -184q0 -75 34.5 -116t100.5 -41z
" />
    <glyph glyph-name="Ocircumflex" unicode="&#xd4;" horiz-adv-x="794" 
d="M685 773h-133l-38 67l-70 -67h-140l158 148h136zM364 -10q-149 0 -233 78t-84 226q0 181 119 298.5t310 117.5q149 0 233 -78t84 -226q0 -181 -119 -298.5t-310 -117.5zM377 141q94 0 157.5 77t63.5 184q0 75 -34.5 116t-100.5 41q-94 0 -157.5 -77t-63.5 -184
q0 -75 34.5 -116t100.5 -41z" />
    <glyph glyph-name="Otilde" unicode="&#xd5;" horiz-adv-x="794" 
d="M272 767q48 158 184 158q39 0 64 -11.5t41.5 -22.5t35.5 -11q43 0 63 39h105q-51 -157 -185 -157q-51 0 -88.5 22.5t-57.5 22.5q-37 0 -59 -40h-103zM364 -10q-149 0 -233 78t-84 226q0 181 119 298.5t310 117.5q149 0 233 -78t84 -226q0 -181 -119 -298.5t-310 -117.5z
M377 141q94 0 157.5 77t63.5 184q0 75 -34.5 116t-100.5 41q-94 0 -157.5 -77t-63.5 -184q0 -75 34.5 -116t100.5 -41z" />
    <glyph glyph-name="Odieresis" unicode="&#xd6;" horiz-adv-x="794" 
d="M298 776l33 144h155l-34 -144h-154zM540 776l33 144h155l-34 -144h-154zM364 -10q-149 0 -233 78t-84 226q0 181 119 298.5t310 117.5q149 0 233 -78t84 -226q0 -181 -119 -298.5t-310 -117.5zM377 141q94 0 157.5 77t63.5 184q0 75 -34.5 116t-100.5 41
q-94 0 -157.5 -77t-63.5 -184q0 -75 34.5 -116t100.5 -41z" />
    <glyph glyph-name="multiply" unicode="&#xd7;" horiz-adv-x="574" 
d="M543 378l-170 -139l107 -138l-100 -79l-105 137l-167 -137l-78 94l170 140l-107 139l99 78l106 -137l167 137z" />
    <glyph glyph-name="Oslash" unicode="&#xd8;" horiz-adv-x="794" 
d="M826 647l-75 -68q42 -72 42 -173q0 -181 -119 -298.5t-310 -117.5q-124 0 -204 54l-71 -64l-76 73l75 68q-41 70 -41 173q0 181 119 298.5t310 117.5q125 0 203 -54l71 64zM242 298q0 -12 2 -36l301 273q-31 24 -82 24q-94 0 -157.5 -77t-63.5 -184zM598 402q0 13 -2 37
l-302 -273q33 -25 83 -25q94 0 157.5 77t63.5 184z" />
    <glyph glyph-name="Ugrave" unicode="&#xd9;" horiz-adv-x="752" 
d="M510 935l84 -159h-133l-136 159h185zM162 700h180l-91 -393q-38 -164 104 -164q134 0 172 164l91 393h180l-100 -432q-30 -131 -122 -204.5t-242 -73.5q-160 0 -228 86.5t-28 259.5z" />
    <glyph glyph-name="Uacute" unicode="&#xda;" horiz-adv-x="752" 
d="M531 935h201l-198 -159h-146zM162 700h180l-91 -393q-38 -164 104 -164q134 0 172 164l91 393h180l-100 -432q-30 -131 -122 -204.5t-242 -73.5q-160 0 -228 86.5t-28 259.5z" />
    <glyph glyph-name="Ucircumflex" unicode="&#xdb;" horiz-adv-x="752" 
d="M681 773h-133l-38 67l-70 -67h-140l158 148h136zM162 700h180l-91 -393q-38 -164 104 -164q134 0 172 164l91 393h180l-100 -432q-30 -131 -122 -204.5t-242 -73.5q-160 0 -228 86.5t-28 259.5z" />
    <glyph glyph-name="Udieresis" unicode="&#xdc;" horiz-adv-x="752" 
d="M294 776l33 144h155l-34 -144h-154zM536 776l33 144h155l-34 -144h-154zM162 700h180l-91 -393q-38 -164 104 -164q134 0 172 164l91 393h180l-100 -432q-30 -131 -122 -204.5t-242 -73.5q-160 0 -228 86.5t-28 259.5z" />
    <glyph glyph-name="Yacute" unicode="&#xdd;" horiz-adv-x="747" 
d="M741 935l-198 -159h-146l143 159h201zM628 700h218l-542 -700h-220l227 288l-202 412h208l117 -260z" />
    <glyph glyph-name="Thorn" unicode="&#xde;" horiz-adv-x="611" 
d="M397 602q125 0 184.5 -64t59.5 -162q0 -51 -16.5 -97.5t-51 -88t-98.5 -66.5t-150 -25h-123l-23 -99h-176l23 99h-1l34 144l106 457h176l-23 -98h79zM334 243q60 0 92.5 36t32.5 83q0 94 -91 94h-83l-50 -213h99z" />
    <glyph glyph-name="germandbls" unicode="&#xdf;" horiz-adv-x="570" 
d="M456 389q93 -43 93 -162q0 -108 -75.5 -167.5t-217.5 -59.5h-32l30 132h19q61 0 90 32.5t29 75.5q0 37 -23 62t-72 25h-31l27 115h9q51 0 75.5 25t24.5 56q0 21 -12 35.5t-36 14.5q-28 0 -48.5 -20t-28.5 -56l-115 -497h-164l118 513q21 91 89 144t166 53
q92 0 147.5 -46.5t55.5 -126.5q0 -113 -118 -148z" />
    <glyph glyph-name="agrave" unicode="&#xe0;" horiz-adv-x="611" 
d="M437 555h-121l-124 145h168zM451 500h162l-115 -500h-162l10 46q-51 -56 -144 -56q-82 0 -134 53.5t-52 153.5q0 132 86 222.5t194 90.5q98 0 142 -68zM261 109q42 0 78 32.5t49 85.5l3 11q4 19 4 43q0 98 -76 98q-57 0 -94 -52t-37 -121q0 -47 19 -72t54 -25z" />
    <glyph glyph-name="aacute" unicode="&#xe1;" horiz-adv-x="611" 
d="M584 700l-180 -145h-133l130 145h183zM451 500h162l-115 -500h-162l10 46q-51 -56 -144 -56q-82 0 -134 53.5t-52 153.5q0 132 86 222.5t194 90.5q98 0 142 -68zM261 109q42 0 78 32.5t49 85.5l3 11q4 19 4 43q0 98 -76 98q-57 0 -94 -52t-37 -121q0 -47 19 -72t54 -25z
" />
    <glyph glyph-name="acircumflex" unicode="&#xe2;" horiz-adv-x="611" 
d="M378 626l-64 -61h-127l143 135h124l79 -135h-121zM451 500h162l-115 -500h-162l10 46q-51 -56 -144 -56q-82 0 -134 53.5t-52 153.5q0 132 86 222.5t194 90.5q98 0 142 -68zM261 109q42 0 78 32.5t49 85.5l3 11q4 19 4 43q0 98 -76 98q-57 0 -94 -52t-37 -121
q0 -47 19 -72t54 -25z" />
    <glyph glyph-name="atilde" unicode="&#xe3;" horiz-adv-x="611" 
d="M300 590q-31 0 -49 -36h-86q40 143 153 143q42 0 72 -20.5t46 -20.5q35 0 52 36h88q-43 -143 -154 -143q-43 0 -74 20.5t-48 20.5zM451 500h162l-115 -500h-162l10 46q-51 -56 -144 -56q-82 0 -134 53.5t-52 153.5q0 132 86 222.5t194 90.5q98 0 142 -68zM261 109
q42 0 78 32.5t49 85.5l3 11q4 19 4 43q0 98 -76 98q-57 0 -94 -52t-37 -121q0 -47 19 -72t54 -25z" />
    <glyph glyph-name="adieresis" unicode="&#xe4;" horiz-adv-x="611" 
d="M349 700l-30 -131h-140l30 131h140zM569 700l-30 -131h-140l30 131h140zM451 500h162l-115 -500h-162l10 46q-51 -56 -144 -56q-82 0 -134 53.5t-52 153.5q0 132 86 222.5t194 90.5q98 0 142 -68zM261 109q42 0 78 32.5t49 85.5l3 11q4 19 4 43q0 98 -76 98
q-57 0 -94 -52t-37 -121q0 -47 19 -72t54 -25z" />
    <glyph glyph-name="aring" unicode="&#xe5;" horiz-adv-x="611" 
d="M361 539q-48 0 -74.5 30t-26.5 72q0 53 40.5 90.5t94.5 37.5q47 0 74 -29t27 -71q0 -54 -40.5 -92t-94.5 -38zM385 686q-15 0 -27 -12t-12 -26q0 -11 6.5 -18.5t18.5 -7.5q15 0 27 12t12 26q0 11 -6.5 18.5t-18.5 7.5zM451 500h162l-115 -500h-162l10 46
q-51 -56 -144 -56q-82 0 -134 53.5t-52 153.5q0 132 86 222.5t194 90.5q98 0 142 -68zM261 109q42 0 78 32.5t49 85.5l3 11q4 19 4 43q0 98 -76 98q-57 0 -94 -52t-37 -121q0 -47 19 -72t54 -25z" />
    <glyph glyph-name="ae" unicode="&#xe6;" horiz-adv-x="913" 
d="M658 510q120 0 175.5 -72t38.5 -202q-2 -18 -4 -24h-346v-6q0 -49 19.5 -71t64.5 -22q67 0 94 58h161q-39 -93 -102 -137t-162 -44q-143 0 -204 87q-37 -43 -102.5 -65t-133.5 -22q-160 0 -160 125q0 39 17 69t40.5 47.5t65 31t72.5 20t82 13.5q56 9 78 15.5t30 23.5l3 6
q1 1 1 3t1 3q4 20 -10.5 30.5t-44.5 10.5q-78 0 -102 -70h-159q21 83 84 137t182 54q104 0 157 -43q69 44 164 44zM542 307h177q7 85 -65 85q-75 0 -112 -85zM219 99q41 0 82 25.5t54 83.5l2 8v3q-20 -11 -80 -23q-55 -12 -80 -26t-25 -38q0 -33 47 -33z" />
    <glyph glyph-name="ccedilla" unicode="&#xe7;" horiz-adv-x="581" 
d="M551 299h-161q7 81 -66 81q-60 0 -98 -49t-38 -115q0 -44 21 -69t56 -25q74 0 108 82h162q-30 -96 -94.5 -151t-158.5 -62q36 -40 36 -84q0 -127 -179 -127h-43l18 77h37q42 0 62.5 19.5t20.5 47.5q0 36 -46 73q-81 17 -124.5 72.5t-43.5 137.5q0 128 87 215.5t224 87.5
q115 0 174 -61t46 -150z" />
    <glyph glyph-name="egrave" unicode="&#xe8;" horiz-adv-x="576" 
d="M427 555h-121l-124 145h168zM321 510q120 0 175.5 -72t38.5 -202q-2 -18 -4 -24h-346v-6q0 -49 19.5 -71t64.5 -22q67 0 94 58h161q-39 -93 -102 -137t-162 -44q-121 0 -180.5 60t-59.5 159q0 122 81 211.5t220 89.5zM205 307h177q7 85 -65 85q-75 0 -112 -85z" />
    <glyph glyph-name="eacute" unicode="&#xe9;" horiz-adv-x="576" 
d="M574 700l-180 -145h-133l130 145h183zM321 510q120 0 175.5 -72t38.5 -202q-2 -18 -4 -24h-346v-6q0 -49 19.5 -71t64.5 -22q67 0 94 58h161q-39 -93 -102 -137t-162 -44q-121 0 -180.5 60t-59.5 159q0 122 81 211.5t220 89.5zM205 307h177q7 85 -65 85q-75 0 -112 -85z
" />
    <glyph glyph-name="ecircumflex" unicode="&#xea;" horiz-adv-x="576" 
d="M368 626l-64 -61h-127l143 135h124l79 -135h-121zM321 510q120 0 175.5 -72t38.5 -202q-2 -18 -4 -24h-346v-6q0 -49 19.5 -71t64.5 -22q67 0 94 58h161q-39 -93 -102 -137t-162 -44q-121 0 -180.5 60t-59.5 159q0 122 81 211.5t220 89.5zM205 307h177q7 85 -65 85
q-75 0 -112 -85z" />
    <glyph glyph-name="edieresis" unicode="&#xeb;" horiz-adv-x="576" 
d="M339 700l-30 -131h-140l30 131h140zM559 700l-30 -131h-140l30 131h140zM321 510q120 0 175.5 -72t38.5 -202q-2 -18 -4 -24h-346v-6q0 -49 19.5 -71t64.5 -22q67 0 94 58h161q-39 -93 -102 -137t-162 -44q-121 0 -180.5 60t-59.5 159q0 122 81 211.5t220 89.5zM205 307
h177q7 85 -65 85q-75 0 -112 -85z" />
    <glyph glyph-name="igrave" unicode="&#xec;" horiz-adv-x="281" 
d="M216 700l77 -145h-121l-124 145h168zM168 0h-170l115 500h170z" />
    <glyph glyph-name="iacute" unicode="&#xed;" horiz-adv-x="281" 
d="M257 700h183l-180 -145h-133zM168 0h-170l115 500h170z" />
    <glyph glyph-name="icircumflex" unicode="&#xee;" horiz-adv-x="281" 
d="M389 565h-121l-34 61l-64 -61h-127l143 135h124zM168 0h-170l115 500h170z" />
    <glyph glyph-name="idieresis" unicode="&#xef;" horiz-adv-x="281" 
d="M35 569l30 131h140l-30 -131h-140zM255 569l30 131h140l-30 -131h-140zM168 0h-170l115 500h170z" />
    <glyph glyph-name="eth" unicode="&#xf0;" horiz-adv-x="565" 
d="M566 618l-72 -33q62 -89 62 -229q0 -170 -90 -268t-226 -98q-97 0 -160.5 52.5t-63.5 155.5q0 121 84.5 196.5t192.5 75.5q80 0 123 -48q-9 66 -53 104l-112 -51l-29 62l59 27q-35 8 -75 8h-55l30 128h75q114 0 189 -61l92 43zM256 116q91 0 116 108q13 57 -9.5 88.5
t-64.5 31.5q-48 0 -85.5 -39t-37.5 -102q0 -87 81 -87z" />
    <glyph glyph-name="ntilde" unicode="&#xf1;" horiz-adv-x="622" 
d="M322 590q-31 0 -49 -36h-86q40 143 153 143q42 0 72 -20.5t46 -20.5q35 0 52 36h88q-43 -143 -154 -143q-43 0 -74 20.5t-48 20.5zM451 510q80 0 116 -56t9 -173l-65 -281h-170l57 244q17 68 8 98.5t-51 30.5q-48 0 -86 -47t-67 -171l-36 -155h-168l115 500h168l-22 -97
q75 107 192 107z" />
    <glyph glyph-name="ograve" unicode="&#xf2;" horiz-adv-x="584" 
d="M359 700l77 -145h-121l-124 145h168zM248 -10q-108 0 -168 55.5t-60 162.5q0 135 89.5 218.5t226.5 83.5q108 0 167.5 -56t59.5 -163q0 -135 -89 -218t-226 -83zM267 116q61 0 93 54.5t32 119.5q0 93 -73 93q-58 0 -92.5 -52.5t-34.5 -120.5q0 -94 75 -94z" />
    <glyph glyph-name="oacute" unicode="&#xf3;" horiz-adv-x="584" 
d="M400 700h183l-180 -145h-133zM248 -10q-108 0 -168 55.5t-60 162.5q0 135 89.5 218.5t226.5 83.5q108 0 167.5 -56t59.5 -163q0 -135 -89 -218t-226 -83zM267 116q61 0 93 54.5t32 119.5q0 93 -73 93q-58 0 -92.5 -52.5t-34.5 -120.5q0 -94 75 -94z" />
    <glyph glyph-name="ocircumflex" unicode="&#xf4;" horiz-adv-x="584" 
d="M532 565h-121l-34 61l-64 -61h-127l143 135h124zM248 -10q-108 0 -168 55.5t-60 162.5q0 135 89.5 218.5t226.5 83.5q108 0 167.5 -56t59.5 -163q0 -135 -89 -218t-226 -83zM267 116q61 0 93 54.5t32 119.5q0 93 -73 93q-58 0 -92.5 -52.5t-34.5 -120.5q0 -94 75 -94z
" />
    <glyph glyph-name="otilde" unicode="&#xf5;" horiz-adv-x="584" 
d="M164 554q40 143 153 143q42 0 72 -20.5t46 -20.5q35 0 52 36h88q-43 -143 -154 -143q-43 0 -74 20.5t-48 20.5q-31 0 -49 -36h-86zM248 -10q-108 0 -168 55.5t-60 162.5q0 135 89.5 218.5t226.5 83.5q108 0 167.5 -56t59.5 -163q0 -135 -89 -218t-226 -83zM267 116
q61 0 93 54.5t32 119.5q0 93 -73 93q-58 0 -92.5 -52.5t-34.5 -120.5q0 -94 75 -94z" />
    <glyph glyph-name="odieresis" unicode="&#xf6;" horiz-adv-x="584" 
d="M178 569l30 131h140l-30 -131h-140zM398 569l30 131h140l-30 -131h-140zM248 -10q-108 0 -168 55.5t-60 162.5q0 135 89.5 218.5t226.5 83.5q108 0 167.5 -56t59.5 -163q0 -135 -89 -218t-226 -83zM267 116q61 0 93 54.5t32 119.5q0 93 -73 93q-58 0 -92.5 -52.5
t-34.5 -120.5q0 -94 75 -94z" />
    <glyph glyph-name="divide" unicode="&#xf7;" horiz-adv-x="570" 
d="M228 337l33 143h153l-33 -143h-153zM43 305h510l-30 -130h-510zM150 0l33 143h153l-33 -143h-153z" />
    <glyph glyph-name="oslash" unicode="&#xf8;" horiz-adv-x="584" 
d="M599 466l-63 -54q27 -49 27 -121q0 -135 -89 -218t-226 -83q-96 0 -154 44l-63 -54l-47 48l65 57q-29 49 -29 123q0 135 89.5 218.5t226.5 83.5q95 0 153 -44l62 54zM192 210v-2l179 155q-18 20 -52 20q-58 0 -92.5 -52.5t-34.5 -120.5zM267 116q61 0 93 54t32 119
l-178 -153q18 -20 53 -20z" />
    <glyph glyph-name="ugrave" unicode="&#xf9;" horiz-adv-x="621" 
d="M462 555h-121l-124 145h168zM455 500h168l-115 -500h-168l21 90q-65 -100 -182 -100q-85 0 -123 54.5t-13 162.5l67 293h171l-62 -267q-14 -55 -3.5 -80.5t49.5 -25.5q49 0 86.5 45.5t66.5 166.5z" />
    <glyph glyph-name="uacute" unicode="&#xfa;" horiz-adv-x="621" 
d="M609 700l-180 -145h-133l130 145h183zM455 500h168l-115 -500h-168l21 90q-65 -100 -182 -100q-85 0 -123 54.5t-13 162.5l67 293h171l-62 -267q-14 -55 -3.5 -80.5t49.5 -25.5q49 0 86.5 45.5t66.5 166.5z" />
    <glyph glyph-name="ucircumflex" unicode="&#xfb;" horiz-adv-x="621" 
d="M403 626l-64 -61h-127l143 135h124l79 -135h-121zM455 500h168l-115 -500h-168l21 90q-65 -100 -182 -100q-85 0 -123 54.5t-13 162.5l67 293h171l-62 -267q-14 -55 -3.5 -80.5t49.5 -25.5q49 0 86.5 45.5t66.5 166.5z" />
    <glyph glyph-name="udieresis" unicode="&#xfc;" horiz-adv-x="621" 
d="M374 700l-30 -131h-140l30 131h140zM594 700l-30 -131h-140l30 131h140zM455 500h168l-115 -500h-168l21 90q-65 -100 -182 -100q-85 0 -123 54.5t-13 162.5l67 293h171l-62 -267q-14 -55 -3.5 -80.5t49.5 -25.5q49 0 86.5 45.5t66.5 166.5z" />
    <glyph glyph-name="yacute" unicode="&#xfd;" horiz-adv-x="592" 
d="M595 700l-180 -145h-133l130 145h183zM480 500h184l-391 -597q-44 -67 -97.5 -95t-153.5 -28h-102l30 130h62q57 0 81 17t63 73l24 34l-138 466h171l82 -306z" />
    <glyph glyph-name="thorn" unicode="&#xfe;" horiz-adv-x="615" 
d="M406 510q82 0 135 -60t53 -160q0 -123 -77 -211.5t-185 -88.5q-98 0 -151 78l-66 -288h-168l166 720l49 210h168l-49 -210l-12 -52l1 1v1q53 60 136 60zM297 109q52 0 88 49t36 115q0 46 -19 76t-58 30q-51 0 -87 -49t-36 -119q0 -49 19.5 -75.5t56.5 -26.5z" />
    <glyph glyph-name="ydieresis" unicode="&#xff;" horiz-adv-x="592" 
d="M360 700l-30 -131h-140l30 131h140zM580 700l-30 -131h-140l30 131h140zM480 500h184l-391 -597q-44 -67 -97.5 -95t-153.5 -28h-102l30 130h62q57 0 81 17t63 73l24 34l-138 466h171l82 -306z" />
    <glyph glyph-name="Amacron" unicode="&#x100;" horiz-adv-x="731" 
d="M680 899l-26 -113h-341l26 113h341zM576 700l92 -700h-180l-14 143h-258l-81 -143h-188l416 700h213zM295 282h165l-25 246z" />
    <glyph glyph-name="amacron" unicode="&#x101;" horiz-adv-x="611" 
d="M539 680l-24 -103h-310l24 103h310zM451 500h162l-115 -500h-162l10 46q-51 -56 -144 -56q-82 0 -134 53.5t-52 153.5q0 132 86 222.5t194 90.5q98 0 142 -68zM261 109q42 0 78 32.5t49 85.5l3 11q4 19 4 43q0 98 -76 98q-57 0 -94 -52t-37 -121q0 -47 19 -72t54 -25z
" />
    <glyph glyph-name="Abreve" unicode="&#x102;" horiz-adv-x="731" 
d="M493 776q-75 0 -112.5 46t-24.5 108h111q-7 -54 44 -54q50 0 66 54h112q-15 -68 -68 -111t-128 -43zM576 700l92 -700h-180l-14 143h-258l-81 -143h-188l416 700h213zM295 282h165l-25 246z" />
    <glyph glyph-name="abreve" unicode="&#x103;" horiz-adv-x="611" 
d="M358 550q-68 0 -102 41.5t-22 98.5h101q-7 -49 40 -49q46 0 60 49h102q-14 -62 -62.5 -101t-116.5 -39zM451 500h162l-115 -500h-162l10 46q-51 -56 -144 -56q-82 0 -134 53.5t-52 153.5q0 132 86 222.5t194 90.5q98 0 142 -68zM261 109q42 0 78 32.5t49 85.5l3 11
q4 19 4 43q0 98 -76 98q-57 0 -94 -52t-37 -121q0 -47 19 -72t54 -25z" />
    <glyph glyph-name="Aogonek" unicode="&#x104;" horiz-adv-x="731" 
d="M563 -110q0 -47 64 -47h27l-20 -85h-33q-71 0 -105.5 29.5t-34.5 78.5q0 17 3 31t11 26t13.5 20t19.5 18t19.5 14t22.5 13.5t20 11.5h-82l-14 143h-258l-81 -143h-188l416 700h213l92 -700q-55 -29 -80 -54t-25 -56zM295 282h165l-25 246z" />
    <glyph glyph-name="aogonek" unicode="&#x105;" horiz-adv-x="611" 
d="M498 0q-50 -27 -72.5 -49.5t-22.5 -50.5q0 -43 58 -43h24l-18 -77h-30q-64 0 -95.5 26.5t-31.5 71.5q0 13 3 25t6 21t11 18.5t13 14.5t16.5 13t15.5 10.5t17.5 10t16.5 9.5h-73l10 46q-51 -56 -144 -56q-82 0 -134 53.5t-52 153.5q0 132 86 222.5t194 90.5q98 0 142 -68
l13 58h162zM261 109q42 0 78 32.5t49 85.5l3 11q4 19 4 43q0 98 -76 98q-57 0 -94 -52t-37 -121q0 -47 19 -72t54 -25z" />
    <glyph glyph-name="Cacute" unicode="&#x106;" horiz-adv-x="753" 
d="M529 935h201l-198 -159h-146zM727 283q-36 -147 -139 -220t-242 -73q-147 0 -224.5 79t-77.5 217q0 179 119.5 301.5t307.5 122.5q149 0 223 -78t62 -192h-179q3 56 -27 86.5t-95 30.5q-106 0 -167 -76t-61 -186q0 -159 136 -159q133 0 185 147h179z" />
    <glyph glyph-name="cacute" unicode="&#x107;" horiz-adv-x="581" 
d="M394 700h183l-180 -145h-133zM390 299q7 81 -66 81q-60 0 -98 -49t-38 -115q0 -44 21 -69t56 -25q74 0 108 82h162q-33 -103 -103.5 -158.5t-173.5 -55.5q-114 0 -176 59t-62 158q0 128 87 215.5t224 87.5q115 0 174 -61t46 -150h-161z" />
    <glyph glyph-name="Ccircumflex" unicode="&#x108;" horiz-adv-x="753" 
d="M679 773h-133l-38 67l-70 -67h-140l158 148h136zM727 283q-36 -147 -139 -220t-242 -73q-147 0 -224.5 79t-77.5 217q0 179 119.5 301.5t307.5 122.5q149 0 223 -78t62 -192h-179q3 56 -27 86.5t-95 30.5q-106 0 -167 -76t-61 -186q0 -159 136 -159q133 0 185 147h179z
" />
    <glyph glyph-name="ccircumflex" unicode="&#x109;" horiz-adv-x="581" 
d="M526 565h-121l-34 61l-64 -61h-127l143 135h124zM390 299q7 81 -66 81q-60 0 -98 -49t-38 -115q0 -44 21 -69t56 -25q74 0 108 82h162q-33 -103 -103.5 -158.5t-173.5 -55.5q-114 0 -176 59t-62 158q0 128 87 215.5t224 87.5q115 0 174 -61t46 -150h-161z" />
    <glyph glyph-name="Cdotaccent" unicode="&#x10a;" horiz-adv-x="753" 
d="M394 773l35 152h190l-36 -152h-189zM727 283q-36 -147 -139 -220t-242 -73q-147 0 -224.5 79t-77.5 217q0 179 119.5 301.5t307.5 122.5q149 0 223 -78t62 -192h-179q3 56 -27 86.5t-95 30.5q-106 0 -167 -76t-61 -186q0 -159 136 -159q133 0 185 147h179z" />
    <glyph glyph-name="cdotaccent" unicode="&#x10b;" horiz-adv-x="581" 
d="M264 562l32 138h172l-32 -138h-172zM390 299q7 81 -66 81q-60 0 -98 -49t-38 -115q0 -44 21 -69t56 -25q74 0 108 82h162q-33 -103 -103.5 -158.5t-173.5 -55.5q-114 0 -176 59t-62 158q0 128 87 215.5t224 87.5q115 0 174 -61t46 -150h-161z" />
    <glyph glyph-name="Ccaron" unicode="&#x10c;" horiz-adv-x="753" 
d="M575 928h140l-157 -148h-137l-87 148h134l37 -67zM727 283q-36 -147 -139 -220t-242 -73q-147 0 -224.5 79t-77.5 217q0 179 119.5 301.5t307.5 122.5q149 0 223 -78t62 -192h-179q3 56 -27 86.5t-95 30.5q-106 0 -167 -76t-61 -186q0 -159 136 -159q133 0 185 147h179z
" />
    <glyph glyph-name="ccaron" unicode="&#x10d;" horiz-adv-x="581" 
d="M428 700h127l-143 -135h-124l-79 135h121l34 -61zM390 299q7 81 -66 81q-60 0 -98 -49t-38 -115q0 -44 21 -69t56 -25q74 0 108 82h162q-33 -103 -103.5 -158.5t-173.5 -55.5q-114 0 -176 59t-62 158q0 128 87 215.5t224 87.5q115 0 174 -61t46 -150h-161z" />
    <glyph glyph-name="Dcaron" unicode="&#x10e;" horiz-adv-x="731" 
d="M519 780h-137l-87 148h134l37 -67l70 67h140zM411 700q157 0 237 -81t80 -222q0 -75 -23 -142.5t-71 -126t-134.5 -93.5t-200.5 -35h-297l162 700h247zM307 149q107 0 169.5 65t62.5 180q0 80 -37.5 118.5t-129.5 38.5h-62l-94 -402h91z" />
    <glyph glyph-name="dcaron" unicode="&#x10f;" horiz-adv-x="610" 
d="M497 710h164l-164 -710h-164l11 49q-50 -59 -142 -59q-88 0 -136 56.5t-48 152.5q0 133 86 222t199 89q93 0 134 -59zM739 670h173l-23 -94q-25 -102 -79 -145.5t-160 -47.5l15 65q51 0 78 22t32 47h-73zM265 109q55 0 90.5 52t35.5 121q0 97 -76 97q-58 0 -91.5 -53
t-33.5 -119q0 -46 19 -72t56 -26z" />
    <glyph glyph-name="Dcroat" unicode="&#x110;" horiz-adv-x="731" 
d="M411 700q157 0 237 -81t80 -222q0 -75 -23 -142.5t-71 -126t-134.5 -93.5t-200.5 -35h-297l65 279h-136l33 142h135l65 279h247zM307 149q107 0 169.5 65t62.5 180q0 80 -37.5 118.5t-129.5 38.5h-62l-31 -130h176l-33 -142h-175l-31 -130h91z" />
    <glyph glyph-name="dcroat" unicode="&#x111;" horiz-adv-x="610" 
d="M746 649l-26 -110h-98l-125 -539h-164l11 49q-50 -59 -142 -59q-88 0 -136 56.5t-48 152.5q0 133 86 222t199 89q93 0 134 -59l21 88h-133l26 110h132l14 61h164l-14 -61h99zM265 109q55 0 90.5 52t35.5 121q0 97 -76 97q-58 0 -91.5 -53t-33.5 -119q0 -46 19 -72t56 -26
z" />
    <glyph glyph-name="Emacron" unicode="&#x112;" horiz-adv-x="613" 
d="M629 899l-26 -113h-341l26 113h341zM638 546h-333l-28 -124h304l-32 -141h-305l-29 -127h333l-36 -154h-510l162 700h510z" />
    <glyph glyph-name="emacron" unicode="&#x113;" horiz-adv-x="576" 
d="M529 680l-24 -103h-310l24 103h310zM321 510q120 0 175.5 -72t38.5 -202q-2 -18 -4 -24h-346v-6q0 -49 19.5 -71t64.5 -22q67 0 94 58h161q-39 -93 -102 -137t-162 -44q-121 0 -180.5 60t-59.5 159q0 122 81 211.5t220 89.5zM205 307h177q7 85 -65 85q-75 0 -112 -85z
" />
    <glyph glyph-name="Ebreve" unicode="&#x114;" horiz-adv-x="613" 
d="M442 776q-75 0 -112.5 46t-24.5 108h111q-7 -54 44 -54q50 0 66 54h112q-15 -68 -68 -111t-128 -43zM638 546h-333l-28 -124h304l-32 -141h-305l-29 -127h333l-36 -154h-510l162 700h510z" />
    <glyph glyph-name="ebreve" unicode="&#x115;" horiz-adv-x="576" 
d="M348 550q-68 0 -102 41.5t-22 98.5h101q-7 -49 40 -49q46 0 60 49h102q-14 -62 -62.5 -101t-116.5 -39zM321 510q120 0 175.5 -72t38.5 -202q-2 -18 -4 -24h-346v-6q0 -49 19.5 -71t64.5 -22q67 0 94 58h161q-39 -93 -102 -137t-162 -44q-121 0 -180.5 60t-59.5 159
q0 122 81 211.5t220 89.5zM205 307h177q7 85 -65 85q-75 0 -112 -85z" />
    <glyph glyph-name="Edotaccent" unicode="&#x116;" horiz-adv-x="613" 
d="M560 925l-36 -152h-189l35 152h190zM638 546h-333l-28 -124h304l-32 -141h-305l-29 -127h333l-36 -154h-510l162 700h510z" />
    <glyph glyph-name="edotaccent" unicode="&#x117;" horiz-adv-x="576" 
d="M465 700l-32 -138h-172l32 138h172zM321 510q120 0 175.5 -72t38.5 -202q-2 -18 -4 -24h-346v-6q0 -49 19.5 -71t64.5 -22q67 0 94 58h161q-39 -93 -102 -137t-162 -44q-121 0 -180.5 60t-59.5 159q0 122 81 211.5t220 89.5zM205 307h177q7 85 -65 85q-75 0 -112 -85z
" />
    <glyph glyph-name="Eogonek" unicode="&#x118;" horiz-adv-x="613" 
d="M638 546h-333l-28 -124h304l-32 -141h-305l-29 -127h333l-36 -154h-173q-55 -29 -80 -54t-25 -56q0 -47 64 -47h27l-20 -85h-33q-71 0 -105.5 29.5t-34.5 78.5q0 17 3 31t11 26t13.5 20t19.5 18t19.5 14t22.5 13.5t20 11.5h-239l162 700h510z" />
    <glyph glyph-name="eogonek" unicode="&#x119;" horiz-adv-x="576" 
d="M321 510q120 0 175.5 -72t38.5 -202q-2 -18 -4 -24h-346v-6q0 -49 19.5 -71t64.5 -22q67 0 94 58h161q-36 -86 -92 -130t-142 -50q-41 -23 -60 -44t-19 -47q0 -43 58 -43h24l-18 -77h-30q-64 0 -95.5 26.5t-31.5 71.5q0 31 15.5 55.5t30 34.5t42.5 26q-94 13 -140 70.5
t-46 144.5q0 122 81 211.5t220 89.5zM205 307h177q7 85 -65 85q-75 0 -112 -85z" />
    <glyph glyph-name="Ecaron" unicode="&#x11a;" horiz-adv-x="613" 
d="M499 780h-137l-87 148h134l37 -67l70 67h140zM638 546h-333l-28 -124h304l-32 -141h-305l-29 -127h333l-36 -154h-510l162 700h510z" />
    <glyph glyph-name="ecaron" unicode="&#x11b;" horiz-adv-x="576" 
d="M409 565h-124l-79 135h121l34 -61l64 61h127zM321 510q120 0 175.5 -72t38.5 -202q-2 -18 -4 -24h-346v-6q0 -49 19.5 -71t64.5 -22q67 0 94 58h161q-39 -93 -102 -137t-162 -44q-121 0 -180.5 60t-59.5 159q0 122 81 211.5t220 89.5zM205 307h177q7 85 -65 85
q-75 0 -112 -85z" />
    <glyph glyph-name="Gcircumflex" unicode="&#x11c;" horiz-adv-x="768" 
d="M511 840l-70 -67h-140l158 148h136l87 -148h-133zM748 443h-173q4 55 -27.5 85.5t-89.5 30.5q-94 0 -161.5 -75t-67.5 -184q0 -79 39.5 -121t116.5 -42q62 0 111.5 28.5t65.5 94.5h-205l28 121h355l-14 -61l-74 -320h-104l4 83q-80 -93 -221 -93q-131 0 -208 78t-77 223
q0 182 118 300.5t303 118.5q146 0 223 -75t58 -192z" />
    <glyph glyph-name="gcircumflex" unicode="&#x11d;" horiz-adv-x="610" 
d="M377 626l-64 -61h-127l143 135h124l79 -135h-121zM451 500h161l-103 -449l-15 -66q-25 -112 -95.5 -163.5t-195.5 -51.5q-75 0 -125 17t-72 46.5t-28.5 60t-1.5 67.5h155q-4 -34 15.5 -51.5t66.5 -17.5q51 0 80 24t42 78l12 54q-56 -58 -150 -58q-84 0 -132 54.5
t-48 150.5q0 134 86.5 224.5t198.5 90.5q46 0 84.5 -17t51.5 -51zM261 109q56 0 94.5 49.5t38.5 124.5q0 98 -74 98q-57 0 -95.5 -51t-38.5 -124q0 -97 75 -97z" />
    <glyph glyph-name="Gbreve" unicode="&#x11e;" horiz-adv-x="768" 
d="M504 776q-75 0 -112.5 46t-24.5 108h111q-7 -54 44 -54q50 0 66 54h112q-15 -68 -68 -111t-128 -43zM748 443h-173q4 55 -27.5 85.5t-89.5 30.5q-94 0 -161.5 -75t-67.5 -184q0 -79 39.5 -121t116.5 -42q62 0 111.5 28.5t65.5 94.5h-205l28 121h355l-14 -61l-74 -320
h-104l4 83q-80 -93 -221 -93q-131 0 -208 78t-77 223q0 182 118 300.5t303 118.5q146 0 223 -75t58 -192z" />
    <glyph glyph-name="gbreve" unicode="&#x11f;" horiz-adv-x="610" 
d="M357 550q-68 0 -102 41.5t-22 98.5h101q-7 -49 40 -49q46 0 60 49h102q-14 -62 -62.5 -101t-116.5 -39zM451 500h161l-103 -449l-15 -66q-25 -112 -95.5 -163.5t-195.5 -51.5q-75 0 -125 17t-72 46.5t-28.5 60t-1.5 67.5h155q-4 -34 15.5 -51.5t66.5 -17.5q51 0 80 24
t42 78l12 54q-56 -58 -150 -58q-84 0 -132 54.5t-48 150.5q0 134 86.5 224.5t198.5 90.5q46 0 84.5 -17t51.5 -51zM261 109q56 0 94.5 49.5t38.5 124.5q0 98 -74 98q-57 0 -95.5 -51t-38.5 -124q0 -97 75 -97z" />
    <glyph glyph-name="Gdotaccent" unicode="&#x120;" horiz-adv-x="768" 
d="M622 925l-36 -152h-189l35 152h190zM748 443h-173q4 55 -27.5 85.5t-89.5 30.5q-94 0 -161.5 -75t-67.5 -184q0 -79 39.5 -121t116.5 -42q62 0 111.5 28.5t65.5 94.5h-205l28 121h355l-14 -61l-74 -320h-104l4 83q-80 -93 -221 -93q-131 0 -208 78t-77 223
q0 182 118 300.5t303 118.5q146 0 223 -75t58 -192z" />
    <glyph glyph-name="gdotaccent" unicode="&#x121;" horiz-adv-x="610" 
d="M474 700l-32 -138h-172l32 138h172zM451 500h161l-103 -449l-15 -66q-25 -112 -95.5 -163.5t-195.5 -51.5q-75 0 -125 17t-72 46.5t-28.5 60t-1.5 67.5h155q-4 -34 15.5 -51.5t66.5 -17.5q51 0 80 24t42 78l12 54q-56 -58 -150 -58q-84 0 -132 54.5t-48 150.5
q0 134 86.5 224.5t198.5 90.5q46 0 84.5 -17t51.5 -51zM261 109q56 0 94.5 49.5t38.5 124.5q0 98 -74 98q-57 0 -95.5 -51t-38.5 -124q0 -97 75 -97z" />
    <glyph glyph-name="Gcommaaccent" unicode="&#x122;" horiz-adv-x="768" 
d="M748 443h-173q4 55 -27.5 85.5t-89.5 30.5q-94 0 -161.5 -75t-67.5 -184q0 -79 39.5 -121t116.5 -42q62 0 111.5 28.5t65.5 94.5h-205l28 121h355l-14 -61l-74 -320h-104l4 83q-80 -93 -221 -93q-131 0 -208 78t-77 223q0 182 118 300.5t303 118.5q146 0 223 -75t58 -192
zM199 -216l34 150h160l-21 -92q-23 -100 -73 -142t-149 -47l15 64q47 0 71.5 21.5t30.5 45.5h-68z" />
    <glyph glyph-name="gcommaaccent" unicode="&#x123;" horiz-adv-x="610" 
d="M459 694l-32 -136h-145l19 83q21 92 66.5 130t135.5 42l-13 -57q-43 0 -65.5 -19.5t-27.5 -42.5h62zM451 500h161l-103 -449l-15 -66q-25 -112 -95.5 -163.5t-195.5 -51.5q-75 0 -125 17t-72 46.5t-28.5 60t-1.5 67.5h155q-4 -34 15.5 -51.5t66.5 -17.5q51 0 80 24t42 78
l12 54q-56 -58 -150 -58q-84 0 -132 54.5t-48 150.5q0 134 86.5 224.5t198.5 90.5q46 0 84.5 -17t51.5 -51zM261 109q56 0 94.5 49.5t38.5 124.5q0 98 -74 98q-57 0 -95.5 -51t-38.5 -124q0 -97 75 -97z" />
    <glyph glyph-name="Hcircumflex" unicode="&#x124;" horiz-adv-x="757" 
d="M517 840l-70 -67h-140l158 148h136l87 -148h-133zM616 700h185l-162 -700h-185l65 280h-267l-65 -280h-185l162 700h185l-62 -269h267z" />
    <glyph glyph-name="hcircumflex" unicode="&#x125;" horiz-adv-x="622" 
d="M281 836l-64 -61h-127l143 135h124l79 -135h-121zM451 510q80 0 116 -56t9 -173l-65 -281h-170l57 244q17 68 8 98.5t-51 30.5q-48 0 -86 -47t-67 -171l-36 -155h-168l115 500l49 210h168l-49 -210l-22 -97q75 107 192 107z" />
    <glyph glyph-name="Hbar" unicode="&#x126;" horiz-adv-x="759" 
d="M636 700h185l-162 -700h-185l32 139h-267l-32 -139h-185l162 700h185l-32 -137h267zM274 288h267l29 126h-267z" />
    <glyph glyph-name="hbar" unicode="&#x127;" horiz-adv-x="622" 
d="M451 510q80 0 116 -56t9 -173l-65 -281h-170l57 244q17 68 8 98.5t-51 30.5q-48 0 -86 -47t-67 -171l-36 -155h-168l115 500l9 39h-94l26 110h94l14 61h168l-14 -61h133l-26 -110h-133l-9 -39l-22 -97q75 107 192 107z" />
    <glyph glyph-name="Itilde" unicode="&#x128;" horiz-adv-x="300" 
d="M42 767q48 158 184 158q39 0 64 -11.5t41.5 -22.5t35.5 -11q43 0 63 39h105q-51 -157 -185 -157q-51 0 -88.5 22.5t-57.5 22.5q-37 0 -59 -40h-103zM182 0h-180l162 700h180z" />
    <glyph glyph-name="itilde" unicode="&#x129;" horiz-adv-x="281" 
d="M21 554q40 143 153 143q42 0 72 -20.5t46 -20.5q35 0 52 36h88q-43 -143 -154 -143q-43 0 -74 20.5t-48 20.5q-31 0 -49 -36h-86zM168 0h-170l115 500h170z" />
    <glyph glyph-name="Imacron" unicode="&#x12a;" horiz-adv-x="300" 
d="M123 899h341l-26 -113h-341zM182 0h-180l162 700h180z" />
    <glyph glyph-name="imacron" unicode="&#x12b;" horiz-adv-x="281" 
d="M85 680h310l-24 -103h-310zM168 0h-170l115 500h170z" />
    <glyph glyph-name="Ibreve" unicode="&#x12c;" horiz-adv-x="300" 
d="M473 930q-15 -68 -68 -111t-128 -43t-112.5 46t-24.5 108h111q-7 -54 44 -54q50 0 66 54h112zM182 0h-180l162 700h180z" />
    <glyph glyph-name="ibreve" unicode="&#x12d;" horiz-adv-x="281" 
d="M393 690q-14 -62 -62.5 -101t-116.5 -39t-102 41.5t-22 98.5h101q-7 -49 40 -49q46 0 60 49h102zM168 0h-170l115 500h170z" />
    <glyph glyph-name="Iogonek" unicode="&#x12e;" horiz-adv-x="300" 
d="M182 0q-55 -29 -80 -54t-25 -56q0 -47 64 -47h27l-20 -85h-33q-71 0 -105.5 29.5t-34.5 78.5q0 17 3 31t11 26t13.5 20t19.5 18t19.5 14t22.5 13.5t20 11.5h-82l162 700h180z" />
    <glyph glyph-name="iogonek" unicode="&#x12f;" horiz-adv-x="281" 
d="M159 700h172l-32 -138h-172zM-2 0l115 500h170l-115 -500q-50 -27 -72.5 -49.5t-22.5 -50.5q0 -43 58 -43h24l-18 -77h-30q-64 0 -95.5 26.5t-31.5 71.5q0 13 3 25t6 21t11 18.5t13 14.5t16.5 13t15.5 10.5t17.5 10t16.5 9.5h-81z" />
    <glyph glyph-name="Idotaccent" unicode="&#x130;" horiz-adv-x="300" 
d="M170 773l35 152h190l-36 -152h-189zM182 0h-180l162 700h180z" />
    <glyph glyph-name="dotlessi" unicode="&#x131;" horiz-adv-x="281" 
d="M168 0h-170l115 500h170z" />
    <glyph glyph-name="IJ" unicode="&#x132;" horiz-adv-x="965" 
d="M182 0h-180l162 700h180zM831 700h179l-110 -482q-26 -115 -108 -171.5t-205 -56.5q-151 0 -219.5 80t-36.5 219l7 31h180l-7 -31q-34 -149 87 -149q50 0 83.5 29.5t50.5 103.5z" />
    <glyph glyph-name="ij" unicode="&#x133;" horiz-adv-x="560" 
d="M331 700l-32 -138h-172l32 138h172zM438 700h172l-32 -138h-172zM283 500l-115 -500h-170l115 500h170zM392 500h170l-100 -433l-23 -103q-22 -95 -82 -139.5t-165 -44.5h-141l31 132h72q103 0 124 93l16 69z" />
    <glyph glyph-name="Jcircumflex" unicode="&#x134;" horiz-adv-x="672" 
d="M829 773h-133l-38 67l-70 -67h-140l158 148h136zM538 700h179l-110 -482q-26 -115 -108 -171.5t-205 -56.5q-151 0 -219.5 80t-36.5 219l7 31h180l-7 -31q-34 -149 87 -149q50 0 83.5 29.5t50.5 103.5z" />
    <glyph glyph-name="jcircumflex" unicode="&#x135;" horiz-adv-x="281" 
d="M234 626l-64 -61h-127l143 135h124l79 -135h-121zM113 500h170l-100 -433l-23 -103q-22 -95 -82 -139.5t-165 -44.5h-141l31 132h72q103 0 124 93l16 69z" />
    <glyph glyph-name="Kcommaaccent" unicode="&#x136;" horiz-adv-x="687" 
d="M770 700l-332 -299l191 -401h-190l-135 280l-79 -71l-48 -209h-175l162 700h175l-55 -239l254 239h232zM143 -216l34 150h160l-21 -92q-23 -100 -73 -142t-149 -47l15 64q47 0 71.5 21.5t30.5 45.5h-68z" />
    <glyph glyph-name="kcommaaccent" unicode="&#x137;" horiz-adv-x="570" 
d="M616 500l-246 -215l142 -285h-168l-91 183l-66 -58l-29 -125h-161l164 710h161l-86 -374l181 164h199zM121 -196l32 136h145l-19 -83q-21 -92 -66.5 -130t-135.5 -42l13 57q43 0 65.5 19.5t27.5 42.5h-62z" />
    <glyph glyph-name="Lacute" unicode="&#x139;" horiz-adv-x="592" 
d="M506 935l-198 -159h-146l143 159h201zM218 158h335l-36 -158h-515l162 700h179z" />
    <glyph glyph-name="lacute" unicode="&#x13a;" horiz-adv-x="282" 
d="M306 910h183l-180 -145h-133zM169 0h-172l164 710h172z" />
    <glyph glyph-name="Lcommaaccent" unicode="&#x13b;" horiz-adv-x="592" 
d="M218 158h335l-36 -158h-515l162 700h179zM131 -216l34 150h160l-21 -92q-23 -100 -73 -142t-149 -47l15 64q47 0 71.5 21.5t30.5 45.5h-68z" />
    <glyph glyph-name="lcommaaccent" unicode="&#x13c;" horiz-adv-x="282" 
d="M161 710h172l-164 -710h-172zM-35 -196l32 136h145l-19 -83q-21 -92 -66.5 -130t-135.5 -42l13 57q43 0 65.5 19.5t27.5 42.5h-62z" />
    <glyph glyph-name="Lcaron" unicode="&#x13d;" horiz-adv-x="592" 
d="M343 700l-125 -542h335l-36 -158h-515l162 700h179zM435 700h160l-21 -92q-23 -100 -73 -142t-149 -47l15 64q47 0 71.5 21.5t30.5 45.5h-68z" />
    <glyph glyph-name="lcaron" unicode="&#x13e;" horiz-adv-x="282" 
d="M161 710h172l-164 -710h-172zM414 690h173l-23 -94q-25 -102 -79 -145.5t-160 -47.5l15 65q51 0 78 22t32 47h-73z" />
    <glyph glyph-name="Ldot" unicode="&#x13f;" horiz-adv-x="592" 
d="M218 158h335l-36 -158h-515l162 700h179zM293 334l39 170h182l-39 -170h-182z" />
    <glyph glyph-name="Lslash" unicode="&#x141;" horiz-adv-x="592" 
d="M218 158h335l-36 -158h-515l49 210l-109 -59l37 160l109 59l76 330h179l-50 -217l187 102l-37 -160l-187 -102z" />
    <glyph glyph-name="lslash" unicode="&#x142;" horiz-adv-x="282" 
d="M391 558l-29 -125l-109 -69l-84 -364h-172l54 236l-109 -70l29 125l109 69l81 350h172l-51 -221z" />
    <glyph glyph-name="Nacute" unicode="&#x143;" horiz-adv-x="758" 
d="M735 935l-198 -159h-146l143 159h201zM630 700h172l-162 -700h-203l-150 483l-112 -483h-173l162 700h204l150 -484z" />
    <glyph glyph-name="nacute" unicode="&#x144;" horiz-adv-x="622" 
d="M606 700l-180 -145h-133l130 145h183zM451 510q80 0 116 -56t9 -173l-65 -281h-170l57 244q17 68 8 98.5t-51 30.5q-48 0 -86 -47t-67 -171l-36 -155h-168l115 500h168l-22 -97q75 107 192 107z" />
    <glyph glyph-name="Ncommaaccent" unicode="&#x145;" horiz-adv-x="758" 
d="M630 700h172l-162 -700h-203l-150 483l-112 -483h-173l162 700h204l150 -484zM204 -216l34 150h160l-21 -92q-23 -100 -73 -142t-149 -47l15 64q47 0 71.5 21.5t30.5 45.5h-68z" />
    <glyph glyph-name="ncommaaccent" unicode="&#x146;" horiz-adv-x="622" 
d="M451 510q80 0 116 -56t9 -173l-65 -281h-170l57 244q17 68 8 98.5t-51 30.5q-48 0 -86 -47t-67 -171l-36 -155h-168l115 500h168l-22 -97q75 107 192 107zM145 -196l32 136h145l-19 -83q-21 -92 -66.5 -130t-135.5 -42l13 57q43 0 65.5 19.5t27.5 42.5h-62z" />
    <glyph glyph-name="Ncaron" unicode="&#x147;" horiz-adv-x="758" 
d="M563 780h-137l-87 148h134l37 -67l70 67h140zM630 700h172l-162 -700h-203l-150 483l-112 -483h-173l162 700h204l150 -484z" />
    <glyph glyph-name="ncaron" unicode="&#x148;" horiz-adv-x="622" 
d="M441 565h-124l-79 135h121l34 -61l64 61h127zM451 510q80 0 116 -56t9 -173l-65 -281h-170l57 244q17 68 8 98.5t-51 30.5q-48 0 -86 -47t-67 -171l-36 -155h-168l115 500h168l-22 -97q75 107 192 107z" />
    <glyph glyph-name="Eng" unicode="&#x14a;" horiz-adv-x="758" 
d="M802 700l-155 -670l-14 -61q-20 -88 -90.5 -138.5t-160.5 -50.5h-138l31 132h72q103 0 121 78l2 10h-33l-150 483l-112 -483h-173l162 700h204l150 -484l112 484h172z" />
    <glyph glyph-name="eng" unicode="&#x14b;" horiz-adv-x="622" 
d="M451 510q80 0 116 -56t9 -173l-55 -236l-18 -81q-22 -95 -82 -139.5t-165 -44.5h-141l31 132h72q103 0 124 93l16 69l40 170q17 68 8 98.5t-51 30.5q-48 0 -86 -47t-67 -171l-36 -155h-168l115 500h168l-22 -97q75 107 192 107z" />
    <glyph glyph-name="Omacron" unicode="&#x14c;" horiz-adv-x="794" 
d="M353 899h341l-26 -113h-341zM364 -10q-149 0 -233 78t-84 226q0 181 119 298.5t310 117.5q149 0 233 -78t84 -226q0 -181 -119 -298.5t-310 -117.5zM377 141q94 0 157.5 77t63.5 184q0 75 -34.5 116t-100.5 41q-94 0 -157.5 -77t-63.5 -184q0 -75 34.5 -116t100.5 -41z
" />
    <glyph glyph-name="omacron" unicode="&#x14d;" horiz-adv-x="584" 
d="M228 680h310l-24 -103h-310zM248 -10q-108 0 -168 55.5t-60 162.5q0 135 89.5 218.5t226.5 83.5q108 0 167.5 -56t59.5 -163q0 -135 -89 -218t-226 -83zM267 116q61 0 93 54.5t32 119.5q0 93 -73 93q-58 0 -92.5 -52.5t-34.5 -120.5q0 -94 75 -94z" />
    <glyph glyph-name="Obreve" unicode="&#x14e;" horiz-adv-x="794" 
d="M703 930q-15 -68 -68 -111t-128 -43t-112.5 46t-24.5 108h111q-7 -54 44 -54q50 0 66 54h112zM364 -10q-149 0 -233 78t-84 226q0 181 119 298.5t310 117.5q149 0 233 -78t84 -226q0 -181 -119 -298.5t-310 -117.5zM377 141q94 0 157.5 77t63.5 184q0 75 -34.5 116
t-100.5 41q-94 0 -157.5 -77t-63.5 -184q0 -75 34.5 -116t100.5 -41z" />
    <glyph glyph-name="obreve" unicode="&#x14f;" horiz-adv-x="584" 
d="M536 690q-14 -62 -62.5 -101t-116.5 -39t-102 41.5t-22 98.5h101q-7 -49 40 -49q46 0 60 49h102zM248 -10q-108 0 -168 55.5t-60 162.5q0 135 89.5 218.5t226.5 83.5q108 0 167.5 -56t59.5 -163q0 -135 -89 -218t-226 -83zM267 116q61 0 93 54.5t32 119.5q0 93 -73 93
q-58 0 -92.5 -52.5t-34.5 -120.5q0 -94 75 -94z" />
    <glyph glyph-name="Ohungarumlaut" unicode="&#x150;" horiz-adv-x="794" 
d="M430 945h164l-150 -159h-128zM649 945h164l-150 -159h-128zM364 -10q-149 0 -233 78t-84 226q0 181 119 298.5t310 117.5q149 0 233 -78t84 -226q0 -181 -119 -298.5t-310 -117.5zM377 141q94 0 157.5 77t63.5 184q0 75 -34.5 116t-100.5 41q-94 0 -157.5 -77t-63.5 -184
q0 -75 34.5 -116t100.5 -41z" />
    <glyph glyph-name="ohungarumlaut" unicode="&#x151;" horiz-adv-x="584" 
d="M293 700h149l-137 -145h-116zM492 700h149l-137 -145h-116zM248 -10q-108 0 -168 55.5t-60 162.5q0 135 89.5 218.5t226.5 83.5q108 0 167.5 -56t59.5 -163q0 -135 -89 -218t-226 -83zM267 116q61 0 93 54.5t32 119.5q0 93 -73 93q-58 0 -92.5 -52.5t-34.5 -120.5
q0 -94 75 -94z" />
    <glyph glyph-name="OE" unicode="&#x152;" horiz-adv-x="1145" 
d="M1170 546h-333l-28 -124h304l-32 -141h-305v-1l-29 -126h333l-36 -154h-510l5 21q-81 -31 -175 -31q-149 0 -233 78t-84 226q0 181 119 298.5t310 117.5q128 0 209 -58l11 48h510zM377 141q94 0 157.5 77t63.5 184q0 75 -34.5 116t-100.5 41q-94 0 -157.5 -77t-63.5 -184
q0 -75 34.5 -116t100.5 -41z" />
    <glyph glyph-name="oe" unicode="&#x153;" horiz-adv-x="945" 
d="M690 510q120 0 175.5 -72t38.5 -202q-2 -18 -4 -24h-346v-6q0 -49 19.5 -71t64.5 -22q67 0 94 58h161q-39 -93 -102 -137t-162 -44q-120 0 -181 61q-84 -61 -200 -61q-108 0 -168 55.5t-60 162.5q0 135 89.5 218.5t226.5 83.5q109 0 169 -58q77 58 185 58zM574 307h177
q7 85 -65 85q-75 0 -112 -85zM267 116q61 0 93 54.5t32 119.5q0 93 -73 93q-58 0 -92.5 -52.5t-34.5 -120.5q0 -94 75 -94z" />
    <glyph glyph-name="Racute" unicode="&#x154;" horiz-adv-x="665" 
d="M656 935l-198 -159h-146l143 159h201zM676 501q0 -163 -212 -203q64 -17 95 -55.5t38 -113.5l13 -129h-186l-15 126q-7 64 -45 85.5t-136 21.5l-54 -233h-172l162 700h252q137 0 198.5 -56t61.5 -143zM371 373q56 0 87 27t31 69q0 34 -22.5 55.5t-70.5 21.5h-96l-40 -173
h111z" />
    <glyph glyph-name="racute" unicode="&#x155;" horiz-adv-x="468" 
d="M545 700l-180 -145h-133l130 145h183zM262 404q53 96 169 96h81l-32 -142h-65q-42 0 -67.5 -5t-54.5 -23t-49.5 -58.5t-36.5 -105.5l-38 -166h-171l115 500h171z" />
    <glyph glyph-name="Rcommaaccent" unicode="&#x156;" horiz-adv-x="665" 
d="M676 501q0 -163 -212 -203q64 -17 95 -55.5t38 -113.5l13 -129h-186l-15 126q-7 64 -45 85.5t-136 21.5l-54 -233h-172l162 700h252q137 0 198.5 -56t61.5 -143zM371 373q56 0 87 27t31 69q0 34 -22.5 55.5t-70.5 21.5h-96l-40 -173h111zM165 -216l34 150h160l-21 -92
q-23 -100 -73 -142t-149 -47l15 64q47 0 71.5 21.5t30.5 45.5h-68z" />
    <glyph glyph-name="rcommaaccent" unicode="&#x157;" horiz-adv-x="468" 
d="M431 500h81l-32 -142h-65q-42 0 -67.5 -5t-54.5 -23t-49.5 -58.5t-36.5 -105.5l-38 -166h-171l115 500h171l-22 -96q53 96 169 96zM-34 -196l32 136h145l-19 -83q-21 -92 -66.5 -130t-135.5 -42l13 57q43 0 65.5 19.5t27.5 42.5h-62z" />
    <glyph glyph-name="Rcaron" unicode="&#x158;" horiz-adv-x="665" 
d="M484 780h-137l-87 148h134l37 -67l70 67h140zM676 501q0 -163 -212 -203q64 -17 95 -55.5t38 -113.5l13 -129h-186l-15 126q-7 64 -45 85.5t-136 21.5l-54 -233h-172l162 700h252q137 0 198.5 -56t61.5 -143zM371 373q56 0 87 27t31 69q0 34 -22.5 55.5t-70.5 21.5h-96
l-40 -173h111z" />
    <glyph glyph-name="rcaron" unicode="&#x159;" horiz-adv-x="468" 
d="M380 565h-124l-79 135h121l34 -61l64 61h127zM262 404q53 96 169 96h81l-32 -142h-65q-42 0 -67.5 -5t-54.5 -23t-49.5 -58.5t-36.5 -105.5l-38 -166h-171l115 500h171z" />
    <glyph glyph-name="Sacute" unicode="&#x15a;" horiz-adv-x="653" 
d="M464 935h201l-198 -159h-146zM223 230q-8 -44 16.5 -69t72.5 -25q37 0 62.5 15.5t25.5 46.5q0 29 -25 42t-91 28q-107 25 -158 68.5t-51 126.5q0 116 89 181.5t217 65.5q62 0 117.5 -16.5t99 -48.5t63 -85.5t6.5 -120.5h-174q11 59 -20 88.5t-90 29.5q-54 0 -90 -22
t-36 -58q0 -23 18.5 -40t38 -23.5t57.5 -16.5q40 -10 63.5 -17.5t56.5 -23.5t50.5 -34.5t31 -49t13.5 -70.5q0 -104 -78 -158t-196 -54q-138 0 -211 69.5t-55 170.5h177z" />
    <glyph glyph-name="sacute" unicode="&#x15b;" horiz-adv-x="528" 
d="M354 700h183l-180 -145h-133zM177 167q-7 -63 60 -63q57 0 57 39q0 20 -17 29t-68 22q-82 21 -125 52.5t-43 93.5q0 78 66.5 124t176.5 46q120 0 180 -53.5t52 -133.5h-151q1 30 -22.5 47t-62.5 17q-30 0 -51.5 -10t-21.5 -31q0 -10 5 -16.5t19.5 -12t25.5 -8.5t37 -9
q78 -18 121 -49.5t43 -97.5q0 -79 -62 -121t-159 -42q-109 0 -168.5 51t-47.5 126h156z" />
    <glyph glyph-name="Scircumflex" unicode="&#x15c;" horiz-adv-x="653" 
d="M614 773h-133l-38 67l-70 -67h-140l158 148h136zM223 230q-8 -44 16.5 -69t72.5 -25q37 0 62.5 15.5t25.5 46.5q0 29 -25 42t-91 28q-107 25 -158 68.5t-51 126.5q0 116 89 181.5t217 65.5q62 0 117.5 -16.5t99 -48.5t63 -85.5t6.5 -120.5h-174q11 59 -20 88.5t-90 29.5
q-54 0 -90 -22t-36 -58q0 -23 18.5 -40t38 -23.5t57.5 -16.5q40 -10 63.5 -17.5t56.5 -23.5t50.5 -34.5t31 -49t13.5 -70.5q0 -104 -78 -158t-196 -54q-138 0 -211 69.5t-55 170.5h177z" />
    <glyph glyph-name="scircumflex" unicode="&#x15d;" horiz-adv-x="528" 
d="M486 565h-121l-34 61l-64 -61h-127l143 135h124zM177 167q-7 -63 60 -63q57 0 57 39q0 20 -17 29t-68 22q-82 21 -125 52.5t-43 93.5q0 78 66.5 124t176.5 46q120 0 180 -53.5t52 -133.5h-151q1 30 -22.5 47t-62.5 17q-30 0 -51.5 -10t-21.5 -31q0 -10 5 -16.5t19.5 -12
t25.5 -8.5t37 -9q78 -18 121 -49.5t43 -97.5q0 -79 -62 -121t-159 -42q-109 0 -168.5 51t-47.5 126h156z" />
    <glyph glyph-name="Scedilla" unicode="&#x15e;" horiz-adv-x="653" 
d="M667 439h-174q11 59 -20 88.5t-90 29.5q-54 0 -90 -22t-36 -58q0 -23 18.5 -40t38 -23.5t57.5 -16.5q40 -10 63.5 -17.5t56.5 -23.5t50.5 -34.5t31 -49t13.5 -70.5q0 -100 -72.5 -154t-184.5 -58q39 -41 39 -92q0 -140 -197 -140h-47l20 85h41q46 0 68.5 21t22.5 52
q0 40 -54 83q-96 22 -143 85.5t-33 145.5h177q-8 -44 16.5 -69t72.5 -25q37 0 62.5 15.5t25.5 46.5q0 29 -25 42t-91 28q-107 25 -158 68.5t-51 126.5q0 116 89 181.5t217 65.5q62 0 117.5 -16.5t99 -48.5t63 -85.5t6.5 -120.5z" />
    <glyph glyph-name="scedilla" unicode="&#x15f;" horiz-adv-x="528" 
d="M516 323h-151q1 30 -22.5 47t-62.5 17q-30 0 -51.5 -10t-21.5 -31q0 -10 5 -16.5t19.5 -12t25.5 -8.5t37 -9q78 -18 121 -49.5t43 -97.5q0 -75 -57.5 -117t-147.5 -46q35 -37 35 -83q0 -127 -179 -127h-43l18 77h37q42 0 62.5 19.5t20.5 47.5q0 37 -49 75
q-71 18 -107 63.5t-27 104.5h156q-7 -63 60 -63q57 0 57 39q0 20 -17 29t-68 22q-82 21 -125 52.5t-43 93.5q0 78 66.5 124t176.5 46q120 0 180 -53.5t52 -133.5z" />
    <glyph glyph-name="Scaron" unicode="&#x160;" horiz-adv-x="653" 
d="M510 928h140l-157 -148h-137l-87 148h134l37 -67zM223 230q-8 -44 16.5 -69t72.5 -25q37 0 62.5 15.5t25.5 46.5q0 29 -25 42t-91 28q-107 25 -158 68.5t-51 126.5q0 116 89 181.5t217 65.5q62 0 117.5 -16.5t99 -48.5t63 -85.5t6.5 -120.5h-174q11 59 -20 88.5t-90 29.5
q-54 0 -90 -22t-36 -58q0 -23 18.5 -40t38 -23.5t57.5 -16.5q40 -10 63.5 -17.5t56.5 -23.5t50.5 -34.5t31 -49t13.5 -70.5q0 -104 -78 -158t-196 -54q-138 0 -211 69.5t-55 170.5h177z" />
    <glyph glyph-name="scaron" unicode="&#x161;" horiz-adv-x="528" 
d="M388 700h127l-143 -135h-124l-79 135h121l34 -61zM177 167q-7 -63 60 -63q57 0 57 39q0 20 -17 29t-68 22q-82 21 -125 52.5t-43 93.5q0 78 66.5 124t176.5 46q120 0 180 -53.5t52 -133.5h-151q1 30 -22.5 47t-62.5 17q-30 0 -51.5 -10t-21.5 -31q0 -10 5 -16.5t19.5 -12
t25.5 -8.5t37 -9q78 -18 121 -49.5t43 -97.5q0 -79 -62 -121t-159 -42q-109 0 -168.5 51t-47.5 126h156z" />
    <glyph glyph-name="uni0162" unicode="&#x162;" horiz-adv-x="649" 
d="M733 700l-36 -154h-215l-126 -546h-81q49 -47 49 -102q0 -140 -197 -140h-47l20 85h41q46 0 68.5 21t22.5 52q0 40 -55 84h-1l126 546h-214l36 154h609z" />
    <glyph glyph-name="uni0163" unicode="&#x163;" horiz-adv-x="422" 
d="M294 385l-37 -162q-11 -46 6 -69.5t70 -23.5h46l-30 -129q45 -43 45 -93q0 -127 -179 -127h-43l18 77h37q42 0 62.5 19.5t20.5 47.5q0 37 -49 75q-104 4 -150.5 63t-24.5 155l38 167h-91l26 115h92l25 110l177 30l-32 -140h133l-26 -115h-134z" />
    <glyph glyph-name="Tcaron" unicode="&#x164;" horiz-adv-x="649" 
d="M509 780h-137l-87 148h134l37 -67l70 67h140zM733 700l-36 -154h-215l-126 -546h-180l126 546h-214l36 154h609z" />
    <glyph glyph-name="tcaron" unicode="&#x165;" horiz-adv-x="433" 
d="M444 700h173l-23 -94q-25 -102 -79 -145.5t-160 -47.5l15 65q51 0 78 22t32 47h-73zM245 213q-9 -38 6 -60.5t56 -22.5h63l-30 -130h-117q-84 0 -128.5 52t-22.5 145l43 188h-91l26 115h92l25 110l177 30l-54 -234l-5 -21z" />
    <glyph glyph-name="Tbar" unicode="&#x166;" horiz-adv-x="649" 
d="M697 546h-215l-27 -117h155l-33 -142h-155l-66 -287h-180l66 287h-156l33 142h156l27 117h-214l36 154h609z" />
    <glyph glyph-name="tbar" unicode="&#x167;" horiz-adv-x="422" 
d="M428 385h-134l-14 -61h134l-26 -110h-133q-16 -84 78 -84h46l-30 -130h-75q-109 0 -159.5 58.5t-29.5 155.5h-92l26 110h91l14 61h-91l26 115h92l25 110l177 30l-32 -140h133z" />
    <glyph glyph-name="Utilde" unicode="&#x168;" horiz-adv-x="752" 
d="M268 767q48 158 184 158q39 0 64 -11.5t41.5 -22.5t35.5 -11q43 0 63 39h105q-51 -157 -185 -157q-51 0 -88.5 22.5t-57.5 22.5q-37 0 -59 -40h-103zM162 700h180l-91 -393q-38 -164 104 -164q134 0 172 164l91 393h180l-100 -432q-30 -131 -122 -204.5t-242 -73.5
q-160 0 -228 86.5t-28 259.5z" />
    <glyph glyph-name="utilde" unicode="&#x169;" horiz-adv-x="621" 
d="M325 590q-31 0 -49 -36h-86q40 143 153 143q42 0 72 -20.5t46 -20.5q35 0 52 36h88q-43 -143 -154 -143q-43 0 -74 20.5t-48 20.5zM455 500h168l-115 -500h-168l21 90q-65 -100 -182 -100q-85 0 -123 54.5t-13 162.5l67 293h171l-62 -267q-14 -55 -3.5 -80.5t49.5 -25.5
q49 0 86.5 45.5t66.5 166.5z" />
    <glyph glyph-name="Umacron" unicode="&#x16a;" horiz-adv-x="752" 
d="M349 899h341l-26 -113h-341zM162 700h180l-91 -393q-38 -164 104 -164q134 0 172 164l91 393h180l-100 -432q-30 -131 -122 -204.5t-242 -73.5q-160 0 -228 86.5t-28 259.5z" />
    <glyph glyph-name="umacron" unicode="&#x16b;" horiz-adv-x="621" 
d="M564 680l-24 -103h-310l24 103h310zM455 500h168l-115 -500h-168l21 90q-65 -100 -182 -100q-85 0 -123 54.5t-13 162.5l67 293h171l-62 -267q-14 -55 -3.5 -80.5t49.5 -25.5q49 0 86.5 45.5t66.5 166.5z" />
    <glyph glyph-name="Ubreve" unicode="&#x16c;" horiz-adv-x="752" 
d="M699 930q-15 -68 -68 -111t-128 -43t-112.5 46t-24.5 108h111q-7 -54 44 -54q50 0 66 54h112zM162 700h180l-91 -393q-38 -164 104 -164q134 0 172 164l91 393h180l-100 -432q-30 -131 -122 -204.5t-242 -73.5q-160 0 -228 86.5t-28 259.5z" />
    <glyph glyph-name="ubreve" unicode="&#x16d;" horiz-adv-x="621" 
d="M383 550q-68 0 -102 41.5t-22 98.5h101q-7 -49 40 -49q46 0 60 49h102q-14 -62 -62.5 -101t-116.5 -39zM455 500h168l-115 -500h-168l21 90q-65 -100 -182 -100q-85 0 -123 54.5t-13 162.5l67 293h171l-62 -267q-14 -55 -3.5 -80.5t49.5 -25.5q49 0 86.5 45.5t66.5 166.5
z" />
    <glyph glyph-name="Uring" unicode="&#x16e;" horiz-adv-x="752" 
d="M491 730q-53 0 -82 32.5t-29 79.5q0 58 44.5 99.5t104.5 41.5q52 0 81.5 -32t29.5 -78q0 -59 -44.5 -101t-104.5 -42zM502 821q16 0 29.5 13t13.5 29q0 12 -7.5 20.5t-19.5 8.5q-16 0 -29.5 -13t-13.5 -29q0 -12 7.5 -20.5t19.5 -8.5zM162 700h180l-91 -393
q-38 -164 104 -164q134 0 172 164l91 393h180l-100 -432q-30 -131 -122 -204.5t-242 -73.5q-160 0 -228 86.5t-28 259.5z" />
    <glyph glyph-name="uring" unicode="&#x16f;" horiz-adv-x="621" 
d="M386 539q-48 0 -74.5 30t-26.5 72q0 53 40.5 90.5t94.5 37.5q47 0 74 -29t27 -71q0 -54 -40.5 -92t-94.5 -38zM410 686q-15 0 -27 -12t-12 -26q0 -11 6.5 -18.5t18.5 -7.5q15 0 27 12t12 26q0 11 -6.5 18.5t-18.5 7.5zM455 500h168l-115 -500h-168l21 90
q-65 -100 -182 -100q-85 0 -123 54.5t-13 162.5l67 293h171l-62 -267q-14 -55 -3.5 -80.5t49.5 -25.5q49 0 86.5 45.5t66.5 166.5z" />
    <glyph glyph-name="Uhungarumlaut" unicode="&#x170;" horiz-adv-x="752" 
d="M426 945h164l-150 -159h-128zM645 945h164l-150 -159h-128zM162 700h180l-91 -393q-38 -164 104 -164q134 0 172 164l91 393h180l-100 -432q-30 -131 -122 -204.5t-242 -73.5q-160 0 -228 86.5t-28 259.5z" />
    <glyph glyph-name="uhungarumlaut" unicode="&#x171;" horiz-adv-x="621" 
d="M468 700l-137 -145h-116l104 145h149zM530 555h-116l104 145h149zM418 339l37 161h168l-115 -500h-168l21 90q-65 -100 -182 -100q-85 0 -123 54.5t-13 162.5l67 293h171l-62 -267q-14 -55 -3.5 -80.5t49.5 -25.5q49 0 86.5 45.5t66.5 166.5z" />
    <glyph glyph-name="Uogonek" unicode="&#x172;" horiz-adv-x="752" 
d="M618 700h180l-100 -432q-27 -118 -105 -190t-204 -85q-48 -27 -70 -50.5t-22 -52.5q0 -47 64 -47h27l-20 -85h-33q-71 0 -105.5 29.5t-34.5 78.5q0 26 7.5 45.5t24.5 35.5t28.5 23.5t34.5 21.5q-137 12 -193 97.5t-19 246.5l84 364h180l-91 -393q-38 -164 104 -164
q134 0 172 164z" />
    <glyph glyph-name="uogonek" unicode="&#x173;" horiz-adv-x="621" 
d="M512 0q-50 -27 -72.5 -49.5t-22.5 -50.5q0 -43 58 -43h24l-18 -77h-30q-64 0 -95.5 26.5t-31.5 71.5q0 13 3 25t6 21t11 18.5t13 14.5t16.5 13t15.5 10.5t17.5 10t16.5 9.5h-83l21 90q-65 -100 -182 -100q-85 0 -123 54.5t-13 162.5l67 293h171l-62 -267
q-14 -55 -3.5 -80.5t49.5 -25.5q49 0 86.5 45.5t66.5 166.5l37 161h168l-115 -500h4z" />
    <glyph glyph-name="Wcircumflex" unicode="&#x174;" horiz-adv-x="1044" 
d="M656 840l-70 -67h-140l158 148h136l87 -148h-133zM950 700h193l-358 -700h-187l-14 490l-241 -490h-201l-33 700h182l1 -486l238 486h193l12 -459z" />
    <glyph glyph-name="wcircumflex" unicode="&#x175;" horiz-adv-x="786" 
d="M486 626l-64 -61h-127l143 135h124l79 -135h-121zM677 500h166l-258 -500h-154l-18 340l-174 -340h-154l-28 500h149l7 -304l151 304h161l13 -289z" />
    <glyph glyph-name="Ycircumflex" unicode="&#x176;" horiz-adv-x="747" 
d="M519 840l-70 -67h-140l158 148h136l87 -148h-133zM628 700h218l-542 -700h-220l227 288l-202 412h208l117 -260z" />
    <glyph glyph-name="ycircumflex" unicode="&#x177;" horiz-adv-x="592" 
d="M389 626l-64 -61h-127l143 135h124l79 -135h-121zM480 500h184l-391 -597q-44 -67 -97.5 -95t-153.5 -28h-102l30 130h62q57 0 81 17t63 73l24 34l-138 466h171l82 -306z" />
    <glyph glyph-name="Ydieresis" unicode="&#x178;" horiz-adv-x="747" 
d="M491 920l-34 -144h-154l33 144h155zM733 920l-34 -144h-154l33 144h155zM628 700h218l-542 -700h-220l227 288l-202 412h208l117 -260z" />
    <glyph glyph-name="Zacute" unicode="&#x179;" horiz-adv-x="681" 
d="M700 935l-198 -159h-146l143 159h201zM729 700l-24 -104l-428 -442h339l-36 -154h-603l24 104l428 442h-309l36 154h573z" />
    <glyph glyph-name="zacute" unicode="&#x17a;" horiz-adv-x="504" 
d="M544 700l-180 -145h-133l130 145h183zM57 367l30 133h429l-22 -99l-272 -267h219l-31 -134h-448l21 90l286 277h-212z" />
    <glyph glyph-name="Zdotaccent" unicode="&#x17b;" horiz-adv-x="681" 
d="M589 925l-36 -152h-189l35 152h190zM729 700l-24 -104l-428 -442h339l-36 -154h-603l24 104l428 442h-309l36 154h573z" />
    <glyph glyph-name="zdotaccent" unicode="&#x17c;" horiz-adv-x="504" 
d="M435 700l-32 -138h-172l32 138h172zM516 500l-22 -99l-272 -267h219l-31 -134h-448l21 90l286 277h-212l30 133h429z" />
    <glyph glyph-name="Zcaron" unicode="&#x17d;" horiz-adv-x="681" 
d="M528 780h-137l-87 148h134l37 -67l70 67h140zM729 700l-24 -104l-428 -442h339l-36 -154h-603l24 104l428 442h-309l36 154h573z" />
    <glyph glyph-name="zcaron" unicode="&#x17e;" horiz-adv-x="504" 
d="M379 565h-124l-79 135h121l34 -61l64 61h127zM57 367l30 133h429l-22 -99l-272 -267h219l-31 -134h-448l21 90l286 277h-212z" />
    <glyph glyph-name="florin" unicode="&#x192;" horiz-adv-x="642" 
d="M600 700h115l-30 -130h-68q-61 0 -91 -25.5t-56 -86.5l-24 -54h145l-23 -100h-165l-66 -151q-31 -71 -101.5 -112t-152.5 -41h-111l30 130h68q61 0 90 25.5t57 89.5l25 59h-133l23 100h153l53 125q36 85 107.5 128t154.5 43z" />
    <glyph glyph-name="uni01CD" unicode="&#x1cd;" horiz-adv-x="731" 
d="M550 780h-137l-87 148h134l37 -67l70 67h140zM576 700l92 -700h-180l-14 143h-258l-81 -143h-188l416 700h213zM295 282h165l-25 246z" />
    <glyph glyph-name="uni01CE" unicode="&#x1ce;" horiz-adv-x="611" 
d="M419 565h-124l-79 135h121l34 -61l64 61h127zM451 500h162l-115 -500h-162l10 46q-51 -56 -144 -56q-82 0 -134 53.5t-52 153.5q0 132 86 222.5t194 90.5q98 0 142 -68zM261 109q42 0 78 32.5t49 85.5l3 11q4 19 4 43q0 98 -76 98q-57 0 -94 -52t-37 -121q0 -47 19 -72
t54 -25z" />
    <glyph glyph-name="uni01CF" unicode="&#x1cf;" horiz-adv-x="300" 
d="M351 928h140l-157 -148h-137l-87 148h134l37 -67zM182 0h-180l162 700h180z" />
    <glyph glyph-name="uni01D0" unicode="&#x1d0;" horiz-adv-x="281" 
d="M291 700h127l-143 -135h-124l-79 135h121l34 -61zM168 0h-170l115 500h170z" />
    <glyph glyph-name="uni01D1" unicode="&#x1d1;" horiz-adv-x="794" 
d="M581 928h140l-157 -148h-137l-87 148h134l37 -67zM364 -10q-149 0 -233 78t-84 226q0 181 119 298.5t310 117.5q149 0 233 -78t84 -226q0 -181 -119 -298.5t-310 -117.5zM377 141q94 0 157.5 77t63.5 184q0 75 -34.5 116t-100.5 41q-94 0 -157.5 -77t-63.5 -184
q0 -75 34.5 -116t100.5 -41z" />
    <glyph glyph-name="uni01D2" unicode="&#x1d2;" horiz-adv-x="584" 
d="M434 700h127l-143 -135h-124l-79 135h121l34 -61zM248 -10q-108 0 -168 55.5t-60 162.5q0 135 89.5 218.5t226.5 83.5q108 0 167.5 -56t59.5 -163q0 -135 -89 -218t-226 -83zM267 116q61 0 93 54.5t32 119.5q0 93 -73 93q-58 0 -92.5 -52.5t-34.5 -120.5q0 -94 75 -94z
" />
    <glyph glyph-name="uni01D3" unicode="&#x1d3;" horiz-adv-x="752" 
d="M577 928h140l-157 -148h-137l-87 148h134l37 -67zM162 700h180l-91 -393q-38 -164 104 -164q134 0 172 164l91 393h180l-100 -432q-30 -131 -122 -204.5t-242 -73.5q-160 0 -228 86.5t-28 259.5z" />
    <glyph glyph-name="uni01D4" unicode="&#x1d4;" horiz-adv-x="621" 
d="M444 565h-124l-79 135h121l34 -61l64 61h127zM455 500h168l-115 -500h-168l21 90q-65 -100 -182 -100q-85 0 -123 54.5t-13 162.5l67 293h171l-62 -267q-14 -55 -3.5 -80.5t49.5 -25.5q49 0 86.5 45.5t66.5 166.5z" />
    <glyph glyph-name="uni01E2" unicode="&#x1e2;" horiz-adv-x="907" 
d="M875 899l-26 -113h-341l26 113h341zM933 548h-337l17 -126h262l-32 -141h-212l17 -129h193l-35 -152h-318l-14 143h-258l-81 -143h-188l416 700h605zM295 282h165l-25 246z" />
    <glyph glyph-name="uni01E3" unicode="&#x1e3;" horiz-adv-x="913" 
d="M724 680l-24 -103h-310l24 103h310zM658 510q120 0 175.5 -72t38.5 -202q-2 -18 -4 -24h-346v-6q0 -49 19.5 -71t64.5 -22q67 0 94 58h161q-39 -93 -102 -137t-162 -44q-143 0 -204 87q-37 -43 -102.5 -65t-133.5 -22q-160 0 -160 125q0 39 17 69t40.5 47.5t65 31
t72.5 20t82 13.5q56 9 78 15.5t30 23.5l3 6q1 1 1 3t1 3q4 20 -10.5 30.5t-44.5 10.5q-78 0 -102 -70h-159q21 83 84 137t182 54q104 0 157 -43q69 44 164 44zM542 307h177q7 85 -65 85q-75 0 -112 -85zM219 99q41 0 82 25.5t54 83.5l2 8v3q-20 -11 -80 -23q-55 -12 -80 -26
t-25 -38q0 -33 47 -33z" />
    <glyph glyph-name="uni01EB" unicode="&#x1eb;" horiz-adv-x="584" 
d="M285 -8q-42 -24 -61 -45t-19 -47q0 -43 58 -43h24l-18 -77h-30q-64 0 -95.5 26.5t-31.5 71.5q0 31 15 55t29.5 34t42.5 26q-86 12 -132.5 66.5t-46.5 148.5q0 135 89.5 218.5t226.5 83.5q108 0 167.5 -56t59.5 -163q0 -125 -77.5 -206.5t-200.5 -92.5zM319 383
q-58 0 -92.5 -52.5t-34.5 -120.5q0 -94 75 -94q61 0 93 54.5t32 119.5q0 93 -73 93z" />
    <glyph glyph-name="AEacute" unicode="&#x1fc;" horiz-adv-x="907" 
d="M917 935l-198 -159h-146l143 159h201zM933 548h-337l17 -126h262l-32 -141h-212l17 -129h193l-35 -152h-318l-14 143h-258l-81 -143h-188l416 700h605zM295 282h165l-25 246z" />
    <glyph glyph-name="aeacute" unicode="&#x1fd;" horiz-adv-x="913" 
d="M769 700l-180 -145h-133l130 145h183zM658 510q120 0 175.5 -72t38.5 -202q-2 -18 -4 -24h-346v-6q0 -49 19.5 -71t64.5 -22q67 0 94 58h161q-39 -93 -102 -137t-162 -44q-143 0 -204 87q-37 -43 -102.5 -65t-133.5 -22q-160 0 -160 125q0 39 17 69t40.5 47.5t65 31
t72.5 20t82 13.5q56 9 78 15.5t30 23.5l3 6q1 1 1 3t1 3q4 20 -10.5 30.5t-44.5 10.5q-78 0 -102 -70h-159q21 83 84 137t182 54q104 0 157 -43q69 44 164 44zM542 307h177q7 85 -65 85q-75 0 -112 -85zM219 99q41 0 82 25.5t54 83.5l2 8v3q-20 -11 -80 -23q-55 -12 -80 -26
t-25 -38q0 -33 47 -33z" />
    <glyph glyph-name="Oslashacute" unicode="&#x1fe;" horiz-adv-x="794" 
d="M736 935l-198 -159h-146l143 159h201zM826 647l-75 -68q42 -72 42 -173q0 -181 -119 -298.5t-310 -117.5q-124 0 -204 54l-71 -64l-76 73l75 68q-41 70 -41 173q0 181 119 298.5t310 117.5q125 0 203 -54l71 64zM242 298q0 -12 2 -36l301 273q-31 24 -82 24
q-94 0 -157.5 -77t-63.5 -184zM598 402q0 13 -2 37l-302 -273q33 -25 83 -25q94 0 157.5 77t63.5 184z" />
    <glyph glyph-name="oslashacute" unicode="&#x1ff;" horiz-adv-x="584" 
d="M583 700l-180 -145h-133l130 145h183zM599 466l-63 -54q27 -49 27 -121q0 -135 -89 -218t-226 -83q-96 0 -154 44l-63 -54l-47 48l65 57q-29 49 -29 123q0 135 89.5 218.5t226.5 83.5q95 0 153 -44l62 54zM192 210v-2l179 155q-18 20 -52 20q-58 0 -92.5 -52.5
t-34.5 -120.5zM267 116q61 0 93 54t32 119l-178 -153q18 -20 53 -20z" />
    <glyph glyph-name="Scommaaccent" unicode="&#x218;" horiz-adv-x="653" 
d="M667 439h-174q11 59 -20 88.5t-90 29.5q-54 0 -90 -22t-36 -58q0 -23 18.5 -40t38 -23.5t57.5 -16.5q40 -10 63.5 -17.5t56.5 -23.5t50.5 -34.5t31 -49t13.5 -70.5q0 -104 -78 -158t-196 -54q-138 0 -211 69.5t-55 170.5h177q-8 -44 16.5 -69t72.5 -25q37 0 62.5 15.5
t25.5 46.5q0 29 -25 42t-91 28q-107 25 -158 68.5t-51 126.5q0 116 89 181.5t217 65.5q62 0 117.5 -16.5t99 -48.5t63 -85.5t6.5 -120.5zM147 -216l34 150h160l-21 -92q-23 -100 -73 -142t-149 -47l15 64q47 0 71.5 21.5t30.5 45.5h-68z" />
    <glyph glyph-name="scommaaccent" unicode="&#x219;" horiz-adv-x="528" 
d="M516 323h-151q1 30 -22.5 47t-62.5 17q-30 0 -51.5 -10t-21.5 -31q0 -10 5 -16.5t19.5 -12t25.5 -8.5t37 -9q78 -18 121 -49.5t43 -97.5q0 -79 -62 -121t-159 -42q-109 0 -168.5 51t-47.5 126h156q-7 -63 60 -63q57 0 57 39q0 20 -17 29t-68 22q-82 21 -125 52.5
t-43 93.5q0 78 66.5 124t176.5 46q120 0 180 -53.5t52 -133.5zM100 -196l32 136h145l-19 -83q-21 -92 -66.5 -130t-135.5 -42l13 57q43 0 65.5 19.5t27.5 42.5h-62z" />
    <glyph glyph-name="uni021A" unicode="&#x21a;" horiz-adv-x="649" 
d="M733 700l-36 -154h-215l-126 -546h-180l126 546h-214l36 154h609zM138 -216l34 150h160l-21 -92q-23 -100 -73 -142t-149 -47l15 64q47 0 71.5 21.5t30.5 45.5h-68z" />
    <glyph glyph-name="uni021B" unicode="&#x21b;" horiz-adv-x="422" 
d="M294 385l-37 -162q-11 -46 6 -69.5t70 -23.5h46l-30 -130h-75q-110 0 -160.5 59.5t-27.5 158.5l38 167h-91l26 115h92l25 110l177 30l-32 -140h133l-26 -115h-134zM77 -196l32 136h145l-19 -83q-21 -92 -66.5 -130t-135.5 -42l13 57q43 0 65.5 19.5t27.5 42.5h-62z" />
    <glyph glyph-name="uni0226" unicode="&#x226;" horiz-adv-x="731" 
d="M611 925l-36 -152h-189l35 152h190zM488 0l-14 143h-258l-81 -143h-188l416 700h213l92 -700h-180zM295 282h165l-25 246z" />
    <glyph glyph-name="uni0227" unicode="&#x227;" horiz-adv-x="611" 
d="M475 700l-32 -138h-172l32 138h172zM451 500h162l-115 -500h-162l10 46q-51 -56 -144 -56q-82 0 -134 53.5t-52 153.5q0 132 86 222.5t194 90.5q98 0 142 -68zM261 109q42 0 78 32.5t49 85.5l3 11q4 19 4 43q0 98 -76 98q-57 0 -94 -52t-37 -121q0 -47 19 -72t54 -25z
" />
    <glyph glyph-name="uni0232" unicode="&#x232;" horiz-adv-x="747" 
d="M699 899l-26 -113h-341l26 113h341zM628 700h218l-542 -700h-220l227 288l-202 412h208l117 -260z" />
    <glyph glyph-name="uni0233" unicode="&#x233;" horiz-adv-x="592" 
d="M550 680l-24 -103h-310l24 103h310zM480 500h184l-391 -597q-44 -67 -97.5 -95t-153.5 -28h-102l30 130h62q57 0 81 17t63 73l24 34l-138 466h171l82 -306z" />
    <glyph glyph-name="uni0237" unicode="&#x237;" horiz-adv-x="281" 
d="M283 500l-100 -433l-23 -103q-22 -95 -82 -139.5t-165 -44.5h-141l31 132h72q103 0 124 93l16 69l98 426h170z" />
    <glyph glyph-name="circumflex" unicode="&#x2c6;" horiz-adv-x="450" 
d="M470 565h-121l-34 61l-64 -61h-127l143 135h124z" />
    <glyph glyph-name="caron" unicode="&#x2c7;" horiz-adv-x="450" 
d="M375 700h127l-143 -135h-124l-79 135h121l34 -61z" />
    <glyph glyph-name="breve" unicode="&#x2d8;" horiz-adv-x="450" 
d="M477 690q-14 -62 -62.5 -101t-116.5 -39t-102 41.5t-22 98.5h101q-7 -49 40 -49q46 0 60 49h102z" />
    <glyph glyph-name="dotaccent" unicode="&#x2d9;" horiz-adv-x="450" 
d="M211 562l32 138h172l-32 -138h-172z" />
    <glyph glyph-name="ring" unicode="&#x2da;" horiz-adv-x="450" 
d="M301 539q-48 0 -74.5 30t-26.5 72q0 53 40.5 90.5t94.5 37.5q47 0 74 -29t27 -71q0 -54 -40.5 -92t-94.5 -38zM311 622q15 0 27 12t12 26q0 11 -6.5 18.5t-18.5 7.5q-15 0 -27 -12t-12 -26q0 -11 6.5 -18.5t18.5 -7.5z" />
    <glyph glyph-name="ogonek" unicode="&#x2db;" horiz-adv-x="450" 
d="M152 0h89q-50 -27 -72.5 -49.5t-22.5 -50.5q0 -43 58 -43h24l-18 -77h-30q-64 0 -95.5 26.5t-31.5 71.5q0 13 3 25t6 21t11 18.5t13 14.5t16.5 13t15.5 10.5t17.5 10t16.5 9.5z" />
    <glyph glyph-name="tilde" unicode="&#x2dc;" horiz-adv-x="450" 
d="M106 554q40 143 153 143q42 0 72 -20.5t46 -20.5q35 0 52 36h88q-43 -143 -154 -143q-43 0 -74 20.5t-48 20.5q-31 0 -49 -36h-86z" />
    <glyph glyph-name="hungarumlaut" unicode="&#x2dd;" horiz-adv-x="450" 
d="M212 700h149l-137 -145h-116zM411 700h149l-137 -145h-116z" />
    <glyph glyph-name="uni0394" unicode="&#x394;" horiz-adv-x="780" 
d="M576 700l148 -582l-27 -118h-730l27 118l418 582h164zM204 148h342l-82 386z" />
    <glyph glyph-name="uni03A9" unicode="&#x3a9;" horiz-adv-x="846" 
d="M836 422q0 -167 -148 -263h92l-37 -159h-346l27 118q62 14 109 49t70.5 78t34.5 81.5t11 72.5q0 65 -39.5 112.5t-121.5 47.5q-105 0 -175 -77.5t-70 -181.5q0 -64 28.5 -116t88.5 -66l-27 -118h-346l37 159h118q-75 65 -75 181q0 152 118.5 261t310.5 109
q161 0 250.5 -79t89.5 -209z" />
    <glyph glyph-name="uni03BC" unicode="&#x3bc;" horiz-adv-x="624" 
d="M458 500h168l-115 -500h-168l21 90q-65 -100 -182 -100q-20 0 -36 3l-49 -213h-150l108 468l58 252h171l-62 -267q-14 -55 -3.5 -80.5t49.5 -25.5q49 0 86.5 45.5t66.5 166.5z" />
    <glyph glyph-name="pi" unicode="&#x3c0;" horiz-adv-x="717" 
d="M605 369l-34 -146q-11 -46 6 -69.5t70 -23.5h35l-30 -130h-64q-110 0 -160.5 59.5t-27.5 158.5l35 151h-100l-85 -369h-168l85 369h-124l30 131h666l-30 -131h-104z" />
    <glyph glyph-name="Wgrave" unicode="&#x1e80;" horiz-adv-x="1044" 
d="M740 776h-133l-136 159h185zM950 700h193l-358 -700h-187l-14 490l-241 -490h-201l-33 700h182l1 -486l238 486h193l12 -459z" />
    <glyph glyph-name="wgrave" unicode="&#x1e81;" horiz-adv-x="786" 
d="M545 555h-121l-124 145h168zM677 500h166l-258 -500h-154l-18 340l-174 -340h-154l-28 500h149l7 -304l151 304h161l13 -289z" />
    <glyph glyph-name="Wacute" unicode="&#x1e82;" horiz-adv-x="1044" 
d="M878 935l-198 -159h-146l143 159h201zM950 700h193l-358 -700h-187l-14 490l-241 -490h-201l-33 700h182l1 -486l238 486h193l12 -459z" />
    <glyph glyph-name="wacute" unicode="&#x1e83;" horiz-adv-x="786" 
d="M692 700l-180 -145h-133l130 145h183zM677 500h166l-258 -500h-154l-18 340l-174 -340h-154l-28 500h149l7 -304l151 304h161l13 -289z" />
    <glyph glyph-name="Wdieresis" unicode="&#x1e84;" horiz-adv-x="1044" 
d="M628 920l-34 -144h-154l33 144h155zM870 920l-34 -144h-154l33 144h155zM950 700h193l-358 -700h-187l-14 490l-241 -490h-201l-33 700h182l1 -486l238 486h193l12 -459z" />
    <glyph glyph-name="wdieresis" unicode="&#x1e85;" horiz-adv-x="786" 
d="M457 700l-30 -131h-140l30 131h140zM677 700l-30 -131h-140l30 131h140zM677 500h166l-258 -500h-154l-18 340l-174 -340h-154l-28 500h149l7 -304l151 304h161l13 -289z" />
    <glyph glyph-name="uni1EA0" unicode="&#x1ea0;" horiz-adv-x="731" 
d="M668 0h-180l-14 143h-258l-81 -143h-188l416 700h213zM295 282h165l-25 246zM162 -221l35 152h190l-36 -152h-189z" />
    <glyph glyph-name="uni1EA1" unicode="&#x1ea1;" horiz-adv-x="611" 
d="M451 500h162l-115 -500h-162l10 46q-51 -56 -144 -56q-82 0 -134 53.5t-52 153.5q0 132 86 222.5t194 90.5q98 0 142 -68zM261 109q42 0 78 32.5t49 85.5l3 11q4 19 4 43q0 98 -76 98q-57 0 -94 -52t-37 -121q0 -47 19 -72t54 -25zM106 -220l32 138h172l-32 -138h-172z
" />
    <glyph glyph-name="uni1EB8" unicode="&#x1eb8;" horiz-adv-x="613" 
d="M638 546h-333l-28 -124h304l-32 -141h-305l-29 -127h333l-36 -154h-510l162 700h510zM111 -221l35 152h190l-36 -152h-189z" />
    <glyph glyph-name="uni1EB9" unicode="&#x1eb9;" horiz-adv-x="576" 
d="M321 510q120 0 175.5 -72t38.5 -202q-2 -18 -4 -24h-346v-6q0 -49 19.5 -71t64.5 -22q67 0 94 58h161q-39 -93 -102 -137t-162 -44q-121 0 -180.5 60t-59.5 159q0 122 81 211.5t220 89.5zM205 307h177q7 85 -65 85q-75 0 -112 -85zM104 -220l32 138h172l-32 -138h-172z
" />
    <glyph glyph-name="uni1ECA" unicode="&#x1eca;" horiz-adv-x="300" 
d="M182 0h-180l162 700h180zM-55 -221l35 152h190l-36 -152h-189z" />
    <glyph glyph-name="uni1ECC" unicode="&#x1ecc;" horiz-adv-x="794" 
d="M364 -10q-149 0 -233 78t-84 226q0 181 119 298.5t310 117.5q149 0 233 -78t84 -226q0 -181 -119 -298.5t-310 -117.5zM377 141q94 0 157.5 77t63.5 184q0 75 -34.5 116t-100.5 41q-94 0 -157.5 -77t-63.5 -184q0 -75 34.5 -116t100.5 -41zM193 -221l35 152h190l-36 -152
h-189z" />
    <glyph glyph-name="uni1ECD" unicode="&#x1ecd;" horiz-adv-x="584" 
d="M248 -10q-108 0 -168 55.5t-60 162.5q0 135 89.5 218.5t226.5 83.5q108 0 167.5 -56t59.5 -163q0 -135 -89 -218t-226 -83zM267 116q61 0 93 54.5t32 119.5q0 93 -73 93q-58 0 -92.5 -52.5t-34.5 -120.5q0 -94 75 -94zM97 -220l32 138h172l-32 -138h-172z" />
    <glyph glyph-name="uni1EE4" unicode="&#x1ee4;" horiz-adv-x="752" 
d="M162 700h180l-91 -393q-38 -164 104 -164q134 0 172 164l91 393h180l-100 -432q-30 -131 -122 -204.5t-242 -73.5q-160 0 -228 86.5t-28 259.5zM172 -221l35 152h190l-36 -152h-189z" />
    <glyph glyph-name="uni1EE5" unicode="&#x1ee5;" horiz-adv-x="621" 
d="M455 500h168l-115 -500h-168l21 90q-65 -100 -182 -100q-85 0 -123 54.5t-13 162.5l67 293h171l-62 -267q-14 -55 -3.5 -80.5t49.5 -25.5q49 0 86.5 45.5t66.5 166.5zM136 -220l32 138h172l-32 -138h-172z" />
    <glyph glyph-name="Ygrave" unicode="&#x1ef2;" horiz-adv-x="747" 
d="M603 776h-133l-136 159h185zM628 700h218l-542 -700h-220l227 288l-202 412h208l117 -260z" />
    <glyph glyph-name="ygrave" unicode="&#x1ef3;" horiz-adv-x="592" 
d="M448 555h-121l-124 145h168zM480 500h184l-391 -597q-44 -67 -97.5 -95t-153.5 -28h-102l30 130h62q57 0 81 17t63 73l24 34l-138 466h171l82 -306z" />
    <glyph glyph-name="uni200B" unicode="&#x200b;" horiz-adv-x="0" 
 />
    <glyph glyph-name="endash" unicode="&#x2013;" horiz-adv-x="746" 
d="M55 360h686l-30 -130h-686z" />
    <glyph glyph-name="emdash" unicode="&#x2014;" horiz-adv-x="1157" 
d="M55 360h1097l-30 -130h-1097z" />
    <glyph glyph-name="quoteleft" unicode="&#x2018;" horiz-adv-x="280" 
d="M343 638q-54 0 -82 -24.5t-34 -52.5h77l-39 -170h-182l24 104q26 114 83 162t169 53z" />
    <glyph glyph-name="quoteright" unicode="&#x2019;" horiz-adv-x="279" 
d="M155 700h182l-24 -104q-26 -114 -83 -162t-169 -53l16 72q54 0 82 24.5t34 52.5h-77z" />
    <glyph glyph-name="quotesinglbase" unicode="&#x201a;" horiz-adv-x="282" 
d="M32 170h182l-24 -104q-26 -114 -83 -162t-169 -53l16 72q54 0 82 24.5t34 52.5h-77z" />
    <glyph glyph-name="quotedblleft" unicode="&#x201c;" horiz-adv-x="508" 
d="M343 638q-54 0 -82 -24.5t-34 -52.5h77l-39 -170h-182l24 104q26 114 83 162t169 53zM571 638q-54 0 -82 -24.5t-34 -52.5h77l-39 -170h-182l24 104q26 114 83 162t169 53z" />
    <glyph glyph-name="quotedblright" unicode="&#x201d;" horiz-adv-x="507" 
d="M337 700l-24 -104q-26 -114 -83 -162t-169 -53l16 72q54 0 82 24.5t34 52.5h-77l39 170h182zM383 700h182l-24 -104q-26 -114 -83 -162t-169 -53l16 72q54 0 82 24.5t34 52.5h-77z" />
    <glyph glyph-name="quotedblbase" unicode="&#x201e;" horiz-adv-x="510" 
d="M214 170l-24 -104q-26 -114 -83 -162t-169 -53l16 72q54 0 82 24.5t34 52.5h-77l39 170h182zM260 170h182l-24 -104q-26 -114 -83 -162t-169 -53l16 72q54 0 82 24.5t34 52.5h-77z" />
    <glyph glyph-name="dagger" unicode="&#x2020;" horiz-adv-x="476" 
d="M521 532l-30 -130h-147l-93 -402h-142l93 402h-147l30 130h147l39 168h142l-39 -168h147z" />
    <glyph glyph-name="daggerdbl" unicode="&#x2021;" horiz-adv-x="481" 
d="M491 402h-147l-24 -104h152l-30 -130h-152l-39 -168h-142l39 168h-142l30 130h142l24 104h-147l30 130h147l39 168h142l-39 -168h147z" />
    <glyph glyph-name="bullet" unicode="&#x2022;" horiz-adv-x="242" 
d="M29 245l39 170h182l-39 -170h-182z" />
    <glyph glyph-name="ellipsis" unicode="&#x2026;" horiz-adv-x="822" 
d="M-8 0l39 170h182l-39 -170h-182zM262 0l39 170h182l-39 -170h-182zM532 0l39 170h182l-39 -170h-182z" />
    <glyph glyph-name="perthousand" unicode="&#x2030;" horiz-adv-x="1164" 
d="M241 390q-62 0 -100.5 39t-38.5 98q0 75 59.5 129t134.5 54q62 0 100.5 -39t38.5 -98q0 -75 -59.5 -129t-134.5 -54zM49 0l626 700h146l-626 -700h-146zM258 501q23 0 40 18t17 42q0 17 -9.5 27.5t-26.5 10.5q-23 0 -40 -18t-17 -42q0 -17 9.5 -27.5t26.5 -10.5zM564 -10
q-62 0 -100.5 39t-38.5 98q0 75 59.5 129t134.5 54q62 0 100.5 -39t38.5 -98q0 -75 -59.5 -129t-134.5 -54zM925 -10q-62 0 -100.5 39t-38.5 98q0 75 59.5 129t134.5 54q62 0 100.5 -39t38.5 -98q0 -75 -59.5 -129t-134.5 -54zM581 101q23 0 40 18t17 42q0 17 -9.5 27.5
t-26.5 10.5q-23 0 -40 -18t-17 -42q0 -17 9.5 -27.5t26.5 -10.5zM942 101q23 0 40 18t17 42q0 17 -9.5 27.5t-26.5 10.5q-23 0 -40 -18t-17 -42q0 -17 9.5 -27.5t26.5 -10.5z" />
    <glyph glyph-name="guilsinglleft" unicode="&#x2039;" horiz-adv-x="391" 
d="M417 490l-211 -209l103 -181h-172l-102 200l192 190h190z" />
    <glyph glyph-name="guilsinglright" unicode="&#x203a;" horiz-adv-x="391" 
d="M271 490l102 -200l-192 -190h-190l211 209l-103 181h172z" />
    <glyph glyph-name="uni2042" unicode="&#x2042;" horiz-adv-x="857" 
d="M555 384l-57 95l-58 -95l-73 53l72 84l-108 25l28 87l103 -44l-10 111h91l-10 -111l103 44l28 -87l-108 -25l72 -84zM404 253l28 -87l-108 -25l72 -84l-73 -53l-57 95l-58 -95l-73 53l72 84l-108 25l28 87l103 -44l-10 111h91l-10 -111zM808 166l-108 -25l72 -84l-73 -53
l-57 95l-58 -95l-73 53l72 84l-108 25l28 87l103 -44l-10 111h91l-10 -111l103 44z" />
    <glyph glyph-name="fraction" unicode="&#x2044;" horiz-adv-x="204" 
d="M-308 0l748 700h118l-748 -700h-118z" />
    <glyph glyph-name="uni2051" unicode="&#x2051;" horiz-adv-x="393" 
d="M432 546l-108 -25l72 -84l-73 -53l-57 95l-58 -95l-73 53l72 84l-108 25l28 87l103 -44l-10 111h91l-10 -111l103 44zM316 253l28 -87l-108 -25l72 -84l-73 -53l-57 95l-58 -95l-73 53l72 84l-108 25l28 87l103 -44l-10 111h91l-10 -111z" />
    <glyph glyph-name="uni2070" unicode="&#x2070;" horiz-adv-x="383" 
d="M241 403q-71 0 -105.5 42t-34.5 105q0 37 12 75.5t35 72.5t62.5 55.5t88.5 21.5q71 0 105 -41.5t34 -104.5q0 -52 -19.5 -101.5t-66.5 -87t-111 -37.5zM248 485q34 0 55.5 27.5t28 57.5t6.5 60q0 63 -46 63q-32 0 -53.5 -25t-29 -55.5t-7.5 -62.5q0 -65 46 -65z" />
    <glyph glyph-name="uni2074" unicode="&#x2074;" horiz-adv-x="350" 
d="M403 552l-17 -73h-56l-16 -69h-87l16 69h-173l12 54l209 237h106l-50 -218h56zM187 552h73l26 115z" />
    <glyph glyph-name="uni2075" unicode="&#x2075;" horiz-adv-x="347" 
d="M284 651q48 0 75 -29.5t27 -78.5q0 -63 -44.5 -103t-117.5 -40t-106.5 39.5t-25.5 92.5h89q-6 -57 48 -57q32 0 52 19.5t20 46.5q0 44 -49 44q-39 0 -67 -28l-65 27l71 186h226l-18 -79h-148l-23 -54q25 14 56 14z" />
    <glyph glyph-name="uni2076" unicode="&#x2076;" horiz-adv-x="345" 
d="M275 647q49 0 81.5 -30.5t32.5 -81.5q0 -60 -45.5 -97.5t-106.5 -37.5q-141 0 -141 147q0 109 55.5 168.5t138.5 59.5q64 0 100.5 -34.5t29.5 -81.5h-81q3 44 -47 44q-39 0 -66.5 -26.5t-39.5 -66.5q39 37 89 37zM228 472q26 0 48.5 17t22.5 47q0 22 -13 33.5t-31 11.5
q-26 0 -48 -18.5t-22 -47.5q0 -22 12.5 -32.5t30.5 -10.5z" />
    <glyph glyph-name="uni2077" unicode="&#x2077;" horiz-adv-x="318" 
d="M141 770h281l-12 -54l-228 -306h-108l209 280h-160z" />
    <glyph glyph-name="uni2078" unicode="&#x2078;" horiz-adv-x="352" 
d="M341 573q35 -21 35 -66q0 -50 -44 -78.5t-108 -28.5q-58 0 -94 24.5t-36 67.5q0 53 64 87q-46 23 -46 72q0 55 46 89.5t125 34.5q69 0 108.5 -26.5t39.5 -71.5q0 -36 -25 -63t-65 -41zM281 703q-33 0 -55.5 -15t-22.5 -39q0 -10 5 -18t13 -12.5t15 -7t14 -3.5l8 -2h4l8 2
t10.5 2.5t12.5 3.5t12.5 5t12 7.5t10 9.5t7 12t2.5 15q0 40 -56 40zM185 501q0 -32 42 -32q27 0 43.5 13t16.5 34q0 29 -40 40q-28 -5 -45 -19.5t-17 -35.5z" />
    <glyph glyph-name="uni2079" unicode="&#x2079;" horiz-adv-x="354" 
d="M235 528q-49 0 -81.5 30.5t-32.5 81.5q0 60 45.5 97.5t106.5 37.5q141 0 141 -147q0 -109 -55.5 -168.5t-138.5 -59.5q-64 0 -100.5 34.5t-29.5 81.5h81q-3 -44 47 -44q39 0 66.5 26.5t39.5 66.5q-39 -37 -89 -37zM282 703q-26 0 -48.5 -17t-22.5 -47q0 -22 13 -33.5
t31 -11.5q26 0 48 18.5t22 47.5q0 22 -12.5 32.5t-30.5 10.5z" />
    <glyph glyph-name="uni2080" unicode="&#x2080;" horiz-adv-x="383" 
d="M130 -77q-71 0 -105.5 42t-34.5 105q0 37 12 75.5t35 72.5t62.5 55.5t88.5 21.5q71 0 105 -41.5t34 -104.5q0 -52 -19.5 -101.5t-66.5 -87t-111 -37.5zM137 5q34 0 55.5 27.5t28 57.5t6.5 60q0 63 -46 63q-32 0 -53.5 -25t-29 -55.5t-7.5 -62.5q0 -65 46 -65z" />
    <glyph glyph-name="uni2081" unicode="&#x2081;" horiz-adv-x="309" 
d="M263 290l-83 -360h-95l48 208q-55 -24 -127 -25l19 81q59 0 106 22.5t59 73.5h73z" />
    <glyph glyph-name="uni2082" unicode="&#x2082;" horiz-adv-x="376" 
d="M261 -70h-284l13 56l91 56q78 49 107.5 77t29.5 63t-29 35q-48 0 -68 -84h-92q16 75 57.5 118.5t109.5 43.5q55 0 87 -28t32 -78q0 -46 -29 -82t-90 -77l-39 -26h121z" />
    <glyph glyph-name="uni2083" unicode="&#x2083;" horiz-adv-x="360" 
d="M228 95q38 -16 38 -68q0 -43 -36.5 -75t-106.5 -32q-76 0 -108.5 37t-21.5 89h95q-9 -49 36 -49q23 0 38 12.5t15 29.5q0 31 -50 31h-18l14 59h33q28 0 45 14t17 37q0 36 -43 36q-60 0 -79 -64h-92q42 139 176 139q64 0 99 -27t35 -74q0 -71 -86 -95z" />
    <glyph glyph-name="uni2084" unicode="&#x2084;" horiz-adv-x="350" 
d="M292 72l-17 -73h-56l-16 -69h-87l16 69h-173l12 54l209 237h106l-50 -218h56zM76 72h73l26 115z" />
    <glyph glyph-name="uni2085" unicode="&#x2085;" horiz-adv-x="347" 
d="M173 171q48 0 75 -29.5t27 -78.5q0 -63 -44.5 -103t-117.5 -40t-106.5 39.5t-25.5 92.5h89q-6 -57 48 -57q32 0 52 19.5t20 46.5q0 44 -49 44q-39 0 -67 -28l-65 27l71 186h226l-18 -79h-148l-23 -54q25 14 56 14z" />
    <glyph glyph-name="uni2086" unicode="&#x2086;" horiz-adv-x="345" 
d="M164 167q49 0 81.5 -30.5t32.5 -81.5q0 -60 -45.5 -97.5t-106.5 -37.5q-141 0 -141 147q0 109 55.5 168.5t138.5 59.5q64 0 100.5 -34.5t29.5 -81.5h-81q3 44 -47 44q-39 0 -66.5 -26.5t-39.5 -66.5q39 37 89 37zM117 -8q26 0 48.5 17t22.5 47q0 22 -13 33.5t-31 11.5
q-26 0 -48 -18.5t-22 -47.5q0 -22 12.5 -32.5t30.5 -10.5z" />
    <glyph glyph-name="uni2087" unicode="&#x2087;" horiz-adv-x="318" 
d="M30 290h281l-12 -54l-228 -306h-108l209 280h-160z" />
    <glyph glyph-name="uni2088" unicode="&#x2088;" horiz-adv-x="352" 
d="M230 93q35 -21 35 -66q0 -50 -44 -78.5t-108 -28.5q-58 0 -94 24.5t-36 67.5q0 53 64 87q-46 23 -46 72q0 55 46 89.5t125 34.5q69 0 108.5 -26.5t39.5 -71.5q0 -36 -25 -63t-65 -41zM170 223q-33 0 -55.5 -15t-22.5 -39q0 -10 5 -18t13 -12.5t15 -7t15 -3.5l7 -2h4l8 2
t10.5 2.5t12.5 3.5t12.5 5t12 7.5t10 9.5t7 12t2.5 15q0 40 -56 40zM74 21q0 -32 42 -32q27 0 43.5 13t16.5 34q0 29 -40 40q-28 -5 -45 -19.5t-17 -35.5z" />
    <glyph glyph-name="uni2089" unicode="&#x2089;" horiz-adv-x="354" 
d="M124 48q-49 0 -81.5 30.5t-32.5 81.5q0 60 45.5 97.5t106.5 37.5q141 0 141 -147q0 -109 -55.5 -168.5t-138.5 -59.5q-64 0 -100.5 34.5t-29.5 81.5h81q-3 -44 47 -44q39 0 66.5 26.5t39.5 66.5q-39 -37 -89 -37zM171 223q-26 0 -48.5 -17t-22.5 -47q0 -22 13 -33.5
t31 -11.5q26 0 48 18.5t22 47.5q0 22 -12.5 32.5t-30.5 10.5z" />
    <glyph glyph-name="Euro" unicode="&#x20ac;" horiz-adv-x="778" 
d="M780 435h-155q9 61 -15.5 99t-87.5 38q-104 0 -168 -99h216l-48 -100h-210q-8 -32 -9 -64h194l-48 -100h-137q24 -82 113 -82q112 0 162 126h158q-17 -71 -52.5 -123.5t-82.5 -82t-97.5 -43.5t-103.5 -14q-112 0 -183 58.5t-91 160.5h-115l23 100h87q1 29 8 64h-80
l23 100h90q49 107 144.5 172t217.5 65q130 0 196 -75t51 -200z" />
    <glyph glyph-name="uni2113" unicode="&#x2113;" horiz-adv-x="437" 
d="M450 488q0 -189 -247 -307q-6 -42 15 -56.5t79 -14.5h37l-25 -110h-55q-83 0 -129.5 33.5t-45.5 99.5q-63 -19 -103 -28l25 107q52 15 99 32l48 208q20 87 60 132t111 45q62 0 96.5 -35t34.5 -106zM264 449l-32 -138q97 68 97 169q0 20 -4.5 28t-15.5 8
q-16 0 -26.5 -15.5t-18.5 -51.5z" />
    <glyph glyph-name="uni2117" unicode="&#x2117;" 
d="M415 710q152 0 255 -103.5t103 -256.5t-103 -256.5t-255 -103.5t-255 103.5t-103 256.5t103 256.5t255 103.5zM415 70q115 0 193 81.5t78 198.5t-78 198.5t-193 81.5t-193 -81.5t-78 -198.5t78 -198.5t193 -81.5zM437 545q82 0 121 -39.5t39 -100.5q0 -141 -160 -140h-49
v-110h-98v390h98h49zM440 345q29 0 43.5 17t14.5 42t-14.5 42.5t-43.5 17.5h-52v-119h52z" />
    <glyph glyph-name="trademark" unicode="&#x2122;" horiz-adv-x="914" 
d="M443 605h-115l-67 -289h-110l67 289h-116l22 95h341zM973 700l-89 -384h-103l55 237l-131 -237h-100l-21 234l-54 -234h-103l89 384h150l15 -245l130 245h162z" />
    <glyph glyph-name="uni2153" unicode="&#x2153;" horiz-adv-x="859" 
d="M14 0l748 700h118l-748 -700h-118zM358 700l-83 -360h-95l48 208q-55 -24 -127 -25l19 81q59 0 106 22.5t59 73.5h73zM743 165q38 -16 38 -68q0 -43 -36.5 -75t-106.5 -32q-76 0 -108.5 37t-21.5 89h95q-9 -49 36 -49q23 0 38 12.5t15 29.5q0 31 -50 31h-18l14 59h33
q28 0 45 14t17 37q0 36 -43 36q-60 0 -79 -64h-92q42 139 176 139q64 0 99 -27t35 -74q0 -71 -86 -95z" />
    <glyph glyph-name="uni2154" unicode="&#x2154;" horiz-adv-x="919" 
d="M356 340h-284l13 56l91 56q78 49 107.5 77t29.5 63t-29 35q-48 0 -68 -84h-92q16 75 57.5 118.5t109.5 43.5q55 0 87 -28t32 -78q0 -46 -29 -82t-90 -77l-39 -26h121zM74 0l748 700h118l-748 -700h-118zM803 165q38 -16 38 -68q0 -43 -36.5 -75t-106.5 -32
q-76 0 -108.5 37t-21.5 89h95q-9 -49 36 -49q23 0 38 12.5t15 29.5q0 31 -50 31h-18l14 59h33q28 0 45 14t17 37q0 36 -43 36q-60 0 -79 -64h-92q42 139 176 139q64 0 99 -27t35 -74q0 -71 -86 -95z" />
    <glyph glyph-name="oneeighth" unicode="&#x215b;" horiz-adv-x="870" 
d="M14 0l748 700h118l-748 -700h-118zM358 700l-83 -360h-95l48 208q-55 -24 -127 -25l19 81q59 0 106 22.5t59 73.5h73zM764 163q35 -21 35 -66q0 -50 -44 -78.5t-108 -28.5q-58 0 -94 24.5t-36 67.5q0 53 64 87q-46 23 -46 72q0 55 46 89.5t125 34.5q69 0 108.5 -26.5
t39.5 -71.5q0 -36 -25 -63t-65 -41zM704 293q-33 0 -55.5 -15t-22.5 -39q0 -10 5 -18t13 -12.5t15 -7t15 -3.5l7 -2h4l8 2t10.5 2.5t12.5 3.5t12.5 5t12 7.5t10 9.5t7 12t2.5 15q0 40 -56 40zM608 91q0 -32 42 -32q27 0 43.5 13t16.5 34q0 29 -40 40q-28 -5 -45 -19.5
t-17 -35.5z" />
    <glyph glyph-name="threeeighths" unicode="&#x215c;" horiz-adv-x="890" 
d="M323 505q38 -16 38 -68q0 -43 -36.5 -75t-106.5 -32q-76 0 -108.5 37t-21.5 89h95q-9 -49 36 -49q23 0 38 12.5t15 29.5q0 31 -50 31h-18l14 59h33q28 0 45 14t17 37q0 36 -43 36q-60 0 -79 -64h-92q42 139 176 139q64 0 99 -27t35 -74q0 -71 -86 -95zM34 0l748 700h118
l-748 -700h-118zM784 163q35 -21 35 -66q0 -50 -44 -78.5t-108 -28.5q-58 0 -94 24.5t-36 67.5q0 53 64 87q-46 23 -46 72q0 55 46 89.5t125 34.5q69 0 108.5 -26.5t39.5 -71.5q0 -36 -25 -63t-65 -41zM724 293q-33 0 -55.5 -15t-22.5 -39q0 -10 5 -18t13 -12.5t15 -7
t15 -3.5l7 -2h4l8 2t10.5 2.5t12.5 3.5t12.5 5t12 7.5t10 9.5t7 12t2.5 15q0 40 -56 40zM628 91q0 -32 42 -32q27 0 43.5 13t16.5 34q0 29 -40 40q-28 -5 -45 -19.5t-17 -35.5z" />
    <glyph glyph-name="fiveeighths" unicode="&#x215d;" horiz-adv-x="873" 
d="M17 0l748 700h118l-748 -700h-118zM268 581q48 0 75 -29.5t27 -78.5q0 -63 -44.5 -103t-117.5 -40t-106.5 39.5t-25.5 92.5h89q-6 -57 48 -57q32 0 52 19.5t20 46.5q0 44 -49 44q-39 0 -67 -28l-65 27l71 186h226l-18 -79h-148l-23 -54q25 14 56 14zM767 163
q35 -21 35 -66q0 -50 -44 -78.5t-108 -28.5q-58 0 -94 24.5t-36 67.5q0 53 64 87q-46 23 -46 72q0 55 46 89.5t125 34.5q69 0 108.5 -26.5t39.5 -71.5q0 -36 -25 -63t-65 -41zM707 293q-33 0 -55.5 -15t-22.5 -39q0 -10 5 -18t13 -12.5t15 -7t14 -3.5l8 -2h4l8 2t10.5 2.5
t12.5 3.5t12.5 5t12 7.5t10 9.5t7 12t2.5 15q0 40 -56 40zM611 91q0 -32 42 -32q27 0 43.5 13t16.5 34q0 29 -40 40q-28 -5 -45 -19.5t-17 -35.5z" />
    <glyph glyph-name="seveneighths" unicode="&#x215e;" horiz-adv-x="786" 
d="M-70 0l748 700h118l-748 -700h-118zM125 700h281l-12 -54l-228 -306h-108l209 280h-160zM680 163q35 -21 35 -66q0 -50 -44 -78.5t-108 -28.5q-58 0 -94 24.5t-36 67.5q0 53 64 87q-46 23 -46 72q0 55 46 89.5t125 34.5q69 0 108.5 -26.5t39.5 -71.5q0 -36 -25 -63
t-65 -41zM620 293q-33 0 -55.5 -15t-22.5 -39q0 -10 5 -18t13 -12.5t15 -7t15 -3.5l7 -2h4l8 2t10.5 2.5t12.5 3.5t12.5 5t12 7.5t10 9.5t7 12t2.5 15q0 40 -56 40zM524 91q0 -32 42 -32q27 0 43.5 13t16.5 34q0 29 -40 40q-28 -5 -45 -19.5t-17 -35.5z" />
    <glyph glyph-name="arrowleft" unicode="&#x2190;" horiz-adv-x="678" 
d="M670 347l-28 -122h-413l108 -137l-101 -77l-205 275l332 275l75 -86l-159 -128h391z" />
    <glyph glyph-name="arrowup" unicode="&#x2191;" horiz-adv-x="616" 
d="M608 347l-101 -75l-96 128l-92 -400h-128l92 398l-150 -123l-76 92l329 259z" />
    <glyph glyph-name="arrowright" unicode="&#x2192;" horiz-adv-x="682" 
d="M458 561l205 -275l-332 -275l-75 86l159 128h-391l28 122h413l-108 137z" />
    <glyph glyph-name="arrowdown" unicode="&#x2193;" horiz-adv-x="616" 
d="M507 331l76 -92l-329 -259l-222 279l101 75l96 -128l92 400h128l-92 -398z" />
    <glyph glyph-name="arrowboth" unicode="&#x2194;" horiz-adv-x="847" 
d="M623 561l205 -275l-332 -275l-75 86l159 128h-351l108 -137l-101 -77l-205 275l332 275l75 -86l-159 -128h351l-108 137z" />
    <glyph glyph-name="arrowupdn" unicode="&#x2195;" horiz-adv-x="655" 
d="M365 133l149 123l76 -92l-329 -259l-222 279l101 75l96 -128l78 342l-149 -123l-76 92l329 259l222 -279l-101 -75l-96 127z" />
    <glyph glyph-name="uni2196" unicode="&#x2196;" horiz-adv-x="595" 
d="M520 77l-103 -82l-218 284l-43 -191h-133l90 392h398l-27 -119l-184 3z" />
    <glyph glyph-name="uni2197" unicode="&#x2197;" horiz-adv-x="575" 
d="M143 480h425l-95 -412h-130l48 196l-314 -250l-75 95l324 255l-211 -3z" />
    <glyph glyph-name="uni2198" unicode="&#x2198;" horiz-adv-x="590" 
d="M441 442h133l-90 -392h-398l27 119l184 -3l-220 287l103 82l218 -284z" />
    <glyph glyph-name="uni2199" unicode="&#x2199;" horiz-adv-x="570" 
d="M573 391l-324 -255l211 3l-28 -119h-425l95 412h130l-48 -196l314 250z" />
    <glyph glyph-name="uni21A5" unicode="&#x21a5;" horiz-adv-x="616" 
d="M507 272l-96 128l-64 -278h150l-28 -122h-428l28 122h150l64 276l-150 -123l-76 92l329 259l222 -279z" />
    <glyph glyph-name="uni21A7" unicode="&#x21a7;" horiz-adv-x="616" 
d="M357 208l150 123l76 -92l-329 -259l-222 279l101 75l96 -128l64 278h-150l28 122h428l-28 -122h-150z" />
    <glyph glyph-name="emptyset" unicode="&#x2205;" horiz-adv-x="700" 
d="M749 571l-95 -77q35 -64 35 -142q0 -145 -111 -253.5t-263 -108.5q-119 0 -193 71l-94 -76l-50 64l94 77q-34 63 -34 140q0 145 111.5 254t263.5 109q118 0 192 -71l94 76zM190 272q0 -24 6 -46l289 235q-34 24 -84 24q-88 0 -149.5 -66t-61.5 -147zM537 348q0 24 -6 46
l-289 -235q33 -25 84 -25q88 0 149.5 66.5t61.5 147.5z" />
    <glyph glyph-name="product" unicode="&#x220f;" horiz-adv-x="732" 
d="M776 700l-162 -700h-160l131 564h-292l-131 -564h-160l162 700h612z" />
    <glyph glyph-name="summation" unicode="&#x2211;" horiz-adv-x="630" 
d="M684 700l-31 -132h-319l153 -218l-228 -218h293l-30 -132h-530l23 98l286 264l-170 240l23 98h530z" />
    <glyph glyph-name="minus" unicode="&#x2212;" horiz-adv-x="570" 
d="M43 305h510l-30 -130h-510z" />
    <glyph glyph-name="radical" unicode="&#x221a;" horiz-adv-x="653" 
d="M576 700h181l-444 -700h-179l-87 500h159l47 -329z" />
    <glyph glyph-name="infinity" unicode="&#x221e;" horiz-adv-x="769" 
d="M577 414q71 0 115.5 -42.5t44.5 -110.5q0 -83 -63.5 -139t-149.5 -56q-103 0 -156 85q-83 -85 -182 -85q-70 0 -114 42t-44 110q0 84 63.5 140t149.5 56q100 0 156 -84q82 84 180 84zM206 169q20 0 39.5 7.5t32.5 18.5t23.5 22.5t15.5 18.5l5 8q-1 3 -2 7.5t-7.5 16
t-14.5 20.5t-24 16t-35 7q-38 0 -66 -23.5t-28 -61.5q0 -57 61 -57zM526 169q38 0 66 23.5t28 61.5q0 28 -16.5 42.5t-43.5 14.5q-31 0 -60.5 -18.5t-43.5 -37.5l-14 -19q1 -3 2 -7.5t7 -16t14.5 -20.5t24.5 -16t36 -7z" />
    <glyph glyph-name="integral" unicode="&#x222b;" horiz-adv-x="621" 
d="M643 700h72l-31 -132h-36q-29 0 -46 -1.5t-39 -8t-36 -19.5t-29.5 -36t-29.5 -58l-192 -490q-18 -46 -43.5 -79t-53 -51.5t-65.5 -28.5t-71 -13t-80 -3h-62l31 132h36q29 0 46 1.5t38.5 7.5t35.5 17.5t28.5 33t27.5 53.5l189 478q21 52 46.5 88.5t52.5 57.5t63 32.5
t68.5 15t79.5 3.5z" />
    <glyph glyph-name="approxequal" unicode="&#x2248;" horiz-adv-x="626" 
d="M43 267q20 85 71 138.5t125 53.5q46 0 81.5 -20.5t61.5 -40.5t50 -20q20 0 33 11t18 21.5t14 35.5h108q-20 -85 -71 -138t-125 -53q-36 0 -65.5 12.5t-45 28t-35.5 28t-40 12.5q-29 0 -45.5 -18.5t-27.5 -50.5h-107zM18 47q20 85 71 138.5t125 53.5q46 0 81.5 -20.5
t61.5 -40.5t50 -20q20 0 33 11t18 21.5t14 35.5h108q-20 -85 -71 -138t-125 -53q-36 0 -65.5 12.5t-45 28t-35.5 28t-40 12.5q-29 0 -45.5 -18.5t-27.5 -50.5h-107z" />
    <glyph glyph-name="notequal" unicode="&#x2260;" horiz-adv-x="574" 
d="M552 284h-177l-77 -90h229l-30 -130h-310l-71 -84l-63 50l29 34h-95l30 130h175l76 90h-226l30 130h305l73 86l64 -52l-29 -34h97z" />
    <glyph glyph-name="lessequal" unicode="&#x2264;" horiz-adv-x="569" 
d="M29 243l34 146l533 101l-28 -128l-367 -52l343 -52l-28 -116zM480 0h-510l30 125h510z" />
    <glyph glyph-name="greaterequal" unicode="&#x2265;" horiz-adv-x="570" 
d="M538 243l-533 -101l28 128l367 52l-343 52l28 116l487 -101zM4 125h510l-30 -125h-510z" />
    <glyph glyph-name="uni2460" unicode="&#x2460;" 
d="M415 -10q-152 0 -255 103.5t-103 256.5t103 256.5t255 103.5t255 -103.5t103 -256.5t-103 -256.5t-255 -103.5zM415 70q115 0 193 81.5t78 198.5t-78 198.5t-193 81.5t-193 -81.5t-78 -198.5t78 -198.5t193 -81.5zM491 521v-360h-95v208q-50 -24 -121 -25v81
q57 0 100 24.5t43 71.5h73z" />
    <glyph glyph-name="uni2461" unicode="&#x2461;" 
d="M415 -10q-152 0 -255 103.5t-103 256.5t103 256.5t255 103.5t255 -103.5t103 -256.5t-103 -256.5t-255 -103.5zM415 70q115 0 193 81.5t78 198.5t-78 198.5t-193 81.5t-193 -81.5t-78 -198.5t78 -198.5t193 -81.5zM557 180h-284v56l78 56q58 42 81.5 69t23.5 60
q0 46 -37 46q-49 0 -49 -84h-92q-1 70 35.5 116t109.5 46q60 0 93.5 -32.5t33.5 -87.5q0 -79 -85 -145l-33 -26h125v-74z" />
    <glyph glyph-name="uni2462" unicode="&#x2462;" 
d="M415 -10q-152 0 -255 103.5t-103 256.5t103 256.5t255 103.5t255 -103.5t103 -256.5t-103 -256.5t-255 -103.5zM415 70q115 0 193 81.5t78 198.5t-78 198.5t-193 81.5t-193 -81.5t-78 -198.5t78 -198.5t193 -81.5zM500 336q52 -20 52 -75q0 -41 -32.5 -69.5t-96.5 -28.5
q-71 0 -108.5 36t-39.5 90h95q3 -49 47 -49q20 0 32 10t12 26q0 37 -52 37h-23v59h33q51 0 51 43q0 22 -14.5 33t-37.5 11q-60 0 -64 -64h-92q4 62 41 100.5t114 38.5q69 0 107.5 -31t38.5 -83q0 -65 -63 -84z" />
    <glyph glyph-name="uni2463" unicode="&#x2463;" 
d="M415 -10q-152 0 -255 103.5t-103 256.5t103 256.5t255 103.5t255 -103.5t103 -256.5t-103 -256.5t-255 -103.5zM415 70q115 0 193 81.5t78 198.5t-78 198.5t-193 81.5t-193 -81.5t-78 -198.5t78 -198.5t193 -81.5zM562 315v-73h-56v-69h-87v69h-173v54l154 237h106v-218
h56zM344 315h75v119z" />
    <glyph glyph-name="uni2464" unicode="&#x2464;" 
d="M415 -10q-152 0 -255 103.5t-103 256.5t103 256.5t255 103.5t255 -103.5t103 -256.5t-103 -256.5t-255 -103.5zM415 70q115 0 193 81.5t78 198.5t-78 198.5t-193 81.5t-193 -81.5t-78 -198.5t78 -198.5t193 -81.5zM436 408q57 0 89.5 -34.5t32.5 -90.5t-38.5 -91
t-104.5 -35q-70 0 -107 37.5t-41 94.5h89q8 -57 60 -57q28 0 43.5 15t15.5 40q0 24 -16 39.5t-44 15.5q-39 0 -61 -28l-71 27l28 186h226v-79h-149l-10 -54q22 14 58 14z" />
    <glyph glyph-name="uni2465" unicode="&#x2465;" 
d="M415 -10q-152 0 -255 103.5t-103 256.5t103 256.5t255 103.5t255 -103.5t103 -256.5t-103 -256.5t-255 -103.5zM415 70q115 0 193 81.5t78 198.5t-78 198.5t-193 81.5t-193 -81.5t-78 -198.5t78 -198.5t193 -81.5zM435 409q53 0 89.5 -33t36.5 -87q0 -59 -40.5 -93
t-102.5 -34q-71 0 -112.5 48.5t-41.5 142.5q0 93 45.5 138.5t118.5 45.5q59 0 96 -32.5t42 -83.5h-81q-8 44 -60 44q-38 0 -57.5 -27t-22.5 -68q32 39 90 39zM418 234q21 0 38 13.5t17 40.5q0 26 -16.5 40.5t-37.5 14.5q-22 0 -39 -15t-17 -42q0 -26 16.5 -39t38.5 -13z" />
    <glyph glyph-name="uni2466" unicode="&#x2466;" 
d="M415 -10q-152 0 -255 103.5t-103 256.5t103 256.5t255 103.5t255 -103.5t103 -256.5t-103 -256.5t-255 -103.5zM415 70q115 0 193 81.5t78 198.5t-78 198.5t-193 81.5t-193 -81.5t-78 -198.5t78 -198.5t193 -81.5zM289 515h281v-54l-157 -306h-103l144 280h-165v80z" />
    <glyph glyph-name="uni2467" unicode="&#x2467;" 
d="M415 -10q-152 0 -255 103.5t-103 256.5t103 256.5t255 103.5t255 -103.5t103 -256.5t-103 -256.5t-255 -103.5zM415 70q115 0 193 81.5t78 198.5t-78 198.5t-193 81.5t-193 -81.5t-78 -198.5t78 -198.5t193 -81.5zM510 339q44 -25 44 -74q0 -48 -39.5 -75t-99.5 -27
t-99 27t-39 75q0 49 43 74q-62 26 -62 87q0 51 42 81.5t115 30.5q74 0 115.5 -30.5t41.5 -81.5q0 -61 -62 -87zM415 466q-30 0 -48 -12.5t-18 -34.5q0 -8 2.5 -14.5t7 -11.5t10.5 -8.5t11.5 -6t12 -4.5t10.5 -3t8 -1l4 -1l5 1q5 0 10 1.5t12.5 3.5t14 6t12 9t9 12.5
t3.5 16.5q0 22 -18 34.5t-48 12.5zM366 271q0 -39 49 -39q50 0 50 40q0 37 -50 47q-49 -10 -49 -48z" />
    <glyph glyph-name="uni2468" unicode="&#x2468;" 
d="M415 -10q-152 0 -255 103.5t-103 256.5t103 256.5t255 103.5t255 -103.5t103 -256.5t-103 -256.5t-255 -103.5zM415 70q115 0 193 81.5t78 198.5t-78 198.5t-193 81.5t-193 -81.5t-78 -198.5t78 -198.5t193 -81.5zM400 290q-53 0 -89.5 33t-36.5 87q0 59 40.5 93
t102.5 34q71 0 112.5 -48.5t41.5 -142.5q0 -93 -45.5 -138.5t-118.5 -45.5q-59 0 -96 32.5t-42 83.5h81q8 -44 60 -44q38 0 57.5 27t22.5 68q-32 -39 -90 -39zM417 465q-21 0 -38 -13.5t-17 -40.5q0 -26 16.5 -40.5t37.5 -14.5q22 0 39 15t17 42q0 26 -16.5 39t-38.5 13z
" />
    <glyph glyph-name="uni2469" unicode="&#x2469;" horiz-adv-x="1083" 
d="M713 710q152 0 255 -103.5t103 -256.5t-103 -256.5t-255 -103.5h-298q-152 0 -255 103.5t-103 256.5t103 256.5t255 103.5h298zM714 70q115 0 192.5 81.5t77.5 198.5t-77.5 198.5t-192.5 81.5h-300q-115 0 -192.5 -81.5t-77.5 -198.5t77.5 -198.5t192.5 -81.5h300z
M704 164q-82 0 -122 54.5t-40 131.5t40 131.5t122 54.5t121.5 -54.5t39.5 -131.5t-39.5 -131.5t-121.5 -54.5zM475 530v-360h-95v208q-50 -24 -121 -25v81q57 0 100 24.5t43 71.5h73zM704 246q61 0 61 104t-61 104q-62 0 -62 -104t62 -104z" />
    <glyph glyph-name="uni24EA" unicode="&#x24ea;" 
d="M415 -10q-152 0 -255 103.5t-103 256.5t103 256.5t255 103.5t255 -103.5t103 -256.5t-103 -256.5t-255 -103.5zM415 70q115 0 193 81.5t78 198.5t-78 198.5t-193 81.5t-193 -81.5t-78 -198.5t78 -198.5t193 -81.5zM415 166q-82 0 -122 54.5t-40 131.5t40 131.5t122 54.5
t121.5 -54.5t39.5 -131.5t-39.5 -131.5t-121.5 -54.5zM415 248q61 0 61 104t-61 104q-62 0 -62 -104t62 -104z" />
    <glyph glyph-name="uni24FF" unicode="&#x24ff;" 
d="M415 -10q-152 0 -255 103.5t-103 256.5t103 256.5t255 103.5t255 -103.5t103 -256.5t-103 -256.5t-255 -103.5zM415 166q82 0 121.5 54.5t39.5 131.5t-39.5 131.5t-121.5 54.5t-122 -54.5t-40 -131.5t40 -131.5t122 -54.5zM415 248q-62 0 -62 104t62 104q61 0 61 -104
t-61 -104z" />
    <glyph glyph-name="lozenge" unicode="&#x25ca;" horiz-adv-x="580" 
d="M38 299l308 248l212 -273l-310 -247zM196 287l79 -102l125 102l-78 102z" />
    <glyph glyph-name="uni25CF" unicode="&#x25cf;" horiz-adv-x="604" 
d="M315 40q-114 0 -192 78t-78 192t78 192t192 78t192 -78t78 -192t-78 -192t-192 -78z" />
    <glyph glyph-name="smileface" unicode="&#x263a;" horiz-adv-x="789" 
d="M777 350q0 -150 -105 -255t-255 -105t-255 106t-105 254q0 149 105.5 254.5t254.5 105.5q151 0 255.5 -105.5t104.5 -254.5zM229 533v-45h44v-128h46v128h44v45h-134zM471 533v-45h45v-128h45v128h45v45h-135zM417 81q109 0 187 76t81 183l-46 8q0 -92 -65 -156.5
t-157 -64.5q-91 0 -156 64.5t-65 156.5l-46 -8q3 -107 81 -183t186 -76z" />
    <glyph glyph-name="uni2731" unicode="&#x2731;" horiz-adv-x="493" 
d="M458 292l-132 -35l86 -105l-82 -59l-73 115l-74 -115l-82 59l86 105l-132 35l32 96l127 -49l-8 136h101l-8 -136l127 49z" />
    <glyph glyph-name="uni2776" unicode="&#x2776;" 
d="M415 -10q-152 0 -255 103.5t-103 256.5t103 256.5t255 103.5t255 -103.5t103 -256.5t-103 -256.5t-255 -103.5zM491 161v360h-73q0 -47 -43 -71.5t-100 -24.5v-81q71 1 121 25v-208h95z" />
    <glyph glyph-name="uni2777" unicode="&#x2777;" 
d="M415 -10q-152 0 -255 103.5t-103 256.5t103 256.5t255 103.5t255 -103.5t103 -256.5t-103 -256.5t-255 -103.5zM273 180h284v74h-125l33 26q85 66 85 145q0 55 -33.5 87.5t-93.5 32.5q-73 0 -109.5 -46t-35.5 -116h92q0 84 49 84q37 0 37 -46q0 -33 -23.5 -60t-81.5 -69
l-78 -56v-56z" />
    <glyph glyph-name="uni2778" unicode="&#x2778;" 
d="M415 -10q-152 0 -255 103.5t-103 256.5t103 256.5t255 103.5t255 -103.5t103 -256.5t-103 -256.5t-255 -103.5zM500 336q63 19 63 84q0 52 -38.5 83t-107.5 31q-77 0 -114 -38.5t-41 -100.5h92q4 64 64 64q23 0 37.5 -11t14.5 -33q0 -43 -51 -43h-33v-59h23q52 0 52 -37
q0 -16 -12 -26t-32 -10q-44 0 -47 49h-95q2 -54 39.5 -90t108.5 -36q64 0 96.5 28.5t32.5 69.5q0 55 -52 75z" />
    <glyph glyph-name="uni2779" unicode="&#x2779;" 
d="M415 -10q-152 0 -255 103.5t-103 256.5t103 256.5t255 103.5t255 -103.5t103 -256.5t-103 -256.5t-255 -103.5zM562 242v73h-56v218h-106l-154 -237v-54h173v-69h87v69h56zM419 315h-75l75 119v-119z" />
    <glyph glyph-name="uni277A" unicode="&#x277a;" 
d="M415 -10q-152 0 -255 103.5t-103 256.5t103 256.5t255 103.5t255 -103.5t103 -256.5t-103 -256.5t-255 -103.5zM436 408q-36 0 -58 -14l10 54h149v79h-226l-28 -186l71 -27q22 28 61 28q28 0 44 -15.5t16 -39.5q0 -25 -15.5 -40t-43.5 -15q-52 0 -60 57h-89
q4 -57 41 -94.5t107 -37.5q66 0 104.5 35t38.5 91t-32.5 90.5t-89.5 34.5z" />
    <glyph glyph-name="uni277B" unicode="&#x277b;" 
d="M415 -10q-152 0 -255 103.5t-103 256.5t103 256.5t255 103.5t255 -103.5t103 -256.5t-103 -256.5t-255 -103.5zM435 409q-58 0 -90 -39q3 41 22.5 68t57.5 27q52 0 60 -44h81q-5 51 -42 83.5t-96 32.5q-73 0 -118.5 -45.5t-45.5 -138.5q0 -94 41.5 -142.5t112.5 -48.5
q62 0 102.5 34t40.5 93q0 54 -36.5 87t-89.5 33zM418 234q-22 0 -38.5 13t-16.5 39q0 27 17 42t39 15q21 0 37.5 -14.5t16.5 -40.5q0 -27 -17 -40.5t-38 -13.5z" />
    <glyph glyph-name="uni277C" unicode="&#x277c;" 
d="M415 -10q-152 0 -255 103.5t-103 256.5t103 256.5t255 103.5t255 -103.5t103 -256.5t-103 -256.5t-255 -103.5zM570 515h-281v-80h165l-144 -280h103l157 306v54z" />
    <glyph glyph-name="uni277D" unicode="&#x277d;" 
d="M415 -10q-152 0 -255 103.5t-103 256.5t103 256.5t255 103.5t255 -103.5t103 -256.5t-103 -256.5t-255 -103.5zM510 339q62 26 62 87q0 51 -41.5 81.5t-115.5 30.5q-73 0 -115 -30.5t-42 -81.5q0 -61 62 -87q-43 -25 -43 -74q0 -48 39 -75t99 -27t99.5 27t39.5 75
q0 49 -44 74zM415 466q30 0 48 -12.5t18 -34.5q0 -9 -3.5 -16.5t-9 -12.5t-12 -9t-14 -6t-12.5 -3.5t-10 -1.5l-5 -1l-4 1q-4 0 -8 1t-10.5 3t-12 4.5t-11.5 6t-10.5 8.5t-7 11.5t-2.5 14.5q0 22 18 34.5t48 12.5zM366 271q0 38 49 48q50 -10 50 -47q0 -40 -50 -40
q-49 0 -49 39z" />
    <glyph glyph-name="uni277E" unicode="&#x277e;" 
d="M415 -10q-152 0 -255 103.5t-103 256.5t103 256.5t255 103.5t255 -103.5t103 -256.5t-103 -256.5t-255 -103.5zM400 290q58 0 90 39q-3 -41 -22.5 -68t-57.5 -27q-52 0 -60 44h-81q5 -51 42 -83.5t96 -32.5q73 0 118.5 45.5t45.5 138.5q0 94 -41.5 142.5t-112.5 48.5
q-62 0 -102.5 -34t-40.5 -93q0 -54 36.5 -87t89.5 -33zM417 465q22 0 38.5 -13t16.5 -39q0 -27 -17 -42t-39 -15q-21 0 -37.5 14.5t-16.5 40.5q0 27 17 40.5t38 13.5z" />
    <glyph glyph-name="uni277F" unicode="&#x277f;" horiz-adv-x="1083" 
d="M415 710h298q152 0 255 -103.5t103 -256.5t-103 -256.5t-255 -103.5h-298q-152 0 -255 103.5t-103 256.5t103 256.5t255 103.5zM694 164q82 0 121.5 54.5t39.5 131.5t-39.5 131.5t-121.5 54.5t-122 -54.5t-40 -131.5t40 -131.5t122 -54.5zM465 170v360h-73
q0 -47 -43 -71.5t-100 -24.5v-81q71 1 121 25v-208h95zM694 246q-62 0 -62 104t62 104q61 0 61 -104t-61 -104z" />
    <glyph glyph-name="uni27FB" unicode="&#x27fb;" horiz-adv-x="836" 
d="M705 500h128l-98 -428h-128l49 214l-14 -61h-413l108 -137l-101 -77l-205 275l332 275l75 -86l-159 -128h391z" />
    <glyph glyph-name="uni27FC" unicode="&#x27fc;" horiz-adv-x="841" 
d="M617 561l205 -275l-332 -275l-75 86l159 128h-391l-35 -153h-128l98 428h128l-49 -214l14 61h413l-108 137z" />
    <glyph glyph-name="Adieresis.ss02" horiz-adv-x="731" 
d="M357 754q-32 0 -50 19.5t-18 49.5q0 42 31.5 72.5t76.5 30.5q31 0 49.5 -19.5t18.5 -49.5q0 -42 -31.5 -72.5t-76.5 -30.5zM645 926q31 0 49 -19.5t18 -49.5q0 -42 -31.5 -72.5t-75.5 -30.5q-32 0 -50.5 19.5t-18.5 49.5q0 42 32 72.5t77 30.5zM576 700l92 -700h-180
l-14 143h-258l-81 -143h-188l416 700h213zM295 282h165l-25 246z" />
    <glyph glyph-name="B.ss03" horiz-adv-x="665" 
d="M504 357q59 -21 87 -63.5t28 -95.5q0 -89 -75 -143.5t-221 -54.5h-152h-169l162 700h169h82q120 0 178.5 -46t58.5 -121q0 -125 -148 -176zM390 556h-90l-33 -143h86q53 0 83 22.5t30 57.5q0 29 -20 46t-56 17zM340 145q55 0 79.5 20.5t24.5 52.5q0 59 -74 59h-135
l-30 -132h135z" />
    <glyph glyph-name="Cdotaccent.ss02" horiz-adv-x="753" 
d="M491 758q-38 0 -59 22.5t-21 57.5q0 49 37 85t89 36q37 0 58.5 -22.5t21.5 -57.5q0 -49 -37 -85t-89 -36zM727 283q-36 -147 -139 -220t-242 -73q-147 0 -224.5 79t-77.5 217q0 179 119.5 301.5t307.5 122.5q149 0 223 -78t62 -192h-179q3 56 -27 86.5t-95 30.5
q-106 0 -167 -76t-61 -186q0 -159 136 -159q133 0 185 147h179z" />
    <glyph glyph-name="Edieresis.ss02" horiz-adv-x="613" 
d="M306 754q-32 0 -50 19.5t-18 49.5q0 42 31.5 72.5t76.5 30.5q31 0 49.5 -19.5t18.5 -49.5q0 -42 -31.5 -72.5t-76.5 -30.5zM554 754q-32 0 -50.5 19.5t-18.5 49.5q0 42 32 72.5t77 30.5q31 0 49 -19.5t18 -49.5q0 -42 -31.5 -72.5t-75.5 -30.5zM638 546h-333l-28 -124
h304l-32 -141h-305l-29 -127h333l-36 -154h-510l162 700h510z" />
    <glyph glyph-name="Edotaccent.ss02" horiz-adv-x="613" 
d="M432 758q-38 0 -59 22.5t-21 57.5q0 49 37 85t89 36q37 0 58.5 -22.5t21.5 -57.5q0 -49 -37 -85t-89 -36zM638 546h-333l-28 -124h304l-32 -141h-305l-29 -127h333l-36 -154h-510l162 700h510z" />
    <glyph glyph-name="Euro.ss07" horiz-adv-x="734" 
d="M725 385h-144q14 115 -101 115q-95 0 -153 -76h203l-45 -91h-199q-7 -30 -8 -57h184l-44 -91h-129q24 -68 107 -68q110 0 155 112h144q-19 -69 -52.5 -117.5t-76 -74t-85.5 -36.5t-91 -11q-109 0 -178 51.5t-88 143.5h-109l21 91h83q2 32 7 57h-77l21 91h87
q46 93 133.5 149t200.5 56q125 0 186.5 -68t47.5 -176z" />
    <glyph glyph-name="Gcommaaccent.ss02" horiz-adv-x="768" 
d="M748 443h-173q4 55 -27.5 85.5t-89.5 30.5q-94 0 -161.5 -75t-67.5 -184q0 -79 39.5 -121t116.5 -42q62 0 111.5 28.5t65.5 94.5h-205l28 121h355l-14 -61l-74 -320h-104l4 83q-80 -93 -221 -93q-131 0 -208 78t-77 223q0 182 118 300.5t303 118.5q146 0 223 -75t58 -192
zM312 -55q34 0 52.5 -22.5t18.5 -61.5q0 -84 -61.5 -144.5t-168.5 -69.5l11 54q35 5 64 21.5t37 41.5q-31 1 -47.5 21t-16.5 49q0 45 33.5 78t77.5 33z" />
    <glyph glyph-name="Gdotaccent.ss02" horiz-adv-x="768" 
d="M494 758q-38 0 -59 22.5t-21 57.5q0 49 37 85t89 36q37 0 58.5 -22.5t21.5 -57.5q0 -49 -37 -85t-89 -36zM748 443h-173q4 55 -27.5 85.5t-89.5 30.5q-94 0 -161.5 -75t-67.5 -184q0 -79 39.5 -121t116.5 -42q62 0 111.5 28.5t65.5 94.5h-205l28 121h355l-14 -61
l-74 -320h-104l4 83q-80 -93 -221 -93q-131 0 -208 78t-77 223q0 182 118 300.5t303 118.5q146 0 223 -75t58 -192z" />
    <glyph glyph-name="I.ss06" horiz-adv-x="460" 
d="M489 552h-99l-94 -404h100l-34 -148h-380l34 148h100l94 404h-101l35 148h380z" />
    <glyph glyph-name="IJ.ss05" horiz-adv-x="632" 
d="M38 155h117q113 0 176 48.5t86 148.5l80 348h181l-95 -412q-67 -288 -414 -288h-167zM248 266h-180l101 434h180z" />
    <glyph glyph-name="IJ.ss05.ss06" horiz-adv-x="1041" 
d="M390 552l-94 -404h100l-34 -148h-380l34 148h100l94 404h-101l35 148h380l-35 -148h-99zM1095 700l-95 -412q-67 -288 -414 -288h-167l36 155h117q113 0 176 48.5t86 148.5l44 190h-260l37 158h440z" />
    <glyph glyph-name="IJ.ss06" horiz-adv-x="1102" 
d="M390 552l-94 -404h100l-34 -148h-380l34 148h100l94 404h-101l35 148h380l-35 -148h-99zM1148 700l-37 -158l-74 -324q-26 -115 -108 -171.5t-205 -56.5q-151 0 -219.5 80t-36.5 219l7 31h180l-7 -31q-34 -149 87 -149q50 0 83.5 29.5t50.5 103.5l62 269h-260l37 158h440
z" />
    <glyph glyph-name="Iacute.ss06" horiz-adv-x="460" 
d="M586 935l-198 -159h-146l143 159h201zM524 700l-35 -148h-99l-94 -404h100l-34 -148h-380l34 148h100l94 404h-101l35 148h380z" />
    <glyph glyph-name="Ibreve.ss06" horiz-adv-x="460" 
d="M357 776q-75 0 -112.5 46t-24.5 108h111q-7 -54 44 -54q50 0 66 54h112q-15 -68 -68 -111t-128 -43zM524 700l-35 -148h-99l-94 -404h100l-34 -148h-380l34 148h100l94 404h-101l35 148h380z" />
    <glyph glyph-name="Icircumflex.ss06" horiz-adv-x="460" 
d="M364 840l-70 -67h-140l158 148h136l87 -148h-133zM524 700l-35 -148h-99l-94 -404h100l-34 -148h-380l34 148h100l94 404h-101l35 148h380z" />
    <glyph glyph-name="Idieresis.ss02" horiz-adv-x="300" 
d="M141 754q-32 0 -50 19.5t-18 49.5q0 42 31.5 72.5t76.5 30.5q31 0 49.5 -19.5t18.5 -49.5q0 -42 -31.5 -72.5t-76.5 -30.5zM389 754q-32 0 -50.5 19.5t-18.5 49.5q0 42 32 72.5t77 30.5q31 0 49 -19.5t18 -49.5q0 -42 -31.5 -72.5t-75.5 -30.5zM182 0h-180l162 700h180z
" />
    <glyph glyph-name="Idieresis.ss06" horiz-adv-x="460" 
d="M336 920l-34 -144h-154l33 144h155zM423 920h155l-34 -144h-154zM524 700l-35 -148h-99l-94 -404h100l-34 -148h-380l34 148h100l94 404h-101l35 148h380z" />
    <glyph glyph-name="Idieresis.ss06.ss02" horiz-adv-x="460" 
d="M221 754q-32 0 -50 19.5t-18 49.5q0 42 31.5 72.5t76.5 30.5q31 0 49.5 -19.5t18.5 -49.5q0 -42 -31.5 -72.5t-76.5 -30.5zM509 926q31 0 49 -19.5t18 -49.5q0 -42 -31.5 -72.5t-75.5 -30.5q-32 0 -50.5 19.5t-18.5 49.5q0 42 32 72.5t77 30.5zM524 700l-35 -148h-99
l-94 -404h100l-34 -148h-380l34 148h100l94 404h-101l35 148h380z" />
    <glyph glyph-name="Idotaccent.ss02" horiz-adv-x="300" 
d="M267 758q-38 0 -59 22.5t-21 57.5q0 49 37 85t89 36q37 0 58.5 -22.5t21.5 -57.5q0 -49 -37 -85t-89 -36zM182 0h-180l162 700h180z" />
    <glyph glyph-name="Idotaccent.ss06" horiz-adv-x="460" 
d="M475 925l-36 -152h-189l35 152h190zM489 552h-99l-94 -404h100l-34 -148h-380l34 148h100l94 404h-101l35 148h380z" />
    <glyph glyph-name="Idotaccent.ss06.ss02" horiz-adv-x="460" 
d="M347 758q-38 0 -59 22.5t-21 57.5q0 49 37 85t89 36q37 0 58.5 -22.5t21.5 -57.5q0 -49 -37 -85t-89 -36zM489 552h-99l-94 -404h100l-34 -148h-380l34 148h100l94 404h-101l35 148h380z" />
    <glyph glyph-name="Igrave.ss06" horiz-adv-x="460" 
d="M448 776h-133l-136 159h185zM489 552h-99l-94 -404h100l-34 -148h-380l34 148h100l94 404h-101l35 148h380z" />
    <glyph glyph-name="Imacron.ss06" horiz-adv-x="460" 
d="M544 899l-26 -113h-341l26 113h341zM524 700l-35 -148h-99l-94 -404h100l-34 -148h-380l34 148h100l94 404h-101l35 148h380z" />
    <glyph glyph-name="Iogonek.ss06" horiz-adv-x="460" 
d="M489 552h-99l-94 -404h100l-34 -148h-100q-55 -29 -80 -54t-25 -56q0 -47 64 -47h27l-20 -85h-33q-71 0 -105.5 29.5t-34.5 78.5q0 17 3 31t11 26t13.5 20t19.5 18t19.5 14t22.5 13.5t20 11.5h-182l34 148h100l94 404h-101l35 148h380z" />
    <glyph glyph-name="Itilde.ss06" horiz-adv-x="460" 
d="M510 919h105q-51 -157 -185 -157q-51 0 -88.5 22.5t-57.5 22.5q-37 0 -59 -40h-103q48 158 184 158q39 0 64 -11.5t41.5 -22.5t35.5 -11q43 0 63 39zM524 700l-35 -148h-99l-94 -404h100l-34 -148h-380l34 148h100l94 404h-101l35 148h380z" />
    <glyph glyph-name="J.ss05" horiz-adv-x="581" 
d="M-5 155h117q113 0 176 48.5t86 148.5l80 348h181l-95 -412q-67 -288 -414 -288h-167z" />
    <glyph glyph-name="J.ss05.ss06" horiz-adv-x="581" 
d="M635 700l-95 -412q-67 -288 -414 -288h-167l36 155h117q113 0 176 48.5t86 148.5l44 190h-260l37 158h440z" />
    <glyph glyph-name="J.ss06" horiz-adv-x="672" 
d="M718 700l-37 -158l-74 -324q-26 -115 -108 -171.5t-205 -56.5q-151 0 -219.5 80t-36.5 219l7 31h180l-7 -31q-34 -149 87 -149q50 0 83.5 29.5t50.5 103.5l62 269h-260l37 158h440z" />
    <glyph glyph-name="Jcircumflex.ss05" horiz-adv-x="581" 
d="M746 773h-133l-38 67l-70 -67h-140l158 148h136zM-5 155h117q113 0 176 48.5t86 148.5l80 348h181l-95 -412q-67 -288 -414 -288h-167z" />
    <glyph glyph-name="Jcircumflex.ss05.ss06" horiz-adv-x="581" 
d="M445 840l-70 -67h-140l158 148h136l87 -148h-133zM635 700l-95 -412q-67 -288 -414 -288h-167l36 155h117q113 0 176 48.5t86 148.5l44 190h-260l37 158h440z" />
    <glyph glyph-name="Jcircumflex.ss06" horiz-adv-x="672" 
d="M528 840l-70 -67h-140l158 148h136l87 -148h-133zM718 700l-37 -158l-74 -324q-26 -115 -108 -171.5t-205 -56.5q-151 0 -219.5 80t-36.5 219l7 31h180l-7 -31q-34 -149 87 -149q50 0 83.5 29.5t50.5 103.5l62 269h-260l37 158h440z" />
    <glyph glyph-name="Kcommaaccent.ss02" horiz-adv-x="687" 
d="M770 700l-332 -299l191 -401h-190l-135 280l-79 -71l-48 -209h-175l162 700h175l-55 -239l254 239h232zM256 -55q34 0 52.5 -22.5t18.5 -61.5q0 -84 -61.5 -144.5t-168.5 -69.5l11 54q35 5 64 21.5t37 41.5q-31 1 -47.5 21t-16.5 49q0 45 33.5 78t77.5 33z" />
    <glyph glyph-name="Lcaron.ss02" horiz-adv-x="592" 
d="M590 623q0 -87 -64 -150t-174 -72l11 56q37 5 67 22t38 43q-32 1 -49 22t-17 51q0 47 34.5 81t80.5 34q35 0 54 -23.5t19 -63.5zM343 700l-125 -542h335l-36 -158h-515l162 700h179z" />
    <glyph glyph-name="Lcommaaccent.ss02" horiz-adv-x="592" 
d="M218 158h335l-36 -158h-515l162 700h179zM244 -55q34 0 52.5 -22.5t18.5 -61.5q0 -84 -61.5 -144.5t-168.5 -69.5l11 54q35 5 64 21.5t37 41.5q-31 1 -47.5 21t-16.5 49q0 45 33.5 78t77.5 33z" />
    <glyph glyph-name="Ldot.ss02" horiz-adv-x="592" 
d="M218 158h335l-36 -158h-515l162 700h179zM416 335q-36 0 -56 21.5t-20 54.5q0 46 35 80t85 34q35 0 55 -21.5t20 -54.5q0 -46 -35 -80t-84 -34z" />
    <glyph glyph-name="Ncommaaccent.ss02" horiz-adv-x="758" 
d="M630 700h172l-162 -700h-203l-150 483l-112 -483h-173l162 700h204l150 -484zM317 -55q34 0 52.5 -22.5t18.5 -61.5q0 -84 -61.5 -144.5t-168.5 -69.5l11 54q35 5 64 21.5t37 41.5q-31 1 -47.5 21t-16.5 49q0 45 33.5 78t77.5 33z" />
    <glyph glyph-name="Odieresis.ss02" horiz-adv-x="794" 
d="M371 754q-32 0 -50 19.5t-18 49.5q0 42 31.5 72.5t76.5 30.5q31 0 49.5 -19.5t18.5 -49.5q0 -42 -31.5 -72.5t-76.5 -30.5zM619 754q-32 0 -50.5 19.5t-18.5 49.5q0 42 32 72.5t77 30.5q31 0 49 -19.5t18 -49.5q0 -42 -31.5 -72.5t-75.5 -30.5zM364 -10q-149 0 -233 78
t-84 226q0 181 119 298.5t310 117.5q149 0 233 -78t84 -226q0 -181 -119 -298.5t-310 -117.5zM377 141q94 0 157.5 77t63.5 184q0 75 -34.5 116t-100.5 41q-94 0 -157.5 -77t-63.5 -184q0 -75 34.5 -116t100.5 -41z" />
    <glyph glyph-name="Rcommaaccent.ss02" horiz-adv-x="665" 
d="M676 501q0 -163 -212 -203q64 -17 95 -55.5t38 -113.5l13 -129h-186l-15 126q-7 64 -45 85.5t-136 21.5l-54 -233h-172l162 700h252q137 0 198.5 -56t61.5 -143zM371 373q56 0 87 27t31 69q0 34 -22.5 55.5t-70.5 21.5h-96l-40 -173h111zM278 -55q34 0 52.5 -22.5
t18.5 -61.5q0 -84 -61.5 -144.5t-168.5 -69.5l11 54q35 5 64 21.5t37 41.5q-31 1 -47.5 21t-16.5 49q0 45 33.5 78t77.5 33z" />
    <glyph glyph-name="S.ss03" horiz-adv-x="653" 
d="M477 470q15 94 -86 94q-45 0 -73 -17.5t-28 -50.5q0 -30 24.5 -43.5t91.5 -30.5q51 -13 83 -25.5t64 -34.5t47.5 -56t15.5 -82q0 -62 -27 -109t-72.5 -73t-98 -39t-111.5 -13q-61 0 -114 14t-97.5 43.5t-63.5 84.5t-5 129h177q-17 -118 114 -118q53 0 82.5 18t29.5 52
q0 21 -14.5 35t-34 21t-63.5 18q-56 15 -88.5 26.5t-65.5 33t-47.5 54t-14.5 78.5q0 113 84.5 172t214.5 59q141 0 203 -66.5t43 -173.5h-170z" />
    <glyph glyph-name="S_t.ss08" horiz-adv-x="1010" 
d="M882 385l-37 -162q-11 -46 6 -69.5t70 -23.5h46l-30 -130h-75q-110 0 -160.5 59.5t-27.5 158.5l38 167h-220q21 92 -14.5 132t-101.5 40q-52 0 -86 -22t-34 -58q0 -18 8.5 -31t27.5 -22.5t34.5 -14.5t43.5 -12q41 -10 63 -17t56 -22.5t51.5 -33.5t31 -48.5t13.5 -69.5
q0 -105 -80 -160.5t-199 -55.5q-138 0 -208 70t-53 170h177q-8 -44 16.5 -69t72.5 -25q37 0 62.5 15.5t25.5 46.5q0 29 -25 42t-91 28q-107 25 -158 68.5t-51 124.5q0 78 46 136.5t116 85.5t152 27q74 0 135 -22.5t100.5 -71.5t40.5 -116h75l25 110l177 30l-32 -140h133
l-26 -115h-134z" />
    <glyph glyph-name="Sacute.ss03" horiz-adv-x="653" 
d="M464 935h201l-198 -159h-146zM477 470q15 94 -86 94q-45 0 -73 -17.5t-28 -50.5q0 -30 24.5 -43.5t91.5 -30.5q51 -13 83 -25.5t64 -34.5t47.5 -56t15.5 -82q0 -62 -27 -109t-72.5 -73t-98 -39t-111.5 -13q-61 0 -114 14t-97.5 43.5t-63.5 84.5t-5 129h177
q-17 -118 114 -118q53 0 82.5 18t29.5 52q0 21 -14.5 35t-34 21t-63.5 18q-56 15 -88.5 26.5t-65.5 33t-47.5 54t-14.5 78.5q0 113 84.5 172t214.5 59q141 0 203 -66.5t43 -173.5h-170z" />
    <glyph glyph-name="Scaron.ss03" horiz-adv-x="653" 
d="M510 928h140l-157 -148h-137l-87 148h134l37 -67zM477 470q15 94 -86 94q-45 0 -73 -17.5t-28 -50.5q0 -30 24.5 -43.5t91.5 -30.5q51 -13 83 -25.5t64 -34.5t47.5 -56t15.5 -82q0 -62 -27 -109t-72.5 -73t-98 -39t-111.5 -13q-61 0 -114 14t-97.5 43.5t-63.5 84.5
t-5 129h177q-17 -118 114 -118q53 0 82.5 18t29.5 52q0 21 -14.5 35t-34 21t-63.5 18q-56 15 -88.5 26.5t-65.5 33t-47.5 54t-14.5 78.5q0 113 84.5 172t214.5 59q141 0 203 -66.5t43 -173.5h-170z" />
    <glyph glyph-name="Scedilla.ss03" horiz-adv-x="653" 
d="M647 470h-170q15 94 -86 94q-45 0 -73 -17.5t-28 -50.5q0 -30 24.5 -43.5t91.5 -30.5q51 -13 83 -25.5t64 -34.5t47.5 -56t15.5 -82q0 -59 -24.5 -104.5t-66.5 -72t-91.5 -41t-105.5 -16.5q40 -40 40 -92q0 -140 -197 -140h-47l20 85h41q46 0 68.5 21t22.5 52
q0 39 -51 81q-104 17 -162.5 81.5t-35.5 182.5h177q-17 -118 114 -118q53 0 82.5 18t29.5 52q0 21 -14.5 35t-34 21t-63.5 18q-56 15 -88.5 26.5t-65.5 33t-47.5 54t-14.5 78.5q0 113 84.5 172t214.5 59q141 0 203 -66.5t43 -173.5z" />
    <glyph glyph-name="Scircumflex.ss03" horiz-adv-x="653" 
d="M614 773h-133l-38 67l-70 -67h-140l158 148h136zM477 470q15 94 -86 94q-45 0 -73 -17.5t-28 -50.5q0 -30 24.5 -43.5t91.5 -30.5q51 -13 83 -25.5t64 -34.5t47.5 -56t15.5 -82q0 -62 -27 -109t-72.5 -73t-98 -39t-111.5 -13q-61 0 -114 14t-97.5 43.5t-63.5 84.5t-5 129
h177q-17 -118 114 -118q53 0 82.5 18t29.5 52q0 21 -14.5 35t-34 21t-63.5 18q-56 15 -88.5 26.5t-65.5 33t-47.5 54t-14.5 78.5q0 113 84.5 172t214.5 59q141 0 203 -66.5t43 -173.5h-170z" />
    <glyph glyph-name="Scommaaccent.ss02" horiz-adv-x="653" 
d="M223 230q-8 -44 16.5 -69t72.5 -25q37 0 62.5 15.5t25.5 46.5q0 29 -25 42t-91 28q-107 25 -158 68.5t-51 126.5q0 116 89 181.5t217 65.5q62 0 117.5 -16.5t99 -48.5t63 -85.5t6.5 -120.5h-174q11 59 -20 88.5t-90 29.5q-54 0 -90 -22t-36 -58q0 -23 18.5 -40t38 -23.5
t57.5 -16.5q40 -10 63.5 -17.5t56.5 -23.5t50.5 -34.5t31 -49t13.5 -70.5q0 -104 -78 -158t-196 -54q-138 0 -211 69.5t-55 170.5h177zM260 -55q34 0 52.5 -22.5t18.5 -61.5q0 -84 -61.5 -144.5t-168.5 -69.5l11 54q35 5 64 21.5t37 41.5q-31 1 -47.5 21t-16.5 49
q0 45 33.5 78t77.5 33z" />
    <glyph glyph-name="Scommaaccent.ss03" horiz-adv-x="653" 
d="M647 470h-170q15 94 -86 94q-45 0 -73 -17.5t-28 -50.5q0 -30 24.5 -43.5t91.5 -30.5q51 -13 83 -25.5t64 -34.5t47.5 -56t15.5 -82q0 -62 -27 -109t-72.5 -73t-98 -39t-111.5 -13q-61 0 -114 14t-97.5 43.5t-63.5 84.5t-5 129h177q-17 -118 114 -118q53 0 82.5 18
t29.5 52q0 21 -14.5 35t-34 21t-63.5 18q-56 15 -88.5 26.5t-65.5 33t-47.5 54t-14.5 78.5q0 113 84.5 172t214.5 59q141 0 203 -66.5t43 -173.5zM147 -216l34 150h160l-21 -92q-23 -100 -73 -142t-149 -47l15 64q47 0 71.5 21.5t30.5 45.5h-68z" />
    <glyph glyph-name="Scommaaccent.ss03.ss02" horiz-adv-x="653" 
d="M477 470q15 94 -86 94q-45 0 -73 -17.5t-28 -50.5q0 -30 24.5 -43.5t91.5 -30.5q51 -13 83 -25.5t64 -34.5t47.5 -56t15.5 -82q0 -62 -27 -109t-72.5 -73t-98 -39t-111.5 -13q-61 0 -114 14t-97.5 43.5t-63.5 84.5t-5 129h177q-17 -118 114 -118q53 0 82.5 18t29.5 52
q0 21 -14.5 35t-34 21t-63.5 18q-56 15 -88.5 26.5t-65.5 33t-47.5 54t-14.5 78.5q0 113 84.5 172t214.5 59q141 0 203 -66.5t43 -173.5h-170zM260 -55q34 0 52.5 -22.5t18.5 -61.5q0 -84 -61.5 -144.5t-168.5 -69.5l11 54q35 5 64 21.5t37 41.5q-31 1 -47.5 21t-16.5 49
q0 45 33.5 78t77.5 33z" />
    <glyph glyph-name="Udieresis.ss02" horiz-adv-x="752" 
d="M367 754q-32 0 -50 19.5t-18 49.5q0 42 31.5 72.5t76.5 30.5q31 0 49.5 -19.5t18.5 -49.5q0 -42 -31.5 -72.5t-76.5 -30.5zM615 754q-32 0 -50.5 19.5t-18.5 49.5q0 42 32 72.5t77 30.5q31 0 49 -19.5t18 -49.5q0 -42 -31.5 -72.5t-75.5 -30.5zM162 700h180l-91 -393
q-38 -164 104 -164q134 0 172 164l91 393h180l-100 -432q-30 -131 -122 -204.5t-242 -73.5q-160 0 -228 86.5t-28 259.5z" />
    <glyph glyph-name="Wdieresis.ss02" horiz-adv-x="1044" 
d="M513 754q-32 0 -50 19.5t-18 49.5q0 42 31.5 72.5t76.5 30.5q31 0 49.5 -19.5t18.5 -49.5q0 -42 -31.5 -72.5t-76.5 -30.5zM761 754q-32 0 -50.5 19.5t-18.5 49.5q0 42 32 72.5t77 30.5q31 0 49 -19.5t18 -49.5q0 -42 -31.5 -72.5t-75.5 -30.5zM950 700h193l-358 -700
h-187l-14 490l-241 -490h-201l-33 700h182l1 -486l238 486h193l12 -459z" />
    <glyph glyph-name="Y.ss04" horiz-adv-x="715" 
d="M819 700l-360 -399l-69 -301h-180l69 301l-175 399h191l95 -238l207 238h222z" />
    <glyph glyph-name="Yacute.ss04" horiz-adv-x="715" 
d="M714 935l-198 -159h-146l143 159h201zM819 700l-360 -399l-69 -301h-180l69 301l-175 399h191l95 -238l207 238h222z" />
    <glyph glyph-name="Ycircumflex.ss04" horiz-adv-x="715" 
d="M492 840l-70 -67h-140l158 148h136l87 -148h-133zM819 700l-360 -399l-69 -301h-180l69 301l-175 399h191l95 -238l207 238h222z" />
    <glyph glyph-name="Ydieresis.ss02" horiz-adv-x="747" 
d="M376 754q-32 0 -50 19.5t-18 49.5q0 42 31.5 72.5t76.5 30.5q31 0 49.5 -19.5t18.5 -49.5q0 -42 -31.5 -72.5t-76.5 -30.5zM624 754q-32 0 -50.5 19.5t-18.5 49.5q0 42 32 72.5t77 30.5q31 0 49 -19.5t18 -49.5q0 -42 -31.5 -72.5t-75.5 -30.5zM628 700h218l-542 -700
h-220l227 288l-202 412h208l117 -260z" />
    <glyph glyph-name="Ydieresis.ss04" horiz-adv-x="715" 
d="M464 920l-34 -144h-154l33 144h155zM706 920l-34 -144h-154l33 144h155zM819 700l-360 -399l-69 -301h-180l69 301l-175 399h191l95 -238l207 238h222z" />
    <glyph glyph-name="Ydieresis.ss04.ss02" horiz-adv-x="715" 
d="M349 754q-32 0 -50 19.5t-18 49.5q0 42 31.5 72.5t76.5 30.5q31 0 49.5 -19.5t18.5 -49.5q0 -42 -31.5 -72.5t-76.5 -30.5zM597 754q-32 0 -50.5 19.5t-18.5 49.5q0 42 32 72.5t77 30.5q31 0 49 -19.5t18 -49.5q0 -42 -31.5 -72.5t-75.5 -30.5zM819 700l-360 -399
l-69 -301h-180l69 301l-175 399h191l95 -238l207 238h222z" />
    <glyph glyph-name="Ygrave.ss04" horiz-adv-x="715" 
d="M576 776h-133l-136 159h185zM819 700l-360 -399l-69 -301h-180l69 301l-175 399h191l95 -238l207 238h222z" />
    <glyph glyph-name="Zdotaccent.ss02" horiz-adv-x="681" 
d="M461 758q-38 0 -59 22.5t-21 57.5q0 49 37 85t89 36q37 0 58.5 -22.5t21.5 -57.5q0 -49 -37 -85t-89 -36zM729 700l-24 -104l-428 -442h339l-36 -154h-603l24 104l428 442h-309l36 154h573z" />
    <glyph glyph-name="_eightsuperior" horiz-adv-x="372" 
d="M272 166q44 -25 44 -74q0 -48 -39.5 -75t-99.5 -27t-99 27t-39 75q0 49 43 74q-62 26 -62 87q0 51 42 81.5t115 30.5q74 0 115.5 -30.5t41.5 -81.5q0 -61 -62 -87zM177 293q-30 0 -48 -12.5t-18 -34.5q0 -8 2.5 -14.5t7 -11.5t10.5 -8.5t11.5 -6t12 -4.5t10.5 -3l8 -2h4
h5q5 1 10 2.5t12.5 3.5t14 6t12 9t9 12.5t3.5 16.5q0 22 -18 34.5t-48 12.5zM128 98q0 -39 49 -39q50 0 50 40q0 37 -50 47q-49 -10 -49 -48z" />
    <glyph glyph-name="a.ss09" horiz-adv-x="570" 
d="M349 509q104 0 155 -48t28 -147l-73 -314h-152l9 39q-72 -49 -162 -49q-157 0 -157 123q0 40 17.5 70.5t41 48t65.5 31.5t73 20t80 13q62 9 84.5 18t28.5 33q4 20 -10.5 30.5t-44.5 10.5q-78 0 -102 -70h-159q21 82 88.5 136.5t189.5 54.5zM219 99q40 0 80.5 24.5
t54.5 80.5l4 15q-26 -12 -81 -23q-54 -11 -79.5 -25.5t-25.5 -38.5q0 -33 47 -33z" />
    <glyph glyph-name="aacute.ss09" horiz-adv-x="570" 
d="M580 700l-180 -145h-133l130 145h183zM349 509q104 0 155 -48t28 -147l-73 -314h-152l9 39q-72 -49 -162 -49q-157 0 -157 123q0 40 17.5 70.5t41 48t65.5 31.5t73 20t80 13q62 9 84.5 18t28.5 33q4 20 -10.5 30.5t-44.5 10.5q-78 0 -102 -70h-159q21 82 88.5 136.5
t189.5 54.5zM219 99q40 0 80.5 24.5t54.5 80.5l4 15q-26 -12 -81 -23q-54 -11 -79.5 -25.5t-25.5 -38.5q0 -33 47 -33z" />
    <glyph glyph-name="abreve.ss09" horiz-adv-x="570" 
d="M354 550q-68 0 -102 41.5t-22 98.5h101q-7 -49 40 -49q46 0 60 49h102q-14 -62 -62.5 -101t-116.5 -39zM349 509q104 0 155 -48t28 -147l-73 -314h-152l9 39q-72 -49 -162 -49q-157 0 -157 123q0 40 17.5 70.5t41 48t65.5 31.5t73 20t80 13q62 9 84.5 18t28.5 33
q4 20 -10.5 30.5t-44.5 10.5q-78 0 -102 -70h-159q21 82 88.5 136.5t189.5 54.5zM219 99q40 0 80.5 24.5t54.5 80.5l4 15q-26 -12 -81 -23q-54 -11 -79.5 -25.5t-25.5 -38.5q0 -33 47 -33z" />
    <glyph glyph-name="acircumflex.ss09" horiz-adv-x="570" 
d="M374 626l-64 -61h-127l143 135h124l79 -135h-121zM349 509q104 0 155 -48t28 -147l-73 -314h-152l9 39q-72 -49 -162 -49q-157 0 -157 123q0 40 17.5 70.5t41 48t65.5 31.5t73 20t80 13q62 9 84.5 18t28.5 33q4 20 -10.5 30.5t-44.5 10.5q-78 0 -102 -70h-159
q21 82 88.5 136.5t189.5 54.5zM219 99q40 0 80.5 24.5t54.5 80.5l4 15q-26 -12 -81 -23q-54 -11 -79.5 -25.5t-25.5 -38.5q0 -33 47 -33z" />
    <glyph glyph-name="adieresis.ss02" horiz-adv-x="611" 
d="M243 554q-29 0 -46 17.5t-17 44.5q0 38 29 66t70 28q29 0 45 -17.5t16 -45.5q0 -38 -28.5 -65.5t-68.5 -27.5zM468 554q-29 0 -46 17.5t-17 44.5q0 38 29 66t70 28q29 0 45 -17.5t16 -45.5q0 -38 -28.5 -65.5t-68.5 -27.5zM451 500h162l-115 -500h-162l10 46
q-51 -56 -144 -56q-82 0 -134 53.5t-52 153.5q0 132 86 222.5t194 90.5q98 0 142 -68zM261 109q42 0 78 32.5t49 85.5l3 11q4 19 4 43q0 98 -76 98q-57 0 -94 -52t-37 -121q0 -47 19 -72t54 -25z" />
    <glyph glyph-name="adieresis.ss09" horiz-adv-x="570" 
d="M345 700l-30 -131h-140l30 131h140zM565 700l-30 -131h-140l30 131h140zM349 509q104 0 155 -48t28 -147l-73 -314h-152l9 39q-72 -49 -162 -49q-157 0 -157 123q0 40 17.5 70.5t41 48t65.5 31.5t73 20t80 13q62 9 84.5 18t28.5 33q4 20 -10.5 30.5t-44.5 10.5
q-78 0 -102 -70h-159q21 82 88.5 136.5t189.5 54.5zM219 99q40 0 80.5 24.5t54.5 80.5l4 15q-26 -12 -81 -23q-54 -11 -79.5 -25.5t-25.5 -38.5q0 -33 47 -33z" />
    <glyph glyph-name="adieresis.ss09.ss02" horiz-adv-x="570" 
d="M239 554q-29 0 -46 17.5t-17 44.5q0 38 29 66t70 28q29 0 45 -17.5t16 -45.5q0 -38 -28.5 -65.5t-68.5 -27.5zM464 554q-29 0 -46 17.5t-17 44.5q0 38 29 66t70 28q29 0 45 -17.5t16 -45.5q0 -38 -28.5 -65.5t-68.5 -27.5zM349 509q104 0 155 -48t28 -147l-73 -314h-152
l9 39q-72 -49 -162 -49q-157 0 -157 123q0 40 17.5 70.5t41 48t65.5 31.5t73 20t80 13q62 9 84.5 18t28.5 33q4 20 -10.5 30.5t-44.5 10.5q-78 0 -102 -70h-159q21 82 88.5 136.5t189.5 54.5zM219 99q40 0 80.5 24.5t54.5 80.5l4 15q-26 -12 -81 -23q-54 -11 -79.5 -25.5
t-25.5 -38.5q0 -33 47 -33z" />
    <glyph glyph-name="agrave.ss09" horiz-adv-x="570" 
d="M433 555h-121l-124 145h168zM349 509q104 0 155 -48t28 -147l-73 -314h-152l9 39q-72 -49 -162 -49q-157 0 -157 123q0 40 17.5 70.5t41 48t65.5 31.5t73 20t80 13q62 9 84.5 18t28.5 33q4 20 -10.5 30.5t-44.5 10.5q-78 0 -102 -70h-159q21 82 88.5 136.5t189.5 54.5z
M219 99q40 0 80.5 24.5t54.5 80.5l4 15q-26 -12 -81 -23q-54 -11 -79.5 -25.5t-25.5 -38.5q0 -33 47 -33z" />
    <glyph glyph-name="amacron.ss09" horiz-adv-x="570" 
d="M535 680l-24 -103h-310l24 103h310zM349 509q104 0 155 -48t28 -147l-73 -314h-152l9 39q-72 -49 -162 -49q-157 0 -157 123q0 40 17.5 70.5t41 48t65.5 31.5t73 20t80 13q62 9 84.5 18t28.5 33q4 20 -10.5 30.5t-44.5 10.5q-78 0 -102 -70h-159q21 82 88.5 136.5
t189.5 54.5zM219 99q40 0 80.5 24.5t54.5 80.5l4 15q-26 -12 -81 -23q-54 -11 -79.5 -25.5t-25.5 -38.5q0 -33 47 -33z" />
    <glyph glyph-name="aogonek.ss09" horiz-adv-x="570" 
d="M349 509q104 0 155 -48t28 -147l-73 -314q-50 -27 -72.5 -49.5t-22.5 -50.5q0 -43 58 -43h24l-18 -77h-30q-64 0 -95.5 26.5t-31.5 71.5q0 13 3 25t6 21t11 18.5t13 14.5t16.5 13t15.5 10.5t17.5 10t16.5 9.5h-63l9 39q-72 -49 -162 -49q-157 0 -157 123q0 40 17.5 70.5
t41 48t65.5 31.5t73 20t80 13q62 9 84.5 18t28.5 33q4 20 -10.5 30.5t-44.5 10.5q-78 0 -102 -70h-159q21 82 88.5 136.5t189.5 54.5zM219 99q40 0 80.5 24.5t54.5 80.5l4 15q-26 -12 -81 -23q-54 -11 -79.5 -25.5t-25.5 -38.5q0 -33 47 -33z" />
    <glyph glyph-name="aring.ss09" horiz-adv-x="570" 
d="M357 539q-48 0 -74.5 30t-26.5 72q0 53 40.5 90.5t94.5 37.5q47 0 74 -29t27 -71q0 -54 -40.5 -92t-94.5 -38zM381 686q-15 0 -27 -12t-12 -26q0 -11 6.5 -18.5t18.5 -7.5q15 0 27 12t12 26q0 11 -6.5 18.5t-18.5 7.5zM349 509q104 0 155 -48t28 -147l-73 -314h-152l9 39
q-72 -49 -162 -49q-157 0 -157 123q0 40 17.5 70.5t41 48t65.5 31.5t73 20t80 13q62 9 84.5 18t28.5 33q4 20 -10.5 30.5t-44.5 10.5q-78 0 -102 -70h-159q21 82 88.5 136.5t189.5 54.5zM219 99q40 0 80.5 24.5t54.5 80.5l4 15q-26 -12 -81 -23q-54 -11 -79.5 -25.5
t-25.5 -38.5q0 -33 47 -33z" />
    <glyph glyph-name="at.case" horiz-adv-x="948" 
d="M565 790q167 0 278 -97t111 -259q0 -137 -76 -237.5t-187 -100.5q-88 0 -120 63q-58 -63 -151 -63q-84 0 -126.5 49.5t-42.5 135.5q0 123 78.5 209t172.5 86q78 0 116 -62l12 52h126l-64 -280q-20 -79 31 -79q28 0 49.5 22.5t33 57t17.5 69.5t6 67q0 109 -68.5 180
t-188.5 71q-159 0 -276.5 -118t-117.5 -281q0 -114 64.5 -181.5t189.5 -67.5q110 0 175 48l62 -80q-117 -84 -260 -84q-166 0 -265.5 99.5t-99.5 267.5q0 143 72.5 261.5t192 185t256.5 66.5zM456 204q54 0 89 50.5t35 124.5q0 89 -64 89q-57 0 -94.5 -54t-37.5 -120
q0 -90 72 -90z" />
    <glyph glyph-name="atilde.ss09" horiz-adv-x="570" 
d="M296 590q-31 0 -49 -36h-86q40 143 153 143q42 0 72 -20.5t46 -20.5q35 0 52 36h88q-43 -143 -154 -143q-43 0 -74 20.5t-48 20.5zM349 509q104 0 155 -48t28 -147l-73 -314h-152l9 39q-72 -49 -162 -49q-157 0 -157 123q0 40 17.5 70.5t41 48t65.5 31.5t73 20t80 13
q62 9 84.5 18t28.5 33q4 20 -10.5 30.5t-44.5 10.5q-78 0 -102 -70h-159q21 82 88.5 136.5t189.5 54.5zM219 99q40 0 80.5 24.5t54.5 80.5l4 15q-26 -12 -81 -23q-54 -11 -79.5 -25.5t-25.5 -38.5q0 -33 47 -33z" />
    <glyph glyph-name="braceleft.case" horiz-adv-x="431" 
d="M463 870h111l-29 -126h-60q-87 0 -109 -90l-38 -163q-28 -117 -157 -148q111 -50 82 -176l-25 -107q-23 -104 90 -104h35l-29 -126h-66q-94 0 -145 62t-28 164l27 116q13 55 -8.5 83t-82.5 41l9 39l16 69q67 13 101.5 41t46.5 83l35 153q19 82 78.5 135.5t145.5 53.5z
" />
    <glyph glyph-name="braceright.case" horiz-adv-x="430" 
d="M446 404l-9 -39l-16 -69q-67 -13 -101.5 -41t-46.5 -83l-35 -153q-19 -82 -78.5 -135.5t-145.5 -53.5h-111l29 126h60q87 0 109 90l38 163q28 117 157 148q-111 50 -82 176l25 107q23 104 -90 104h-35l29 126h66q94 0 145 -62t28 -164l-27 -116q-13 -55 8.5 -83t82.5 -41
z" />
    <glyph glyph-name="bracketleft.case" horiz-adv-x="378" 
d="M491 743h-174l-182 -786h175l-30 -127h-317l240 1040h317z" />
    <glyph glyph-name="bracketright.case" horiz-adv-x="378" 
d="M461 870l-240 -1040h-317l29 127h174l182 786h-175l30 127h317z" />
    <glyph glyph-name="bullet.case" horiz-adv-x="242" 
d="M44 310l39 170h182l-39 -170h-182z" />
    <glyph glyph-name="bullet.case.ss02" horiz-adv-x="252" 
d="M138 300q-36 0 -56 21.5t-20 54.5q0 46 35 80t85 34q35 0 55 -21.5t20 -54.5q0 -46 -35 -80t-84 -34z" />
    <glyph glyph-name="bullet.ss02" horiz-adv-x="251" 
d="M125 246q-36 0 -56 21.5t-20 54.5q0 46 35 80t85 34q35 0 55 -21.5t20 -54.5q0 -46 -35 -80t-84 -34z" />
    <glyph glyph-name="cdotaccent.ss02" horiz-adv-x="581" 
d="M350 548q-34 0 -53.5 20.5t-19.5 52.5q0 45 33.5 77.5t81.5 32.5q34 0 53 -20.5t19 -52.5q0 -45 -33.5 -77.5t-80.5 -32.5zM390 299q7 81 -66 81q-60 0 -98 -49t-38 -115q0 -44 21 -69t56 -25q74 0 108 82h162q-33 -103 -103.5 -158.5t-173.5 -55.5q-114 0 -176 59
t-62 158q0 128 87 215.5t224 87.5q115 0 174 -61t46 -150h-161z" />
    <glyph glyph-name="cent.ss07" horiz-adv-x="558" 
d="M542 354h-149q3 34 -16.5 51t-55.5 17q-56 0 -94 -36.5t-38 -104.5q0 -47 20.5 -66.5t59.5 -19.5q81 0 109 69h148q-60 -169 -234 -186l-18 -78h-116l20 84q-143 35 -143 190q0 109 68.5 181t179.5 86l18 80h116l-19 -81q75 -13 114 -59.5t30 -126.5z" />
    <glyph glyph-name="colon.ss02" horiz-adv-x="290" 
d="M161 320q-36 0 -56 21.5t-20 54.5q0 46 35 80t85 34q35 0 55 -21.5t20 -54.5q0 -46 -35 -80t-84 -34zM85 -10q-36 0 -56 21.5t-20 54.5q0 46 35 80t85 34q35 0 55 -21.5t20 -54.5q0 -46 -35 -80t-84 -34z" />
    <glyph glyph-name="comma.ss02" horiz-adv-x="285" 
d="M119 180q36 0 55 -23.5t19 -64.5q0 -88 -64.5 -151.5t-176.5 -72.5l12 56q37 6 67.5 23t38.5 43q-33 1 -50 22t-17 52q0 47 34.5 81.5t81.5 34.5z" />
    <glyph glyph-name="dcaron.ss02" horiz-adv-x="610" 
d="M497 710h164l-164 -710h-164l11 49q-50 -59 -142 -59q-88 0 -136 56.5t-48 152.5q0 133 86 222t199 89q93 0 134 -59zM808 680q34 0 52 -21t18 -58q0 -80 -61 -137t-168 -65l12 51q35 5 63.5 20.5t36.5 38.5q-31 1 -47 20t-16 47q0 42 33 73t77 31zM265 109q55 0 90.5 52
t35.5 121q0 97 -76 97q-58 0 -91.5 -53t-33.5 -119q0 -46 19 -72t56 -26z" />
    <glyph glyph-name="dieresis.ss02" horiz-adv-x="450" 
d="M243 554q-29 0 -46 17.5t-17 44.5q0 38 29 66t70 28q29 0 45 -17.5t16 -45.5q0 -38 -28.5 -65.5t-68.5 -27.5zM468 554q-29 0 -46 17.5t-17 44.5q0 38 29 66t70 28q29 0 45 -17.5t16 -45.5q0 -38 -28.5 -65.5t-68.5 -27.5z" />
    <glyph glyph-name="divide.ss02" horiz-adv-x="570" 
d="M316 335q-29 0 -46 17.5t-17 44.5q0 38 29 66t70 28q29 0 45 -17.5t16 -45.5q0 -38 -28.5 -65.5t-68.5 -27.5zM43 305h510l-30 -130h-510zM236 -10q-29 0 -46 17.5t-17 44.5q0 38 29 66t70 28q29 0 45 -17.5t16 -45.5q0 -38 -28.5 -65.5t-68.5 -27.5z" />
    <glyph glyph-name="dollar.ss03" horiz-adv-x="577" 
d="M588 487h-155q7 43 -12.5 63t-54.5 20q-39 0 -69 -22t-30 -59q0 -29 23 -44.5t94 -41.5q73 -28 112.5 -66.5t39.5 -110.5q0 -94 -68 -155t-173 -76l-22 -95h-131l22 96q-90 16 -129 76t-22 152h157q-7 -51 21.5 -76t77.5 -25q42 0 68.5 19t26.5 57q0 32 -22 47.5
t-82 37.5q-82 30 -124.5 68t-42.5 113q0 94 67 158t167 81l20 86h131l-20 -87q79 -18 112 -76t18 -140z" />
    <glyph glyph-name="dollar.ss07" horiz-adv-x="521" 
d="M530 420h-150q6 42 -12 63.5t-53 21.5q-36 0 -61.5 -21t-25.5 -51q0 -11 4.5 -20.5t9 -15.5t16 -13.5t17 -10t21.5 -10t19 -9.5q64 -30 101 -68.5t37 -102.5q0 -77 -55.5 -127.5t-141.5 -62.5l-17 -75h-116l18 80q-67 17 -95.5 68t-15.5 125h147q-10 -68 50 -68
q27 0 45 13.5t18 35.5q0 9 -4 17t-9 13.5t-16 12.5t-18.5 11t-24 12t-25.5 13q-25 13 -43 25t-40 33t-33.5 51t-11.5 67q0 86 62.5 138.5t159.5 62.5l17 72h116l-18 -77q76 -17 109.5 -69.5t18.5 -133.5z" />
    <glyph glyph-name="dollar.ss07.ss03" horiz-adv-x="513" 
d="M512 429h-147q10 68 -49 68q-29 0 -51.5 -16t-22.5 -47q0 -14 4.5 -23.5t20.5 -18.5t26.5 -13.5t43.5 -17.5q27 -10 44.5 -19.5t40 -27.5t34 -46t11.5 -65q0 -82 -58.5 -137.5t-150.5 -70.5l-18 -77h-116l18 76q-81 14 -115.5 68t-19.5 138h150q-6 -44 13 -64.5t56 -20.5
q33 0 54.5 15.5t21.5 46.5q0 28 -18.5 41.5t-63.5 29.5q-33 12 -54 22.5t-44 28.5t-34.5 45.5t-11.5 63.5q0 84 60.5 143.5t151.5 74.5l17 74h116l-18 -77q67 -18 94.5 -70t14.5 -124z" />
    <glyph glyph-name="dotaccent.ss02" horiz-adv-x="450" 
d="M297 548q-34 0 -53.5 20.5t-19.5 52.5q0 45 33.5 77.5t81.5 32.5q34 0 53 -20.5t19 -52.5q0 -45 -33.5 -77.5t-80.5 -32.5z" />
    <glyph glyph-name="edieresis.ss02" horiz-adv-x="576" 
d="M233 554q-29 0 -46 17.5t-17 44.5q0 38 29 66t70 28q29 0 45 -17.5t16 -45.5q0 -38 -28.5 -65.5t-68.5 -27.5zM458 554q-29 0 -46 17.5t-17 44.5q0 38 29 66t70 28q29 0 45 -17.5t16 -45.5q0 -38 -28.5 -65.5t-68.5 -27.5zM321 510q120 0 175.5 -72t38.5 -202
q-2 -18 -4 -24h-346v-6q0 -49 19.5 -71t64.5 -22q67 0 94 58h161q-39 -93 -102 -137t-162 -44q-121 0 -180.5 60t-59.5 159q0 122 81 211.5t220 89.5zM205 307h177q7 85 -65 85q-75 0 -112 -85z" />
    <glyph glyph-name="edotaccent.ss02" horiz-adv-x="576" 
d="M347 548q-34 0 -53.5 20.5t-19.5 52.5q0 45 33.5 77.5t81.5 32.5q34 0 53 -20.5t19 -52.5q0 -45 -33.5 -77.5t-80.5 -32.5zM321 510q120 0 175.5 -72t38.5 -202q-2 -18 -4 -24h-346v-6q0 -49 19.5 -71t64.5 -22q67 0 94 58h161q-39 -93 -102 -137t-162 -44
q-121 0 -180.5 60t-59.5 159q0 122 81 211.5t220 89.5zM205 307h177q7 85 -65 85q-75 0 -112 -85z" />
    <glyph glyph-name="eight.dnom" horiz-adv-x="352" 
d="M246 163q35 -21 35 -66q0 -50 -44 -78.5t-108 -28.5q-58 0 -94 24.5t-36 67.5q0 53 64 87q-46 23 -46 72q0 55 46 89.5t125 34.5q69 0 108.5 -26.5t39.5 -71.5q0 -36 -25 -63t-65 -41zM186 293q-33 0 -55.5 -15t-22.5 -39q0 -10 5 -18t13 -12.5t15 -7t15 -3.5l7 -2h4l8 2
t10.5 2.5t12.5 3.5t12.5 5t12 7.5t10 9.5t7 12t2.5 15q0 40 -56 40zM90 91q0 -32 42 -32q27 0 43.5 13t16.5 34q0 29 -40 40q-28 -5 -45 -19.5t-17 -35.5z" />
    <glyph glyph-name="eight.dnom.ss03" horiz-adv-x="352" 
d="M257 189q44 -21 44 -68q0 -58 -46 -94.5t-129 -36.5q-65 0 -104.5 25.5t-39.5 66.5q0 76 85 107q-29 19 -29 56q0 56 43.5 88t110.5 32q54 0 91 -22.5t37 -61.5q0 -60 -63 -92zM186 296q-27 0 -43 -13t-16 -35q0 -29 39 -39q10 2 20 4.5t26 16.5t16 34q0 32 -42 32z
M132 62q34 0 56 15t22 40q0 9 -4 16t-9.5 11t-13 7.5t-13 4.5t-10.5 2l-5 1l-4 -1q-4 0 -8 -1t-10.5 -2.5t-12.5 -3.5t-12.5 -5.5t-12 -7.5t-10 -9.5t-7 -12.5t-2.5 -15q0 -18 15 -28.5t41 -10.5z" />
    <glyph glyph-name="eight.numr" horiz-adv-x="352" 
d="M325 503q35 -21 35 -66q0 -50 -44 -78.5t-108 -28.5q-58 0 -94 24.5t-36 67.5q0 53 64 87q-46 23 -46 72q0 55 46 89.5t125 34.5q69 0 108.5 -26.5t39.5 -71.5q0 -36 -25 -63t-65 -41zM265 633q-33 0 -55.5 -15t-22.5 -39q0 -10 5 -18t13 -12.5t15 -7t14 -3.5l8 -2h4l8 2
t10.5 2.5t12.5 3.5t12.5 5t12 7.5t10 9.5t7 12t2.5 15q0 40 -56 40zM169 431q0 -32 42 -32q27 0 43.5 13t16.5 34q0 29 -40 40q-28 -5 -45 -19.5t-17 -35.5z" />
    <glyph glyph-name="eight.numr.ss03" horiz-adv-x="352" 
d="M336 529q44 -21 44 -68q0 -58 -46 -94.5t-129 -36.5q-65 0 -104.5 25.5t-39.5 66.5q0 76 85 107q-29 19 -29 56q0 56 43.5 88t110.5 32q54 0 91 -22.5t37 -61.5q0 -60 -63 -92zM265 636q-27 0 -43 -13t-16 -35q0 -29 39 -39q10 2 20 4.5t26 16.5t16 34q0 32 -42 32z
M211 402q34 0 56 15t22 40q0 9 -4 16t-9.5 11t-13 7.5t-13 4.5t-10.5 2l-5 1l-4 -1q-4 0 -8 -1t-10.5 -2.5t-12.5 -3.5t-12.5 -5.5t-12 -7.5t-10 -9.5t-7 -12.5t-2.5 -15q0 -18 15 -28.5t41 -10.5z" />
    <glyph glyph-name="eight.ss03" horiz-adv-x="662" 
d="M514 355q92 -54 92 -151q0 -91 -82.5 -153t-225.5 -62q-127 0 -196 51t-69 141q0 78 48.5 125.5t123.5 69.5q-67 46 -67 125q0 90 81 145t194 55q101 0 166 -47t65 -133q0 -117 -130 -166zM406 574q-46 0 -74.5 -26t-28.5 -67q0 -30 16 -49t32 -24l16 -4q4 1 11.5 2.5
t26 10t32.5 19t25.5 31t11.5 45.5q0 62 -68 62zM303 121q56 0 95 30.5t39 76.5q0 21 -9.5 37.5t-22.5 25t-26.5 13.5t-22.5 6l-10 2l-15 -2.5t-32.5 -9.5t-41.5 -19t-33 -33t-15 -50q0 -37 25 -57t69 -20z" />
    <glyph glyph-name="eight.ss07" horiz-adv-x="641" 
d="M644 452q0 -122 -154 -169q58 -40 58 -112q0 -86 -77 -134t-191 -48q-101 0 -163.5 40t-62.5 117q0 100 110 147q-81 41 -81 126q0 91 83.5 151t220.5 60q121 0 189 -48t68 -130zM379 503q-57 0 -94.5 -24.5t-37.5 -63.5q0 -29 23.5 -47.5t47.5 -21.5l24 -4q5 0 14.5 1.5
t32.5 8t40.5 15.5t32 27.5t14.5 42.5q0 32 -26 49t-71 17zM289 111q46 0 74 20.5t28 55.5q0 27 -17.5 44.5t-34.5 20.5l-17 4q-4 -1 -11 -2.5t-25.5 -8t-32 -16t-25 -26.5t-11.5 -38q0 -54 72 -54z" />
    <glyph glyph-name="eight.ss07.ss03" horiz-adv-x="641" 
d="M505 319q80 -44 80 -130q0 -89 -80.5 -144.5t-219.5 -55.5q-126 0 -193.5 46.5t-67.5 127.5q0 124 155 172q-59 38 -59 108q0 85 78.5 136t190.5 51q101 0 163.5 -43.5t62.5 -122.5q0 -101 -110 -145zM380 508q-46 0 -73.5 -20.5t-27.5 -55.5q0 -27 17 -44.5t34 -21.5
l17 -3q4 1 11 2.5t25.5 8t32 16t25 26.5t11.5 38q0 54 -72 54zM290 116q57 0 94.5 24.5t37.5 63.5q0 30 -24 48.5t-48 21.5l-23 3q-5 0 -14.5 -1.5t-32.5 -8t-40.5 -16t-32 -28t-14.5 -41.5q0 -32 25.5 -49t71.5 -17z" />
    <glyph glyph-name="eight.tf" horiz-adv-x="670" 
d="M677 507q0 -142 -164 -192q60 -43 60 -121q0 -95 -81.5 -150t-195.5 -55q-99 0 -164 44.5t-65 131.5q0 111 116 162q-80 43 -80 138q0 102 86 169t230 67q123 0 190.5 -51.5t67.5 -142.5zM410 574q-56 0 -95.5 -30.5t-39.5 -74.5q0 -20 9.5 -36t22.5 -25t26.5 -15
t22.5 -8l10 -2q6 1 15 3t32.5 11t41.5 20.5t33 33.5t15 48q0 36 -25 55.5t-68 19.5zM305 117q45 0 74 25.5t29 65.5q0 29 -16 48.5t-32 25.5l-16 5q-4 -1 -11.5 -3t-26 -10.5t-32.5 -20t-25.5 -31.5t-11.5 -44q0 -61 68 -61z" />
    <glyph glyph-name="eight.tf.ss03" horiz-adv-x="670" 
d="M518 355q92 -54 92 -151q0 -91 -82.5 -153t-225.5 -62q-127 0 -196 51t-69 141q0 78 48.5 125.5t123.5 69.5q-67 46 -67 125q0 90 81 145t194 55q101 0 166 -47t65 -133q0 -117 -130 -166zM410 574q-46 0 -74.5 -26t-28.5 -67q0 -30 16 -49t32 -24l16 -4q4 1 11.5 2.5
t26 10t32.5 19t25.5 31t11.5 45.5q0 62 -68 62zM307 121q56 0 95 30.5t39 76.5q0 21 -9.5 37.5t-22.5 25t-26.5 13.5t-22.5 6l-10 2l-15 -2.5t-32.5 -9.5t-41.5 -19t-33 -33t-15 -50q0 -37 25 -57t69 -20z" />
    <glyph glyph-name="eight.tf.ss07" horiz-adv-x="630" 
d="M639 452q0 -122 -154 -169q58 -40 58 -112q0 -86 -77 -134t-191 -48q-101 0 -163.5 40t-62.5 117q0 100 110 147q-81 41 -81 126q0 91 83.5 151t220.5 60q121 0 189 -48t68 -130zM374 503q-57 0 -94.5 -24.5t-37.5 -63.5q0 -29 24 -47.5t48 -21.5l23 -4q5 0 14.5 1.5
t32.5 8t40.5 15.5t32 27.5t14.5 42.5q0 32 -26 49t-71 17zM284 111q46 0 74 20.5t28 55.5q0 27 -17 44.5t-35 20.5l-17 4q-4 -1 -11 -2.5t-25.5 -8t-32 -16t-25 -26.5t-11.5 -38q0 -54 72 -54z" />
    <glyph glyph-name="eight.tf.ss07.ss03" horiz-adv-x="630" 
d="M500 319q80 -44 80 -130q0 -89 -80.5 -144.5t-219.5 -55.5q-126 0 -193.5 46.5t-67.5 127.5q0 124 155 172q-59 38 -59 108q0 85 78.5 136t190.5 51q101 0 163.5 -43.5t62.5 -122.5q0 -101 -110 -145zM375 508q-46 0 -73.5 -20.5t-27.5 -55.5q0 -27 17 -44.5t34 -21.5
l17 -3q4 1 11 2.5t25.5 8t32 16t25 26.5t11.5 38q0 54 -72 54zM285 116q57 0 94.5 24.5t37.5 63.5q0 30 -23.5 48.5t-47.5 21.5l-24 3q-5 0 -14.5 -1.5t-32.5 -8t-40.5 -16t-32 -28t-14.5 -41.5q0 -32 25.5 -49t71.5 -17z" />
    <glyph glyph-name="ellipsis.ss02" horiz-adv-x="814" 
d="M85 -10q-36 0 -56 21.5t-20 54.5q0 46 35 80t85 34q35 0 55 -21.5t20 -54.5q0 -46 -35 -80t-84 -34zM347 -10q-36 0 -56 21.5t-20 54.5q0 46 35 80t85 34q35 0 55 -21.5t20 -54.5q0 -46 -35 -80t-84 -34zM609 -10q-36 0 -56 21.5t-20 54.5q0 46 35 80t85 34
q35 0 55 -21.5t20 -54.5q0 -46 -35 -80t-84 -34z" />
    <glyph glyph-name="emdash.case" horiz-adv-x="1157" 
d="M70 425h1097l-30 -130h-1097z" />
    <glyph glyph-name="endash.case" horiz-adv-x="746" 
d="M70 425h686l-30 -130h-686z" />
    <glyph glyph-name="exclam.ss02" horiz-adv-x="290" 
d="M161 700h176l-134 -461h-122zM85 -10q-36 0 -56 21.5t-20 54.5q0 46 35 80t85 34q35 0 55 -21.5t20 -54.5q0 -46 -35 -80t-84 -34z" />
    <glyph glyph-name="exclamdown.case" horiz-adv-x="281" 
d="M335 700l-39 -170h-182l39 170h182zM170 0h-176l134 461h122z" />
    <glyph glyph-name="exclamdown.case.ss02" horiz-adv-x="291" 
d="M208 520q-36 0 -56 21.5t-20 54.5q0 46 35 80t85 34q35 0 55 -21.5t20 -54.5q0 -46 -35 -80t-84 -34zM-1 0l134 461h122l-80 -461h-176z" />
    <glyph glyph-name="exclamdown.ss02" horiz-adv-x="291" 
d="M157 300q-36 0 -56 21.5t-20 54.5q0 46 35 80t85 34q35 0 55 -21.5t20 -54.5q0 -46 -35 -80t-84 -34zM-52 -220l134 461h122l-80 -461h-176z" />
    <glyph glyph-name="f_f_i.liga.ss02" horiz-adv-x="1107" 
d="M1081 731q34 0 53 -20.5t19 -52.5q0 -45 -33.5 -77.5t-80.5 -32.5q-34 0 -53.5 20.5t-19.5 52.5q0 45 33.5 77.5t81.5 32.5zM1109 500l-115 -500h-170l89 385h-223l-89 -385h-168l88 385h-214l-89 -385h-168l88 385h-93l26 115h93l6 25q41 175 222 175h160l-30 -127h-106
q-35 0 -55 -19t-26 -47l-2 -7h214l6 25q41 175 222 175h160l-30 -127h-106q-35 0 -55 -19t-26 -47l-2 -7h393z" />
    <glyph glyph-name="f_f_j.liga.ss02" horiz-adv-x="1107" 
d="M1081 731q34 0 53 -20.5t19 -52.5q0 -45 -33.5 -77.5t-80.5 -32.5q-34 0 -53.5 20.5t-19.5 52.5q0 45 33.5 77.5t81.5 32.5zM1109 500l-100 -433l-23 -103q-22 -95 -82 -139.5t-165 -44.5h-141l31 132h72q103 0 124 93l16 69l72 311h-223l-89 -385h-168l88 385h-214
l-89 -385h-168l88 385h-93l26 115h93l6 25q41 175 222 175h160l-30 -127h-106q-35 0 -55 -19t-26 -47l-2 -7h214l6 25q41 175 222 175h160l-30 -127h-106q-35 0 -55 -19t-26 -47l-2 -7h393z" />
    <glyph glyph-name="f_i.liga.ss02" horiz-adv-x="724" 
d="M698 731q34 0 53 -20.5t19 -52.5q0 -45 -33.5 -77.5t-80.5 -32.5q-34 0 -53.5 20.5t-19.5 52.5q0 45 33.5 77.5t81.5 32.5zM726 500l-115 -500h-170l89 385h-223l-89 -385h-168l88 385h-93l26 115h93l6 25q41 175 222 175h160l-30 -127h-106q-35 0 -55 -19t-26 -47l-2 -7
h393z" />
    <glyph glyph-name="f_j.liga.ss02" horiz-adv-x="724" 
d="M698 731q34 0 53 -20.5t19 -52.5q0 -45 -33.5 -77.5t-80.5 -32.5q-34 0 -53.5 20.5t-19.5 52.5q0 45 33.5 77.5t81.5 32.5zM726 500l-100 -433l-23 -103q-22 -95 -82 -139.5t-165 -44.5h-141l31 132h72q103 0 124 93l16 69l72 311h-223l-89 -385h-168l88 385h-93l26 115
h93l6 25q41 175 222 175h160l-30 -127h-106q-35 0 -55 -19t-26 -47l-2 -7h393z" />
    <glyph glyph-name="five.dnom" horiz-adv-x="347" 
d="M189 241q48 0 75 -29.5t27 -78.5q0 -63 -44.5 -103t-117.5 -40t-106.5 39.5t-25.5 92.5h89q-6 -57 48 -57q32 0 52 19.5t20 46.5q0 44 -49 44q-39 0 -67 -28l-65 27l71 186h226l-18 -79h-148l-23 -54q25 14 56 14z" />
    <glyph glyph-name="five.numr" horiz-adv-x="347" 
d="M268 581q48 0 75 -29.5t27 -78.5q0 -63 -44.5 -103t-117.5 -40t-106.5 39.5t-25.5 92.5h89q-6 -57 48 -57q32 0 52 19.5t20 46.5q0 44 -49 44q-39 0 -67 -28l-65 27l71 186h226l-18 -79h-148l-23 -54q25 14 56 14z" />
    <glyph glyph-name="five.ss07" horiz-adv-x="585" 
d="M550 484h-245l-33 -81q37 16 83 16q84 0 129 -49.5t45 -130.5q0 -108 -78 -178.5t-202 -70.5q-64 0 -110.5 20.5t-70 53.5t-32 72t-1.5 80h154q-10 -96 76 -96q51 0 84 32.5t33 77.5q0 74 -83 74q-55 0 -106 -47l-112 47l120 317h380z" />
    <glyph glyph-name="five.tf" horiz-adv-x="670" 
d="M624 555h-273l-41 -106q40 21 92 21q87 0 141.5 -55.5t54.5 -150.5q0 -119 -85 -196.5t-219 -77.5q-69 0 -121 22t-79 59t-36.5 80.5t-1.5 89.5h163q-11 -113 87 -113q59 0 97 39t38 92q0 40 -23.5 64t-69.5 24q-66 0 -121 -53l-120 50l135 356h416z" />
    <glyph glyph-name="five.tf.ss07" horiz-adv-x="630" 
d="M570 484h-245l-33 -81q37 16 83 16q84 0 129 -49.5t45 -130.5q0 -108 -78 -178.5t-202 -70.5q-64 0 -110.5 20.5t-70 53.5t-32 72t-1.5 80h154q-10 -96 76 -96q51 0 84 32.5t33 77.5q0 74 -83 74q-55 0 -106 -47l-112 47l120 317h380z" />
    <glyph glyph-name="fiveeighths.ss03" horiz-adv-x="849" 
d="M17 0l748 700h118l-748 -700h-118zM268 581q48 0 75 -29.5t27 -78.5q0 -63 -44.5 -103t-117.5 -40t-106.5 39.5t-25.5 92.5h89q-6 -57 48 -57q32 0 52 19.5t20 46.5q0 44 -49 44q-39 0 -67 -28l-65 27l71 186h226l-18 -79h-148l-23 -54q25 14 56 14zM754 189
q44 -21 44 -68q0 -58 -46 -94.5t-129 -36.5q-65 0 -104.5 25.5t-39.5 66.5q0 76 85 107q-29 19 -29 56q0 56 43.5 88t110.5 32q54 0 91 -22.5t37 -61.5q0 -60 -63 -92zM683 296q-27 0 -43 -13t-16 -35q0 -29 39 -39q10 2 20 4.5t26 16.5t16 34q0 32 -42 32zM629 62
q34 0 56 15t22 40q0 9 -4 16t-9.5 11t-13 7.5t-13 4.5t-10.5 2l-5 1l-4 -1q-4 0 -8 -1t-10.5 -2.5t-12.5 -3.5t-12.5 -5.5t-12 -7.5t-10 -9.5t-7 -12.5t-2.5 -15q0 -18 15 -28.5t41 -10.5z" />
    <glyph glyph-name="florin.ss07" horiz-adv-x="611" 
d="M546 621h110l-28 -121h-62q-55 0 -82.5 -23t-51.5 -79l-14 -32h128l-21 -93h-148l-56 -126q-31 -70 -96.5 -108.5t-142.5 -38.5h-100l28 121h62q55 0 82 22.5t51 77.5l23 52h-122l21 93h141l44 101q33 77 97.5 115.5t136.5 38.5z" />
    <glyph glyph-name="four.dnom" horiz-adv-x="350" 
d="M308 142l-17 -73h-56l-16 -69h-87l16 69h-173l12 54l209 237h106l-50 -218h56zM92 142h73l26 115z" />
    <glyph glyph-name="four.numr" horiz-adv-x="350" 
d="M387 482l-17 -73h-56l-16 -69h-87l16 69h-173l12 54l209 237h106l-50 -218h56zM171 482h73l26 115z" />
    <glyph glyph-name="four.ss07" horiz-adv-x="632" 
d="M596 246l-30 -127h-98l-27 -119h-150l27 119h-301l22 93l362 408h183l-86 -374h98zM226 246h122l44 191z" />
    <glyph glyph-name="four.tf" horiz-adv-x="670" 
d="M635 270l-31 -135h-108l-31 -135h-159l31 135h-331l23 100l403 465h195l-100 -430h108zM220 270h148l56 239z" />
    <glyph glyph-name="four.tf.ss07" horiz-adv-x="630" 
d="M585 246l-30 -127h-98l-27 -119h-150l27 119h-301l22 93l362 408h183l-86 -374h98zM215 246h122l44 191z" />
    <glyph glyph-name="gcommaaccent.ss02" horiz-adv-x="610" 
d="M355 538q-36 0 -55 23.5t-19 64.5q0 88 64.5 151.5t176.5 72.5l-12 -56q-37 -6 -67.5 -23t-38.5 -43q33 -1 50 -22t17 -52q0 -47 -34.5 -81.5t-81.5 -34.5zM451 500h161l-103 -449l-15 -66q-25 -112 -95.5 -163.5t-195.5 -51.5q-75 0 -125 17t-72 46.5t-28.5 60
t-1.5 67.5h155q-4 -34 15.5 -51.5t66.5 -17.5q51 0 80 24t42 78l12 54q-56 -58 -150 -58q-84 0 -132 54.5t-48 150.5q0 134 86.5 224.5t198.5 90.5q46 0 84.5 -17t51.5 -51zM261 109q56 0 94.5 49.5t38.5 124.5q0 98 -74 98q-57 0 -95.5 -51t-38.5 -124q0 -97 75 -97z" />
    <glyph glyph-name="gdotaccent.ss02" horiz-adv-x="610" 
d="M356 548q-34 0 -53.5 20.5t-19.5 52.5q0 45 33.5 77.5t81.5 32.5q34 0 53 -20.5t19 -52.5q0 -45 -33.5 -77.5t-80.5 -32.5zM451 500h161l-103 -449l-15 -66q-25 -112 -95.5 -163.5t-195.5 -51.5q-75 0 -125 17t-72 46.5t-28.5 60t-1.5 67.5h155q-4 -34 15.5 -51.5
t66.5 -17.5q51 0 80 24t42 78l12 54q-56 -58 -150 -58q-84 0 -132 54.5t-48 150.5q0 134 86.5 224.5t198.5 90.5q46 0 84.5 -17t51.5 -51zM261 109q56 0 94.5 49.5t38.5 124.5q0 98 -74 98q-57 0 -95.5 -51t-38.5 -124q0 -97 75 -97z" />
    <glyph glyph-name="guillemotleft.case" horiz-adv-x="659" 
d="M432 555l-211 -209l103 -181h-172l-102 200l192 190h190zM700 555l-211 -209l103 -181h-172l-102 200l192 190h190z" />
    <glyph glyph-name="guillemotright.case" horiz-adv-x="659" 
d="M286 555l102 -200l-192 -190h-190l211 209l-103 181h172zM554 555l102 -200l-192 -190h-190l211 209l-103 181h172z" />
    <glyph glyph-name="guilsinglleft.case" horiz-adv-x="391" 
d="M432 555l-211 -209l103 -181h-172l-102 200l192 190h190z" />
    <glyph glyph-name="guilsinglright.case" horiz-adv-x="391" 
d="M286 555l102 -200l-192 -190h-190l211 209l-103 181h172z" />
    <glyph glyph-name="hyphen.case" horiz-adv-x="517" 
d="M70 425h457l-30 -130h-457z" />
    <glyph glyph-name="i.loclTRK" horiz-adv-x="281" 
d="M127 562l32 138h172l-32 -138h-172zM168 0h-170l115 500h170z" />
    <glyph glyph-name="i.loclTRK.ss02" horiz-adv-x="281" 
d="M213 548q-34 0 -53.5 20.5t-19.5 52.5q0 45 33.5 77.5t81.5 32.5q34 0 53 -20.5t19 -52.5q0 -45 -33.5 -77.5t-80.5 -32.5zM168 0h-170l115 500h170z" />
    <glyph glyph-name="i.ss02" horiz-adv-x="281" 
d="M213 548q-34 0 -53.5 20.5t-19.5 52.5q0 45 33.5 77.5t81.5 32.5q34 0 53 -20.5t19 -52.5q0 -45 -33.5 -77.5t-80.5 -32.5zM168 0h-170l115 500h170z" />
    <glyph glyph-name="idieresis.ss02" horiz-adv-x="281" 
d="M99 554q-29 0 -46 17.5t-17 44.5q0 38 29 66t70 28q29 0 45 -17.5t16 -45.5q0 -38 -28.5 -65.5t-68.5 -27.5zM324 554q-29 0 -46 17.5t-17 44.5q0 38 29 66t70 28q29 0 45 -17.5t16 -45.5q0 -38 -28.5 -65.5t-68.5 -27.5zM168 0h-170l115 500h170z" />
    <glyph glyph-name="ij.ss02" horiz-adv-x="560" 
d="M213 548q-34 0 -53.5 20.5t-19.5 52.5q0 45 33.5 77.5t81.5 32.5q34 0 53 -20.5t19 -52.5q0 -45 -33.5 -77.5t-80.5 -32.5zM534 731q34 0 53 -20.5t19 -52.5q0 -45 -33.5 -77.5t-80.5 -32.5q-34 0 -53.5 20.5t-19.5 52.5q0 45 33.5 77.5t81.5 32.5zM283 500l-115 -500
h-170l115 500h170zM392 500h170l-100 -433l-23 -103q-22 -95 -82 -139.5t-165 -44.5h-141l31 132h72q103 0 124 93l16 69z" />
    <glyph glyph-name="iogonek.ss02" horiz-adv-x="281" 
d="M255 731q34 0 53 -20.5t19 -52.5q0 -45 -33.5 -77.5t-80.5 -32.5q-34 0 -53.5 20.5t-19.5 52.5q0 45 33.5 77.5t81.5 32.5zM-2 0l115 500h170l-115 -500q-50 -27 -72.5 -49.5t-22.5 -50.5q0 -43 58 -43h24l-18 -77h-30q-64 0 -95.5 26.5t-31.5 71.5q0 13 3 25t6 21
t11 18.5t13 14.5t16.5 13t15.5 10.5t17.5 10t16.5 9.5h-81z" />
    <glyph glyph-name="j.ss02" horiz-adv-x="281" 
d="M255 731q34 0 53 -20.5t19 -52.5q0 -45 -33.5 -77.5t-80.5 -32.5q-34 0 -53.5 20.5t-19.5 52.5q0 45 33.5 77.5t81.5 32.5zM113 500h170l-100 -433l-23 -103q-22 -95 -82 -139.5t-165 -44.5h-141l31 132h72q103 0 124 93l16 69z" />
    <glyph glyph-name="kcommaaccent.ss02" horiz-adv-x="570" 
d="M616 500l-246 -215l142 -285h-168l-91 183l-66 -58l-29 -125h-161l164 710h161l-86 -374l181 164h199zM227 -50q32 0 49.5 -21.5t17.5 -57.5q0 -79 -58.5 -136.5t-158.5 -65.5l11 51q33 5 60 20.5t35 38.5q-29 1 -44.5 20t-15.5 47q0 42 31 73t73 31z" />
    <glyph glyph-name="lcaron.ss02" horiz-adv-x="282" 
d="M169 0h-172l164 710h172zM483 700q34 0 52 -21t18 -58q0 -80 -61 -137t-168 -65l12 51q35 5 63.5 20.5t36.5 38.5q-31 1 -47 20t-16 47q0 42 33 73t77 31z" />
    <glyph glyph-name="lcommaaccent.ss02" horiz-adv-x="282" 
d="M169 0h-172l164 710h172zM71 -50q32 0 49.5 -21.5t17.5 -57.5q0 -79 -58.5 -136.5t-158.5 -65.5l11 51q33 5 60 20.5t35 38.5q-29 1 -44.5 20t-15.5 47q0 42 31 73t73 31z" />
    <glyph glyph-name="ncommaaccent.ss02" horiz-adv-x="622" 
d="M451 510q80 0 116 -56t9 -173l-65 -281h-170l57 244q17 68 8 98.5t-51 30.5q-48 0 -86 -47t-67 -171l-36 -155h-168l115 500h168l-22 -97q75 107 192 107zM251 -50q32 0 49.5 -21.5t17.5 -57.5q0 -79 -58.5 -136.5t-158.5 -65.5l11 51q33 5 60 20.5t35 38.5
q-29 1 -44.5 20t-15.5 47q0 42 31 73t73 31z" />
    <glyph glyph-name="nine.dnom" horiz-adv-x="354" 
d="M140 118q-49 0 -81.5 30.5t-32.5 81.5q0 60 45.5 97.5t106.5 37.5q141 0 141 -147q0 -109 -55.5 -168.5t-138.5 -59.5q-64 0 -100.5 34.5t-29.5 81.5h81q-3 -44 47 -44q39 0 66.5 26.5t39.5 66.5q-39 -37 -89 -37zM187 293q-26 0 -48.5 -17t-22.5 -47q0 -22 13 -33.5
t31 -11.5q26 0 48 18.5t22 47.5q0 22 -12.5 32.5t-30.5 10.5z" />
    <glyph glyph-name="nine.numr" horiz-adv-x="354" 
d="M219 458q-49 0 -81.5 30.5t-32.5 81.5q0 60 45.5 97.5t106.5 37.5q141 0 141 -147q0 -109 -55.5 -168.5t-138.5 -59.5q-64 0 -100.5 34.5t-29.5 81.5h81q-3 -44 47 -44q39 0 66.5 26.5t39.5 66.5q-39 -37 -89 -37zM266 633q-26 0 -48.5 -17t-22.5 -47q0 -22 13 -33.5
t31 -11.5q26 0 48 18.5t22 47.5q0 22 -12.5 32.5t-30.5 10.5z" />
    <glyph glyph-name="nine.ss07" horiz-adv-x="605" 
d="M358 630q128 0 185.5 -94.5t20.5 -250.5q-19 -82 -54 -142t-79 -92t-89.5 -46.5t-94.5 -14.5q-107 0 -167 58.5t-48 140.5h140q-3 -74 77 -74q60 0 101.5 41.5t62.5 105.5q-61 -54 -143 -54q-81 0 -132.5 50t-51.5 133q0 107 81.5 173t190.5 66zM311 323q40 0 75.5 31
t35.5 80q0 37 -20 54.5t-48 17.5q-39 0 -74.5 -28.5t-35.5 -80.5q0 -38 19.5 -56t47.5 -18z" />
    <glyph glyph-name="nine.tf" horiz-adv-x="670" 
d="M410 710q139 0 201 -100.5t20 -280.5q-79 -339 -341 -339q-123 0 -189 64.5t-53 157.5h148q-2 -42 21 -65.5t69 -23.5q67 0 114 47.5t72 121.5q-61 -56 -152 -56q-93 0 -152.5 57t-59.5 152q0 118 89.5 191.5t212.5 73.5zM353 359q46 0 88 37.5t42 96.5q0 43 -23 64
t-55 21q-46 0 -88 -35t-42 -95q0 -44 23 -66.5t55 -22.5z" />
    <glyph glyph-name="nine.tf.ss07" horiz-adv-x="630" 
d="M369 630q128 0 185.5 -94.5t20.5 -250.5q-19 -82 -54 -142t-79 -92t-89.5 -46.5t-94.5 -14.5q-107 0 -167 58.5t-48 140.5h140q-3 -74 77 -74q60 0 101.5 41.5t62.5 105.5q-61 -54 -143 -54q-81 0 -132.5 50t-51.5 133q0 107 81.5 173t190.5 66zM322 323q40 0 75.5 31
t35.5 80q0 37 -20 54.5t-48 17.5q-39 0 -74.5 -28.5t-35.5 -80.5q0 -38 19.5 -56t47.5 -18z" />
    <glyph glyph-name="odieresis.ss02" horiz-adv-x="584" 
d="M242 554q-29 0 -46 17.5t-17 44.5q0 38 29 66t70 28q29 0 45 -17.5t16 -45.5q0 -38 -28.5 -65.5t-68.5 -27.5zM467 554q-29 0 -46 17.5t-17 44.5q0 38 29 66t70 28q29 0 45 -17.5t16 -45.5q0 -38 -28.5 -65.5t-68.5 -27.5zM248 -10q-108 0 -168 55.5t-60 162.5
q0 135 89.5 218.5t226.5 83.5q108 0 167.5 -56t59.5 -163q0 -135 -89 -218t-226 -83zM267 116q61 0 93 54.5t32 119.5q0 93 -73 93q-58 0 -92.5 -52.5t-34.5 -120.5q0 -94 75 -94z" />
    <glyph glyph-name="one.dnom" horiz-adv-x="309" 
d="M279 360l-83 -360h-95l48 208q-55 -24 -127 -25l19 81q59 0 106 22.5t59 73.5h73z" />
    <glyph glyph-name="one.dnom.ss06" horiz-adv-x="345" 
d="M214 79h71l-18 -79h-266l18 79h100l30 129q-55 -24 -127 -25l19 81q59 0 106 22.5t59 73.5h73z" />
    <glyph glyph-name="one.numr" horiz-adv-x="309" 
d="M358 700l-83 -360h-95l48 208q-55 -24 -127 -25l19 81q59 0 106 22.5t59 73.5h73z" />
    <glyph glyph-name="one.numr.ss06" horiz-adv-x="345" 
d="M293 419h71l-18 -79h-266l18 79h100l30 129q-55 -24 -127 -25l19 81q59 0 106 22.5t59 73.5h73z" />
    <glyph glyph-name="one.ss06" horiz-adv-x="586" 
d="M412 139h131l-32 -139h-481l32 139h172l61 263q-91 -37 -237 -40l34 149q70 1 129.5 16.5t112.5 59.5t69 113h139z" />
    <glyph glyph-name="one.ss07" horiz-adv-x="436" 
d="M461 621l-143 -621h-170l79 346q-78 -30 -192 -33l33 142q42 0 81.5 8.5t77.5 27t65.5 52t37.5 78.5h131z" />
    <glyph glyph-name="one.ss07.ss06" horiz-adv-x="566" 
d="M350 139h130l-32 -139h-464l32 139h164l47 207q-78 -30 -192 -33l33 142q42 0 81.5 8.5t77.5 27t65.5 52t37.5 78.5h131z" />
    <glyph glyph-name="one.tf" horiz-adv-x="670" 
d="M458 139h131l-32 -139h-481l32 139h172l61 263q-91 -37 -237 -40l34 149q70 1 129.5 16.5t112.5 59.5t69 113h139z" />
    <glyph glyph-name="one.tf.ss07" horiz-adv-x="630" 
d="M419 139h130l-32 -139h-464l32 139h164l47 207q-78 -30 -192 -33l33 142q42 0 81.5 8.5t77.5 27t65.5 52t37.5 78.5h131z" />
    <glyph glyph-name="oneeighth.ss03" horiz-adv-x="846" 
d="M14 0l748 700h118l-748 -700h-118zM358 700l-83 -360h-95l48 208q-55 -24 -127 -25l19 81q59 0 106 22.5t59 73.5h73zM751 189q44 -21 44 -68q0 -58 -46 -94.5t-129 -36.5q-65 0 -104.5 25.5t-39.5 66.5q0 76 85 107q-29 19 -29 56q0 56 43.5 88t110.5 32q54 0 91 -22.5
t37 -61.5q0 -60 -63 -92zM680 296q-27 0 -43 -13t-16 -35q0 -29 39 -39q10 2 20 4.5t26 16.5t16 34q0 32 -42 32zM626 62q34 0 56 15t22 40q0 9 -4 16t-9.5 11t-13 7.5t-13 4.5t-10.5 2l-5 1l-4 -1q-4 0 -8 -1t-10.5 -2.5t-12.5 -3.5t-12.5 -5.5t-12 -7.5t-10 -9.5t-7 -12.5
t-2.5 -15q0 -18 15 -28.5t41 -10.5z" />
    <glyph glyph-name="oneeighth.ss06" horiz-adv-x="902" 
d="M46 0l748 700h118l-748 -700h-118zM293 419h71l-18 -79h-266l18 79h100l30 129q-55 -24 -127 -25l19 81q59 0 106 22.5t59 73.5h73zM796 163q35 -21 35 -66q0 -50 -44 -78.5t-108 -28.5q-58 0 -94 24.5t-36 67.5q0 53 64 87q-46 23 -46 72q0 55 46 89.5t125 34.5
q69 0 108.5 -26.5t39.5 -71.5q0 -36 -25 -63t-65 -41zM736 293q-33 0 -55.5 -15t-22.5 -39q0 -10 5 -18t13 -12.5t15 -7t15 -3.5l7 -2h4l8 2t10.5 2.5t12.5 3.5t12.5 5t12 7.5t10 9.5t7 12t2.5 15q0 40 -56 40zM640 91q0 -32 42 -32q27 0 43.5 13t16.5 34q0 29 -40 40
q-28 -5 -45 -19.5t-17 -35.5z" />
    <glyph glyph-name="oneeighth.ss06.ss03" horiz-adv-x="878" 
d="M46 0l748 700h118l-748 -700h-118zM293 419h71l-18 -79h-266l18 79h100l30 129q-55 -24 -127 -25l19 81q59 0 106 22.5t59 73.5h73zM783 189q44 -21 44 -68q0 -58 -46 -94.5t-129 -36.5q-65 0 -104.5 25.5t-39.5 66.5q0 76 85 107q-29 19 -29 56q0 56 43.5 88t110.5 32
q54 0 91 -22.5t37 -61.5q0 -60 -63 -92zM712 296q-27 0 -43 -13t-16 -35q0 -29 39 -39q10 2 20 4.5t26 16.5t16 34q0 32 -42 32zM658 62q34 0 56 15t22 40q0 9 -4 16t-9.5 11t-13 7.5t-13 4.5t-10.5 2l-5 1l-4 -1q-4 0 -8 -1t-10.5 -2.5t-12.5 -3.5t-12.5 -5.5t-12 -7.5
t-10 -9.5t-7 -12.5t-2.5 -15q0 -18 15 -28.5t41 -10.5z" />
    <glyph glyph-name="onehalf.ss06" horiz-adv-x="880" 
d="M46 0l748 700h118l-748 -700h-118zM293 419h71l-18 -79h-266l18 79h100l30 129q-55 -24 -127 -25l19 81q59 0 106 22.5t59 73.5h73zM781 0h-284l13 56l91 56q78 49 107.5 77t29.5 63t-29 35q-48 0 -68 -84h-92q16 75 57.5 118.5t109.5 43.5q55 0 87 -28t32 -78
q0 -46 -29 -82t-90 -77l-39 -26h121z" />
    <glyph glyph-name="onequarter.ss06" horiz-adv-x="820" 
d="M46 0l748 700h118l-748 -700h-118zM293 419h71l-18 -79h-266l18 79h100l30 129q-55 -24 -127 -25l19 81q59 0 106 22.5t59 73.5h73zM778 142l-17 -73h-56l-16 -69h-87l16 69h-173l12 54l209 237h106l-50 -218h56zM562 142h73l26 115z" />
    <glyph glyph-name="parenleft.case" horiz-adv-x="341" 
d="M386 880l73 -79q-131 -132 -201 -273t-70 -315q0 -194 68 -333l-99 -60q-40 59 -79.5 177t-39.5 241q0 78 18.5 155t51 140.5t68 118t78.5 101t72.5 74.5t59.5 53z" />
    <glyph glyph-name="parenright.case" horiz-adv-x="343" 
d="M2 -180l-73 79q131 132 201 273t70 315q0 194 -68 333l99 60q40 -59 79.5 -177t39.5 -241q0 -78 -18.5 -155t-51 -140.5t-68 -118t-78.5 -101t-72.5 -74.5t-59.5 -53z" />
    <glyph glyph-name="percent.ss07" horiz-adv-x="860" 
d="M223 310q-62 0 -100.5 39t-38.5 98q0 75 59.5 129t134.5 54q62 0 100.5 -39t38.5 -98q0 -75 -59.5 -129t-134.5 -54zM72 0l603 620h145l-603 -620h-145zM240 421q23 0 40 18t17 42q0 17 -9.5 27.5t-26.5 10.5q-23 0 -40 -18t-17 -42q0 -17 9.5 -27.5t26.5 -10.5zM611 -10
q-62 0 -100.5 39t-38.5 98q0 75 59.5 129t134.5 54q62 0 100.5 -39t38.5 -98q0 -75 -59.5 -129t-134.5 -54zM628 101q23 0 40 18t17 42q0 17 -9.5 27.5t-26.5 10.5q-23 0 -40 -18t-17 -42q0 -17 9.5 -27.5t26.5 -10.5z" />
    <glyph glyph-name="period.ss02" horiz-adv-x="290" 
d="M85 -10q-36 0 -56 21.5t-20 54.5q0 46 35 80t85 34q35 0 55 -21.5t20 -54.5q0 -46 -35 -80t-84 -34z" />
    <glyph glyph-name="periodcentered.case" horiz-adv-x="242" 
d="M44 310l39 170h182l-39 -170h-182z" />
    <glyph glyph-name="periodcentered.case.ss02" horiz-adv-x="252" 
d="M138 300q-36 0 -56 21.5t-20 54.5q0 46 35 80t85 34q35 0 55 -21.5t20 -54.5q0 -46 -35 -80t-84 -34z" />
    <glyph glyph-name="periodcentered.ss02" horiz-adv-x="251" 
d="M125 246q-36 0 -56 21.5t-20 54.5q0 46 35 80t85 34q35 0 55 -21.5t20 -54.5q0 -46 -35 -80t-84 -34z" />
    <glyph glyph-name="perthousand.ss07" horiz-adv-x="1218" 
d="M223 310q-62 0 -100.5 39t-38.5 98q0 75 59.5 129t134.5 54q62 0 100.5 -39t38.5 -98q0 -75 -59.5 -129t-134.5 -54zM72 0l603 620h145l-603 -620h-145zM240 421q23 0 40 18t17 42q0 17 -9.5 27.5t-26.5 10.5q-23 0 -40 -18t-17 -42q0 -17 9.5 -27.5t26.5 -10.5zM611 -10
q-62 0 -100.5 39t-38.5 98q0 75 59.5 129t134.5 54q62 0 100.5 -39t38.5 -98q0 -75 -59.5 -129t-134.5 -54zM979 -10q-62 0 -100.5 39t-38.5 98q0 75 59.5 129t134.5 54q62 0 100.5 -39t38.5 -98q0 -75 -59.5 -129t-134.5 -54zM628 101q23 0 40 18t17 42q0 17 -9.5 27.5
t-26.5 10.5q-23 0 -40 -18t-17 -42q0 -17 9.5 -27.5t26.5 -10.5zM996 101q23 0 40 18t17 42q0 17 -9.5 27.5t-26.5 10.5q-23 0 -40 -18t-17 -42q0 -17 9.5 -27.5t26.5 -10.5z" />
    <glyph glyph-name="question.ss02" horiz-adv-x="528" 
d="M353 710q99 0 155.5 -45.5t56.5 -126.5q0 -50 -23 -86t-57 -56.5t-69.5 -39t-64 -46.5t-36.5 -66l-1 -5h-152l5 21q13 54 41.5 92t59.5 57.5t61 35t49 34.5t19 46q0 51 -54 51q-36 0 -66.5 -26.5t-44.5 -89.5h-156q44 250 277 250zM181 -10q-36 0 -56 21.5t-20 54.5
q0 46 35 80t85 34q35 0 55 -21.5t20 -54.5q0 -46 -35 -80t-84 -34z" />
    <glyph glyph-name="questiondown.case" horiz-adv-x="518" 
d="M254 530l39 170h182l-39 -170h-182zM214 -9q-99 0 -155.5 45.5t-56.5 126.5q0 50 23 86t57 56.5t69.5 39t64 46.5t36.5 66l1 5h152l-5 -21q-13 -54 -41.5 -92t-59.5 -57.5t-61 -35t-49 -34.5t-19 -46q0 -51 54 -51q36 0 66.5 26.5t44.5 89.5h156q-44 -250 -277 -250z" />
    <glyph glyph-name="questiondown.case.ss02" horiz-adv-x="518" 
d="M343 520q-36 0 -56 21.5t-20 54.5q0 46 35 80t85 34q35 0 55 -21.5t20 -54.5q0 -46 -35 -80t-84 -34zM214 -9q-99 0 -155.5 45.5t-56.5 126.5q0 50 23 86t57 56.5t69.5 39t64 46.5t36.5 66l1 5h152l-5 -21q-13 -54 -41.5 -92t-59.5 -57.5t-61 -35t-49 -34.5t-19 -46
q0 -51 54 -51q36 0 66.5 26.5t44.5 89.5h156q-44 -250 -277 -250z" />
    <glyph glyph-name="questiondown.ss02" horiz-adv-x="476" 
d="M277 300q-36 0 -56 21.5t-20 54.5q0 46 35 80t85 34q35 0 55 -21.5t20 -54.5q0 -46 -35 -80t-84 -34zM148 -229q-99 0 -155.5 45.5t-56.5 126.5q0 50 23 86t57 56.5t69.5 39t64 46.5t36.5 66l1 5h152l-5 -21q-13 -54 -41.5 -92t-59.5 -57.5t-61 -35t-49 -34.5t-19 -46
q0 -51 54 -51q36 0 66.5 26.5t44.5 89.5h156q-44 -250 -277 -250z" />
    <glyph glyph-name="quotedbl.ss02" horiz-adv-x="381" 
d="M84 420l17 173q6 58 33 87.5t65 29.5t51 -28t-7 -89l-63 -173h-96zM279 420l17 173q6 58 33 87.5t65 29.5t51 -28t-7 -89l-63 -173h-96z" />
    <glyph glyph-name="quotedblbase.ss02" horiz-adv-x="496" 
d="M112 187q38 0 58 -26.5t20 -74.5q0 -86 -64.5 -152t-175.5 -71l14 58q85 10 104 69q-31 1 -48 24t-17 54q0 49 33 84t76 35zM335 187q38 0 58 -26.5t20 -74.5q0 -86 -64.5 -152t-175.5 -71l14 58q85 10 104 69q-31 1 -48 24t-17 54q0 49 33 84t76 35z" />
    <glyph glyph-name="quotedblleft.ss02" horiz-adv-x="496" 
d="M177 387q-38 0 -58 26.5t-20 74.5q0 86 64.5 152t175.5 71l-14 -58q-85 -10 -104 -69q31 -1 48 -24t17 -54q0 -49 -33 -84t-76 -35zM400 387q-38 0 -58 26.5t-20 74.5q0 86 64.5 152t175.5 71l-14 -58q-85 -10 -104 -69q31 -1 48 -24t17 -54q0 -49 -33 -84t-76 -35z" />
    <glyph glyph-name="quotedblright.ss02" horiz-adv-x="496" 
d="M233 710q38 0 58 -26.5t20 -74.5q0 -86 -64.5 -152t-175.5 -71l14 58q85 10 104 69q-31 1 -48 24t-17 54q0 49 33 84t76 35zM456 710q38 0 58 -26.5t20 -74.5q0 -86 -64.5 -152t-175.5 -71l14 58q85 10 104 69q-31 1 -48 24t-17 54q0 49 33 84t76 35z" />
    <glyph glyph-name="quoteleft.ss02" horiz-adv-x="273" 
d="M177 387q-38 0 -58 26.5t-20 74.5q0 86 64.5 152t175.5 71l-14 -58q-85 -10 -104 -69q31 -1 48 -24t17 -54q0 -49 -33 -84t-76 -35z" />
    <glyph glyph-name="quoteright.ss02" horiz-adv-x="273" 
d="M233 710q38 0 58 -26.5t20 -74.5q0 -86 -64.5 -152t-175.5 -71l14 58q85 10 104 69q-31 1 -48 24t-17 54q0 49 33 84t76 35z" />
    <glyph glyph-name="quotesinglbase.ss02" horiz-adv-x="273" 
d="M112 187q38 0 58 -26.5t20 -74.5q0 -86 -64.5 -152t-175.5 -71l14 58q85 10 104 69q-31 1 -48 24t-17 54q0 49 33 84t76 35z" />
    <glyph glyph-name="quotesingle.ss02" horiz-adv-x="186" 
d="M84 420l17 173q6 58 33 87.5t65 29.5t51 -28t-7 -89l-63 -173h-96z" />
    <glyph glyph-name="rcommaaccent.ss02" horiz-adv-x="468" 
d="M431 500h81l-32 -142h-65q-42 0 -67.5 -5t-54.5 -23t-49.5 -58.5t-36.5 -105.5l-38 -166h-171l115 500h171l-22 -96q53 96 169 96zM72 -50q32 0 49.5 -21.5t17.5 -57.5q0 -79 -58.5 -136.5t-158.5 -65.5l11 51q33 5 60 20.5t35 38.5q-29 1 -44.5 20t-15.5 47q0 42 31 73
t73 31z" />
    <glyph glyph-name="s.ss03" horiz-adv-x="528" 
d="M352 333q2 31 -13.5 47t-50.5 16q-29 0 -46.5 -11t-17.5 -31q0 -5 1 -9.5t4 -8.5t6 -6.5t9 -5t10 -4t12 -3.5t13.5 -3.5t15.5 -3.5t16 -3q79 -17 123.5 -50.5t44.5 -97.5q0 -77 -66 -123t-179 -46q-122 0 -180.5 52.5t-49.5 134.5h158q-4 -33 17 -48.5t59 -15.5
q72 0 72 43q0 26 -77 41q-5 1 -8 2q-39 8 -63 16t-51 22.5t-40 38.5t-13 58q0 76 66 126t175 50q102 0 158.5 -46t44.5 -131h-150z" />
    <glyph glyph-name="sacute.ss03" horiz-adv-x="528" 
d="M365 700h183l-180 -145h-133zM352 333q2 31 -13.5 47t-50.5 16q-29 0 -46.5 -11t-17.5 -31q0 -5 1 -9.5t4 -8.5t6 -6.5t9 -5t10 -4t12 -3.5t13.5 -3.5t15.5 -3.5t16 -3q79 -17 123.5 -50.5t44.5 -97.5q0 -77 -66 -123t-179 -46q-122 0 -180.5 52.5t-49.5 134.5h158
q-4 -33 17 -48.5t59 -15.5q72 0 72 43q0 26 -77 41q-5 1 -8 2q-39 8 -63 16t-51 22.5t-40 38.5t-13 58q0 76 66 126t175 50q102 0 158.5 -46t44.5 -131h-150z" />
    <glyph glyph-name="scaron.ss03" horiz-adv-x="528" 
d="M399 700h127l-143 -135h-124l-79 135h121l34 -61zM352 333q2 31 -13.5 47t-50.5 16q-29 0 -46.5 -11t-17.5 -31q0 -5 1 -9.5t4 -8.5t6 -6.5t9 -5t10 -4t12 -3.5t13.5 -3.5t15.5 -3.5t16 -3q79 -17 123.5 -50.5t44.5 -97.5q0 -77 -66 -123t-179 -46q-122 0 -180.5 52.5
t-49.5 134.5h158q-4 -33 17 -48.5t59 -15.5q72 0 72 43q0 26 -77 41q-5 1 -8 2q-39 8 -63 16t-51 22.5t-40 38.5t-13 58q0 76 66 126t175 50q102 0 158.5 -46t44.5 -131h-150z" />
    <glyph glyph-name="scedilla.ss03" horiz-adv-x="528" 
d="M502 333h-150q2 31 -13.5 47t-50.5 16q-29 0 -46.5 -11t-17.5 -31q0 -5 1 -9.5t4 -8.5t6 -6.5t9 -5t10 -4t12 -3.5t13.5 -3.5t15.5 -3.5t16 -3q79 -17 123.5 -50.5t44.5 -97.5q0 -74 -60.5 -119.5t-165.5 -49.5q35 -37 35 -83q0 -127 -179 -127h-43l18 77h37
q42 0 62.5 19.5t20.5 47.5q0 37 -46 72q-84 16 -123 64.5t-31 116.5h158q-4 -33 17 -48.5t59 -15.5q72 0 72 43q0 26 -77 41q-5 1 -8 2q-39 8 -63 16t-51 22.5t-40 38.5t-13 58q0 76 66 126t175 50q102 0 158.5 -46t44.5 -131z" />
    <glyph glyph-name="scircumflex.ss03" horiz-adv-x="528" 
d="M497 565h-121l-34 61l-64 -61h-127l143 135h124zM352 333q2 31 -13.5 47t-50.5 16q-29 0 -46.5 -11t-17.5 -31q0 -5 1 -9.5t4 -8.5t6 -6.5t9 -5t10 -4t12 -3.5t13.5 -3.5t15.5 -3.5t16 -3q79 -17 123.5 -50.5t44.5 -97.5q0 -77 -66 -123t-179 -46q-122 0 -180.5 52.5
t-49.5 134.5h158q-4 -33 17 -48.5t59 -15.5q72 0 72 43q0 26 -77 41q-5 1 -8 2q-39 8 -63 16t-51 22.5t-40 38.5t-13 58q0 76 66 126t175 50q102 0 158.5 -46t44.5 -131h-150z" />
    <glyph glyph-name="scommaaccent.ss02" horiz-adv-x="528" 
d="M177 167q-7 -63 60 -63q57 0 57 39q0 20 -17 29t-68 22q-82 21 -125 52.5t-43 93.5q0 78 66.5 124t176.5 46q120 0 180 -53.5t52 -133.5h-151q1 30 -22.5 47t-62.5 17q-30 0 -51.5 -10t-21.5 -31q0 -10 5 -16.5t19.5 -12t25.5 -8.5t37 -9q78 -18 121 -49.5t43 -97.5
q0 -79 -62 -121t-159 -42q-109 0 -168.5 51t-47.5 126h156zM206 -50q32 0 49.5 -21.5t17.5 -57.5q0 -79 -58.5 -136.5t-158.5 -65.5l11 51q33 5 60 20.5t35 38.5q-29 1 -44.5 20t-15.5 47q0 42 31 73t73 31z" />
    <glyph glyph-name="scommaaccent.ss03" horiz-adv-x="528" 
d="M502 333h-150q2 31 -13.5 47t-50.5 16q-29 0 -46.5 -11t-17.5 -31q0 -5 1 -9.5t4 -8.5t6 -6.5t9 -5t10 -4t12 -3.5t13.5 -3.5t15.5 -3.5t16 -3q79 -17 123.5 -50.5t44.5 -97.5q0 -77 -66 -123t-179 -46q-122 0 -180.5 52.5t-49.5 134.5h158q-4 -33 17 -48.5t59 -15.5
q72 0 72 43q0 26 -77 41q-5 1 -8 2q-39 8 -63 16t-51 22.5t-40 38.5t-13 58q0 76 66 126t175 50q102 0 158.5 -46t44.5 -131zM100 -196l32 136h145l-19 -83q-21 -92 -66.5 -130t-135.5 -42l13 57q43 0 65.5 19.5t27.5 42.5h-62z" />
    <glyph glyph-name="scommaaccent.ss03.ss02" horiz-adv-x="528" 
d="M352 333q2 31 -13.5 47t-50.5 16q-29 0 -46.5 -11t-17.5 -31q0 -5 1 -9.5t4 -8.5t6 -6.5t9 -5t10 -4t12 -3.5t13.5 -3.5t15.5 -3.5t16 -3q79 -17 123.5 -50.5t44.5 -97.5q0 -77 -66 -123t-179 -46q-122 0 -180.5 52.5t-49.5 134.5h158q-4 -33 17 -48.5t59 -15.5
q72 0 72 43q0 26 -77 41q-5 1 -8 2q-39 8 -63 16t-51 22.5t-40 38.5t-13 58q0 76 66 126t175 50q102 0 158.5 -46t44.5 -131h-150zM206 -50q32 0 49.5 -21.5t17.5 -57.5q0 -79 -58.5 -136.5t-158.5 -65.5l11 51q33 5 60 20.5t35 38.5q-29 1 -44.5 20t-15.5 47q0 42 31 73
t73 31z" />
    <glyph glyph-name="semicolon.ss02" horiz-adv-x="288" 
d="M159 320q-36 0 -56 21.5t-20 54.5q0 46 35 80t85 34q35 0 55 -21.5t20 -54.5q0 -46 -35 -80t-84 -34zM119 180q36 0 55 -23.5t19 -64.5q0 -88 -64.5 -151.5t-176.5 -72.5l12 56q37 6 67.5 23t38.5 43q-33 1 -50 22t-17 52q0 47 34.5 81.5t81.5 34.5z" />
    <glyph glyph-name="seven.dnom" horiz-adv-x="318" 
d="M46 360h281l-12 -54l-228 -306h-108l209 280h-160z" />
    <glyph glyph-name="seven.dnom.ss06" horiz-adv-x="319" 
d="M328 360l-12 -54l-228 -306h-108l209 280h-77l-11 -45h-83l29 125h281z" />
    <glyph glyph-name="seven.numr" horiz-adv-x="318" 
d="M125 700h281l-12 -54l-228 -306h-108l209 280h-160z" />
    <glyph glyph-name="seven.numr.ss06" horiz-adv-x="319" 
d="M407 700l-12 -54l-228 -306h-108l209 280h-77l-11 -45h-83l29 125h281z" />
    <glyph glyph-name="seven.ss06" horiz-adv-x="628" 
d="M690 700l-24 -101l-445 -599h-205l411 552h-151l-20 -87h-159l20 87l35 148h538z" />
    <glyph glyph-name="seven.ss07" horiz-adv-x="574" 
d="M128 621h494l-21 -94l-401 -527h-187l368 482h-285z" />
    <glyph glyph-name="seven.ss07.ss06" horiz-adv-x="574" 
d="M128 621h494l-21 -94l-401 -527h-187l368 482h-139l-17 -73h-146l22 97z" />
    <glyph glyph-name="seven.tf" horiz-adv-x="670" 
d="M168 700h538l-24 -101l-445 -599h-205l411 552h-310z" />
    <glyph glyph-name="seven.tf.ss06" horiz-adv-x="628" 
d="M690 700l-24 -101l-445 -599h-205l411 552h-151l-20 -87h-159l20 87l35 148h538z" />
    <glyph glyph-name="seven.tf.ss07" horiz-adv-x="630" 
d="M152 621h494l-21 -94l-401 -527h-187l368 482h-285z" />
    <glyph glyph-name="seven.tf.ss07.ss06" horiz-adv-x="630" 
d="M152 621h494l-21 -94l-401 -527h-187l368 482h-139l-17 -73h-146l22 97z" />
    <glyph glyph-name="seveneighths.ss03" horiz-adv-x="762" 
d="M-70 0l748 700h118l-748 -700h-118zM125 700h281l-12 -54l-228 -306h-108l209 280h-160zM667 189q44 -21 44 -68q0 -58 -46 -94.5t-129 -36.5q-65 0 -104.5 25.5t-39.5 66.5q0 76 85 107q-29 19 -29 56q0 56 43.5 88t110.5 32q54 0 91 -22.5t37 -61.5q0 -60 -63 -92z
M596 296q-27 0 -43 -13t-16 -35q0 -29 39 -39q10 2 20 4.5t26 16.5t16 34q0 32 -42 32zM542 62q34 0 56 15t22 40q0 9 -4 16t-9.5 11t-13 7.5t-13 4.5t-10.5 2l-5 1l-4 -1q-4 0 -8 -1t-10.5 -2.5t-12.5 -3.5t-12.5 -5.5t-12 -7.5t-10 -9.5t-7 -12.5t-2.5 -15q0 -18 15 -28.5
t41 -10.5z" />
    <glyph glyph-name="seveneighths.ss06" horiz-adv-x="787" 
d="M-69 0l748 700h118l-748 -700h-118zM407 700l-12 -54l-228 -306h-108l209 280h-77l-11 -45h-83l29 125h281zM681 163q35 -21 35 -66q0 -50 -44 -78.5t-108 -28.5q-58 0 -94 24.5t-36 67.5q0 53 64 87q-46 23 -46 72q0 55 46 89.5t125 34.5q69 0 108.5 -26.5t39.5 -71.5
q0 -36 -25 -63t-65 -41zM621 293q-33 0 -55.5 -15t-22.5 -39q0 -10 5 -18t13 -12.5t15 -7t14 -3.5l8 -2h4l8 2t10.5 2.5t12.5 3.5t12.5 5t12 7.5t10 9.5t7 12t2.5 15q0 40 -56 40zM525 91q0 -32 42 -32q27 0 43.5 13t16.5 34q0 29 -40 40q-28 -5 -45 -19.5t-17 -35.5z" />
    <glyph glyph-name="seveneighths.ss06.ss03" horiz-adv-x="763" 
d="M-69 0l748 700h118l-748 -700h-118zM407 700l-12 -54l-228 -306h-108l209 280h-77l-11 -45h-83l29 125h281zM668 189q44 -21 44 -68q0 -58 -46 -94.5t-129 -36.5q-65 0 -104.5 25.5t-39.5 66.5q0 76 85 107q-29 19 -29 56q0 56 43.5 88t110.5 32q54 0 91 -22.5t37 -61.5
q0 -60 -63 -92zM597 296q-27 0 -43 -13t-16 -35q0 -29 39 -39q10 2 20 4.5t26 16.5t16 34q0 32 -42 32zM543 62q34 0 56 15t22 40q0 9 -4 16t-9.5 11t-13 7.5t-13 4.5t-10.5 2l-5 1l-4 -1q-4 0 -8 -1t-10.5 -2.5t-12.5 -3.5t-12.5 -5.5t-12 -7.5t-10 -9.5t-7 -12.5t-2.5 -15
q0 -18 15 -28.5t41 -10.5z" />
    <glyph glyph-name="six.dnom" horiz-adv-x="345" 
d="M180 237q49 0 81.5 -30.5t32.5 -81.5q0 -60 -45.5 -97.5t-106.5 -37.5q-141 0 -141 147q0 109 55.5 168.5t138.5 59.5q64 0 100.5 -34.5t29.5 -81.5h-81q3 44 -47 44q-39 0 -66.5 -26.5t-39.5 -66.5q39 37 89 37zM133 62q26 0 48.5 17t22.5 47q0 22 -13 33.5t-31 11.5
q-26 0 -48 -18.5t-22 -47.5q0 -22 12.5 -32.5t30.5 -10.5z" />
    <glyph glyph-name="six.numr" horiz-adv-x="345" 
d="M259 577q49 0 81.5 -30.5t32.5 -81.5q0 -60 -45.5 -97.5t-106.5 -37.5q-141 0 -141 147q0 109 55.5 168.5t138.5 59.5q64 0 100.5 -34.5t29.5 -81.5h-81q3 44 -47 44q-39 0 -66.5 -26.5t-39.5 -66.5q39 37 89 37zM212 402q26 0 48.5 17t22.5 47q0 22 -13 33.5t-31 11.5
q-26 0 -48 -18.5t-22 -47.5q0 -22 12.5 -32.5t30.5 -10.5z" />
    <glyph glyph-name="six.ss07" horiz-adv-x="587" 
d="M592 431h-140q3 74 -77 74q-60 0 -101.5 -41.5t-62.5 -105.5q61 54 143 54q81 0 132.5 -50t51.5 -133q0 -107 -81.5 -173t-190.5 -66q-128 0 -185.5 94.5t-20.5 250.5q19 82 54 142t79 92t89.5 46.5t94.5 14.5q107 0 167 -58.5t48 -140.5zM313 297q-40 0 -75.5 -31
t-35.5 -80q0 -37 20 -54.5t48 -17.5q39 0 74.5 28.5t35.5 80.5q0 38 -19.5 56t-47.5 18z" />
    <glyph glyph-name="six.tf" horiz-adv-x="670" 
d="M667 488h-148q2 42 -21 65.5t-69 23.5q-67 0 -114 -47.5t-72 -121.5q61 56 152 56q93 0 152.5 -57t59.5 -152q0 -118 -89.5 -191.5t-212.5 -73.5q-139 0 -201 100.5t-20 280.5q79 339 341 339q123 0 189 -64.5t53 -157.5zM362 341q-46 0 -88 -37.5t-42 -96.5
q0 -43 23 -64t55 -21q46 0 88 35t42 95q0 44 -23 66.5t-55 22.5z" />
    <glyph glyph-name="six.tf.ss07" horiz-adv-x="630" 
d="M612 431h-140q3 74 -77 74q-60 0 -101.5 -41.5t-62.5 -105.5q61 54 143 54q81 0 132.5 -50t51.5 -133q0 -107 -81.5 -173t-190.5 -66q-128 0 -185.5 94.5t-20.5 250.5q19 82 54 142t79 92t89.5 46.5t94.5 14.5q107 0 167 -58.5t48 -140.5zM333 297q-40 0 -75.5 -31
t-35.5 -80q0 -37 20 -54.5t48 -17.5q39 0 74.5 28.5t35.5 80.5q0 38 -19.5 56t-47.5 18z" />
    <glyph glyph-name="sterling.ss07" horiz-adv-x="595" 
d="M575 396l-132 1q20 114 -76 114q-52 0 -75.5 -27t-23.5 -59q0 -20 9.5 -37.5t30 -41t28.5 -34.5h161l-22 -94h-108q0 -64 -49 -101h196l-27 -117h-475l22 94q99 6 147.5 31.5t48.5 80.5q0 8 -1 12h-161l22 94h87q-47 57 -47 122q0 90 64.5 142.5t163.5 52.5
q110 0 174.5 -62.5t42.5 -170.5z" />
    <glyph glyph-name="tcaron.ss02" horiz-adv-x="433" 
d="M513 710q34 0 52 -21t18 -58q0 -80 -61 -137t-168 -65l12 51q35 5 63.5 20.5t36.5 38.5q-31 1 -47 20t-16 47q0 42 33 73t77 31zM245 213q-9 -38 6 -60.5t56 -22.5h63l-30 -130h-117q-84 0 -128.5 52t-22.5 145l43 188h-91l26 115h92l25 110l177 30l-54 -234l-5 -21z" />
    <glyph glyph-name="three.dnom" horiz-adv-x="360" 
d="M244 165q38 -16 38 -68q0 -43 -36.5 -75t-106.5 -32q-76 0 -108.5 37t-21.5 89h95q-9 -49 36 -49q23 0 38 12.5t15 29.5q0 31 -50 31h-18l14 59h33q28 0 45 14t17 37q0 36 -43 36q-60 0 -79 -64h-92q42 139 176 139q64 0 99 -27t35 -74q0 -71 -86 -95z" />
    <glyph glyph-name="three.dnom.ss03" horiz-adv-x="360" 
d="M250 188q47 -16 47 -64q0 -59 -43.5 -96.5t-121.5 -37.5t-110.5 39.5t-22.5 99.5h92q-10 -64 49 -64q27 0 45.5 14t18.5 39q0 34 -43 34h-33l14 59h23q30 0 45.5 13t15.5 31q0 29 -36 29q-45 0 -59 -49h-95q36 126 167 126q56 0 87.5 -23.5t31.5 -57.5q0 -66 -72 -92z
" />
    <glyph glyph-name="three.numr" horiz-adv-x="360" 
d="M323 505q38 -16 38 -68q0 -43 -36.5 -75t-106.5 -32q-76 0 -108.5 37t-21.5 89h95q-9 -49 36 -49q23 0 38 12.5t15 29.5q0 31 -50 31h-18l14 59h33q28 0 45 14t17 37q0 36 -43 36q-60 0 -79 -64h-92q42 139 176 139q64 0 99 -27t35 -74q0 -71 -86 -95z" />
    <glyph glyph-name="three.numr.ss03" horiz-adv-x="360" 
d="M329 528q47 -16 47 -64q0 -59 -43.5 -96.5t-121.5 -37.5t-110.5 39.5t-22.5 99.5h92q-10 -64 49 -64q27 0 45.5 14t18.5 39q0 34 -43 34h-33l14 59h23q30 0 45.5 13t15.5 31q0 29 -36 29q-45 0 -59 -49h-95q36 126 167 126q56 0 87.5 -23.5t31.5 -57.5q0 -66 -72 -92z
" />
    <glyph glyph-name="three.ss03" horiz-adv-x="636" 
d="M640 535q0 -60 -38 -103.5t-104 -62.5q91 -41 91 -146q0 -102 -79.5 -167.5t-217.5 -65.5q-77 0 -133.5 22.5t-84 59.5t-39 85t0.5 99h168q-11 -62 14.5 -95t78.5 -33q50 0 85 27.5t35 74.5q0 76 -98 76h-42l20 85l6 25h42q58 0 88 27t30 64q0 28 -17 45t-50 17
q-83 0 -111 -99h-175q67 240 302 240q112 0 170 -50.5t58 -124.5z" />
    <glyph glyph-name="three.ss07" horiz-adv-x="594" 
d="M596 453q0 -64 -40.5 -105.5t-110.5 -60.5q68 -32 68 -113q0 -77 -65.5 -130.5t-181.5 -53.5q-55 0 -97.5 13.5t-66 35.5t-38.5 50.5t-15.5 58.5t2.5 59h165q-16 -84 57 -84q38 0 61.5 21.5t23.5 50.5q0 53 -72 53h-37l9 39l14 64h57q45 0 72.5 21.5t27.5 60.5
q0 66 -72 66q-42 0 -77 -27t-50 -83h-159q70 240 295 240q109 0 169.5 -49t60.5 -127z" />
    </font>
</defs>
</svg>
