<?xml version="1.0" standalone="no"?>
<!DOCTYPE svg PUBLIC "-//W3C//DTD SVG 1.1//EN" "http://www.w3.org/Graphics/SVG/1.1/DTD/svg11.dtd" >
<svg xmlns="http://www.w3.org/2000/svg" xmlns:xlink="http://www.w3.org/1999/xlink" version="1.1">
<metadata>
Created by FontForge 20170731 at Tue Jan 24 14:25:48 2017
 By Aleksey,,,
(c) TIGHTYPE 2016
</metadata>
<defs>
<font id="Sneak-Light" horiz-adv-x="565" >
  <font-face 
    font-family="Sneak Light"
    font-weight="300"
    font-stretch="normal"
    units-per-em="1000"
    panose-1="0 0 4 0 0 0 0 0 0 0"
    ascent="800"
    descent="-200"
    x-height="500"
    cap-height="700"
    bbox="-250 -265 2137 936"
    underline-thickness="50"
    underline-position="-200"
    unicode-range="U+000D-27FC"
  />
<missing-glyph horiz-adv-x="854" 
d="M787 350q0 -150 -105 -255t-255 -105t-255 106t-105 254q0 149 105.5 254.5t254.5 105.5q151 0 255.5 -105.5t104.5 -254.5zM239 533v-45h44v-128h46v128h44v45h-134zM481 533v-45h45v-128h45v128h45v45h-135zM427 81q109 0 187 76t81 183l-46 8q0 -92 -65 -156.5
t-157 -64.5q-91 0 -156 64.5t-65 156.5l-46 -8q3 -107 81 -183t186 -76z" />
    <glyph glyph-name="f_f.liga" unicode="ff" horiz-adv-x="672" 
d="M590 648q-86 0 -86 -109v-39h120v-52h-120v-448h-60v448h-250v-448h-60v448h-90v52h90v50q0 70 36.5 110t101.5 40h63v-52h-55q-86 0 -86 -109v-39h250v50q0 70 36.5 110t101.5 40h63v-52h-55z" />
    <glyph glyph-name="f_f_i.liga" unicode="ffi" horiz-adv-x="887" 
d="M807 500v-500h-60v448h-243v-448h-60v448h-250v-448h-60v448h-90v52h90v50q0 70 36.5 110t101.5 40h63v-52h-55q-86 0 -86 -109v-39h250v50q0 70 36.5 110t101.5 40h63v-52h-55q-86 0 -86 -109v-39h303zM739 674h76v-78h-76v78z" />
    <glyph glyph-name="f_f_j.liga" unicode="ffj" horiz-adv-x="887" 
d="M807 500v-574q0 -68 -38 -107t-108 -39h-69v52h61q95 0 94 104v512h-243v-448h-60v448h-250v-448h-60v448h-90v52h90v50q0 70 36.5 110t101.5 40h63v-52h-55q-86 0 -86 -109v-39h250v50q0 70 36.5 110t101.5 40h63v-52h-55q-86 0 -86 -109v-39h303zM739 674h76v-78h-76
v78z" />
    <glyph glyph-name="f_f_l.liga" unicode="ffl" horiz-adv-x="893" 
d="M753 710h60v-710h-60v448h-249v-448h-60v448h-250v-448h-60v448h-90v52h90v50q0 70 36.5 110t101.5 40h63v-52h-55q-86 0 -86 -109v-39h250v50q0 70 36.5 110t101.5 40h63v-52h-55q-86 0 -86 -109v-39h249v210z" />
    <glyph glyph-name="f_i.liga" unicode="fi" horiz-adv-x="581" 
d="M501 500v-500h-60v448h-247v-448h-60v448h-90v52h90v50q0 70 36.5 110t101.5 40h63v-52h-55q-86 0 -86 -109v-39h307zM433 674h76v-78h-76v78z" />
    <glyph glyph-name="f_j.liga" unicode="fj" horiz-adv-x="575" 
d="M495 500v-574q0 -68 -38 -107t-108 -39h-69v52h61q95 0 94 104v512h-241v-448h-60v448h-90v52h90v50q0 70 36.5 110t101.5 40h63v-52h-55q-86 0 -86 -109v-39h301zM427 674h76v-78h-76v78z" />
    <glyph glyph-name="f_l.liga" unicode="fl" horiz-adv-x="577" 
d="M437 710h60v-710h-60v448h-243v-448h-60v448h-90v52h90v50q0 70 36.5 110t101.5 40h63v-52h-55q-86 0 -86 -109v-39h243v210z" />
    <glyph glyph-name=".notdef" horiz-adv-x="854" 
d="M787 350q0 -150 -105 -255t-255 -105t-255 106t-105 254q0 149 105.5 254.5t254.5 105.5q151 0 255.5 -105.5t104.5 -254.5zM239 533v-45h44v-128h46v128h44v45h-134zM481 533v-45h45v-128h45v128h45v45h-135zM427 81q109 0 187 76t81 183l-46 8q0 -92 -65 -156.5
t-157 -64.5q-91 0 -156 64.5t-65 156.5l-46 -8q3 -107 81 -183t186 -76z" />
    <glyph glyph-name=".null" horiz-adv-x="0" 
 />
    <glyph glyph-name="nonmarkingreturn" horiz-adv-x="333" 
 />
    <glyph glyph-name="NULL" horiz-adv-x="0" 
 />
    <glyph glyph-name="NULL" horiz-adv-x="0" 
 />
    <glyph glyph-name="CR" unicode="&#xd;" horiz-adv-x="250" 
 />
    <glyph glyph-name="space" unicode=" " horiz-adv-x="260" 
 />
    <glyph glyph-name="exclam" unicode="!" horiz-adv-x="176" 
d="M53 700h70l-11 -520h-48zM50 0v78h76v-78h-76z" />
    <glyph glyph-name="quotedbl" unicode="&#x22;" horiz-adv-x="342" 
d="M81 420l-11 280h62l-11 -280h-40zM221 420l-11 280h62l-11 -280h-40z" />
    <glyph glyph-name="numbersign" unicode="#" horiz-adv-x="694" 
d="M624 402h-100l-34 -184h107v-50h-116l-31 -168h-59l31 168h-202l-31 -168h-59l31 168h-91v50h100l34 184h-107v50h116l31 168h59l-31 -168h202l31 168h59l-31 -168h91v-50zM431 218l34 184h-202l-34 -184h202z" />
    <glyph glyph-name="dollar" unicode="$" horiz-adv-x="580" 
d="M309 331q83 -37 124.5 -75.5t41.5 -107.5q0 -67 -46 -107.5t-120 -48.5v-92h-58v91q-81 7 -129.5 63t-53.5 136h59q6 -63 39.5 -100t84.5 -44v250q-3 2 -9 4q-97 39 -143 86.5t-46 121.5q0 78 56 131.5t142 59.5v91h58v-92q92 -11 144.5 -72t57.5 -155h-59
q-7 76 -44 119.5t-99 53.5v-313zM113 513q0 -61 35 -94t103 -62v289q-56 -6 -97 -42t-41 -91zM309 46q106 12 106 100q0 46 -28 75t-78 52v-227z" />
    <glyph glyph-name="percent" unicode="%" horiz-adv-x="753" 
d="M220 410q-64 0 -108 43t-44 107t44 107t108 43t108 -43t44 -107t-44 -107t-108 -43zM90 0l504 700h69l-504 -700h-69zM220 462q41 0 66.5 28t25.5 70t-25.5 70t-66.5 28t-66.5 -28t-25.5 -70t25.5 -70t66.5 -28zM533 -10q-64 0 -108 43t-44 107t44 107t108 43t108 -43
t44 -107t-44 -107t-108 -43zM533 42q41 0 66.5 28t25.5 70t-25.5 70t-66.5 28t-66.5 -28t-25.5 -70t25.5 -70t66.5 -28z" />
    <glyph glyph-name="ampersand" unicode="&#x26;" horiz-adv-x="623" 
d="M616 52h37v-52h-38q-47 0 -82.5 22t-73.5 61q-79 -93 -210 -93q-94 0 -154 48.5t-60 129.5q0 62 36.5 108t110.5 86q-49 49 -73 88.5t-24 85.5q0 71 50.5 122.5t130.5 51.5q76 0 126 -47t50 -118q0 -68 -44.5 -113t-123.5 -85q26 -24 39 -38l137 -139q31 66 31 190h55
q0 -148 -46 -232q23 -24 36.5 -36.5t38.5 -26t51 -13.5zM144 534q0 -39 21 -70t68 -77q33 15 52.5 26.5t45.5 31t39 44.5t13 55q0 49 -33.5 81.5t-85.5 32.5q-55 0 -87.5 -36.5t-32.5 -87.5zM249 42q106 0 171 80l-148 152q-33 33 -49 48q-60 -30 -94.5 -64.5t-34.5 -88.5
q0 -59 43.5 -93t111.5 -34z" />
    <glyph glyph-name="quotesingle" unicode="'" horiz-adv-x="202" 
d="M81 420l-11 280h62l-11 -280h-40z" />
    <glyph glyph-name="parenleft" unicode="(" horiz-adv-x="273" 
d="M235 790l38 -32q-62 -76 -106 -194t-44 -244t44 -244t106 -194l-38 -32q-59 59 -113.5 188t-54.5 282t54.5 282t113.5 188z" />
    <glyph glyph-name="parenright" unicode=")" horiz-adv-x="273" 
d="M38 -150l-38 32q62 76 106 194t44 244t-44 244t-106 194l38 32q59 -59 113.5 -188t54.5 -282t-54.5 -282t-113.5 -188z" />
    <glyph glyph-name="asterisk" unicode="*" horiz-adv-x="404" 
d="M363 565l-127 -36l81 -103l-41 -30l-73 110l-74 -110l-41 30l81 103l-127 36l16 49l124 -45l-5 131h51l-5 -131l124 45z" />
    <glyph glyph-name="plus" unicode="+" horiz-adv-x="590" 
d="M520 272v-52h-195v-220h-60v220h-195v52h195v208h60v-208h195z" />
    <glyph glyph-name="comma" unicode="," horiz-adv-x="181" 
d="M51 78h80v-54q0 -68 -19 -97t-72 -38v33q30 8 39 24t9 54h-37v78z" />
    <glyph glyph-name="hyphen" unicode="-" horiz-adv-x="521" 
d="M70 322h381v-52h-381v52z" />
    <glyph glyph-name="period" unicode="." horiz-adv-x="176" 
d="M50 0v78h76v-78h-76z" />
    <glyph glyph-name="slash" unicode="/" horiz-adv-x="443" 
d="M20 -50l344 800h59l-344 -800h-59z" />
    <glyph glyph-name="zero" unicode="0" horiz-adv-x="640" 
d="M320 -10q-54 0 -97.5 21t-72 55.5t-47.5 81.5t-27.5 97.5t-8.5 104.5q0 94 23.5 172t82.5 133t147 55t147 -55t82.5 -133t23.5 -172q0 -54 -8.5 -104.5t-27.5 -97.5t-47.5 -81.5t-72 -55.5t-97.5 -21zM320 46q85 0 136.5 80.5t51.5 223.5t-51.5 224t-136.5 81t-136.5 -81
t-51.5 -224t51.5 -223.5t136.5 -80.5z" />
    <glyph glyph-name="one" unicode="1" horiz-adv-x="463" 
d="M309 700h57v-700h-63v531q-77 -80 -240 -86v54q46 3 86.5 14t78 32.5t59.5 61t22 93.5z" />
    <glyph glyph-name="two" unicode="2" horiz-adv-x="612" 
d="M528 0h-461l-1 46l189 165q48 42 73 66t57.5 63t47 79.5t14.5 85.5q0 66 -41 107.5t-108 41.5q-80 0 -116.5 -55t-29.5 -144h-65q-10 102 45 178.5t167 76.5q99 0 155.5 -59.5t56.5 -151.5q0 -95 -57.5 -173t-177.5 -179l-107 -91h359v-56z" />
    <glyph glyph-name="three" unicode="3" horiz-adv-x="619" 
d="M411 337q49 -21 79.5 -63t30.5 -99q0 -78 -58 -131.5t-155 -53.5q-99 0 -156.5 53t-68.5 150h62q15 -146 165 -146q71 0 109.5 37t38.5 91q0 59 -40.5 98t-113.5 39h-64v57h64q81 0 126 38.5t45 101.5q0 70 -45 107t-117 37q-79 0 -131.5 -43.5t-56.5 -124.5h-60
q3 107 71.5 166t171.5 59q99 0 165 -52.5t66 -149.5q0 -64 -35.5 -107.5t-92.5 -63.5z" />
    <glyph glyph-name="four" unicode="4" horiz-adv-x="612" 
d="M573 203v-55h-112v-148h-62v148h-340v45l306 507h96v-497h112zM132 203h267v451z" />
    <glyph glyph-name="five" unicode="5" horiz-adv-x="619" 
d="M299 438q108 0 173.5 -60.5t65.5 -168.5q0 -107 -65.5 -163t-168.5 -56q-99 0 -162.5 58.5t-74.5 154.5h62q9 -68 55 -112.5t125 -44.5q76 0 120.5 41.5t44.5 116.5q0 85 -48 130.5t-132 45.5q-28 0 -54.5 -6t-43.5 -14t-30.5 -16t-19.5 -14l-6 -5l-47 29l51 346h357v-56
h-302l-41 -248q61 42 141 42z" />
    <glyph glyph-name="six" unicode="6" horiz-adv-x="634" 
d="M330 451q97 0 160.5 -63t63.5 -171q0 -99 -61 -163t-166 -64q-114 0 -180 85.5t-66 254.5q0 183 63.5 281.5t191.5 98.5q94 0 153.5 -61t69.5 -149h-61q-4 23 -13 46t-27 48.5t-51 41.5t-76 16q-98 0 -146 -85t-46 -236q21 52 70.5 86t120.5 34zM327 46q72 0 120 48.5
t48 125.5q0 80 -48 126.5t-119 46.5t-119.5 -46.5t-48.5 -123.5q0 -81 49 -129t118 -48z" />
    <glyph glyph-name="seven" unicode="7" horiz-adv-x="564" 
d="M54 700h457v-46l-324 -654h-75l323 644h-381v56z" />
    <glyph glyph-name="eight" unicode="8" horiz-adv-x="632" 
d="M399 325q59 -19 99 -58.5t40 -100.5q0 -77 -64 -126.5t-158 -49.5t-158 49.5t-64 126.5q0 61 40 100.5t99 58.5q-69 19 -116 65t-47 120q0 89 69 144.5t177 55.5t177 -55.5t69 -144.5q0 -74 -47 -120t-116 -65zM135 508q0 -28 10 -51.5t26 -39t35.5 -27.5t38.5 -19
t35 -11.5t26 -5.5l10 -2q7 1 19.5 3t43.5 13t55 26.5t43.5 45t19.5 67.5q0 62 -47.5 104.5t-133.5 42.5t-133.5 -42.5t-47.5 -103.5zM316 46q71 0 114 35t43 87q0 30 -16 54.5t-39.5 37.5t-46.5 21.5t-39 10.5l-16 3q-6 -1 -17 -3t-38 -11t-47.5 -21.5t-37.5 -37t-17 -54.5
q0 -52 43 -87t114 -35z" />
    <glyph glyph-name="nine" unicode="9" horiz-adv-x="624" 
d="M302 710q114 0 180 -85.5t66 -254.5q0 -183 -63.5 -281.5t-191.5 -98.5q-94 0 -153.5 61t-69.5 149h61q4 -23 13 -46t27 -48.5t51 -41.5t76 -16q98 0 146 85t46 236q-21 -52 -70.5 -86t-120.5 -34q-97 0 -160.5 63t-63.5 171q0 99 61 163t166 64zM301 307
q71 0 119.5 46.5t48.5 123.5q0 81 -49 129t-118 48q-72 0 -120 -48.5t-48 -125.5q0 -80 48 -126.5t119 -46.5z" />
    <glyph glyph-name="colon" unicode=":" horiz-adv-x="176" 
d="M50 422v78h76v-78h-76zM50 0v78h76v-78h-76z" />
    <glyph glyph-name="semicolon" unicode=";" horiz-adv-x="181" 
d="M129 500v-78h-76v78h76zM51 78h80v-54q0 -68 -19 -97t-72 -38v33q30 8 39 24t9 54h-37v78z" />
    <glyph glyph-name="less" unicode="&#x3c;" horiz-adv-x="573" 
d="M95 263l383 227v-70l-307 -180l307 -180v-70l-383 227v46z" />
    <glyph glyph-name="equal" unicode="=" horiz-adv-x="590" 
d="M70 376h450v-52h-450v52zM70 166h450v-52h-450v52z" />
    <glyph glyph-name="greater" unicode="&#x3e;" horiz-adv-x="573" 
d="M478 217l-383 -227v70l307 180l-307 180v70l383 -227v-46z" />
    <glyph glyph-name="question" unicode="?" horiz-adv-x="497" 
d="M252 710q86 0 137 -46t51 -132q0 -38 -13.5 -69.5t-34.5 -50.5t-44.5 -40t-44.5 -39t-34.5 -47t-13.5 -64v-42h-62v40q0 50 19.5 88.5t46.5 62.5t54.5 45.5t47 51t19.5 65.5q0 60 -34.5 91.5t-91.5 31.5q-67 0 -104.5 -51.5t-33.5 -144.5h-59q-6 116 48.5 183t146.5 67z
M186 0v78h76v-78h-76z" />
    <glyph glyph-name="at" unicode="@" horiz-adv-x="1014" 
d="M507 710q120 0 220 -54t160 -154.5t60 -228.5q0 -113 -45.5 -180.5t-126.5 -67.5q-93 0 -127 87q-13 -33 -54 -60t-102 -27q-97 0 -154 70t-57 170t56.5 170t152.5 70q45 0 81.5 -21t57.5 -56l2 -2v69h60v-280q0 -138 82 -138q52 0 83 49t31 139q0 172 -108.5 282.5
t-271.5 110.5q-162 0 -271 -110.5t-109 -279.5t109.5 -277.5t282.5 -108.5q123 0 190 60l36 -40q-81 -72 -230 -72q-190 0 -319 123t-129 317t127 317t313 123zM498 78q133 0 133 195q0 86 -37 132.5t-103 46.5q-70 0 -110 -57.5t-40 -133.5q0 -73 38.5 -128t118.5 -55z" />
    <glyph glyph-name="A" unicode="A" horiz-adv-x="644" 
d="M546 0l-67 187h-314l-67 -187h-68l255 700h74l255 -700h-68zM186 245h272l-136 377z" />
    <glyph glyph-name="B" unicode="B" horiz-adv-x="625" 
d="M409 346q125 -36 125 -163q0 -86 -50 -134.5t-150 -48.5h-179h-65v700h65h202q106 0 158 -48t52 -130q0 -149 -158 -176zM357 642h-202v-263h195q68 0 110.5 38t42.5 104q0 58 -36.5 89.5t-109.5 31.5zM324 58q72 0 108 33.5t36 94.5q0 62 -44.5 98.5t-118.5 36.5h-150
v-263h169z" />
    <glyph glyph-name="C" unicode="C" horiz-adv-x="736" 
d="M670 230q-16 -116 -90.5 -178t-190.5 -62q-150 0 -236 98t-86 254q0 162 88.5 265t236.5 103q113 0 184.5 -62.5t87.5 -167.5h-67q-13 76 -66.5 124t-142.5 48q-119 0 -187.5 -87.5t-68.5 -221.5q0 -131 69 -213t193 -82q177 0 211 182h65z" />
    <glyph glyph-name="D" unicode="D" horiz-adv-x="692" 
d="M292 700q163 0 248 -94.5t85 -255.5t-85 -255.5t-248 -94.5h-202v700h202zM282 57q63 0 112 16.5t79.5 43.5t50 66t27 80t7.5 89q0 291 -276 291h-128v-586h128z" />
    <glyph glyph-name="E" unicode="E" horiz-adv-x="575" 
d="M500 642h-345v-257h325v-58h-325v-269h345v-58h-410v700h410v-58z" />
    <glyph glyph-name="F" unicode="F" horiz-adv-x="550" 
d="M480 642h-325v-257h315v-58h-315v-327h-65v700h390v-58z" />
    <glyph glyph-name="G" unicode="G" horiz-adv-x="763" 
d="M361 347h320v-347h-49l-7 136q-61 -146 -234 -146q-149 0 -236.5 100t-87.5 258q0 159 89.5 260.5t237.5 101.5q126 0 201 -63t84 -174h-64q-10 85 -69.5 132t-154.5 47q-120 0 -189.5 -85t-69.5 -217t70 -217t193 -85q102 0 162 64t60 177h-256v58z" />
    <glyph glyph-name="H" unicode="H" horiz-adv-x="713" 
d="M558 700h65v-700h-65v327h-403v-327h-65v700h65v-315h403v315z" />
    <glyph glyph-name="I" unicode="I" horiz-adv-x="245" 
d="M155 0h-65v700h65v-700z" />
    <glyph glyph-name="J" unicode="J" horiz-adv-x="626" 
d="M474 700h65v-440q0 -131 -62.5 -200.5t-178.5 -69.5q-112 0 -174 67t-62 188v32h64v-32q0 -96 45 -146.5t124 -50.5q86 0 132.5 56t46.5 165v431z" />
    <glyph glyph-name="K" unicode="K" horiz-adv-x="588" 
d="M481 0l-266 324l-60 -68v-256h-65v700h65v-346l306 346h84l-286 -326l303 -374h-81z" />
    <glyph glyph-name="L" unicode="L" horiz-adv-x="577" 
d="M158 58h361v-58h-429v700h68v-642z" />
    <glyph glyph-name="M" unicode="M" horiz-adv-x="860" 
d="M770 700v-700h-64v623l-236 -623h-80l-236 623v-623h-64v700h98l242 -642l242 642h98z" />
    <glyph glyph-name="N" unicode="N" horiz-adv-x="720" 
d="M566 700h64v-700h-84l-392 626v-626h-64v700h85l391 -626v626z" />
    <glyph glyph-name="O" unicode="O" horiz-adv-x="776" 
d="M388 -10q-150 0 -235.5 97.5t-85.5 262.5t85.5 262.5t235.5 97.5t235.5 -97.5t85.5 -262.5t-85.5 -262.5t-235.5 -97.5zM388 48q118 0 187 82t69 220t-69 220t-187 82t-187 -82t-69 -220t69 -220t187 -82z" />
    <glyph glyph-name="P" unicode="P" horiz-adv-x="568" 
d="M297 700q119 0 179.5 -61t60.5 -158q0 -99 -61 -162t-179 -63h-142v-256h-65v700h65h142zM314 314q79 0 118.5 47.5t39.5 120.5q0 71 -39.5 115.5t-118.5 44.5h-159v-328h159z" />
    <glyph glyph-name="Q" unicode="Q" horiz-adv-x="776" 
d="M769 0h-80l-76 76q-86 -86 -225 -86q-150 0 -235.5 97.5t-85.5 262.5t85.5 262.5t235.5 97.5t235.5 -97.5t85.5 -262.5q0 -137 -60 -229zM388 48q111 0 179 73l-182 182l41 41l175 -176q43 75 43 182q0 138 -69 220t-187 82t-187 -82t-69 -220t69 -220t187 -82z" />
    <glyph glyph-name="R" unicode="R" horiz-adv-x="628" 
d="M519 174l56 -174h-69l-56 169q-6 20 -14.5 35.5t-15.5 27t-20 20.5t-21 15t-27 9.5t-29 6t-35.5 3t-37.5 1t-45.5 0t-49.5 -0.5v-286h-65v700h222q119 0 177 -59.5t58 -144.5q0 -65 -35.5 -116t-107.5 -72q81 -27 115 -134zM329 642h-174v-298h174q77 0 115 46t38 106
q0 59 -38 102.5t-115 43.5z" />
    <glyph glyph-name="S" unicode="S" horiz-adv-x="636" 
d="M135 200q19 -152 184 -152q141 0 141 112q0 59 -44 90.5t-165 64.5q-101 27 -149.5 75.5t-48.5 125.5q0 87 69 140.5t169 53.5q251 0 276 -240h-64q-11 86 -59.5 134t-150.5 48q-74 0 -124.5 -35.5t-50.5 -100.5q0 -61 41.5 -94.5t156.5 -64.5q45 -12 77.5 -25.5
t65 -35.5t49.5 -55.5t17 -76.5q0 -82 -54.5 -128t-153.5 -46q-110 0 -173.5 56t-72.5 154h64z" />
    <glyph glyph-name="T" unicode="T" horiz-adv-x="635" 
d="M588 700v-58h-238v-642h-65v642h-238v58h541z" />
    <glyph glyph-name="U" unicode="U" horiz-adv-x="704" 
d="M87 700h65v-401q0 -126 49 -188.5t151 -62.5t151 62.5t49 188.5v401h65v-410q0 -146 -66 -223t-199 -77t-199 77t-66 223v410z" />
    <glyph glyph-name="V" unicode="V" horiz-adv-x="670" 
d="M557 700h73l-258 -700h-74l-258 700h73l222 -614z" />
    <glyph glyph-name="W" unicode="W" horiz-adv-x="984" 
d="M867 700h64l-156 -700h-73l-210 636l-210 -636h-73l-156 700h64l132 -619l204 619h78l204 -619z" />
    <glyph glyph-name="X" unicode="X" horiz-adv-x="635" 
d="M602 0h-80l-204 306l-205 -306h-80l245 366l-224 334h80l184 -274l183 274h80l-223 -334z" />
    <glyph glyph-name="Y" unicode="Y" horiz-adv-x="625" 
d="M509 700h70l-331 -700h-70l125 265l-271 435h73l230 -368z" />
    <glyph glyph-name="Z" unicode="Z" horiz-adv-x="617" 
d="M147 58h398v-58h-484v48l384 594h-359v58h446v-48z" />
    <glyph glyph-name="bracketleft" unicode="[" horiz-adv-x="275" 
d="M275 730h-125v-816h125v-52h-185v920h185v-52z" />
    <glyph glyph-name="backslash" unicode="\" horiz-adv-x="443" 
d="M423 -50h-59l-344 800h59z" />
    <glyph glyph-name="bracketright" unicode="]" horiz-adv-x="275" 
d="M185 782v-920h-185v52h125v816h-125v52h185z" />
    <glyph glyph-name="asciicircum" unicode="^" horiz-adv-x="584" 
d="M323 700l211 -379h-75l-167 303l-167 -302h-75l211 378h62z" />
    <glyph glyph-name="underscore" unicode="_" horiz-adv-x="501" 
d="M60 10h381v-52h-381v52z" />
    <glyph glyph-name="grave" unicode="`" horiz-adv-x="400" 
d="M189 699l90 -125h-67l-103 125h80z" />
    <glyph glyph-name="a" unicode="a" horiz-adv-x="539" 
d="M280 509q78 0 129.5 -41t51.5 -116v-352h-60v104q-19 -43 -64.5 -78.5t-114.5 -35.5t-115 38t-46 106q0 63 44.5 95.5t144.5 48.5q32 5 46 7.5t36 7.5t31 10t20 13t14.5 19t3.5 25q0 42 -34.5 69.5t-89.5 27.5q-126 0 -135 -127h-58q3 80 51.5 129.5t144.5 49.5zM231 42
q73 0 121.5 50.5t48.5 132.5v47q-42 -23 -137 -41q-74 -14 -109.5 -34.5t-35.5 -65.5q0 -44 32 -66.5t80 -22.5z" />
    <glyph glyph-name="b" unicode="b" horiz-adv-x="568" 
d="M297 510q95 0 155.5 -72t60.5 -192q0 -116 -57 -186t-154 -70q-67 0 -106.5 29.5t-55.5 62.5v-82h-60v710h60v-294q18 43 60 68.5t97 25.5zM298 44q77 0 116.5 53.5t39.5 143.5q0 92 -41 154t-120 62q-75 0 -114 -54t-39 -149q0 -100 41 -155t117 -55z" />
    <glyph glyph-name="c" unicode="c" horiz-adv-x="560" 
d="M436 330q-8 59 -49.5 93t-99.5 34q-79 0 -125.5 -60.5t-46.5 -148.5q0 -91 49.5 -149t132.5 -58q121 0 146 118h58q-14 -78 -66.5 -123.5t-138.5 -45.5q-113 0 -177 74.5t-64 185.5q0 109 63.5 184t167.5 75q85 0 143 -49.5t66 -129.5h-59z" />
    <glyph glyph-name="d" unicode="d" horiz-adv-x="568" 
d="M428 710h60v-710h-60v82q-16 -33 -55.5 -62.5t-106.5 -29.5q-97 0 -154 70t-57 186q0 120 60.5 192t155.5 72q55 0 97 -25.5t60 -68.5v294zM270 44q76 0 117 55t41 155q0 95 -39 149t-114 54q-79 0 -120 -62t-41 -154q0 -90 39.5 -143.5t116.5 -53.5z" />
    <glyph glyph-name="e" unicode="e" horiz-adv-x="560" 
d="M442 158h55q-6 -71 -60 -119.5t-145 -48.5q-111 0 -174 74.5t-63 185.5t61 185t167 74q102 0 157.5 -70.5t55.5 -189.5v-16h-380q5 -86 52.5 -138.5t124.5 -52.5q59 0 98.5 31.5t50.5 84.5zM284 457q-75 0 -117.5 -48.5t-49.5 -123.5h320q-6 76 -42.5 124t-110.5 48z" />
    <glyph glyph-name="f" unicode="f" horiz-adv-x="362" 
d="M280 648q-86 0 -86 -109v-39h120v-52h-120v-448h-60v448h-90v52h90v50q0 70 36.5 110t101.5 40h63v-52h-55z" />
    <glyph glyph-name="g" unicode="g" 
d="M426 500h59v-501q0 -110 -53.5 -169.5t-157.5 -59.5q-97 0 -149 52t-56 130h56q5 -53 39 -90.5t111 -37.5q45 0 75.5 14t46.5 41t22.5 58t6.5 72v76q-14 -34 -53.5 -64.5t-106.5 -30.5q-97 0 -154 70t-57 186q0 120 60.5 192t154.5 72q55 0 96.5 -25t59.5 -68v83zM269 44
q76 0 116.5 55t40.5 153q0 95 -38.5 149t-111.5 54q-79 0 -119.5 -61t-40.5 -153q0 -89 39 -143t114 -54z" />
    <glyph glyph-name="h" unicode="h" 
d="M336 510q73 0 112 -47t39 -141v-322h-60v296q0 85 -23.5 124t-77.5 39q-73 0 -130 -86t-57 -217v-156h-59v710h59v-376q58 176 197 176z" />
    <glyph glyph-name="i" unicode="i" horiz-adv-x="220" 
d="M72 596v78h76v-78h-76zM140 0h-60v500h60v-500z" />
    <glyph glyph-name="j" unicode="j" horiz-adv-x="220" 
d="M72 674h76v-78h-76v78zM80 500h60v-574q0 -68 -38 -107t-108 -39h-69v52h61q95 0 94 104v564z" />
    <glyph glyph-name="k" unicode="k" horiz-adv-x="486" 
d="M392 0l-196 234l-59 -61v-173h-57v710h57v-455l240 245h75l-215 -223l227 -277h-72z" />
    <glyph glyph-name="l" unicode="l" horiz-adv-x="220" 
d="M140 0h-60v710h60v-710z" />
    <glyph glyph-name="m" unicode="m" horiz-adv-x="855" 
d="M623 509q72 0 113 -46.5t41 -116.5v-346h-59v302q0 153 -105 153q-67 0 -111 -73t-44 -181v-201h-59v302q0 153 -105 153q-68 0 -111.5 -70t-43.5 -184v-201h-59v500h59v-129q17 57 59 97.5t106 40.5q60 0 98.5 -37t50.5 -105q22 68 66.5 105t103.5 37z" />
    <glyph glyph-name="n" unicode="n" 
d="M336 510q73 0 112 -47t39 -141v-322h-60v296q0 85 -23.5 124t-77.5 39q-73 0 -130 -86t-57 -217v-156h-59v500h59v-166q58 176 197 176z" />
    <glyph glyph-name="o" unicode="o" horiz-adv-x="574" 
d="M287 -10q-105 0 -168.5 73t-63.5 186q0 114 63.5 187t168.5 73t168.5 -73t63.5 -187q0 -113 -63.5 -186t-168.5 -73zM287 41q81 0 127 59t46 149q0 91 -46 149.5t-127 58.5t-127 -58.5t-46 -149.5q0 -90 46 -149t127 -59z" />
    <glyph glyph-name="p" unicode="p" horiz-adv-x="567" 
d="M296 510q95 0 155.5 -72t60.5 -192q0 -116 -57 -186t-154 -70q-66 0 -106 29.5t-56 62.5v-302h-59v720h59v-84q19 43 60.5 68.5t96.5 25.5zM297 44q77 0 116.5 53.5t39.5 143.5q0 92 -41 154t-120 62q-74 0 -113.5 -54t-39.5 -149q0 -100 41 -155t117 -55z" />
    <glyph glyph-name="q" unicode="q" horiz-adv-x="567" 
d="M428 500h59v-720h-59v302q-16 -33 -56 -62.5t-106 -29.5q-97 0 -154 70t-57 186q0 120 60.5 192t155.5 72q55 0 96.5 -25.5t60.5 -68.5v84zM270 44q76 0 117 55t41 155q0 95 -39.5 149t-113.5 54q-79 0 -120 -62t-41 -154q0 -90 39.5 -143.5t116.5 -53.5z" />
    <glyph glyph-name="r" unicode="r" horiz-adv-x="415" 
d="M308 500h62v-51h-66q-70 0 -117 -54.5t-47 -176.5v-218h-60v500h60v-126q22 63 60.5 94.5t107.5 31.5z" />
    <glyph glyph-name="s" unicode="s" horiz-adv-x="493" 
d="M124 148q8 -106 130 -106q108 0 108 77q0 18 -7.5 32t-16.5 22.5t-28.5 17t-31.5 12.5t-38 11t-37 10q-75 22 -112 55t-37 91q0 64 50 101.5t133 37.5t139.5 -42.5t66.5 -138.5h-57q-4 66 -45.5 98t-106.5 32q-62 0 -92.5 -25t-30.5 -62q0 -42 30 -63t107 -42
q39 -11 64 -20.5t53.5 -26t43 -42t14.5 -58.5q0 -63 -48.5 -96t-122.5 -33q-81 0 -131 41.5t-54 116.5h57z" />
    <glyph glyph-name="t" unicode="t" horiz-adv-x="364" 
d="M277 52h55v-52h-63q-65 0 -101.5 39t-36.5 107v302h-95v52h95v120l60 10v-130h120v-52h-120v-292q0 -104 86 -104z" />
    <glyph glyph-name="u" unicode="u" 
d="M426 500h59v-500h-59v166q-58 -176 -197 -176q-73 0 -112 47t-39 141v322h60v-296q0 -85 23.5 -124t77.5 -39q73 0 130 86t57 217v156z" />
    <glyph glyph-name="v" unicode="v" horiz-adv-x="529" 
d="M431 501h68l-198 -501h-73l-198 501h68l167 -434z" />
    <glyph glyph-name="w" unicode="w" horiz-adv-x="748" 
d="M646 501h59l-122 -501h-71l-138 438l-138 -438h-71l-122 501h59l102 -427l136 427h68l136 -427z" />
    <glyph glyph-name="x" unicode="x" horiz-adv-x="505" 
d="M474 0h-72l-149 215l-150 -215h-72l188 265l-168 236h72l130 -187l129 187h72l-167 -236z" />
    <glyph glyph-name="y" unicode="y" horiz-adv-x="541" 
d="M445 500h61l-219 -591q-27 -72 -60 -100.5t-103 -28.5h-80v51h68q47 0 70.5 15t39.5 57l26 70l-217 527h66l182 -445z" />
    <glyph glyph-name="z" unicode="z" horiz-adv-x="493" 
d="M135 52h289v-52h-371v42l282 407h-262v52h341v-43z" />
    <glyph glyph-name="braceleft" unicode="{" horiz-adv-x="296" 
d="M197 474q0 -69 -17 -105t-56 -47q39 -11 56 -47t17 -105v-163q0 -56 19 -74.5t63 -18.5h17v-52h-17q-79 0 -110.5 31.5t-31.5 127.5v173q0 55 -19.5 75.5t-72.5 28.5v48q53 8 72.5 28.5t19.5 75.5v173q0 96 31.5 127.5t110.5 31.5h17v-52h-17q-44 0 -63 -18.5t-19 -74.5
v-163z" />
    <glyph glyph-name="bar" unicode="|" horiz-adv-x="240" 
d="M150 -100h-60v900h60v-900z" />
    <glyph glyph-name="braceright" unicode="}" horiz-adv-x="296" 
d="M159 450q0 -55 19.5 -75.5t72.5 -28.5v-48q-53 -8 -72.5 -28.5t-19.5 -75.5v-173q0 -96 -31.5 -127.5t-110.5 -31.5h-17v52h17q44 0 63 18.5t19 74.5v163q0 69 17 105t56 47q-39 11 -56 47t-17 105v163q0 56 -19 74.5t-63 18.5h-17v52h17q79 0 110.5 -31.5t31.5 -127.5
v-173z" />
    <glyph glyph-name="asciitilde" unicode="~" horiz-adv-x="590" 
d="M70 181q4 68 40.5 103t93.5 35q37 0 69 -21.5t60 -43t56 -21.5q72 0 83 79h48q-4 -67 -41 -102t-94 -35q-37 0 -69 21.5t-60 43t-56 21.5q-71 0 -83 -80h-47z" />
    <glyph glyph-name="uni00A0" unicode="&#xa0;" horiz-adv-x="240" 
 />
    <glyph glyph-name="exclamdown" unicode="&#xa1;" horiz-adv-x="176" 
d="M126 480v-78h-76v78h76zM123 -220h-70l11 520h48z" />
    <glyph glyph-name="cent" unicode="&#xa2;" horiz-adv-x="582" 
d="M521 258q-13 -74 -64.5 -119t-132.5 -49v-90h-58v93q-92 15 -148.5 85.5t-56.5 171.5q0 102 57.5 173t147.5 84v93h58v-91q78 -6 129.5 -51.5t61.5 -122.5h-59q-8 51 -42.5 82t-89.5 36v-407q111 8 139 112h58zM123 349q0 -81 39 -133t104 -66v400q-64 -12 -103.5 -65.5
t-39.5 -135.5z" />
    <glyph glyph-name="sterling" unicode="&#xa3;" horiz-adv-x="601" 
d="M248 55h287v-55h-474v44q115 9 169 47t54 95q0 46 -39 90h-155v54h101q-43 41 -67.5 83t-24.5 102q0 89 60.5 142t150.5 53q86 0 145 -50.5t72 -157.5h-60q-10 71 -49.5 112t-106.5 41q-68 0 -109 -40t-41 -102q0 -12 2 -24t4 -21.5t8 -21.5t9 -18.5t12.5 -18.5
t12.5 -16.5t15 -17t14.5 -15l16 -16t15.5 -14.5h201v-54h-153q28 -40 28 -83q0 -90 -98 -138z" />
    <glyph glyph-name="currency" unicode="&#xa4;" horiz-adv-x="617" 
d="M515 250q0 -71 -40 -127l87 -92l-41 -41l-88 91q-54 -40 -124 -40q-69 0 -125 40l-88 -91l-41 41l88 93q-40 54 -40 126q0 69 40 125l-88 94l41 41l88 -93q55 42 125 42q71 0 125 -41l87 92l41 -41l-87 -93q40 -56 40 -126zM309 95q67 0 106.5 46t39.5 109t-39.5 109
t-106.5 46t-106.5 -46t-39.5 -109t39.5 -109t106.5 -46z" />
    <glyph glyph-name="yen" unicode="&#xa5;" horiz-adv-x="626" 
d="M594 700l-217 -319h155v-54h-189v-108h189v-54h-189v-165h-60v165h-189v54h189v108h-189v54h157l-219 319h74l208 -304l207 304h73z" />
    <glyph glyph-name="brokenbar" unicode="&#xa6;" horiz-adv-x="240" 
d="M150 480h-60v320h60v-320zM150 -100h-60v320h60v-320z" />
    <glyph glyph-name="section" unicode="&#xa7;" horiz-adv-x="533" 
d="M380 198q66 -41 66 -118q0 -65 -48.5 -102.5t-127.5 -37.5q-194 0 -217 188h65q19 -130 155 -130q51 0 79.5 21.5t28.5 63.5q0 44 -31.5 63.5t-123.5 47.5q-158 47 -158 146q0 74 81 110q-73 41 -73 115q0 67 50.5 106t129.5 39q87 0 139.5 -52.5t63.5 -128.5h-65
q-19 123 -141 123q-44 0 -78 -21t-34 -65q0 -23 10 -39.5t36 -29.5t48.5 -20.5t70.5 -20.5q158 -44 158 -145q0 -73 -84 -113zM133 348q0 -20 8.5 -35.5t19.5 -25.5t35.5 -20.5t41.5 -16t53 -15.5q30 -9 48 -16q26 11 43 33.5t17 53.5q0 19 -8 33.5t-18.5 24.5t-34.5 20
t-42 15.5t-54 15.5q-49 15 -51 16q-58 -25 -58 -83z" />
    <glyph glyph-name="dieresis" unicode="&#xa8;" horiz-adv-x="400" 
d="M71 587v70h68v-70h-68zM261 587v70h68v-70h-68z" />
    <glyph glyph-name="copyright" unicode="&#xa9;" horiz-adv-x="850" 
d="M425 -10q-152 0 -255 103.5t-103 256.5t103 256.5t255 103.5t255 -103.5t103 -256.5t-103 -256.5t-255 -103.5zM425 34q130 0 218 92t88 224t-88 224t-218 92t-218 -92t-88 -224t88 -224t218 -92zM591 291q-10 -69 -52.5 -105t-110.5 -36q-86 0 -135 54.5t-49 141.5
q0 90 50 147t134 57q67 0 108.5 -36.5t50.5 -97.5h-53q-7 40 -34.5 64.5t-72.5 24.5q-61 0 -96 -44.5t-35 -113.5q0 -68 35.5 -110t98.5 -42q91 0 108 96h53z" />
    <glyph glyph-name="guillemotleft" unicode="&#xab;" horiz-adv-x="609" 
d="M309 490l-170 -195l170 -195h-77l-167 195l167 195h77zM529 490l-170 -195l170 -195h-77l-167 195l167 195h77z" />
    <glyph glyph-name="logicalnot" unicode="&#xac;" horiz-adv-x="590" 
d="M520 349v-213h-60v161h-390v52h450z" />
    <glyph glyph-name="uni00AD" unicode="&#xad;" horiz-adv-x="521" 
d="M70 322h381v-52h-381v52z" />
    <glyph glyph-name="registered" unicode="&#xae;" horiz-adv-x="850" 
d="M425 710q152 0 255 -103.5t103 -256.5t-103 -256.5t-255 -103.5t-255 103.5t-103 256.5t103 256.5t255 103.5zM425 34q130 0 218 92t88 224t-88 224t-218 92t-218 -92t-88 -224t88 -224t218 -92zM477 331q52 -14 72 -77l30 -94h-56l-30 90q-4 11 -8 20t-10.5 15.5t-10 11
t-13.5 7t-14 4.5t-17.5 2.5t-18 0.5h-22h-23.5v-151h-52v390h120q71 0 104 -33.5t33 -82.5q0 -83 -84 -103zM430 503h-74v-148h74q39 0 58.5 23t19.5 53t-19.5 51t-58.5 21z" />
    <glyph glyph-name="macron" unicode="&#xaf;" horiz-adv-x="400" 
d="M65 637h270v-52h-270v52z" />
    <glyph glyph-name="degree" unicode="&#xb0;" horiz-adv-x="384" 
d="M192 410q-64 0 -108 43t-44 107t44 107t108 43t108 -43t44 -107t-44 -107t-108 -43zM192 462q41 0 66.5 28t25.5 70t-25.5 70t-66.5 28t-66.5 -28t-25.5 -70t25.5 -70t66.5 -28z" />
    <glyph glyph-name="plusminus" unicode="&#xb1;" horiz-adv-x="590" 
d="M325 320h195v-52h-195v-160h-60v160h-195v52h195v160h60v-160zM70 0v52h450v-52h-450z" />
    <glyph glyph-name="uni00B2" unicode="&#xb2;" horiz-adv-x="356" 
d="M307 410h-258v33l95 76q36 29 54 46t33.5 44t15.5 55q0 30 -18.5 48.5t-48.5 18.5q-39 0 -56 -27t-15 -70h-51q-4 58 27.5 99.5t95.5 41.5q55 0 86.5 -31.5t31.5 -80.5q0 -48 -28.5 -86t-86.5 -84l-51 -40h174v-43z" />
    <glyph glyph-name="uni00B3" unicode="&#xb3;" horiz-adv-x="356" 
d="M244 579q58 -20 58 -78q0 -41 -32.5 -71t-89.5 -30q-56 0 -90.5 31t-39.5 82h50q4 -35 26.5 -52t53.5 -17q35 0 53.5 18.5t18.5 43.5q0 26 -19.5 41.5t-56.5 15.5h-33v39h35q40 0 62.5 18t22.5 48q0 31 -22.5 47.5t-59.5 16.5q-85 0 -94 -81h-48q5 59 42 91.5t99 32.5
q58 0 96 -28.5t38 -77.5q0 -68 -70 -90z" />
    <glyph glyph-name="acute" unicode="&#xb4;" horiz-adv-x="400" 
d="M217 699h80l-103 -125h-67z" />
    <glyph glyph-name="uni00B5" unicode="&#xb5;" 
d="M426 500h59v-500h-59v166q-58 -176 -197 -176q-57 0 -92 28v-238h-59v720h60v-296q0 -85 23.5 -124t77.5 -39q73 0 130 86t57 217v156z" />
    <glyph glyph-name="paragraph" unicode="&#xb6;" horiz-adv-x="614" 
d="M65 511q0 57 30 101.5t78 66.5q47 21 101 21h280v-52h-80v-648h-60v648h-80v-648h-60v320q-85 0 -143 49q-66 51 -66 142z" />
    <glyph glyph-name="periodcentered" unicode="&#xb7;" horiz-adv-x="216" 
d="M70 245v78h76v-78h-76z" />
    <glyph glyph-name="cedilla" unicode="&#xb8;" horiz-adv-x="400" 
d="M211 2q73 -39 73 -102q0 -42 -32.5 -71t-91.5 -29h-44v50h36q75 0 75 55q0 26 -21.5 52.5t-50.5 42.5z" />
    <glyph glyph-name="uni00B9" unicode="&#xb9;" horiz-adv-x="290" 
d="M210 770v-360h-49v255q-43 -34 -124 -37v40q54 3 92.5 27t38.5 75h42z" />
    <glyph glyph-name="guillemotright" unicode="&#xbb;" horiz-adv-x="609" 
d="M157 490l167 -195l-167 -195h-77l170 195l-170 195h77zM377 490l167 -195l-167 -195h-77l170 195l-170 195h77z" />
    <glyph glyph-name="onequarter" unicode="&#xbc;" horiz-adv-x="762" 
d="M210 700v-360h-49v255q-43 -34 -124 -37v40q54 3 92.5 27t38.5 75h42zM66 0l586 700h67l-586 -700h-67zM731 116v-42h-59v-74h-49v74h-179v32l161 254h67v-244h59zM501 116h122v199z" />
    <glyph glyph-name="onehalf" unicode="&#xbd;" horiz-adv-x="836" 
d="M210 700v-360h-49v255q-43 -34 -124 -37v40q54 3 92.5 27t38.5 75h42zM66 0l586 700h67l-586 -700h-67zM787 0h-258v33l95 76q36 29 54 46t33.5 44t15.5 55q0 30 -18.5 48.5t-48.5 18.5q-39 0 -56 -27t-15 -70h-51q-4 58 27.5 99.5t95.5 41.5q55 0 86.5 -31.5t31.5 -80.5
q0 -48 -28.5 -86t-86.5 -84l-51 -40h174v-43z" />
    <glyph glyph-name="threequarters" unicode="&#xbe;" horiz-adv-x="797" 
d="M244 509q58 -20 58 -78q0 -41 -32.5 -71t-89.5 -30q-56 0 -90.5 31t-39.5 82h50q4 -35 26.5 -52t53.5 -17q35 0 53.5 18.5t18.5 43.5q0 26 -19.5 41.5t-56.5 15.5h-33v39h35q40 0 62.5 18t22.5 48q0 31 -22.5 47.5t-59.5 16.5q-85 0 -94 -81h-48q5 59 42 91.5t99 32.5
q58 0 96 -28.5t38 -77.5q0 -68 -70 -90zM101 0l586 700h67l-586 -700h-67zM766 116v-42h-59v-74h-49v74h-179v32l161 254h67v-244h59zM536 116h122v199z" />
    <glyph glyph-name="questiondown" unicode="&#xbf;" horiz-adv-x="454" 
d="M227 398v78h76v-78h-76zM237 -229q-86 0 -137 46t-51 132q0 38 13.5 69.5t34.5 50.5t44.5 40t44.5 39t34.5 47t13.5 64v42h62v-40q0 -50 -19.5 -88.5t-47 -62.5t-54.5 -45.5t-46.5 -51t-19.5 -65.5q0 -60 34.5 -91.5t91.5 -31.5q67 0 104.5 51.5t33.5 144.5h59
q6 -116 -48.5 -183t-146.5 -67z" />
    <glyph glyph-name="Agrave" unicode="&#xc0;" horiz-adv-x="644" 
d="M396 776h-74l-113 138h88zM546 0l-67 187h-314l-67 -187h-68l255 700h74l255 -700h-68zM186 245h272l-136 377z" />
    <glyph glyph-name="Aacute" unicode="&#xc1;" horiz-adv-x="644" 
d="M435 914l-113 -138h-74l99 138h88zM546 0l-67 187h-314l-67 -187h-68l255 700h74l255 -700h-68zM186 245h272l-136 377z" />
    <glyph glyph-name="Acircumflex" unicode="&#xc2;" horiz-adv-x="644" 
d="M322 857l-68 -90h-70l99 138h77l99 -138h-70zM546 0l-67 187h-314l-67 -187h-68l255 700h74l255 -700h-68zM186 245h272l-136 377z" />
    <glyph glyph-name="Atilde" unicode="&#xc3;" horiz-adv-x="644" 
d="M253 843q-20 0 -36 -15t-21 -37h-46q8 53 38.5 81.5t68.5 28.5q30 0 53 -14.5t41.5 -28.5t38.5 -14t36 15t21 38h47q-8 -53 -38.5 -81.5t-68.5 -28.5q-31 0 -53.5 14t-41.5 28t-39 14zM546 0l-67 187h-314l-67 -187h-68l255 700h74l255 -700h-68zM186 245h272l-136 377z
" />
    <glyph glyph-name="Adieresis" unicode="&#xc4;" horiz-adv-x="644" 
d="M255 856v-77h-75v77h75zM464 856v-77h-75v77h75zM546 0l-67 187h-314l-67 -187h-68l255 700h74l255 -700h-68zM186 245h272l-136 377z" />
    <glyph glyph-name="Aring" unicode="&#xc5;" horiz-adv-x="644" 
d="M546 0l-67 187h-314l-67 -187h-68l241 661q-54 29 -54 92q0 44 29.5 74.5t75.5 30.5t75 -30.5t29 -74.5q0 -63 -53 -92l241 -661h-68zM322 805q-22 0 -36 -15t-14 -37q0 -21 14 -36.5t36 -15.5q21 0 35 15.5t14 36.5t-14 36.5t-35 15.5zM186 245h272l-136 377z" />
    <glyph glyph-name="AE" unicode="&#xc6;" horiz-adv-x="871" 
d="M796 642h-416l94 -257h302v-58h-281l98 -269h203v-58h-250l-67 187h-314l-67 -187h-68l255 700h511v-58zM186 245h272l-136 377z" />
    <glyph glyph-name="Ccedilla" unicode="&#xc7;" horiz-adv-x="736" 
d="M670 230q-15 -105 -77.5 -166t-161.5 -72q63 -40 63 -102q0 -46 -36 -78t-101 -32h-48v55h40q82 0 82 60q0 51 -64 96q-140 7 -220 104t-80 247q0 162 88.5 265t236.5 103q113 0 184.5 -62.5t87.5 -167.5h-67q-13 76 -66.5 124t-142.5 48q-119 0 -187.5 -87.5
t-68.5 -221.5q0 -131 69 -213t193 -82q177 0 211 182h65z" />
    <glyph glyph-name="Egrave" unicode="&#xc8;" horiz-adv-x="575" 
d="M369 776h-74l-113 138h88zM500 642h-345v-257h325v-58h-325v-269h345v-58h-410v700h410v-58z" />
    <glyph glyph-name="Eacute" unicode="&#xc9;" horiz-adv-x="575" 
d="M408 914l-113 -138h-74l99 138h88zM500 642h-345v-257h325v-58h-325v-269h345v-58h-410v700h410v-58z" />
    <glyph glyph-name="Ecircumflex" unicode="&#xca;" horiz-adv-x="575" 
d="M295 857l-68 -90h-70l99 138h77l99 -138h-70zM500 642h-345v-257h325v-58h-325v-269h345v-58h-410v700h410v-58z" />
    <glyph glyph-name="Edieresis" unicode="&#xcb;" horiz-adv-x="575" 
d="M228 856v-77h-75v77h75zM437 856v-77h-75v77h75zM500 642h-345v-257h325v-58h-325v-269h345v-58h-410v700h410v-58z" />
    <glyph glyph-name="Igrave" unicode="&#xcc;" horiz-adv-x="245" 
d="M98 914l99 -138h-74l-113 138h88zM155 0h-65v700h65v-700z" />
    <glyph glyph-name="Iacute" unicode="&#xcd;" horiz-adv-x="245" 
d="M148 914h88l-113 -138h-74zM155 0h-65v700h65v-700z" />
    <glyph glyph-name="Icircumflex" unicode="&#xce;" horiz-adv-x="245" 
d="M260 767h-70l-67 90l-68 -90h-70l99 138h77zM155 0h-65v700h65v-700z" />
    <glyph glyph-name="Idieresis" unicode="&#xcf;" horiz-adv-x="245" 
d="M-19 779v77h75v-77h-75zM190 779v77h75v-77h-75zM155 0h-65v700h65v-700z" />
    <glyph glyph-name="Eth" unicode="&#xd0;" horiz-adv-x="692" 
d="M292 700q163 0 248 -94.5t85 -255.5t-85 -255.5t-248 -94.5h-202v320h-134v58h134v322h202zM282 57q63 0 112 16.5t79.5 43.5t50 66t27 80t7.5 89q0 291 -276 291h-128v-265h264v-58h-264v-263h128z" />
    <glyph glyph-name="Ntilde" unicode="&#xd1;" horiz-adv-x="720" 
d="M291 843q-20 0 -36 -15t-21 -37h-46q8 53 38.5 81.5t68.5 28.5q30 0 53 -14.5t41.5 -28.5t38.5 -14t36 15t21 38h47q-8 -53 -38.5 -81.5t-68.5 -28.5q-31 0 -53.5 14t-41.5 28t-39 14zM566 700h64v-700h-84l-392 626v-626h-64v700h85l391 -626v626z" />
    <glyph glyph-name="Ograve" unicode="&#xd2;" horiz-adv-x="776" 
d="M363 914l99 -138h-74l-113 138h88zM388 -10q-150 0 -235.5 97.5t-85.5 262.5t85.5 262.5t235.5 97.5t235.5 -97.5t85.5 -262.5t-85.5 -262.5t-235.5 -97.5zM388 48q118 0 187 82t69 220t-69 220t-187 82t-187 -82t-69 -220t69 -220t187 -82z" />
    <glyph glyph-name="Oacute" unicode="&#xd3;" horiz-adv-x="776" 
d="M413 914h88l-113 -138h-74zM388 -10q-150 0 -235.5 97.5t-85.5 262.5t85.5 262.5t235.5 97.5t235.5 -97.5t85.5 -262.5t-85.5 -262.5t-235.5 -97.5zM388 48q118 0 187 82t69 220t-69 220t-187 82t-187 -82t-69 -220t69 -220t187 -82z" />
    <glyph glyph-name="Ocircumflex" unicode="&#xd4;" horiz-adv-x="776" 
d="M525 767h-70l-67 90l-68 -90h-70l99 138h77zM388 -10q-150 0 -235.5 97.5t-85.5 262.5t85.5 262.5t235.5 97.5t235.5 -97.5t85.5 -262.5t-85.5 -262.5t-235.5 -97.5zM388 48q118 0 187 82t69 220t-69 220t-187 82t-187 -82t-69 -220t69 -220t187 -82z" />
    <glyph glyph-name="Otilde" unicode="&#xd5;" horiz-adv-x="776" 
d="M216 791q8 53 38.5 81.5t68.5 28.5q30 0 53 -14.5t41.5 -28.5t38.5 -14t36 15t21 38h47q-8 -53 -38.5 -81.5t-68.5 -28.5q-31 0 -53.5 14t-41.5 28t-39 14t-36 -15t-21 -37h-46zM388 -10q-150 0 -235.5 97.5t-85.5 262.5t85.5 262.5t235.5 97.5t235.5 -97.5t85.5 -262.5
t-85.5 -262.5t-235.5 -97.5zM388 48q118 0 187 82t69 220t-69 220t-187 82t-187 -82t-69 -220t69 -220t187 -82z" />
    <glyph glyph-name="Odieresis" unicode="&#xd6;" horiz-adv-x="776" 
d="M246 779v77h75v-77h-75zM455 779v77h75v-77h-75zM388 -10q-150 0 -235.5 97.5t-85.5 262.5t85.5 262.5t235.5 97.5t235.5 -97.5t85.5 -262.5t-85.5 -262.5t-235.5 -97.5zM388 48q118 0 187 82t69 220t-69 220t-187 82t-187 -82t-69 -220t69 -220t187 -82z" />
    <glyph glyph-name="multiply" unicode="&#xd7;" horiz-adv-x="590" 
d="M490 398l-156 -152l156 -153l-39 -38l-156 152l-156 -152l-39 38l156 153l-156 152l39 39l156 -153l156 153z" />
    <glyph glyph-name="Oslash" unicode="&#xd8;" horiz-adv-x="776" 
d="M636 597q73 -96 73 -247q0 -165 -85.5 -262.5t-235.5 -97.5q-125 0 -206 69l-66 -79l-48 38l72 85q-73 96 -73 247q0 165 85.5 262.5t235.5 97.5q125 0 206 -69l66 79l48 -38zM132 350q0 -117 51 -196l370 439q-67 59 -165 59q-118 0 -187 -82t-69 -220zM388 48
q118 0 187 82t69 220q0 117 -51 196l-370 -439q67 -59 165 -59z" />
    <glyph glyph-name="Ugrave" unicode="&#xd9;" horiz-adv-x="704" 
d="M327 914l99 -138h-74l-113 138h88zM87 700h65v-401q0 -126 49 -188.5t151 -62.5t151 62.5t49 188.5v401h65v-410q0 -146 -66 -223t-199 -77t-199 77t-66 223v410z" />
    <glyph glyph-name="Uacute" unicode="&#xda;" horiz-adv-x="704" 
d="M377 914h88l-113 -138h-74zM87 700h65v-401q0 -126 49 -188.5t151 -62.5t151 62.5t49 188.5v401h65v-410q0 -146 -66 -223t-199 -77t-199 77t-66 223v410z" />
    <glyph glyph-name="Ucircumflex" unicode="&#xdb;" horiz-adv-x="704" 
d="M489 767h-70l-67 90l-68 -90h-70l99 138h77zM87 700h65v-401q0 -126 49 -188.5t151 -62.5t151 62.5t49 188.5v401h65v-410q0 -146 -66 -223t-199 -77t-199 77t-66 223v410z" />
    <glyph glyph-name="Udieresis" unicode="&#xdc;" horiz-adv-x="704" 
d="M210 779v77h75v-77h-75zM419 779v77h75v-77h-75zM87 700h65v-401q0 -126 49 -188.5t151 -62.5t151 62.5t49 188.5v401h65v-410q0 -146 -66 -223t-199 -77t-199 77t-66 223v410z" />
    <glyph glyph-name="Yacute" unicode="&#xdd;" horiz-adv-x="625" 
d="M418 914l-113 -138h-74l99 138h88zM509 700h70l-331 -700h-70l125 265l-271 435h73l230 -368z" />
    <glyph glyph-name="Thorn" unicode="&#xde;" horiz-adv-x="584" 
d="M297 572q119 0 179.5 -61t60.5 -158q0 -99 -61 -162t-179 -63h-142v-128h-65v700h65v-128h142zM314 186q79 0 118.5 47.5t39.5 120.5q0 71 -39.5 115.5t-118.5 44.5h-159v-328h159z" />
    <glyph glyph-name="germandbls" unicode="&#xdf;" horiz-adv-x="554" 
d="M320 393q87 -14 130.5 -68t43.5 -133q0 -87 -52.5 -139.5t-152.5 -52.5h-43v53h32q156 0 156 141q0 72 -44 117t-138 45h-54v52h36q58 0 95.5 36t37.5 92q0 52 -30.5 87t-80.5 35q-52 0 -84 -39t-32 -102v-517h-60v531q0 75 47.5 127t129.5 52q78 0 124 -49.5t46 -117.5
q0 -109 -107 -150z" />
    <glyph glyph-name="agrave" unicode="&#xe0;" horiz-adv-x="539" 
d="M326 574h-67l-103 125h80zM280 509q78 0 129.5 -41t51.5 -116v-352h-60v104q-19 -43 -64.5 -78.5t-114.5 -35.5t-115 38t-46 106q0 63 44.5 95.5t144.5 48.5q32 5 46 7.5t36 7.5t31 10t20 13t14.5 19t3.5 25q0 42 -34.5 69.5t-89.5 27.5q-126 0 -135 -127h-58
q3 80 51.5 129.5t144.5 49.5zM231 42q73 0 121.5 50.5t48.5 132.5v47q-42 -23 -137 -41q-74 -14 -109.5 -34.5t-35.5 -65.5q0 -44 32 -66.5t80 -22.5z" />
    <glyph glyph-name="aacute" unicode="&#xe1;" horiz-adv-x="539" 
d="M382 699l-103 -125h-67l90 125h80zM280 509q78 0 129.5 -41t51.5 -116v-352h-60v104q-19 -43 -64.5 -78.5t-114.5 -35.5t-115 38t-46 106q0 63 44.5 95.5t144.5 48.5q32 5 46 7.5t36 7.5t31 10t20 13t14.5 19t3.5 25q0 42 -34.5 69.5t-89.5 27.5q-126 0 -135 -127h-58
q3 80 51.5 129.5t144.5 49.5zM231 42q73 0 121.5 50.5t48.5 132.5v47q-42 -23 -137 -41q-74 -14 -109.5 -34.5t-35.5 -65.5q0 -44 32 -66.5t80 -22.5z" />
    <glyph glyph-name="acircumflex" unicode="&#xe2;" horiz-adv-x="539" 
d="M269 642l-61 -82h-64l90 125h70l90 -125h-64zM280 509q78 0 129.5 -41t51.5 -116v-352h-60v104q-19 -43 -64.5 -78.5t-114.5 -35.5t-115 38t-46 106q0 63 44.5 95.5t144.5 48.5q32 5 46 7.5t36 7.5t31 10t20 13t14.5 19t3.5 25q0 42 -34.5 69.5t-89.5 27.5
q-126 0 -135 -127h-58q3 80 51.5 129.5t144.5 49.5zM231 42q73 0 121.5 50.5t48.5 132.5v47q-42 -23 -137 -41q-74 -14 -109.5 -34.5t-35.5 -65.5q0 -44 32 -66.5t80 -22.5z" />
    <glyph glyph-name="atilde" unicode="&#xe3;" horiz-adv-x="539" 
d="M206 623q-19 0 -33 -13.5t-19 -34.5h-42q7 48 34.5 74t62.5 26t68 -25.5t53 -25.5q19 0 33 13.5t19 34.5h43q-7 -48 -35 -74t-63 -26t-68 25.5t-53 25.5zM280 509q78 0 129.5 -41t51.5 -116v-352h-60v104q-19 -43 -64.5 -78.5t-114.5 -35.5t-115 38t-46 106
q0 63 44.5 95.5t144.5 48.5q32 5 46 7.5t36 7.5t31 10t20 13t14.5 19t3.5 25q0 42 -34.5 69.5t-89.5 27.5q-126 0 -135 -127h-58q3 80 51.5 129.5t144.5 49.5zM231 42q73 0 121.5 50.5t48.5 132.5v47q-42 -23 -137 -41q-74 -14 -109.5 -34.5t-35.5 -65.5q0 -44 32 -66.5
t80 -22.5z" />
    <glyph glyph-name="adieresis" unicode="&#xe4;" horiz-adv-x="539" 
d="M207 657v-70h-68v70h68zM397 657v-70h-68v70h68zM280 509q78 0 129.5 -41t51.5 -116v-352h-60v104q-19 -43 -64.5 -78.5t-114.5 -35.5t-115 38t-46 106q0 63 44.5 95.5t144.5 48.5q32 5 46 7.5t36 7.5t31 10t20 13t14.5 19t3.5 25q0 42 -34.5 69.5t-89.5 27.5
q-126 0 -135 -127h-58q3 80 51.5 129.5t144.5 49.5zM231 42q73 0 121.5 50.5t48.5 132.5v47q-42 -23 -137 -41q-74 -14 -109.5 -34.5t-35.5 -65.5q0 -44 32 -66.5t80 -22.5z" />
    <glyph glyph-name="aring" unicode="&#xe5;" horiz-adv-x="539" 
d="M269 545q-42 0 -68.5 27.5t-26.5 67.5t26.5 67.5t68.5 27.5t68.5 -27.5t26.5 -67.5t-26.5 -67.5t-68.5 -27.5zM269 687q-20 0 -32.5 -14t-12.5 -33t12.5 -33t32.5 -14t32.5 14t12.5 33t-12.5 33t-32.5 14zM280 509q78 0 129.5 -41t51.5 -116v-352h-60v104
q-19 -43 -64.5 -78.5t-114.5 -35.5t-115 38t-46 106q0 63 44.5 95.5t144.5 48.5q32 5 46 7.5t36 7.5t31 10t20 13t14.5 19t3.5 25q0 42 -34.5 69.5t-89.5 27.5q-126 0 -135 -127h-58q3 80 51.5 129.5t144.5 49.5zM231 42q73 0 121.5 50.5t48.5 132.5v47q-42 -23 -137 -41
q-74 -14 -109.5 -34.5t-35.5 -65.5q0 -44 32 -66.5t80 -22.5z" />
    <glyph glyph-name="ae" unicode="&#xe6;" horiz-adv-x="906" 
d="M788 158h55q-6 -71 -60 -119.5t-145 -48.5q-147 0 -209 127q-25 -61 -79.5 -94t-127.5 -33q-69 0 -115 38t-46 106q0 63 44.5 95.5t144.5 48.5q32 5 46 7.5t36 7.5t31 10t20 13t14.5 19t3.5 25q0 42 -34.5 69.5t-89.5 27.5q-126 0 -135 -127h-58q3 80 51.5 129.5
t144.5 49.5q126 0 166 -95q64 95 183 95q102 0 157.5 -70.5t55.5 -189.5v-16h-380q5 -86 52.5 -138.5t124.5 -52.5q59 0 98.5 31.5t50.5 84.5zM630 457q-75 0 -117.5 -48.5t-49.5 -123.5h320q-6 76 -42.5 124t-110.5 48zM231 42q73 0 121.5 50.5t48.5 132.5v47
q-42 -23 -137 -41q-74 -14 -109.5 -34.5t-35.5 -65.5q0 -44 32 -66.5t80 -22.5z" />
    <glyph glyph-name="ccedilla" unicode="&#xe7;" horiz-adv-x="560" 
d="M501 159q-13 -73 -60.5 -118t-124.5 -50q54 -37 54 -91q0 -42 -32.5 -71t-91.5 -29h-44v50h36q75 0 75 55q0 23 -17.5 47t-43.5 41q-93 15 -145 86.5t-52 170.5q0 109 63.5 184t167.5 75q85 0 143 -49.5t66 -129.5h-59q-8 59 -49.5 93t-99.5 34q-79 0 -125.5 -60.5
t-46.5 -148.5q0 -91 49.5 -149t132.5 -58q121 0 146 118h58z" />
    <glyph glyph-name="egrave" unicode="&#xe8;" horiz-adv-x="560" 
d="M335 574h-67l-103 125h80zM442 158h55q-6 -71 -60 -119.5t-145 -48.5q-111 0 -174 74.5t-63 185.5t61 185t167 74q102 0 157.5 -70.5t55.5 -189.5v-16h-380q5 -86 52.5 -138.5t124.5 -52.5q59 0 98.5 31.5t50.5 84.5zM284 457q-75 0 -117.5 -48.5t-49.5 -123.5h320
q-6 76 -42.5 124t-110.5 48z" />
    <glyph glyph-name="eacute" unicode="&#xe9;" horiz-adv-x="560" 
d="M391 699l-103 -125h-67l90 125h80zM442 158h55q-6 -71 -60 -119.5t-145 -48.5q-111 0 -174 74.5t-63 185.5t61 185t167 74q102 0 157.5 -70.5t55.5 -189.5v-16h-380q5 -86 52.5 -138.5t124.5 -52.5q59 0 98.5 31.5t50.5 84.5zM284 457q-75 0 -117.5 -48.5t-49.5 -123.5
h320q-6 76 -42.5 124t-110.5 48z" />
    <glyph glyph-name="ecircumflex" unicode="&#xea;" horiz-adv-x="560" 
d="M278 642l-61 -82h-64l90 125h70l90 -125h-64zM442 158h55q-6 -71 -60 -119.5t-145 -48.5q-111 0 -174 74.5t-63 185.5t61 185t167 74q102 0 157.5 -70.5t55.5 -189.5v-16h-380q5 -86 52.5 -138.5t124.5 -52.5q59 0 98.5 31.5t50.5 84.5zM284 457q-75 0 -117.5 -48.5
t-49.5 -123.5h320q-6 76 -42.5 124t-110.5 48z" />
    <glyph glyph-name="edieresis" unicode="&#xeb;" horiz-adv-x="560" 
d="M216 657v-70h-68v70h68zM406 657v-70h-68v70h68zM442 158h55q-6 -71 -60 -119.5t-145 -48.5q-111 0 -174 74.5t-63 185.5t61 185t167 74q102 0 157.5 -70.5t55.5 -189.5v-16h-380q5 -86 52.5 -138.5t124.5 -52.5q59 0 98.5 31.5t50.5 84.5zM284 457q-75 0 -117.5 -48.5
t-49.5 -123.5h320q-6 76 -42.5 124t-110.5 48z" />
    <glyph glyph-name="igrave" unicode="&#xec;" horiz-adv-x="220" 
d="M77 699l90 -125h-67l-103 125h80zM140 0h-60v500h60v-500z" />
    <glyph glyph-name="iacute" unicode="&#xed;" horiz-adv-x="220" 
d="M143 699h80l-103 -125h-67zM140 0h-60v500h60v-500z" />
    <glyph glyph-name="icircumflex" unicode="&#xee;" horiz-adv-x="220" 
d="M235 560h-64l-61 82l-61 -82h-64l90 125h70zM140 0h-60v500h60v-500z" />
    <glyph glyph-name="idieresis" unicode="&#xef;" horiz-adv-x="220" 
d="M-20 587v70h68v-70h-68zM170 587v70h68v-70h-68zM140 0h-60v500h60v-500z" />
    <glyph glyph-name="eth" unicode="&#xf0;" horiz-adv-x="564" 
d="M409 610q100 -102 100 -312q0 -154 -58 -231t-166 -77q-100 0 -165 64t-65 175q0 107 61.5 174t158.5 67q62 0 106.5 -25.5t66.5 -64.5q-15 135 -90 203l-138 -70l-23 46l113 57q-61 32 -148 32h-36v52h36q126 0 205 -55l109 55l22 -45zM280 42q72 0 118 47t46 140
q0 90 -45.5 139.5t-118.5 49.5q-76 0 -120.5 -55t-44.5 -139q0 -88 47.5 -135t117.5 -47z" />
    <glyph glyph-name="ntilde" unicode="&#xf1;" 
d="M209 623q-19 0 -33 -13.5t-19 -34.5h-42q7 48 34.5 74t62.5 26t68 -25.5t53 -25.5q19 0 33 13.5t19 34.5h43q-7 -48 -35 -74t-63 -26t-68 25.5t-53 25.5zM336 510q73 0 112 -47t39 -141v-322h-60v296q0 85 -23.5 124t-77.5 39q-73 0 -130 -86t-57 -217v-156h-59v500h59
v-166q58 176 197 176z" />
    <glyph glyph-name="ograve" unicode="&#xf2;" horiz-adv-x="574" 
d="M254 699l90 -125h-67l-103 125h80zM287 -10q-105 0 -168.5 73t-63.5 186q0 114 63.5 187t168.5 73t168.5 -73t63.5 -187q0 -113 -63.5 -186t-168.5 -73zM287 41q81 0 127 59t46 149q0 91 -46 149.5t-127 58.5t-127 -58.5t-46 -149.5q0 -90 46 -149t127 -59z" />
    <glyph glyph-name="oacute" unicode="&#xf3;" horiz-adv-x="574" 
d="M320 699h80l-103 -125h-67zM287 -10q-105 0 -168.5 73t-63.5 186q0 114 63.5 187t168.5 73t168.5 -73t63.5 -187q0 -113 -63.5 -186t-168.5 -73zM287 41q81 0 127 59t46 149q0 91 -46 149.5t-127 58.5t-127 -58.5t-46 -149.5q0 -90 46 -149t127 -59z" />
    <glyph glyph-name="ocircumflex" unicode="&#xf4;" horiz-adv-x="574" 
d="M412 560h-64l-61 82l-61 -82h-64l90 125h70zM287 -10q-105 0 -168.5 73t-63.5 186q0 114 63.5 187t168.5 73t168.5 -73t63.5 -187q0 -113 -63.5 -186t-168.5 -73zM287 41q81 0 127 59t46 149q0 91 -46 149.5t-127 58.5t-127 -58.5t-46 -149.5q0 -90 46 -149t127 -59z" />
    <glyph glyph-name="otilde" unicode="&#xf5;" horiz-adv-x="574" 
d="M130 575q7 48 34.5 74t62.5 26t68 -25.5t53 -25.5q19 0 33 13.5t19 34.5h43q-7 -48 -35 -74t-63 -26t-68 25.5t-53 25.5q-19 0 -33 -13.5t-19 -34.5h-42zM287 -10q-105 0 -168.5 73t-63.5 186q0 114 63.5 187t168.5 73t168.5 -73t63.5 -187q0 -113 -63.5 -186t-168.5 -73
zM287 41q81 0 127 59t46 149q0 91 -46 149.5t-127 58.5t-127 -58.5t-46 -149.5q0 -90 46 -149t127 -59z" />
    <glyph glyph-name="odieresis" unicode="&#xf6;" horiz-adv-x="574" 
d="M157 587v70h68v-70h-68zM347 587v70h68v-70h-68zM287 -10q-105 0 -168.5 73t-63.5 186q0 114 63.5 187t168.5 73t168.5 -73t63.5 -187q0 -113 -63.5 -186t-168.5 -73zM287 41q81 0 127 59t46 149q0 91 -46 149.5t-127 58.5t-127 -58.5t-46 -149.5q0 -90 46 -149t127 -59z
" />
    <glyph glyph-name="divide" unicode="&#xf7;" horiz-adv-x="590" 
d="M261 382v70h68v-70h-68zM70 272h450v-52h-450v52zM261 40v70h68v-70h-68z" />
    <glyph glyph-name="oslash" unicode="&#xf8;" horiz-adv-x="574" 
d="M531 487l-61 -69q49 -69 49 -169q0 -113 -63.5 -186t-168.5 -73q-88 0 -148 52l-56 -63l-40 32l61 70q-49 67 -49 168q0 114 63.5 187t168.5 73q88 0 149 -53l55 63zM114 249q0 -72 29 -124l256 290q-45 42 -112 42q-81 0 -127 -58.5t-46 -149.5zM460 249q0 72 -29 124
l-256 -289q45 -43 112 -43q81 0 127 59t46 149z" />
    <glyph glyph-name="ugrave" unicode="&#xf9;" 
d="M339 574h-67l-103 125h80zM426 500h59v-500h-59v166q-58 -176 -197 -176q-73 0 -112 47t-39 141v322h60v-296q0 -85 23.5 -124t77.5 -39q73 0 130 86t57 217v156z" />
    <glyph glyph-name="uacute" unicode="&#xfa;" 
d="M395 699l-103 -125h-67l90 125h80zM426 500h59v-500h-59v166q-58 -176 -197 -176q-73 0 -112 47t-39 141v322h60v-296q0 -85 23.5 -124t77.5 -39q73 0 130 86t57 217v156z" />
    <glyph glyph-name="ucircumflex" unicode="&#xfb;" 
d="M282 642l-61 -82h-64l90 125h70l90 -125h-64zM426 500h59v-500h-59v166q-58 -176 -197 -176q-73 0 -112 47t-39 141v322h60v-296q0 -85 23.5 -124t77.5 -39q73 0 130 86t57 217v156z" />
    <glyph glyph-name="udieresis" unicode="&#xfc;" 
d="M220 657v-70h-68v70h68zM410 657v-70h-68v70h68zM426 500h59v-500h-59v166q-58 -176 -197 -176q-73 0 -112 47t-39 141v322h60v-296q0 -85 23.5 -124t77.5 -39q73 0 130 86t57 217v156z" />
    <glyph glyph-name="yacute" unicode="&#xfd;" horiz-adv-x="541" 
d="M380 699l-103 -125h-67l90 125h80zM445 500h61l-219 -591q-27 -72 -60 -100.5t-103 -28.5h-80v51h68q47 0 70.5 15t39.5 57l26 70l-217 527h66l182 -445z" />
    <glyph glyph-name="thorn" unicode="&#xfe;" horiz-adv-x="567" 
d="M296 510q95 0 155.5 -72t60.5 -192q0 -116 -57 -186t-154 -70q-66 0 -106 29.5t-56 62.5v-302h-59v930h59v-294q19 43 60.5 68.5t96.5 25.5zM297 44q77 0 116.5 53.5t39.5 143.5q0 92 -41 154t-120 62q-74 0 -113.5 -54t-39.5 -149q0 -100 41 -155t117 -55z" />
    <glyph glyph-name="ydieresis" unicode="&#xff;" horiz-adv-x="541" 
d="M205 657v-70h-68v70h68zM395 657v-70h-68v70h68zM445 500h61l-219 -591q-27 -72 -60 -100.5t-103 -28.5h-80v51h68q47 0 70.5 15t39.5 57l26 70l-217 527h66l182 -445z" />
    <glyph glyph-name="Amacron" unicode="&#x100;" horiz-adv-x="644" 
d="M470 850v-57h-297v57h297zM546 0l-67 187h-314l-67 -187h-68l255 700h74l255 -700h-68zM186 245h272l-136 377z" />
    <glyph glyph-name="amacron" unicode="&#x101;" horiz-adv-x="539" 
d="M404 637v-52h-270v52h270zM280 509q78 0 129.5 -41t51.5 -116v-352h-60v104q-19 -43 -64.5 -78.5t-114.5 -35.5t-115 38t-46 106q0 63 44.5 95.5t144.5 48.5q32 5 46 7.5t36 7.5t31 10t20 13t14.5 19t3.5 25q0 42 -34.5 69.5t-89.5 27.5q-126 0 -135 -127h-58
q3 80 51.5 129.5t144.5 49.5zM231 42q73 0 121.5 50.5t48.5 132.5v47q-42 -23 -137 -41q-74 -14 -109.5 -34.5t-35.5 -65.5q0 -44 32 -66.5t80 -22.5z" />
    <glyph glyph-name="Abreve" unicode="&#x102;" horiz-adv-x="644" 
d="M323 768q-59 0 -97 38.5t-38 93.5h62q2 -32 20 -54.5t52 -22.5t51 22t20 55h62q0 -55 -36 -93.5t-96 -38.5zM546 0l-67 187h-314l-67 -187h-68l255 700h74l255 -700h-68zM186 245h272l-136 377z" />
    <glyph glyph-name="abreve" unicode="&#x103;" horiz-adv-x="539" 
d="M270 570q-54 0 -88.5 35t-34.5 85h56q2 -29 18.5 -49.5t47.5 -20.5t46.5 20.5t17.5 49.5h57q0 -50 -33 -85t-87 -35zM280 509q78 0 129.5 -41t51.5 -116v-352h-60v104q-19 -43 -64.5 -78.5t-114.5 -35.5t-115 38t-46 106q0 63 44.5 95.5t144.5 48.5q32 5 46 7.5t36 7.5
t31 10t20 13t14.5 19t3.5 25q0 42 -34.5 69.5t-89.5 27.5q-126 0 -135 -127h-58q3 80 51.5 129.5t144.5 49.5zM231 42q73 0 121.5 50.5t48.5 132.5v47q-42 -23 -137 -41q-74 -14 -109.5 -34.5t-35.5 -65.5q0 -44 32 -66.5t80 -22.5z" />
    <glyph glyph-name="Aogonek" unicode="&#x104;" horiz-adv-x="644" 
d="M617 -163h16v-57h-28q-64 0 -100 32t-36 78q0 67 77 110l-67 187h-314l-67 -187h-68l255 700h74l255 -700q-32 -18 -55.5 -47t-23.5 -58q0 -58 82 -58zM186 245h272l-136 377z" />
    <glyph glyph-name="aogonek" unicode="&#x105;" horiz-adv-x="539" 
d="M464 -148h14v-52h-25q-59 0 -91.5 29t-32.5 71q0 62 72 101v103q-19 -43 -64.5 -78.5t-114.5 -35.5t-115 38t-46 106q0 63 44.5 95.5t144.5 48.5q32 5 46 7.5t36 7.5t31 10t20 13t14.5 19t3.5 25q0 42 -34.5 69.5t-89.5 27.5q-126 0 -135 -127h-58q3 80 51.5 129.5
t144.5 49.5q78 0 129.5 -41t51.5 -116v-352q-29 -16 -50.5 -42.5t-21.5 -52.5q0 -53 75 -53zM231 42q73 0 121.5 50.5t48.5 132.5v47q-42 -23 -137 -41q-74 -14 -109.5 -34.5t-35.5 -65.5q0 -44 32 -66.5t80 -22.5z" />
    <glyph glyph-name="Cacute" unicode="&#x106;" horiz-adv-x="736" 
d="M407 914h88l-113 -138h-74zM670 230q-16 -116 -90.5 -178t-190.5 -62q-150 0 -236 98t-86 254q0 162 88.5 265t236.5 103q113 0 184.5 -62.5t87.5 -167.5h-67q-13 76 -66.5 124t-142.5 48q-119 0 -187.5 -87.5t-68.5 -221.5q0 -131 69 -213t193 -82q177 0 211 182h65z
" />
    <glyph glyph-name="cacute" unicode="&#x107;" horiz-adv-x="560" 
d="M308 699h80l-103 -125h-67zM436 330q-8 59 -49.5 93t-99.5 34q-79 0 -125.5 -60.5t-46.5 -148.5q0 -91 49.5 -149t132.5 -58q121 0 146 118h58q-14 -78 -66.5 -123.5t-138.5 -45.5q-113 0 -177 74.5t-64 185.5q0 109 63.5 184t167.5 75q85 0 143 -49.5t66 -129.5h-59z
" />
    <glyph glyph-name="Ccircumflex" unicode="&#x108;" horiz-adv-x="736" 
d="M519 767h-70l-67 90l-68 -90h-70l99 138h77zM670 230q-16 -116 -90.5 -178t-190.5 -62q-150 0 -236 98t-86 254q0 162 88.5 265t236.5 103q113 0 184.5 -62.5t87.5 -167.5h-67q-13 76 -66.5 124t-142.5 48q-119 0 -187.5 -87.5t-68.5 -221.5q0 -131 69 -213t193 -82
q177 0 211 182h65z" />
    <glyph glyph-name="ccircumflex" unicode="&#x109;" horiz-adv-x="560" 
d="M400 560h-64l-61 82l-61 -82h-64l90 125h70zM436 330q-8 59 -49.5 93t-99.5 34q-79 0 -125.5 -60.5t-46.5 -148.5q0 -91 49.5 -149t132.5 -58q121 0 146 118h58q-14 -78 -66.5 -123.5t-138.5 -45.5q-113 0 -177 74.5t-64 185.5q0 109 63.5 184t167.5 75q85 0 143 -49.5
t66 -129.5h-59z" />
    <glyph glyph-name="Cdotaccent" unicode="&#x10a;" horiz-adv-x="736" 
d="M340 800v85h84v-85h-84zM670 230q-16 -116 -90.5 -178t-190.5 -62q-150 0 -236 98t-86 254q0 162 88.5 265t236.5 103q113 0 184.5 -62.5t87.5 -167.5h-67q-13 76 -66.5 124t-142.5 48q-119 0 -187.5 -87.5t-68.5 -221.5q0 -131 69 -213t193 -82q177 0 211 182h65z" />
    <glyph glyph-name="cdotaccent" unicode="&#x10b;" horiz-adv-x="560" 
d="M237 596v78h76v-78h-76zM436 330q-8 59 -49.5 93t-99.5 34q-79 0 -125.5 -60.5t-46.5 -148.5q0 -91 49.5 -149t132.5 -58q121 0 146 118h58q-14 -78 -66.5 -123.5t-138.5 -45.5q-113 0 -177 74.5t-64 185.5q0 109 63.5 184t167.5 75q85 0 143 -49.5t66 -129.5h-59z" />
    <glyph glyph-name="Ccaron" unicode="&#x10c;" horiz-adv-x="736" 
d="M449 905h70l-99 -138h-77l-99 138h70l68 -91zM670 230q-16 -116 -90.5 -178t-190.5 -62q-150 0 -236 98t-86 254q0 162 88.5 265t236.5 103q113 0 184.5 -62.5t87.5 -167.5h-67q-13 76 -66.5 124t-142.5 48q-119 0 -187.5 -87.5t-68.5 -221.5q0 -131 69 -213t193 -82
q177 0 211 182h65z" />
    <glyph glyph-name="ccaron" unicode="&#x10d;" horiz-adv-x="560" 
d="M336 685h64l-90 -125h-70l-90 125h64l61 -82zM436 330q-8 59 -49.5 93t-99.5 34q-79 0 -125.5 -60.5t-46.5 -148.5q0 -91 49.5 -149t132.5 -58q121 0 146 118h58q-14 -78 -66.5 -123.5t-138.5 -45.5q-113 0 -177 74.5t-64 185.5q0 109 63.5 184t167.5 75q85 0 143 -49.5
t66 -129.5h-59z" />
    <glyph glyph-name="Dcaron" unicode="&#x10e;" horiz-adv-x="692" 
d="M347 767h-77l-99 138h70l68 -91l67 91h70zM292 700q163 0 248 -94.5t85 -255.5t-85 -255.5t-248 -94.5h-202v700h202zM282 57q63 0 112 16.5t79.5 43.5t50 66t27 80t7.5 89q0 291 -276 291h-128v-586h128z" />
    <glyph glyph-name="dcaron" unicode="&#x10f;" horiz-adv-x="568" 
d="M428 416v294h60v-710h-60v82q-16 -33 -55.5 -62.5t-106.5 -29.5q-97 0 -154 70t-57 186q0 120 60.5 192t155.5 72q55 0 97 -25.5t60 -68.5zM558 700h76v-48q0 -61 -18 -87.5t-68 -34.5v30q28 7 37 21.5t9 48.5h-36v70zM270 44q76 0 117 55t41 155q0 95 -39 149t-114 54
q-79 0 -120 -62t-41 -154q0 -90 39.5 -143.5t116.5 -53.5z" />
    <glyph glyph-name="Dcroat" unicode="&#x110;" horiz-adv-x="692" 
d="M292 700q163 0 248 -94.5t85 -255.5t-85 -255.5t-248 -94.5h-202v320h-134v58h134v322h202zM282 57q63 0 112 16.5t79.5 43.5t50 66t27 80t7.5 89q0 291 -276 291h-128v-265h264v-58h-264v-263h128z" />
    <glyph glyph-name="dcroat" unicode="&#x111;" horiz-adv-x="568" 
d="M561 620v-52h-73v-568h-60v82q-16 -33 -55.5 -62.5t-106.5 -29.5q-97 0 -154 70t-57 186q0 120 60.5 192t155.5 72q55 0 97 -25.5t60 -68.5v152h-142v52h142v90h60v-90h73zM270 44q76 0 117 55t41 155q0 95 -39 149t-114 54q-79 0 -120 -62t-41 -154q0 -90 39.5 -143.5
t116.5 -53.5z" />
    <glyph glyph-name="Emacron" unicode="&#x112;" horiz-adv-x="575" 
d="M443 850v-57h-297v57h297zM500 642h-345v-257h325v-58h-325v-269h345v-58h-410v700h410v-58z" />
    <glyph glyph-name="emacron" unicode="&#x113;" horiz-adv-x="560" 
d="M413 637v-52h-270v52h270zM442 158h55q-6 -71 -60 -119.5t-145 -48.5q-111 0 -174 74.5t-63 185.5t61 185t167 74q102 0 157.5 -70.5t55.5 -189.5v-16h-380q5 -86 52.5 -138.5t124.5 -52.5q59 0 98.5 31.5t50.5 84.5zM284 457q-75 0 -117.5 -48.5t-49.5 -123.5h320
q-6 76 -42.5 124t-110.5 48z" />
    <glyph glyph-name="Ebreve" unicode="&#x114;" horiz-adv-x="575" 
d="M296 768q-59 0 -97 38.5t-38 93.5h62q2 -32 20 -54.5t52 -22.5t51 22t20 55h62q0 -55 -36 -93.5t-96 -38.5zM500 642h-345v-257h325v-58h-325v-269h345v-58h-410v700h410v-58z" />
    <glyph glyph-name="ebreve" unicode="&#x115;" horiz-adv-x="560" 
d="M279 570q-54 0 -88.5 35t-34.5 85h56q2 -29 18.5 -49.5t47.5 -20.5t46.5 20.5t17.5 49.5h57q0 -50 -33 -85t-87 -35zM442 158h55q-6 -71 -60 -119.5t-145 -48.5q-111 0 -174 74.5t-63 185.5t61 185t167 74q102 0 157.5 -70.5t55.5 -189.5v-16h-380q5 -86 52.5 -138.5
t124.5 -52.5q59 0 98.5 31.5t50.5 84.5zM284 457q-75 0 -117.5 -48.5t-49.5 -123.5h320q-6 76 -42.5 124t-110.5 48z" />
    <glyph glyph-name="Edotaccent" unicode="&#x116;" horiz-adv-x="575" 
d="M337 885v-85h-84v85h84zM500 642h-345v-257h325v-58h-325v-269h345v-58h-410v700h410v-58z" />
    <glyph glyph-name="edotaccent" unicode="&#x117;" horiz-adv-x="560" 
d="M316 674v-78h-76v78h76zM442 158h55q-6 -71 -60 -119.5t-145 -48.5q-111 0 -174 74.5t-63 185.5t61 185t167 74q102 0 157.5 -70.5t55.5 -189.5v-16h-380q5 -86 52.5 -138.5t124.5 -52.5q59 0 98.5 31.5t50.5 84.5zM284 457q-75 0 -117.5 -48.5t-49.5 -123.5h320
q-6 76 -42.5 124t-110.5 48z" />
    <glyph glyph-name="Eogonek" unicode="&#x118;" horiz-adv-x="575" 
d="M500 642h-345v-257h325v-58h-325v-269h345v-58h-147q-32 -18 -55.5 -47t-23.5 -58q0 -58 82 -58h16v-57h-28q-64 0 -100 32t-36 78q0 68 76 110h-194v700h410v-58z" />
    <glyph glyph-name="eogonek" unicode="&#x119;" horiz-adv-x="560" 
d="M334 -7q-26 -17 -43.5 -41t-17.5 -47q0 -53 75 -53h14v-52h-25q-59 0 -91.5 29t-32.5 71q0 54 55 91q-101 9 -157 81.5t-56 177.5q0 111 61 185t167 74q102 0 157.5 -70.5t55.5 -189.5v-16h-380q5 -86 52.5 -138.5t124.5 -52.5q59 0 98.5 31.5t50.5 84.5h55
q-6 -61 -48.5 -107t-114.5 -58zM284 457q-75 0 -117.5 -48.5t-49.5 -123.5h320q-6 76 -42.5 124t-110.5 48z" />
    <glyph glyph-name="Ecaron" unicode="&#x11a;" horiz-adv-x="575" 
d="M333 767h-77l-99 138h70l68 -91l67 91h70zM500 642h-345v-257h325v-58h-325v-269h345v-58h-410v700h410v-58z" />
    <glyph glyph-name="ecaron" unicode="&#x11b;" horiz-adv-x="560" 
d="M313 560h-70l-90 125h64l61 -82l61 82h64zM442 158h55q-6 -71 -60 -119.5t-145 -48.5q-111 0 -174 74.5t-63 185.5t61 185t167 74q102 0 157.5 -70.5t55.5 -189.5v-16h-380q5 -86 52.5 -138.5t124.5 -52.5q59 0 98.5 31.5t50.5 84.5zM284 457q-75 0 -117.5 -48.5
t-49.5 -123.5h320q-6 76 -42.5 124t-110.5 48z" />
    <glyph glyph-name="Gcircumflex" unicode="&#x11c;" horiz-adv-x="763" 
d="M390 857l-68 -90h-70l99 138h77l99 -138h-70zM361 347h320v-347h-49l-7 136q-61 -146 -234 -146q-149 0 -236.5 100t-87.5 258q0 159 89.5 260.5t237.5 101.5q126 0 201 -63t84 -174h-64q-10 85 -69.5 132t-154.5 47q-120 0 -189.5 -85t-69.5 -217t70 -217t193 -85
q102 0 162 64t60 177h-256v58z" />
    <glyph glyph-name="gcircumflex" unicode="&#x11d;" 
d="M273 642l-61 -82h-64l90 125h70l90 -125h-64zM426 500h59v-501q0 -110 -53.5 -169.5t-157.5 -59.5q-97 0 -149 52t-56 130h56q5 -53 39 -90.5t111 -37.5q45 0 75.5 14t46.5 41t22.5 58t6.5 72v76q-14 -34 -53.5 -64.5t-106.5 -30.5q-97 0 -154 70t-57 186q0 120 60.5 192
t154.5 72q55 0 96.5 -25t59.5 -68v83zM269 44q76 0 116.5 55t40.5 153q0 95 -38.5 149t-111.5 54q-79 0 -119.5 -61t-40.5 -153q0 -89 39 -143t114 -54z" />
    <glyph glyph-name="Gbreve" unicode="&#x11e;" horiz-adv-x="763" 
d="M391 768q-59 0 -97 38.5t-38 93.5h62q2 -32 20 -54.5t52 -22.5t51 22t20 55h62q0 -55 -36 -93.5t-96 -38.5zM361 347h320v-347h-49l-7 136q-61 -146 -234 -146q-149 0 -236.5 100t-87.5 258q0 159 89.5 260.5t237.5 101.5q126 0 201 -63t84 -174h-64q-10 85 -69.5 132
t-154.5 47q-120 0 -189.5 -85t-69.5 -217t70 -217t193 -85q102 0 162 64t60 177h-256v58z" />
    <glyph glyph-name="gbreve" unicode="&#x11f;" 
d="M274 570q-54 0 -88.5 35t-34.5 85h56q2 -29 18.5 -49.5t47.5 -20.5t46.5 20.5t17.5 49.5h57q0 -50 -33 -85t-87 -35zM426 500h59v-501q0 -110 -53.5 -169.5t-157.5 -59.5q-97 0 -149 52t-56 130h56q5 -53 39 -90.5t111 -37.5q45 0 75.5 14t46.5 41t22.5 58t6.5 72v76
q-14 -34 -53.5 -64.5t-106.5 -30.5q-97 0 -154 70t-57 186q0 120 60.5 192t154.5 72q55 0 96.5 -25t59.5 -68v83zM269 44q76 0 116.5 55t40.5 153q0 95 -38.5 149t-111.5 54q-79 0 -119.5 -61t-40.5 -153q0 -89 39 -143t114 -54z" />
    <glyph glyph-name="Gdotaccent" unicode="&#x120;" horiz-adv-x="763" 
d="M432 885v-85h-84v85h84zM361 347h320v-347h-49l-7 136q-61 -146 -234 -146q-149 0 -236.5 100t-87.5 258q0 159 89.5 260.5t237.5 101.5q126 0 201 -63t84 -174h-64q-10 85 -69.5 132t-154.5 47q-120 0 -189.5 -85t-69.5 -217t70 -217t193 -85q102 0 162 64t60 177h-256
v58z" />
    <glyph glyph-name="gdotaccent" unicode="&#x121;" 
d="M311 674v-78h-76v78h76zM426 500h59v-501q0 -110 -53.5 -169.5t-157.5 -59.5q-97 0 -149 52t-56 130h56q5 -53 39 -90.5t111 -37.5q45 0 75.5 14t46.5 41t22.5 58t6.5 72v76q-14 -34 -53.5 -64.5t-106.5 -30.5q-97 0 -154 70t-57 186q0 120 60.5 192t154.5 72
q55 0 96.5 -25t59.5 -68v83zM269 44q76 0 116.5 55t40.5 153q0 95 -38.5 149t-111.5 54q-79 0 -119.5 -61t-40.5 -153q0 -89 39 -143t114 -54z" />
    <glyph glyph-name="Gcommaaccent" unicode="&#x122;" horiz-adv-x="763" 
d="M361 347h320v-347h-49l-7 136q-61 -146 -234 -146q-149 0 -236.5 100t-87.5 258q0 159 89.5 260.5t237.5 101.5q126 0 201 -63t84 -174h-64q-10 85 -69.5 132t-154.5 47q-120 0 -189.5 -85t-69.5 -217t70 -217t193 -85q102 0 162 64t60 177h-256v58zM350 -152v77h84v-53
q0 -67 -20 -96t-75 -38v33q31 8 40.5 24t9.5 53h-39z" />
    <glyph glyph-name="gcommaaccent" unicode="&#x123;" 
d="M305 638v-62h-64v43q0 54 15 77.5t58 30.5v-27q-24 -6 -31 -19t-7 -43h29zM426 500h59v-501q0 -110 -53.5 -169.5t-157.5 -59.5q-97 0 -149 52t-56 130h56q5 -53 39 -90.5t111 -37.5q45 0 75.5 14t46.5 41t22.5 58t6.5 72v76q-14 -34 -53.5 -64.5t-106.5 -30.5
q-97 0 -154 70t-57 186q0 120 60.5 192t154.5 72q55 0 96.5 -25t59.5 -68v83zM269 44q76 0 116.5 55t40.5 153q0 95 -38.5 149t-111.5 54q-79 0 -119.5 -61t-40.5 -153q0 -89 39 -143t114 -54z" />
    <glyph glyph-name="Hcircumflex" unicode="&#x124;" horiz-adv-x="713" 
d="M356 857l-68 -90h-70l99 138h77l99 -138h-70zM558 700h65v-700h-65v327h-403v-327h-65v700h65v-315h403v315z" />
    <glyph glyph-name="hcircumflex" unicode="&#x125;" 
d="M157 770l-61 82l-61 -82h-64l90 125h70l90 -125h-64zM336 510q73 0 112 -47t39 -141v-322h-60v296q0 85 -23.5 124t-77.5 39q-73 0 -130 -86t-57 -217v-156h-59v710h59v-376q58 176 197 176z" />
    <glyph glyph-name="Hbar" unicode="&#x126;" horiz-adv-x="693" 
d="M548 700h65v-700h-65v194h-403v-194h-65v700h65v-206h403v206zM145 252h403v184h-403v-184z" />
    <glyph glyph-name="hbar" unicode="&#x127;" 
d="M336 510q73 0 112 -47t39 -141v-322h-60v296q0 85 -23.5 124t-77.5 39q-73 0 -130 -86t-57 -217v-156h-59v568h-97v52h97v90h59v-90h119v-52h-119v-234q58 176 197 176z" />
    <glyph glyph-name="Itilde" unicode="&#x128;" horiz-adv-x="245" 
d="M-49 791q8 53 38.5 81.5t68.5 28.5q30 0 53 -14.5t41.5 -28.5t38.5 -14t36 15t21 38h47q-8 -53 -38.5 -81.5t-68.5 -28.5q-31 0 -53.5 14t-41.5 28t-39 14t-36 -15t-21 -37h-46zM155 0h-65v700h65v-700z" />
    <glyph glyph-name="itilde" unicode="&#x129;" horiz-adv-x="220" 
d="M-47 575q7 48 34.5 74t62.5 26t68 -25.5t53 -25.5q19 0 33 13.5t19 34.5h43q-7 -48 -35 -74t-63 -26t-68 25.5t-53 25.5q-19 0 -33 -13.5t-19 -34.5h-42zM140 0h-60v500h60v-500z" />
    <glyph glyph-name="Imacron" unicode="&#x12a;" horiz-adv-x="245" 
d="M-26 850h297v-57h-297v57zM155 0h-65v700h65v-700z" />
    <glyph glyph-name="imacron" unicode="&#x12b;" horiz-adv-x="220" 
d="M-25 637h270v-52h-270v52zM140 0h-60v500h60v-500z" />
    <glyph glyph-name="Ibreve" unicode="&#x12c;" horiz-adv-x="245" 
d="M256 900q0 -55 -36 -93.5t-96 -38.5q-59 0 -97 38.5t-38 93.5h62q2 -32 20 -54.5t52 -22.5t51 22t20 55h62zM155 0h-65v700h65v-700z" />
    <glyph glyph-name="ibreve" unicode="&#x12d;" horiz-adv-x="220" 
d="M231 690q0 -50 -33 -85t-87 -35t-88.5 35t-34.5 85h56q2 -29 18.5 -49.5t47.5 -20.5t46.5 20.5t17.5 49.5h57zM140 0h-60v500h60v-500z" />
    <glyph glyph-name="Iogonek" unicode="&#x12e;" horiz-adv-x="245" 
d="M158 -163h16v-57h-28q-64 0 -100 32t-36 78q0 70 80 112v698h65v-700q-32 -18 -55.5 -47t-23.5 -58q0 -58 82 -58z" />
    <glyph glyph-name="iogonek" unicode="&#x12f;" horiz-adv-x="220" 
d="M148 674v-78h-76v78h76zM143 -148h14v-52h-25q-59 0 -91.5 29t-32.5 71q0 62 72 101v499h60v-500q-29 -16 -50.5 -42.5t-21.5 -52.5q0 -53 75 -53z" />
    <glyph glyph-name="Idotaccent" unicode="&#x130;" horiz-adv-x="245" 
d="M81 800v85h84v-85h-84zM155 0h-65v700h65v-700z" />
    <glyph glyph-name="dotlessi" unicode="&#x131;" horiz-adv-x="220" 
d="M140 0h-60v500h60v-500z" />
    <glyph glyph-name="IJ" unicode="&#x132;" horiz-adv-x="860" 
d="M155 0h-65v700h65v-700zM708 700h65v-440q0 -131 -62.5 -200.5t-178.5 -69.5q-112 0 -174 67t-62 188v32h64v-32q0 -96 45 -146.5t124 -50.5q86 0 132.5 56t46.5 165v431z" />
    <glyph glyph-name="ij" unicode="&#x133;" horiz-adv-x="440" 
d="M148 674v-78h-76v78h76zM292 674h76v-78h-76v78zM80 0v500h60v-500h-60zM300 500h60v-574q0 -68 -38 -107t-108 -39h-69v52h61q95 0 94 104v564z" />
    <glyph glyph-name="Jcircumflex" unicode="&#x134;" horiz-adv-x="626" 
d="M644 767h-70l-67 90l-68 -90h-70l99 138h77zM474 700h65v-440q0 -131 -62.5 -200.5t-178.5 -69.5q-112 0 -174 67t-62 188v32h64v-32q0 -96 45 -146.5t124 -50.5q86 0 132.5 56t46.5 165v431z" />
    <glyph glyph-name="jcircumflex" unicode="&#x135;" horiz-adv-x="220" 
d="M145 685l90 -125h-64l-61 82l-61 -82h-64l90 125h70zM80 500h60v-574q0 -68 -38 -107t-108 -39h-69v52h61q95 0 94 104v564z" />
    <glyph glyph-name="Kcommaaccent" unicode="&#x136;" horiz-adv-x="588" 
d="M259 374l303 -374h-81l-266 324l-60 -68v-256h-65v700h65v-346l306 346h84zM273 -152v77h84v-53q0 -67 -20 -96t-75 -38v33q31 8 40.5 24t9.5 53h-39z" />
    <glyph glyph-name="kcommaaccent" unicode="&#x137;" horiz-adv-x="486" 
d="M237 277l227 -277h-72l-196 234l-59 -61v-173h-57v710h57v-455l240 245h75zM222 -138v70h76v-48q0 -61 -18 -87.5t-68 -34.5v30q28 7 37 21.5t9 48.5h-36z" />
    <glyph glyph-name="Lacute" unicode="&#x139;" horiz-adv-x="577" 
d="M237 914l-113 -138h-74l99 138h88zM158 58h361v-58h-429v700h68v-642z" />
    <glyph glyph-name="lacute" unicode="&#x13a;" horiz-adv-x="220" 
d="M143 909h80l-103 -125h-67zM140 0h-60v710h60v-710z" />
    <glyph glyph-name="Lcommaaccent" unicode="&#x13b;" horiz-adv-x="577" 
d="M158 58h361v-58h-429v700h68v-642zM263 -152v77h84v-53q0 -67 -20 -96t-75 -38v33q31 8 40.5 24t9.5 53h-39z" />
    <glyph glyph-name="lcommaaccent" unicode="&#x13c;" horiz-adv-x="220" 
d="M140 710v-710h-60v710h60zM71 -68h76v-48q0 -61 -18 -87.5t-68 -34.5v30q28 7 37 21.5t9 48.5h-36v70z" />
    <glyph glyph-name="Lcaron" unicode="&#x13d;" horiz-adv-x="577" 
d="M158 58h361v-58h-429v700h68v-642zM363 647q0 -67 -20 -96t-75 -38v33q31 8 40.5 24t9.5 53h-39v77h84v-53z" />
    <glyph glyph-name="lcaron" unicode="&#x13e;" horiz-adv-x="220" 
d="M80 0v710h60v-710h-60zM211 700h76v-48q0 -61 -18 -87.5t-68 -34.5v30q28 7 37 21.5t9 48.5h-36v70z" />
    <glyph glyph-name="Ldot" unicode="&#x13f;" horiz-adv-x="577" 
d="M158 58h361v-58h-429v700h68v-642zM378 412v-78h-76v78h76z" />
    <glyph glyph-name="Lslash" unicode="&#x141;" horiz-adv-x="577" 
d="M158 58h361v-58h-429v264l-105 -73v76l105 73v360h68v-313l165 114v-76l-165 -114v-253z" />
    <glyph glyph-name="lslash" unicode="&#x142;" horiz-adv-x="220" 
d="M239 509v-73l-99 -90v-346h-60v291l-99 -90v73l99 90v346h60v-291z" />
    <glyph glyph-name="Nacute" unicode="&#x143;" horiz-adv-x="720" 
d="M473 914l-113 -138h-74l99 138h88zM566 700h64v-700h-84l-392 626v-626h-64v700h85l391 -626v626z" />
    <glyph glyph-name="nacute" unicode="&#x144;" 
d="M385 699l-103 -125h-67l90 125h80zM336 510q73 0 112 -47t39 -141v-322h-60v296q0 85 -23.5 124t-77.5 39q-73 0 -130 -86t-57 -217v-156h-59v500h59v-166q58 176 197 176z" />
    <glyph glyph-name="Ncommaaccent" unicode="&#x145;" horiz-adv-x="720" 
d="M566 700h64v-700h-84l-392 626v-626h-64v700h85l391 -626v626zM328 -152v77h84v-53q0 -67 -20 -96t-75 -38v33q31 8 40.5 24t9.5 53h-39z" />
    <glyph glyph-name="ncommaaccent" unicode="&#x146;" 
d="M336 510q73 0 112 -47t39 -141v-322h-60v296q0 85 -23.5 124t-77.5 39q-73 0 -130 -86t-57 -217v-156h-59v500h59v-166q58 176 197 176zM244 -138v70h76v-48q0 -61 -18 -87.5t-68 -34.5v30q28 7 37 21.5t9 48.5h-36z" />
    <glyph glyph-name="Ncaron" unicode="&#x147;" horiz-adv-x="720" 
d="M398 767h-77l-99 138h70l68 -91l67 91h70zM566 700h64v-700h-84l-392 626v-626h-64v700h85l391 -626v626z" />
    <glyph glyph-name="ncaron" unicode="&#x148;" 
d="M307 560h-70l-90 125h64l61 -82l61 82h64zM336 510q73 0 112 -47t39 -141v-322h-60v296q0 85 -23.5 124t-77.5 39q-73 0 -130 -86t-57 -217v-156h-59v500h59v-166q58 176 197 176z" />
    <glyph glyph-name="Eng" unicode="&#x14a;" horiz-adv-x="720" 
d="M566 700h64v-767q0 -71 -39 -112t-108 -41h-75v58h64q48 0 70 25t23 81v56h-19l-392 626v-626h-64v700h85l391 -626v626z" />
    <glyph glyph-name="eng" unicode="&#x14b;" 
d="M336 510q73 0 112 -47t39 -141v-396q0 -68 -38 -107t-108 -39h-69v52h61q95 0 94 104v360q0 85 -23.5 124t-77.5 39q-73 0 -130 -86t-57 -217v-156h-59v500h59v-166q58 176 197 176z" />
    <glyph glyph-name="Omacron" unicode="&#x14c;" horiz-adv-x="776" 
d="M239 850h297v-57h-297v57zM388 -10q-150 0 -235.5 97.5t-85.5 262.5t85.5 262.5t235.5 97.5t235.5 -97.5t85.5 -262.5t-85.5 -262.5t-235.5 -97.5zM388 48q118 0 187 82t69 220t-69 220t-187 82t-187 -82t-69 -220t69 -220t187 -82z" />
    <glyph glyph-name="omacron" unicode="&#x14d;" horiz-adv-x="574" 
d="M152 637h270v-52h-270v52zM287 -10q-105 0 -168.5 73t-63.5 186q0 114 63.5 187t168.5 73t168.5 -73t63.5 -187q0 -113 -63.5 -186t-168.5 -73zM287 41q81 0 127 59t46 149q0 91 -46 149.5t-127 58.5t-127 -58.5t-46 -149.5q0 -90 46 -149t127 -59z" />
    <glyph glyph-name="Obreve" unicode="&#x14e;" horiz-adv-x="776" 
d="M521 900q0 -55 -36 -93.5t-96 -38.5q-59 0 -97 38.5t-38 93.5h62q2 -32 20 -54.5t52 -22.5t51 22t20 55h62zM388 -10q-150 0 -235.5 97.5t-85.5 262.5t85.5 262.5t235.5 97.5t235.5 -97.5t85.5 -262.5t-85.5 -262.5t-235.5 -97.5zM388 48q118 0 187 82t69 220t-69 220
t-187 82t-187 -82t-69 -220t69 -220t187 -82z" />
    <glyph glyph-name="obreve" unicode="&#x14f;" horiz-adv-x="574" 
d="M408 690q0 -50 -33 -85t-87 -35t-88.5 35t-34.5 85h56q2 -29 18.5 -49.5t47.5 -20.5t46.5 20.5t17.5 49.5h57zM287 -10q-105 0 -168.5 73t-63.5 186q0 114 63.5 187t168.5 73t168.5 -73t63.5 -187q0 -113 -63.5 -186t-168.5 -73zM287 41q81 0 127 59t46 149
q0 91 -46 149.5t-127 58.5t-127 -58.5t-46 -149.5q0 -90 46 -149t127 -59z" />
    <glyph glyph-name="Ohungarumlaut" unicode="&#x150;" horiz-adv-x="776" 
d="M344 914h80l-91 -137h-66zM497 914h80l-91 -137h-66zM388 -10q-150 0 -235.5 97.5t-85.5 262.5t85.5 262.5t235.5 97.5t235.5 -97.5t85.5 -262.5t-85.5 -262.5t-235.5 -97.5zM388 48q118 0 187 82t69 220t-69 220t-187 82t-187 -82t-69 -220t69 -220t187 -82z" />
    <glyph glyph-name="ohungarumlaut" unicode="&#x151;" horiz-adv-x="574" 
d="M252 690h73l-83 -125h-60zM391 690h73l-83 -125h-60zM287 -10q-105 0 -168.5 73t-63.5 186q0 114 63.5 187t168.5 73t168.5 -73t63.5 -187q0 -113 -63.5 -186t-168.5 -73zM287 41q81 0 127 59t46 149q0 91 -46 149.5t-127 58.5t-127 -58.5t-46 -149.5q0 -90 46 -149
t127 -59z" />
    <glyph glyph-name="OE" unicode="&#x152;" horiz-adv-x="1129" 
d="M1054 642h-345v-257h325v-58h-325v-269h345v-58h-410v114q-86 -124 -256 -124q-150 0 -235.5 97.5t-85.5 262.5t85.5 262.5t235.5 97.5q170 0 256 -124v114h410v-58zM388 48q118 0 187 82t69 220t-69 220t-187 82t-187 -82t-69 -220t69 -220t187 -82z" />
    <glyph glyph-name="oe" unicode="&#x153;" horiz-adv-x="965" 
d="M847 158h55q-6 -71 -60 -119.5t-145 -48.5q-73 0 -126 33.5t-81 90.5q-28 -58 -80.5 -91t-122.5 -33q-105 0 -168.5 73t-63.5 186q0 114 63.5 187t168.5 73q69 0 121.5 -32.5t80.5 -90.5q28 57 79 90t120 33q102 0 157.5 -70.5t55.5 -189.5v-16h-380q5 -86 52.5 -138.5
t124.5 -52.5q59 0 98.5 31.5t50.5 84.5zM287 41q81 0 127 59t46 149q0 91 -46 149.5t-127 58.5t-127 -58.5t-46 -149.5q0 -90 46 -149t127 -59zM689 457q-75 0 -117.5 -48.5t-49.5 -123.5h320q-6 76 -42.5 124t-110.5 48z" />
    <glyph glyph-name="Racute" unicode="&#x154;" horiz-adv-x="628" 
d="M401 914l-113 -138h-74l99 138h88zM519 174l56 -174h-69l-56 169q-6 20 -14.5 35.5t-15.5 27t-20 20.5t-21 15t-27 9.5t-29 6t-35.5 3t-37.5 1t-45.5 0t-49.5 -0.5v-286h-65v700h222q119 0 177 -59.5t58 -144.5q0 -65 -35.5 -116t-107.5 -72q81 -27 115 -134zM329 642
h-174v-298h174q77 0 115 46t38 106q0 59 -38 102.5t-115 43.5z" />
    <glyph glyph-name="racute" unicode="&#x155;" horiz-adv-x="415" 
d="M336 699l-103 -125h-67l90 125h80zM308 500h62v-51h-66q-70 0 -117 -54.5t-47 -176.5v-218h-60v500h60v-126q22 63 60.5 94.5t107.5 31.5z" />
    <glyph glyph-name="Rcommaaccent" unicode="&#x156;" horiz-adv-x="628" 
d="M519 174l56 -174h-69l-56 169q-6 20 -14.5 35.5t-15.5 27t-20 20.5t-21 15t-27 9.5t-29 6t-35.5 3t-37.5 1t-45.5 0t-49.5 -0.5v-286h-65v700h222q119 0 177 -59.5t58 -144.5q0 -65 -35.5 -116t-107.5 -72q81 -27 115 -134zM329 642h-174v-298h174q77 0 115 46t38 106
q0 59 -38 102.5t-115 43.5zM291 -152v77h84v-53q0 -67 -20 -96t-75 -38v33q31 8 40.5 24t9.5 53h-39z" />
    <glyph glyph-name="rcommaaccent" unicode="&#x157;" horiz-adv-x="415" 
d="M308 500h62v-51h-66q-70 0 -117 -54.5t-47 -176.5v-218h-60v500h60v-126q22 63 60.5 94.5t107.5 31.5zM71 -138v70h76v-48q0 -61 -18 -87.5t-68 -34.5v30q28 7 37 21.5t9 48.5h-36z" />
    <glyph glyph-name="Rcaron" unicode="&#x158;" horiz-adv-x="628" 
d="M326 767h-77l-99 138h70l68 -91l67 91h70zM519 174l56 -174h-69l-56 169q-6 20 -14.5 35.5t-15.5 27t-20 20.5t-21 15t-27 9.5t-29 6t-35.5 3t-37.5 1t-45.5 0t-49.5 -0.5v-286h-65v700h222q119 0 177 -59.5t58 -144.5q0 -65 -35.5 -116t-107.5 -72q81 -27 115 -134z
M329 642h-174v-298h174q77 0 115 46t38 106q0 59 -38 102.5t-115 43.5z" />
    <glyph glyph-name="rcaron" unicode="&#x159;" horiz-adv-x="415" 
d="M258 560h-70l-90 125h64l61 -82l61 82h64zM308 500h62v-51h-66q-70 0 -117 -54.5t-47 -176.5v-218h-60v500h60v-126q22 63 60.5 94.5t107.5 31.5z" />
    <glyph glyph-name="Sacute" unicode="&#x15a;" horiz-adv-x="636" 
d="M330 914h88l-113 -138h-74zM135 200q19 -152 184 -152q141 0 141 112q0 59 -44 90.5t-165 64.5q-101 27 -149.5 75.5t-48.5 125.5q0 87 69 140.5t169 53.5q251 0 276 -240h-64q-11 86 -59.5 134t-150.5 48q-74 0 -124.5 -35.5t-50.5 -100.5q0 -61 41.5 -94.5t156.5 -64.5
q45 -12 77.5 -25.5t65 -35.5t49.5 -55.5t17 -76.5q0 -82 -54.5 -128t-153.5 -46q-110 0 -173.5 56t-72.5 154h64z" />
    <glyph glyph-name="sacute" unicode="&#x15b;" horiz-adv-x="493" 
d="M275 699h80l-103 -125h-67zM124 148q8 -106 130 -106q108 0 108 77q0 18 -7.5 32t-16.5 22.5t-28.5 17t-31.5 12.5t-38 11t-37 10q-75 22 -112 55t-37 91q0 64 50 101.5t133 37.5t139.5 -42.5t66.5 -138.5h-57q-4 66 -45.5 98t-106.5 32q-62 0 -92.5 -25t-30.5 -62
q0 -42 30 -63t107 -42q39 -11 64 -20.5t53.5 -26t43 -42t14.5 -58.5q0 -63 -48.5 -96t-122.5 -33q-81 0 -131 41.5t-54 116.5h57z" />
    <glyph glyph-name="Scircumflex" unicode="&#x15c;" horiz-adv-x="636" 
d="M442 767h-70l-67 90l-68 -90h-70l99 138h77zM135 200q19 -152 184 -152q141 0 141 112q0 59 -44 90.5t-165 64.5q-101 27 -149.5 75.5t-48.5 125.5q0 87 69 140.5t169 53.5q251 0 276 -240h-64q-11 86 -59.5 134t-150.5 48q-74 0 -124.5 -35.5t-50.5 -100.5
q0 -61 41.5 -94.5t156.5 -64.5q45 -12 77.5 -25.5t65 -35.5t49.5 -55.5t17 -76.5q0 -82 -54.5 -128t-153.5 -46q-110 0 -173.5 56t-72.5 154h64z" />
    <glyph glyph-name="scircumflex" unicode="&#x15d;" horiz-adv-x="493" 
d="M367 560h-64l-61 82l-61 -82h-64l90 125h70zM124 148q8 -106 130 -106q108 0 108 77q0 18 -7.5 32t-16.5 22.5t-28.5 17t-31.5 12.5t-38 11t-37 10q-75 22 -112 55t-37 91q0 64 50 101.5t133 37.5t139.5 -42.5t66.5 -138.5h-57q-4 66 -45.5 98t-106.5 32q-62 0 -92.5 -25
t-30.5 -62q0 -42 30 -63t107 -42q39 -11 64 -20.5t53.5 -26t43 -42t14.5 -58.5q0 -63 -48.5 -96t-122.5 -33q-81 0 -131 41.5t-54 116.5h57z" />
    <glyph glyph-name="Scedilla" unicode="&#x15e;" horiz-adv-x="636" 
d="M316 357q45 -12 77.5 -25.5t65 -35.5t49.5 -55.5t17 -76.5q0 -74 -45 -119.5t-128 -52.5q62 -42 62 -102q0 -46 -36 -78t-101 -32h-48v55h40q82 0 82 60q0 25 -18.5 51.5t-46.5 44.5q-96 8 -151.5 63t-63.5 146h64q19 -152 184 -152q141 0 141 112q0 59 -44 90.5
t-165 64.5q-101 27 -149.5 75.5t-48.5 125.5q0 87 69 140.5t169 53.5q251 0 276 -240h-64q-11 86 -59.5 134t-150.5 48q-74 0 -124.5 -35.5t-50.5 -100.5q0 -61 41.5 -94.5t156.5 -64.5z" />
    <glyph glyph-name="scedilla" unicode="&#x15f;" horiz-adv-x="493" 
d="M248 266q39 -11 64 -20.5t53.5 -26t43 -42t14.5 -58.5q0 -56 -39 -88.5t-101 -38.5q56 -38 56 -92q0 -42 -32.5 -71t-91.5 -29h-44v50h36q75 0 75 55q0 22 -16.5 45.5t-41.5 40.5q-70 8 -111.5 48.5t-45.5 108.5h57q8 -106 130 -106q108 0 108 77q0 18 -7.5 32
t-16.5 22.5t-28.5 17t-31.5 12.5t-38 11t-37 10q-75 22 -112 55t-37 91q0 64 50 101.5t133 37.5t139.5 -42.5t66.5 -138.5h-57q-4 66 -45.5 98t-106.5 32q-62 0 -92.5 -25t-30.5 -62q0 -42 30 -63t107 -42z" />
    <glyph glyph-name="Scaron" unicode="&#x160;" horiz-adv-x="636" 
d="M372 905h70l-99 -138h-77l-99 138h70l68 -91zM135 200q19 -152 184 -152q141 0 141 112q0 59 -44 90.5t-165 64.5q-101 27 -149.5 75.5t-48.5 125.5q0 87 69 140.5t169 53.5q251 0 276 -240h-64q-11 86 -59.5 134t-150.5 48q-74 0 -124.5 -35.5t-50.5 -100.5
q0 -61 41.5 -94.5t156.5 -64.5q45 -12 77.5 -25.5t65 -35.5t49.5 -55.5t17 -76.5q0 -82 -54.5 -128t-153.5 -46q-110 0 -173.5 56t-72.5 154h64z" />
    <glyph glyph-name="scaron" unicode="&#x161;" horiz-adv-x="493" 
d="M303 685h64l-90 -125h-70l-90 125h64l61 -82zM124 148q8 -106 130 -106q108 0 108 77q0 18 -7.5 32t-16.5 22.5t-28.5 17t-31.5 12.5t-38 11t-37 10q-75 22 -112 55t-37 91q0 64 50 101.5t133 37.5t139.5 -42.5t66.5 -138.5h-57q-4 66 -45.5 98t-106.5 32
q-62 0 -92.5 -25t-30.5 -62q0 -42 30 -63t107 -42q39 -11 64 -20.5t53.5 -26t43 -42t14.5 -58.5q0 -63 -48.5 -96t-122.5 -33q-81 0 -131 41.5t-54 116.5h57z" />
    <glyph glyph-name="uni0162" unicode="&#x162;" horiz-adv-x="635" 
d="M588 642h-238v-642q77 -43 77 -110q0 -46 -36 -78t-101 -32h-48v55h40q82 0 82 60q0 29 -23.5 58t-55.5 47v642h-238v58h541v-58z" />
    <glyph glyph-name="uni0163" unicode="&#x163;" horiz-adv-x="364" 
d="M332 0q70 -39 70 -100q0 -42 -32.5 -71t-91.5 -29h-44v50h36q75 0 75 55q0 26 -21.5 52.5t-50.5 42.5h-4q-65 0 -101.5 39t-36.5 107v302h-95v52h95v120l60 10v-130h120v-52h-120v-292q0 -104 86 -104h55v-52z" />
    <glyph glyph-name="Tcaron" unicode="&#x164;" horiz-adv-x="635" 
d="M356 767h-77l-99 138h70l68 -91l67 91h70zM588 700v-58h-238v-642h-65v642h-238v58h541z" />
    <glyph glyph-name="tcaron" unicode="&#x165;" horiz-adv-x="364" 
d="M271 700h76v-48q0 -61 -18 -87.5t-68 -34.5v30q28 7 37 21.5t9 48.5h-36v70zM191 156q0 -104 86 -104h55v-52h-63q-65 0 -101.5 39t-36.5 107v302h-95v52h95v120l60 10v-130h120v-52h-120v-292z" />
    <glyph glyph-name="Tbar" unicode="&#x166;" horiz-adv-x="635" 
d="M588 642h-238v-221h198v-58h-198v-363h-65v363h-199v58h199v221h-238v58h541v-58z" />
    <glyph glyph-name="tbar" unicode="&#x167;" horiz-adv-x="364" 
d="M277 52h55v-52h-63q-65 0 -101.5 39t-36.5 107v132h-95v52h95v118h-95v52h95v120l60 10v-130h120v-52h-120v-118h120v-52h-120v-122q0 -104 86 -104z" />
    <glyph glyph-name="Utilde" unicode="&#x168;" horiz-adv-x="704" 
d="M180 791q8 53 38.5 81.5t68.5 28.5q30 0 53 -14.5t41.5 -28.5t38.5 -14t36 15t21 38h47q-8 -53 -38.5 -81.5t-68.5 -28.5q-31 0 -53.5 14t-41.5 28t-39 14t-36 -15t-21 -37h-46zM87 700h65v-401q0 -126 49 -188.5t151 -62.5t151 62.5t49 188.5v401h65v-410
q0 -146 -66 -223t-199 -77t-199 77t-66 223v410z" />
    <glyph glyph-name="utilde" unicode="&#x169;" 
d="M219 623q-19 0 -33 -13.5t-19 -34.5h-42q7 48 34.5 74t62.5 26t68 -25.5t53 -25.5q19 0 33 13.5t19 34.5h43q-7 -48 -35 -74t-63 -26t-68 25.5t-53 25.5zM426 500h59v-500h-59v166q-58 -176 -197 -176q-73 0 -112 47t-39 141v322h60v-296q0 -85 23.5 -124t77.5 -39
q73 0 130 86t57 217v156z" />
    <glyph glyph-name="Umacron" unicode="&#x16a;" horiz-adv-x="704" 
d="M203 850h297v-57h-297v57zM87 700h65v-401q0 -126 49 -188.5t151 -62.5t151 62.5t49 188.5v401h65v-410q0 -146 -66 -223t-199 -77t-199 77t-66 223v410z" />
    <glyph glyph-name="umacron" unicode="&#x16b;" 
d="M417 637v-52h-270v52h270zM426 500h59v-500h-59v166q-58 -176 -197 -176q-73 0 -112 47t-39 141v322h60v-296q0 -85 23.5 -124t77.5 -39q73 0 130 86t57 217v156z" />
    <glyph glyph-name="Ubreve" unicode="&#x16c;" horiz-adv-x="704" 
d="M485 900q0 -55 -36 -93.5t-96 -38.5q-59 0 -97 38.5t-38 93.5h62q2 -32 20 -54.5t52 -22.5t51 22t20 55h62zM87 700h65v-401q0 -126 49 -188.5t151 -62.5t151 62.5t49 188.5v401h65v-410q0 -146 -66 -223t-199 -77t-199 77t-66 223v410z" />
    <glyph glyph-name="ubreve" unicode="&#x16d;" 
d="M283 570q-54 0 -88.5 35t-34.5 85h56q2 -29 18.5 -49.5t47.5 -20.5t46.5 20.5t17.5 49.5h57q0 -50 -33 -85t-87 -35zM426 500h59v-500h-59v166q-58 -176 -197 -176q-73 0 -112 47t-39 141v322h60v-296q0 -85 23.5 -124t77.5 -39q73 0 130 86t57 217v156z" />
    <glyph glyph-name="Uring" unicode="&#x16e;" horiz-adv-x="704" 
d="M352 727q-46 0 -75.5 30t-29.5 74t29.5 74.5t75.5 30.5t75 -30.5t29 -74.5t-29 -74t-75 -30zM352 779q21 0 35 15.5t14 36.5t-14 36.5t-35 15.5q-22 0 -36 -15t-14 -37q0 -21 14 -36.5t36 -15.5zM87 700h65v-401q0 -126 49 -188.5t151 -62.5t151 62.5t49 188.5v401h65
v-410q0 -146 -66 -223t-199 -77t-199 77t-66 223v410z" />
    <glyph glyph-name="uring" unicode="&#x16f;" 
d="M282 545q-42 0 -68.5 27.5t-26.5 67.5t26.5 67.5t68.5 27.5t68.5 -27.5t26.5 -67.5t-26.5 -67.5t-68.5 -27.5zM282 687q-20 0 -32.5 -14t-12.5 -33t12.5 -33t32.5 -14t32.5 14t12.5 33t-12.5 33t-32.5 14zM426 500h59v-500h-59v166q-58 -176 -197 -176q-73 0 -112 47
t-39 141v322h60v-296q0 -85 23.5 -124t77.5 -39q73 0 130 86t57 217v156z" />
    <glyph glyph-name="Uhungarumlaut" unicode="&#x170;" horiz-adv-x="704" 
d="M308 914h80l-91 -137h-66zM461 914h80l-91 -137h-66zM87 700h65v-401q0 -126 49 -188.5t151 -62.5t151 62.5t49 188.5v401h65v-410q0 -146 -66 -223t-199 -77t-199 77t-66 223v410z" />
    <glyph glyph-name="uhungarumlaut" unicode="&#x171;" 
d="M320 690l-83 -125h-60l70 125h73zM376 565h-60l70 125h73zM426 500h59v-500h-59v166q-58 -176 -197 -176q-73 0 -112 47t-39 141v322h60v-296q0 -85 23.5 -124t77.5 -39q73 0 130 86t57 217v156z" />
    <glyph glyph-name="Uogonek" unicode="&#x172;" horiz-adv-x="704" 
d="M552 700h65v-410q0 -257 -197 -294q-30 -19 -51 -46.5t-21 -54.5q0 -58 82 -58h16v-57h-28q-64 0 -100 32t-36 78q0 59 60 100q-255 6 -255 300v410h65v-401q0 -126 49 -188.5t151 -62.5t151 62.5t49 188.5v401z" />
    <glyph glyph-name="uogonek" unicode="&#x173;" 
d="M488 -148h14v-52h-25q-59 0 -91.5 29t-32.5 71q0 63 73 102v164q-58 -176 -197 -176q-73 0 -112 47t-39 141v322h60v-296q0 -85 23.5 -124t77.5 -39q73 0 130 86t57 217v156h59v-500q-29 -16 -50.5 -42.5t-21.5 -52.5q0 -53 75 -53z" />
    <glyph glyph-name="Wcircumflex" unicode="&#x174;" horiz-adv-x="984" 
d="M492 857l-68 -90h-70l99 138h77l99 -138h-70zM867 700h64l-156 -700h-73l-210 636l-210 -636h-73l-156 700h64l132 -619l204 619h78l204 -619z" />
    <glyph glyph-name="wcircumflex" unicode="&#x175;" horiz-adv-x="748" 
d="M374 642l-61 -82h-64l90 125h70l90 -125h-64zM646 501h59l-122 -501h-71l-138 438l-138 -438h-71l-122 501h59l102 -427l136 427h68l136 -427z" />
    <glyph glyph-name="Ycircumflex" unicode="&#x176;" horiz-adv-x="625" 
d="M305 857l-68 -90h-70l99 138h77l99 -138h-70zM509 700h70l-331 -700h-70l125 265l-271 435h73l230 -368z" />
    <glyph glyph-name="ycircumflex" unicode="&#x177;" horiz-adv-x="541" 
d="M267 642l-61 -82h-64l90 125h70l90 -125h-64zM445 500h61l-219 -591q-27 -72 -60 -100.5t-103 -28.5h-80v51h68q47 0 70.5 15t39.5 57l26 70l-217 527h66l182 -445z" />
    <glyph glyph-name="Ydieresis" unicode="&#x178;" horiz-adv-x="625" 
d="M238 856v-77h-75v77h75zM447 856v-77h-75v77h75zM509 700h70l-331 -700h-70l125 265l-271 435h73l230 -368z" />
    <glyph glyph-name="Zacute" unicode="&#x179;" horiz-adv-x="617" 
d="M419 914l-113 -138h-74l99 138h88zM147 58h398v-58h-484v48l384 594h-359v58h446v-48z" />
    <glyph glyph-name="zacute" unicode="&#x17a;" horiz-adv-x="493" 
d="M354 699l-103 -125h-67l90 125h80zM135 52h289v-52h-371v42l282 407h-262v52h341v-43z" />
    <glyph glyph-name="Zdotaccent" unicode="&#x17b;" horiz-adv-x="617" 
d="M348 885v-85h-84v85h84zM147 58h398v-58h-484v48l384 594h-359v58h446v-48z" />
    <glyph glyph-name="zdotaccent" unicode="&#x17c;" horiz-adv-x="493" 
d="M279 674v-78h-76v78h76zM135 52h289v-52h-371v42l282 407h-262v52h341v-43z" />
    <glyph glyph-name="Zcaron" unicode="&#x17d;" horiz-adv-x="617" 
d="M344 767h-77l-99 138h70l68 -91l67 91h70zM147 58h398v-58h-484v48l384 594h-359v58h446v-48z" />
    <glyph glyph-name="zcaron" unicode="&#x17e;" horiz-adv-x="493" 
d="M276 560h-70l-90 125h64l61 -82l61 82h64zM135 52h289v-52h-371v42l282 407h-262v52h341v-43z" />
    <glyph glyph-name="florin" unicode="&#x192;" horiz-adv-x="630" 
d="M508 643q-56 0 -80 -28.5t-37 -85.5l-33 -143h191v-54h-204l-34 -146q-23 -101 -59.5 -143.5t-116.5 -42.5h-95v57h82q57 0 82 28.5t37 84.5l36 162h-166v54h178l31 138q21 97 57.5 136.5t118.5 39.5h94v-57h-82z" />
    <glyph glyph-name="uni01CD" unicode="&#x1cd;" horiz-adv-x="644" 
d="M360 767h-77l-99 138h70l68 -91l67 91h70zM546 0l-67 187h-314l-67 -187h-68l255 700h74l255 -700h-68zM186 245h272l-136 377z" />
    <glyph glyph-name="uni01CE" unicode="&#x1ce;" horiz-adv-x="539" 
d="M304 560h-70l-90 125h64l61 -82l61 82h64zM280 509q78 0 129.5 -41t51.5 -116v-352h-60v104q-19 -43 -64.5 -78.5t-114.5 -35.5t-115 38t-46 106q0 63 44.5 95.5t144.5 48.5q32 5 46 7.5t36 7.5t31 10t20 13t14.5 19t3.5 25q0 42 -34.5 69.5t-89.5 27.5q-126 0 -135 -127
h-58q3 80 51.5 129.5t144.5 49.5zM231 42q73 0 121.5 50.5t48.5 132.5v47q-42 -23 -137 -41q-74 -14 -109.5 -34.5t-35.5 -65.5q0 -44 32 -66.5t80 -22.5z" />
    <glyph glyph-name="uni01CF" unicode="&#x1cf;" horiz-adv-x="245" 
d="M190 905h70l-99 -138h-77l-99 138h70l68 -91zM155 0h-65v700h65v-700z" />
    <glyph glyph-name="uni01D0" unicode="&#x1d0;" horiz-adv-x="220" 
d="M171 685h64l-90 -125h-70l-90 125h64l61 -82zM140 0h-60v500h60v-500z" />
    <glyph glyph-name="uni01D1" unicode="&#x1d1;" horiz-adv-x="776" 
d="M455 905h70l-99 -138h-77l-99 138h70l68 -91zM388 -10q-150 0 -235.5 97.5t-85.5 262.5t85.5 262.5t235.5 97.5t235.5 -97.5t85.5 -262.5t-85.5 -262.5t-235.5 -97.5zM388 48q118 0 187 82t69 220t-69 220t-187 82t-187 -82t-69 -220t69 -220t187 -82z" />
    <glyph glyph-name="uni01D2" unicode="&#x1d2;" horiz-adv-x="574" 
d="M348 685h64l-90 -125h-70l-90 125h64l61 -82zM287 -10q-105 0 -168.5 73t-63.5 186q0 114 63.5 187t168.5 73t168.5 -73t63.5 -187q0 -113 -63.5 -186t-168.5 -73zM287 41q81 0 127 59t46 149q0 91 -46 149.5t-127 58.5t-127 -58.5t-46 -149.5q0 -90 46 -149t127 -59z
" />
    <glyph glyph-name="uni01D3" unicode="&#x1d3;" horiz-adv-x="704" 
d="M419 905h70l-99 -138h-77l-99 138h70l68 -91zM87 700h65v-401q0 -126 49 -188.5t151 -62.5t151 62.5t49 188.5v401h65v-410q0 -146 -66 -223t-199 -77t-199 77t-66 223v410z" />
    <glyph glyph-name="uni01D4" unicode="&#x1d4;" 
d="M317 560h-70l-90 125h64l61 -82l61 82h64zM426 500h59v-500h-59v166q-58 -176 -197 -176q-73 0 -112 47t-39 141v322h60v-296q0 -85 23.5 -124t77.5 -39q73 0 130 86t57 217v156z" />
    <glyph glyph-name="uni01E2" unicode="&#x1e2;" horiz-adv-x="871" 
d="M656 850v-57h-297v57h297zM796 642h-416l94 -257h302v-58h-281l98 -269h203v-58h-250l-67 187h-314l-67 -187h-68l255 700h511v-58zM186 245h272l-136 377z" />
    <glyph glyph-name="uni01E3" unicode="&#x1e3;" horiz-adv-x="906" 
d="M582 637v-52h-270v52h270zM788 158h55q-6 -71 -60 -119.5t-145 -48.5q-147 0 -209 127q-25 -61 -79.5 -94t-127.5 -33q-69 0 -115 38t-46 106q0 63 44.5 95.5t144.5 48.5q32 5 46 7.5t36 7.5t31 10t20 13t14.5 19t3.5 25q0 42 -34.5 69.5t-89.5 27.5q-126 0 -135 -127
h-58q3 80 51.5 129.5t144.5 49.5q126 0 166 -95q64 95 183 95q102 0 157.5 -70.5t55.5 -189.5v-16h-380q5 -86 52.5 -138.5t124.5 -52.5q59 0 98.5 31.5t50.5 84.5zM630 457q-75 0 -117.5 -48.5t-49.5 -123.5h320q-6 76 -42.5 124t-110.5 48zM231 42q73 0 121.5 50.5
t48.5 132.5v47q-42 -23 -137 -41q-74 -14 -109.5 -34.5t-35.5 -65.5q0 -44 32 -66.5t80 -22.5z" />
    <glyph glyph-name="uni01EB" unicode="&#x1eb;" horiz-adv-x="574" 
d="M356 0q-28 -16 -49.5 -43t-21.5 -52q0 -53 75 -53h14v-52h-25q-59 0 -91.5 29t-32.5 71q0 53 53 90q-102 3 -162.5 75.5t-60.5 183.5q0 114 63.5 187t168.5 73t168.5 -73t63.5 -187q0 -92 -43.5 -159.5t-119.5 -89.5zM114 249q0 -90 46 -149t127 -59t127 59t46 149
q0 91 -46 149.5t-127 58.5t-127 -58.5t-46 -149.5z" />
    <glyph glyph-name="AEacute" unicode="&#x1fc;" horiz-adv-x="871" 
d="M621 914l-113 -138h-74l99 138h88zM796 642h-416l94 -257h302v-58h-281l98 -269h203v-58h-250l-67 187h-314l-67 -187h-68l255 700h511v-58zM186 245h272l-136 377z" />
    <glyph glyph-name="aeacute" unicode="&#x1fd;" horiz-adv-x="906" 
d="M560 699l-103 -125h-67l90 125h80zM788 158h55q-6 -71 -60 -119.5t-145 -48.5q-147 0 -209 127q-25 -61 -79.5 -94t-127.5 -33q-69 0 -115 38t-46 106q0 63 44.5 95.5t144.5 48.5q32 5 46 7.5t36 7.5t31 10t20 13t14.5 19t3.5 25q0 42 -34.5 69.5t-89.5 27.5
q-126 0 -135 -127h-58q3 80 51.5 129.5t144.5 49.5q126 0 166 -95q64 95 183 95q102 0 157.5 -70.5t55.5 -189.5v-16h-380q5 -86 52.5 -138.5t124.5 -52.5q59 0 98.5 31.5t50.5 84.5zM630 457q-75 0 -117.5 -48.5t-49.5 -123.5h320q-6 76 -42.5 124t-110.5 48zM231 42
q73 0 121.5 50.5t48.5 132.5v47q-42 -23 -137 -41q-74 -14 -109.5 -34.5t-35.5 -65.5q0 -44 32 -66.5t80 -22.5z" />
    <glyph glyph-name="Oslashacute" unicode="&#x1fe;" horiz-adv-x="776" 
d="M501 914l-113 -138h-74l99 138h88zM636 597q73 -96 73 -247q0 -165 -85.5 -262.5t-235.5 -97.5q-125 0 -206 69l-66 -79l-48 38l72 85q-73 96 -73 247q0 165 85.5 262.5t235.5 97.5q125 0 206 -69l66 79l48 -38zM132 350q0 -117 51 -196l370 439q-67 59 -165 59
q-118 0 -187 -82t-69 -220zM388 48q118 0 187 82t69 220q0 117 -51 196l-370 -439q67 -59 165 -59z" />
    <glyph glyph-name="oslashacute" unicode="&#x1ff;" horiz-adv-x="574" 
d="M400 699l-103 -125h-67l90 125h80zM531 487l-61 -69q49 -69 49 -169q0 -113 -63.5 -186t-168.5 -73q-88 0 -148 52l-56 -63l-40 32l61 70q-49 67 -49 168q0 114 63.5 187t168.5 73q88 0 149 -53l55 63zM114 249q0 -72 29 -124l256 290q-45 42 -112 42q-81 0 -127 -58.5
t-46 -149.5zM460 249q0 72 -29 124l-256 -289q45 -43 112 -43q81 0 127 59t46 149z" />
    <glyph glyph-name="Scommaaccent" unicode="&#x218;" horiz-adv-x="636" 
d="M316 357q45 -12 77.5 -25.5t65 -35.5t49.5 -55.5t17 -76.5q0 -82 -54.5 -128t-153.5 -46q-110 0 -173.5 56t-72.5 154h64q19 -152 184 -152q141 0 141 112q0 59 -44 90.5t-165 64.5q-101 27 -149.5 75.5t-48.5 125.5q0 87 69 140.5t169 53.5q251 0 276 -240h-64
q-11 86 -59.5 134t-150.5 48q-74 0 -124.5 -35.5t-50.5 -100.5q0 -61 41.5 -94.5t156.5 -64.5zM272 -152v77h84v-53q0 -67 -20 -96t-75 -38v33q31 8 40.5 24t9.5 53h-39z" />
    <glyph glyph-name="scommaaccent" unicode="&#x219;" horiz-adv-x="493" 
d="M248 266q39 -11 64 -20.5t53.5 -26t43 -42t14.5 -58.5q0 -63 -48.5 -96t-122.5 -33q-81 0 -131 41.5t-54 116.5h57q8 -106 130 -106q108 0 108 77q0 18 -7.5 32t-16.5 22.5t-28.5 17t-31.5 12.5t-38 11t-37 10q-75 22 -112 55t-37 91q0 64 50 101.5t133 37.5t139.5 -42.5
t66.5 -138.5h-57q-4 66 -45.5 98t-106.5 32q-62 0 -92.5 -25t-30.5 -62q0 -42 30 -63t107 -42zM210 -138v70h76v-48q0 -61 -18 -87.5t-68 -34.5v30q28 7 37 21.5t9 48.5h-36z" />
    <glyph glyph-name="uni021A" unicode="&#x21a;" horiz-adv-x="635" 
d="M588 700v-58h-238v-642h-65v642h-238v58h541zM276 -152v77h84v-53q0 -67 -20 -96t-75 -38v33q31 8 40.5 24t9.5 53h-39z" />
    <glyph glyph-name="uni021B" unicode="&#x21b;" horiz-adv-x="364" 
d="M277 52h55v-52h-63q-65 0 -101.5 39t-36.5 107v302h-95v52h95v120l60 10v-130h120v-52h-120v-292q0 -104 86 -104zM196 -138v70h76v-48q0 -61 -18 -87.5t-68 -34.5v30q28 7 37 21.5t9 48.5h-36z" />
    <glyph glyph-name="uni0226" unicode="&#x226;" horiz-adv-x="644" 
d="M364 885v-85h-84v85h84zM546 0l-67 187h-314l-67 -187h-68l255 700h74l255 -700h-68zM186 245h272l-136 377z" />
    <glyph glyph-name="uni0227" unicode="&#x227;" horiz-adv-x="539" 
d="M307 674v-78h-76v78h76zM280 509q78 0 129.5 -41t51.5 -116v-352h-60v104q-19 -43 -64.5 -78.5t-114.5 -35.5t-115 38t-46 106q0 63 44.5 95.5t144.5 48.5q32 5 46 7.5t36 7.5t31 10t20 13t14.5 19t3.5 25q0 42 -34.5 69.5t-89.5 27.5q-126 0 -135 -127h-58
q3 80 51.5 129.5t144.5 49.5zM231 42q73 0 121.5 50.5t48.5 132.5v47q-42 -23 -137 -41q-74 -14 -109.5 -34.5t-35.5 -65.5q0 -44 32 -66.5t80 -22.5z" />
    <glyph glyph-name="uni0232" unicode="&#x232;" horiz-adv-x="625" 
d="M453 850v-57h-297v57h297zM509 700h70l-331 -700h-70l125 265l-271 435h73l230 -368z" />
    <glyph glyph-name="uni0233" unicode="&#x233;" horiz-adv-x="541" 
d="M402 637v-52h-270v52h270zM445 500h61l-219 -591q-27 -72 -60 -100.5t-103 -28.5h-80v51h68q47 0 70.5 15t39.5 57l26 70l-217 527h66l182 -445z" />
    <glyph glyph-name="uni0237" unicode="&#x237;" horiz-adv-x="220" 
d="M80 500h60v-574q0 -68 -38 -107t-108 -39h-69v52h61q95 0 94 104v564z" />
    <glyph glyph-name="circumflex" unicode="&#x2c6;" horiz-adv-x="400" 
d="M325 560h-64l-61 82l-61 -82h-64l90 125h70z" />
    <glyph glyph-name="caron" unicode="&#x2c7;" horiz-adv-x="400" 
d="M261 685h64l-90 -125h-70l-90 125h64l61 -82z" />
    <glyph glyph-name="breve" unicode="&#x2d8;" horiz-adv-x="400" 
d="M322 690q0 -50 -33 -85t-87 -35t-88.5 35t-34.5 85h56q2 -29 18.5 -49.5t47.5 -20.5t46.5 20.5t17.5 49.5h57z" />
    <glyph glyph-name="dotaccent" unicode="&#x2d9;" horiz-adv-x="400" 
d="M162 596v78h76v-78h-76z" />
    <glyph glyph-name="ring" unicode="&#x2da;" horiz-adv-x="400" 
d="M200 545q-42 0 -68.5 27.5t-26.5 67.5t26.5 67.5t68.5 27.5t68.5 -27.5t26.5 -67.5t-26.5 -67.5t-68.5 -27.5zM200 593q20 0 32.5 14t12.5 33t-12.5 33t-32.5 14t-32.5 -14t-12.5 -33t12.5 -33t32.5 -14z" />
    <glyph glyph-name="ogonek" unicode="&#x2db;" horiz-adv-x="400" 
d="M198 2l59 -2q-29 -16 -50.5 -42.5t-21.5 -52.5q0 -53 75 -53h14v-52h-25q-59 0 -91.5 29t-32.5 71q0 63 73 102z" />
    <glyph glyph-name="tilde" unicode="&#x2dc;" horiz-adv-x="400" 
d="M44 575q7 48 34.5 74t62.5 26t68 -25.5t53 -25.5q19 0 33 13.5t19 34.5h43q-7 -48 -35 -74t-63 -26t-68 25.5t-53 25.5q-19 0 -33 -13.5t-19 -34.5h-42z" />
    <glyph glyph-name="hungarumlaut" unicode="&#x2dd;" horiz-adv-x="400" 
d="M136 690h73l-83 -125h-60zM275 690h73l-83 -125h-60z" />
    <glyph glyph-name="uni0394" unicode="&#x394;" horiz-adv-x="688" 
d="M379 700l269 -652v-48h-608v48l269 652h70zM111 58h466l-233 573z" />
    <glyph glyph-name="uni03A9" unicode="&#x3a9;" horiz-adv-x="796" 
d="M719 357q0 -98 -36.5 -177t-105.5 -122h136v-58h-255v48q94 29 145 112t51 197q0 123 -70.5 209t-185.5 86t-185.5 -86t-70.5 -209q0 -114 51 -197t145 -112v-48h-255v58h136q-69 43 -105.5 122t-36.5 177q0 150 87.5 251.5t233.5 101.5t233.5 -101.5t87.5 -251.5z" />
    <glyph glyph-name="uni03BC" unicode="&#x3bc;" horiz-adv-x="567" 
d="M428 500h59v-500h-59v166q-58 -176 -197 -176q-57 0 -92 28v-238h-59v720h60v-296q0 -85 23.5 -124t77.5 -39q73 0 130 86t57 217v156z" />
    <glyph glyph-name="pi" unicode="&#x3c0;" horiz-adv-x="663" 
d="M575 52h45v-52h-53q-65 0 -101.5 40t-36.5 110v298h-215v-448h-60v448h-110v52h555v-52h-110v-287q0 -109 86 -109z" />
    <glyph glyph-name="Wgrave" unicode="&#x1e80;" horiz-adv-x="984" 
d="M566 776h-74l-113 138h88zM867 700h64l-156 -700h-73l-210 636l-210 -636h-73l-156 700h64l132 -619l204 619h78l204 -619z" />
    <glyph glyph-name="wgrave" unicode="&#x1e81;" horiz-adv-x="748" 
d="M431 574h-67l-103 125h80zM646 501h59l-122 -501h-71l-138 438l-138 -438h-71l-122 501h59l102 -427l136 427h68l136 -427z" />
    <glyph glyph-name="Wacute" unicode="&#x1e82;" horiz-adv-x="984" 
d="M605 914l-113 -138h-74l99 138h88zM867 700h64l-156 -700h-73l-210 636l-210 -636h-73l-156 700h64l132 -619l204 619h78l204 -619z" />
    <glyph glyph-name="wacute" unicode="&#x1e83;" horiz-adv-x="748" 
d="M487 699l-103 -125h-67l90 125h80zM646 501h59l-122 -501h-71l-138 438l-138 -438h-71l-122 501h59l102 -427l136 427h68l136 -427z" />
    <glyph glyph-name="Wdieresis" unicode="&#x1e84;" horiz-adv-x="984" 
d="M425 856v-77h-75v77h75zM634 856v-77h-75v77h75zM867 700h64l-156 -700h-73l-210 636l-210 -636h-73l-156 700h64l132 -619l204 619h78l204 -619z" />
    <glyph glyph-name="wdieresis" unicode="&#x1e85;" horiz-adv-x="748" 
d="M312 657v-70h-68v70h68zM502 657v-70h-68v70h68zM646 501h59l-122 -501h-71l-138 438l-138 -438h-71l-122 501h59l102 -427l136 427h68l136 -427z" />
    <glyph glyph-name="uni1EA0" unicode="&#x1ea0;" horiz-adv-x="644" 
d="M614 0h-68l-67 187h-314l-67 -187h-68l255 700h74zM186 245h272l-136 377zM280 -194v85h84v-85h-84z" />
    <glyph glyph-name="uni1EA1" unicode="&#x1ea1;" horiz-adv-x="539" 
d="M280 509q78 0 129.5 -41t51.5 -116v-352h-60v104q-19 -43 -64.5 -78.5t-114.5 -35.5t-115 38t-46 106q0 63 44.5 95.5t144.5 48.5q32 5 46 7.5t36 7.5t31 10t20 13t14.5 19t3.5 25q0 42 -34.5 69.5t-89.5 27.5q-126 0 -135 -127h-58q3 80 51.5 129.5t144.5 49.5zM231 42
q73 0 121.5 50.5t48.5 132.5v47q-42 -23 -137 -41q-74 -14 -109.5 -34.5t-35.5 -65.5q0 -44 32 -66.5t80 -22.5zM235 -174v78h76v-78h-76z" />
    <glyph glyph-name="uni1EB8" unicode="&#x1eb8;" horiz-adv-x="575" 
d="M500 642h-345v-257h325v-58h-325v-269h345v-58h-410v700h410v-58zM243 -194v85h84v-85h-84z" />
    <glyph glyph-name="uni1EB9" unicode="&#x1eb9;" horiz-adv-x="560" 
d="M442 158h55q-6 -71 -60 -119.5t-145 -48.5q-111 0 -174 74.5t-63 185.5t61 185t167 74q102 0 157.5 -70.5t55.5 -189.5v-16h-380q5 -86 52.5 -138.5t124.5 -52.5q59 0 98.5 31.5t50.5 84.5zM284 457q-75 0 -117.5 -48.5t-49.5 -123.5h320q-6 76 -42.5 124t-110.5 48z
M247 -174v78h76v-78h-76z" />
    <glyph glyph-name="uni1ECA" unicode="&#x1eca;" horiz-adv-x="245" 
d="M155 0h-65v700h65v-700zM80 -194v85h84v-85h-84z" />
    <glyph glyph-name="uni1ECC" unicode="&#x1ecc;" horiz-adv-x="776" 
d="M388 -10q-150 0 -235.5 97.5t-85.5 262.5t85.5 262.5t235.5 97.5t235.5 -97.5t85.5 -262.5t-85.5 -262.5t-235.5 -97.5zM388 48q118 0 187 82t69 220t-69 220t-187 82t-187 -82t-69 -220t69 -220t187 -82zM346 -194v85h84v-85h-84z" />
    <glyph glyph-name="uni1ECD" unicode="&#x1ecd;" horiz-adv-x="574" 
d="M287 -10q-105 0 -168.5 73t-63.5 186q0 114 63.5 187t168.5 73t168.5 -73t63.5 -187q0 -113 -63.5 -186t-168.5 -73zM287 41q81 0 127 59t46 149q0 91 -46 149.5t-127 58.5t-127 -58.5t-46 -149.5q0 -90 46 -149t127 -59zM249 -174v78h76v-78h-76z" />
    <glyph glyph-name="uni1EE4" unicode="&#x1ee4;" horiz-adv-x="704" 
d="M87 700h65v-401q0 -126 49 -188.5t151 -62.5t151 62.5t49 188.5v401h65v-410q0 -146 -66 -223t-199 -77t-199 77t-66 223v410zM310 -194v85h84v-85h-84z" />
    <glyph glyph-name="uni1EE5" unicode="&#x1ee5;" 
d="M426 500h59v-500h-59v166q-58 -176 -197 -176q-73 0 -112 47t-39 141v322h60v-296q0 -85 23.5 -124t77.5 -39q73 0 130 86t57 217v156zM258 -174v78h76v-78h-76z" />
    <glyph glyph-name="Ygrave" unicode="&#x1ef2;" horiz-adv-x="625" 
d="M379 776h-74l-113 138h88zM509 700h70l-331 -700h-70l125 265l-271 435h73l230 -368z" />
    <glyph glyph-name="ygrave" unicode="&#x1ef3;" horiz-adv-x="541" 
d="M324 574h-67l-103 125h80zM445 500h61l-219 -591q-27 -72 -60 -100.5t-103 -28.5h-80v51h68q47 0 70.5 15t39.5 57l26 70l-217 527h66l182 -445z" />
    <glyph glyph-name="uni200B" unicode="&#x200b;" horiz-adv-x="0" 
 />
    <glyph glyph-name="endash" unicode="&#x2013;" horiz-adv-x="712" 
d="M70 322h572v-52h-572v52z" />
    <glyph glyph-name="emdash" unicode="&#x2014;" horiz-adv-x="1054" 
d="M70 322h914v-52h-914v52z" />
    <glyph glyph-name="quoteleft" unicode="&#x2018;" horiz-adv-x="181" 
d="M141 672q-30 -8 -39 -24t-9 -54h37v-78h-80v54q0 68 19 97t72 38v-33z" />
    <glyph glyph-name="quoteright" unicode="&#x2019;" horiz-adv-x="181" 
d="M51 700h80v-54q0 -68 -19 -97t-72 -38v33q30 8 39 24t9 54h-37v78z" />
    <glyph glyph-name="quotesinglbase" unicode="&#x201a;" horiz-adv-x="181" 
d="M51 78h80v-54q0 -68 -19 -97t-72 -38v33q30 8 39 24t9 54h-37v78z" />
    <glyph glyph-name="quotedblleft" unicode="&#x201c;" horiz-adv-x="321" 
d="M50 570q0 68 19 97t72 38v-33q-30 -8 -39 -24t-9 -54h37v-78h-80v54zM281 672q-30 -8 -39 -24t-9 -54h37v-78h-80v54q0 68 19 97t72 38v-33z" />
    <glyph glyph-name="quotedblright" unicode="&#x201d;" horiz-adv-x="321" 
d="M51 622v78h80v-54q0 -68 -19 -97t-72 -38v33q30 8 39 24t9 54h-37zM191 700h80v-54q0 -68 -19 -97t-72 -38v33q30 8 39 24t9 54h-37v78z" />
    <glyph glyph-name="quotedblbase" unicode="&#x201e;" horiz-adv-x="321" 
d="M51 0v78h80v-54q0 -68 -19 -97t-72 -38v33q30 8 39 24t9 54h-37zM191 78h80v-54q0 -68 -19 -97t-72 -38v33q30 8 39 24t9 54h-37v78z" />
    <glyph glyph-name="dagger" unicode="&#x2020;" horiz-adv-x="466" 
d="M411 532v-52h-148v-480h-60v480h-148v52h148v168h60v-168h148z" />
    <glyph glyph-name="daggerdbl" unicode="&#x2021;" horiz-adv-x="466" 
d="M411 480h-148v-260h148v-52h-148v-168h-60v168h-148v52h148v260h-148v52h148v168h60v-168h148v-52z" />
    <glyph glyph-name="bullet" unicode="&#x2022;" horiz-adv-x="216" 
d="M70 245v78h76v-78h-76z" />
    <glyph glyph-name="ellipsis" unicode="&#x2026;" horiz-adv-x="676" 
d="M50 0v78h76v-78h-76zM300 0v78h76v-78h-76zM550 0v78h76v-78h-76z" />
    <glyph glyph-name="perthousand" unicode="&#x2030;" horiz-adv-x="1108" 
d="M220 410q-64 0 -108 43t-44 107t44 107t108 43t108 -43t44 -107t-44 -107t-108 -43zM90 0l504 700h69l-504 -700h-69zM220 462q41 0 66.5 28t25.5 70t-25.5 70t-66.5 28t-66.5 -28t-25.5 -70t25.5 -70t66.5 -28zM533 -10q-64 0 -108 43t-44 107t44 107t108 43t108 -43
t44 -107t-44 -107t-108 -43zM896 -10q-64 0 -108 43t-44 107t44 107t108 43t108 -43t44 -107t-44 -107t-108 -43zM533 42q41 0 66.5 28t25.5 70t-25.5 70t-66.5 28t-66.5 -28t-25.5 -70t25.5 -70t66.5 -28zM896 42q41 0 66.5 28t25.5 70t-25.5 70t-66.5 28t-66.5 -28
t-25.5 -70t25.5 -70t66.5 -28z" />
    <glyph glyph-name="guilsinglleft" unicode="&#x2039;" horiz-adv-x="389" 
d="M309 490l-170 -195l170 -195h-77l-167 195l167 195h77z" />
    <glyph glyph-name="guilsinglright" unicode="&#x203a;" horiz-adv-x="389" 
d="M157 490l167 -195l-167 -195h-77l170 195l-170 195h77z" />
    <glyph glyph-name="uni2042" unicode="&#x2042;" horiz-adv-x="909" 
d="M340 426l81 103l-127 36l16 49l124 -45l-5 131h51l-5 -131l124 45l16 -49l-127 -36l81 -103l-41 -30l-73 110l-74 -110zM367 234l16 -49l-127 -36l81 -103l-41 -30l-73 110l-74 -110l-41 30l81 103l-127 36l16 49l124 -45l-5 131h51l-5 -131zM847 185l-127 -36l81 -103
l-41 -30l-73 110l-74 -110l-41 30l81 103l-127 36l16 49l124 -45l-5 131h51l-5 -131l124 45z" />
    <glyph glyph-name="fraction" unicode="&#x2044;" horiz-adv-x="183" 
d="M-250 0l586 700h67l-586 -700h-67z" />
    <glyph glyph-name="uni2051" unicode="&#x2051;" horiz-adv-x="411" 
d="M91 426l81 103l-127 36l16 49l124 -45l-5 131h51l-5 -131l124 45l16 -49l-127 -36l81 -103l-41 -30l-73 110l-74 -110zM350 234l16 -49l-127 -36l81 -103l-41 -30l-73 110l-74 -110l-41 30l81 103l-127 36l16 49l124 -45l-5 131h51l-5 -131z" />
    <glyph glyph-name="uni2070" unicode="&#x2070;" horiz-adv-x="368" 
d="M184 400q-74 0 -109 55t-35 132q0 49 13 89.5t47 69.5t84 29t84 -29t47 -69.5t13 -89.5q0 -77 -35 -132t-109 -55zM184 446q43 0 68 37t25 104q0 68 -25 105t-68 37t-68 -37t-25 -105q0 -67 25 -104t68 -37z" />
    <glyph glyph-name="uni2074" unicode="&#x2074;" horiz-adv-x="349" 
d="M318 526v-42h-59v-74h-49v74h-179v32l161 254h67v-244h59zM88 526h122v199z" />
    <glyph glyph-name="uni2075" unicode="&#x2075;" horiz-adv-x="361" 
d="M186 639q60 0 96 -32.5t36 -88.5t-37.5 -87t-97.5 -31t-96.5 33t-41.5 84h49q4 -32 27.5 -53t63.5 -21q39 0 62 19.5t23 54.5q0 38 -24.5 59.5t-67.5 21.5q-22 0 -41.5 -7t-27.5 -12.5t-11 -9.5l-38 19l28 182h209v-44h-166l-20 -110q31 23 75 23z" />
    <glyph glyph-name="uni2076" unicode="&#x2076;" horiz-adv-x="363" 
d="M191 642q53 0 88.5 -33t35.5 -88q0 -54 -35.5 -87.5t-94.5 -33.5q-65 0 -103 45.5t-38 135.5q0 94 38.5 144t109.5 50q53 0 87 -32.5t40 -79.5h-47q-4 27 -23.5 48t-59.5 21q-49 0 -73.5 -40.5t-24.5 -104.5q31 55 100 55zM185 442q35 0 59 22t24 58q0 37 -24 58t-58 21
q-35 0 -59 -21t-24 -58t24 -58.5t58 -21.5z" />
    <glyph glyph-name="uni2077" unicode="&#x2077;" horiz-adv-x="327" 
d="M42 770h254v-33l-168 -327h-58l164 316h-192v44z" />
    <glyph glyph-name="uni2078" unicode="&#x2078;" horiz-adv-x="390" 
d="M257 575q67 -24 67 -80q0 -43 -37 -69t-92 -26t-92 26t-37 69q0 56 67 80q-82 25 -82 94q0 47 40 76.5t104 29.5t104 -29.5t40 -76.5q0 -69 -82 -94zM195 733q-43 0 -68 -19.5t-25 -47.5q0 -36 36 -54t57 -18q10 0 29.5 5.5t41.5 23t22 42.5q0 30 -24.5 49t-68.5 19z
M116 498q0 -24 21.5 -40t57.5 -16t57.5 16t21.5 40q0 17 -10.5 29.5t-27 19t-25 8.5t-16.5 3q-8 -1 -16.5 -3t-25 -8.5t-27 -19t-10.5 -29.5z" />
    <glyph glyph-name="uni2079" unicode="&#x2079;" horiz-adv-x="366" 
d="M172 533q-53 0 -88.5 33t-35.5 88q0 54 35.5 87.5t94.5 33.5q65 0 103 -45.5t38 -135.5q0 -94 -38.5 -144t-109.5 -50q-53 0 -87 32.5t-40 79.5h47q4 -27 23.5 -48t59.5 -21q49 0 73.5 40.5t24.5 104.5q-31 -55 -100 -55zM178 733q-35 0 -59 -22t-24 -58q0 -37 24 -58
t58 -21q35 0 59 21t24 58t-24 58.5t-58 21.5z" />
    <glyph glyph-name="uni2080" unicode="&#x2080;" horiz-adv-x="368" 
d="M184 -80q-74 0 -109 55t-35 132q0 49 13 89.5t47 69.5t84 29t84 -29t47 -69.5t13 -89.5q0 -77 -35 -132t-109 -55zM184 -34q43 0 68 37t25 104q0 68 -25 105t-68 37t-68 -37t-25 -105q0 -67 25 -104t68 -37z" />
    <glyph glyph-name="uni2081" unicode="&#x2081;" horiz-adv-x="290" 
d="M210 290v-360h-49v255q-43 -34 -124 -37v40q54 3 92.5 27t38.5 75h42z" />
    <glyph glyph-name="uni2082" unicode="&#x2082;" horiz-adv-x="356" 
d="M307 -70h-258v33l95 76q36 29 54 46t33.5 44t15.5 55q0 30 -18.5 48.5t-48.5 18.5q-39 0 -56 -27t-15 -70h-51q-4 58 27.5 99.5t95.5 41.5q55 0 86.5 -31.5t31.5 -80.5q0 -48 -28.5 -86t-86.5 -84l-51 -40h174v-43z" />
    <glyph glyph-name="uni2083" unicode="&#x2083;" horiz-adv-x="356" 
d="M244 99q58 -20 58 -78q0 -41 -32.5 -71t-89.5 -30q-56 0 -90.5 31t-39.5 82h50q4 -35 26.5 -52t53.5 -17q35 0 53.5 18.5t18.5 43.5q0 26 -19.5 41.5t-56.5 15.5h-33v39h35q40 0 62.5 18t22.5 48q0 31 -22.5 47.5t-59.5 16.5q-85 0 -94 -81h-48q5 59 42 91.5t99 32.5
q58 0 96 -28.5t38 -77.5q0 -68 -70 -90z" />
    <glyph glyph-name="uni2084" unicode="&#x2084;" horiz-adv-x="349" 
d="M318 46v-42h-59v-74h-49v74h-179v32l161 254h67v-244h59zM88 46h122v199z" />
    <glyph glyph-name="uni2085" unicode="&#x2085;" horiz-adv-x="361" 
d="M186 159q60 0 96 -32.5t36 -88.5t-37.5 -87t-97.5 -31t-96.5 33t-41.5 84h49q4 -32 27.5 -53t63.5 -21q39 0 62 19.5t23 54.5q0 38 -24.5 59.5t-67.5 21.5q-22 0 -41.5 -7t-27.5 -12.5t-11 -9.5l-38 19l28 182h209v-44h-166l-20 -110q31 23 75 23z" />
    <glyph glyph-name="uni2086" unicode="&#x2086;" horiz-adv-x="363" 
d="M191 162q53 0 88.5 -33t35.5 -88q0 -54 -35.5 -87.5t-94.5 -33.5q-65 0 -103 45.5t-38 135.5q0 94 38.5 144t109.5 50q53 0 87 -32.5t40 -79.5h-47q-4 27 -23.5 48t-59.5 21q-49 0 -73.5 -40.5t-24.5 -104.5q31 55 100 55zM185 -38q35 0 59 22t24 58q0 37 -24 58t-58 21
q-35 0 -59 -21t-24 -58t24 -58.5t58 -21.5z" />
    <glyph glyph-name="uni2087" unicode="&#x2087;" horiz-adv-x="327" 
d="M42 290h254v-33l-168 -327h-58l164 316h-192v44z" />
    <glyph glyph-name="uni2088" unicode="&#x2088;" horiz-adv-x="390" 
d="M257 95q67 -24 67 -80q0 -43 -37 -69t-92 -26t-92 26t-37 69q0 56 67 80q-82 25 -82 94q0 47 40 76.5t104 29.5t104 -29.5t40 -76.5q0 -69 -82 -94zM195 253q-43 0 -68 -19.5t-25 -47.5q0 -36 36 -54t57 -18q10 0 29.5 5.5t41.5 23t22 42.5q0 30 -24.5 49t-68.5 19z
M116 18q0 -24 21.5 -40t57.5 -16t57.5 16t21.5 40q0 17 -10.5 29.5t-27 19t-25 8.5t-16.5 3q-8 -1 -16.5 -3t-25 -8.5t-27 -19t-10.5 -29.5z" />
    <glyph glyph-name="uni2089" unicode="&#x2089;" horiz-adv-x="366" 
d="M172 53q-53 0 -88.5 33t-35.5 88q0 54 35.5 87.5t94.5 33.5q65 0 103 -45.5t38 -135.5q0 -94 -38.5 -144t-109.5 -50q-53 0 -87 32.5t-40 79.5h47q4 -27 23.5 -48t59.5 -21q49 0 73.5 40.5t24.5 104.5q-31 -55 -100 -55zM178 253q-35 0 -59 -22t-24 -58q0 -37 24 -58
t58 -21q35 0 59 21t24 58t-24 58.5t-58 21.5z" />
    <glyph glyph-name="Euro" unicode="&#x20ac;" horiz-adv-x="767" 
d="M469 46q138 0 172 146h60q-15 -102 -78 -152t-161 -50q-118 0 -192 69t-101 180h-119v55h110q-3 27 -3 56q0 27 3 54h-110v55h119q25 112 97.5 181.5t183.5 69.5q97 0 166 -53.5t85 -148.5h-62q-14 62 -63 104t-124 42q-82 0 -139 -52.5t-79 -142.5h288l-22 -55h-276
q-3 -26 -3 -54q0 -29 3 -56h245l-22 -55h-212q23 -89 84 -141t150 -52z" />
    <glyph glyph-name="uni2113" unicode="&#x2113;" horiz-adv-x="422" 
d="M184 158q0 -105 86 -105h58v-53h-66q-64 0 -100 37.5t-38 103.5q-36 -19 -84 -37v54q55 24 84 41v263q0 168 116 168q60 0 91 -42t31 -119q0 -182 -178 -294v-17zM184 450v-212q118 89 118 231q0 108 -61 108q-32 0 -44.5 -32t-12.5 -95z" />
    <glyph glyph-name="uni2117" unicode="&#x2117;" horiz-adv-x="850" 
d="M425 710q152 0 255 -103.5t103 -256.5t-103 -256.5t-255 -103.5t-255 103.5t-103 256.5t103 256.5t255 103.5zM425 34q130 0 218 92t88 224t-88 224t-218 92t-218 -92t-88 -224t88 -224t218 -92zM441 542q71 0 106 -35.5t35 -91.5q0 -57 -35 -93t-106 -36h-72v-134h-50
v390h50h72zM449 331q41 0 61.5 24t20.5 60t-20.5 59t-61.5 23h-80v-166h80z" />
    <glyph glyph-name="trademark" unicode="&#x2122;" horiz-adv-x="882" 
d="M342 700v-47h-127v-337h-54v337h-126v47h307zM817 700v-384h-48v338l-118 -338h-68l-117 335v-335h-48v384h83l116 -332l116 332h84z" />
    <glyph glyph-name="uni2153" unicode="&#x2153;" horiz-adv-x="835" 
d="M210 700v-360h-49v255q-43 -34 -124 -37v40q54 3 92.5 27t38.5 75h42zM66 0l586 700h67l-586 -700h-67zM723 169q58 -20 58 -78q0 -41 -32.5 -71t-89.5 -30q-56 0 -90.5 31t-39.5 82h50q4 -35 26.5 -52t53.5 -17q35 0 53.5 18.5t18.5 43.5q0 26 -19.5 41.5t-56.5 15.5
h-33v39h35q40 0 62.5 18t22.5 48q0 31 -22.5 47.5t-59.5 16.5q-85 0 -94 -81h-48q5 59 42 91.5t99 32.5q58 0 96 -28.5t38 -77.5q0 -68 -70 -90z" />
    <glyph glyph-name="uni2154" unicode="&#x2154;" horiz-adv-x="907" 
d="M307 340h-258v33l95 76q36 29 54 46t33.5 44t15.5 55q0 30 -18.5 48.5t-48.5 18.5q-39 0 -56 -27t-15 -70h-51q-4 58 27.5 99.5t95.5 41.5q55 0 86.5 -31.5t31.5 -80.5q0 -48 -28.5 -86t-86.5 -84l-51 -40h174v-43zM138 0l586 700h67l-586 -700h-67zM795 169
q58 -20 58 -78q0 -41 -32.5 -71t-89.5 -30q-56 0 -90.5 31t-39.5 82h50q4 -35 26.5 -52t53.5 -17q35 0 53.5 18.5t18.5 43.5q0 26 -19.5 41.5t-56.5 15.5h-33v39h35q40 0 62.5 18t22.5 48q0 31 -22.5 47.5t-59.5 16.5q-85 0 -94 -81h-48q5 59 42 91.5t99 32.5q58 0 96 -28.5
t38 -77.5q0 -68 -70 -90z" />
    <glyph glyph-name="oneeighth" unicode="&#x215b;" horiz-adv-x="857" 
d="M210 700v-360h-49v255q-43 -34 -124 -37v40q54 3 92.5 27t38.5 75h42zM66 0l586 700h67l-586 -700h-67zM724 165q67 -24 67 -80q0 -43 -37 -69t-92 -26t-92 26t-37 69q0 56 67 80q-82 25 -82 94q0 47 40 76.5t104 29.5t104 -29.5t40 -76.5q0 -69 -82 -94zM662 323
q-43 0 -68 -19.5t-25 -47.5q0 -36 36 -54t57 -18q10 0 29.5 5.5t41.5 23t22 42.5q0 30 -24.5 49t-68.5 19zM583 88q0 -24 21.5 -40t57.5 -16t57.5 16t21.5 40q0 17 -10.5 29.5t-27 19t-25 8.5t-16.5 3q-8 -1 -16.5 -3t-25 -8.5t-27 -19t-10.5 -29.5z" />
    <glyph glyph-name="threeeighths" unicode="&#x215c;" horiz-adv-x="892" 
d="M244 509q58 -20 58 -78q0 -41 -32.5 -71t-89.5 -30q-56 0 -90.5 31t-39.5 82h50q4 -35 26.5 -52t53.5 -17q35 0 53.5 18.5t18.5 43.5q0 26 -19.5 41.5t-56.5 15.5h-33v39h35q40 0 62.5 18t22.5 48q0 31 -22.5 47.5t-59.5 16.5q-85 0 -94 -81h-48q5 59 42 91.5t99 32.5
q58 0 96 -28.5t38 -77.5q0 -68 -70 -90zM101 0l586 700h67l-586 -700h-67zM759 165q67 -24 67 -80q0 -43 -37 -69t-92 -26t-92 26t-37 69q0 56 67 80q-82 25 -82 94q0 47 40 76.5t104 29.5t104 -29.5t40 -76.5q0 -69 -82 -94zM697 323q-43 0 -68 -19.5t-25 -47.5
q0 -36 36 -54t57 -18q10 0 29.5 5.5t41.5 23t22 42.5q0 30 -24.5 49t-68.5 19zM618 88q0 -24 21.5 -40t57.5 -16t57.5 16t21.5 40q0 17 -10.5 29.5t-27 19t-25 8.5t-16.5 3q-8 -1 -16.5 -3t-25 -8.5t-27 -19t-10.5 -29.5z" />
    <glyph glyph-name="fiveeighths" unicode="&#x215d;" horiz-adv-x="895" 
d="M186 569q60 0 96 -32.5t36 -88.5t-37.5 -87t-97.5 -31t-96.5 33t-41.5 84h49q4 -32 27.5 -53t63.5 -21q39 0 62 19.5t23 54.5q0 38 -24.5 59.5t-67.5 21.5q-22 0 -41.5 -7t-27.5 -12.5t-11 -9.5l-38 19l28 182h209v-44h-166l-20 -110q31 23 75 23zM104 0l586 700h67
l-586 -700h-67zM762 165q67 -24 67 -80q0 -43 -37 -69t-92 -26t-92 26t-37 69q0 56 67 80q-82 25 -82 94q0 47 40 76.5t104 29.5t104 -29.5t40 -76.5q0 -69 -82 -94zM700 323q-43 0 -68 -19.5t-25 -47.5q0 -36 36 -54t57 -18q10 0 29.5 5.5t41.5 23t22 42.5q0 30 -24.5 49
t-68.5 19zM621 88q0 -24 21.5 -40t57.5 -16t57.5 16t21.5 40q0 17 -10.5 29.5t-27 19t-25 8.5t-16.5 3q-8 -1 -16.5 -3t-25 -8.5t-27 -19t-10.5 -29.5z" />
    <glyph glyph-name="seveneighths" unicode="&#x215e;" horiz-adv-x="791" 
d="M0 0l586 700h67l-586 -700h-67zM42 700h254v-33l-168 -327h-58l164 316h-192v44zM658 165q67 -24 67 -80q0 -43 -37 -69t-92 -26t-92 26t-37 69q0 56 67 80q-82 25 -82 94q0 47 40 76.5t104 29.5t104 -29.5t40 -76.5q0 -69 -82 -94zM596 323q-43 0 -68 -19.5t-25 -47.5
q0 -36 36 -54t57 -18q10 0 29.5 5.5t41.5 23t22 42.5q0 30 -24.5 49t-68.5 19zM517 88q0 -24 21.5 -40t57.5 -16t57.5 16t21.5 40q0 17 -10.5 29.5t-27 19t-25 8.5t-16.5 3q-8 -1 -16.5 -3t-25 -8.5t-27 -19t-10.5 -29.5z" />
    <glyph glyph-name="arrowleft" unicode="&#x2190;" horiz-adv-x="760" 
d="M690 312v-52h-522l191 -194l-40 -40l-254 260l254 260l40 -40l-191 -194h522z" />
    <glyph glyph-name="arrowup" unicode="&#x2191;" horiz-adv-x="630" 
d="M575 371l-37 -37l-193 188v-522h-60v522l-193 -188l-37 37l260 254z" />
    <glyph glyph-name="arrowright" unicode="&#x2192;" horiz-adv-x="760" 
d="M441 546l254 -260l-254 -260l-40 40l191 194h-522v52h522l-191 194z" />
    <glyph glyph-name="arrowdown" unicode="&#x2193;" horiz-adv-x="630" 
d="M538 271l37 -37l-260 -254l-260 254l37 37l193 -188v522h60v-522z" />
    <glyph glyph-name="arrowboth" unicode="&#x2194;" horiz-adv-x="885" 
d="M566 546l254 -260l-254 -260l-40 40l191 194h-549l191 -194l-40 -40l-254 260l254 260l40 -40l-191 -194h549l-191 194z" />
    <glyph glyph-name="arrowupdn" unicode="&#x2195;" horiz-adv-x="650" 
d="M355 28l193 188l37 -37l-260 -254l-260 254l37 37l193 -188v549l-193 -188l-37 37l260 254l260 -254l-37 -37l-193 188v-549z" />
    <glyph glyph-name="uni2196" unicode="&#x2196;" horiz-adv-x="615" 
d="M550 60l-40 -40l-364 364v-296h-56v392h391v-54h-297z" />
    <glyph glyph-name="uni2197" unicode="&#x2197;" horiz-adv-x="625" 
d="M144 480h391v-392h-56v296l-364 -364l-40 40l366 366h-297v54z" />
    <glyph glyph-name="uni2198" unicode="&#x2198;" horiz-adv-x="615" 
d="M469 442h56v-392h-391v54h297l-366 366l40 40l364 -364v296z" />
    <glyph glyph-name="uni2199" unicode="&#x2199;" horiz-adv-x="625" 
d="M550 440l-366 -366h297v-54h-391v392h56v-296l364 364z" />
    <glyph glyph-name="uni21A5" unicode="&#x21a5;" horiz-adv-x="630" 
d="M538 334l-193 188v-470h160v-52h-380v52h160v470l-193 -188l-37 37l260 254l260 -254z" />
    <glyph glyph-name="uni21A7" unicode="&#x21a7;" horiz-adv-x="630" 
d="M538 271l37 -37l-260 -254l-260 254l37 37l193 -188v470h-160v52h380v-52h-160v-470z" />
    <glyph glyph-name="emptyset" unicode="&#x2205;" horiz-adv-x="784" 
d="M717 595l-79 -79q70 -87 70 -206q0 -133 -88 -226.5t-228 -93.5q-119 0 -207 73l-78 -78l-40 40l79 79q-70 87 -70 206q0 133 88 226.5t228 93.5q119 0 207 -73l78 78zM137 310q0 -94 50 -165l372 372q-68 60 -167 60q-117 0 -186 -79t-69 -188zM647 310q0 94 -50 165
l-372 -372q68 -60 167 -60q117 0 186 79t69 188z" />
    <glyph glyph-name="product" unicode="&#x220f;" horiz-adv-x="656" 
d="M566 700v-700h-60v648h-356v-648h-60v700h476z" />
    <glyph glyph-name="summation" unicode="&#x2211;" horiz-adv-x="567" 
d="M502 700v-52h-356l259 -298l-259 -298h356v-52h-442v42l267 308l-267 308v42h442z" />
    <glyph glyph-name="minus" unicode="&#x2212;" horiz-adv-x="590" 
d="M70 272h450v-52h-450v52z" />
    <glyph glyph-name="radical" unicode="&#x221a;" horiz-adv-x="604" 
d="M494 700h70l-262 -700h-76l-196 500h70l163 -426z" />
    <glyph glyph-name="infinity" unicode="&#x221e;" horiz-adv-x="772" 
d="M539 404q66 0 114.5 -43t48.5 -111t-48.5 -111t-114.5 -43q-52 0 -91.5 29.5t-61.5 70.5q-22 -41 -61.5 -70.5t-91.5 -29.5q-66 0 -114.5 43t-48.5 111t48.5 111t114.5 43q52 0 91.5 -29.5t61.5 -70.5q22 41 61.5 70.5t91.5 29.5zM233 146q25 0 47 10.5t35.5 26t23.5 31
t14 26.5l4 10q-2 4 -5 11t-14 25t-24.5 32t-35 25t-45.5 11q-43 0 -75 -28t-32 -76t32 -76t75 -28zM539 146q43 0 75 28t32 76t-32 76t-75 28q-24 0 -45.5 -10.5t-35 -26t-24 -31t-14.5 -26.5l-5 -10q1 -4 4 -11t13.5 -25t23.5 -32t35.5 -25t47.5 -11z" />
    <glyph glyph-name="integral" unicode="&#x222b;" horiz-adv-x="471" 
d="M401 700h60v-52h-55q-47 0 -70.5 -26.5t-32.5 -96.5l-80 -588q-12 -87 -47.5 -122t-105.5 -35h-60v52h55q46 0 69 25t32 88l81 588q13 94 48.5 130.5t105.5 36.5z" />
    <glyph glyph-name="approxequal" unicode="&#x2248;" horiz-adv-x="590" 
d="M70 271q4 68 40.5 103t93.5 35q37 0 69 -21.5t60 -43t56 -21.5q72 0 83 79h48q-4 -67 -41 -102t-94 -35q-37 0 -69 21.5t-60 43t-56 21.5q-71 0 -83 -80h-47zM70 91q4 68 40.5 103t93.5 35q37 0 69 -21.5t60 -43t56 -21.5q72 0 83 79h48q-4 -67 -41 -102t-94 -35
q-37 0 -69 21.5t-60 43t-56 21.5q-71 0 -83 -80h-47z" />
    <glyph glyph-name="notequal" unicode="&#x2260;" horiz-adv-x="590" 
d="M520 324h-144l-98 -158h242v-52h-274l-83 -134l-43 25l68 109h-118v52h150l98 158h-248v52h280l77 124l43 -25l-61 -99h111v-52z" />
    <glyph glyph-name="lessequal" unicode="&#x2264;" horiz-adv-x="590" 
d="M70 268v46l450 171v-59l-359 -135l359 -135v-59zM520 0h-450v52h450v-52z" />
    <glyph glyph-name="greaterequal" unicode="&#x2265;" horiz-adv-x="590" 
d="M520 268l-450 -171v59l359 135l-359 135v59l450 -171v-46zM70 52h450v-52h-450v52z" />
    <glyph glyph-name="uni2460" unicode="&#x2460;" horiz-adv-x="850" 
d="M425 -10q-152 0 -255 103.5t-103 256.5t103 256.5t255 103.5t255 -103.5t103 -256.5t-103 -256.5t-255 -103.5zM425 34q130 0 218 92t88 224t-88 224t-218 92t-218 -92t-88 -224t88 -224t218 -92zM473 527v-360h-49v255q-43 -34 -124 -37v40q54 3 92.5 27t38.5 75h42z
" />
    <glyph glyph-name="uni2461" unicode="&#x2461;" horiz-adv-x="850" 
d="M425 -10q-152 0 -255 103.5t-103 256.5t103 256.5t255 103.5t255 -103.5t103 -256.5t-103 -256.5t-255 -103.5zM425 34q130 0 218 92t88 224t-88 224t-218 92t-218 -92t-88 -224t88 -224t218 -92zM551 177h-258v33l95 76q36 29 54 46t33.5 44t15.5 55q0 30 -18.5 48.5
t-48.5 18.5q-39 0 -56 -27t-15 -70h-51q-4 58 27.5 99.5t95.5 41.5q55 0 86.5 -31.5t31.5 -80.5q0 -48 -28.5 -86t-86.5 -84l-51 -40h174v-43z" />
    <glyph glyph-name="uni2462" unicode="&#x2462;" horiz-adv-x="850" 
d="M425 -10q-152 0 -255 103.5t-103 256.5t103 256.5t255 103.5t255 -103.5t103 -256.5t-103 -256.5t-255 -103.5zM425 34q130 0 218 92t88 224t-88 224t-218 92t-218 -92t-88 -224t88 -224t218 -92zM490 342q58 -20 58 -78q0 -41 -32.5 -71t-89.5 -30q-56 0 -90.5 31
t-39.5 82h50q4 -35 26.5 -52t53.5 -17q35 0 53.5 18.5t18.5 43.5q0 26 -19.5 41.5t-56.5 15.5h-33v39h35q40 0 62.5 18t22.5 48q0 31 -22.5 47.5t-59.5 16.5q-85 0 -94 -81h-48q5 59 42 91.5t99 32.5q58 0 96 -28.5t38 -77.5q0 -68 -70 -90z" />
    <glyph glyph-name="uni2463" unicode="&#x2463;" horiz-adv-x="850" 
d="M425 -10q-152 0 -255 103.5t-103 256.5t103 256.5t255 103.5t255 -103.5t103 -256.5t-103 -256.5t-255 -103.5zM425 34q130 0 218 92t88 224t-88 224t-218 92t-218 -92t-88 -224t88 -224t218 -92zM553 286v-42h-59v-74h-49v74h-179v32l161 254h67v-244h59zM323 286h122
v199z" />
    <glyph glyph-name="uni2464" unicode="&#x2464;" horiz-adv-x="850" 
d="M425 -10q-152 0 -255 103.5t-103 256.5t103 256.5t255 103.5t255 -103.5t103 -256.5t-103 -256.5t-255 -103.5zM425 34q130 0 218 92t88 224t-88 224t-218 92t-218 -92t-88 -224t88 -224t218 -92zM426 394q60 0 96 -32.5t36 -88.5t-37.5 -87t-97.5 -31t-96.5 33t-41.5 84
h49q4 -32 27.5 -53t63.5 -21q39 0 62 19.5t23 54.5q0 38 -24.5 59.5t-67.5 21.5q-22 0 -41.5 -7t-27.5 -12.5t-11 -9.5l-38 19l28 182h209v-44h-166l-20 -110q31 23 75 23z" />
    <glyph glyph-name="uni2465" unicode="&#x2465;" horiz-adv-x="850" 
d="M425 -10q-152 0 -255 103.5t-103 256.5t103 256.5t255 103.5t255 -103.5t103 -256.5t-103 -256.5t-255 -103.5zM425 34q130 0 218 92t88 224t-88 224t-218 92t-218 -92t-88 -224t88 -224t218 -92zM428 405q53 0 88.5 -33t35.5 -88q0 -54 -35.5 -87.5t-94.5 -33.5
q-65 0 -103 45.5t-38 135.5q0 94 38.5 144t109.5 50q53 0 87 -32.5t40 -79.5h-47q-4 27 -23.5 48t-59.5 21q-49 0 -73.5 -40.5t-24.5 -104.5q31 55 100 55zM422 205q35 0 59 22t24 58q0 37 -24 58t-58 21q-35 0 -59 -21t-24 -58t24 -58.5t58 -21.5z" />
    <glyph glyph-name="uni2466" unicode="&#x2466;" horiz-adv-x="850" 
d="M425 -10q-152 0 -255 103.5t-103 256.5t103 256.5t255 103.5t255 -103.5t103 -256.5t-103 -256.5t-255 -103.5zM425 34q130 0 218 92t88 224t-88 224t-218 92t-218 -92t-88 -224t88 -224t218 -92zM306 515h254v-33l-168 -327h-58l164 316h-192v44z" />
    <glyph glyph-name="uni2467" unicode="&#x2467;" horiz-adv-x="850" 
d="M425 -10q-152 0 -255 103.5t-103 256.5t103 256.5t255 103.5t255 -103.5t103 -256.5t-103 -256.5t-255 -103.5zM425 34q130 0 218 92t88 224t-88 224t-218 92t-218 -92t-88 -224t88 -224t218 -92zM487 338q67 -24 67 -80q0 -43 -37 -69t-92 -26t-92 26t-37 69q0 56 67 80
q-82 25 -82 94q0 47 40 76.5t104 29.5t104 -29.5t40 -76.5q0 -69 -82 -94zM425 496q-43 0 -68 -19.5t-25 -47.5q0 -36 36 -54t57 -18q10 0 29.5 5.5t41.5 23t22 42.5q0 30 -24.5 49t-68.5 19zM346 261q0 -24 21.5 -40t57.5 -16t57.5 16t21.5 40q0 17 -10.5 29.5t-27 19
t-25 8.5t-16.5 3q-8 -1 -16.5 -3t-25 -8.5t-27 -19t-10.5 -29.5z" />
    <glyph glyph-name="uni2468" unicode="&#x2468;" horiz-adv-x="850" 
d="M425 -10q-152 0 -255 103.5t-103 256.5t103 256.5t255 103.5t255 -103.5t103 -256.5t-103 -256.5t-255 -103.5zM425 34q130 0 218 92t88 224t-88 224t-218 92t-218 -92t-88 -224t88 -224t218 -92zM427 294q-53 0 -88.5 33t-35.5 88q0 54 35.5 87.5t94.5 33.5
q65 0 103 -45.5t38 -135.5q0 -94 -38.5 -144t-109.5 -50q-53 0 -87 32.5t-40 79.5h47q4 -27 23.5 -48t59.5 -21q49 0 73.5 40.5t24.5 104.5q-31 -55 -100 -55zM433 494q-35 0 -59 -22t-24 -58q0 -37 24 -58t58 -21q35 0 59 21t24 58t-24 58.5t-58 21.5z" />
    <glyph glyph-name="uni2469" unicode="&#x2469;" horiz-adv-x="1102" 
d="M677 710q152 0 255 -103.5t103 -256.5t-103 -256.5t-255 -103.5h-252q-152 0 -255 103.5t-103 256.5t103 256.5t255 103.5h252zM677 34q130 0 218 92t88 224t-88 224t-218 92h-252q-130 0 -218 -92t-88 -224t88 -224t218 -92h252zM678 161q-74 0 -109 55t-35 132
q0 49 13 89.5t47 69.5t84 29t84 -29t47 -69.5t13 -89.5q0 -77 -35 -132t-109 -55zM441 530v-360h-49v255q-43 -34 -124 -37v40q54 3 92.5 27t38.5 75h42zM678 207q43 0 68 37t25 104q0 68 -25 105t-68 37t-68 -37t-25 -105q0 -67 25 -104t68 -37z" />
    <glyph glyph-name="uni24EA" unicode="&#x24ea;" horiz-adv-x="850" 
d="M425 -10q-152 0 -255 103.5t-103 256.5t103 256.5t255 103.5t255 -103.5t103 -256.5t-103 -256.5t-255 -103.5zM425 34q130 0 218 92t88 224t-88 224t-218 92t-218 -92t-88 -224t88 -224t218 -92zM425 163q-74 0 -109 55t-35 132q0 49 13 89.5t47 69.5t84 29t84 -29
t47 -69.5t13 -89.5q0 -77 -35 -132t-109 -55zM425 209q43 0 68 37t25 104q0 68 -25 105t-68 37t-68 -37t-25 -105q0 -67 25 -104t68 -37z" />
    <glyph glyph-name="uni24FF" unicode="&#x24ff;" horiz-adv-x="850" 
d="M425 -10q-152 0 -255 103.5t-103 256.5t103 256.5t255 103.5t255 -103.5t103 -256.5t-103 -256.5t-255 -103.5zM427 163q74 0 109 55t35 132q0 49 -13 89.5t-47 69.5t-84 29t-84 -29t-47 -69.5t-13 -89.5q0 -77 35 -132t109 -55zM427 209q-43 0 -68 37t-25 104
q0 68 25 105t68 37t68 -37t25 -105q0 -67 -25 -104t-68 -37z" />
    <glyph glyph-name="lozenge" unicode="&#x25ca;" horiz-adv-x="610" 
d="M60 287l245 245l245 -245l-245 -245zM131 287l174 -174l174 174l-174 174z" />
    <glyph glyph-name="uni25CF" unicode="&#x25cf;" horiz-adv-x="674" 
d="M337 40q-114 0 -192 78t-78 192t78 192t192 78t192 -78t78 -192t-78 -192t-192 -78z" />
    <glyph glyph-name="smileface" unicode="&#x263a;" horiz-adv-x="854" 
d="M787 350q0 -150 -105 -255t-255 -105t-255 106t-105 254q0 149 105.5 254.5t254.5 105.5q151 0 255.5 -105.5t104.5 -254.5zM239 533v-45h44v-128h46v128h44v45h-134zM481 533v-45h45v-128h45v128h45v45h-135zM427 81q109 0 187 76t81 183l-46 8q0 -92 -65 -156.5
t-157 -64.5q-91 0 -156 64.5t-65 156.5l-46 -8q3 -107 81 -183t186 -76z" />
    <glyph glyph-name="uni2731" unicode="&#x2731;" horiz-adv-x="499" 
d="M444 307l-154 -45l98 -127l-48 -35l-90 132l-91 -132l-48 35l98 127l-154 45l18 56l152 -55l-5 162h59l-5 -162l152 55z" />
    <glyph glyph-name="uni2776" unicode="&#x2776;" horiz-adv-x="850" 
d="M425 -10q-152 0 -255 103.5t-103 256.5t103 256.5t255 103.5t255 -103.5t103 -256.5t-103 -256.5t-255 -103.5zM475 167v360h-42q0 -51 -38.5 -75t-92.5 -27v-40q81 3 124 37v-255h49z" />
    <glyph glyph-name="uni2777" unicode="&#x2777;" horiz-adv-x="850" 
d="M425 -10q-152 0 -255 103.5t-103 256.5t103 256.5t255 103.5t255 -103.5t103 -256.5t-103 -256.5t-255 -103.5zM295 177h258v43h-174l51 40q58 46 86.5 84t28.5 86q0 49 -31.5 80.5t-86.5 31.5q-64 0 -95.5 -41.5t-27.5 -99.5h51q-2 43 15 70t56 27q30 0 48.5 -18.5
t18.5 -48.5q0 -41 -25 -71.5t-78 -73.5l-95 -76v-33z" />
    <glyph glyph-name="uni2778" unicode="&#x2778;" horiz-adv-x="850" 
d="M425 -10q-152 0 -255 103.5t-103 256.5t103 256.5t255 103.5t255 -103.5t103 -256.5t-103 -256.5t-255 -103.5zM492 342q70 22 70 90q0 49 -38 77.5t-96 28.5q-62 0 -99 -32.5t-42 -91.5h48q9 81 94 81q37 0 59.5 -16.5t22.5 -47.5q0 -30 -22.5 -48t-62.5 -18h-35v-39h33
q37 0 56.5 -15.5t19.5 -41.5q0 -25 -18.5 -43.5t-53.5 -18.5q-31 0 -53.5 17t-26.5 52h-50q5 -51 39.5 -82t90.5 -31q57 0 89.5 30t32.5 71q0 58 -58 78z" />
    <glyph glyph-name="uni2779" unicode="&#x2779;" horiz-adv-x="850" 
d="M425 -10q-152 0 -255 103.5t-103 256.5t103 256.5t255 103.5t255 -103.5t103 -256.5t-103 -256.5t-255 -103.5zM555 244v42h-59v244h-67l-161 -254v-32h179v-74h49v74h59zM447 286h-122l122 199v-199z" />
    <glyph glyph-name="uni277A" unicode="&#x277a;" horiz-adv-x="850" 
d="M425 -10q-152 0 -255 103.5t-103 256.5t103 256.5t255 103.5t255 -103.5t103 -256.5t-103 -256.5t-255 -103.5zM428 394q-44 0 -75 -23l20 110h166v44h-209l-28 -182l38 -19q3 4 11 9.5t27.5 12.5t41.5 7q43 0 67.5 -21.5t24.5 -59.5q0 -35 -23 -54.5t-62 -19.5
q-40 0 -63.5 21t-27.5 53h-49q5 -51 41.5 -84t96.5 -33t97.5 31t37.5 87t-36 88.5t-96 32.5z" />
    <glyph glyph-name="uni277B" unicode="&#x277b;" horiz-adv-x="850" 
d="M425 -10q-152 0 -255 103.5t-103 256.5t103 256.5t255 103.5t255 -103.5t103 -256.5t-103 -256.5t-255 -103.5zM430 405q-69 0 -100 -55q0 64 24.5 104.5t73.5 40.5q40 0 59.5 -21t23.5 -48h47q-6 47 -40 79.5t-87 32.5q-71 0 -109.5 -50t-38.5 -144q0 -90 38 -135.5
t103 -45.5q59 0 94.5 33.5t35.5 87.5q0 55 -35.5 88t-88.5 33zM424 205q-34 0 -58 21.5t-24 58.5t24 58t59 21q34 0 58 -21t24 -58q0 -36 -24 -58t-59 -22z" />
    <glyph glyph-name="uni277C" unicode="&#x277c;" horiz-adv-x="850" 
d="M425 -10q-152 0 -255 103.5t-103 256.5t103 256.5t255 103.5t255 -103.5t103 -256.5t-103 -256.5t-255 -103.5zM562 515h-254v-44h192l-164 -316h58l168 327v33z" />
    <glyph glyph-name="uni277D" unicode="&#x277d;" horiz-adv-x="850" 
d="M425 -10q-152 0 -255 103.5t-103 256.5t103 256.5t255 103.5t255 -103.5t103 -256.5t-103 -256.5t-255 -103.5zM489 338q82 25 82 94q0 47 -40 76.5t-104 29.5t-104 -29.5t-40 -76.5q0 -69 82 -94q-67 -24 -67 -80q0 -43 37 -69t92 -26t92 26t37 69q0 56 -67 80zM427 496
q44 0 68.5 -19t24.5 -49q0 -25 -22 -42.5t-41.5 -23t-29.5 -5.5q-21 0 -57 18t-36 54q0 28 25 47.5t68 19.5zM348 261q0 17 10.5 29.5t27 19t25 8.5t16.5 3q8 -1 16.5 -3t25 -8.5t27 -19t10.5 -29.5q0 -24 -21.5 -40t-57.5 -16t-57.5 16t-21.5 40z" />
    <glyph glyph-name="uni277E" unicode="&#x277e;" horiz-adv-x="850" 
d="M425 -10q-152 0 -255 103.5t-103 256.5t103 256.5t255 103.5t255 -103.5t103 -256.5t-103 -256.5t-255 -103.5zM429 294q69 0 100 55q0 -64 -24.5 -104.5t-73.5 -40.5q-40 0 -59.5 21t-23.5 48h-47q6 -47 40 -79.5t87 -32.5q71 0 109.5 50t38.5 144q0 90 -38 135.5
t-103 45.5q-59 0 -94.5 -33.5t-35.5 -87.5q0 -55 35.5 -88t88.5 -33zM435 494q34 0 58 -21.5t24 -58.5t-24 -58t-59 -21q-34 0 -58 21t-24 58q0 36 24 58t59 22z" />
    <glyph glyph-name="uni277F" unicode="&#x277f;" horiz-adv-x="1102" 
d="M425 710h252q152 0 255 -103.5t103 -256.5t-103 -256.5t-255 -103.5h-252q-152 0 -255 103.5t-103 256.5t103 256.5t255 103.5zM678 161q74 0 109 55t35 132q0 49 -13 89.5t-47 69.5t-84 29t-84 -29t-47 -69.5t-13 -89.5q0 -77 35 -132t109 -55zM441 170v360h-42
q0 -51 -38.5 -75t-92.5 -27v-40q81 3 124 37v-255h49zM678 207q-43 0 -68 37t-25 104q0 68 25 105t68 37t68 -37t25 -105q0 -67 -25 -104t-68 -37z" />
    <glyph glyph-name="uni27FB" unicode="&#x27fb;" horiz-adv-x="840" 
d="M690 476h60v-380h-60v164h-522l191 -194l-40 -40l-254 260l254 260l40 -40l-191 -194h522v164z" />
    <glyph glyph-name="uni27FC" unicode="&#x27fc;" horiz-adv-x="840" 
d="M521 546l254 -260l-254 -260l-40 40l191 194h-522v-164h-60v380h60v-164h522l-191 194z" />
    <glyph glyph-name="Adieresis.ss02" horiz-adv-x="644" 
d="M218 761q-22 0 -36 14.5t-14 35.5t14 35t36 14q21 0 35 -14t14 -35t-14 -35.5t-35 -14.5zM427 761q-22 0 -36 14.5t-14 35.5t14 35t36 14q21 0 35 -14t14 -35t-14 -35.5t-35 -14.5zM546 0l-67 187h-314l-67 -187h-68l255 700h74l255 -700h-68zM186 245h272l-136 377z" />
    <glyph glyph-name="B.ss03" horiz-adv-x="624" 
d="M411 359q156 -29 156 -175q0 -86 -52 -135t-158 -49h-202h-65v700h65h179q100 0 150 -48.5t50 -134.5q0 -123 -123 -158zM324 642h-169v-263h150q74 0 118.5 36.5t44.5 98.5q0 61 -36 94.5t-108 33.5zM357 58q146 0 146 127q0 62 -42.5 99t-110.5 37h-195v-263h202z" />
    <glyph glyph-name="Cdotaccent.ss02" horiz-adv-x="736" 
d="M382 787q-24 0 -39.5 15.5t-15.5 39.5q0 23 15.5 39t39.5 16t39.5 -16t15.5 -39q0 -24 -15.5 -39.5t-39.5 -15.5zM670 230q-16 -116 -90.5 -178t-190.5 -62q-150 0 -236 98t-86 254q0 162 88.5 265t236.5 103q113 0 184.5 -62.5t87.5 -167.5h-67q-13 76 -66.5 124
t-142.5 48q-119 0 -187.5 -87.5t-68.5 -221.5q0 -131 69 -213t193 -82q177 0 211 182h65z" />
    <glyph glyph-name="Edieresis.ss02" horiz-adv-x="575" 
d="M191 761q-22 0 -36 14.5t-14 35.5t14 35t36 14q21 0 35 -14t14 -35t-14 -35.5t-35 -14.5zM400 761q-22 0 -36 14.5t-14 35.5t14 35t36 14q21 0 35 -14t14 -35t-14 -35.5t-35 -14.5zM500 642h-345v-257h325v-58h-325v-269h345v-58h-410v700h410v-58z" />
    <glyph glyph-name="Edotaccent.ss02" horiz-adv-x="575" 
d="M295 787q-24 0 -39.5 15.5t-15.5 39.5q0 23 15.5 39t39.5 16t39.5 -16t15.5 -39q0 -24 -15.5 -39.5t-39.5 -15.5zM500 642h-345v-257h325v-58h-325v-269h345v-58h-410v700h410v-58z" />
    <glyph glyph-name="Euro.ss07" horiz-adv-x="696" 
d="M572 162h58q-12 -86 -71 -129t-147 -43q-104 0 -169 60t-87 158h-106v53h97q-2 32 -2 48t2 48h-97v53h106q23 98 87 159t162 61q88 0 146 -43t72 -129h-59q-10 53 -49.5 86.5t-106.5 33.5q-71 0 -121 -45t-70 -123h259l-20 -53h-249q-2 -30 -2 -47q0 -25 3 -49h221
l-20 -53h-192q20 -78 71 -122t129 -44q129 0 155 120z" />
    <glyph glyph-name="Gcommaaccent.ss02" horiz-adv-x="763" 
d="M361 347h320v-347h-49l-7 136q-61 -146 -234 -146q-149 0 -236.5 100t-87.5 258q0 159 89.5 260.5t237.5 101.5q126 0 201 -63t84 -174h-64q-10 85 -69.5 132t-154.5 47q-120 0 -189.5 -85t-69.5 -217t70 -217t193 -85q102 0 162 64t60 177h-256v58zM389 -78
q25 0 39.5 -18.5t14.5 -51.5q0 -98 -104 -117v33q54 15 53 55q-25 0 -38 13.5t-13 35.5q0 21 13.5 35.5t34.5 14.5z" />
    <glyph glyph-name="Gdotaccent.ss02" horiz-adv-x="763" 
d="M390 787q-24 0 -39.5 15.5t-15.5 39.5q0 23 15.5 39t39.5 16t39.5 -16t15.5 -39q0 -24 -15.5 -39.5t-39.5 -15.5zM361 347h320v-347h-49l-7 136q-61 -146 -234 -146q-149 0 -236.5 100t-87.5 258q0 159 89.5 260.5t237.5 101.5q126 0 201 -63t84 -174h-64
q-10 85 -69.5 132t-154.5 47q-120 0 -189.5 -85t-69.5 -217t70 -217t193 -85q102 0 162 64t60 177h-256v58z" />
    <glyph glyph-name="I.ss06" horiz-adv-x="405" 
d="M335 643h-100v-586h100v-57h-265v57h100v586h-100v57h265v-57z" />
    <glyph glyph-name="IJ.ss05" horiz-adv-x="603" 
d="M90 58h122q114 0 176.5 66t62.5 185v391h65v-400q0 -136 -77.5 -218t-216.5 -82h-132v58zM165 182h-65v518h65v-518z" />
    <glyph glyph-name="IJ.ss05.ss06" horiz-adv-x="930" 
d="M335 700v-57h-100v-586h100v-57h-265v57h100v586h-100v57h265zM851 700v-400q0 -136 -77.5 -218t-216.5 -82h-132v58h122q114 0 176.5 66t62.5 185v333h-220v58h285z" />
    <glyph glyph-name="IJ.ss06" horiz-adv-x="981" 
d="M335 700v-57h-100v-586h100v-57h-265v57h100v586h-100v57h265zM894 700v-440q0 -131 -62.5 -200.5t-178.5 -69.5q-112 0 -174 67t-62 188v32h64v-32q0 -96 45 -146.5t124 -50.5q86 0 132.5 56t46.5 165v373h-220v58h285z" />
    <glyph glyph-name="Iacute.ss06" horiz-adv-x="405" 
d="M316 914l-113 -138h-74l99 138h88zM335 643h-100v-586h100v-57h-265v57h100v586h-100v57h265v-57z" />
    <glyph glyph-name="Ibreve.ss06" horiz-adv-x="405" 
d="M204 768q-59 0 -97 38.5t-38 93.5h62q2 -32 20 -54.5t52 -22.5t51 22t20 55h62q0 -55 -36 -93.5t-96 -38.5zM335 700v-57h-100v-586h100v-57h-265v57h100v586h-100v57h265z" />
    <glyph glyph-name="Icircumflex.ss06" horiz-adv-x="405" 
d="M203 857l-68 -90h-70l99 138h77l99 -138h-70zM335 700v-57h-100v-586h100v-57h-265v57h100v586h-100v57h265z" />
    <glyph glyph-name="Idieresis.ss02" horiz-adv-x="245" 
d="M19 761q-22 0 -36 14.5t-14 35.5t14 35t36 14q21 0 35 -14t14 -35t-14 -35.5t-35 -14.5zM228 761q-22 0 -36 14.5t-14 35.5t14 35t36 14q21 0 35 -14t14 -35t-14 -35.5t-35 -14.5zM155 0h-65v700h65v-700z" />
    <glyph glyph-name="Idieresis.ss06" horiz-adv-x="405" 
d="M136 856v-77h-75v77h75zM270 856h75v-77h-75v77zM335 700v-57h-100v-586h100v-57h-265v57h100v586h-100v57h265z" />
    <glyph glyph-name="Idieresis.ss06.ss02" horiz-adv-x="405" 
d="M148 811q0 -21 -14 -35.5t-35 -14.5q-22 0 -36 14.5t-14 35.5t14 35t36 14q21 0 35 -14t14 -35zM308 860q21 0 35 -14t14 -35t-14 -35.5t-35 -14.5q-22 0 -36 14.5t-14 35.5t14 35t36 14zM335 700v-57h-100v-586h100v-57h-265v57h100v586h-100v57h265z" />
    <glyph glyph-name="Idotaccent.ss02" horiz-adv-x="245" 
d="M123 787q-24 0 -39.5 15.5t-15.5 39.5q0 23 15.5 39t39.5 16t39.5 -16t15.5 -39q0 -24 -15.5 -39.5t-39.5 -15.5zM155 0h-65v700h65v-700z" />
    <glyph glyph-name="Idotaccent.ss06" horiz-adv-x="405" 
d="M245 885v-85h-84v85h84zM335 643h-100v-586h100v-57h-265v57h100v586h-100v57h265v-57z" />
    <glyph glyph-name="Idotaccent.ss06.ss02" horiz-adv-x="405" 
d="M203 787q-24 0 -39.5 15.5t-15.5 39.5q0 23 15.5 39t39.5 16t39.5 -16t15.5 -39q0 -24 -15.5 -39.5t-39.5 -15.5zM335 643h-100v-586h100v-57h-265v57h100v586h-100v57h265v-57z" />
    <glyph glyph-name="Igrave.ss06" horiz-adv-x="405" 
d="M277 776h-74l-113 138h88zM335 643h-100v-586h100v-57h-265v57h100v586h-100v57h265v-57z" />
    <glyph glyph-name="Imacron.ss06" horiz-adv-x="405" 
d="M54 850h297v-57h-297v57zM335 700v-57h-100v-586h100v-57h-265v57h100v586h-100v57h265z" />
    <glyph glyph-name="Iogonek.ss06" horiz-adv-x="405" 
d="M335 643h-100v-586h100v-57h-100q-32 -18 -55.5 -47t-23.5 -58q0 -58 82 -58h16v-57h-28q-64 0 -100 32t-36 78q0 68 76 110h-96v57h100v586h-100v57h265v-57z" />
    <glyph glyph-name="Itilde.ss06" horiz-adv-x="405" 
d="M328 897h47q-8 -53 -38.5 -81.5t-68.5 -28.5q-31 0 -53.5 14t-41.5 28t-39 14t-36 -15t-21 -37h-46q8 53 38.5 81.5t68.5 28.5q30 0 53 -14.5t41.5 -28.5t38.5 -14t36 15t21 38zM335 700v-57h-100v-586h100v-57h-265v57h100v586h-100v57h265z" />
    <glyph glyph-name="J.ss05" horiz-adv-x="525" 
d="M20 58h122q114 0 176.5 66t62.5 185v391h65v-400q0 -136 -77.5 -218t-216.5 -82h-132v58z" />
    <glyph glyph-name="J.ss05.ss06" horiz-adv-x="525" 
d="M446 700v-400q0 -136 -77.5 -218t-216.5 -82h-132v58h122q114 0 176.5 66t62.5 185v333h-220v58h285z" />
    <glyph glyph-name="J.ss06" horiz-adv-x="626" 
d="M539 700v-440q0 -131 -62.5 -200.5t-178.5 -69.5q-112 0 -174 67t-62 188v32h64v-32q0 -96 45 -146.5t124 -50.5q86 0 132.5 56t46.5 165v373h-220v58h285z" />
    <glyph glyph-name="Jcircumflex.ss05" horiz-adv-x="525" 
d="M551 767h-70l-67 90l-68 -90h-70l99 138h77zM20 58h122q114 0 176.5 66t62.5 185v391h65v-400q0 -136 -77.5 -218t-216.5 -82h-132v58z" />
    <glyph glyph-name="Jcircumflex.ss05.ss06" horiz-adv-x="525" 
d="M304 857l-68 -90h-70l99 138h77l99 -138h-70zM446 700v-400q0 -136 -77.5 -218t-216.5 -82h-132v58h122q114 0 176.5 66t62.5 185v333h-220v58h285z" />
    <glyph glyph-name="Jcircumflex.ss06" horiz-adv-x="626" 
d="M397 857l-68 -90h-70l99 138h77l99 -138h-70zM539 700v-440q0 -131 -62.5 -200.5t-178.5 -69.5q-112 0 -174 67t-62 188v32h64v-32q0 -96 45 -146.5t124 -50.5q86 0 132.5 56t46.5 165v373h-220v58h285z" />
    <glyph glyph-name="Kcommaaccent.ss02" horiz-adv-x="588" 
d="M259 374l303 -374h-81l-266 324l-60 -68v-256h-65v700h65v-346l306 346h84zM312 -78q24 0 39 -18.5t15 -51.5q0 -98 -104 -117v33q54 15 53 55q-25 0 -38 13.5t-13 35.5q0 21 13.5 35.5t34.5 14.5z" />
    <glyph glyph-name="Lcaron.ss02" horiz-adv-x="577" 
d="M372 640q0 -98 -104 -117v33q54 15 53 55q-25 0 -38 13.5t-13 35.5q0 21 13.5 35.5t34.5 14.5q24 0 39 -18.5t15 -51.5zM158 58h361v-58h-429v700h68v-642z" />
    <glyph glyph-name="Lcommaaccent.ss02" horiz-adv-x="577" 
d="M158 58h361v-58h-429v700h68v-642zM302 -78q24 0 39 -18.5t15 -51.5q0 -98 -104 -117v33q54 15 53 55q-25 0 -38 13.5t-13 35.5q0 21 13.5 35.5t34.5 14.5z" />
    <glyph glyph-name="Ldot.ss02" horiz-adv-x="577" 
d="M158 58h361v-58h-429v700h68v-642zM346 315q-22 0 -36 14.5t-14 35.5t14 35.5t36 14.5t36 -14.5t14 -35.5t-14 -35.5t-36 -14.5z" />
    <glyph glyph-name="Ncommaaccent.ss02" horiz-adv-x="720" 
d="M566 700h64v-700h-84l-392 626v-626h-64v700h85l391 -626v626zM367 -78q25 0 39.5 -18.5t14.5 -51.5q0 -98 -104 -117v33q54 15 53 55q-25 0 -38 13.5t-13 35.5q0 21 13.5 35.5t34.5 14.5z" />
    <glyph glyph-name="Odieresis.ss02" horiz-adv-x="776" 
d="M284 761q-22 0 -36 14.5t-14 35.5t14 35t36 14q21 0 35 -14t14 -35t-14 -35.5t-35 -14.5zM493 761q-22 0 -36 14.5t-14 35.5t14 35t36 14q21 0 35 -14t14 -35t-14 -35.5t-35 -14.5zM388 -10q-150 0 -235.5 97.5t-85.5 262.5t85.5 262.5t235.5 97.5t235.5 -97.5
t85.5 -262.5t-85.5 -262.5t-235.5 -97.5zM388 48q118 0 187 82t69 220t-69 220t-187 82t-187 -82t-69 -220t69 -220t187 -82z" />
    <glyph glyph-name="Rcommaaccent.ss02" horiz-adv-x="628" 
d="M519 174l56 -174h-69l-56 169q-6 20 -14.5 35.5t-15.5 27t-20 20.5t-21 15t-27 9.5t-29 6t-35.5 3t-37.5 1t-45.5 0t-49.5 -0.5v-286h-65v700h222q119 0 177 -59.5t58 -144.5q0 -65 -35.5 -116t-107.5 -72q81 -27 115 -134zM329 642h-174v-298h174q77 0 115 46t38 106
q0 59 -38 102.5t-115 43.5zM330 -78q24 0 39 -18.5t15 -51.5q0 -98 -104 -117v33q54 15 53 55q-25 0 -38 13.5t-13 35.5q0 21 13.5 35.5t34.5 14.5z" />
    <glyph glyph-name="S.ss03" horiz-adv-x="636" 
d="M494 500q-9 79 -52 115.5t-127 36.5q-77 0 -116 -33t-39 -90q0 -59 45.5 -89.5t169.5 -64.5q99 -27 147 -75t48 -121q0 -88 -65 -138.5t-171 -50.5q-121 0 -192.5 60.5t-81.5 179.5h64q10 -84 61 -133t148 -49q78 0 125 34.5t47 97.5q0 57 -41 90t-154 63
q-46 13 -78.5 25.5t-66.5 34.5t-52 55.5t-18 77.5q0 85 60 134.5t163 49.5q114 0 173 -55t67 -155h-64z" />
    <glyph glyph-name="S_t.ss08" horiz-adv-x="885" 
d="M798 52h55v-52h-63q-65 0 -101.5 39t-36.5 107v302h-158q-6 100 -56 152t-155 52q-72 0 -118.5 -35t-46.5 -101q0 -61 41.5 -94.5t156.5 -64.5q45 -12 77.5 -25.5t65 -35.5t49.5 -55.5t17 -76.5q0 -82 -54.5 -128t-153.5 -46q-110 0 -173.5 56t-72.5 154h64
q19 -152 184 -152q141 0 141 112q0 59 -44 90.5t-165 64.5q-101 27 -149.5 75.5t-48.5 125.5q0 88 64.5 141t163.5 53q236 0 270 -210h101v120l60 10v-130h120v-52h-120v-292q0 -104 86 -104z" />
    <glyph glyph-name="Sacute.ss03" horiz-adv-x="636" 
d="M345 914h88l-113 -138h-74zM494 500q-9 79 -52 115.5t-127 36.5q-77 0 -116 -33t-39 -90q0 -59 45.5 -89.5t169.5 -64.5q99 -27 147 -75t48 -121q0 -88 -65 -138.5t-171 -50.5q-121 0 -192.5 60.5t-81.5 179.5h64q10 -84 61 -133t148 -49q78 0 125 34.5t47 97.5
q0 57 -41 90t-154 63q-46 13 -78.5 25.5t-66.5 34.5t-52 55.5t-18 77.5q0 85 60 134.5t163 49.5q114 0 173 -55t67 -155h-64z" />
    <glyph glyph-name="Scaron.ss03" horiz-adv-x="636" 
d="M387 905h70l-99 -138h-77l-99 138h70l68 -91zM494 500q-9 79 -52 115.5t-127 36.5q-77 0 -116 -33t-39 -90q0 -59 45.5 -89.5t169.5 -64.5q99 -27 147 -75t48 -121q0 -88 -65 -138.5t-171 -50.5q-121 0 -192.5 60.5t-81.5 179.5h64q10 -84 61 -133t148 -49q78 0 125 34.5
t47 97.5q0 57 -41 90t-154 63q-46 13 -78.5 25.5t-66.5 34.5t-52 55.5t-18 77.5q0 85 60 134.5t163 49.5q114 0 173 -55t67 -155h-64z" />
    <glyph glyph-name="Scedilla.ss03" horiz-adv-x="636" 
d="M570 179q0 -82 -55.5 -131t-149.5 -57q62 -40 62 -101q0 -46 -36 -78t-101 -32h-48v55h40q82 0 82 60q0 25 -18.5 51.5t-46.5 44.5q-106 8 -167.5 68.5t-71.5 170.5h64q10 -84 61 -133t148 -49q78 0 125 34.5t47 97.5q0 57 -41 90t-154 63q-46 13 -78.5 25.5t-66.5 34.5
t-52 55.5t-18 77.5q0 85 60 134.5t163 49.5q114 0 173 -55t67 -155h-64q-9 79 -52 115.5t-127 36.5q-77 0 -116 -33t-39 -90q0 -59 45.5 -89.5t169.5 -64.5q99 -27 147 -75t48 -121z" />
    <glyph glyph-name="Scircumflex.ss03" horiz-adv-x="636" 
d="M457 767h-70l-67 90l-68 -90h-70l99 138h77zM494 500q-9 79 -52 115.5t-127 36.5q-77 0 -116 -33t-39 -90q0 -59 45.5 -89.5t169.5 -64.5q99 -27 147 -75t48 -121q0 -88 -65 -138.5t-171 -50.5q-121 0 -192.5 60.5t-81.5 179.5h64q10 -84 61 -133t148 -49q78 0 125 34.5
t47 97.5q0 57 -41 90t-154 63q-46 13 -78.5 25.5t-66.5 34.5t-52 55.5t-18 77.5q0 85 60 134.5t163 49.5q114 0 173 -55t67 -155h-64z" />
    <glyph glyph-name="Scommaaccent.ss02" horiz-adv-x="636" 
d="M135 200q19 -152 184 -152q141 0 141 112q0 59 -44 90.5t-165 64.5q-101 27 -149.5 75.5t-48.5 125.5q0 87 69 140.5t169 53.5q251 0 276 -240h-64q-11 86 -59.5 134t-150.5 48q-74 0 -124.5 -35.5t-50.5 -100.5q0 -61 41.5 -94.5t156.5 -64.5q45 -12 77.5 -25.5
t65 -35.5t49.5 -55.5t17 -76.5q0 -82 -54.5 -128t-153.5 -46q-110 0 -173.5 56t-72.5 154h64zM311 -78q25 0 39.5 -18.5t14.5 -51.5q0 -98 -104 -117v33q54 15 53 55q-25 0 -38 13.5t-13 35.5q0 21 13.5 35.5t34.5 14.5z" />
    <glyph glyph-name="Scommaaccent.ss03" horiz-adv-x="636" 
d="M375 375q99 -27 147 -75t48 -121q0 -88 -65 -138.5t-171 -50.5q-121 0 -192.5 60.5t-81.5 179.5h64q10 -84 61 -133t148 -49q78 0 125 34.5t47 97.5q0 57 -41 90t-154 63q-46 13 -78.5 25.5t-66.5 34.5t-52 55.5t-18 77.5q0 85 60 134.5t163 49.5q114 0 173 -55t67 -155
h-64q-9 79 -52 115.5t-127 36.5q-77 0 -116 -33t-39 -90q0 -59 45.5 -89.5t169.5 -64.5zM297 -152v77h84v-53q0 -67 -20 -96t-75 -38v33q31 8 40.5 24t9.5 53h-39z" />
    <glyph glyph-name="Scommaaccent.ss03.ss02" horiz-adv-x="636" 
d="M494 500q-9 79 -52 115.5t-127 36.5q-77 0 -116 -33t-39 -90q0 -59 45.5 -89.5t169.5 -64.5q99 -27 147 -75t48 -121q0 -88 -65 -138.5t-171 -50.5q-121 0 -192.5 60.5t-81.5 179.5h64q10 -84 61 -133t148 -49q78 0 125 34.5t47 97.5q0 57 -41 90t-154 63
q-46 13 -78.5 25.5t-66.5 34.5t-52 55.5t-18 77.5q0 85 60 134.5t163 49.5q114 0 173 -55t67 -155h-64zM336 -78q24 0 39 -18.5t15 -51.5q0 -98 -104 -117v33q54 15 53 55q-25 0 -38 13.5t-13 35.5q0 21 13.5 35.5t34.5 14.5z" />
    <glyph glyph-name="Udieresis.ss02" horiz-adv-x="704" 
d="M248 761q-22 0 -36 14.5t-14 35.5t14 35t36 14q21 0 35 -14t14 -35t-14 -35.5t-35 -14.5zM457 761q-22 0 -36 14.5t-14 35.5t14 35t36 14q21 0 35 -14t14 -35t-14 -35.5t-35 -14.5zM87 700h65v-401q0 -126 49 -188.5t151 -62.5t151 62.5t49 188.5v401h65v-410
q0 -146 -66 -223t-199 -77t-199 77t-66 223v410z" />
    <glyph glyph-name="Wdieresis.ss02" horiz-adv-x="984" 
d="M388 761q-22 0 -36 14.5t-14 35.5t14 35t36 14q21 0 35 -14t14 -35t-14 -35.5t-35 -14.5zM597 761q-22 0 -36 14.5t-14 35.5t14 35t36 14q21 0 35 -14t14 -35t-14 -35.5t-35 -14.5zM867 700h64l-156 -700h-73l-210 636l-210 -636h-73l-156 700h64l132 -619l204 619h78
l204 -619z" />
    <glyph glyph-name="Y.ss04" horiz-adv-x="649" 
d="M614 700l-257 -403v-297h-65v297l-257 403h77l213 -331l212 331h77z" />
    <glyph glyph-name="Yacute.ss04" horiz-adv-x="649" 
d="M438 914l-113 -138h-74l99 138h88zM614 700l-257 -403v-297h-65v297l-257 403h77l213 -331l212 331h77z" />
    <glyph glyph-name="Ycircumflex.ss04" horiz-adv-x="649" 
d="M325 857l-68 -90h-70l99 138h77l99 -138h-70zM614 700l-257 -403v-297h-65v297l-257 403h77l213 -331l212 331h77z" />
    <glyph glyph-name="Ydieresis.ss02" horiz-adv-x="625" 
d="M201 761q-22 0 -36 14.5t-14 35.5t14 35t36 14q21 0 35 -14t14 -35t-14 -35.5t-35 -14.5zM410 761q-22 0 -36 14.5t-14 35.5t14 35t36 14q21 0 35 -14t14 -35t-14 -35.5t-35 -14.5zM509 700h70l-331 -700h-70l125 265l-271 435h73l230 -368z" />
    <glyph glyph-name="Ydieresis.ss04" horiz-adv-x="649" 
d="M258 856v-77h-75v77h75zM467 856v-77h-75v77h75zM614 700l-257 -403v-297h-65v297l-257 403h77l213 -331l212 331h77z" />
    <glyph glyph-name="Ydieresis.ss04.ss02" horiz-adv-x="649" 
d="M221 761q-22 0 -36 14.5t-14 35.5t14 35t36 14q21 0 35 -14t14 -35t-14 -35.5t-35 -14.5zM430 761q-22 0 -36 14.5t-14 35.5t14 35t36 14q21 0 35 -14t14 -35t-14 -35.5t-35 -14.5zM614 700l-257 -403v-297h-65v297l-257 403h77l213 -331l212 331h77z" />
    <glyph glyph-name="Ygrave.ss04" horiz-adv-x="649" 
d="M399 776h-74l-113 138h88zM614 700l-257 -403v-297h-65v297l-257 403h77l213 -331l212 331h77z" />
    <glyph glyph-name="Zdotaccent.ss02" horiz-adv-x="617" 
d="M306 787q-24 0 -39.5 15.5t-15.5 39.5q0 23 15.5 39t39.5 16t39.5 -16t15.5 -39q0 -24 -15.5 -39.5t-39.5 -15.5zM147 58h398v-58h-484v48l384 594h-359v58h446v-48z" />
    <glyph glyph-name="_eightsuperior" horiz-adv-x="390" 
d="M257 165q67 -24 67 -80q0 -43 -37 -69t-92 -26t-92 26t-37 69q0 56 67 80q-82 25 -82 94q0 47 40 76.5t104 29.5t104 -29.5t40 -76.5q0 -69 -82 -94zM195 323q-43 0 -68 -19.5t-25 -47.5q0 -36 36 -54t57 -18q10 0 29.5 5.5t41.5 23t22 42.5q0 30 -24.5 49t-68.5 19z
M116 88q0 -24 21.5 -40t57.5 -16t57.5 16t21.5 40q0 17 -10.5 29.5t-27 19t-25 8.5t-16.5 3q-8 -1 -16.5 -3t-25 -8.5t-27 -19t-10.5 -29.5z" />
    <glyph glyph-name="a.ss01" horiz-adv-x="566" 
d="M426 500h60v-500h-60v81q-16 -33 -55 -62t-105 -29q-97 0 -154 70t-57 186q0 120 60.5 192t155.5 72q54 0 95.5 -25.5t59.5 -67.5v83zM270 46q75 0 115.5 54.5t40.5 153.5q0 94 -38.5 147.5t-112.5 53.5q-78 0 -118.5 -61.5t-40.5 -152.5q0 -89 39 -142t115 -53z" />
    <glyph glyph-name="aacute.ss01" horiz-adv-x="566" 
d="M392 699l-103 -125h-67l90 125h80zM426 500h60v-500h-60v81q-16 -33 -55 -62t-105 -29q-97 0 -154 70t-57 186q0 120 60.5 192t155.5 72q54 0 95.5 -25.5t59.5 -67.5v83zM270 46q75 0 115.5 54.5t40.5 153.5q0 94 -38.5 147.5t-112.5 53.5q-78 0 -118.5 -61.5
t-40.5 -152.5q0 -89 39 -142t115 -53z" />
    <glyph glyph-name="abreve.ss01" horiz-adv-x="566" 
d="M280 570q-54 0 -88.5 35t-34.5 85h56q2 -29 18.5 -49.5t47.5 -20.5t46.5 20.5t17.5 49.5h57q0 -50 -33 -85t-87 -35zM426 500h60v-500h-60v81q-16 -33 -55 -62t-105 -29q-97 0 -154 70t-57 186q0 120 60.5 192t155.5 72q54 0 95.5 -25.5t59.5 -67.5v83zM270 46
q75 0 115.5 54.5t40.5 153.5q0 94 -38.5 147.5t-112.5 53.5q-78 0 -118.5 -61.5t-40.5 -152.5q0 -89 39 -142t115 -53z" />
    <glyph glyph-name="acircumflex.ss01" horiz-adv-x="566" 
d="M279 642l-61 -82h-64l90 125h70l90 -125h-64zM426 500h60v-500h-60v81q-16 -33 -55 -62t-105 -29q-97 0 -154 70t-57 186q0 120 60.5 192t155.5 72q54 0 95.5 -25.5t59.5 -67.5v83zM270 46q75 0 115.5 54.5t40.5 153.5q0 94 -38.5 147.5t-112.5 53.5q-78 0 -118.5 -61.5
t-40.5 -152.5q0 -89 39 -142t115 -53z" />
    <glyph glyph-name="adieresis.ss01" horiz-adv-x="566" 
d="M217 657v-70h-68v70h68zM407 657v-70h-68v70h68zM426 500h60v-500h-60v81q-16 -33 -55 -62t-105 -29q-97 0 -154 70t-57 186q0 120 60.5 192t155.5 72q54 0 95.5 -25.5t59.5 -67.5v83zM270 46q75 0 115.5 54.5t40.5 153.5q0 94 -38.5 147.5t-112.5 53.5
q-78 0 -118.5 -61.5t-40.5 -152.5q0 -89 39 -142t115 -53z" />
    <glyph glyph-name="adieresis.ss01.ss02" horiz-adv-x="566" 
d="M184 572q-20 0 -32.5 13t-12.5 32t12.5 32t32.5 13t32.5 -13t12.5 -32t-12.5 -32t-32.5 -13zM374 572q-20 0 -32.5 13t-12.5 32t12.5 32t32.5 13t32.5 -13t12.5 -32t-12.5 -32t-32.5 -13zM426 500h60v-500h-60v81q-16 -33 -55 -62t-105 -29q-97 0 -154 70t-57 186
q0 120 60.5 192t155.5 72q54 0 95.5 -25.5t59.5 -67.5v83zM270 46q75 0 115.5 54.5t40.5 153.5q0 94 -38.5 147.5t-112.5 53.5q-78 0 -118.5 -61.5t-40.5 -152.5q0 -89 39 -142t115 -53z" />
    <glyph glyph-name="adieresis.ss02" horiz-adv-x="539" 
d="M174 572q-20 0 -32.5 13t-12.5 32t12.5 32t32.5 13t32.5 -13t12.5 -32t-12.5 -32t-32.5 -13zM364 572q-20 0 -32.5 13t-12.5 32t12.5 32t32.5 13t32.5 -13t12.5 -32t-12.5 -32t-32.5 -13zM280 509q78 0 129.5 -41t51.5 -116v-352h-60v104q-19 -43 -64.5 -78.5
t-114.5 -35.5t-115 38t-46 106q0 63 44.5 95.5t144.5 48.5q32 5 46 7.5t36 7.5t31 10t20 13t14.5 19t3.5 25q0 42 -34.5 69.5t-89.5 27.5q-126 0 -135 -127h-58q3 80 51.5 129.5t144.5 49.5zM231 42q73 0 121.5 50.5t48.5 132.5v47q-42 -23 -137 -41q-74 -14 -109.5 -34.5
t-35.5 -65.5q0 -44 32 -66.5t80 -22.5z" />
    <glyph glyph-name="agrave.ss01" horiz-adv-x="566" 
d="M336 574h-67l-103 125h80zM426 500h60v-500h-60v81q-16 -33 -55 -62t-105 -29q-97 0 -154 70t-57 186q0 120 60.5 192t155.5 72q54 0 95.5 -25.5t59.5 -67.5v83zM270 46q75 0 115.5 54.5t40.5 153.5q0 94 -38.5 147.5t-112.5 53.5q-78 0 -118.5 -61.5t-40.5 -152.5
q0 -89 39 -142t115 -53z" />
    <glyph glyph-name="amacron.ss01" horiz-adv-x="566" 
d="M414 637v-52h-270v52h270zM426 500h60v-500h-60v81q-16 -33 -55 -62t-105 -29q-97 0 -154 70t-57 186q0 120 60.5 192t155.5 72q54 0 95.5 -25.5t59.5 -67.5v83zM270 46q75 0 115.5 54.5t40.5 153.5q0 94 -38.5 147.5t-112.5 53.5q-78 0 -118.5 -61.5t-40.5 -152.5
q0 -89 39 -142t115 -53z" />
    <glyph glyph-name="aogonek.ss01" horiz-adv-x="566" 
d="M489 -148h14v-52h-25q-59 0 -91.5 29t-32.5 71q0 62 72 101v80q-16 -33 -55 -62t-105 -29q-97 0 -154 70t-57 186q0 120 60.5 192t155.5 72q54 0 95.5 -25.5t59.5 -67.5v83h60v-500q-29 -16 -50.5 -42.5t-21.5 -52.5q0 -53 75 -53zM270 46q75 0 115.5 54.5t40.5 153.5
q0 94 -38.5 147.5t-112.5 53.5q-78 0 -118.5 -61.5t-40.5 -152.5q0 -89 39 -142t115 -53z" />
    <glyph glyph-name="aring.ss01" horiz-adv-x="566" 
d="M279 545q-42 0 -68.5 27.5t-26.5 67.5t26.5 67.5t68.5 27.5t68.5 -27.5t26.5 -67.5t-26.5 -67.5t-68.5 -27.5zM279 687q-20 0 -32.5 -14t-12.5 -33t12.5 -33t32.5 -14t32.5 14t12.5 33t-12.5 33t-32.5 14zM426 500h60v-500h-60v81q-16 -33 -55 -62t-105 -29
q-97 0 -154 70t-57 186q0 120 60.5 192t155.5 72q54 0 95.5 -25.5t59.5 -67.5v83zM270 46q75 0 115.5 54.5t40.5 153.5q0 94 -38.5 147.5t-112.5 53.5q-78 0 -118.5 -61.5t-40.5 -152.5q0 -89 39 -142t115 -53z" />
    <glyph glyph-name="at.case" horiz-adv-x="1014" 
d="M507 790q120 0 220 -54t160 -154.5t60 -228.5q0 -113 -45.5 -180.5t-126.5 -67.5q-93 0 -127 87q-13 -33 -54 -60t-102 -27q-97 0 -154 70t-57 170t56.5 170t152.5 70q45 0 81.5 -21t57.5 -56l2 -2v69h60v-280q0 -138 82 -138q52 0 83 49t31 139q0 172 -108.5 282.5
t-271.5 110.5q-162 0 -271 -110.5t-109 -279.5t109.5 -277.5t282.5 -108.5q123 0 190 60l36 -40q-81 -72 -230 -72q-190 0 -319 123t-129 317t127 317t313 123zM498 158q133 0 133 195q0 86 -37 132.5t-103 46.5q-70 0 -110 -57.5t-40 -133.5q0 -73 38.5 -128t118.5 -55z
" />
    <glyph glyph-name="atilde.ss01" horiz-adv-x="566" 
d="M216 623q-19 0 -33 -13.5t-19 -34.5h-42q7 48 34.5 74t62.5 26t68 -25.5t53 -25.5q19 0 33 13.5t19 34.5h43q-7 -48 -35 -74t-63 -26t-68 25.5t-53 25.5zM426 500h60v-500h-60v81q-16 -33 -55 -62t-105 -29q-97 0 -154 70t-57 186q0 120 60.5 192t155.5 72
q54 0 95.5 -25.5t59.5 -67.5v83zM270 46q75 0 115.5 54.5t40.5 153.5q0 94 -38.5 147.5t-112.5 53.5q-78 0 -118.5 -61.5t-40.5 -152.5q0 -89 39 -142t115 -53z" />
    <glyph glyph-name="braceleft.case" horiz-adv-x="296" 
d="M197 502q0 -69 -17 -105t-56 -47q39 -11 56 -47t17 -105v-163q0 -56 19 -74.5t63 -18.5h17v-52h-17q-79 0 -110.5 31.5t-31.5 127.5v173q0 55 -19.5 75.5t-72.5 28.5v48q53 8 72.5 28.5t19.5 75.5v173q0 96 31.5 127.5t110.5 31.5h17v-52h-17q-44 0 -63 -18.5t-19 -74.5
v-163z" />
    <glyph glyph-name="braceright.case" horiz-adv-x="296" 
d="M159 478q0 -55 19.5 -75.5t72.5 -28.5v-48q-53 -8 -72.5 -28.5t-19.5 -75.5v-173q0 -96 -31.5 -127.5t-110.5 -31.5h-17v52h17q44 0 63 18.5t19 74.5v163q0 69 17 105t56 47q-39 11 -56 47t-17 105v163q0 56 -19 74.5t-63 18.5h-17v52h17q79 0 110.5 -31.5t31.5 -127.5
v-173z" />
    <glyph glyph-name="bracketleft.case" horiz-adv-x="275" 
d="M275 758h-125v-816h125v-52h-185v920h185v-52z" />
    <glyph glyph-name="bracketright.case" horiz-adv-x="275" 
d="M185 810v-920h-185v52h125v816h-125v52h185z" />
    <glyph glyph-name="bullet.case" horiz-adv-x="216" 
d="M70 310v78h76v-78h-76z" />
    <glyph glyph-name="bullet.case.ss02" horiz-adv-x="240" 
d="M120 290q-22 0 -36 14.5t-14 35.5t14 35.5t36 14.5t36 -14.5t14 -35.5t-14 -35.5t-36 -14.5z" />
    <glyph glyph-name="bullet.ss02" horiz-adv-x="240" 
d="M120 226q-22 0 -36 14.5t-14 35.5t14 35.5t36 14.5t36 -14.5t14 -35.5t-14 -35.5t-36 -14.5z" />
    <glyph glyph-name="cdotaccent.ss02" horiz-adv-x="560" 
d="M275 585q-22 0 -36 14.5t-14 35.5t14 35.5t36 14.5t36 -14.5t14 -35.5t-14 -35.5t-36 -14.5zM436 330q-8 59 -49.5 93t-99.5 34q-79 0 -125.5 -60.5t-46.5 -148.5q0 -91 49.5 -149t132.5 -58q121 0 146 118h58q-14 -78 -66.5 -123.5t-138.5 -45.5q-113 0 -177 74.5
t-64 185.5q0 109 63.5 184t167.5 75q85 0 143 -49.5t66 -129.5h-59z" />
    <glyph glyph-name="cent.ss07" horiz-adv-x="526" 
d="M467 221q-11 -59 -58.5 -98.5t-115.5 -45.5v-77h-55v78q-83 12 -133 76.5t-50 155.5q0 92 51 157t132 75v78h55v-77q68 -7 113 -47.5t57 -102.5h-57q-10 36 -38.5 63t-74.5 33v-359q43 4 74.5 29t42.5 62h57zM115 309q0 -70 34 -116.5t89 -59.5v355q-54 -11 -88.5 -59.5
t-34.5 -119.5z" />
    <glyph glyph-name="colon.ss02" horiz-adv-x="200" 
d="M100 410q-22 0 -36 14.5t-14 35.5t14 35.5t36 14.5t36 -14.5t14 -35.5t-14 -35.5t-36 -14.5zM100 -10q-22 0 -36 14.5t-14 35.5t14 35.5t36 14.5t36 -14.5t14 -35.5t-14 -35.5t-36 -14.5z" />
    <glyph glyph-name="comma.ss02" horiz-adv-x="195" 
d="M91 90q25 0 39.5 -18.5t14.5 -51.5q0 -100 -105 -119v34q24 6 39.5 21t14.5 34q-26 0 -39 14t-13 36q0 21 14 35.5t35 14.5z" />
    <glyph glyph-name="dcaron.ss02" horiz-adv-x="568" 
d="M428 416v294h60v-710h-60v82q-16 -33 -55.5 -62.5t-106.5 -29.5q-97 0 -154 70t-57 186q0 120 60.5 192t155.5 72q55 0 97 -25.5t60 -68.5zM596 710q24 0 38 -16.5t14 -46.5q0 -89 -100 -107v31q22 6 37 19t14 30q-24 0 -36.5 12.5t-12.5 32.5q0 19 13 32t33 13zM270 44
q76 0 117 55t41 155q0 95 -39 149t-114 54q-79 0 -120 -62t-41 -154q0 -90 39.5 -143.5t116.5 -53.5z" />
    <glyph glyph-name="dieresis.ss02" horiz-adv-x="400" 
d="M105 572q-20 0 -32.5 13t-12.5 32t12.5 32t32.5 13t32.5 -13t12.5 -32t-12.5 -32t-32.5 -13zM295 572q-20 0 -32.5 13t-12.5 32t12.5 32t32.5 13t32.5 -13t12.5 -32t-12.5 -32t-32.5 -13z" />
    <glyph glyph-name="divide.ss02" horiz-adv-x="590" 
d="M296 377q-20 0 -32.5 13t-12.5 32t12.5 32t32.5 13t32.5 -13t12.5 -32t-12.5 -32t-32.5 -13zM70 272h450v-52h-450v52zM296 25q-20 0 -32.5 13t-12.5 32t12.5 32t32.5 13t32.5 -13t12.5 -32t-12.5 -32t-32.5 -13z" />
    <glyph glyph-name="dollar.ss03" horiz-adv-x="580" 
d="M511 164q0 -77 -53 -122.5t-141 -50.5v-91h-58v92q-94 11 -147.5 72.5t-58.5 154.5h59q7 -76 45.5 -119.5t101.5 -53.5v290q-41 18 -67 32t-56 37t-44.5 53.5t-14.5 69.5q0 73 51.5 118.5t130.5 52.5v91h58v-92q82 -9 128 -63.5t51 -134.5h-59q-6 62 -37 98.5t-83 44.5
v-271l5 -2q97 -41 143 -89.5t46 -116.5zM137 530q0 -49 33 -79.5t89 -54.5v249q-55 -5 -88.5 -35t-33.5 -80zM317 44q57 4 95.5 32.5t38.5 82.5q0 91 -134 153v-268z" />
    <glyph glyph-name="dollar.ss07" horiz-adv-x="538" 
d="M292 307q36 -14 57.5 -25t47.5 -30t38.5 -45.5t12.5 -61.5q0 -66 -43.5 -107.5t-112.5 -47.5v-72h-55v73q-73 9 -114 57t-45 114h57q11 -99 102 -119v227l-6 3q-89 39 -133.5 81.5t-44.5 108.5q0 69 52.5 115t131.5 51v71h55v-73q81 -11 127 -61.5t50 -124.5h-57
q-6 54 -38 89t-82 44v-267zM113 459q0 -42 31 -72t93 -58v248q-51 -4 -87.5 -34.5t-36.5 -83.5zM292 41q45 5 71 31.5t26 70.5q0 42 -25.5 65.5t-71.5 40.5v-208z" />
    <glyph glyph-name="dollar.ss07.ss03" horiz-adv-x="526" 
d="M457 137q0 -68 -45.5 -105.5t-123.5 -41.5v-72h-55v73q-82 10 -129 60.5t-51 125.5h57q6 -55 39 -90t84 -44v246q-36 14 -58.5 25.5t-48.5 32t-39 49.5t-13 67q0 72 44.5 115t114.5 50v72h55v-73q73 -9 112 -56.5t44 -114.5h-57q-11 102 -99 119v-250l1 -1h2
q85 -32 125.5 -72t40.5 -115zM133 465q0 -47 26.5 -73.5t73.5 -45.5v231q-45 -6 -72.5 -35t-27.5 -77zM288 41q109 8 109 102q0 51 -24.5 75.5t-84.5 48.5v-226z" />
    <glyph glyph-name="dotaccent.ss02" horiz-adv-x="402" 
d="M200 585q-22 0 -36 14.5t-14 35.5t14 35.5t36 14.5t36 -14.5t14 -35.5t-14 -35.5t-36 -14.5z" />
    <glyph glyph-name="edieresis.ss02" horiz-adv-x="560" 
d="M183 572q-20 0 -32.5 13t-12.5 32t12.5 32t32.5 13t32.5 -13t12.5 -32t-12.5 -32t-32.5 -13zM373 572q-20 0 -32.5 13t-12.5 32t12.5 32t32.5 13t32.5 -13t12.5 -32t-12.5 -32t-32.5 -13zM442 158h55q-6 -71 -60 -119.5t-145 -48.5q-111 0 -174 74.5t-63 185.5t61 185
t167 74q102 0 157.5 -70.5t55.5 -189.5v-16h-380q5 -86 52.5 -138.5t124.5 -52.5q59 0 98.5 31.5t50.5 84.5zM284 457q-75 0 -117.5 -48.5t-49.5 -123.5h320q-6 76 -42.5 124t-110.5 48z" />
    <glyph glyph-name="edotaccent.ss02" horiz-adv-x="560" 
d="M278 585q-22 0 -36 14.5t-14 35.5t14 35.5t36 14.5t36 -14.5t14 -35.5t-14 -35.5t-36 -14.5zM442 158h55q-6 -71 -60 -119.5t-145 -48.5q-111 0 -174 74.5t-63 185.5t61 185t167 74q102 0 157.5 -70.5t55.5 -189.5v-16h-380q5 -86 52.5 -138.5t124.5 -52.5
q59 0 98.5 31.5t50.5 84.5zM284 457q-75 0 -117.5 -48.5t-49.5 -123.5h320q-6 76 -42.5 124t-110.5 48z" />
    <glyph glyph-name="eight.dnom" horiz-adv-x="390" 
d="M257 165q67 -24 67 -80q0 -43 -37 -69t-92 -26t-92 26t-37 69q0 56 67 80q-82 25 -82 94q0 47 40 76.5t104 29.5t104 -29.5t40 -76.5q0 -69 -82 -94zM195 323q-43 0 -68 -19.5t-25 -47.5q0 -36 36 -54t57 -18q10 0 29.5 5.5t41.5 23t22 42.5q0 30 -24.5 49t-68.5 19z
M116 88q0 -24 21.5 -40t57.5 -16t57.5 16t21.5 40q0 17 -10.5 29.5t-27 19t-25 8.5t-16.5 3q-8 -1 -16.5 -3t-25 -8.5t-27 -19t-10.5 -29.5z" />
    <glyph glyph-name="eight.dnom.ss03" horiz-adv-x="390" 
d="M257 190q82 -25 82 -94q0 -47 -40 -76.5t-104 -29.5t-104 29.5t-40 76.5q0 69 82 94q-67 24 -67 80q0 43 37 69t92 26t92 -26t37 -69q0 -56 -67 -80zM195 323q-36 0 -57.5 -16t-21.5 -40q0 -17 10.5 -29.5t27 -19t25 -8.5t16.5 -3q8 1 16.5 3t25 8.5t27 19t10.5 29.5
q0 24 -21.5 40t-57.5 16zM195 32q44 0 68.5 19t24.5 49q0 25 -22 42.5t-41.5 23t-29.5 5.5q-21 0 -57 -18t-36 -54q0 -28 25 -47.5t68 -19.5z" />
    <glyph glyph-name="eight.numr" horiz-adv-x="390" 
d="M257 505q67 -24 67 -80q0 -43 -37 -69t-92 -26t-92 26t-37 69q0 56 67 80q-82 25 -82 94q0 47 40 76.5t104 29.5t104 -29.5t40 -76.5q0 -69 -82 -94zM195 663q-43 0 -68 -19.5t-25 -47.5q0 -36 36 -54t57 -18q10 0 29.5 5.5t41.5 23t22 42.5q0 30 -24.5 49t-68.5 19z
M116 428q0 -24 21.5 -40t57.5 -16t57.5 16t21.5 40q0 17 -10.5 29.5t-27 19t-25 8.5t-16.5 3q-8 -1 -16.5 -3t-25 -8.5t-27 -19t-10.5 -29.5z" />
    <glyph glyph-name="eight.numr.ss03" horiz-adv-x="390" 
d="M257 530q82 -25 82 -94q0 -47 -40 -76.5t-104 -29.5t-104 29.5t-40 76.5q0 69 82 94q-67 24 -67 80q0 43 37 69t92 26t92 -26t37 -69q0 -56 -67 -80zM195 663q-36 0 -57.5 -16t-21.5 -40q0 -17 10.5 -29.5t27 -19t25 -8.5t16.5 -3q8 1 16.5 3t25 8.5t27 19t10.5 29.5
q0 24 -21.5 40t-57.5 16zM195 372q44 0 68.5 19t24.5 49q0 25 -22 42.5t-41.5 23t-29.5 5.5q-21 0 -57 -18t-36 -54q0 -28 25 -47.5t68 -19.5z" />
    <glyph glyph-name="eight.ss03" horiz-adv-x="632" 
d="M399 375q69 -19 116 -65t47 -120q0 -89 -69 -144.5t-177 -55.5t-177 55.5t-69 144.5q0 74 47 120t116 65q-59 19 -99 58.5t-40 100.5q0 77 64 126.5t158 49.5t158 -49.5t64 -126.5q0 -61 -40 -100.5t-99 -58.5zM159 532q0 -30 16 -54.5t39 -37.5t46.5 -21.5t39.5 -10.5
l16 -3q6 1 17 3t38 11t47.5 21.5t37.5 37t17 54.5q0 52 -43 87t-114 35t-114 -35t-43 -87zM316 46q86 0 133.5 42.5t47.5 104.5q0 38 -18.5 67.5t-45 45t-53.5 26t-46 13.5l-18 3q-7 -1 -19.5 -3t-43.5 -13t-55 -26.5t-43.5 -45.5t-19.5 -68q0 -61 47.5 -103.5t133.5 -42.5z
" />
    <glyph glyph-name="eight.ss07" horiz-adv-x="584" 
d="M369 288q54 -17 89.5 -52t35.5 -89q0 -69 -58.5 -113t-143.5 -44t-143.5 44t-58.5 113q0 54 35.5 89t89.5 52q-63 17 -105 57.5t-42 106.5q0 79 62.5 128.5t161.5 49.5t161.5 -49.5t62.5 -128.5q0 -66 -42 -106.5t-105 -57.5zM128 450q0 -33 17 -59.5t41 -40.5t48 -23
t41 -11l17 -3q7 1 18 3t39 11.5t50 22.5t39.5 39.5t17.5 59.5q0 55 -43 92t-121 37q-77 0 -120.5 -37.5t-43.5 -90.5zM292 42q64 0 103 30.5t39 76.5q0 42 -35.5 70t-70.5 35l-36 7q-6 -1 -15.5 -2.5t-34 -9.5t-43 -19.5t-34 -32.5t-15.5 -48q0 -46 39 -76.5t103 -30.5z" />
    <glyph glyph-name="eight.ss07.ss03" horiz-adv-x="584" 
d="M369 332q63 -17 105 -57.5t42 -106.5q0 -79 -62.5 -128.5t-161.5 -49.5t-161.5 49.5t-62.5 128.5q0 66 42 106.5t105 57.5q-54 17 -89.5 52t-35.5 89q0 69 58.5 113t143.5 44t143.5 -44t58.5 -113q0 -54 -35.5 -89t-89.5 -52zM150 471q0 -42 35.5 -70t70.5 -35l36 -7
q6 1 15.5 2.5t34 9.5t43 19.5t34 32.5t15.5 48q0 46 -39 76.5t-103 30.5t-103 -30.5t-39 -76.5zM292 42q78 0 121 37t43 92q0 33 -17 59t-41 40t-48 23t-41 11l-17 3q-7 -1 -18 -3t-39 -11.5t-50 -23t-39.5 -40t-17.5 -59.5q0 -53 43.5 -90.5t120.5 -37.5z" />
    <glyph glyph-name="eight.tf" horiz-adv-x="640" 
d="M403 325q59 -19 99 -58.5t40 -100.5q0 -77 -64 -126.5t-158 -49.5t-158 49.5t-64 126.5q0 61 40 100.5t99 58.5q-69 19 -116 65t-47 120q0 89 69 144.5t177 55.5t177 -55.5t69 -144.5q0 -74 -47 -120t-116 -65zM139 508q0 -28 10 -51.5t26 -39t35.5 -27.5t38.5 -19
t35 -11.5t26 -5.5l10 -2q7 1 19.5 3t43.5 13t55 26.5t43.5 45t19.5 67.5q0 62 -47.5 104.5t-133.5 42.5t-133.5 -42.5t-47.5 -103.5zM320 46q71 0 114 35t43 87q0 30 -16 54.5t-39.5 37.5t-46.5 21.5t-39 10.5l-16 3q-6 -1 -17 -3t-38 -11t-47.5 -21.5t-37.5 -37t-17 -54.5
q0 -52 43 -87t114 -35z" />
    <glyph glyph-name="eight.tf.ss03" horiz-adv-x="640" 
d="M403 375q69 -19 116 -65t47 -120q0 -89 -69 -144.5t-177 -55.5t-177 55.5t-69 144.5q0 74 47 120t116 65q-59 19 -99 58.5t-40 100.5q0 77 64 126.5t158 49.5t158 -49.5t64 -126.5q0 -61 -40 -100.5t-99 -58.5zM163 532q0 -30 16 -54.5t39 -37.5t46.5 -21.5t39.5 -10.5
l16 -3q6 1 17 3t38 11t47.5 21.5t37.5 37t17 54.5q0 52 -43 87t-114 35t-114 -35t-43 -87zM320 46q86 0 133.5 42.5t47.5 104.5q0 38 -18.5 67.5t-45 45t-53.5 26t-46 13.5l-18 3q-7 -1 -19.5 -3t-43.5 -13t-55 -26.5t-43.5 -45.5t-19.5 -68q0 -61 47.5 -103.5t133.5 -42.5z
" />
    <glyph glyph-name="eight.tf.ss07" horiz-adv-x="590" 
d="M372 288q54 -17 89.5 -52t35.5 -89q0 -69 -58.5 -113t-143.5 -44t-143.5 44t-58.5 113q0 54 35.5 89t89.5 52q-63 17 -105 57.5t-42 106.5q0 79 62.5 128.5t161.5 49.5t161.5 -49.5t62.5 -128.5q0 -66 -42 -106.5t-105 -57.5zM131 450q0 -33 17 -59.5t41 -40.5t48 -23
t41 -11l17 -3q7 1 18 3t39 11.5t50 22.5t39.5 39.5t17.5 59.5q0 55 -43 92t-121 37q-77 0 -120.5 -37.5t-43.5 -90.5zM295 42q64 0 103 30.5t39 76.5q0 42 -35.5 70t-71.5 35l-35 7q-6 -1 -15.5 -2.5t-34 -9.5t-43 -19.5t-34 -32.5t-15.5 -48q0 -46 39 -76.5t103 -30.5z" />
    <glyph glyph-name="eight.tf.ss07.ss03" horiz-adv-x="590" 
d="M372 332q63 -17 105 -57.5t42 -106.5q0 -79 -62.5 -128.5t-161.5 -49.5t-161.5 49.5t-62.5 128.5q0 66 42 106.5t105 57.5q-54 17 -89.5 52t-35.5 89q0 69 58.5 113t143.5 44t143.5 -44t58.5 -113q0 -54 -35.5 -89t-89.5 -52zM153 471q0 -42 35.5 -70t71.5 -35l35 -7
q6 1 15.5 2.5t34 9.5t43 19.5t34 32.5t15.5 48q0 46 -39 76.5t-103 30.5t-103 -30.5t-39 -76.5zM295 42q78 0 121 37t43 92q0 33 -17 59t-41 40t-48 23t-41 11l-17 3q-7 -1 -18 -3t-39 -11.5t-50 -23t-39.5 -40t-17.5 -59.5q0 -53 43.5 -90.5t120.5 -37.5z" />
    <glyph glyph-name="ellipsis.ss02" horiz-adv-x="684" 
d="M100 -10q-22 0 -36 14.5t-14 35.5t14 35.5t36 14.5t36 -14.5t14 -35.5t-14 -35.5t-36 -14.5zM342 -10q-22 0 -36 14.5t-14 35.5t14 35.5t36 14.5t36 -14.5t14 -35.5t-14 -35.5t-36 -14.5zM584 -10q-22 0 -36 14.5t-14 35.5t14 35.5t36 14.5t36 -14.5t14 -35.5t-14 -35.5
t-36 -14.5z" />
    <glyph glyph-name="emdash.case" horiz-adv-x="1054" 
d="M70 387h914v-52h-914v52z" />
    <glyph glyph-name="endash.case" horiz-adv-x="712" 
d="M70 387h572v-52h-572v52z" />
    <glyph glyph-name="exclam.ss02" horiz-adv-x="200" 
d="M65 700h70l-11 -520h-48zM100 -10q-22 0 -36 14.5t-14 35.5t14 35.5t36 14.5t36 -14.5t14 -35.5t-14 -35.5t-36 -14.5z" />
    <glyph glyph-name="exclamdown.case" horiz-adv-x="176" 
d="M126 700v-78h-76v78h76zM123 0h-70l11 520h48z" />
    <glyph glyph-name="exclamdown.case.ss02" horiz-adv-x="200" 
d="M100 610q-22 0 -36 14.5t-14 35.5t14 35.5t36 14.5t36 -14.5t14 -35.5t-14 -35.5t-36 -14.5zM65 0l11 520h48l11 -520h-70z" />
    <glyph glyph-name="exclamdown.ss02" horiz-adv-x="200" 
d="M100 390q-22 0 -36 14.5t-14 35.5t14 35.5t36 14.5t36 -14.5t14 -35.5t-14 -35.5t-36 -14.5zM65 -220l11 520h48l11 -520h-70z" />
    <glyph glyph-name="f_f_i.liga.ss02" horiz-adv-x="906" 
d="M814 500v-500h-60v448h-250v-448h-60v448h-250v-448h-60v448h-90v52h90v50q0 70 36.5 110t101.5 40h63v-52h-55q-86 0 -86 -109v-39h250v50q0 70 36.5 110t101.5 40h63v-52h-55q-86 0 -86 -109v-39h310zM784 685q22 0 36 -14.5t14 -35.5t-14 -35.5t-36 -14.5t-36 14.5
t-14 35.5t14 35.5t36 14.5z" />
    <glyph glyph-name="f_f_j.liga.ss02" horiz-adv-x="908" 
d="M816 500v-574q0 -68 -38 -107t-108 -39h-69v52h61q95 0 94 104v512h-252v-448h-60v448h-250v-448h-60v448h-90v52h90v50q0 70 36.5 110t101.5 40h63v-52h-55q-86 0 -86 -109v-39h250v50q0 70 36.5 110t101.5 40h63v-52h-55q-86 0 -86 -109v-39h312zM786 685
q22 0 36 -14.5t14 -35.5t-14 -35.5t-36 -14.5t-36 14.5t-14 35.5t14 35.5t36 14.5z" />
    <glyph glyph-name="f_i.liga.ss02" horiz-adv-x="597" 
d="M505 500v-500h-60v448h-251v-448h-60v448h-90v52h90v50q0 70 36.5 110t101.5 40h63v-52h-55q-86 0 -86 -109v-39h311zM475 685q22 0 36 -14.5t14 -35.5t-14 -35.5t-36 -14.5t-36 14.5t-14 35.5t14 35.5t36 14.5z" />
    <glyph glyph-name="f_j.liga.ss02" horiz-adv-x="587" 
d="M507 500v-574q0 -68 -38 -107t-108 -39h-69v52h61q95 0 94 104v512h-253v-448h-60v448h-90v52h90v50q0 70 36.5 110t101.5 40h63v-52h-55q-86 0 -86 -109v-39h313zM477 685q22 0 36 -14.5t14 -35.5t-14 -35.5t-36 -14.5t-36 14.5t-14 35.5t14 35.5t36 14.5z" />
    <glyph glyph-name="five.dnom" horiz-adv-x="361" 
d="M186 229q60 0 96 -32.5t36 -88.5t-37.5 -87t-97.5 -31t-96.5 33t-41.5 84h49q4 -32 27.5 -53t63.5 -21q39 0 62 19.5t23 54.5q0 38 -24.5 59.5t-67.5 21.5q-22 0 -41.5 -7t-27.5 -12.5t-11 -9.5l-38 19l28 182h209v-44h-166l-20 -110q31 23 75 23z" />
    <glyph glyph-name="five.numr" horiz-adv-x="361" 
d="M186 569q60 0 96 -32.5t36 -88.5t-37.5 -87t-97.5 -31t-96.5 33t-41.5 84h49q4 -32 27.5 -53t63.5 -21q39 0 62 19.5t23 54.5q0 38 -24.5 59.5t-67.5 21.5q-22 0 -41.5 -7t-27.5 -12.5t-11 -9.5l-38 19l28 182h209v-44h-166l-20 -110q31 23 75 23z" />
    <glyph glyph-name="five.ss07" horiz-adv-x="557" 
d="M276 388q98 0 157 -54t59 -149t-59.5 -145t-152.5 -50q-90 0 -147.5 52.5t-67.5 137.5h57q8 -59 49.5 -98.5t112.5 -39.5q69 0 109 36.5t40 102.5q0 74 -43 114t-119 40q-40 0 -75 -12.5t-50 -24.5l-14 -12l-44 27l46 307h324v-52h-273l-36 -218q53 38 127 38z" />
    <glyph glyph-name="five.tf" horiz-adv-x="640" 
d="M313 438q108 0 173.5 -60.5t65.5 -168.5q0 -107 -65.5 -163t-168.5 -56q-99 0 -162.5 58.5t-74.5 154.5h62q9 -68 55 -112.5t125 -44.5q76 0 120.5 41.5t44.5 116.5q0 85 -48 130.5t-132 45.5q-28 0 -54.5 -6t-43.5 -14t-30.5 -16t-19.5 -14l-6 -5l-47 29l51 346h357v-56
h-302l-41 -248q61 42 141 42z" />
    <glyph glyph-name="five.tf.ss07" horiz-adv-x="590" 
d="M292 388q98 0 157 -54t59 -149t-59.5 -145t-152.5 -50q-90 0 -147.5 52.5t-67.5 137.5h57q8 -59 49.5 -98.5t112.5 -39.5q69 0 109 36.5t40 102.5q0 74 -43 114t-119 40q-40 0 -75 -12.5t-50 -24.5l-14 -12l-44 27l46 307h324v-52h-273l-36 -218q53 38 127 38z" />
    <glyph glyph-name="fiveeighths.ss03" horiz-adv-x="881" 
d="M186 569q60 0 96 -32.5t36 -88.5t-37.5 -87t-97.5 -31t-96.5 33t-41.5 84h49q4 -32 27.5 -53t63.5 -21q39 0 62 19.5t23 54.5q0 38 -24.5 59.5t-67.5 21.5q-22 0 -41.5 -7t-27.5 -12.5t-11 -9.5l-38 19l28 182h209v-44h-166l-20 -110q31 23 75 23zM104 0l586 700h67
l-586 -700h-67zM748 190q82 -25 82 -94q0 -47 -40 -76.5t-104 -29.5t-104 29.5t-40 76.5q0 69 82 94q-67 24 -67 80q0 43 37 69t92 26t92 -26t37 -69q0 -56 -67 -80zM686 323q-36 0 -57.5 -16t-21.5 -40q0 -17 10.5 -29.5t27 -19t25 -8.5t16.5 -3q8 1 16.5 3t25 8.5t27 19
t10.5 29.5q0 24 -21.5 40t-57.5 16zM686 32q44 0 68.5 19t24.5 49q0 25 -22 42.5t-41.5 23t-29.5 5.5q-21 0 -57 -18t-36 -54q0 -28 25 -47.5t68 -19.5z" />
    <glyph glyph-name="florin.ss07" horiz-adv-x="536" 
d="M421 567q-44 0 -62.5 -24.5t-29.5 -74.5l-25 -122h149v-53h-160l-26 -128q-18 -89 -48 -127t-94 -38h-75v53h65q45 0 63 24t29 75l28 141h-129v53h140l23 117q17 86 47 121.5t95 35.5h75v-53h-65z" />
    <glyph glyph-name="four.dnom" horiz-adv-x="349" 
d="M318 116v-42h-59v-74h-49v74h-179v32l161 254h67v-244h59zM88 116h122v199z" />
    <glyph glyph-name="four.numr" horiz-adv-x="349" 
d="M318 456v-42h-59v-74h-49v74h-179v32l161 254h67v-244h59zM88 456h122v199z" />
    <glyph glyph-name="four.ss07" horiz-adv-x="552" 
d="M515 182v-51h-102v-131h-58v131h-309v41l278 448h89v-438h102zM114 182h241v395z" />
    <glyph glyph-name="four.tf" horiz-adv-x="640" 
d="M579 203v-55h-112v-148h-62v148h-340v45l306 507h96v-497h112zM138 203h267v451z" />
    <glyph glyph-name="four.tf.ss07" horiz-adv-x="590" 
d="M536 182v-51h-102v-131h-58v131h-309v41l278 448h89v-438h102zM135 182h241v395z" />
    <glyph glyph-name="gcommaaccent.ss02" 
d="M275 558q-25 0 -39.5 18.5t-14.5 51.5q0 100 105 119v-34q-24 -6 -39.5 -21t-14.5 -34q26 0 39 -14t13 -36q0 -21 -14 -35.5t-35 -14.5zM426 500h59v-501q0 -110 -53.5 -169.5t-157.5 -59.5q-97 0 -149 52t-56 130h56q5 -53 39 -90.5t111 -37.5q45 0 75.5 14t46.5 41
t22.5 58t6.5 72v76q-14 -34 -53.5 -64.5t-106.5 -30.5q-97 0 -154 70t-57 186q0 120 60.5 192t154.5 72q55 0 96.5 -25t59.5 -68v83zM269 44q76 0 116.5 55t40.5 153q0 95 -38.5 149t-111.5 54q-79 0 -119.5 -61t-40.5 -153q0 -89 39 -143t114 -54z" />
    <glyph glyph-name="gdotaccent.ss02" 
d="M273 585q-22 0 -36 14.5t-14 35.5t14 35.5t36 14.5t36 -14.5t14 -35.5t-14 -35.5t-36 -14.5zM426 500h59v-501q0 -110 -53.5 -169.5t-157.5 -59.5q-97 0 -149 52t-56 130h56q5 -53 39 -90.5t111 -37.5q45 0 75.5 14t46.5 41t22.5 58t6.5 72v76q-14 -34 -53.5 -64.5
t-106.5 -30.5q-97 0 -154 70t-57 186q0 120 60.5 192t154.5 72q55 0 96.5 -25t59.5 -68v83zM269 44q76 0 116.5 55t40.5 153q0 95 -38.5 149t-111.5 54q-79 0 -119.5 -61t-40.5 -153q0 -89 39 -143t114 -54z" />
    <glyph glyph-name="guillemotleft.case" horiz-adv-x="609" 
d="M309 555l-170 -195l170 -195h-77l-167 195l167 195h77zM529 555l-170 -195l170 -195h-77l-167 195l167 195h77z" />
    <glyph glyph-name="guillemotright.case" horiz-adv-x="609" 
d="M157 555l167 -195l-167 -195h-77l170 195l-170 195h77zM377 555l167 -195l-167 -195h-77l170 195l-170 195h77z" />
    <glyph glyph-name="guilsinglleft.case" horiz-adv-x="389" 
d="M309 555l-170 -195l170 -195h-77l-167 195l167 195h77z" />
    <glyph glyph-name="guilsinglright.case" horiz-adv-x="389" 
d="M157 555l167 -195l-167 -195h-77l170 195l-170 195h77z" />
    <glyph glyph-name="hyphen.case" horiz-adv-x="521" 
d="M70 387h381v-52h-381v52z" />
    <glyph glyph-name="i.loclTRK" horiz-adv-x="220" 
d="M72 596v78h76v-78h-76zM140 0h-60v500h60v-500z" />
    <glyph glyph-name="i.loclTRK.ss02" horiz-adv-x="220" 
d="M110 585q-22 0 -36 14.5t-14 35.5t14 35.5t36 14.5t36 -14.5t14 -35.5t-14 -35.5t-36 -14.5zM140 0h-60v500h60v-500z" />
    <glyph glyph-name="i.ss02" horiz-adv-x="220" 
d="M110 585q-22 0 -36 14.5t-14 35.5t14 35.5t36 14.5t36 -14.5t14 -35.5t-14 -35.5t-36 -14.5zM140 0h-60v500h60v-500z" />
    <glyph glyph-name="idieresis.ss02" horiz-adv-x="220" 
d="M15 572q-20 0 -32.5 13t-12.5 32t12.5 32t32.5 13t32.5 -13t12.5 -32t-12.5 -32t-32.5 -13zM205 572q-20 0 -32.5 13t-12.5 32t12.5 32t32.5 13t32.5 -13t12.5 -32t-12.5 -32t-32.5 -13zM140 0h-60v500h60v-500z" />
    <glyph glyph-name="ij.ss02" horiz-adv-x="440" 
d="M160 635q0 -21 -14 -35.5t-36 -14.5t-36 14.5t-14 35.5t14 35.5t36 14.5t36 -14.5t14 -35.5zM330 685q22 0 36 -14.5t14 -35.5t-14 -35.5t-36 -14.5t-36 14.5t-14 35.5t14 35.5t36 14.5zM80 0v500h60v-500h-60zM300 500h60v-574q0 -68 -38 -107t-108 -39h-69v52h61
q95 0 94 104v564z" />
    <glyph glyph-name="iogonek.ss02" horiz-adv-x="220" 
d="M110 585q-22 0 -36 14.5t-14 35.5t14 35.5t36 14.5t36 -14.5t14 -35.5t-14 -35.5t-36 -14.5zM68 -95q0 -53 75 -53h14v-52h-25q-59 0 -91.5 29t-32.5 71q0 62 72 101v499h60v-500q-29 -16 -50.5 -42.5t-21.5 -52.5z" />
    <glyph glyph-name="j.ss02" horiz-adv-x="220" 
d="M110 685q22 0 36 -14.5t14 -35.5t-14 -35.5t-36 -14.5t-36 14.5t-14 35.5t14 35.5t36 14.5zM80 500h60v-574q0 -68 -38 -107t-108 -39h-69v52h61q95 0 94 104v564z" />
    <glyph glyph-name="kcommaaccent.ss02" horiz-adv-x="486" 
d="M237 277l227 -277h-72l-196 234l-59 -61v-173h-57v710h57v-455l240 245h75zM258 -62q22 0 35 -16.5t13 -46.5q0 -89 -94 -107v31q21 6 35 19t14 30q-47 0 -47 45q0 19 12.5 32t31.5 13z" />
    <glyph glyph-name="lcaron.ss02" horiz-adv-x="220" 
d="M140 0h-60v710h60v-710zM249 710q24 0 38 -16.5t14 -46.5q0 -89 -100 -107v31q22 6 37 19t14 30q-24 0 -36.5 12.5t-12.5 32.5q0 19 13 32t33 13z" />
    <glyph glyph-name="lcommaaccent.ss02" horiz-adv-x="220" 
d="M140 0h-60v710h60v-710zM107 -62q22 0 35 -16.5t13 -46.5q0 -89 -94 -107v31q21 6 35 19t14 30q-47 0 -47 45q0 19 12.5 32t31.5 13z" />
    <glyph glyph-name="ncommaaccent.ss02" 
d="M336 510q73 0 112 -47t39 -141v-322h-60v296q0 85 -23.5 124t-77.5 39q-73 0 -130 -86t-57 -217v-156h-59v500h59v-166q58 176 197 176zM280 -62q22 0 35 -16.5t13 -46.5q0 -89 -94 -107v31q21 6 35 19t14 30q-47 0 -47 45q0 19 12.5 32t31.5 13z" />
    <glyph glyph-name="nine.dnom" horiz-adv-x="366" 
d="M172 123q-53 0 -88.5 33t-35.5 88q0 54 35.5 87.5t94.5 33.5q65 0 103 -45.5t38 -135.5q0 -94 -38.5 -144t-109.5 -50q-53 0 -87 32.5t-40 79.5h47q4 -27 23.5 -48t59.5 -21q49 0 73.5 40.5t24.5 104.5q-31 -55 -100 -55zM178 323q-35 0 -59 -22t-24 -58q0 -37 24 -58
t58 -21q35 0 59 21t24 58t-24 58.5t-58 21.5z" />
    <glyph glyph-name="nine.numr" horiz-adv-x="366" 
d="M172 463q-53 0 -88.5 33t-35.5 88q0 54 35.5 87.5t94.5 33.5q65 0 103 -45.5t38 -135.5q0 -94 -38.5 -144t-109.5 -50q-53 0 -87 32.5t-40 79.5h47q4 -27 23.5 -48t59.5 -21q49 0 73.5 40.5t24.5 104.5q-31 -55 -100 -55zM178 663q-35 0 -59 -22t-24 -58q0 -37 24 -58
t58 -21q35 0 59 21t24 58t-24 58.5t-58 21.5z" />
    <glyph glyph-name="nine.ss07" horiz-adv-x="572" 
d="M277 630q103 0 163 -76t60 -227q0 -162 -58 -249.5t-174 -87.5q-85 0 -138.5 54.5t-63.5 132.5h57q3 -21 11.5 -41t24.5 -42t45.5 -36t68.5 -14q88 0 131.5 75t41.5 208q-20 -47 -63.5 -77t-108.5 -30q-88 0 -145.5 56t-57.5 152q0 89 55 145.5t151 56.5zM276 273
q64 0 107.5 41t43.5 109q0 71 -44 113t-106 42q-65 0 -108 -42.5t-43 -110.5q0 -70 43.5 -111t106.5 -41z" />
    <glyph glyph-name="nine.tf" horiz-adv-x="640" 
d="M305 710q114 0 180 -85.5t66 -254.5q0 -183 -63.5 -281.5t-191.5 -98.5q-94 0 -153.5 61t-69.5 149h61q4 -23 13 -46t27 -48.5t51 -41.5t76 -16q98 0 146 85t46 236q-21 -52 -70.5 -86t-120.5 -34q-97 0 -160.5 63t-63.5 171q0 99 61 163t166 64zM304 307
q71 0 119.5 46.5t48.5 123.5q0 81 -49 129t-118 48q-72 0 -120 -48.5t-48 -125.5q0 -80 48 -126.5t119 -46.5z" />
    <glyph glyph-name="nine.tf.ss07" horiz-adv-x="590" 
d="M287 630q103 0 163 -76t60 -227q0 -162 -58 -249.5t-174 -87.5q-85 0 -138.5 54.5t-63.5 132.5h57q3 -21 11.5 -41t24.5 -42t45.5 -36t68.5 -14q88 0 131.5 75t41.5 208q-20 -47 -63.5 -77t-108.5 -30q-88 0 -145.5 56t-57.5 152q0 89 55 145.5t151 56.5zM286 273
q64 0 107.5 41t43.5 109q0 71 -44 113t-106 42q-65 0 -108 -42.5t-43 -110.5q0 -70 43.5 -111t106.5 -41z" />
    <glyph glyph-name="odieresis.ss02" horiz-adv-x="574" 
d="M192 572q-20 0 -32.5 13t-12.5 32t12.5 32t32.5 13t32.5 -13t12.5 -32t-12.5 -32t-32.5 -13zM382 572q-20 0 -32.5 13t-12.5 32t12.5 32t32.5 13t32.5 -13t12.5 -32t-12.5 -32t-32.5 -13zM287 -10q-105 0 -168.5 73t-63.5 186q0 114 63.5 187t168.5 73t168.5 -73
t63.5 -187q0 -113 -63.5 -186t-168.5 -73zM287 41q81 0 127 59t46 149q0 91 -46 149.5t-127 58.5t-127 -58.5t-46 -149.5q0 -90 46 -149t127 -59z" />
    <glyph glyph-name="one.dnom" horiz-adv-x="290" 
d="M210 360v-360h-49v255q-43 -34 -124 -37v40q54 3 92.5 27t38.5 75h42z" />
    <glyph glyph-name="one.dnom.ss06" horiz-adv-x="323" 
d="M218 41h75v-41h-239v41h115v214q-43 -34 -124 -37v40q54 3 92.5 27t38.5 75h42v-319z" />
    <glyph glyph-name="one.numr" horiz-adv-x="290" 
d="M210 700v-360h-49v255q-43 -34 -124 -37v40q54 3 92.5 27t38.5 75h42z" />
    <glyph glyph-name="one.numr.ss06" horiz-adv-x="323" 
d="M218 381h75v-41h-239v41h115v214q-43 -34 -124 -37v40q54 3 92.5 27t38.5 75h42v-319z" />
    <glyph glyph-name="one.ss06" horiz-adv-x="591" 
d="M366 58h167v-58h-442v58h212v473q-77 -80 -240 -86v54q46 3 86.5 14t78 32.5t59.5 61t22 93.5h57v-642z" />
    <glyph glyph-name="one.ss07" horiz-adv-x="411" 
d="M268 620h53v-620h-60v463q-67 -67 -200 -71v50q39 2 73 12t65.5 29.5t50 54.5t18.5 82z" />
    <glyph glyph-name="one.ss07.ss06" horiz-adv-x="549" 
d="M321 52h138v-52h-387v52h189v411q-67 -67 -200 -71v50q39 2 73 12t65.5 29.5t50 54.5t18.5 82h53v-568z" />
    <glyph glyph-name="one.tf" horiz-adv-x="640" 
d="M416 58h167v-58h-442v58h212v473q-77 -80 -240 -86v54q46 3 86.5 14t78 32.5t59.5 61t22 93.5h57v-642z" />
    <glyph glyph-name="one.tf.ss07" horiz-adv-x="590" 
d="M368 52h138v-52h-387v52h189v411q-67 -67 -200 -71v50q39 2 73 12t65.5 29.5t50 54.5t18.5 82h53v-568z" />
    <glyph glyph-name="oneeighth.ss03" horiz-adv-x="843" 
d="M210 700v-360h-49v255q-43 -34 -124 -37v40q54 3 92.5 27t38.5 75h42zM66 0l586 700h67l-586 -700h-67zM710 190q82 -25 82 -94q0 -47 -40 -76.5t-104 -29.5t-104 29.5t-40 76.5q0 69 82 94q-67 24 -67 80q0 43 37 69t92 26t92 -26t37 -69q0 -56 -67 -80zM648 323
q-36 0 -57.5 -16t-21.5 -40q0 -17 10.5 -29.5t27 -19t25 -8.5t16.5 -3q8 1 16.5 3t25 8.5t27 19t10.5 29.5q0 24 -21.5 40t-57.5 16zM648 32q44 0 68.5 19t24.5 49q0 25 -22 42.5t-41.5 23t-29.5 5.5q-21 0 -57 -18t-36 -54q0 -28 25 -47.5t68 -19.5z" />
    <glyph glyph-name="oneeighth.ss06" horiz-adv-x="893" 
d="M218 381h75v-41h-239v41h115v214q-43 -34 -124 -37v40q54 3 92.5 27t38.5 75h42v-319zM102 0l586 700h67l-586 -700h-67zM760 165q67 -24 67 -80q0 -43 -37 -69t-92 -26t-92 26t-37 69q0 56 67 80q-82 25 -82 94q0 47 40 76.5t104 29.5t104 -29.5t40 -76.5q0 -69 -82 -94
zM698 323q-43 0 -68 -19.5t-25 -47.5q0 -36 36 -54t57 -18q10 0 29.5 5.5t41.5 23t22 42.5q0 30 -24.5 49t-68.5 19zM619 88q0 -24 21.5 -40t57.5 -16t57.5 16t21.5 40q0 17 -10.5 29.5t-27 19t-25 8.5t-16.5 3q-8 -1 -16.5 -3t-25 -8.5t-27 -19t-10.5 -29.5z" />
    <glyph glyph-name="oneeighth.ss06.ss03" horiz-adv-x="879" 
d="M218 381h75v-41h-239v41h115v214q-43 -34 -124 -37v40q54 3 92.5 27t38.5 75h42v-319zM102 0l586 700h67l-586 -700h-67zM746 190q82 -25 82 -94q0 -47 -40 -76.5t-104 -29.5t-104 29.5t-40 76.5q0 69 82 94q-67 24 -67 80q0 43 37 69t92 26t92 -26t37 -69q0 -56 -67 -80
zM684 323q-36 0 -57.5 -16t-21.5 -40q0 -17 10.5 -29.5t27 -19t25 -8.5t16.5 -3q8 1 16.5 3t25 8.5t27 19t10.5 29.5q0 24 -21.5 40t-57.5 16zM684 32q44 0 68.5 19t24.5 49q0 25 -22 42.5t-41.5 23t-29.5 5.5q-21 0 -57 -18t-36 -54q0 -28 25 -47.5t68 -19.5z" />
    <glyph glyph-name="onehalf.ss06" horiz-adv-x="872" 
d="M218 381h75v-41h-239v41h115v214q-43 -34 -124 -37v40q54 3 92.5 27t38.5 75h42v-319zM102 0l586 700h67l-586 -700h-67zM823 0h-258v33l95 76q36 29 54 46t33.5 44t15.5 55q0 30 -18.5 48.5t-48.5 18.5q-39 0 -56 -27t-15 -70h-51q-4 58 27.5 99.5t95.5 41.5
q55 0 86.5 -31.5t31.5 -80.5q0 -48 -28.5 -86t-86.5 -84l-51 -40h174v-43z" />
    <glyph glyph-name="onequarter.ss06" horiz-adv-x="798" 
d="M218 381h75v-41h-239v41h115v214q-43 -34 -124 -37v40q54 3 92.5 27t38.5 75h42v-319zM102 0l586 700h67l-586 -700h-67zM767 116v-42h-59v-74h-49v74h-179v32l161 254h67v-244h59zM537 116h122v199z" />
    <glyph glyph-name="parenleft.case" horiz-adv-x="273" 
d="M235 820l38 -32q-62 -76 -106 -194t-44 -244t44 -244t106 -194l-38 -32q-59 59 -113.5 188t-54.5 282t54.5 282t113.5 188z" />
    <glyph glyph-name="parenright.case" horiz-adv-x="273" 
d="M38 -120l-38 32q62 76 106 194t44 244t-44 244t-106 194l38 32q59 -59 113.5 -188t54.5 -282t-54.5 -282t-113.5 -188z" />
    <glyph glyph-name="percent.ss07" horiz-adv-x="827" 
d="M220 330q-64 0 -108 43t-44 107t44 107t108 43t108 -43t44 -107t-44 -107t-108 -43zM155 0l440 620h69l-440 -620h-69zM220 382q41 0 66.5 28t25.5 70t-25.5 70t-66.5 28t-66.5 -28t-25.5 -70t25.5 -70t66.5 -28zM607 -10q-64 0 -108 43t-44 107t44 107t108 43t108 -43
t44 -107t-44 -107t-108 -43zM607 42q41 0 66.5 28t25.5 70t-25.5 70t-66.5 28t-66.5 -28t-25.5 -70t25.5 -70t66.5 -28z" />
    <glyph glyph-name="period.ss02" horiz-adv-x="200" 
d="M100 -10q-22 0 -36 14.5t-14 35.5t14 35.5t36 14.5t36 -14.5t14 -35.5t-14 -35.5t-36 -14.5z" />
    <glyph glyph-name="periodcentered.case" horiz-adv-x="216" 
d="M70 310v78h76v-78h-76z" />
    <glyph glyph-name="periodcentered.case.ss02" horiz-adv-x="240" 
d="M120 290q-22 0 -36 14.5t-14 35.5t14 35.5t36 14.5t36 -14.5t14 -35.5t-14 -35.5t-36 -14.5z" />
    <glyph glyph-name="periodcentered.ss02" horiz-adv-x="240" 
d="M120 226q-22 0 -36 14.5t-14 35.5t14 35.5t36 14.5t36 -14.5t14 -35.5t-14 -35.5t-36 -14.5z" />
    <glyph glyph-name="perthousand.ss07" horiz-adv-x="1170" 
d="M220 330q-64 0 -108 43t-44 107t44 107t108 43t108 -43t44 -107t-44 -107t-108 -43zM155 0l440 620h69l-440 -620h-69zM220 382q41 0 66.5 28t25.5 70t-25.5 70t-66.5 28t-66.5 -28t-25.5 -70t25.5 -70t66.5 -28zM607 -10q-64 0 -108 43t-44 107t44 107t108 43t108 -43
t44 -107t-44 -107t-108 -43zM958 -10q-64 0 -108 43t-44 107t44 107t108 43t108 -43t44 -107t-44 -107t-108 -43zM607 42q41 0 66.5 28t25.5 70t-25.5 70t-66.5 28t-66.5 -28t-25.5 -70t25.5 -70t66.5 -28zM958 42q41 0 66.5 28t25.5 70t-25.5 70t-66.5 28t-66.5 -28
t-25.5 -70t25.5 -70t66.5 -28z" />
    <glyph glyph-name="question.ss02" horiz-adv-x="497" 
d="M252 710q86 0 137 -46t51 -132q0 -38 -13.5 -69.5t-34.5 -50.5t-44.5 -40t-44.5 -39t-34.5 -47t-13.5 -64v-42h-62v40q0 50 19.5 88.5t46.5 62.5t54.5 45.5t47 51t19.5 65.5q0 60 -34.5 91.5t-91.5 31.5q-67 0 -104.5 -51.5t-33.5 -144.5h-59q-6 116 48.5 183t146.5 67z
M224 -10q-22 0 -36 14.5t-14 35.5t14 35.5t36 14.5t36 -14.5t14 -35.5t-14 -35.5t-36 -14.5z" />
    <glyph glyph-name="questiondown.case" horiz-adv-x="486" 
d="M232 618v78h76v-78h-76zM242 -9q-86 0 -137 46t-51 132q0 38 13.5 69.5t34.5 50.5t44.5 40t44.5 39t34.5 47t13.5 64v42h62v-40q0 -50 -19.5 -88.5t-46.5 -62.5t-54.5 -45.5t-47 -51t-19.5 -65.5q0 -60 34.5 -91.5t91.5 -31.5q67 0 104.5 51.5t33.5 144.5h59
q6 -116 -48.5 -183t-146.5 -67z" />
    <glyph glyph-name="questiondown.case.ss02" horiz-adv-x="486" 
d="M270 608q-22 0 -36 14.5t-14 35.5t14 35.5t36 14.5t36 -14.5t14 -35.5t-14 -35.5t-36 -14.5zM242 -9q-86 0 -137 46t-51 132q0 38 13.5 69.5t34.5 50.5t44.5 40t44.5 39t34.5 47t13.5 64v42h62v-40q0 -50 -19.5 -88.5t-46.5 -62.5t-54.5 -45.5t-47 -51t-19.5 -65.5
q0 -60 34.5 -91.5t91.5 -31.5q67 0 104.5 51.5t33.5 144.5h59q6 -116 -48.5 -183t-146.5 -67z" />
    <glyph glyph-name="questiondown.ss02" horiz-adv-x="454" 
d="M265 388q-22 0 -36 14.5t-14 35.5t14 35.5t36 14.5t36 -14.5t14 -35.5t-14 -35.5t-36 -14.5zM237 -229q-86 0 -137 46t-51 132q0 38 13.5 69.5t34.5 50.5t44.5 40t44.5 39t34.5 47t13.5 64v42h62v-40q0 -50 -19.5 -88.5t-47 -62.5t-54.5 -45.5t-46.5 -51t-19.5 -65.5
q0 -60 34.5 -91.5t91.5 -31.5q67 0 104.5 51.5t33.5 144.5h59q6 -116 -48.5 -183t-146.5 -67z" />
    <glyph glyph-name="quotedbl.ss02" horiz-adv-x="351" 
d="M88 420l-18 240q-3 50 34 50q18 0 27.5 -13.5t7.5 -36.5l-19 -240h-32zM230 420l-18 240q-3 50 34 50q18 0 27.5 -13.5t7.5 -36.5l-19 -240h-32z" />
    <glyph glyph-name="quotedblbase.ss02" horiz-adv-x="331" 
d="M89 94q24 0 38 -19t14 -54q0 -104 -101 -124v35q23 6 38 22t14 36q-24 0 -37 14.5t-13 37.5q0 22 13.5 37t33.5 15zM229 94q24 0 38 -19t14 -54q0 -104 -101 -124v35q23 6 38 22t14 36q-24 0 -37 14.5t-13 37.5q0 22 13.5 37t33.5 15z" />
    <glyph glyph-name="quotedblleft.ss02" horiz-adv-x="331" 
d="M102 514q-24 0 -38 19t-14 54q0 104 101 124v-35q-23 -6 -38 -22t-14 -36q24 0 37 -14.5t13 -37.5q0 -22 -13.5 -37t-33.5 -15zM242 514q-24 0 -38 19t-14 54q0 104 101 124v-35q-23 -6 -38 -22t-14 -36q24 0 37 -14.5t13 -37.5q0 -22 -13.5 -37t-33.5 -15z" />
    <glyph glyph-name="quotedblright.ss02" horiz-adv-x="331" 
d="M89 705q24 0 38 -19t14 -54q0 -104 -101 -124v35q23 6 38 22t14 36q-24 0 -37 14.5t-13 37.5q0 22 13.5 37t33.5 15zM229 705q24 0 38 -19t14 -54q0 -104 -101 -124v35q23 6 38 22t14 36q-24 0 -37 14.5t-13 37.5q0 22 13.5 37t33.5 15z" />
    <glyph glyph-name="quoteleft.ss02" horiz-adv-x="191" 
d="M102 514q-24 0 -38 19t-14 54q0 104 101 124v-35q-23 -6 -38 -22t-14 -36q24 0 37 -14.5t13 -37.5q0 -22 -13.5 -37t-33.5 -15z" />
    <glyph glyph-name="quoteright.ss02" horiz-adv-x="191" 
d="M89 705q24 0 38 -19t14 -54q0 -104 -101 -124v35q23 6 38 22t14 36q-24 0 -37 14.5t-13 37.5q0 22 13.5 37t33.5 15z" />
    <glyph glyph-name="quotesinglbase.ss02" horiz-adv-x="191" 
d="M89 94q24 0 38 -19t14 -54q0 -104 -101 -124v35q23 6 38 22t14 36q-24 0 -37 14.5t-13 37.5q0 22 13.5 37t33.5 15z" />
    <glyph glyph-name="quotesingle.ss02" horiz-adv-x="209" 
d="M88 420l-18 240q-3 50 34 50q18 0 27.5 -13.5t7.5 -36.5l-19 -240h-32z" />
    <glyph glyph-name="rcommaaccent.ss02" horiz-adv-x="415" 
d="M308 500h62v-51h-66q-70 0 -117 -54.5t-47 -176.5v-218h-60v500h60v-126q22 63 60.5 94.5t107.5 31.5zM107 -62q22 0 35 -16.5t13 -46.5q0 -89 -94 -107v31q21 6 35 19t14 30q-47 0 -47 45q0 19 12.5 32t31.5 13z" />
    <glyph glyph-name="s.ss03" horiz-adv-x="493" 
d="M373 351q-8 106 -123 106q-52 0 -83.5 -21t-31.5 -61q0 -18 7.5 -32t16.5 -22.5t28.5 -17t31.5 -12.5t38 -11t37 -10q74 -22 111.5 -54.5t37.5 -86.5q0 -64 -50 -101.5t-133 -37.5t-139.5 42.5t-66.5 138.5h57q4 -68 45.5 -99t106.5 -31q62 0 92.5 25t30.5 62
q0 36 -31.5 58t-105.5 42q-35 10 -51.5 15t-45 17.5t-42 25.5t-25 35.5t-11.5 50.5q0 67 51 102t125 35q80 0 128 -41.5t52 -116.5h-57z" />
    <glyph glyph-name="sacute.ss03" horiz-adv-x="493" 
d="M294 699h80l-103 -125h-67zM373 351q-8 106 -123 106q-52 0 -83.5 -21t-31.5 -61q0 -18 7.5 -32t16.5 -22.5t28.5 -17t31.5 -12.5t38 -11t37 -10q74 -22 111.5 -54.5t37.5 -86.5q0 -64 -50 -101.5t-133 -37.5t-139.5 42.5t-66.5 138.5h57q4 -68 45.5 -99t106.5 -31
q62 0 92.5 25t30.5 62q0 36 -31.5 58t-105.5 42q-35 10 -51.5 15t-45 17.5t-42 25.5t-25 35.5t-11.5 50.5q0 67 51 102t125 35q80 0 128 -41.5t52 -116.5h-57z" />
    <glyph glyph-name="scaron.ss03" horiz-adv-x="493" 
d="M322 685h64l-90 -125h-70l-90 125h64l61 -82zM373 351q-8 106 -123 106q-52 0 -83.5 -21t-31.5 -61q0 -18 7.5 -32t16.5 -22.5t28.5 -17t31.5 -12.5t38 -11t37 -10q74 -22 111.5 -54.5t37.5 -86.5q0 -64 -50 -101.5t-133 -37.5t-139.5 42.5t-66.5 138.5h57
q4 -68 45.5 -99t106.5 -31q62 0 92.5 25t30.5 62q0 36 -31.5 58t-105.5 42q-35 10 -51.5 15t-45 17.5t-42 25.5t-25 35.5t-11.5 50.5q0 67 51 102t125 35q80 0 128 -41.5t52 -116.5h-57z" />
    <glyph glyph-name="scedilla.ss03" horiz-adv-x="493" 
d="M443 129q0 -57 -40.5 -93t-108.5 -44q56 -37 56 -92q0 -42 -32.5 -71t-91.5 -29h-44v50h36q75 0 75 55q0 22 -16.5 45.5t-41.5 40.5q-74 6 -123 49t-58 131h57q4 -68 45.5 -99t106.5 -31q62 0 92.5 25t30.5 62q0 36 -31.5 58t-105.5 42q-35 10 -51.5 15t-45 17.5
t-42 25.5t-25 35.5t-11.5 50.5q0 67 51 102t125 35q80 0 128 -41.5t52 -116.5h-57q-8 106 -123 106q-52 0 -83.5 -21t-31.5 -61q0 -18 7.5 -32t16.5 -22.5t28.5 -17t31.5 -12.5t38 -11t37 -10q74 -22 111.5 -54.5t37.5 -86.5z" />
    <glyph glyph-name="scircumflex.ss03" horiz-adv-x="493" 
d="M386 560h-64l-61 82l-61 -82h-64l90 125h70zM373 351q-8 106 -123 106q-52 0 -83.5 -21t-31.5 -61q0 -18 7.5 -32t16.5 -22.5t28.5 -17t31.5 -12.5t38 -11t37 -10q74 -22 111.5 -54.5t37.5 -86.5q0 -64 -50 -101.5t-133 -37.5t-139.5 42.5t-66.5 138.5h57q4 -68 45.5 -99
t106.5 -31q62 0 92.5 25t30.5 62q0 36 -31.5 58t-105.5 42q-35 10 -51.5 15t-45 17.5t-42 25.5t-25 35.5t-11.5 50.5q0 67 51 102t125 35q80 0 128 -41.5t52 -116.5h-57z" />
    <glyph glyph-name="scommaaccent.ss02" horiz-adv-x="493" 
d="M124 148q8 -106 130 -106q108 0 108 77q0 18 -7.5 32t-16.5 22.5t-28.5 17t-31.5 12.5t-38 11t-37 10q-75 22 -112 55t-37 91q0 64 50 101.5t133 37.5t139.5 -42.5t66.5 -138.5h-57q-4 66 -45.5 98t-106.5 32q-62 0 -92.5 -25t-30.5 -62q0 -42 30 -63t107 -42
q39 -11 64 -20.5t53.5 -26t43 -42t14.5 -58.5q0 -63 -48.5 -96t-122.5 -33q-81 0 -131 41.5t-54 116.5h57zM246 -62q22 0 35 -16.5t13 -46.5q0 -89 -94 -107v31q21 6 35 19t14 30q-47 0 -47 45q0 19 12.5 32t31.5 13z" />
    <glyph glyph-name="scommaaccent.ss03" horiz-adv-x="493" 
d="M294 270q74 -22 111.5 -54.5t37.5 -86.5q0 -64 -50 -101.5t-133 -37.5t-139.5 42.5t-66.5 138.5h57q4 -68 45.5 -99t106.5 -31q62 0 92.5 25t30.5 62q0 36 -31.5 58t-105.5 42q-35 10 -51.5 15t-45 17.5t-42 25.5t-25 35.5t-11.5 50.5q0 67 51 102t125 35q80 0 128 -41.5
t52 -116.5h-57q-8 106 -123 106q-52 0 -83.5 -21t-31.5 -61q0 -18 7.5 -32t16.5 -22.5t28.5 -17t31.5 -12.5t38 -11t37 -10zM219 -138v70h76v-48q0 -61 -18 -87.5t-68 -34.5v30q28 7 37 21.5t9 48.5h-36z" />
    <glyph glyph-name="scommaaccent.ss03.ss02" horiz-adv-x="493" 
d="M373 351q-8 106 -123 106q-52 0 -83.5 -21t-31.5 -61q0 -18 7.5 -32t16.5 -22.5t28.5 -17t31.5 -12.5t38 -11t37 -10q74 -22 111.5 -54.5t37.5 -86.5q0 -64 -50 -101.5t-133 -37.5t-139.5 42.5t-66.5 138.5h57q4 -68 45.5 -99t106.5 -31q62 0 92.5 25t30.5 62
q0 36 -31.5 58t-105.5 42q-35 10 -51.5 15t-45 17.5t-42 25.5t-25 35.5t-11.5 50.5q0 67 51 102t125 35q80 0 128 -41.5t52 -116.5h-57zM255 -62q22 0 35 -16.5t13 -46.5q0 -89 -94 -107v31q21 6 35 19t14 30q-47 0 -47 45q0 19 12.5 32t31.5 13z" />
    <glyph glyph-name="semicolon.ss02" horiz-adv-x="195" 
d="M94 410q-22 0 -36 14.5t-14 35.5t14 35.5t36 14.5t36 -14.5t14 -35.5t-14 -35.5t-36 -14.5zM91 90q25 0 39.5 -18.5t14.5 -51.5q0 -100 -105 -119v34q24 6 39.5 21t14.5 34q-26 0 -39 14t-13 36q0 21 14 35.5t35 14.5z" />
    <glyph glyph-name="seven.dnom" horiz-adv-x="327" 
d="M42 360h254v-33l-168 -327h-58l164 316h-192v44z" />
    <glyph glyph-name="seven.dnom.ss06" horiz-adv-x="327" 
d="M296 360v-33l-168 -327h-58l164 316h-142v-59h-50v103h254z" />
    <glyph glyph-name="seven.numr" horiz-adv-x="327" 
d="M42 700h254v-33l-168 -327h-58l164 316h-192v44z" />
    <glyph glyph-name="seven.numr.ss06" horiz-adv-x="327" 
d="M296 700v-33l-168 -327h-58l164 316h-142v-59h-50v103h254z" />
    <glyph glyph-name="seven.ss06" horiz-adv-x="564" 
d="M511 700v-46l-324 -654h-75l323 644h-320v-119h-61v175h457z" />
    <glyph glyph-name="seven.ss07" horiz-adv-x="538" 
d="M73 620h412v-42l-291 -578h-69l289 568h-341v52z" />
    <glyph glyph-name="seven.ss07.ss06" horiz-adv-x="538" 
d="M485 620v-42l-291 -578h-69l289 568h-283v-113h-58v165h412z" />
    <glyph glyph-name="seven.tf" horiz-adv-x="640" 
d="M78 700h457v-46l-324 -654h-75l323 644h-381v56z" />
    <glyph glyph-name="seven.tf.ss06" horiz-adv-x="564" 
d="M511 700v-46l-324 -654h-75l323 644h-320v-119h-61v175h457z" />
    <glyph glyph-name="seven.tf.ss07" horiz-adv-x="590" 
d="M92 620h412v-42l-291 -578h-69l289 568h-341v52z" />
    <glyph glyph-name="seven.tf.ss07.ss06" horiz-adv-x="590" 
d="M504 620v-42l-291 -578h-69l289 568h-283v-113h-58v165h412z" />
    <glyph glyph-name="seveneighths.ss03" horiz-adv-x="777" 
d="M0 0l586 700h67l-586 -700h-67zM42 700h254v-33l-168 -327h-58l164 316h-192v44zM644 190q82 -25 82 -94q0 -47 -40 -76.5t-104 -29.5t-104 29.5t-40 76.5q0 69 82 94q-67 24 -67 80q0 43 37 69t92 26t92 -26t37 -69q0 -56 -67 -80zM582 323q-36 0 -57.5 -16t-21.5 -40
q0 -17 10.5 -29.5t27 -19t25 -8.5t16.5 -3q8 1 16.5 3t25 8.5t27 19t10.5 29.5q0 24 -21.5 40t-57.5 16zM582 32q44 0 68.5 19t24.5 49q0 25 -22 42.5t-41.5 23t-29.5 5.5q-21 0 -57 -18t-36 -54q0 -28 25 -47.5t68 -19.5z" />
    <glyph glyph-name="seveneighths.ss06" horiz-adv-x="791" 
d="M0 0l586 700h67l-586 -700h-67zM296 700v-33l-168 -327h-58l164 316h-142v-59h-50v103h254zM658 165q67 -24 67 -80q0 -43 -37 -69t-92 -26t-92 26t-37 69q0 56 67 80q-82 25 -82 94q0 47 40 76.5t104 29.5t104 -29.5t40 -76.5q0 -69 -82 -94zM596 323q-43 0 -68 -19.5
t-25 -47.5q0 -36 36 -54t57 -18q10 0 29.5 5.5t41.5 23t22 42.5q0 30 -24.5 49t-68.5 19zM517 88q0 -24 21.5 -40t57.5 -16t57.5 16t21.5 40q0 17 -10.5 29.5t-27 19t-25 8.5t-16.5 3q-8 -1 -16.5 -3t-25 -8.5t-27 -19t-10.5 -29.5z" />
    <glyph glyph-name="seveneighths.ss06.ss03" horiz-adv-x="777" 
d="M0 0l586 700h67l-586 -700h-67zM296 700v-33l-168 -327h-58l164 316h-142v-59h-50v103h254zM644 190q82 -25 82 -94q0 -47 -40 -76.5t-104 -29.5t-104 29.5t-40 76.5q0 69 82 94q-67 24 -67 80q0 43 37 69t92 26t92 -26t37 -69q0 -56 -67 -80zM582 323q-36 0 -57.5 -16
t-21.5 -40q0 -17 10.5 -29.5t27 -19t25 -8.5t16.5 -3q8 1 16.5 3t25 8.5t27 19t10.5 29.5q0 24 -21.5 40t-57.5 16zM582 32q44 0 68.5 19t24.5 49q0 25 -22 42.5t-41.5 23t-29.5 5.5q-21 0 -57 -18t-36 -54q0 -28 25 -47.5t68 -19.5z" />
    <glyph glyph-name="six.dnom" horiz-adv-x="363" 
d="M191 232q53 0 88.5 -33t35.5 -88q0 -54 -35.5 -87.5t-94.5 -33.5q-65 0 -103 45.5t-38 135.5q0 94 38.5 144t109.5 50q53 0 87 -32.5t40 -79.5h-47q-4 27 -23.5 48t-59.5 21q-49 0 -73.5 -40.5t-24.5 -104.5q31 55 100 55zM185 32q35 0 59 22t24 58q0 37 -24 58t-58 21
q-35 0 -59 -21t-24 -58t24 -58.5t58 -21.5z" />
    <glyph glyph-name="six.numr" horiz-adv-x="363" 
d="M191 572q53 0 88.5 -33t35.5 -88q0 -54 -35.5 -87.5t-94.5 -33.5q-65 0 -103 45.5t-38 135.5q0 94 38.5 144t109.5 50q53 0 87 -32.5t40 -79.5h-47q-4 27 -23.5 48t-59.5 21q-49 0 -73.5 -40.5t-24.5 -104.5q31 55 100 55zM185 372q35 0 59 22t24 58q0 37 -24 58t-58 21
q-35 0 -59 -21t-24 -58t24 -58.5t58 -21.5z" />
    <glyph glyph-name="six.ss07" horiz-adv-x="581" 
d="M298 400q88 0 145.5 -56t57.5 -152q0 -89 -55 -145.5t-151 -56.5q-103 0 -163 76t-60 227q0 162 58 249.5t174 87.5q85 0 138.5 -54.5t63.5 -132.5h-57q-3 21 -11.5 41t-24.5 42t-45.5 36t-68.5 14q-88 0 -131.5 -75t-41.5 -208q20 47 63.5 77t108.5 30zM295 42
q65 0 108 42.5t43 110.5q0 70 -43.5 111t-106.5 41q-64 0 -107.5 -41t-43.5 -109q0 -71 44 -113t106 -42z" />
    <glyph glyph-name="six.tf" horiz-adv-x="640" 
d="M334 451q97 0 160.5 -63t63.5 -171q0 -99 -61 -163t-166 -64q-114 0 -180 85.5t-66 254.5q0 183 63.5 281.5t191.5 98.5q94 0 153.5 -61t69.5 -149h-61q-4 23 -13 46t-27 48.5t-51 41.5t-76 16q-98 0 -146 -85t-46 -236q21 52 70.5 86t120.5 34zM331 46q72 0 120 48.5
t48 125.5q0 80 -48 126.5t-119 46.5t-119.5 -46.5t-48.5 -123.5q0 -81 49 -129t118 -48z" />
    <glyph glyph-name="six.tf.ss07" horiz-adv-x="590" 
d="M307 400q88 0 145.5 -56t57.5 -152q0 -89 -55 -145.5t-151 -56.5q-103 0 -163 76t-60 227q0 162 58 249.5t174 87.5q85 0 138.5 -54.5t63.5 -132.5h-57q-3 21 -11.5 41t-24.5 42t-45.5 36t-68.5 14q-88 0 -131.5 -75t-41.5 -208q20 47 63.5 77t108.5 30zM304 42
q65 0 108 42.5t43 110.5q0 70 -43.5 111t-106.5 41q-64 0 -107.5 -41t-43.5 -109q0 -71 44 -113t106 -42z" />
    <glyph glyph-name="sterling.ss07" horiz-adv-x="546" 
d="M233 53h243v-53h-412v43q97 7 142.5 40.5t45.5 83.5q0 38 -31 76h-131v53h80q-35 36 -54 71t-19 85q0 81 51 129.5t132 48.5q168 0 185 -183h-57q-12 130 -127 130q-58 0 -92 -35t-34 -91q0 -25 6 -45.5t24.5 -44t25.5 -31t34 -34.5h175v-53h-130q22 -34 22 -70
q0 -77 -79 -120z" />
    <glyph glyph-name="tcaron.ss02" horiz-adv-x="364" 
d="M309 710q24 0 38 -16.5t14 -46.5q0 -89 -100 -107v31q22 6 37 19t14 30q-24 0 -36.5 12.5t-12.5 32.5q0 19 13 32t33 13zM191 156q0 -104 86 -104h55v-52h-63q-65 0 -101.5 39t-36.5 107v302h-95v52h95v120l60 10v-130h120v-52h-120v-292z" />
    <glyph glyph-name="three.dnom" horiz-adv-x="356" 
d="M244 169q58 -20 58 -78q0 -41 -32.5 -71t-89.5 -30q-56 0 -90.5 31t-39.5 82h50q4 -35 26.5 -52t53.5 -17q35 0 53.5 18.5t18.5 43.5q0 26 -19.5 41.5t-56.5 15.5h-33v39h35q40 0 62.5 18t22.5 48q0 31 -22.5 47.5t-59.5 16.5q-85 0 -94 -81h-48q5 59 42 91.5t99 32.5
q58 0 96 -28.5t38 -77.5q0 -68 -70 -90z" />
    <glyph glyph-name="three.dnom.ss03" horiz-adv-x="356" 
d="M244 186q70 -22 70 -90q0 -49 -38 -77.5t-96 -28.5q-62 0 -99 32.5t-42 91.5h48q9 -81 94 -81q37 0 59.5 16.5t22.5 47.5q0 30 -22.5 48t-62.5 18h-35v39h33q37 0 56.5 15.5t19.5 41.5q0 25 -18.5 43.5t-53.5 18.5q-31 0 -53.5 -17t-26.5 -52h-50q5 51 39.5 82t90.5 31
q57 0 89.5 -30t32.5 -71q0 -58 -58 -78z" />
    <glyph glyph-name="three.numr" horiz-adv-x="356" 
d="M244 509q58 -20 58 -78q0 -41 -32.5 -71t-89.5 -30q-56 0 -90.5 31t-39.5 82h50q4 -35 26.5 -52t53.5 -17q35 0 53.5 18.5t18.5 43.5q0 26 -19.5 41.5t-56.5 15.5h-33v39h35q40 0 62.5 18t22.5 48q0 31 -22.5 47.5t-59.5 16.5q-85 0 -94 -81h-48q5 59 42 91.5t99 32.5
q58 0 96 -28.5t38 -77.5q0 -68 -70 -90z" />
    <glyph glyph-name="three.numr.ss03" horiz-adv-x="356" 
d="M244 526q70 -22 70 -90q0 -49 -38 -77.5t-96 -28.5q-62 0 -99 32.5t-42 91.5h48q9 -81 94 -81q37 0 59.5 16.5t22.5 47.5q0 30 -22.5 48t-62.5 18h-35v39h33q37 0 56.5 15.5t19.5 41.5q0 25 -18.5 43.5t-53.5 18.5q-31 0 -53.5 -17t-26.5 -52h-50q5 51 39.5 82t90.5 31
q57 0 89.5 -30t32.5 -71q0 -58 -58 -78z" />
    <glyph glyph-name="three.ss03" horiz-adv-x="619" 
d="M414 362q58 -21 93.5 -66t35.5 -110q0 -93 -67.5 -144.5t-167.5 -51.5q-102 0 -167.5 56.5t-75.5 168.5h60q8 -84 58.5 -126t129.5 -42q73 0 119.5 36.5t46.5 101.5q0 66 -47 106t-128 40h-64v57h64q75 0 114.5 34.5t39.5 92.5q0 55 -39 96.5t-111 41.5
q-64 0 -109.5 -36.5t-53.5 -109.5h-62q10 95 70.5 149t152.5 54q97 0 156 -57.5t59 -137.5q0 -56 -29.5 -95t-77.5 -58z" />
    <glyph glyph-name="three.ss07" horiz-adv-x="561" 
d="M377 299q98 -37 98 -136q0 -70 -53.5 -121.5t-141.5 -51.5q-84 0 -138.5 48.5t-63.5 133.5h57q7 -65 48.5 -97t98.5 -32q64 0 99 36t35 85q0 51 -35.5 81.5t-102.5 30.5h-58v52h58q73 0 113 34.5t40 90.5q0 59 -43 91.5t-110 32.5q-65 0 -111.5 -37.5t-53.5 -110.5h-56
q9 98 69.5 149.5t147.5 51.5q91 0 154 -46.5t63 -131.5q0 -56 -31.5 -95.5t-82.5 -57.5z" />
    <glyph glyph-name="three.ss07.ss03" horiz-adv-x="561" 
d="M377 321q51 -18 82.5 -57.5t31.5 -95.5q0 -85 -61 -131.5t-152 -46.5q-97 0 -154 50t-67 151h56q14 -148 169 -148q66 0 107.5 32t41.5 92q0 56 -40 90.5t-113 34.5h-58v52h58q67 0 102.5 30.5t35.5 81.5q0 49 -35 85t-99 36q-57 0 -98.5 -32t-48.5 -97h-57
q9 85 63.5 133.5t138.5 48.5q88 0 141.5 -51.5t53.5 -121.5q0 -99 -98 -136z" />
    <glyph glyph-name="three.tf" horiz-adv-x="640" 
d="M420 337q49 -21 79.5 -63t30.5 -99q0 -78 -58 -131.5t-155 -53.5q-99 0 -156.5 53t-68.5 150h62q15 -146 165 -146q71 0 109.5 37t38.5 91q0 59 -40.5 98t-113.5 39h-64v57h64q81 0 126 38.5t45 101.5q0 70 -45 107t-117 37q-79 0 -131.5 -43.5t-56.5 -124.5h-60
q3 107 71.5 166t171.5 59q99 0 165 -52.5t66 -149.5q0 -64 -35.5 -107.5t-92.5 -63.5z" />
    <glyph glyph-name="three.tf.ss03" horiz-adv-x="640" 
d="M423 362q58 -21 93.5 -66t35.5 -110q0 -93 -67.5 -144.5t-167.5 -51.5q-102 0 -167.5 56.5t-75.5 168.5h60q8 -84 58.5 -126t129.5 -42q73 0 119.5 36.5t46.5 101.5q0 66 -47 106t-128 40h-64v57h64q75 0 114.5 34.5t39.5 92.5q0 55 -39 96.5t-111 41.5
q-64 0 -109.5 -36.5t-53.5 -109.5h-62q10 95 70.5 149t152.5 54q97 0 156 -57.5t59 -137.5q0 -56 -29.5 -95t-77.5 -58z" />
    <glyph glyph-name="three.tf.ss07" horiz-adv-x="590" 
d="M391 299q98 -37 98 -136q0 -70 -53.5 -121.5t-141.5 -51.5q-84 0 -138.5 48.5t-63.5 133.5h57q7 -65 48.5 -97t98.5 -32q64 0 99 36t35 85q0 51 -35.5 81.5t-102.5 30.5h-58v52h58q73 0 113 34.5t40 90.5q0 59 -43 91.5t-110 32.5q-65 0 -111.5 -37.5t-53.5 -110.5h-56
q9 98 69.5 149.5t147.5 51.5q91 0 154 -46.5t63 -131.5q0 -56 -31.5 -95.5t-82.5 -57.5z" />
    <glyph glyph-name="three.tf.ss07.ss03" horiz-adv-x="590" 
d="M391 321q51 -18 82.5 -57.5t31.5 -95.5q0 -85 -61 -131.5t-152 -46.5q-97 0 -154 50t-67 151h56q14 -148 169 -148q66 0 107.5 32t41.5 92q0 56 -40 90.5t-113 34.5h-58v52h58q67 0 102.5 30.5t35.5 81.5q0 49 -35 85t-99 36q-57 0 -98.5 -32t-48.5 -97h-57
q9 85 63.5 133.5t138.5 48.5q88 0 141.5 -51.5t53.5 -121.5q0 -99 -98 -136z" />
    <glyph glyph-name="threeeighths.ss03" horiz-adv-x="883" 
d="M244 526q70 -22 70 -90q0 -49 -38 -77.5t-96 -28.5q-62 0 -99 32.5t-42 91.5h48q9 -81 94 -81q37 0 59.5 16.5t22.5 47.5q0 30 -22.5 48t-62.5 18h-35v39h33q37 0 56.5 15.5t19.5 41.5q0 25 -18.5 43.5t-53.5 18.5q-31 0 -53.5 -17t-26.5 -52h-50q5 51 39.5 82t90.5 31
q57 0 89.5 -30t32.5 -71q0 -58 -58 -78zM106 0l586 700h67l-586 -700h-67zM750 190q82 -25 82 -94q0 -47 -40 -76.5t-104 -29.5t-104 29.5t-40 76.5q0 69 82 94q-67 24 -67 80q0 43 37 69t92 26t92 -26t37 -69q0 -56 -67 -80zM688 323q-36 0 -57.5 -16t-21.5 -40
q0 -17 10.5 -29.5t27 -19t25 -8.5t16.5 -3q8 1 16.5 3t25 8.5t27 19t10.5 29.5q0 24 -21.5 40t-57.5 16zM688 32q44 0 68.5 19t24.5 49q0 25 -22 42.5t-41.5 23t-29.5 5.5q-21 0 -57 -18t-36 -54q0 -28 25 -47.5t68 -19.5z" />
    <glyph glyph-name="threequarters.ss03" horiz-adv-x="802" 
d="M244 526q70 -22 70 -90q0 -49 -38 -77.5t-96 -28.5q-62 0 -99 32.5t-42 91.5h48q9 -81 94 -81q37 0 59.5 16.5t22.5 47.5q0 30 -22.5 48t-62.5 18h-35v39h33q37 0 56.5 15.5t19.5 41.5q0 25 -18.5 43.5t-53.5 18.5q-31 0 -53.5 -17t-26.5 -52h-50q5 51 39.5 82t90.5 31
q57 0 89.5 -30t32.5 -71q0 -58 -58 -78zM106 0l586 700h67l-586 -700h-67zM771 116v-42h-59v-74h-49v74h-179v32l161 254h67v-244h59zM541 116h122v199z" />
    <glyph glyph-name="two.dnom" horiz-adv-x="356" 
d="M307 0h-258v33l95 76q36 29 54 46t33.5 44t15.5 55q0 30 -18.5 48.5t-48.5 18.5q-39 0 -56 -27t-15 -70h-51q-4 58 27.5 99.5t95.5 41.5q55 0 86.5 -31.5t31.5 -80.5q0 -48 -28.5 -86t-86.5 -84l-51 -40h174v-43z" />
    <glyph glyph-name="two.numr" horiz-adv-x="356" 
d="M307 340h-258v33l95 76q36 29 54 46t33.5 44t15.5 55q0 30 -18.5 48.5t-48.5 18.5q-39 0 -56 -27t-15 -70h-51q-4 58 27.5 99.5t95.5 41.5q55 0 86.5 -31.5t31.5 -80.5q0 -48 -28.5 -86t-86.5 -84l-51 -40h174v-43z" />
    <glyph glyph-name="two.ss07" horiz-adv-x="546" 
d="M483 0h-416v42l169 145q44 38 66 59t51.5 56t42 70t12.5 75q0 58 -36.5 94.5t-95.5 36.5q-72 0 -104.5 -48.5t-26.5 -127.5h-60q-6 58 12 108.5t64.5 85t115.5 34.5q89 0 140 -53t51 -135q0 -84 -51.5 -152.5t-158.5 -157.5l-96 -80h321v-52z" />
    <glyph glyph-name="two.tf" horiz-adv-x="640" 
d="M542 0h-461l-1 46l189 165q48 42 73 66t57.5 63t47 79.5t14.5 85.5q0 66 -41 107.5t-108 41.5q-80 0 -116.5 -55t-29.5 -144h-65q-10 102 45 178.5t167 76.5q99 0 155.5 -59.5t56.5 -151.5q0 -95 -57.5 -173t-177.5 -179l-107 -91h359v-56z" />
    <glyph glyph-name="two.tf.ss07" horiz-adv-x="590" 
d="M496 0h-416v42l169 145q44 38 66 59t51.5 56t42 70t12.5 75q0 58 -36.5 94.5t-95.5 36.5q-72 0 -104.5 -48.5t-26.5 -127.5h-60q-6 58 12 108.5t64.5 85t115.5 34.5q89 0 140 -53t51 -135q0 -84 -51.5 -152.5t-158.5 -157.5l-96 -80h321v-52z" />
    <glyph glyph-name="udieresis.ss02" 
d="M187 572q-20 0 -32.5 13t-12.5 32t12.5 32t32.5 13t32.5 -13t12.5 -32t-12.5 -32t-32.5 -13zM377 572q-20 0 -32.5 13t-12.5 32t12.5 32t32.5 13t32.5 -13t12.5 -32t-12.5 -32t-32.5 -13zM426 500h59v-500h-59v166q-58 -176 -197 -176q-73 0 -112 47t-39 141v322h60v-296
q0 -85 23.5 -124t77.5 -39q73 0 130 86t57 217v156z" />
    <glyph glyph-name="uni00AD.case" horiz-adv-x="521" 
d="M70 387h381v-52h-381v52z" />
    <glyph glyph-name="uni00B3.ss03" horiz-adv-x="356" 
d="M244 596q70 -22 70 -90q0 -49 -38 -77.5t-96 -28.5q-62 0 -99 32.5t-42 91.5h48q9 -81 94 -81q37 0 59.5 16.5t22.5 47.5q0 30 -22.5 48t-62.5 18h-35v39h33q37 0 56.5 15.5t19.5 41.5q0 25 -18.5 43.5t-53.5 18.5q-31 0 -53.5 -17t-26.5 -52h-50q5 51 39.5 82t90.5 31
q57 0 89.5 -30t32.5 -71q0 -58 -58 -78z" />
    <glyph glyph-name="uni00B9.ss06" horiz-adv-x="323" 
d="M218 451h75v-41h-239v41h115v214q-43 -34 -124 -37v40q54 3 92.5 27t38.5 75h42v-319z" />
    <glyph glyph-name="uni01CE.ss01" horiz-adv-x="566" 
d="M314 560h-70l-90 125h64l61 -82l61 82h64zM426 500h60v-500h-60v81q-16 -33 -55 -62t-105 -29q-97 0 -154 70t-57 186q0 120 60.5 192t155.5 72q54 0 95.5 -25.5t59.5 -67.5v83zM270 46q75 0 115.5 54.5t40.5 153.5q0 94 -38.5 147.5t-112.5 53.5q-78 0 -118.5 -61.5
t-40.5 -152.5q0 -89 39 -142t115 -53z" />
    <glyph glyph-name="uni01CF.ss06" horiz-adv-x="405" 
d="M241 767h-77l-99 138h70l68 -91l67 91h70zM335 700v-57h-100v-586h100v-57h-265v57h100v586h-100v57h265z" />
    <glyph glyph-name="uni021A.ss02" horiz-adv-x="635" 
d="M588 700v-58h-238v-642h-65v642h-238v58h541zM315 -78q25 0 39.5 -18.5t14.5 -51.5q0 -98 -104 -117v33q54 15 53 55q-25 0 -38 13.5t-13 35.5q0 21 13.5 35.5t34.5 14.5z" />
    <glyph glyph-name="uni021B.ss02" horiz-adv-x="364" 
d="M277 52h55v-52h-63q-65 0 -101.5 39t-36.5 107v302h-95v52h95v120l60 10v-130h120v-52h-120v-292q0 -104 86 -104zM232 -62q22 0 35 -16.5t13 -46.5q0 -89 -94 -107v31q21 6 35 19t14 30q-47 0 -47 45q0 19 12.5 32t31.5 13z" />
    <glyph glyph-name="uni0226.ss02" horiz-adv-x="644" 
d="M322 787q-24 0 -39.5 15.5t-15.5 39.5q0 23 15.5 39t39.5 16t39.5 -16t15.5 -39q0 -24 -15.5 -39.5t-39.5 -15.5zM546 0l-67 187h-314l-67 -187h-68l255 700h74l255 -700h-68zM186 245h272l-136 377z" />
    <glyph glyph-name="uni0227.ss01" horiz-adv-x="566" 
d="M317 674v-78h-76v78h76zM426 500h60v-500h-60v81q-16 -33 -55 -62t-105 -29q-97 0 -154 70t-57 186q0 120 60.5 192t155.5 72q54 0 95.5 -25.5t59.5 -67.5v83zM270 46q75 0 115.5 54.5t40.5 153.5q0 94 -38.5 147.5t-112.5 53.5q-78 0 -118.5 -61.5t-40.5 -152.5
q0 -89 39 -142t115 -53z" />
    </font>
</defs>
</svg>
