<?xml version="1.0" standalone="no"?>
<!DOCTYPE svg PUBLIC "-//W3C//DTD SVG 1.1//EN" "http://www.w3.org/Graphics/SVG/1.1/DTD/svg11.dtd" >
<svg xmlns="http://www.w3.org/2000/svg" xmlns:xlink="http://www.w3.org/1999/xlink" version="1.1">
<metadata>
Created by FontForge 20170731 at Tue Jan 24 14:25:49 2017
 By Aleksey,,,
(c) TIGHTYPE 2016
</metadata>
<defs>
<font id="Sneak-BoldItalic" horiz-adv-x="800" >
  <font-face 
    font-family="Sneak Bold"
    font-weight="700"
    font-style="italic"
    font-stretch="normal"
    units-per-em="1000"
    panose-1="0 0 8 0 0 0 0 0 0 0"
    ascent="800"
    descent="-200"
    x-height="500"
    cap-height="700"
    bbox="-308 -333 2321 972"
    underline-thickness="50"
    underline-position="-200"
    slope="-13"
    unicode-range="U+000D-27FC"
  />
<missing-glyph horiz-adv-x="803" 
d="M784 350q0 -150 -105 -255t-255 -105t-255 106t-105 254q0 149 105.5 254.5t254.5 105.5q151 0 255.5 -105.5t104.5 -254.5zM236 533v-45h44v-128h46v128h44v45h-134zM478 533v-45h45v-128h45v128h45v45h-135zM424 81q109 0 187 76t81 183l-46 8q0 -92 -65 -156.5
t-157 -64.5t-156.5 64.5t-64.5 156.5l-46 -8q3 -107 81 -183t186 -76z" />
    <glyph glyph-name="f_f.liga" unicode="ff" horiz-adv-x="790" 
d="M774 591q-74 0 -90 -75l-4 -16h137l-23 -100h-137l-92 -400h-143l92 400h-223l-92 -400h-143l92 400h-93l23 100h92l8 33q39 167 208 167h139l-25 -109h-92q-74 0 -90 -75l-4 -16h222l8 33q39 167 208 167h139l-25 -109h-92z" />
    <glyph glyph-name="f_f_i.liga" unicode="ffi" horiz-adv-x="1056" 
d="M1052 500l-115 -500h-144l92 400h-228l-92 -400h-143l92 400h-223l-92 -400h-143l92 400h-93l23 100h92l8 33q39 167 208 167h139l-25 -109h-92q-74 0 -90 -75l-4 -16h222l8 33q39 167 208 167h139l-25 -109h-92q-74 0 -90 -75l-4 -16h372zM951 694h149l-29 -124h-149z
" />
    <glyph glyph-name="f_f_j.liga" unicode="ffj" horiz-adv-x="1056" 
d="M1052 500l-105 -457l-21 -94q-40 -169 -226 -169h-128l26 113h72q99 0 120 94l16 70l79 343h-228l-92 -400h-143l92 400h-223l-92 -400h-143l92 400h-93l23 100h92l8 33q39 167 208 167h139l-25 -109h-92q-74 0 -90 -75l-4 -16h222l8 33q39 167 208 167h139l-25 -109h-92
q-74 0 -90 -75l-4 -16h372zM951 694h149l-29 -124h-149z" />
    <glyph glyph-name="f_f_l.liga" unicode="ffl" horiz-adv-x="1079" 
d="M979 710h146l-164 -710h-146l92 400h-250l-92 -400h-143l92 400h-223l-92 -400h-143l92 400h-93l23 100h92l8 33q39 167 208 167h139l-25 -109h-92q-74 0 -90 -75l-4 -16h222l8 33q39 167 208 167h139l-25 -109h-92q-74 0 -90 -75l-4 -16h250z" />
    <glyph glyph-name="f_i.liga" unicode="fi" horiz-adv-x="691" 
d="M687 500l-115 -500h-144l92 400h-229l-92 -400h-143l92 400h-93l23 100h92l8 33q39 167 208 167h139l-25 -109h-92q-74 0 -90 -75l-4 -16h373zM586 694h149l-29 -124h-149z" />
    <glyph glyph-name="f_j.liga" unicode="fj" horiz-adv-x="689" 
d="M685 500l-105 -457l-21 -94q-40 -169 -226 -169h-128l26 113h72q99 0 120 94l16 70l79 343h-227l-92 -400h-143l92 400h-93l23 100h92l8 33q39 167 208 167h139l-25 -109h-92q-74 0 -90 -75l-4 -16h371zM584 694h149l-29 -124h-149z" />
    <glyph glyph-name="f_l.liga" unicode="fl" horiz-adv-x="712" 
d="M612 710h146l-164 -710h-146l92 400h-249l-92 -400h-143l92 400h-93l23 100h92l8 33q39 167 208 167h139l-25 -109h-92q-74 0 -90 -75l-4 -16h249z" />
    <glyph glyph-name=".notdef" horiz-adv-x="803" 
d="M784 350q0 -150 -105 -255t-255 -105t-255 106t-105 254q0 149 105.5 254.5t254.5 105.5q151 0 255.5 -105.5t104.5 -254.5zM236 533v-45h44v-128h46v128h44v45h-134zM478 533v-45h45v-128h45v128h45v45h-135zM424 81q109 0 187 76t81 183l-46 8q0 -92 -65 -156.5
t-157 -64.5t-156.5 64.5t-64.5 156.5l-46 -8q3 -107 81 -183t186 -76z" />
    <glyph glyph-name=".null" horiz-adv-x="0" 
 />
    <glyph glyph-name="nonmarkingreturn" horiz-adv-x="333" 
 />
    <glyph glyph-name="NULL" horiz-adv-x="0" 
 />
    <glyph glyph-name="NULL" horiz-adv-x="0" 
 />
    <glyph glyph-name="CR" unicode="&#xd;" horiz-adv-x="250" 
 />
    <glyph glyph-name="space" unicode=" " horiz-adv-x="260" 
 />
    <glyph glyph-name="exclam" unicode="!" horiz-adv-x="257" 
d="M158 700h151l-133 -475h-105zM-8 0l34 148h157l-34 -148h-157z" />
    <glyph glyph-name="quotedbl" unicode="&#x22;" horiz-adv-x="380" 
d="M88 420l48 280h131l-83 -280h-96zM274 420l48 280h131l-83 -280h-96z" />
    <glyph glyph-name="numbersign" unicode="#" horiz-adv-x="679" 
d="M663 385h-104l-61 -149h103l-24 -104h-122l-55 -132h-115l55 132h-121l-55 -132h-115l55 132h-84l24 104h103l61 149h-103l23 104h123l55 132h115l-55 -132h121l55 132h115l-55 -132h84zM383 236l61 149h-121l-61 -149h121z" />
    <glyph glyph-name="dollar" unicode="$" horiz-adv-x="582" 
d="M595 475h-134q9 59 -23 88.5t-83 29.5q-52 0 -88 -28.5t-36 -73.5q0 -9 2 -17l3.5 -14t7.5 -12.5t9 -11t12 -10.5t12.5 -8.5t15 -8.5t15.5 -8t18 -8t17 -8q38 -18 61.5 -31.5t49.5 -36t38 -53t12 -69.5q0 -89 -61.5 -141t-158.5 -62l-21 -92h-114l22 96
q-82 17 -115.5 73.5t-20.5 138.5h133q-7 -51 18.5 -74.5t74.5 -23.5q41 0 68.5 16.5t27.5 50.5q0 18 -6.5 31.5t-23.5 26t-28 18.5t-39 20q-7 3 -10 5q-90 43 -127.5 87.5t-37.5 111.5q0 100 69.5 160.5t180.5 69.5l19 83h114l-21 -90q87 -19 125.5 -79t22.5 -146z" />
    <glyph glyph-name="percent" unicode="%" horiz-adv-x="814" 
d="M248 395q-60 0 -98.5 38.5t-38.5 96.5q0 74 58.5 127t132.5 53q61 0 99 -38t38 -97q0 -74 -58.5 -127t-132.5 -53zM52 0l636 700h129l-636 -700h-129zM262 492q29 0 50 22t21 52q0 20 -11.5 33.5t-33.5 13.5q-28 0 -49.5 -22t-21.5 -52q0 -20 12 -33.5t33 -13.5zM559 -10
q-60 0 -98.5 38.5t-38.5 96.5q0 74 58.5 127t132.5 53q61 0 99 -38t38 -97q0 -74 -58.5 -127t-132.5 -53zM573 87q29 0 50 22t21 52q0 21 -11.5 34t-33.5 13q-28 0 -49.5 -22t-21.5 -52q0 -20 12 -33.5t33 -13.5z" />
    <glyph glyph-name="ampersand" unicode="&#x26;" horiz-adv-x="675" 
d="M614 106h46l-24 -106h-48q-93 0 -149 44q-87 -54 -205 -54q-106 0 -167 47t-61 131q0 74 47.5 122.5t132.5 86.5q-44 73 -44 137q0 87 66 141.5t163 54.5q85 0 135.5 -42t50.5 -111q0 -71 -52 -120.5t-139 -91.5l88 -123q40 58 63 161h123q-35 -152 -106 -252
q35 -25 80 -25zM365 607q-39 0 -67 -28t-28 -65t35 -86q60 26 90.5 53t30.5 65q0 28 -16.5 44.5t-44.5 16.5zM149 177q0 -37 26.5 -57t70.5 -20q59 0 114 35l-95 131l-18 25q-46 -23 -72 -49.5t-26 -64.5z" />
    <glyph glyph-name="quotesingle" unicode="'" horiz-adv-x="194" 
d="M88 420l48 280h131l-83 -280h-96z" />
    <glyph glyph-name="parenleft" unicode="(" horiz-adv-x="325" 
d="M374 836l63 -69q-128 -129 -199.5 -270t-71.5 -313q0 -186 67 -328l-85 -52q-39 63 -74.5 173.5t-35.5 227.5q0 93 27 184t63.5 156.5t87.5 129t86.5 97.5t71.5 64z" />
    <glyph glyph-name="parenright" unicode=")" horiz-adv-x="328" 
d="M-16 -196l-63 69q128 129 199.5 270t71.5 313q0 186 -67 328l85 52q39 -63 74.5 -173.5t35.5 -227.5q0 -93 -27 -184t-63.5 -156.5t-87.5 -129t-86.5 -97.5t-71.5 -64z" />
    <glyph glyph-name="asterisk" unicode="*" horiz-adv-x="396" 
d="M432 550l-114 -27l75 -89l-65 -47l-61 99l-62 -99l-65 47l75 89l-113 27l25 79l108 -45l-9 116h81l-9 -116l109 45z" />
    <glyph glyph-name="plus" unicode="+" horiz-adv-x="575" 
d="M546 297l-25 -111h-186l-43 -186h-123l43 186h-187l26 111h187l42 183h123l-42 -183h185z" />
    <glyph glyph-name="comma" unicode="," horiz-adv-x="259" 
d="M27 148h158l-21 -92q-24 -105 -73.5 -148t-148.5 -48l15 63q86 2 104 77h-68z" />
    <glyph glyph-name="hyphen" unicode="-" horiz-adv-x="518" 
d="M63 351h439l-26 -112h-439z" />
    <glyph glyph-name="period" unicode="." horiz-adv-x="257" 
d="M-8 0l34 148h157l-34 -148h-157z" />
    <glyph glyph-name="slash" unicode="/" horiz-adv-x="495" 
d="M-65 -50l529 800h142l-529 -800h-142z" />
    <glyph glyph-name="zero" unicode="0" horiz-adv-x="661" 
d="M292 -10q-85 0 -141.5 39t-79.5 98t-23 136q0 75 22.5 151t65.5 143.5t115.5 110t161.5 42.5q125 0 185 -77t60 -196q0 -58 -13.5 -119t-43.5 -120t-71.5 -105t-103.5 -74.5t-134 -28.5zM304 117q64 0 111 53.5t67 124.5t20 143q0 145 -100 145q-64 0 -111 -53
t-67 -123.5t-20 -142.5q0 -147 100 -147z" />
    <glyph glyph-name="one" unicode="1" horiz-adv-x="497" 
d="M525 700l-162 -700h-151l99 427q-95 -43 -241 -46l29 127q50 1 95 11t89.5 30.5t76.5 59t45 91.5h120z" />
    <glyph glyph-name="two" unicode="2" horiz-adv-x="629" 
d="M521 0h-531l21 90l194 126q62 40 90.5 59t71 52t61 56t33.5 54.5t15 64.5q0 41 -21 63.5t-60 22.5q-60 0 -98.5 -49t-54.5 -125h-144q61 296 303 296q107 0 165 -53t58 -143q0 -93 -64 -169t-197 -165l-94 -63h278z" />
    <glyph glyph-name="three" unicode="3" horiz-adv-x="632" 
d="M643 521q0 -68 -44.5 -116t-122.5 -69q75 -39 75 -132q0 -88 -69.5 -151t-197.5 -63q-132 0 -187.5 67.5t-38.5 163.5h148q-18 -111 84 -111q54 0 85.5 29.5t31.5 73.5q0 36 -23.5 57t-70.5 21h-44l7 30h-1l15 67h55q67 0 106.5 32t39.5 81q0 42 -27.5 64.5t-71.5 22.5
q-55 0 -100.5 -36t-63.5 -98h-140q31 114 109 185t206 71q110 0 175 -52.5t65 -136.5z" />
    <glyph glyph-name="four" unicode="4" horiz-adv-x="655" 
d="M618 254l-27 -116h-109l-32 -138h-136l32 138h-333l20 87l408 475h171l-103 -446h109zM198 254h175l66 286z" />
    <glyph glyph-name="five" unicode="5" horiz-adv-x="626" 
d="M603 576h-280l-54 -139q43 25 101 25q89 0 144.5 -55.5t55.5 -149.5q0 -116 -83.5 -191.5t-213.5 -75.5q-127 0 -187 72t-44 170h140q-6 -53 18 -88t83 -35q66 0 108.5 42t42.5 103q0 47 -28 74t-80 27q-69 0 -129 -54l-101 45l134 354h402z" />
    <glyph glyph-name="six" unicode="6" horiz-adv-x="654" 
d="M655 491h-128q3 44 -21 74t-78 30q-75 0 -127 -58t-78 -146q65 69 165 69q93 0 150 -56.5t57 -147.5q0 -115 -87 -190.5t-209 -75.5q-135 0 -193.5 99.5t-17.5 277.5q80 343 337 343q118 0 180 -63.5t50 -155.5zM361 353q-54 0 -101.5 -42.5t-47.5 -108.5q0 -48 26.5 -73
t64.5 -25q55 0 102.5 41t47.5 108q0 49 -26 74.5t-66 25.5z" />
    <glyph glyph-name="seven" unicode="7" horiz-adv-x="613" 
d="M153 700h519l-21 -88l-452 -612h-175l425 574h-325z" />
    <glyph glyph-name="eight" unicode="8" horiz-adv-x="655" 
d="M662 513q0 -144 -174 -195q70 -44 70 -126q0 -93 -80.5 -148t-190.5 -55q-96 0 -159 44.5t-63 127.5q0 116 130 166q-90 44 -90 143q0 101 85.5 167t222.5 66q117 0 183 -50.5t66 -139.5zM357 376q6 1 16.5 3t37.5 12t47.5 23t37.5 37.5t17 54.5q0 41 -28 64t-79 23
q-66 0 -110 -35.5t-44 -84.5q0 -23 11 -41t26 -28t30.5 -17t26.5 -9zM294 100q53 0 87.5 29.5t34.5 73.5q0 32 -20 53.5t-40 27.5l-19 5q-5 -1 -13.5 -3t-30.5 -11t-39 -21t-30.5 -34t-13.5 -49q0 -34 22 -52.5t62 -18.5z" />
    <glyph glyph-name="nine" unicode="9" horiz-adv-x="642" 
d="M396 710q135 0 193.5 -99.5t17.5 -277.5q-80 -343 -337 -343q-118 0 -180 63.5t-50 155.5h128q-3 -44 21 -74t78 -30q75 0 127 58t78 146q-65 -69 -165 -69q-93 0 -150 56.5t-57 147.5q0 115 87 190.5t209 75.5zM334 347q54 0 101.5 42.5t47.5 108.5q0 48 -26.5 73
t-64.5 25q-55 0 -102.5 -41t-47.5 -108q0 -49 26 -74.5t66 -25.5z" />
    <glyph glyph-name="colon" unicode=":" horiz-adv-x="258" 
d="M74 352l34 148h157l-34 -148h-157zM-7 0l34 148h157l-34 -148h-157z" />
    <glyph glyph-name="semicolon" unicode=";" horiz-adv-x="259" 
d="M108 500h157l-34 -148h-157zM-7 0l34 148h158l-21 -92q-24 -105 -73.5 -148t-148.5 -48l15 63q86 2 104 77h-68z" />
    <glyph glyph-name="less" unicode="&#x3c;" horiz-adv-x="578" 
d="M91 309l470 181l-32 -146l-330 -113l278 -112l-31 -129l-388 181z" />
    <glyph glyph-name="equal" unicode="=" horiz-adv-x="580" 
d="M81 404h495l-25 -111h-496zM26 186h495l-25 -111h-496z" />
    <glyph glyph-name="greater" unicode="&#x3e;" horiz-adv-x="573" 
d="M482 171l-470 -181l32 146l330 113l-278 112l31 129l388 -181z" />
    <glyph glyph-name="question" unicode="?" horiz-adv-x="521" 
d="M351 710q94 0 147.5 -43.5t53.5 -123.5q0 -50 -23 -86.5t-57.5 -58.5t-70 -42t-65.5 -50t-38 -70l-2 -11h-131l6 26q13 54 42.5 92.5t61.5 59t63 38t51 39.5t20 53q0 62 -66 62q-43 0 -77.5 -31.5t-49.5 -103.5h-134q22 124 90.5 187t178.5 63zM100 0l34 148h157
l-34 -148h-157z" />
    <glyph glyph-name="at" unicode="@" horiz-adv-x="963" 
d="M555 710q167 0 277 -98t110 -261q0 -136 -73.5 -234.5t-181.5 -98.5q-91 0 -119 68q-61 -68 -155 -68q-83 0 -127 51t-44 136q0 120 77.5 206.5t174.5 86.5q85 0 122 -68l13 58h110l-64 -280q-24 -93 37 -93q38 0 66.5 38.5t41 89t12.5 100.5q0 117 -72.5 191.5
t-198.5 74.5q-165 0 -288.5 -120.5t-123.5 -291.5q0 -122 70 -194t200 -72q111 0 181 51l54 -72q-113 -80 -255 -80q-166 0 -266 100t-100 269q0 144 73.5 262.5t193 183.5t255.5 65zM443 113q62 0 99 56t37 134q0 100 -74 100q-63 0 -105 -59.5t-42 -129.5q0 -43 20.5 -72
t64.5 -29z" />
    <glyph glyph-name="A" unicode="A" horiz-adv-x="711" 
d="M489 0l-16 153h-272l-88 -153h-160l416 700h180l93 -700h-153zM270 273h190l-30 278z" />
    <glyph glyph-name="B" unicode="B" horiz-adv-x="646" 
d="M680 530q0 -66 -45 -115t-143 -68q98 -42 98 -146q0 -87 -69 -144t-216 -57h-151h-145l162 700h145h158q100 0 153 -47.5t53 -122.5zM403 413q64 0 95.5 25.5t31.5 64.5q0 34 -23 53.5t-67 19.5h-153l-37 -163h153zM318 127q62 0 93 24t31 65q0 37 -24 58.5t-68 21.5
h-127l-40 -169h135z" />
    <glyph glyph-name="C" unicode="C" horiz-adv-x="749" 
d="M712 271q-37 -142 -136.5 -211.5t-230.5 -69.5q-142 0 -217.5 77.5t-76.5 213.5q0 116 51.5 214t149 156.5t220.5 58.5q142 0 213.5 -74.5t60.5 -186.5h-152q4 61 -30.5 95.5t-105.5 34.5q-115 0 -183.5 -85t-68.5 -204q0 -85 39 -130t115 -45q141 0 200 156h152z" />
    <glyph glyph-name="D" unicode="D" horiz-adv-x="723" 
d="M406 700q151 0 229 -80.5t78 -218.5q0 -59 -14 -114.5t-46 -108t-80 -92t-122 -63t-165 -23.5h-277l162 700h235zM291 127q128 0 194.5 78.5t66.5 195.5q0 84 -40.5 128t-139.5 44h-77l-104 -446h100z" />
    <glyph glyph-name="E" unicode="E" horiz-adv-x="604" 
d="M627 569h-335l-36 -156h309l-28 -121h-309l-38 -161h336l-30 -131h-487l162 700h487z" />
    <glyph glyph-name="F" unicode="F" horiz-adv-x="574" 
d="M603 566h-311l-39 -168h295l-30 -129h-295l-62 -269h-152l162 700h464z" />
    <glyph glyph-name="G" unicode="G" horiz-adv-x="765" 
d="M742 450h-147q6 63 -28.5 97t-100.5 34q-107 0 -183 -84t-76 -204q0 -84 42.5 -130.5t127.5 -46.5q71 0 125.5 36t72.5 115h-217l25 106h347l-11 -47l-75 -326h-92l8 91q-82 -100 -227 -101q-130 -1 -205 76.5t-76 217.5q-2 182 117 304t303 122q141 0 214.5 -73
t55.5 -187z" />
    <glyph glyph-name="H" unicode="H" horiz-adv-x="747" 
d="M627 700h157l-162 -700h-157l67 291h-299l-67 -291h-157l162 700h157l-65 -280h299z" />
    <glyph glyph-name="I" unicode="I" horiz-adv-x="287" 
d="M162 0h-153l162 700h153z" />
    <glyph glyph-name="J" unicode="J" horiz-adv-x="662" 
d="M547 700h153l-109 -474q-27 -118 -107 -177t-201 -59q-142 0 -206 76.5t-34 212.5l7 31h153l-7 -31q-37 -161 96 -161q121 0 156 154z" />
    <glyph glyph-name="K" unicode="K" horiz-adv-x="664" 
d="M742 700l-339 -306l197 -394h-163l-148 292l-80 -73l-51 -219h-149l162 700h149l-61 -264l284 264h199z" />
    <glyph glyph-name="L" unicode="L" horiz-adv-x="588" 
d="M193 135h341l-30 -135h-495l162 700h153z" />
    <glyph glyph-name="M" unicode="M" horiz-adv-x="917" 
d="M954 700l-162 -700h-142l118 511l-297 -511h-142l-58 514l-119 -514h-143l162 700h198l64 -536l302 536h219z" />
    <glyph glyph-name="N" unicode="N" horiz-adv-x="749" 
d="M639 700h147l-162 -700h-174l-173 522l-121 -522h-147l162 700h175l172 -522z" />
    <glyph glyph-name="O" unicode="O" horiz-adv-x="790" 
d="M358 -10q-145 0 -225 78t-80 222q0 182 118.5 301t304.5 119q145 0 225 -78t80 -222q0 -182 -118.5 -301t-304.5 -119zM369 119q105 0 176.5 84.5t71.5 203.5q0 82 -39 128t-112 46q-106 0 -177 -84.5t-71 -203.5q0 -83 39 -128.5t112 -45.5z" />
    <glyph glyph-name="P" unicode="P" horiz-adv-x="616" 
d="M412 700q120 0 177.5 -63t57.5 -158q0 -51 -17 -97t-51.5 -85.5t-95.5 -62.5t-142 -23h-133l-49 -211h-150l162 700h150h91zM349 335q69 0 106.5 39.5t37.5 94.5q0 48 -24.5 77t-77.5 29h-99l-55 -240h112z" />
    <glyph glyph-name="Q" unicode="Q" horiz-adv-x="790" 
d="M781 410q0 -179 -114 -296l85 -114h-140l-34 45q-97 -55 -220 -55q-145 0 -225 78t-80 222q0 182 118.5 301t304.5 119q145 0 225 -78t80 -222zM369 119q68 0 125 38l-119 158l90 69l107 -143q45 73 45 166q0 82 -39 128t-112 46q-106 0 -177 -84.5t-71 -203.5
q0 -83 39 -128.5t112 -45.5z" />
    <glyph glyph-name="R" unicode="R" horiz-adv-x="656" 
d="M660 504q0 -165 -210 -205q56 -15 86 -52t37 -107l15 -140h-158l-15 136q-8 69 -50 89t-152 20l-57 -245h-147l162 700h242q130 0 188.5 -55.5t58.5 -140.5zM366 366q66 0 101 32.5t35 80.5q0 39 -24.5 64.5t-76.5 25.5h-113l-47 -203h125z" />
    <glyph glyph-name="S" unicode="S" horiz-adv-x="649" 
d="M199 223q-8 -53 18.5 -80.5t82.5 -27.5q49 0 79.5 21.5t30.5 58.5q0 34 -27 49t-103 36q-101 25 -149 68t-48 121q0 111 87 176t214 65q130 0 212 -69.5t59 -194.5h-148q11 65 -22 99t-100 34q-62 0 -104.5 -27t-42.5 -72q0 -20 8.5 -34.5t29.5 -25.5t37 -17t51 -16
q37 -10 59.5 -17t53.5 -22.5t48 -34t30 -48t13 -67.5q0 -100 -75.5 -154t-192.5 -54q-131 0 -199.5 66t-51.5 167h150z" />
    <glyph glyph-name="T" unicode="T" horiz-adv-x="646" 
d="M723 700l-30 -131h-220l-132 -569h-153l132 569h-220l30 131h593z" />
    <glyph glyph-name="U" unicode="U" horiz-adv-x="741" 
d="M169 700h153l-92 -395q-42 -184 113 -184q150 0 192 184l92 395h153l-99 -427q-31 -134 -120 -209t-236 -74q-152 1 -216.5 85.5t-26.5 249.5z" />
    <glyph glyph-name="V" unicode="V" horiz-adv-x="734" 
d="M650 700h179l-428 -700h-184l-104 700h164l62 -542z" />
    <glyph glyph-name="W" unicode="W" horiz-adv-x="1030" 
d="M954 700h164l-349 -700h-159l-24 532l-271 -532h-171l-24 700h154l-1 -520l263 520h166l22 -498z" />
    <glyph glyph-name="X" unicode="X" horiz-adv-x="702" 
d="M775 700l-309 -343l163 -357h-171l-106 230l-206 -230h-189l331 369l-152 331h174l93 -203l182 203h190z" />
    <glyph glyph-name="Y" unicode="Y" horiz-adv-x="718" 
d="M623 700h185l-530 -700h-186l218 283l-195 417h176l124 -285z" />
    <glyph glyph-name="Z" unicode="Z" horiz-adv-x="666" 
d="M707 700l-21 -91l-449 -478h352l-30 -131h-576l21 91l449 478h-321l31 131h544z" />
    <glyph glyph-name="bracketleft" unicode="[" horiz-adv-x="354" 
d="M462 719h-163l-183 -794h163l-26 -109h-286l234 1012h286z" />
    <glyph glyph-name="backslash" unicode="\" horiz-adv-x="478" 
d="M405 -50h-127l-159 800h127z" />
    <glyph glyph-name="bracketright" unicode="]" horiz-adv-x="354" 
d="M420 828l-234 -1012h-286l25 109h163l183 794h-163l26 109h286z" />
    <glyph glyph-name="asciicircum" unicode="^" horiz-adv-x="585" 
d="M458 700l115 -380h-137l-68 230l-174 -229h-151l291 379h124z" />
    <glyph glyph-name="underscore" unicode="_" horiz-adv-x="513" 
d="M-11 39h439l-26 -112h-439z" />
    <glyph glyph-name="grave" unicode="`" horiz-adv-x="438" 
d="M335 700l74 -141h-107l-114 141h147z" />
    <glyph glyph-name="a" unicode="a" horiz-adv-x="602" 
d="M461 500h138l-115 -500h-138l12 51q-24 -26 -64.5 -43.5t-88.5 -17.5q-82 0 -132 53t-50 151q0 133 85 224.5t194 91.5q50 0 88 -21t56 -56zM253 94q63 0 107.5 56.5t44.5 137.5q0 109 -85 109q-66 0 -108.5 -59.5t-42.5 -136.5q0 -107 84 -107z" />
    <glyph glyph-name="b" unicode="b" horiz-adv-x="600" 
d="M388 510q81 0 133 -60.5t52 -161.5q0 -125 -78 -211.5t-192 -86.5q-104 0 -145 79l-16 -69h-139l164 710h139l-61 -263q56 63 143 63zM284 94q64 0 103.5 56t39.5 133q0 114 -87 114q-62 0 -102 -56.5t-40 -135.5q0 -111 86 -111z" />
    <glyph glyph-name="c" unicode="c" horiz-adv-x="575" 
d="M404 306q3 43 -17 67.5t-63 24.5q-69 0 -112.5 -55.5t-43.5 -130.5q0 -51 24 -80t68 -29q84 0 122 90h139q-33 -97 -100.5 -150t-166.5 -53q-109 0 -169 58t-60 156q0 127 85 216.5t218 89.5q108 0 166.5 -59t46.5 -145h-137z" />
    <glyph glyph-name="d" unicode="d" horiz-adv-x="599" 
d="M506 710h139l-164 -710h-139l13 55q-55 -65 -151 -65q-86 0 -133 56t-47 150q0 132 84.5 223t195.5 91q98 0 139 -71zM255 94q64 0 104.5 58t40.5 136q0 109 -86 109q-66 0 -105 -60.5t-39 -134.5q0 -108 85 -108z" />
    <glyph glyph-name="e" unicode="e" horiz-adv-x="572" 
d="M322 510q116 0 169 -72t35 -199q-4 -20 -4 -22h-355v-12q0 -109 98 -109q78 0 110 72h137q-70 -178 -254 -178q-116 0 -174 59.5t-58 157.5q0 122 80.5 212.5t215.5 90.5zM185 302h212q11 105 -78 105q-92 0 -134 -105z" />
    <glyph glyph-name="f" unicode="f" horiz-adv-x="424" 
d="M408 591q-74 0 -90 -75l-4 -16h137l-23 -100h-137l-92 -400h-143l92 400h-93l23 100h92l8 33q39 167 208 167h139l-25 -109h-92z" />
    <glyph glyph-name="g" unicode="g" horiz-adv-x="598" 
d="M459 500h137l-118 -512q-25 -112 -93.5 -165t-187.5 -53q-69 0 -116.5 16.5t-69 45t-28 60t-1.5 67.5h131q-4 -38 17 -60.5t74 -22.5q59 0 92 30t47 92l13 55q-61 -63 -155 -63q-83 0 -130.5 54t-47.5 149q0 133 85.5 225t196.5 92q48 0 87 -20t51 -57zM253 94
q64 0 106.5 56.5t42.5 139.5q0 108 -83 108q-66 0 -109 -59t-43 -138q0 -107 86 -107z" />
    <glyph glyph-name="h" unicode="h" horiz-adv-x="609" 
d="M436 510q79 0 114 -54.5t9 -164.5l-67 -291h-144l59 256q18 72 7.5 104.5t-55.5 32.5q-121 0 -178 -243l5 22l-40 -172h-142l115 500l49 210h142l-49 -210l-26 -112q82 122 201 122z" />
    <glyph glyph-name="i" unicode="i" horiz-adv-x="266" 
d="M133 570l29 124h149l-29 -124h-149zM148 0h-144l115 500h144z" />
    <glyph glyph-name="j" unicode="j" horiz-adv-x="266" 
d="M162 694h149l-29 -124h-149zM119 500h144l-105 -457l-21 -94q-40 -169 -226 -169h-128l26 113h72q99 0 120 94l16 70z" />
    <glyph glyph-name="k" unicode="k" horiz-adv-x="550" 
d="M591 500l-250 -217l146 -283h-144l-102 197l-71 -62l-31 -135h-136l164 710h136l-91 -393l207 183h172z" />
    <glyph glyph-name="l" unicode="l" horiz-adv-x="267" 
d="M149 0h-146l164 710h146z" />
    <glyph glyph-name="m" unicode="m" horiz-adv-x="905" 
d="M739 510q74 0 107.5 -55t7.5 -170l-66 -285h-139l64 275q14 62 2.5 89.5t-48.5 27.5q-105 0 -155 -197l-45 -195h-140l63 271q15 65 4.5 93t-47.5 28q-101 0 -153 -184l-48 -208h-142l115 500h142l-25 -108q72 118 181 118q123 0 126 -131q78 131 196 131z" />
    <glyph glyph-name="n" unicode="n" horiz-adv-x="609" 
d="M436 510q79 0 114 -54.5t9 -164.5l-67 -291h-144l59 256q18 72 7.5 104.5t-55.5 32.5q-121 0 -178 -243l5 22l-40 -172h-142l115 500h142l-26 -112q82 122 201 122z" />
    <glyph glyph-name="o" unicode="o" horiz-adv-x="581" 
d="M247 -10q-105 0 -163 56.5t-58 159.5q0 133 88.5 218.5t221.5 85.5q105 0 162 -57t57 -161q0 -133 -87.5 -217.5t-220.5 -84.5zM261 98q69 0 109 60.5t40 134.5q0 107 -88 107q-67 0 -108.5 -58.5t-41.5 -134.5q0 -109 89 -109z" />
    <glyph glyph-name="p" unicode="p" horiz-adv-x="604" 
d="M393 510q81 0 132.5 -59.5t51.5 -159.5q0 -124 -76 -212.5t-185 -88.5q-105 0 -154 83l-67 -293h-142l166 720h142l-13 -57q55 67 145 67zM289 94q62 0 101.5 55t39.5 131q0 52 -20.5 84.5t-66.5 32.5q-60 0 -101 -55.5t-41 -134.5q0 -113 88 -113z" />
    <glyph glyph-name="q" unicode="q" horiz-adv-x="604" 
d="M458 500h143l-166 -720h-143l61 266q-49 -56 -141 -56q-89 0 -138 56t-49 153q0 131 82 221t190 90q50 0 89.5 -20.5t56.5 -53.5zM256 94q62 0 103.5 55t41.5 137q0 111 -83 111q-64 0 -105.5 -59.5t-41.5 -135.5q0 -108 85 -108z" />
    <glyph glyph-name="r" unicode="r" horiz-adv-x="456" 
d="M412 500h80l-27 -121h-65q-40 0 -67 -6.5t-56 -26t-50 -61t-37 -107.5l-41 -178h-145l115 500h145l-22 -97q54 97 170 97z" />
    <glyph glyph-name="s" unicode="s" horiz-adv-x="520" 
d="M159 163q-10 -74 71 -74q73 0 73 51q0 24 -18.5 34.5t-67.5 24.5q-7 2 -11 3q-77 20 -117 51.5t-40 89.5q0 76 65.5 121.5t169.5 45.5q112 0 169.5 -51.5t49.5 -134.5h-129q4 38 -22.5 59t-71.5 21q-39 0 -64.5 -15t-25.5 -41q0 -22 20.5 -32.5t73.5 -23.5
q76 -20 117.5 -51t41.5 -94q0 -75 -60.5 -116t-152.5 -41q-104 0 -159.5 49.5t-44.5 123.5h133z" />
    <glyph glyph-name="t" unicode="t" horiz-adv-x="408" 
d="M280 400l-44 -193q-11 -48 6 -71.5t67 -23.5h48l-26 -112h-68q-102 0 -147.5 55t-24.5 148l45 197h-92l23 100h92l26 112l150 26l-32 -138h131l-23 -100h-131z" />
    <glyph glyph-name="u" unicode="u" horiz-adv-x="607" 
d="M462 500h142l-115 -500h-142l24 106q-68 -116 -192 -116q-82 0 -119 53t-13 157l69 300h145l-64 -274q-15 -62 -3 -90.5t54 -28.5q124 0 179 243l-3 -15z" />
    <glyph glyph-name="v" unicode="v" horiz-adv-x="570" 
d="M466 500h162l-319 -500h-163l-89 500h142l51 -362z" />
    <glyph glyph-name="w" unicode="w" horiz-adv-x="777" 
d="M683 500h141l-253 -500h-134l-22 366l-190 -366h-135l-23 500h127l7 -334l170 334h140l17 -323z" />
    <glyph glyph-name="x" unicode="x" horiz-adv-x="541" 
d="M480 0h-157l-71 147l-134 -147h-173l247 260l-120 240h153l64 -142l127 142h168l-232 -248z" />
    <glyph glyph-name="y" unicode="y" horiz-adv-x="580" 
d="M484 500h157l-383 -596q-44 -68 -94.5 -96t-141.5 -28h-98l25 111h63q53 0 79 17.5t61 70.5l30 43l-129 478h145l82 -337z" />
    <glyph glyph-name="z" unicode="z" horiz-adv-x="501" 
d="M506 500l-20 -86l-294 -299h235l-27 -115h-430l18 79l307 307h-225l26 114h410z" />
    <glyph glyph-name="braceleft" unicode="{" horiz-adv-x="399" 
d="M443 828h89l-25 -109h-50q-86 0 -107 -88l-38 -165q-29 -120 -149 -150q104 -45 75 -170l-29 -123q-12 -56 11 -77t73 -21h31l-25 -109h-54q-89 0 -134.5 55.5t-23.5 154.5l30 130q12 55 -7.5 81t-77.5 38l7 34l5 22l1 4l8 34q64 12 96.5 38t44.5 81l37 162
q19 83 72.5 130.5t139.5 47.5z" />
    <glyph glyph-name="bar" unicode="|" horiz-adv-x="257" 
d="M109 -100h-123l208 900h123z" />
    <glyph glyph-name="braceright" unicode="}" horiz-adv-x="399" 
d="M393 335l-5 -22l-1 -4l-8 -34q-64 -12 -96.5 -38t-44.5 -81l-37 -162q-19 -83 -72.5 -130.5t-139.5 -47.5h-89l25 109h50q86 0 107 88l38 165q29 120 149 150q-104 45 -75 170l29 123q12 56 -11 77t-73 21h-31l25 109h54q89 0 134.5 -55.5t23.5 -154.5l-30 -130
q-12 -55 7.5 -81t77.5 -38z" />
    <glyph glyph-name="asciitilde" unicode="~" horiz-adv-x="598" 
d="M26 163q20 81 69 130t119 49q35 0 64 -13t45 -28t37 -28t42 -13q30 0 45 18t27 52h95q-19 -80 -68 -129t-119 -49q-35 0 -63 13t-43.5 28t-36 28t-41.5 13q-52 0 -78 -71h-94z" />
    <glyph glyph-name="uni00A0" unicode="&#xa0;" horiz-adv-x="240" 
 />
    <glyph glyph-name="exclamdown" unicode="&#xa1;" horiz-adv-x="257" 
d="M259 480l-34 -148h-157l34 148h157zM93 -220h-151l133 475h105z" />
    <glyph glyph-name="cent" unicode="&#xa2;" horiz-adv-x="602" 
d="M591 411h-129q3 43 -22.5 67t-73.5 24q-74 0 -127 -51.5t-53 -137.5q0 -120 111 -120q98 0 138 90h133q-32 -91 -98 -139t-152 -55l-20 -89h-114l22 96q-74 19 -114.5 73t-40.5 138q0 119 77 201t196 100l22 92h114l-22 -93q80 -13 121.5 -63t31.5 -133z" />
    <glyph glyph-name="sterling" unicode="&#xa3;" horiz-adv-x="643" 
d="M622 459l-131 1q22 134 -87 134q-57 0 -90.5 -34.5t-33.5 -79.5q0 -25 10 -45.5t34 -49.5t31 -39h178l-22 -91h-123v-11q0 -86 -74 -129h233l-27 -115h-511l22 94q222 14 222 133q0 15 -3 28h-172l21 91h98q-53 69 -53 139q0 102 78.5 163.5t186.5 61.5q110 0 172.5 -67
t40.5 -184z" />
    <glyph glyph-name="currency" unicode="&#xa4;" horiz-adv-x="641" 
d="M537 359q15 -33 15 -73q0 -90 -59 -155l59 -79l-80 -62l-63 79q-61 -28 -130 -28q-65 0 -112 29l-99 -80l-58 70l94 81q-15 33 -15 74q0 88 58 154l-59 77l81 64l62 -79q61 28 130 28q65 0 111 -29l100 80l59 -73zM297 149q55 0 91.5 35.5t36.5 88.5q0 35 -22 56.5
t-60 21.5q-54 0 -91 -36t-37 -88q0 -36 21.5 -57t60.5 -21z" />
    <glyph glyph-name="yen" unicode="&#xa5;" horiz-adv-x="690" 
d="M785 698l-291 -302h134l-21 -90h-181l-17 -74h181l-21 -89h-181l-33 -143h-136l33 143h-182l21 89h181l17 74h-181l21 90h147l-151 302h146l113 -243l226 243h175z" />
    <glyph glyph-name="brokenbar" unicode="&#xa6;" horiz-adv-x="257" 
d="M243 480h-123l74 320h123zM109 -100h-123l74 320h123z" />
    <glyph glyph-name="section" unicode="&#xa7;" horiz-adv-x="486" 
d="M503 514h-108q8 44 -12 71t-69 27q-38 0 -61.5 -16.5t-23.5 -44.5q0 -18 13.5 -31.5t28.5 -20.5t54 -21q2 -1 4 -1.5t4 -1.5q72 -26 102 -55t30 -77q0 -95 -110 -129q51 -44 51 -109q0 -73 -60 -119t-153 -46q-104 0 -156.5 57.5t-35.5 145.5h114q-19 -106 84 -106
q42 0 63.5 17.5t21.5 45.5q0 14 -4.5 23t-19.5 18.5t-27 15t-43 17.5q-32 13 -51 22.5t-40 25.5t-30.5 37t-9.5 49q0 88 106 124q-58 42 -58 111q0 74 60 120.5t151 46.5q102 0 150.5 -58t34.5 -138zM351 316q0 12 -5 21.5t-10.5 15.5t-19 12.5t-21.5 9.5t-28 10t-29 10
q-6 2 -9 4q-55 -24 -55 -65q0 -13 4.5 -23t18.5 -18.5t22.5 -12.5t33 -13t33.5 -13l8 -3q57 21 57 65z" />
    <glyph glyph-name="dieresis" unicode="&#xa8;" horiz-adv-x="438" 
d="M127 573l27 118h125l-27 -118h-125zM340 573l27 118h125l-27 -118h-125z" />
    <glyph glyph-name="copyright" unicode="&#xa9;" 
d="M422 -10q-152 0 -255 103.5t-103 256.5t103 256.5t255 103.5t255 -103.5t103 -256.5t-103 -256.5t-255 -103.5zM422 62q119 0 199.5 83.5t80.5 204.5t-80.5 204.5t-199.5 83.5t-199 -83.5t-80 -204.5t80 -204.5t199 -83.5zM601 308q-8 -77 -55 -117.5t-120 -40.5
q-88 0 -139 54t-51 144q0 92 51 147t136 55q73 0 119 -40t54 -106h-88q-13 70 -83 70q-48 0 -74.5 -33.5t-26.5 -90.5q0 -59 27.5 -93t75.5 -34q72 0 85 85h89z" />
    <glyph glyph-name="guillemotleft" unicode="&#xab;" horiz-adv-x="648" 
d="M407 490l-214 -207l107 -183h-149l-107 200l197 190h166zM664 490l-214 -207l107 -183h-149l-107 200l197 190h166z" />
    <glyph glyph-name="logicalnot" unicode="&#xac;" horiz-adv-x="575" 
d="M564 376l-25 -111h-1l-39 -169h-120l40 169h-376l26 111h495z" />
    <glyph glyph-name="uni00AD" unicode="&#xad;" horiz-adv-x="518" 
d="M63 351h439l-26 -112h-439z" />
    <glyph glyph-name="registered" unicode="&#xae;" 
d="M422 710q152 0 255 -103.5t103 -256.5t-103 -256.5t-255 -103.5t-255 103.5t-103 256.5t103 256.5t255 103.5zM422 62q119 0 199.5 83.5t80.5 204.5t-80.5 204.5t-199.5 83.5t-199 -83.5t-80 -204.5t80 -204.5t199 -83.5zM475 329q35 -8 55 -26.5t31 -56.5l26 -86h-95
l-26 82q-5 16 -12 26.5t-12 15.5t-19.5 7.5t-19.5 2.5h-26v-134h-85v390h125q79 0 114.5 -35t35.5 -86q0 -83 -92 -100zM420 473h-43v-108h43q28 0 43 15.5t15 38.5q0 24 -14.5 39t-43.5 15z" />
    <glyph glyph-name="macron" unicode="&#xaf;" horiz-adv-x="438" 
d="M166 670h300l-21 -91h-301z" />
    <glyph glyph-name="degree" unicode="&#xb0;" horiz-adv-x="399" 
d="M243 410q-60 0 -98.5 38.5t-38.5 96.5q0 74 58.5 127t132.5 53q61 0 99 -38t38 -97q0 -74 -58.5 -127t-132.5 -53zM257 507q29 0 50 22t21 52q0 21 -11.5 34t-33.5 13q-28 0 -49.5 -22t-21.5 -52q0 -20 12 -33.5t33 -13.5z" />
    <glyph glyph-name="plusminus" unicode="&#xb1;" horiz-adv-x="578" 
d="M376 369h188l-25 -106h-188l-25 -110h-119l25 110h-189l26 106h188l25 111h119zM-15 0l26 108h495l-25 -108h-496z" />
    <glyph glyph-name="uni00B2" unicode="&#xb2;" horiz-adv-x="371" 
d="M365 410h-277l11 51l96 60q76 48 107 78t31 67q0 39 -35 39q-55 0 -74 -87h-82q14 72 55 114.5t106 42.5q53 0 84.5 -28t31.5 -76q0 -47 -30.5 -84t-95.5 -81l-44 -29h132z" />
    <glyph glyph-name="uni00B3" unicode="&#xb3;" horiz-adv-x="359" 
d="M335 576q38 -16 38 -67q0 -44 -36.5 -76.5t-105.5 -32.5q-72 0 -103.5 35.5t-21.5 87.5h84q-9 -54 43 -54q27 0 44 15t17 34q0 35 -54 35h-21l13 54h33q33 0 52.5 16t19.5 41q0 40 -50 40q-66 0 -86 -68h-82q41 136 172 136q62 0 96.5 -26.5t34.5 -72.5q0 -72 -87 -97z
" />
    <glyph glyph-name="acute" unicode="&#xb4;" horiz-adv-x="438" 
d="M309 700h160l-168 -141h-118z" />
    <glyph glyph-name="uni00B5" unicode="&#xb5;" horiz-adv-x="607" 
d="M462 500h142l-115 -500h-142l24 106q-68 -116 -192 -116q-27 0 -50 6l-50 -216h-129l108 468l58 252h145l-64 -274q-15 -62 -3 -90.5t54 -28.5q124 0 179 243l-3 -15z" />
    <glyph glyph-name="paragraph" unicode="&#xb6;" horiz-adv-x="580" 
d="M109 473q0 70 39.5 125t102.5 81q51 21 149 21h247l-12 -52h-80l-150 -648h-60l150 648h-80l-150 -648h-60l74 320q-85 0 -132 49q-38 36 -38 104z" />
    <glyph glyph-name="periodcentered" unicode="&#xb7;" horiz-adv-x="236" 
d="M39 245l34 148h157l-34 -148h-157z" />
    <glyph glyph-name="cedilla" unicode="&#xb8;" horiz-adv-x="438" 
d="M186 0q47 -37 47 -92q0 -58 -42.5 -90.5t-128.5 -32.5h-44l16 70h37q42 0 63.5 19t21.5 48q0 40 -51 78h81z" />
    <glyph glyph-name="uni00B9" unicode="&#xb9;" horiz-adv-x="305" 
d="M364 770l-83 -360h-85l51 219q-53 -27 -128 -28l17 72q56 0 103 23.5t59 73.5h66z" />
    <glyph glyph-name="guillemotright" unicode="&#xbb;" horiz-adv-x="648" 
d="M257 490l107 -200l-197 -190h-166l214 207l-107 183h149zM514 490l107 -200l-197 -190h-166l214 207l-107 183h149z" />
    <glyph glyph-name="onequarter" unicode="&#xbc;" horiz-adv-x="782" 
d="M13 0l748 700h106l-748 -700h-106zM348 700l-83 -360h-85l51 219q-53 -27 -128 -28l17 72q56 0 103 23.5t59 73.5h66zM735 136l-15 -66h-57l-16 -70h-78l16 70h-174l10 49l212 241h97l-52 -224h57zM516 136h84l31 134z" />
    <glyph glyph-name="onehalf" unicode="&#xbd;" horiz-adv-x="845" 
d="M13 0l748 700h106l-748 -700h-106zM348 700l-83 -360h-85l51 219q-53 -27 -128 -28l17 72q56 0 103 23.5t59 73.5h66zM744 0h-277l11 51l96 60q76 48 107 78t31 67q0 39 -35 39q-55 0 -74 -87h-82q14 72 55 114.5t106 42.5q53 0 84.5 -28t31.5 -76q0 -47 -30.5 -84
t-95.5 -81l-44 -29h132z" />
    <glyph glyph-name="threequarters" unicode="&#xbe;" horiz-adv-x="805" 
d="M319 506q38 -16 38 -67q0 -44 -36.5 -76.5t-105.5 -32.5q-72 0 -103.5 35.5t-21.5 87.5h84q-9 -54 43 -54q27 0 44 15t17 34q0 35 -54 35h-21l13 54h33q33 0 52.5 16t19.5 41q0 40 -50 40q-66 0 -86 -68h-82q41 136 172 136q62 0 96.5 -26.5t34.5 -72.5q0 -72 -87 -97z
M36 0l748 700h106l-748 -700h-106zM758 136l-15 -66h-57l-16 -70h-78l16 70h-174l10 49l212 241h97l-52 -224h57zM539 136h84l31 134z" />
    <glyph glyph-name="questiondown" unicode="&#xbf;" horiz-adv-x="471" 
d="M205 331l34 148h157l-34 -148h-157zM146 -229q-94 0 -147.5 43.5t-53.5 123.5q0 50 23 86.5t57.5 58.5t70 42t65.5 50t38 70l2 11h131l-6 -26q-13 -54 -42.5 -92.5t-61.5 -59t-63 -38t-51 -39.5t-20 -53q0 -62 66 -62q43 0 77.5 31.5t49.5 103.5h134q-22 -124 -90.5 -187
t-178.5 -63z" />
    <glyph glyph-name="Agrave" unicode="&#xc0;" horiz-adv-x="711" 
d="M566 775h-118l-126 155h162zM489 0l-16 153h-272l-88 -153h-160l416 700h180l93 -700h-153zM270 273h190l-30 278z" />
    <glyph glyph-name="Aacute" unicode="&#xc1;" horiz-adv-x="711" 
d="M695 930l-185 -155h-130l139 155h176zM549 700l93 -700h-153l-16 153h-272l-88 -153h-160l416 700h180zM270 273h190l-30 278z" />
    <glyph glyph-name="Acircumflex" unicode="&#xc2;" horiz-adv-x="711" 
d="M492 843l-73 -72h-125l151 146h122l83 -146h-118zM549 700l93 -700h-153l-16 153h-272l-88 -153h-160l416 700h180zM270 273h190l-30 278z" />
    <glyph glyph-name="Atilde" unicode="&#xc3;" horiz-adv-x="711" 
d="M632 914h92q-24 -72 -67.5 -109.5t-101.5 -37.5q-38 0 -62.5 12.5t-42 24.5t-38.5 12q-38 0 -61 -43h-89q46 146 169 146q37 0 61 -12t41 -24t37 -12q40 0 62 43zM549 700l93 -700h-153l-16 153h-272l-88 -153h-160l416 700h180zM270 273h190l-30 278z" />
    <glyph glyph-name="Adieresis" unicode="&#xc4;" horiz-adv-x="711" 
d="M457 907l-29 -131h-139l30 131h138zM553 907h139l-30 -131h-138zM549 700l93 -700h-153l-16 153h-272l-88 -153h-160l416 700h180zM270 273h190l-30 278z" />
    <glyph glyph-name="Aring" unicode="&#xc5;" horiz-adv-x="711" 
d="M489 0l-16 153h-272l-88 -153h-160l399 671q-13 25 -13 55q0 56 42.5 95.5t100.5 39.5q50 0 78.5 -30.5t28.5 -74.5q0 -49 -36 -90l89 -666h-153zM472 779q-18 0 -32.5 -14.5t-14.5 -32.5q0 -13 8.5 -22t22.5 -9q18 0 32.5 14.5t14.5 32.5q0 13 -8.5 22t-22.5 9zM270 273
h190l-30 278z" />
    <glyph glyph-name="AE" unicode="&#xc6;" horiz-adv-x="899" 
d="M923 570h-357l21 -157h273l-27 -121h-230l22 -162h196l-30 -130h-302l-16 153h-272l-88 -153h-160l416 700h584zM270 273h190l-30 278z" />
    <glyph glyph-name="Ccedilla" unicode="&#xc7;" horiz-adv-x="749" 
d="M746 449h-152q4 61 -30.5 95.5t-105.5 34.5q-115 0 -183.5 -85t-68.5 -204q0 -85 39 -130t115 -45q141 0 200 156h152q-35 -134 -126 -203.5t-213 -76.5q42 -40 42 -92q0 -64 -47 -100t-142 -36h-48l18 77h40q47 0 70.5 21.5t23.5 52.5q0 42 -49 81q-112 16 -170.5 91
t-59.5 195q0 116 51.5 214t149 156.5t220.5 58.5q142 0 213.5 -74.5t60.5 -186.5z" />
    <glyph glyph-name="Egrave" unicode="&#xc8;" horiz-adv-x="604" 
d="M520 775h-118l-126 155h162zM627 569h-335l-36 -156h309l-28 -121h-309l-38 -161h336l-30 -131h-487l162 700h487z" />
    <glyph glyph-name="Eacute" unicode="&#xc9;" horiz-adv-x="604" 
d="M649 930l-185 -155h-130l139 155h176zM627 569h-335l-36 -156h309l-28 -121h-309l-38 -161h336l-30 -131h-487l162 700h487z" />
    <glyph glyph-name="Ecircumflex" unicode="&#xca;" horiz-adv-x="604" 
d="M446 843l-73 -72h-125l151 146h122l83 -146h-118zM627 569h-335l-36 -156h309l-28 -121h-309l-38 -161h336l-30 -131h-487l162 700h487z" />
    <glyph glyph-name="Edieresis" unicode="&#xcb;" horiz-adv-x="604" 
d="M411 907l-29 -131h-139l30 131h138zM646 907l-30 -131h-138l29 131h139zM627 569h-335l-36 -156h309l-28 -121h-309l-38 -161h336l-30 -131h-487l162 700h487z" />
    <glyph glyph-name="Igrave" unicode="&#xcc;" horiz-adv-x="287" 
d="M272 930l82 -155h-118l-126 155h162zM162 0h-153l162 700h153z" />
    <glyph glyph-name="Iacute" unicode="&#xcd;" horiz-adv-x="287" 
d="M307 930h176l-185 -155h-130zM162 0h-153l162 700h153z" />
    <glyph glyph-name="Icircumflex" unicode="&#xce;" horiz-adv-x="287" 
d="M438 771h-118l-40 72l-73 -72h-125l151 146h122zM162 0h-153l162 700h153z" />
    <glyph glyph-name="Idieresis" unicode="&#xcf;" horiz-adv-x="287" 
d="M77 776l30 131h138l-29 -131h-139zM312 776l29 131h139l-30 -131h-138zM162 0h-153l162 700h153z" />
    <glyph glyph-name="Eth" unicode="&#xd0;" horiz-adv-x="723" 
d="M406 700q151 0 229 -80.5t78 -218.5q0 -59 -14 -114.5t-46 -108t-80 -92t-122 -63t-165 -23.5h-277l67 289h-135l28 122h135l67 289h235zM291 127q128 0 194.5 78.5t66.5 195.5q0 84 -40.5 128t-139.5 44h-77l-38 -162h196l-28 -122h-196l-38 -162h100z" />
    <glyph glyph-name="Ntilde" unicode="&#xd1;" horiz-adv-x="749" 
d="M431 816q-38 0 -61 -43h-89q46 146 169 146q37 0 61 -12t41 -24t37 -12q41 0 62 43h92q-24 -72 -67.5 -109.5t-101.5 -37.5q-38 0 -62.5 12.5t-42 24.5t-38.5 12zM639 700h147l-162 -700h-174l-173 522l-121 -522h-147l162 700h175l172 -522z" />
    <glyph glyph-name="Ograve" unicode="&#xd2;" horiz-adv-x="790" 
d="M507 930l82 -155h-118l-126 155h162zM358 -10q-145 0 -225 78t-80 222q0 182 118.5 301t304.5 119q145 0 225 -78t80 -222q0 -182 -118.5 -301t-304.5 -119zM369 119q105 0 176.5 84.5t71.5 203.5q0 82 -39 128t-112 46q-106 0 -177 -84.5t-71 -203.5q0 -83 39 -128.5
t112 -45.5z" />
    <glyph glyph-name="Oacute" unicode="&#xd3;" horiz-adv-x="790" 
d="M542 930h176l-185 -155h-130zM358 -10q-145 0 -225 78t-80 222q0 182 118.5 301t304.5 119q145 0 225 -78t80 -222q0 -182 -118.5 -301t-304.5 -119zM369 119q105 0 176.5 84.5t71.5 203.5q0 82 -39 128t-112 46q-106 0 -177 -84.5t-71 -203.5q0 -83 39 -128.5t112 -45.5
z" />
    <glyph glyph-name="Ocircumflex" unicode="&#xd4;" horiz-adv-x="790" 
d="M673 771h-118l-40 72l-73 -72h-125l151 146h122zM358 -10q-145 0 -225 78t-80 222q0 182 118.5 301t304.5 119q145 0 225 -78t80 -222q0 -182 -118.5 -301t-304.5 -119zM369 119q105 0 176.5 84.5t71.5 203.5q0 82 -39 128t-112 46q-106 0 -177 -84.5t-71 -203.5
q0 -83 39 -128.5t112 -45.5z" />
    <glyph glyph-name="Otilde" unicode="&#xd5;" horiz-adv-x="790" 
d="M285 773q46 146 169 146q37 0 61 -12t41 -24t37 -12q41 0 62 43h92q-24 -72 -67.5 -109.5t-101.5 -37.5q-38 0 -62.5 12.5t-42 24.5t-38.5 12q-38 0 -61 -43h-89zM358 -10q-145 0 -225 78t-80 222q0 182 118.5 301t304.5 119q145 0 225 -78t80 -222q0 -182 -118.5 -301
t-304.5 -119zM369 119q105 0 176.5 84.5t71.5 203.5q0 82 -39 128t-112 46q-106 0 -177 -84.5t-71 -203.5q0 -83 39 -128.5t112 -45.5z" />
    <glyph glyph-name="Odieresis" unicode="&#xd6;" horiz-adv-x="790" 
d="M312 776l30 131h138l-29 -131h-139zM547 776l29 131h139l-30 -131h-138zM358 -10q-145 0 -225 78t-80 222q0 182 118.5 301t304.5 119q145 0 225 -78t80 -222q0 -182 -118.5 -301t-304.5 -119zM369 119q105 0 176.5 84.5t71.5 203.5q0 82 -39 128t-112 46
q-106 0 -177 -84.5t-71 -203.5q0 -83 39 -128.5t112 -45.5z" />
    <glyph glyph-name="multiply" unicode="&#xd7;" horiz-adv-x="578" 
d="M538 384l-175 -144l110 -143l-86 -68l-109 142l-172 -142l-67 80l175 145l-110 144l85 68l110 -142l172 142z" />
    <glyph glyph-name="Oslash" unicode="&#xd8;" horiz-adv-x="790" 
d="M821 655l-81 -73q41 -70 41 -172q0 -182 -118.5 -301t-304.5 -119q-126 0 -203 59l-75 -69l-68 65l81 74q-40 71 -40 171q0 182 118.5 301t304.5 119q126 0 202 -58l75 68zM218 293q0 -28 5 -56l342 312q-38 32 -99 32q-106 0 -177 -84.5t-71 -203.5zM617 407q0 31 -6 57
l-342 -312q39 -33 100 -33q105 0 176.5 84.5t71.5 203.5z" />
    <glyph glyph-name="Ugrave" unicode="&#xd9;" horiz-adv-x="741" 
d="M498 930l82 -155h-118l-126 155h162zM169 700h153l-92 -395q-42 -184 113 -184q150 0 192 184l92 395h153l-99 -427q-31 -134 -120 -209t-236 -74q-152 1 -216.5 85.5t-26.5 249.5z" />
    <glyph glyph-name="Uacute" unicode="&#xda;" horiz-adv-x="741" 
d="M533 930h176l-185 -155h-130zM169 700h153l-92 -395q-42 -184 113 -184q150 0 192 184l92 395h153l-99 -427q-31 -134 -120 -209t-236 -74q-152 1 -216.5 85.5t-26.5 249.5z" />
    <glyph glyph-name="Ucircumflex" unicode="&#xdb;" horiz-adv-x="741" 
d="M664 771h-118l-40 72l-73 -72h-125l151 146h122zM169 700h153l-92 -395q-42 -184 113 -184q150 0 192 184l92 395h153l-99 -427q-31 -134 -120 -209t-236 -74q-152 1 -216.5 85.5t-26.5 249.5z" />
    <glyph glyph-name="Udieresis" unicode="&#xdc;" horiz-adv-x="741" 
d="M303 776l30 131h138l-29 -131h-139zM538 776l29 131h139l-30 -131h-138zM169 700h153l-92 -395q-42 -184 113 -184q150 0 192 184l92 395h153l-99 -427q-31 -134 -120 -209t-236 -74q-152 1 -216.5 85.5t-26.5 249.5z" />
    <glyph glyph-name="Yacute" unicode="&#xdd;" horiz-adv-x="718" 
d="M705 930l-185 -155h-130l139 155h176zM623 700h185l-530 -700h-186l218 283l-195 417h176l124 -285z" />
    <glyph glyph-name="Thorn" unicode="&#xde;" horiz-adv-x="617" 
d="M387 595q120 0 177.5 -63t57.5 -158q0 -51 -17 -97t-51.5 -85.5t-95.5 -62.5t-142 -23h-132l-25 -106h-150l162 700h150l-24 -105h90zM324 230q69 0 106.5 39.5t37.5 94.5q0 48 -24.5 77t-77.5 29h-98l-56 -240h112z" />
    <glyph glyph-name="germandbls" unicode="&#xdf;" horiz-adv-x="566" 
d="M432 390q102 -41 102 -165q0 -104 -73 -164.5t-211 -60.5h-34l25 113h22q70 0 103.5 36t33.5 87q0 43 -26 70.5t-82 27.5h-36l23 100h15q56 0 86 29.5t30 68.5q0 27 -14.5 44t-43.5 17q-33 0 -58 -24t-35 -67l-116 -502h-139l119 517q21 91 86 142t157 51
q87 0 138.5 -45.5t51.5 -121.5q0 -116 -124 -153z" />
    <glyph glyph-name="agrave" unicode="&#xe0;" horiz-adv-x="602" 
d="M429 559h-107l-114 141h147zM461 500h138l-115 -500h-138l12 51q-24 -26 -64.5 -43.5t-88.5 -17.5q-82 0 -132 53t-50 151q0 133 85 224.5t194 91.5q50 0 88 -21t56 -56zM253 94q63 0 107.5 56.5t44.5 137.5q0 109 -85 109q-66 0 -108.5 -59.5t-42.5 -136.5
q0 -107 84 -107z" />
    <glyph glyph-name="aacute" unicode="&#xe1;" horiz-adv-x="602" 
d="M562 700l-168 -141h-118l126 141h160zM461 500h138l-115 -500h-138l12 51q-24 -26 -64.5 -43.5t-88.5 -17.5q-82 0 -132 53t-50 151q0 133 85 224.5t194 91.5q50 0 88 -21t56 -56zM253 94q63 0 107.5 56.5t44.5 137.5q0 109 -85 109q-66 0 -108.5 -59.5t-42.5 -136.5
q0 -107 84 -107z" />
    <glyph glyph-name="acircumflex" unicode="&#xe2;" horiz-adv-x="602" 
d="M376 629l-67 -65h-113l137 132h111l75 -132h-107zM461 500h138l-115 -500h-138l12 51q-24 -26 -64.5 -43.5t-88.5 -17.5q-82 0 -132 53t-50 151q0 133 85 224.5t194 91.5q50 0 88 -21t56 -56zM253 94q63 0 107.5 56.5t44.5 137.5q0 109 -85 109q-66 0 -108.5 -59.5
t-42.5 -136.5q0 -107 84 -107z" />
    <glyph glyph-name="atilde" unicode="&#xe3;" horiz-adv-x="602" 
d="M300 598q-32 0 -52 -39h-76q40 133 144 133q41 0 70.5 -22t47.5 -22q35 0 53 39h78q-41 -133 -144 -133q-41 0 -72 22t-49 22zM461 500h138l-115 -500h-138l12 51q-24 -26 -64.5 -43.5t-88.5 -17.5q-82 0 -132 53t-50 151q0 133 85 224.5t194 91.5q50 0 88 -21t56 -56z
M253 94q63 0 107.5 56.5t44.5 137.5q0 109 -85 109q-66 0 -108.5 -59.5t-42.5 -136.5q0 -107 84 -107z" />
    <glyph glyph-name="adieresis" unicode="&#xe4;" horiz-adv-x="602" 
d="M342 691l-27 -118h-125l27 118h125zM555 691l-27 -118h-125l27 118h125zM461 500h138l-115 -500h-138l12 51q-24 -26 -64.5 -43.5t-88.5 -17.5q-82 0 -132 53t-50 151q0 133 85 224.5t194 91.5q50 0 88 -21t56 -56zM253 94q63 0 107.5 56.5t44.5 137.5q0 109 -85 109
q-66 0 -108.5 -59.5t-42.5 -136.5q0 -107 84 -107z" />
    <glyph glyph-name="aring" unicode="&#xe5;" horiz-adv-x="602" 
d="M359 540q-46 0 -71.5 28.5t-25.5 69.5q0 51 39 87t91 36q45 0 71 -28t26 -68q0 -51 -38.5 -88t-91.5 -37zM383 686q-16 0 -29.5 -13t-13.5 -29q0 -12 7.5 -20.5t20.5 -8.5q16 0 29.5 13.5t13.5 29.5q0 12 -7.5 20t-20.5 8zM461 500h138l-115 -500h-138l12 51
q-24 -26 -64.5 -43.5t-88.5 -17.5q-82 0 -132 53t-50 151q0 133 85 224.5t194 91.5q50 0 88 -21t56 -56zM253 94q63 0 107.5 56.5t44.5 137.5q0 109 -85 109q-66 0 -108.5 -59.5t-42.5 -136.5q0 -107 84 -107z" />
    <glyph glyph-name="ae" unicode="&#xe6;" horiz-adv-x="913" 
d="M663 510q116 0 169 -72t35 -199q-4 -20 -4 -22h-355v-12q0 -109 98 -109q78 0 110 72h137q-70 -178 -254 -178q-145 0 -203 97q-37 -47 -102 -72t-134 -25q-155 0 -155 124q0 36 15 64.5t37.5 46t59.5 31.5t70.5 21t82.5 15q38 6 52 8.5t34 9t28 16t12 24.5q6 26 -12 40
t-54 14q-89 0 -116 -83h-136q21 83 82.5 135.5t173.5 52.5q108 0 158 -51q75 52 171 52zM526 302h212q11 105 -78 105q-92 0 -134 -105zM210 86q50 0 95 31t59 95l4 14v5q-21 -10 -95 -27q-61 -13 -90.5 -29t-29.5 -47q0 -42 57 -42z" />
    <glyph glyph-name="ccedilla" unicode="&#xe7;" horiz-adv-x="575" 
d="M541 306h-137q3 43 -17 67.5t-63 24.5q-69 0 -112.5 -55.5t-43.5 -130.5q0 -51 24 -80t68 -29q84 0 122 90h139q-31 -92 -93.5 -144.5t-153.5 -57.5q36 -36 36 -83q0 -58 -42.5 -90.5t-128.5 -32.5h-44l16 70h37q42 0 63.5 19t21.5 48q0 39 -47 75q-78 17 -119.5 71.5
t-41.5 135.5q0 127 85 216.5t218 89.5q108 0 166.5 -59t46.5 -145z" />
    <glyph glyph-name="egrave" unicode="&#xe8;" horiz-adv-x="572" 
d="M416 559h-107l-114 141h147zM322 510q116 0 169 -72t35 -199q-4 -20 -4 -22h-355v-12q0 -109 98 -109q78 0 110 72h137q-70 -178 -254 -178q-116 0 -174 59.5t-58 157.5q0 122 80.5 212.5t215.5 90.5zM185 302h212q11 105 -78 105q-92 0 -134 -105z" />
    <glyph glyph-name="eacute" unicode="&#xe9;" horiz-adv-x="572" 
d="M549 700l-168 -141h-118l126 141h160zM322 510q116 0 169 -72t35 -199q-4 -20 -4 -22h-355v-12q0 -109 98 -109q78 0 110 72h137q-70 -178 -254 -178q-116 0 -174 59.5t-58 157.5q0 122 80.5 212.5t215.5 90.5zM185 302h212q11 105 -78 105q-92 0 -134 -105z" />
    <glyph glyph-name="ecircumflex" unicode="&#xea;" horiz-adv-x="572" 
d="M363 629l-67 -65h-113l137 132h111l75 -132h-107zM322 510q116 0 169 -72t35 -199q-4 -20 -4 -22h-355v-12q0 -109 98 -109q78 0 110 72h137q-70 -178 -254 -178q-116 0 -174 59.5t-58 157.5q0 122 80.5 212.5t215.5 90.5zM185 302h212q11 105 -78 105q-92 0 -134 -105z
" />
    <glyph glyph-name="edieresis" unicode="&#xeb;" horiz-adv-x="572" 
d="M329 691l-27 -118h-125l27 118h125zM542 691l-27 -118h-125l27 118h125zM322 510q116 0 169 -72t35 -199q-4 -20 -4 -22h-355v-12q0 -109 98 -109q78 0 110 72h137q-70 -178 -254 -178q-116 0 -174 59.5t-58 157.5q0 122 80.5 212.5t215.5 90.5zM185 302h212
q11 105 -78 105q-92 0 -134 -105z" />
    <glyph glyph-name="igrave" unicode="&#xec;" horiz-adv-x="266" 
d="M206 700l74 -141h-107l-114 141h147zM148 0h-144l115 500h144z" />
    <glyph glyph-name="iacute" unicode="&#xed;" horiz-adv-x="266" 
d="M253 700h160l-168 -141h-118zM148 0h-144l115 500h144z" />
    <glyph glyph-name="icircumflex" unicode="&#xee;" horiz-adv-x="266" 
d="M370 564h-107l-36 65l-67 -65h-113l137 132h111zM148 0h-144l115 500h144z" />
    <glyph glyph-name="idieresis" unicode="&#xef;" horiz-adv-x="266" 
d="M41 573l27 118h125l-27 -118h-125zM254 573l27 118h125l-27 -118h-125zM148 0h-144l115 500h144z" />
    <glyph glyph-name="eth" unicode="&#xf0;" horiz-adv-x="565" 
d="M572 627l-80 -37q59 -85 59 -221q0 -172 -88.5 -275.5t-226.5 -103.5q-94 0 -154 52t-60 152q0 121 84 198.5t194 77.5q91 0 133 -60q-5 82 -55 129l-120 -55l-26 58l77 35q-38 13 -92 13h-53l26 110h68q117 0 188 -60l100 46zM250 99q49 0 85.5 30.5t51.5 95.5
q15 64 -10.5 100t-74.5 36q-58 0 -101.5 -46.5t-43.5 -116.5q0 -99 93 -99z" />
    <glyph glyph-name="ntilde" unicode="&#xf1;" horiz-adv-x="609" 
d="M317 598q-33 0 -52 -39h-76q40 133 144 133q41 0 70.5 -22t47.5 -22q35 0 53 39h78q-41 -133 -144 -133q-41 0 -72 22t-49 22zM436 510q79 0 114 -54.5t9 -164.5l-67 -291h-144l59 256q18 72 7.5 104.5t-55.5 32.5q-121 0 -178 -243l5 22l-40 -172h-142l115 500h142
l-26 -112q82 122 201 122z" />
    <glyph glyph-name="ograve" unicode="&#xf2;" horiz-adv-x="581" 
d="M356 700l74 -141h-107l-114 141h147zM247 -10q-105 0 -163 56.5t-58 159.5q0 133 88.5 218.5t221.5 85.5q105 0 162 -57t57 -161q0 -133 -87.5 -217.5t-220.5 -84.5zM261 98q69 0 109 60.5t40 134.5q0 107 -88 107q-67 0 -108.5 -58.5t-41.5 -134.5q0 -109 89 -109z" />
    <glyph glyph-name="oacute" unicode="&#xf3;" horiz-adv-x="581" 
d="M403 700h160l-168 -141h-118zM247 -10q-105 0 -163 56.5t-58 159.5q0 133 88.5 218.5t221.5 85.5q105 0 162 -57t57 -161q0 -133 -87.5 -217.5t-220.5 -84.5zM261 98q69 0 109 60.5t40 134.5q0 107 -88 107q-67 0 -108.5 -58.5t-41.5 -134.5q0 -109 89 -109z" />
    <glyph glyph-name="ocircumflex" unicode="&#xf4;" horiz-adv-x="581" 
d="M520 564h-107l-36 65l-67 -65h-113l137 132h111zM247 -10q-105 0 -163 56.5t-58 159.5q0 133 88.5 218.5t221.5 85.5q105 0 162 -57t57 -161q0 -133 -87.5 -217.5t-220.5 -84.5zM261 98q69 0 109 60.5t40 134.5q0 107 -88 107q-67 0 -108.5 -58.5t-41.5 -134.5
q0 -109 89 -109z" />
    <glyph glyph-name="otilde" unicode="&#xf5;" horiz-adv-x="581" 
d="M173 559q40 133 144 133q41 0 70.5 -22t47.5 -22q35 0 53 39h78q-41 -133 -144 -133q-41 0 -72 22t-49 22q-33 0 -52 -39h-76zM247 -10q-105 0 -163 56.5t-58 159.5q0 133 88.5 218.5t221.5 85.5q105 0 162 -57t57 -161q0 -133 -87.5 -217.5t-220.5 -84.5zM261 98
q69 0 109 60.5t40 134.5q0 107 -88 107q-67 0 -108.5 -58.5t-41.5 -134.5q0 -109 89 -109z" />
    <glyph glyph-name="odieresis" unicode="&#xf6;" horiz-adv-x="581" 
d="M191 573l27 118h125l-27 -118h-125zM404 573l27 118h125l-27 -118h-125zM247 -10q-105 0 -163 56.5t-58 159.5q0 133 88.5 218.5t221.5 85.5q105 0 162 -57t57 -161q0 -133 -87.5 -217.5t-220.5 -84.5zM261 98q69 0 109 60.5t40 134.5q0 107 -88 107q-67 0 -108.5 -58.5
t-41.5 -134.5q0 -109 89 -109z" />
    <glyph glyph-name="divide" unicode="&#xf7;" horiz-adv-x="575" 
d="M243 348l29 126h134l-29 -126h-134zM51 297h495l-25 -111h-496zM165 9l29 126h134l-29 -126h-134z" />
    <glyph glyph-name="oslash" unicode="&#xf8;" horiz-adv-x="581" 
d="M596 470l-67 -58q26 -50 26 -120q0 -133 -87.5 -217.5t-220.5 -84.5q-97 0 -153 47l-66 -57l-43 45l69 60q-28 51 -28 121q0 133 88.5 218.5t221.5 85.5q95 0 150 -46l65 56zM172 207q0 -12 1 -18l212 186q-22 25 -63 25q-67 0 -108.5 -58.5t-41.5 -134.5zM410 293
q0 11 -1 16l-213 -184q22 -27 65 -27q69 0 109 60.5t40 134.5z" />
    <glyph glyph-name="ugrave" unicode="&#xf9;" horiz-adv-x="607" 
d="M449 559h-107l-114 141h147zM462 500h142l-115 -500h-142l24 106q-68 -116 -192 -116q-82 0 -119 53t-13 157l69 300h145l-64 -274q-15 -62 -3 -90.5t54 -28.5q124 0 179 243l-3 -15z" />
    <glyph glyph-name="uacute" unicode="&#xfa;" horiz-adv-x="607" 
d="M582 700l-168 -141h-118l126 141h160zM462 500h142l-115 -500h-142l24 106q-68 -116 -192 -116q-82 0 -119 53t-13 157l69 300h145l-64 -274q-15 -62 -3 -90.5t54 -28.5q124 0 179 243l-3 -15z" />
    <glyph glyph-name="ucircumflex" unicode="&#xfb;" horiz-adv-x="607" 
d="M396 629l-67 -65h-113l137 132h111l75 -132h-107zM462 500h142l-115 -500h-142l24 106q-68 -116 -192 -116q-82 0 -119 53t-13 157l69 300h145l-64 -274q-15 -62 -3 -90.5t54 -28.5q124 0 179 243l-3 -15z" />
    <glyph glyph-name="udieresis" unicode="&#xfc;" horiz-adv-x="607" 
d="M362 691l-27 -118h-125l27 118h125zM575 691l-27 -118h-125l27 118h125zM462 500h142l-115 -500h-142l24 106q-68 -116 -192 -116q-82 0 -119 53t-13 157l69 300h145l-64 -274q-15 -62 -3 -90.5t54 -28.5q124 0 179 243l-3 -15z" />
    <glyph glyph-name="yacute" unicode="&#xfd;" horiz-adv-x="580" 
d="M568 700l-168 -141h-118l126 141h160zM484 500h157l-383 -596q-44 -68 -94.5 -96t-141.5 -28h-98l25 111h63q53 0 79 17.5t61 70.5l30 43l-129 478h145l82 -337z" />
    <glyph glyph-name="thorn" unicode="&#xfe;" horiz-adv-x="604" 
d="M393 510q81 0 132.5 -59.5t51.5 -159.5q0 -124 -76 -212.5t-185 -88.5q-105 0 -154 83l-67 -293h-142l166 720l49 210h142l-49 -210l-13 -57q55 67 145 67zM289 94q62 0 101.5 55t39.5 131q0 52 -20.5 84.5t-66.5 32.5q-60 0 -101 -55.5t-41 -134.5q0 -113 88 -113z" />
    <glyph glyph-name="ydieresis" unicode="&#xff;" horiz-adv-x="580" 
d="M348 691l-27 -118h-125l27 118h125zM561 691l-27 -118h-125l27 118h125zM484 500h157l-383 -596q-44 -68 -94.5 -96t-141.5 -28h-98l25 111h63q53 0 79 17.5t61 70.5l30 43l-129 478h145l82 -337z" />
    <glyph glyph-name="Amacron" unicode="&#x100;" horiz-adv-x="711" 
d="M663 888l-23 -100h-331l24 100h330zM549 700l93 -700h-153l-16 153h-272l-88 -153h-160l416 700h180zM270 273h190l-30 278z" />
    <glyph glyph-name="amacron" unicode="&#x101;" horiz-adv-x="602" 
d="M530 670l-21 -91h-301l22 91h300zM461 500h138l-115 -500h-138l12 51q-24 -26 -64.5 -43.5t-88.5 -17.5q-82 0 -132 53t-50 151q0 133 85 224.5t194 91.5q50 0 88 -21t56 -56zM253 94q63 0 107.5 56.5t44.5 137.5q0 109 -85 109q-66 0 -108.5 -59.5t-42.5 -136.5
q0 -107 84 -107z" />
    <glyph glyph-name="Abreve" unicode="&#x102;" horiz-adv-x="711" 
d="M483 775q-71 0 -107.5 44t-23.5 104h99q-7 -59 47 -59q55 0 71 59h101q-15 -66 -65.5 -107t-121.5 -41zM549 700l93 -700h-153l-16 153h-272l-88 -153h-160l416 700h180zM270 273h190l-30 278z" />
    <glyph glyph-name="abreve" unicode="&#x103;" horiz-adv-x="602" 
d="M358 555q-65 0 -98 40.5t-21 94.5h90q-7 -54 43 -54t64 54h92q-14 -60 -59.5 -97.5t-110.5 -37.5zM461 500h138l-115 -500h-138l12 51q-24 -26 -64.5 -43.5t-88.5 -17.5q-82 0 -132 53t-50 151q0 133 85 224.5t194 91.5q50 0 88 -21t56 -56zM253 94q63 0 107.5 56.5
t44.5 137.5q0 109 -85 109q-66 0 -108.5 -59.5t-42.5 -136.5q0 -107 84 -107z" />
    <glyph glyph-name="Aogonek" unicode="&#x104;" horiz-adv-x="711" 
d="M537 -111q0 -47 65 -47h24l-19 -79h-31q-67 0 -100.5 29.5t-33.5 76.5q0 26 8.5 46.5t28.5 37.5t32 24t40 23h-62l-16 153h-272l-88 -153h-160l416 700h180l93 -700q-105 -54 -105 -111zM270 273h190l-30 278z" />
    <glyph glyph-name="aogonek" unicode="&#x105;" horiz-adv-x="602" 
d="M484 0q-95 -49 -95 -101q0 -43 59 -43h22l-17 -71h-29q-61 0 -91 26.5t-30 69.5q0 24 7.5 42.5t25 33.5t30 22.5t36.5 20.5h-56l12 51q-24 -26 -64.5 -43.5t-88.5 -17.5q-82 0 -132 53t-50 151q0 133 85 224.5t194 91.5q50 0 88 -21t56 -56l15 67h138zM253 94
q63 0 107.5 56.5t44.5 137.5q0 109 -85 109q-66 0 -108.5 -59.5t-42.5 -136.5q0 -107 84 -107z" />
    <glyph glyph-name="Cacute" unicode="&#x106;" horiz-adv-x="749" 
d="M536 930h176l-185 -155h-130zM712 271q-37 -142 -136.5 -211.5t-230.5 -69.5q-142 0 -217.5 77.5t-76.5 213.5q0 116 51.5 214t149 156.5t220.5 58.5q142 0 213.5 -74.5t60.5 -186.5h-152q4 61 -30.5 95.5t-105.5 34.5q-115 0 -183.5 -85t-68.5 -204q0 -85 39 -130
t115 -45q141 0 200 156h152z" />
    <glyph glyph-name="cacute" unicode="&#x107;" horiz-adv-x="575" 
d="M395 700h160l-168 -141h-118zM404 306q3 43 -17 67.5t-63 24.5q-69 0 -112.5 -55.5t-43.5 -130.5q0 -51 24 -80t68 -29q84 0 122 90h139q-33 -97 -100.5 -150t-166.5 -53q-109 0 -169 58t-60 156q0 127 85 216.5t218 89.5q108 0 166.5 -59t46.5 -145h-137z" />
    <glyph glyph-name="Ccircumflex" unicode="&#x108;" horiz-adv-x="749" 
d="M667 771h-118l-40 72l-73 -72h-125l151 146h122zM712 271q-37 -142 -136.5 -211.5t-230.5 -69.5q-142 0 -217.5 77.5t-76.5 213.5q0 116 51.5 214t149 156.5t220.5 58.5q142 0 213.5 -74.5t60.5 -186.5h-152q4 61 -30.5 95.5t-105.5 34.5q-115 0 -183.5 -85t-68.5 -204
q0 -85 39 -130t115 -45q141 0 200 156h152z" />
    <glyph glyph-name="ccircumflex" unicode="&#x109;" horiz-adv-x="575" 
d="M512 564h-107l-36 65l-67 -65h-113l137 132h111zM404 306q3 43 -17 67.5t-63 24.5q-69 0 -112.5 -55.5t-43.5 -130.5q0 -51 24 -80t68 -29q84 0 122 90h139q-33 -97 -100.5 -150t-166.5 -53q-109 0 -169 58t-60 156q0 127 85 216.5t218 89.5q108 0 166.5 -59t46.5 -145
h-137z" />
    <glyph glyph-name="Cdotaccent" unicode="&#x10a;" horiz-adv-x="749" 
d="M408 779l32 136h164l-32 -136h-164zM712 271q-37 -142 -136.5 -211.5t-230.5 -69.5q-142 0 -217.5 77.5t-76.5 213.5q0 116 51.5 214t149 156.5t220.5 58.5q142 0 213.5 -74.5t60.5 -186.5h-152q4 61 -30.5 95.5t-105.5 34.5q-115 0 -183.5 -85t-68.5 -204q0 -85 39 -130
t115 -45q141 0 200 156h152z" />
    <glyph glyph-name="cdotaccent" unicode="&#x10b;" horiz-adv-x="575" 
d="M275 570l29 124h149l-29 -124h-149zM404 306q3 43 -17 67.5t-63 24.5q-69 0 -112.5 -55.5t-43.5 -130.5q0 -51 24 -80t68 -29q84 0 122 90h139q-33 -97 -100.5 -150t-166.5 -53q-109 0 -169 58t-60 156q0 127 85 216.5t218 89.5q108 0 166.5 -59t46.5 -145h-137z" />
    <glyph glyph-name="Ccaron" unicode="&#x10c;" horiz-adv-x="749" 
d="M578 922h125l-152 -146h-122l-83 146h118l40 -73zM712 271q-37 -142 -136.5 -211.5t-230.5 -69.5q-142 0 -217.5 77.5t-76.5 213.5q0 116 51.5 214t149 156.5t220.5 58.5q142 0 213.5 -74.5t60.5 -186.5h-152q4 61 -30.5 95.5t-105.5 34.5q-115 0 -183.5 -85t-68.5 -204
q0 -85 39 -130t115 -45q141 0 200 156h152z" />
    <glyph glyph-name="ccaron" unicode="&#x10d;" horiz-adv-x="575" 
d="M428 696h113l-138 -132h-111l-75 132h107l36 -66zM404 306q3 43 -17 67.5t-63 24.5q-69 0 -112.5 -55.5t-43.5 -130.5q0 -51 24 -80t68 -29q84 0 122 90h139q-33 -97 -100.5 -150t-166.5 -53q-109 0 -169 58t-60 156q0 127 85 216.5t218 89.5q108 0 166.5 -59t46.5 -145
h-137z" />
    <glyph glyph-name="Dcaron" unicode="&#x10e;" horiz-adv-x="723" 
d="M507 776h-122l-83 146h118l40 -73l74 73h125zM406 700q151 0 229 -80.5t78 -218.5q0 -59 -14 -114.5t-46 -108t-80 -92t-122 -63t-165 -23.5h-277l162 700h235zM291 127q128 0 194.5 78.5t66.5 195.5q0 84 -40.5 128t-139.5 44h-77l-104 -446h100z" />
    <glyph glyph-name="dcaron" unicode="&#x10f;" horiz-adv-x="599" 
d="M506 710h139l-164 -710h-139l13 55q-55 -65 -151 -65q-86 0 -133 56t-47 150q0 132 84.5 223t195.5 91q98 0 139 -71zM722 676h150l-20 -83q-23 -94 -70 -132.5t-141 -43.5l14 57q82 2 99 69h-65zM255 94q64 0 104.5 58t40.5 136q0 109 -86 109q-66 0 -105 -60.5
t-39 -134.5q0 -108 85 -108z" />
    <glyph glyph-name="Dcroat" unicode="&#x110;" horiz-adv-x="723" 
d="M406 700q151 0 229 -80.5t78 -218.5q0 -59 -14 -114.5t-46 -108t-80 -92t-122 -63t-165 -23.5h-277l67 289h-135l28 122h135l67 289h235zM291 127q128 0 194.5 78.5t66.5 195.5q0 84 -40.5 128t-139.5 44h-77l-38 -162h196l-28 -122h-196l-38 -162h100z" />
    <glyph glyph-name="dcroat" unicode="&#x111;" horiz-adv-x="599" 
d="M722 642l-23 -96h-92l-126 -546h-139l13 55q-55 -65 -151 -65q-86 0 -133 56t-47 150q0 132 84.5 223t195.5 91q98 0 139 -71l25 107h-135l22 96h135l16 68h139l-16 -68h93zM255 94q64 0 104.5 58t40.5 136q0 109 -86 109q-66 0 -105 -60.5t-39 -134.5q0 -108 85 -108z
" />
    <glyph glyph-name="Emacron" unicode="&#x112;" horiz-adv-x="604" 
d="M617 888l-23 -100h-331l24 100h330zM627 569h-335l-36 -156h309l-28 -121h-309l-38 -161h336l-30 -131h-487l162 700h487z" />
    <glyph glyph-name="emacron" unicode="&#x113;" horiz-adv-x="572" 
d="M517 670l-21 -91h-301l22 91h300zM322 510q116 0 169 -72t35 -199q-4 -20 -4 -22h-355v-12q0 -109 98 -109q78 0 110 72h137q-70 -178 -254 -178q-116 0 -174 59.5t-58 157.5q0 122 80.5 212.5t215.5 90.5zM185 302h212q11 105 -78 105q-92 0 -134 -105z" />
    <glyph glyph-name="Ebreve" unicode="&#x114;" horiz-adv-x="604" 
d="M437 775q-71 0 -107.5 44t-23.5 104h99q-7 -59 47 -59q55 0 71 59h101q-15 -66 -65.5 -107t-121.5 -41zM627 569h-335l-36 -156h309l-28 -121h-309l-38 -161h336l-30 -131h-487l162 700h487z" />
    <glyph glyph-name="ebreve" unicode="&#x115;" horiz-adv-x="572" 
d="M345 555q-65 0 -98 40.5t-21 94.5h90q-7 -54 43 -54t64 54h92q-14 -60 -59.5 -97.5t-110.5 -37.5zM322 510q116 0 169 -72t35 -199q-4 -20 -4 -22h-355v-12q0 -109 98 -109q78 0 110 72h137q-70 -178 -254 -178q-116 0 -174 59.5t-58 157.5q0 122 80.5 212.5t215.5 90.5z
M185 302h212q11 105 -78 105q-92 0 -134 -105z" />
    <glyph glyph-name="Edotaccent" unicode="&#x116;" horiz-adv-x="604" 
d="M541 915l-32 -136h-164l32 136h164zM627 569h-335l-36 -156h309l-28 -121h-309l-38 -161h336l-30 -131h-487l162 700h487z" />
    <glyph glyph-name="edotaccent" unicode="&#x117;" horiz-adv-x="572" 
d="M447 694l-29 -124h-149l29 124h149zM322 510q116 0 169 -72t35 -199q-4 -20 -4 -22h-355v-12q0 -109 98 -109q78 0 110 72h137q-70 -178 -254 -178q-116 0 -174 59.5t-58 157.5q0 122 80.5 212.5t215.5 90.5zM185 302h212q11 105 -78 105q-92 0 -134 -105z" />
    <glyph glyph-name="Eogonek" unicode="&#x118;" horiz-adv-x="604" 
d="M627 569h-335l-36 -156h309l-28 -121h-309l-38 -161h336l-30 -131h-150q-105 -54 -105 -111q0 -47 65 -47h24l-19 -79h-31q-67 0 -100.5 29.5t-33.5 76.5q0 26 8.5 46.5t28.5 37.5t32 24t40 23h-246l162 700h487z" />
    <glyph glyph-name="eogonek" unicode="&#x119;" horiz-adv-x="572" 
d="M322 510q116 0 169 -72t35 -199q-4 -20 -4 -22h-355v-12q0 -109 98 -109q78 0 110 72h137q-65 -166 -227 -177q-78 -45 -78 -92q0 -43 59 -43h22l-17 -71h-29q-61 0 -91 26.5t-30 69.5q0 41 23 65.5t64 46.5q-91 13 -136.5 70.5t-45.5 143.5q0 122 80.5 212.5t215.5 90.5
zM185 302h212q11 105 -78 105q-92 0 -134 -105z" />
    <glyph glyph-name="Ecaron" unicode="&#x11a;" horiz-adv-x="604" 
d="M488 776h-122l-83 146h118l40 -73l74 73h125zM627 569h-335l-36 -156h309l-28 -121h-309l-38 -161h336l-30 -131h-487l162 700h487z" />
    <glyph glyph-name="ecaron" unicode="&#x11b;" horiz-adv-x="572" 
d="M397 564h-111l-75 132h107l36 -66l68 66h113zM322 510q116 0 169 -72t35 -199q-4 -20 -4 -22h-355v-12q0 -109 98 -109q78 0 110 72h137q-70 -178 -254 -178q-116 0 -174 59.5t-58 157.5q0 122 80.5 212.5t215.5 90.5zM185 302h212q11 105 -78 105q-92 0 -134 -105z" />
    <glyph glyph-name="Gcircumflex" unicode="&#x11c;" horiz-adv-x="765" 
d="M514 843l-73 -72h-125l151 146h122l83 -146h-118zM742 450h-147q6 63 -28.5 97t-100.5 34q-107 0 -183 -84t-76 -204q0 -84 42.5 -130.5t127.5 -46.5q71 0 125.5 36t72.5 115h-217l25 106h347l-11 -47l-75 -326h-92l8 91q-82 -100 -227 -101q-130 -1 -205 76.5t-76 217.5
q-2 182 117 304t303 122q141 0 214.5 -73t55.5 -187z" />
    <glyph glyph-name="gcircumflex" unicode="&#x11d;" horiz-adv-x="598" 
d="M372 629l-67 -65h-113l137 132h111l75 -132h-107zM459 500h137l-118 -512q-25 -112 -93.5 -165t-187.5 -53q-69 0 -116.5 16.5t-69 45t-28 60t-1.5 67.5h131q-4 -38 17 -60.5t74 -22.5q59 0 92 30t47 92l13 55q-61 -63 -155 -63q-83 0 -130.5 54t-47.5 149
q0 133 85.5 225t196.5 92q48 0 87 -20t51 -57zM253 94q64 0 106.5 56.5t42.5 139.5q0 108 -83 108q-66 0 -109 -59t-43 -138q0 -107 86 -107z" />
    <glyph glyph-name="Gbreve" unicode="&#x11e;" horiz-adv-x="765" 
d="M505 775q-71 0 -107.5 44t-23.5 104h99q-7 -59 47 -59q55 0 71 59h101q-15 -66 -65.5 -107t-121.5 -41zM742 450h-147q6 63 -28.5 97t-100.5 34q-107 0 -183 -84t-76 -204q0 -84 42.5 -130.5t127.5 -46.5q71 0 125.5 36t72.5 115h-217l25 106h347l-11 -47l-75 -326h-92
l8 91q-82 -100 -227 -101q-130 -1 -205 76.5t-76 217.5q-2 182 117 304t303 122q141 0 214.5 -73t55.5 -187z" />
    <glyph glyph-name="gbreve" unicode="&#x11f;" horiz-adv-x="598" 
d="M354 555q-65 0 -98 40.5t-21 94.5h90q-7 -54 43 -54t64 54h92q-14 -60 -59.5 -97.5t-110.5 -37.5zM459 500h137l-118 -512q-25 -112 -93.5 -165t-187.5 -53q-69 0 -116.5 16.5t-69 45t-28 60t-1.5 67.5h131q-4 -38 17 -60.5t74 -22.5q59 0 92 30t47 92l13 55
q-61 -63 -155 -63q-83 0 -130.5 54t-47.5 149q0 133 85.5 225t196.5 92q48 0 87 -20t51 -57zM253 94q64 0 106.5 56.5t42.5 139.5q0 108 -83 108q-66 0 -109 -59t-43 -138q0 -107 86 -107z" />
    <glyph glyph-name="Gdotaccent" unicode="&#x120;" horiz-adv-x="765" 
d="M609 915l-32 -136h-164l32 136h164zM742 450h-147q6 63 -28.5 97t-100.5 34q-107 0 -183 -84t-76 -204q0 -84 42.5 -130.5t127.5 -46.5q71 0 125.5 36t72.5 115h-217l25 106h347l-11 -47l-75 -326h-92l8 91q-82 -100 -227 -101q-130 -1 -205 76.5t-76 217.5
q-2 182 117 304t303 122q141 0 214.5 -73t55.5 -187z" />
    <glyph glyph-name="gdotaccent" unicode="&#x121;" horiz-adv-x="598" 
d="M456 694l-29 -124h-149l29 124h149zM459 500h137l-118 -512q-25 -112 -93.5 -165t-187.5 -53q-69 0 -116.5 16.5t-69 45t-28 60t-1.5 67.5h131q-4 -38 17 -60.5t74 -22.5q59 0 92 30t47 92l13 55q-61 -63 -155 -63q-83 0 -130.5 54t-47.5 149q0 133 85.5 225t196.5 92
q48 0 87 -20t51 -57zM253 94q64 0 106.5 56.5t42.5 139.5q0 108 -83 108q-66 0 -109 -59t-43 -138q0 -107 86 -107z" />
    <glyph glyph-name="Gcommaaccent" unicode="&#x122;" horiz-adv-x="765" 
d="M742 450h-147q6 63 -28.5 97t-100.5 34q-107 0 -183 -84t-76 -204q0 -84 42.5 -130.5t127.5 -46.5q71 0 125.5 36t72.5 115h-217l25 106h347l-11 -47l-75 -326h-92l8 91q-82 -100 -227 -101q-130 -1 -205 76.5t-76 217.5q-2 182 117 304t303 122q141 0 214.5 -73
t55.5 -187zM212 -200l31 134h145l-19 -83q-22 -95 -67.5 -134t-136.5 -44l14 57q80 2 95 70h-62z" />
    <glyph glyph-name="gcommaaccent" unicode="&#x123;" horiz-adv-x="598" 
d="M453 681l-28 -118h-126l17 73q19 84 58.5 118t118.5 39l-12 -50q-68 -2 -83 -62h55zM459 500h137l-118 -512q-25 -112 -93.5 -165t-187.5 -53q-69 0 -116.5 16.5t-69 45t-28 60t-1.5 67.5h131q-4 -38 17 -60.5t74 -22.5q59 0 92 30t47 92l13 55q-61 -63 -155 -63
q-83 0 -130.5 54t-47.5 149q0 133 85.5 225t196.5 92q48 0 87 -20t51 -57zM253 94q64 0 106.5 56.5t42.5 139.5q0 108 -83 108q-66 0 -109 -59t-43 -138q0 -107 86 -107z" />
    <glyph glyph-name="Hcircumflex" unicode="&#x124;" horiz-adv-x="747" 
d="M513 843l-73 -72h-125l151 146h122l83 -146h-118zM627 700h157l-162 -700h-157l67 291h-299l-67 -291h-157l162 700h157l-65 -280h299z" />
    <glyph glyph-name="hcircumflex" unicode="&#x125;" horiz-adv-x="609" 
d="M274 839l-67 -65h-113l137 132h111l75 -132h-107zM436 510q79 0 114 -54.5t9 -164.5l-67 -291h-144l59 256q18 72 7.5 104.5t-55.5 32.5q-121 0 -178 -243l5 22l-40 -172h-142l115 500l49 210h142l-49 -210l-26 -112q82 122 201 122z" />
    <glyph glyph-name="Hbar" unicode="&#x126;" horiz-adv-x="744" 
d="M640 700h157l-162 -700h-157l35 152h-299l-35 -152h-157l162 700h157l-36 -154h299zM244 279h299l32 140h-299z" />
    <glyph glyph-name="hbar" unicode="&#x127;" horiz-adv-x="609" 
d="M436 510q79 0 114 -54.5t9 -164.5l-67 -291h-144l59 256q18 72 7.5 104.5t-55.5 32.5q-121 0 -178 -243l5 22l-40 -172h-142l115 500l11 46h-95l22 96h95l16 68h142l-16 -68h130l-23 -96h-129l-11 -46l-26 -112q82 122 201 122z" />
    <glyph glyph-name="Itilde" unicode="&#x128;" horiz-adv-x="287" 
d="M50 773q46 146 169 146q37 0 61 -12t41 -24t37 -12q40 0 62 43h92q-24 -72 -67.5 -109.5t-101.5 -37.5q-38 0 -62.5 12.5t-42 24.5t-38.5 12q-38 0 -61 -43h-89zM162 0h-153l162 700h153z" />
    <glyph glyph-name="itilde" unicode="&#x129;" horiz-adv-x="266" 
d="M23 559q40 133 144 133q41 0 70.5 -22t47.5 -22q35 0 53 39h78q-41 -133 -144 -133q-41 0 -72 22t-49 22q-33 0 -52 -39h-76zM148 0h-144l115 500h144z" />
    <glyph glyph-name="Imacron" unicode="&#x12a;" horiz-adv-x="287" 
d="M121 888h330l-23 -100h-331zM162 0h-153l162 700h153z" />
    <glyph glyph-name="imacron" unicode="&#x12b;" horiz-adv-x="266" 
d="M81 670h300l-21 -91h-301zM148 0h-144l115 500h144z" />
    <glyph glyph-name="Ibreve" unicode="&#x12c;" horiz-adv-x="287" 
d="M458 923q-15 -66 -65.5 -107t-121.5 -41t-107.5 44t-23.5 104h99q-7 -59 47 -59q55 0 71 59h101zM162 0h-153l162 700h153z" />
    <glyph glyph-name="ibreve" unicode="&#x12d;" horiz-adv-x="266" 
d="M379 690q-14 -60 -59.5 -97.5t-110.5 -37.5t-98 40.5t-21 94.5h90q-7 -54 43 -54t64 54h92zM148 0h-144l115 500h144z" />
    <glyph glyph-name="Iogonek" unicode="&#x12e;" horiz-adv-x="287" 
d="M162 0q-105 -54 -105 -111q0 -47 65 -47h24l-19 -79h-31q-67 0 -100.5 29.5t-33.5 76.5q0 26 8.5 46.5t28.5 37.5t32 24t40 23h-62l162 700h153z" />
    <glyph glyph-name="iogonek" unicode="&#x12f;" horiz-adv-x="266" 
d="M162 694h149l-29 -124h-149zM4 0l115 500h144l-115 -500q-95 -49 -95 -101q0 -43 59 -43h22l-17 -71h-29q-61 0 -91 26.5t-30 69.5q0 24 7.5 42.5t25 33.5t30 22.5t36.5 20.5h-62z" />
    <glyph glyph-name="Idotaccent" unicode="&#x130;" horiz-adv-x="287" 
d="M179 779l32 136h164l-32 -136h-164zM162 0h-153l162 700h153z" />
    <glyph glyph-name="dotlessi" unicode="&#x131;" horiz-adv-x="266" 
d="M148 0h-144l115 500h144z" />
    <glyph glyph-name="IJ" unicode="&#x132;" horiz-adv-x="941" 
d="M162 0h-153l162 700h153zM826 700h153l-109 -474q-27 -118 -107 -177t-201 -59q-142 0 -206 76.5t-34 212.5l7 31h153l-7 -31q-37 -161 96 -161q121 0 156 154z" />
    <glyph glyph-name="ij" unicode="&#x133;" horiz-adv-x="530" 
d="M311 694l-29 -124h-149l29 124h149zM426 694h149l-29 -124h-149zM263 500l-115 -500h-144l115 500h144zM383 500h144l-105 -457l-21 -94q-40 -169 -226 -169h-128l26 113h72q99 0 120 94l16 70z" />
    <glyph glyph-name="Jcircumflex" unicode="&#x134;" horiz-adv-x="662" 
d="M814 771h-118l-40 72l-73 -72h-125l151 146h122zM547 700h153l-109 -474q-27 -118 -107 -177t-201 -59q-142 0 -206 76.5t-34 212.5l7 31h153l-7 -31q-37 -161 96 -161q121 0 156 154z" />
    <glyph glyph-name="jcircumflex" unicode="&#x135;" horiz-adv-x="266" 
d="M295 696l75 -132h-107l-36 65l-67 -65h-113l137 132h111zM119 500h144l-105 -457l-21 -94q-40 -169 -226 -169h-128l26 113h72q99 0 120 94l16 70z" />
    <glyph glyph-name="Kcommaaccent" unicode="&#x136;" horiz-adv-x="664" 
d="M742 700l-339 -306l197 -394h-163l-148 292l-80 -73l-51 -219h-149l162 700h149l-61 -264l284 264h199zM152 -200l31 134h145l-19 -83q-22 -95 -67.5 -134t-136.5 -44l14 57q80 2 95 70h-62z" />
    <glyph glyph-name="kcommaaccent" unicode="&#x137;" horiz-adv-x="550" 
d="M591 500l-250 -217l146 -283h-144l-102 197l-71 -62l-31 -135h-136l164 710h136l-91 -393l207 183h172zM125 -182l29 122h132l-18 -76q-20 -86 -61.5 -121.5t-123.5 -39.5l12 52q72 1 87 63h-57z" />
    <glyph glyph-name="Lacute" unicode="&#x139;" horiz-adv-x="588" 
d="M483 930l-185 -155h-130l139 155h176zM193 135h341l-30 -135h-495l162 700h153z" />
    <glyph glyph-name="lacute" unicode="&#x13a;" horiz-adv-x="267" 
d="M302 910h160l-168 -141h-118zM149 0h-146l164 710h146z" />
    <glyph glyph-name="Lcommaaccent" unicode="&#x13b;" horiz-adv-x="588" 
d="M193 135h341l-30 -135h-495l162 700h153zM141 -200l31 134h145l-19 -83q-22 -95 -67.5 -134t-136.5 -44l14 57q80 2 95 70h-62z" />
    <glyph glyph-name="lcommaaccent" unicode="&#x13c;" horiz-adv-x="267" 
d="M167 710h146l-164 -710h-146zM-30 -182l29 122h132l-18 -76q-20 -86 -61.5 -121.5t-123.5 -39.5l12 52q72 1 87 63h-57z" />
    <glyph glyph-name="Lcaron" unicode="&#x13d;" horiz-adv-x="588" 
d="M429 702h145l-19 -83q-22 -95 -67.5 -134t-136.5 -44l14 57q80 2 95 70h-62zM324 700l-131 -565h341l-30 -135h-495l162 700h153z" />
    <glyph glyph-name="lcaron" unicode="&#x13e;" horiz-adv-x="267" 
d="M167 710h146l-164 -710h-146zM392 691h150l-20 -83q-23 -94 -70 -132.5t-141 -43.5l14 57q82 2 99 69h-65z" />
    <glyph glyph-name="Ldot" unicode="&#x13f;" horiz-adv-x="588" 
d="M193 135h341l-30 -135h-495l162 700h153zM457 334h-157l34 148h157z" />
    <glyph glyph-name="Lslash" unicode="&#x141;" horiz-adv-x="588" 
d="M193 135h341l-30 -135h-495l51 222l-111 -62l32 141l112 62l78 337h153l-55 -240l188 105l-32 -140l-189 -105z" />
    <glyph glyph-name="lslash" unicode="&#x142;" horiz-adv-x="267" 
d="M370 546l-26 -112l-112 -74l-83 -360h-146l57 247l-111 -73l26 113l111 73l81 350h146l-55 -237z" />
    <glyph glyph-name="Nacute" unicode="&#x143;" horiz-adv-x="749" 
d="M714 930l-185 -155h-130l139 155h176zM639 700h147l-162 -700h-174l-173 522l-121 -522h-147l162 700h175l172 -522z" />
    <glyph glyph-name="nacute" unicode="&#x144;" horiz-adv-x="609" 
d="M579 700l-168 -141h-118l126 141h160zM436 510q79 0 114 -54.5t9 -164.5l-67 -291h-144l59 256q18 72 7.5 104.5t-55.5 32.5q-121 0 -178 -243l5 22l-40 -172h-142l115 500h142l-26 -112q82 122 201 122z" />
    <glyph glyph-name="Ncommaaccent" unicode="&#x145;" horiz-adv-x="749" 
d="M639 700h147l-162 -700h-174l-173 522l-121 -522h-147l162 700h175l172 -522zM212 -200l31 134h145l-19 -83q-22 -95 -67.5 -134t-136.5 -44l14 57q80 2 95 70h-62z" />
    <glyph glyph-name="ncommaaccent" unicode="&#x146;" horiz-adv-x="609" 
d="M436 510q79 0 114 -54.5t9 -164.5l-67 -291h-144l59 256q18 72 7.5 104.5t-55.5 32.5q-121 0 -178 -243l5 22l-40 -172h-142l115 500h142l-26 -112q82 122 201 122zM149 -182l29 122h132l-18 -76q-20 -86 -61.5 -121.5t-123.5 -39.5l12 52q72 1 87 63h-57z" />
    <glyph glyph-name="Ncaron" unicode="&#x147;" horiz-adv-x="749" 
d="M553 776h-122l-83 146h118l40 -73l74 73h125zM639 700h147l-162 -700h-174l-173 522l-121 -522h-147l162 700h175l172 -522z" />
    <glyph glyph-name="ncaron" unicode="&#x148;" horiz-adv-x="609" 
d="M427 564h-111l-75 132h107l36 -66l68 66h113zM436 510q79 0 114 -54.5t9 -164.5l-67 -291h-144l59 256q18 72 7.5 104.5t-55.5 32.5q-121 0 -178 -243l5 22l-40 -172h-142l115 500h142l-26 -112q82 122 201 122z" />
    <glyph glyph-name="Eng" unicode="&#x14a;" horiz-adv-x="749" 
d="M786 700l-162 -700l-9 -39q-20 -87 -84.5 -134t-150.5 -47h-123l27 115h70q100 0 120 84l5 21h-29l-173 522l-121 -522h-147l162 700h175l172 -522l121 522h147z" />
    <glyph glyph-name="eng" unicode="&#x14b;" horiz-adv-x="609" 
d="M436 510q79 0 114 -54.5t9 -164.5l-57 -249l-21 -93q-40 -169 -226 -169h-128l26 113h72q99 0 120 94l16 70l46 199q18 72 7.5 104.5t-55.5 32.5q-121 0 -178 -243l5 22l-40 -172h-142l115 500h142l-26 -112q82 122 201 122z" />
    <glyph glyph-name="Omacron" unicode="&#x14c;" horiz-adv-x="790" 
d="M356 888h330l-23 -100h-331zM358 -10q-145 0 -225 78t-80 222q0 182 118.5 301t304.5 119q145 0 225 -78t80 -222q0 -182 -118.5 -301t-304.5 -119zM369 119q105 0 176.5 84.5t71.5 203.5q0 82 -39 128t-112 46q-106 0 -177 -84.5t-71 -203.5q0 -83 39 -128.5t112 -45.5z
" />
    <glyph glyph-name="omacron" unicode="&#x14d;" horiz-adv-x="581" 
d="M231 670h300l-21 -91h-301zM247 -10q-105 0 -163 56.5t-58 159.5q0 133 88.5 218.5t221.5 85.5q105 0 162 -57t57 -161q0 -133 -87.5 -217.5t-220.5 -84.5zM261 98q69 0 109 60.5t40 134.5q0 107 -88 107q-67 0 -108.5 -58.5t-41.5 -134.5q0 -109 89 -109z" />
    <glyph glyph-name="Obreve" unicode="&#x14e;" horiz-adv-x="790" 
d="M693 923q-15 -66 -65.5 -107t-121.5 -41t-107.5 44t-23.5 104h99q-7 -59 47 -59q55 0 71 59h101zM358 -10q-145 0 -225 78t-80 222q0 182 118.5 301t304.5 119q145 0 225 -78t80 -222q0 -182 -118.5 -301t-304.5 -119zM369 119q105 0 176.5 84.5t71.5 203.5q0 82 -39 128
t-112 46q-106 0 -177 -84.5t-71 -203.5q0 -83 39 -128.5t112 -45.5z" />
    <glyph glyph-name="obreve" unicode="&#x14f;" horiz-adv-x="581" 
d="M529 690q-14 -60 -59.5 -97.5t-110.5 -37.5t-98 40.5t-21 94.5h90q-7 -54 43 -54t64 54h92zM247 -10q-105 0 -163 56.5t-58 159.5q0 133 88.5 218.5t221.5 85.5q105 0 162 -57t57 -161q0 -133 -87.5 -217.5t-220.5 -84.5zM261 98q69 0 109 60.5t40 134.5q0 107 -88 107
q-67 0 -108.5 -58.5t-41.5 -134.5q0 -109 89 -109z" />
    <glyph glyph-name="Ohungarumlaut" unicode="&#x150;" horiz-adv-x="790" 
d="M445 938h146l-145 -155h-114zM649 938h145l-144 -155h-114zM358 -10q-145 0 -225 78t-80 222q0 182 118.5 301t304.5 119q145 0 225 -78t80 -222q0 -182 -118.5 -301t-304.5 -119zM369 119q105 0 176.5 84.5t71.5 203.5q0 82 -39 128t-112 46q-106 0 -177 -84.5
t-71 -203.5q0 -83 39 -128.5t112 -45.5z" />
    <glyph glyph-name="ohungarumlaut" unicode="&#x151;" horiz-adv-x="581" 
d="M306 698h132l-131 -141h-104zM491 698h132l-131 -141h-104zM247 -10q-105 0 -163 56.5t-58 159.5q0 133 88.5 218.5t221.5 85.5q105 0 162 -57t57 -161q0 -133 -87.5 -217.5t-220.5 -84.5zM261 98q69 0 109 60.5t40 134.5q0 107 -88 107q-67 0 -108.5 -58.5t-41.5 -134.5
q0 -109 89 -109z" />
    <glyph glyph-name="OE" unicode="&#x152;" horiz-adv-x="1143" 
d="M1166 569h-335l-36 -156h309l-28 -121h-309l-38 -161h336l-30 -131h-487l8 33q-89 -43 -198 -43q-145 0 -225 78t-80 222q0 182 118.5 301t304.5 119q141 0 220 -73l14 63h487zM369 119q105 0 176.5 84.5t71.5 203.5q0 82 -39 128t-112 46q-106 0 -177 -84.5t-71 -203.5
q0 -83 39 -128.5t112 -45.5z" />
    <glyph glyph-name="oe" unicode="&#x153;" horiz-adv-x="952" 
d="M702 510q116 0 169 -72t35 -199q-4 -20 -4 -22h-355v-12q0 -109 98 -109q78 0 110 72h137q-70 -178 -254 -178q-124 0 -185 72q-85 -72 -206 -72q-105 0 -163 56.5t-58 159.5q0 133 88.5 218.5t221.5 85.5q116 0 173 -69q81 69 193 69zM565 302h212q11 105 -78 105
q-92 0 -134 -105zM261 98q69 0 109 60.5t40 134.5q0 107 -88 107q-67 0 -108.5 -58.5t-41.5 -134.5q0 -109 89 -109z" />
    <glyph glyph-name="Racute" unicode="&#x154;" horiz-adv-x="656" 
d="M636 930l-185 -155h-130l139 155h176zM660 504q0 -165 -210 -205q56 -15 86 -52t37 -107l15 -140h-158l-15 136q-8 69 -50 89t-152 20l-57 -245h-147l162 700h242q130 0 188.5 -55.5t58.5 -140.5zM366 366q66 0 101 32.5t35 80.5q0 39 -24.5 64.5t-76.5 25.5h-113
l-47 -203h125z" />
    <glyph glyph-name="racute" unicode="&#x155;" horiz-adv-x="456" 
d="M520 700l-168 -141h-118l126 141h160zM242 403q54 97 170 97h80l-27 -121h-65q-40 0 -67 -6.5t-56 -26t-50 -61t-37 -107.5l-41 -178h-145l115 500h145z" />
    <glyph glyph-name="Rcommaaccent" unicode="&#x156;" horiz-adv-x="656" 
d="M660 504q0 -165 -210 -205q56 -15 86 -52t37 -107l15 -140h-158l-15 136q-8 69 -50 89t-152 20l-57 -245h-147l162 700h242q130 0 188.5 -55.5t58.5 -140.5zM366 366q66 0 101 32.5t35 80.5q0 39 -24.5 64.5t-76.5 25.5h-113l-47 -203h125zM174 -200l31 134h145l-19 -83
q-22 -95 -67.5 -134t-136.5 -44l14 57q80 2 95 70h-62z" />
    <glyph glyph-name="rcommaaccent" unicode="&#x157;" horiz-adv-x="456" 
d="M412 500h80l-27 -121h-65q-40 0 -67 -6.5t-56 -26t-50 -61t-37 -107.5l-41 -178h-145l115 500h145l-22 -97q54 97 170 97zM-29 -182l29 122h132l-18 -76q-20 -86 -61.5 -121.5t-123.5 -39.5l12 52q72 1 87 63h-57z" />
    <glyph glyph-name="Rcaron" unicode="&#x158;" horiz-adv-x="656" 
d="M475 776h-122l-83 146h118l40 -73l74 73h125zM660 504q0 -165 -210 -205q56 -15 86 -52t37 -107l15 -140h-158l-15 136q-8 69 -50 89t-152 20l-57 -245h-147l162 700h242q130 0 188.5 -55.5t58.5 -140.5zM366 366q66 0 101 32.5t35 80.5q0 39 -24.5 64.5t-76.5 25.5h-113
l-47 -203h125z" />
    <glyph glyph-name="rcaron" unicode="&#x159;" horiz-adv-x="456" 
d="M368 564h-111l-75 132h107l36 -66l68 66h113zM242 403q54 97 170 97h80l-27 -121h-65q-40 0 -67 -6.5t-56 -26t-50 -61t-37 -107.5l-41 -178h-145l115 500h145z" />
    <glyph glyph-name="Sacute" unicode="&#x15a;" horiz-adv-x="649" 
d="M469 930h176l-185 -155h-130zM199 223q-8 -53 18.5 -80.5t82.5 -27.5q49 0 79.5 21.5t30.5 58.5q0 34 -27 49t-103 36q-101 25 -149 68t-48 121q0 111 87 176t214 65q130 0 212 -69.5t59 -194.5h-148q11 65 -22 99t-100 34q-62 0 -104.5 -27t-42.5 -72q0 -20 8.5 -34.5
t29.5 -25.5t37 -17t51 -16q37 -10 59.5 -17t53.5 -22.5t48 -34t30 -48t13 -67.5q0 -100 -75.5 -154t-192.5 -54q-131 0 -199.5 66t-51.5 167h150z" />
    <glyph glyph-name="sacute" unicode="&#x15b;" horiz-adv-x="520" 
d="M355 700h160l-168 -141h-118zM159 163q-10 -74 71 -74q73 0 73 51q0 24 -18.5 34.5t-67.5 24.5q-7 2 -11 3q-77 20 -117 51.5t-40 89.5q0 76 65.5 121.5t169.5 45.5q112 0 169.5 -51.5t49.5 -134.5h-129q4 38 -22.5 59t-71.5 21q-39 0 -64.5 -15t-25.5 -41
q0 -22 20.5 -32.5t73.5 -23.5q76 -20 117.5 -51t41.5 -94q0 -75 -60.5 -116t-152.5 -41q-104 0 -159.5 49.5t-44.5 123.5h133z" />
    <glyph glyph-name="Scircumflex" unicode="&#x15c;" horiz-adv-x="649" 
d="M600 771h-118l-40 72l-73 -72h-125l151 146h122zM199 223q-8 -53 18.5 -80.5t82.5 -27.5q49 0 79.5 21.5t30.5 58.5q0 34 -27 49t-103 36q-101 25 -149 68t-48 121q0 111 87 176t214 65q130 0 212 -69.5t59 -194.5h-148q11 65 -22 99t-100 34q-62 0 -104.5 -27t-42.5 -72
q0 -20 8.5 -34.5t29.5 -25.5t37 -17t51 -16q37 -10 59.5 -17t53.5 -22.5t48 -34t30 -48t13 -67.5q0 -100 -75.5 -154t-192.5 -54q-131 0 -199.5 66t-51.5 167h150z" />
    <glyph glyph-name="scircumflex" unicode="&#x15d;" horiz-adv-x="520" 
d="M472 564h-107l-36 65l-67 -65h-113l137 132h111zM159 163q-10 -74 71 -74q73 0 73 51q0 24 -18.5 34.5t-67.5 24.5q-7 2 -11 3q-77 20 -117 51.5t-40 89.5q0 76 65.5 121.5t169.5 45.5q112 0 169.5 -51.5t49.5 -134.5h-129q4 38 -22.5 59t-71.5 21q-39 0 -64.5 -15
t-25.5 -41q0 -22 20.5 -32.5t73.5 -23.5q76 -20 117.5 -51t41.5 -94q0 -75 -60.5 -116t-152.5 -41q-104 0 -159.5 49.5t-44.5 123.5h133z" />
    <glyph glyph-name="Scedilla" unicode="&#x15e;" horiz-adv-x="649" 
d="M655 446h-148q11 65 -22 99t-100 34q-62 0 -104.5 -27t-42.5 -72q0 -20 8.5 -34.5t29.5 -25.5t37 -17t51 -16q37 -10 59.5 -17t53.5 -22.5t48 -34t30 -48t13 -67.5q0 -96 -70.5 -150t-181.5 -58q41 -39 41 -91q0 -64 -47 -100t-142 -36h-48l18 77h40q47 0 70.5 21.5
t23.5 52.5q0 43 -53 84q-93 19 -138.5 80.5t-31.5 144.5h150q-8 -53 18.5 -80.5t82.5 -27.5q49 0 79.5 21.5t30.5 58.5q0 34 -27 49t-103 36q-101 25 -149 68t-48 121q0 111 87 176t214 65q130 0 212 -69.5t59 -194.5z" />
    <glyph glyph-name="scedilla" unicode="&#x15f;" horiz-adv-x="520" 
d="M503 324h-129q4 38 -22.5 59t-71.5 21q-39 0 -64.5 -15t-25.5 -41q0 -22 20.5 -32.5t73.5 -23.5q76 -20 117.5 -51t41.5 -94q0 -72 -55.5 -112.5t-141.5 -44.5q36 -34 36 -82q0 -58 -42.5 -90.5t-128.5 -32.5h-44l16 70h37q42 0 63.5 19t21.5 48q0 38 -48 76
q-70 16 -105 60.5t-26 104.5h133q-10 -74 71 -74q73 0 73 51q0 24 -18.5 34.5t-67.5 24.5q-7 2 -11 3q-77 20 -117 51.5t-40 89.5q0 76 65.5 121.5t169.5 45.5q112 0 169.5 -51.5t49.5 -134.5z" />
    <glyph glyph-name="Scaron" unicode="&#x160;" horiz-adv-x="649" 
d="M511 922h125l-152 -146h-122l-83 146h118l40 -73zM199 223q-8 -53 18.5 -80.5t82.5 -27.5q49 0 79.5 21.5t30.5 58.5q0 34 -27 49t-103 36q-101 25 -149 68t-48 121q0 111 87 176t214 65q130 0 212 -69.5t59 -194.5h-148q11 65 -22 99t-100 34q-62 0 -104.5 -27
t-42.5 -72q0 -20 8.5 -34.5t29.5 -25.5t37 -17t51 -16q37 -10 59.5 -17t53.5 -22.5t48 -34t30 -48t13 -67.5q0 -100 -75.5 -154t-192.5 -54q-131 0 -199.5 66t-51.5 167h150z" />
    <glyph glyph-name="scaron" unicode="&#x161;" horiz-adv-x="520" 
d="M388 696h113l-138 -132h-111l-75 132h107l36 -66zM159 163q-10 -74 71 -74q73 0 73 51q0 24 -18.5 34.5t-67.5 24.5q-7 2 -11 3q-77 20 -117 51.5t-40 89.5q0 76 65.5 121.5t169.5 45.5q112 0 169.5 -51.5t49.5 -134.5h-129q4 38 -22.5 59t-71.5 21q-39 0 -64.5 -15
t-25.5 -41q0 -22 20.5 -32.5t73.5 -23.5q76 -20 117.5 -51t41.5 -94q0 -75 -60.5 -116t-152.5 -41q-104 0 -159.5 49.5t-44.5 123.5h133z" />
    <glyph glyph-name="uni0162" unicode="&#x162;" horiz-adv-x="646" 
d="M723 700l-30 -131h-220l-132 -569h-63q52 -42 52 -101q0 -64 -47 -100t-142 -36h-48l18 77h40q47 0 70.5 21.5t23.5 52.5q0 45 -56 86h-1l132 569h-220l30 131h593z" />
    <glyph glyph-name="uni0163" unicode="&#x163;" horiz-adv-x="408" 
d="M280 400l-44 -193q-11 -48 6 -71.5t67 -23.5h48l-26 -112q46 -36 46 -91q0 -58 -42.5 -90.5t-128.5 -32.5h-44l16 70h37q42 0 63.5 19t21.5 48q0 39 -50 77q-96 4 -137.5 58.5t-21.5 144.5l45 197h-92l23 100h92l26 112l150 26l-32 -138h131l-23 -100h-131z" />
    <glyph glyph-name="Tcaron" unicode="&#x164;" horiz-adv-x="646" 
d="M501 776h-122l-83 146h118l40 -73l74 73h125zM723 700l-30 -131h-220l-132 -569h-153l132 569h-220l30 131h593z" />
    <glyph glyph-name="tcaron" unicode="&#x165;" horiz-adv-x="415" 
d="M427 699h150l-20 -83q-23 -94 -70 -132.5t-141 -43.5l14 57q82 2 99 69h-65zM226 200q-21 -88 62 -88h61l-26 -112h-104q-80 0 -120 48.5t-20 136.5l49 215h-92l23 100h92l26 112l150 26z" />
    <glyph glyph-name="Tbar" unicode="&#x166;" horiz-adv-x="646" 
d="M693 569h-220l-33 -142h164l-28 -122h-164l-71 -305h-153l71 305h-167l28 122h167l33 142h-220l30 131h593z" />
    <glyph glyph-name="tbar" unicode="&#x167;" horiz-adv-x="408" 
d="M411 400h-131l-17 -75h131l-23 -96h-130l-5 -22q-11 -48 6 -71.5t67 -23.5h48l-26 -112h-68q-102 0 -147.5 55t-24.5 148l6 26h-92l22 96h92l17 75h-92l23 100h92l26 112l150 26l-32 -138h131z" />
    <glyph glyph-name="Utilde" unicode="&#x168;" horiz-adv-x="741" 
d="M276 773q46 146 169 146q37 0 61 -12t41 -24t37 -12q40 0 62 43h92q-24 -72 -67.5 -109.5t-101.5 -37.5q-38 0 -62.5 12.5t-42 24.5t-38.5 12q-38 0 -61 -43h-89zM169 700h153l-92 -395q-42 -184 113 -184q150 0 192 184l92 395h153l-99 -427q-31 -134 -120 -209
t-236 -74q-152 1 -216.5 85.5t-26.5 249.5z" />
    <glyph glyph-name="utilde" unicode="&#x169;" horiz-adv-x="607" 
d="M320 598q-32 0 -52 -39h-76q40 133 144 133q41 0 70.5 -22t47.5 -22q35 0 53 39h78q-41 -133 -144 -133q-41 0 -72 22t-49 22zM462 500h142l-115 -500h-142l24 106q-68 -116 -192 -116q-82 0 -119 53t-13 157l69 300h145l-64 -274q-15 -62 -3 -90.5t54 -28.5
q124 0 179 243l-3 -15z" />
    <glyph glyph-name="Umacron" unicode="&#x16a;" horiz-adv-x="741" 
d="M347 888h330l-23 -100h-331zM169 700h153l-92 -395q-42 -184 113 -184q150 0 192 184l92 395h153l-99 -427q-31 -134 -120 -209t-236 -74q-152 1 -216.5 85.5t-26.5 249.5z" />
    <glyph glyph-name="umacron" unicode="&#x16b;" horiz-adv-x="607" 
d="M550 670l-21 -91h-301l22 91h300zM462 500h142l-115 -500h-142l24 106q-68 -116 -192 -116q-82 0 -119 53t-13 157l69 300h145l-64 -274q-15 -62 -3 -90.5t54 -28.5q124 0 179 243l-3 -15z" />
    <glyph glyph-name="Ubreve" unicode="&#x16c;" horiz-adv-x="741" 
d="M684 923q-15 -66 -65.5 -107t-121.5 -41t-107.5 44t-23.5 104h99q-7 -59 47 -59q55 0 71 59h101zM169 700h153l-92 -395q-42 -184 113 -184q150 0 192 184l92 395h153l-99 -427q-31 -134 -120 -209t-236 -74q-152 1 -216.5 85.5t-26.5 249.5z" />
    <glyph glyph-name="ubreve" unicode="&#x16d;" horiz-adv-x="607" 
d="M378 555q-65 0 -98 40.5t-21 94.5h90q-7 -54 43 -54t64 54h92q-14 -60 -59.5 -97.5t-110.5 -37.5zM462 500h142l-115 -500h-142l24 106q-68 -116 -192 -116q-82 0 -119 53t-13 157l69 300h145l-64 -274q-15 -62 -3 -90.5t54 -28.5q124 0 179 243l-3 -15z" />
    <glyph glyph-name="Uring" unicode="&#x16e;" horiz-adv-x="741" 
d="M486 729q-51 0 -79 31.5t-28 76.5q0 56 42.5 95.5t100.5 39.5q50 0 78.5 -30.5t28.5 -74.5q0 -56 -42.5 -97t-100.5 -41zM496 812q18 0 32.5 14.5t14.5 32.5q0 13 -8.5 22t-22.5 9q-18 0 -32.5 -14.5t-14.5 -32.5q0 -13 8.5 -22t22.5 -9zM169 700h153l-92 -395
q-42 -184 113 -184q150 0 192 184l92 395h153l-99 -427q-31 -134 -120 -209t-236 -74q-152 1 -216.5 85.5t-26.5 249.5z" />
    <glyph glyph-name="uring" unicode="&#x16f;" horiz-adv-x="607" 
d="M379 540q-46 0 -71.5 28.5t-25.5 69.5q0 51 39 87t91 36q45 0 71 -28t26 -68q0 -51 -38.5 -88t-91.5 -37zM403 686q-16 0 -29.5 -13t-13.5 -29q0 -12 7.5 -20.5t20.5 -8.5q16 0 29.5 13.5t13.5 29.5q0 12 -7.5 20t-20.5 8zM462 500h142l-115 -500h-142l24 106
q-68 -116 -192 -116q-82 0 -119 53t-13 157l69 300h145l-64 -274q-15 -62 -3 -90.5t54 -28.5q124 0 179 243l-3 -15z" />
    <glyph glyph-name="Uhungarumlaut" unicode="&#x170;" horiz-adv-x="741" 
d="M436 938h146l-145 -155h-114zM640 938h145l-144 -155h-114zM169 700h153l-92 -395q-42 -184 113 -184q150 0 192 184l92 395h153l-99 -427q-31 -134 -120 -209t-236 -74q-152 1 -216.5 85.5t-26.5 249.5z" />
    <glyph glyph-name="uhungarumlaut" unicode="&#x171;" horiz-adv-x="607" 
d="M457 698l-131 -141h-104l103 141h132zM511 557h-104l103 141h132zM424 335l38 165h142l-115 -500h-142l24 106q-68 -116 -192 -116q-82 0 -119 53t-13 157l69 300h145l-64 -274q-15 -62 -3 -90.5t54 -28.5q124 0 179 243z" />
    <glyph glyph-name="Uogonek" unicode="&#x172;" horiz-adv-x="741" 
d="M627 700h153l-99 -427q-28 -119 -101.5 -192t-192.5 -88q-92 -51 -92 -104q0 -47 65 -47h24l-19 -79h-31q-67 0 -100.5 29.5t-33.5 76.5q0 44 24 70.5t69 51.5q-135 9 -191 93.5t-20 240.5l87 375h153l-92 -395q-42 -184 113 -184q150 0 192 184z" />
    <glyph glyph-name="uogonek" unicode="&#x173;" horiz-adv-x="607" 
d="M492 0q-95 -49 -95 -101q0 -43 59 -43h22l-17 -71h-29q-61 0 -91 26.5t-30 69.5q0 24 7.5 42.5t25 33.5t30 22.5t36.5 20.5h-63l24 106q-68 -116 -192 -116q-82 0 -119 53t-13 157l69 300h145l-64 -274q-15 -62 -3 -90.5t54 -28.5q124 0 179 243l-3 -15l38 165h142
l-115 -500h3z" />
    <glyph glyph-name="Wcircumflex" unicode="&#x174;" horiz-adv-x="1030" 
d="M651 843l-73 -72h-125l151 146h122l83 -146h-118zM954 700h164l-349 -700h-159l-24 532l-271 -532h-171l-24 700h154l-1 -520l263 520h166l22 -498z" />
    <glyph glyph-name="wcircumflex" unicode="&#x175;" horiz-adv-x="777" 
d="M482 629l-67 -65h-113l137 132h111l75 -132h-107zM683 500h141l-253 -500h-134l-22 366l-190 -366h-135l-23 500h127l7 -334l170 334h140l17 -323z" />
    <glyph glyph-name="Ycircumflex" unicode="&#x176;" horiz-adv-x="718" 
d="M502 843l-73 -72h-125l151 146h122l83 -146h-118zM623 700h185l-530 -700h-186l218 283l-195 417h176l124 -285z" />
    <glyph glyph-name="ycircumflex" unicode="&#x177;" horiz-adv-x="580" 
d="M382 629l-67 -65h-113l137 132h111l75 -132h-107zM484 500h157l-383 -596q-44 -68 -94.5 -96t-141.5 -28h-98l25 111h63q53 0 79 17.5t61 70.5l30 43l-129 478h145l82 -337z" />
    <glyph glyph-name="Ydieresis" unicode="&#x178;" horiz-adv-x="718" 
d="M467 907l-29 -131h-139l30 131h138zM702 907l-30 -131h-138l29 131h139zM623 700h185l-530 -700h-186l218 283l-195 417h176l124 -285z" />
    <glyph glyph-name="Zacute" unicode="&#x179;" horiz-adv-x="666" 
d="M674 930l-185 -155h-130l139 155h176zM707 700l-21 -91l-449 -478h352l-30 -131h-576l21 91l449 478h-321l31 131h544z" />
    <glyph glyph-name="zacute" unicode="&#x17a;" horiz-adv-x="501" 
d="M523 700l-168 -141h-118l126 141h160zM70 386l26 114h410l-20 -86l-294 -299h235l-27 -115h-430l18 79l307 307h-225z" />
    <glyph glyph-name="Zdotaccent" unicode="&#x17b;" horiz-adv-x="666" 
d="M566 915l-32 -136h-164l32 136h164zM707 700l-21 -91l-449 -478h352l-30 -131h-576l21 91l449 478h-321l31 131h544z" />
    <glyph glyph-name="zdotaccent" unicode="&#x17c;" horiz-adv-x="501" 
d="M421 694l-29 -124h-149l29 124h149zM506 500l-20 -86l-294 -299h235l-27 -115h-430l18 79l307 307h-225l26 114h410z" />
    <glyph glyph-name="Zcaron" unicode="&#x17d;" horiz-adv-x="666" 
d="M513 776h-122l-83 146h118l40 -73l74 73h125zM707 700l-21 -91l-449 -478h352l-30 -131h-576l21 91l449 478h-321l31 131h544z" />
    <glyph glyph-name="zcaron" unicode="&#x17e;" horiz-adv-x="501" 
d="M371 564h-111l-75 132h107l36 -66l68 66h113zM70 386l26 114h410l-20 -86l-294 -299h235l-27 -115h-430l18 79l307 307h-225z" />
    <glyph glyph-name="florin" unicode="&#x192;" horiz-adv-x="639" 
d="M598 700h112l-26 -113h-71q-60 0 -90 -26t-55 -84l-34 -77h154l-20 -89h-174l-72 -163q-30 -68 -94.5 -108t-143.5 -40h-110l26 113h72q60 0 89 26t56 87l37 85h-140l20 89h159l58 133q36 84 101 125.5t146 41.5z" />
    <glyph glyph-name="uni01CD" unicode="&#x1cd;" horiz-adv-x="711" 
d="M534 776h-122l-83 146h118l40 -73l74 73h125zM549 700l93 -700h-153l-16 153h-272l-88 -153h-160l416 700h180zM270 273h190l-30 278z" />
    <glyph glyph-name="uni01CE" unicode="&#x1ce;" horiz-adv-x="602" 
d="M410 564h-111l-75 132h107l36 -66l68 66h113zM461 500h138l-115 -500h-138l12 51q-24 -26 -64.5 -43.5t-88.5 -17.5q-82 0 -132 53t-50 151q0 133 85 224.5t194 91.5q50 0 88 -21t56 -56zM253 94q63 0 107.5 56.5t44.5 137.5q0 109 -85 109q-66 0 -108.5 -59.5
t-42.5 -136.5q0 -107 84 -107z" />
    <glyph glyph-name="uni01CF" unicode="&#x1cf;" horiz-adv-x="287" 
d="M349 922h125l-152 -146h-122l-83 146h118l40 -73zM162 0h-153l162 700h153z" />
    <glyph glyph-name="uni01D0" unicode="&#x1d0;" horiz-adv-x="266" 
d="M286 696h113l-138 -132h-111l-75 132h107l36 -66zM148 0h-144l115 500h144z" />
    <glyph glyph-name="uni01D1" unicode="&#x1d1;" horiz-adv-x="790" 
d="M584 922h125l-152 -146h-122l-83 146h118l40 -73zM358 -10q-145 0 -225 78t-80 222q0 182 118.5 301t304.5 119q145 0 225 -78t80 -222q0 -182 -118.5 -301t-304.5 -119zM369 119q105 0 176.5 84.5t71.5 203.5q0 82 -39 128t-112 46q-106 0 -177 -84.5t-71 -203.5
q0 -83 39 -128.5t112 -45.5z" />
    <glyph glyph-name="uni01D2" unicode="&#x1d2;" horiz-adv-x="581" 
d="M436 696h113l-138 -132h-111l-75 132h107l36 -66zM247 -10q-105 0 -163 56.5t-58 159.5q0 133 88.5 218.5t221.5 85.5q105 0 162 -57t57 -161q0 -133 -87.5 -217.5t-220.5 -84.5zM261 98q69 0 109 60.5t40 134.5q0 107 -88 107q-67 0 -108.5 -58.5t-41.5 -134.5
q0 -109 89 -109z" />
    <glyph glyph-name="uni01D3" unicode="&#x1d3;" horiz-adv-x="741" 
d="M575 922h125l-152 -146h-122l-83 146h118l40 -73zM169 700h153l-92 -395q-42 -184 113 -184q150 0 192 184l92 395h153l-99 -427q-31 -134 -120 -209t-236 -74q-152 1 -216.5 85.5t-26.5 249.5z" />
    <glyph glyph-name="uni01D4" unicode="&#x1d4;" horiz-adv-x="607" 
d="M430 564h-111l-75 132h107l36 -66l68 66h113zM462 500h142l-115 -500h-142l24 106q-68 -116 -192 -116q-82 0 -119 53t-13 157l69 300h145l-64 -274q-15 -62 -3 -90.5t54 -28.5q124 0 179 243l-3 -15z" />
    <glyph glyph-name="uni01E2" unicode="&#x1e2;" horiz-adv-x="899" 
d="M859 888l-23 -100h-331l24 100h330zM923 570h-357l21 -157h273l-27 -121h-230l22 -162h196l-30 -130h-302l-16 153h-272l-88 -153h-160l416 700h584zM270 273h190l-30 278z" />
    <glyph glyph-name="uni01E3" unicode="&#x1e3;" horiz-adv-x="913" 
d="M714 670l-21 -91h-301l22 91h300zM663 510q116 0 169 -72t35 -199q-4 -20 -4 -22h-355v-12q0 -109 98 -109q78 0 110 72h137q-70 -178 -254 -178q-145 0 -203 97q-37 -47 -102 -72t-134 -25q-155 0 -155 124q0 36 15 64.5t37.5 46t59.5 31.5t70.5 21t82.5 15q38 6 52 8.5
t34 9t28 16t12 24.5q6 26 -12 40t-54 14q-89 0 -116 -83h-136q21 83 82.5 135.5t173.5 52.5q108 0 158 -51q75 52 171 52zM526 302h212q11 105 -78 105q-92 0 -134 -105zM210 86q50 0 95 31t59 95l4 14v5q-21 -10 -95 -27q-61 -13 -90.5 -29t-29.5 -47q0 -42 57 -42z" />
    <glyph glyph-name="uni01EB" unicode="&#x1eb;" horiz-adv-x="581" 
d="M285 -8q-80 -44 -80 -93q0 -43 59 -43h22l-17 -71h-29q-61 0 -91 26.5t-30 69.5q0 41 22 65t63 47q-85 11 -131.5 66t-46.5 147q0 133 88.5 218.5t221.5 85.5q105 0 162 -57t57 -161q0 -122 -75.5 -204.5t-194.5 -95.5zM172 207q0 -109 89 -109q69 0 109 60.5t40 134.5
q0 107 -88 107q-67 0 -108.5 -58.5t-41.5 -134.5z" />
    <glyph glyph-name="AEacute" unicode="&#x1fc;" horiz-adv-x="899" 
d="M891 930l-185 -155h-130l139 155h176zM923 570h-357l21 -157h273l-27 -121h-230l22 -162h196l-30 -130h-302l-16 153h-272l-88 -153h-160l416 700h584zM270 273h190l-30 278z" />
    <glyph glyph-name="aeacute" unicode="&#x1fd;" horiz-adv-x="913" 
d="M746 700l-168 -141h-118l126 141h160zM663 510q116 0 169 -72t35 -199q-4 -20 -4 -22h-355v-12q0 -109 98 -109q78 0 110 72h137q-70 -178 -254 -178q-145 0 -203 97q-37 -47 -102 -72t-134 -25q-155 0 -155 124q0 36 15 64.5t37.5 46t59.5 31.5t70.5 21t82.5 15
q38 6 52 8.5t34 9t28 16t12 24.5q6 26 -12 40t-54 14q-89 0 -116 -83h-136q21 83 82.5 135.5t173.5 52.5q108 0 158 -51q75 52 171 52zM526 302h212q11 105 -78 105q-92 0 -134 -105zM210 86q50 0 95 31t59 95l4 14v5q-21 -10 -95 -27q-61 -13 -90.5 -29t-29.5 -47
q0 -42 57 -42z" />
    <glyph glyph-name="Oslashacute" unicode="&#x1fe;" horiz-adv-x="790" 
d="M718 930l-185 -155h-130l139 155h176zM821 655l-81 -73q41 -70 41 -172q0 -182 -118.5 -301t-304.5 -119q-126 0 -203 59l-75 -69l-68 65l81 74q-40 71 -40 171q0 182 118.5 301t304.5 119q126 0 202 -58l75 68zM218 293q0 -28 5 -56l342 312q-38 32 -99 32
q-106 0 -177 -84.5t-71 -203.5zM617 407q0 31 -6 57l-342 -312q39 -33 100 -33q105 0 176.5 84.5t71.5 203.5z" />
    <glyph glyph-name="oslashacute" unicode="&#x1ff;" horiz-adv-x="581" 
d="M563 700l-168 -141h-118l126 141h160zM596 470l-67 -58q26 -50 26 -120q0 -133 -87.5 -217.5t-220.5 -84.5q-97 0 -153 47l-66 -57l-43 45l69 60q-28 51 -28 121q0 133 88.5 218.5t221.5 85.5q95 0 150 -46l65 56zM172 207q0 -12 1 -18l212 186q-22 25 -63 25
q-67 0 -108.5 -58.5t-41.5 -134.5zM410 293q0 11 -1 16l-213 -184q22 -27 65 -27q69 0 109 60.5t40 134.5z" />
    <glyph glyph-name="Scommaaccent" unicode="&#x218;" horiz-adv-x="649" 
d="M655 446h-148q11 65 -22 99t-100 34q-62 0 -104.5 -27t-42.5 -72q0 -20 8.5 -34.5t29.5 -25.5t37 -17t51 -16q37 -10 59.5 -17t53.5 -22.5t48 -34t30 -48t13 -67.5q0 -100 -75.5 -154t-192.5 -54q-131 0 -199.5 66t-51.5 167h150q-8 -53 18.5 -80.5t82.5 -27.5
q49 0 79.5 21.5t30.5 58.5q0 34 -27 49t-103 36q-101 25 -149 68t-48 121q0 111 87 176t214 65q130 0 212 -69.5t59 -194.5zM155 -200l31 134h145l-19 -83q-22 -95 -67.5 -134t-136.5 -44l14 57q80 2 95 70h-62z" />
    <glyph glyph-name="scommaaccent" unicode="&#x219;" horiz-adv-x="520" 
d="M503 324h-129q4 38 -22.5 59t-71.5 21q-39 0 -64.5 -15t-25.5 -41q0 -22 20.5 -32.5t73.5 -23.5q76 -20 117.5 -51t41.5 -94q0 -75 -60.5 -116t-152.5 -41q-104 0 -159.5 49.5t-44.5 123.5h133q-10 -74 71 -74q73 0 73 51q0 24 -18.5 34.5t-67.5 24.5q-7 2 -11 3
q-77 20 -117 51.5t-40 89.5q0 76 65.5 121.5t169.5 45.5q112 0 169.5 -51.5t49.5 -134.5zM106 -182l29 122h132l-18 -76q-20 -86 -61.5 -121.5t-123.5 -39.5l12 52q72 1 87 63h-57z" />
    <glyph glyph-name="uni021A" unicode="&#x21a;" horiz-adv-x="646" 
d="M723 700l-30 -131h-220l-132 -569h-153l132 569h-220l30 131h593zM149 -200l31 134h145l-19 -83q-22 -95 -67.5 -134t-136.5 -44l14 57q80 2 95 70h-62z" />
    <glyph glyph-name="uni021B" unicode="&#x21b;" horiz-adv-x="408" 
d="M280 400l-44 -193q-11 -48 6 -71.5t67 -23.5h48l-26 -112h-68q-102 0 -147.5 55t-24.5 148l45 197h-92l23 100h92l26 112l150 26l-32 -138h131l-23 -100h-131zM85 -182l29 122h132l-18 -76q-20 -86 -61.5 -121.5t-123.5 -39.5l12 52q72 1 87 63h-57z" />
    <glyph glyph-name="uni0226" unicode="&#x226;" horiz-adv-x="711" 
d="M587 915l-32 -136h-164l32 136h164zM489 0l-16 153h-272l-88 -153h-160l416 700h180l93 -700h-153zM270 273h190l-30 278z" />
    <glyph glyph-name="uni0227" unicode="&#x227;" horiz-adv-x="602" 
d="M460 694l-29 -124h-149l29 124h149zM461 500h138l-115 -500h-138l12 51q-24 -26 -64.5 -43.5t-88.5 -17.5q-82 0 -132 53t-50 151q0 133 85 224.5t194 91.5q50 0 88 -21t56 -56zM253 94q63 0 107.5 56.5t44.5 137.5q0 109 -85 109q-66 0 -108.5 -59.5t-42.5 -136.5
q0 -107 84 -107z" />
    <glyph glyph-name="uni0232" unicode="&#x232;" horiz-adv-x="718" 
d="M673 888l-23 -100h-331l24 100h330zM623 700h185l-530 -700h-186l218 283l-195 417h176l124 -285z" />
    <glyph glyph-name="uni0233" unicode="&#x233;" horiz-adv-x="580" 
d="M536 670l-21 -91h-301l22 91h300zM484 500h157l-383 -596q-44 -68 -94.5 -96t-141.5 -28h-98l25 111h63q53 0 79 17.5t61 70.5l30 43l-129 478h145l82 -337z" />
    <glyph glyph-name="uni0237" unicode="&#x237;" horiz-adv-x="266" 
d="M263 500l-105 -457l-21 -94q-40 -169 -226 -169h-128l26 113h72q99 0 120 94l16 70l102 443h144z" />
    <glyph glyph-name="circumflex" unicode="&#x2c6;" horiz-adv-x="438" 
d="M452 564h-107l-36 65l-67 -65h-113l137 132h111z" />
    <glyph glyph-name="caron" unicode="&#x2c7;" horiz-adv-x="438" 
d="M371 696h113l-138 -132h-111l-75 132h107l36 -66z" />
    <glyph glyph-name="breve" unicode="&#x2d8;" horiz-adv-x="438" 
d="M464 690q-14 -60 -59.5 -97.5t-110.5 -37.5t-98 40.5t-21 94.5h90q-7 -54 43 -54t64 54h92z" />
    <glyph glyph-name="dotaccent" unicode="&#x2d9;" horiz-adv-x="438" 
d="M218 570l29 124h149l-29 -124h-149z" />
    <glyph glyph-name="ring" unicode="&#x2da;" horiz-adv-x="438" 
d="M295 540q-46 0 -71.5 28.5t-25.5 69.5q0 51 39 87t91 36q45 0 71 -28t26 -68q0 -51 -38.5 -88t-91.5 -37zM304 615q16 0 29.5 13.5t13.5 29.5q0 12 -7.5 20t-20.5 8q-16 0 -29.5 -13t-13.5 -29q0 -12 7.5 -20.5t20.5 -8.5z" />
    <glyph glyph-name="ogonek" unicode="&#x2db;" horiz-adv-x="438" 
d="M149 0h82q-95 -49 -95 -101q0 -43 59 -43h22l-17 -71h-29q-61 0 -91 26.5t-30 69.5q0 24 7.5 42.5t25 33.5t30 22.5t36.5 20.5z" />
    <glyph glyph-name="tilde" unicode="&#x2dc;" horiz-adv-x="438" 
d="M109 559q40 133 144 133q41 0 70.5 -22t47.5 -22q35 0 53 39h78q-41 -133 -144 -133q-41 0 -72 22t-49 22q-33 0 -52 -39h-76z" />
    <glyph glyph-name="hungarumlaut" unicode="&#x2dd;" horiz-adv-x="438" 
d="M218 698h132l-131 -141h-104zM403 698h132l-131 -141h-104z" />
    <glyph glyph-name="uni0394" unicode="&#x394;" horiz-adv-x="758" 
d="M554 700l141 -598l-23 -102h-701l23 102l418 598h142zM172 127h372l-87 429z" />
    <glyph glyph-name="uni03A9" unicode="&#x3a9;" horiz-adv-x="834" 
d="M817 422q0 -93 -45 -166t-123 -121h105l-32 -135h-324l23 102q63 15 111 50.5t74 80t39 88.5t13 84q0 73 -42 124.5t-128 51.5q-112 0 -189 -86t-77 -200q0 -68 30 -123t92 -70l-23 -102h-325l31 135h128q-83 69 -83 191q0 157 118.5 270.5t303.5 113.5q153 0 238 -79.5
t85 -208.5z" />
    <glyph glyph-name="uni03BC" unicode="&#x3bc;" horiz-adv-x="610" 
d="M465 500h142l-115 -500h-142l24 106q-68 -116 -192 -116q-28 0 -50 6l-50 -216h-129l108 468l58 252h145l-64 -274q-15 -62 -3 -90.5t54 -28.5q124 0 179 243l-3 -15z" />
    <glyph glyph-name="pi" unicode="&#x3c0;" horiz-adv-x="704" 
d="M588 388l-41 -181q-12 -48 5 -71.5t67 -23.5h38l-26 -112h-57q-102 0 -147.5 55t-24.5 148l42 185h-127l-89 -388h-143l89 388h-120l26 112h640l-26 -112h-106z" />
    <glyph glyph-name="Wgrave" unicode="&#x1e80;" horiz-adv-x="1030" 
d="M725 775h-118l-126 155h162zM954 700h164l-349 -700h-159l-24 532l-271 -532h-171l-24 700h154l-1 -520l263 520h166l22 -498z" />
    <glyph glyph-name="wgrave" unicode="&#x1e81;" horiz-adv-x="777" 
d="M535 559h-107l-114 141h147zM683 500h141l-253 -500h-134l-22 366l-190 -366h-135l-23 500h127l7 -334l170 334h140l17 -323z" />
    <glyph glyph-name="Wacute" unicode="&#x1e82;" horiz-adv-x="1030" 
d="M854 930l-185 -155h-130l139 155h176zM954 700h164l-349 -700h-159l-24 532l-271 -532h-171l-24 700h154l-1 -520l263 520h166l22 -498z" />
    <glyph glyph-name="wacute" unicode="&#x1e83;" horiz-adv-x="777" 
d="M668 700l-168 -141h-118l126 141h160zM683 500h141l-253 -500h-134l-22 366l-190 -366h-135l-23 500h127l7 -334l170 334h140l17 -323z" />
    <glyph glyph-name="Wdieresis" unicode="&#x1e84;" horiz-adv-x="1030" 
d="M616 907l-29 -131h-139l30 131h138zM851 907l-30 -131h-138l29 131h139zM954 700h164l-349 -700h-159l-24 532l-271 -532h-171l-24 700h154l-1 -520l263 520h166l22 -498z" />
    <glyph glyph-name="wdieresis" unicode="&#x1e85;" horiz-adv-x="777" 
d="M448 691l-27 -118h-125l27 118h125zM661 691l-27 -118h-125l27 118h125zM683 500h141l-253 -500h-134l-22 366l-190 -366h-135l-23 500h127l7 -334l170 334h140l17 -323z" />
    <glyph glyph-name="uni1EA0" unicode="&#x1ea0;" horiz-adv-x="711" 
d="M642 0h-153l-16 153h-272l-88 -153h-160l416 700h180zM270 273h190l-30 278zM166 -215l32 136h164l-32 -136h-164z" />
    <glyph glyph-name="uni1EA1" unicode="&#x1ea1;" horiz-adv-x="602" 
d="M461 500h138l-115 -500h-138l12 51q-24 -26 -64.5 -43.5t-88.5 -17.5q-82 0 -132 53t-50 151q0 133 85 224.5t194 91.5q50 0 88 -21t56 -56zM253 94q63 0 107.5 56.5t44.5 137.5q0 109 -85 109q-66 0 -108.5 -59.5t-42.5 -136.5q0 -107 84 -107zM118 -209l29 124h149
l-29 -124h-149z" />
    <glyph glyph-name="uni1EB8" unicode="&#x1eb8;" horiz-adv-x="604" 
d="M627 569h-335l-36 -156h309l-28 -121h-309l-38 -161h336l-30 -131h-487l162 700h487zM120 -215l32 136h164l-32 -136h-164z" />
    <glyph glyph-name="uni1EB9" unicode="&#x1eb9;" horiz-adv-x="572" 
d="M322 510q116 0 169 -72t35 -199q-4 -20 -4 -22h-355v-12q0 -109 98 -109q78 0 110 72h137q-70 -178 -254 -178q-116 0 -174 59.5t-58 157.5q0 122 80.5 212.5t215.5 90.5zM185 302h212q11 105 -78 105q-92 0 -134 -105zM115 -209l29 124h149l-29 -124h-149z" />
    <glyph glyph-name="uni1ECA" unicode="&#x1eca;" horiz-adv-x="287" 
d="M162 0h-153l162 700h153zM-47 -215l32 136h164l-32 -136h-164z" />
    <glyph glyph-name="uni1ECC" unicode="&#x1ecc;" horiz-adv-x="790" 
d="M358 -10q-145 0 -225 78t-80 222q0 182 118.5 301t304.5 119q145 0 225 -78t80 -222q0 -182 -118.5 -301t-304.5 -119zM369 119q105 0 176.5 84.5t71.5 203.5q0 82 -39 128t-112 46q-106 0 -177 -84.5t-71 -203.5q0 -83 39 -128.5t112 -45.5zM204 -215l32 136h164
l-32 -136h-164z" />
    <glyph glyph-name="uni1ECD" unicode="&#x1ecd;" horiz-adv-x="581" 
d="M247 -10q-105 0 -163 56.5t-58 159.5q0 133 88.5 218.5t221.5 85.5q105 0 162 -57t57 -161q0 -133 -87.5 -217.5t-220.5 -84.5zM261 98q69 0 109 60.5t40 134.5q0 107 -88 107q-67 0 -108.5 -58.5t-41.5 -134.5q0 -109 89 -109zM110 -209l29 124h149l-29 -124h-149z" />
    <glyph glyph-name="uni1EE4" unicode="&#x1ee4;" horiz-adv-x="741" 
d="M169 700h153l-92 -395q-42 -184 113 -184q150 0 192 184l92 395h153l-99 -427q-31 -134 -120 -209t-236 -74q-152 1 -216.5 85.5t-26.5 249.5zM180 -215l32 136h164l-32 -136h-164z" />
    <glyph glyph-name="uni1EE5" unicode="&#x1ee5;" horiz-adv-x="607" 
d="M462 500h142l-115 -500h-142l24 106q-68 -116 -192 -116q-82 0 -119 53t-13 157l69 300h145l-64 -274q-15 -62 -3 -90.5t54 -28.5q124 0 179 243l-3 -15zM142 -209l29 124h149l-29 -124h-149z" />
    <glyph glyph-name="Ygrave" unicode="&#x1ef2;" horiz-adv-x="718" 
d="M576 775h-118l-126 155h162zM623 700h185l-530 -700h-186l218 283l-195 417h176l124 -285z" />
    <glyph glyph-name="ygrave" unicode="&#x1ef3;" horiz-adv-x="580" 
d="M435 559h-107l-114 141h147zM484 500h157l-383 -596q-44 -68 -94.5 -96t-141.5 -28h-98l25 111h63q53 0 79 17.5t61 70.5l30 43l-129 478h145l82 -337z" />
    <glyph glyph-name="uni200B" unicode="&#x200b;" horiz-adv-x="0" 
 />
    <glyph glyph-name="endash" unicode="&#x2013;" horiz-adv-x="738" 
d="M63 351h659l-26 -112h-659z" />
    <glyph glyph-name="emdash" unicode="&#x2014;" horiz-adv-x="1133" 
d="M63 351h1054l-26 -112h-1054z" />
    <glyph glyph-name="quoteleft" unicode="&#x2018;" horiz-adv-x="257" 
d="M318 646q-86 -2 -104 -77h68l-34 -149h-158l21 93q24 104 73 147.5t148 48.5z" />
    <glyph glyph-name="quoteright" unicode="&#x2019;" horiz-adv-x="256" 
d="M155 700h158l-21 -92q-24 -105 -73.5 -148t-148.5 -48l15 63q86 2 104 77h-68z" />
    <glyph glyph-name="quotesinglbase" unicode="&#x201a;" horiz-adv-x="259" 
d="M27 148h158l-21 -92q-24 -105 -73.5 -148t-148.5 -48l15 63q86 2 104 77h-68z" />
    <glyph glyph-name="quotedblleft" unicode="&#x201c;" horiz-adv-x="464" 
d="M318 646q-86 -2 -104 -77h68l-34 -149h-158l21 93q24 104 73 147.5t148 48.5zM525 646q-86 -2 -104 -77h68l-34 -149h-158l21 93q24 104 73 147.5t148 48.5z" />
    <glyph glyph-name="quotedblright" unicode="&#x201d;" horiz-adv-x="463" 
d="M313 700l-21 -92q-24 -105 -73.5 -148t-148.5 -48l15 63q86 2 104 77h-68l34 148h158zM362 700h158l-21 -92q-24 -105 -73.5 -148t-148.5 -48l15 63q86 2 104 77h-68z" />
    <glyph glyph-name="quotedblbase" unicode="&#x201e;" horiz-adv-x="466" 
d="M185 148l-21 -92q-24 -105 -73.5 -148t-148.5 -48l15 63q86 2 104 77h-68l34 148h158zM234 148h158l-21 -92q-24 -105 -73.5 -148t-148.5 -48l15 63q86 2 104 77h-68z" />
    <glyph glyph-name="dagger" unicode="&#x2020;" horiz-adv-x="474" 
d="M510 532l-25 -112h-148l-97 -420h-123l97 420h-147l26 112h147l39 168h123l-39 -168h147z" />
    <glyph glyph-name="daggerdbl" unicode="&#x2021;" horiz-adv-x="477" 
d="M485 420h-148l-32 -140h151l-26 -112h-151l-39 -168h-123l39 168h-143l26 112h143l32 140h-147l26 112h147l39 168h123l-39 -168h147z" />
    <glyph glyph-name="bullet" unicode="&#x2022;" horiz-adv-x="236" 
d="M39 245l34 148h157l-34 -148h-157z" />
    <glyph glyph-name="ellipsis" unicode="&#x2026;" horiz-adv-x="788" 
d="M-8 0l34 148h157l-34 -148h-157zM257 0l34 148h157l-34 -148h-157zM523 0l34 148h157l-34 -148h-157z" />
    <glyph glyph-name="perthousand" unicode="&#x2030;" horiz-adv-x="1167" 
d="M248 395q-60 0 -98.5 38.5t-38.5 96.5q0 74 58.5 127t132.5 53q61 0 99 -38t38 -97q0 -74 -58.5 -127t-132.5 -53zM52 0l636 700h129l-636 -700h-129zM262 492q29 0 50 22t21 52q0 20 -11.5 33.5t-33.5 13.5q-28 0 -49.5 -22t-21.5 -52q0 -20 12 -33.5t33 -13.5zM559 -10
q-60 0 -98.5 38.5t-38.5 96.5q0 74 58.5 127t132.5 53q61 0 99 -38t38 -97q0 -74 -58.5 -127t-132.5 -53zM921 -10q-60 0 -98.5 38.5t-38.5 96.5q0 74 58.5 127t132.5 53q61 0 99 -38t38 -97q0 -74 -58.5 -127t-132.5 -53zM573 87q29 0 50 22t21 52q0 21 -11.5 34t-33.5 13
q-28 0 -49.5 -22t-21.5 -52q0 -20 12 -33.5t33 -13.5zM935 87q29 0 50 22t21 52q0 21 -11.5 34t-33.5 13q-28 0 -49.5 -22t-21.5 -52q0 -20 12 -33.5t33 -13.5z" />
    <glyph glyph-name="guilsinglleft" unicode="&#x2039;" horiz-adv-x="391" 
d="M407 490l-214 -207l107 -183h-149l-107 200l197 190h166z" />
    <glyph glyph-name="guilsinglright" unicode="&#x203a;" horiz-adv-x="391" 
d="M257 490l107 -200l-197 -190h-166l214 207l-107 183h149z" />
    <glyph glyph-name="uni2042" unicode="&#x2042;" horiz-adv-x="869" 
d="M556 387l-61 99l-62 -99l-65 47l75 89l-113 27l25 79l108 -45l-9 116h81l-9 -116l109 45l25 -79l-114 -27l75 -89zM403 249l25 -79l-114 -27l75 -89l-65 -47l-61 99l-62 -99l-65 47l75 89l-113 27l25 79l108 -45l-9 116h81l-9 -116zM804 170l-114 -27l75 -89l-65 -47
l-61 99l-62 -99l-65 47l75 89l-113 27l25 79l108 -45l-9 116h81l-9 -116l109 45z" />
    <glyph glyph-name="fraction" unicode="&#x2044;" horiz-adv-x="199" 
d="M-308 0l748 700h106l-748 -700h-106z" />
    <glyph glyph-name="uni2051" unicode="&#x2051;" horiz-adv-x="397" 
d="M433 550l-114 -27l75 -89l-65 -47l-61 99l-62 -99l-65 47l75 89l-113 27l25 79l108 -45l-9 116h81l-9 -116l109 45zM320 249l25 -79l-114 -27l75 -89l-65 -47l-61 99l-62 -99l-65 47l75 89l-113 27l25 79l108 -45l-9 116h81l-9 -116z" />
    <glyph glyph-name="uni2070" unicode="&#x2070;" horiz-adv-x="379" 
d="M239 402q-70 0 -103 42t-33 104q0 37 12 75.5t35 73t61.5 56.5t86.5 22q69 0 101.5 -41.5t32.5 -103.5q0 -52 -19.5 -102t-65 -88t-108.5 -38zM244 476q49 0 74.5 49.5t25.5 104.5q0 71 -52 71q-48 0 -73.5 -47t-25.5 -106q0 -72 51 -72z" />
    <glyph glyph-name="uni2074" unicode="&#x2074;" horiz-adv-x="350" 
d="M398 546l-15 -66h-57l-16 -70h-78l16 70h-174l10 49l212 241h97l-52 -224h57zM179 546h84l31 134z" />
    <glyph glyph-name="uni2075" unicode="&#x2075;" horiz-adv-x="350" 
d="M281 648q50 0 77.5 -29.5t27.5 -78.5q0 -62 -44 -101t-116 -39q-71 0 -104.5 38t-25.5 90h79q-2 -27 10.5 -44t44.5 -17q35 0 57 21t22 51q0 49 -56 49q-43 0 -71 -28l-58 25l71 185h222l-16 -71h-152l-28 -66q27 15 60 15z" />
    <glyph glyph-name="uni2076" unicode="&#x2076;" horiz-adv-x="349" 
d="M275 646q48 0 80 -30t32 -80q0 -60 -45 -98t-107 -38q-134 0 -134 143q0 106 54 169t138 63q62 0 97 -34t29 -81h-73q2 22 -11 36t-41 14q-42 0 -70.5 -29.5t-41.5 -75.5q41 41 93 41zM229 465q29 0 53.5 19t24.5 52q0 25 -14 37.5t-35 12.5q-29 0 -53.5 -20t-24.5 -53
q0 -24 14 -36t35 -12z" />
    <glyph glyph-name="uni2077" unicode="&#x2077;" horiz-adv-x="320" 
d="M146 770h275l-11 -49l-232 -311h-97l215 288h-166z" />
    <glyph glyph-name="uni2078" unicode="&#x2078;" horiz-adv-x="361" 
d="M339 573q39 -19 39 -67q0 -49 -44 -77.5t-107 -28.5q-56 0 -91.5 24t-35.5 66q0 56 70 88q-50 23 -50 74q0 55 46 89t123 34q67 0 105.5 -26t38.5 -71q0 -71 -94 -105zM287 710q-37 0 -61 -16.5t-24 -42.5q0 -9 4 -17t9.5 -12.5t14 -8.5t14 -5.5t12.5 -3.5l6 -1
q87 15 87 63q0 21 -16.5 32.5t-45.5 11.5zM182 498q0 -35 48 -35q30 0 49 14t19 37q0 30 -47 42q-26 -4 -47.5 -18.5t-21.5 -39.5z" />
    <glyph glyph-name="uni2079" unicode="&#x2079;" horiz-adv-x="357" 
d="M237 529q-48 0 -80 30t-32 80q0 60 45 98t107 38q134 0 134 -143q0 -106 -54 -169t-138 -63q-62 0 -97 34t-29 81h73q-2 -22 11 -36t41 -14q42 0 70.5 29.5t41.5 75.5q-41 -41 -93 -41zM283 710q-29 0 -53.5 -19t-24.5 -52q0 -25 14 -37.5t35 -12.5q29 0 53.5 20.5
t24.5 52.5q0 24 -14 36t-35 12z" />
    <glyph glyph-name="uni2080" unicode="&#x2080;" horiz-adv-x="379" 
d="M128 -78q-70 0 -103 42t-33 104q0 37 12 75.5t35 73t61.5 56.5t86.5 22q69 0 101.5 -41.5t32.5 -103.5q0 -52 -19.5 -102t-65 -88t-108.5 -38zM133 -4q49 0 74.5 49.5t25.5 104.5q0 71 -52 71q-48 0 -73.5 -47t-25.5 -106q0 -72 51 -72z" />
    <glyph glyph-name="uni2081" unicode="&#x2081;" horiz-adv-x="305" 
d="M253 290l-83 -360h-85l51 219q-53 -27 -128 -28l17 72q56 0 103 23.5t59 73.5h66z" />
    <glyph glyph-name="uni2082" unicode="&#x2082;" horiz-adv-x="371" 
d="M254 -70h-277l11 51l96 60q76 48 107 78t31 67q0 39 -35 39q-55 0 -74 -87h-82q14 72 55 114.5t106 42.5q53 0 84.5 -28t31.5 -76q0 -47 -30.5 -84t-95.5 -81l-44 -29h132z" />
    <glyph glyph-name="uni2083" unicode="&#x2083;" horiz-adv-x="359" 
d="M224 96q38 -16 38 -67q0 -44 -36.5 -76.5t-105.5 -32.5q-72 0 -103.5 35.5t-21.5 87.5h84q-9 -54 43 -54q27 0 44 15t17 34q0 35 -54 35h-21l13 54h33q33 0 52.5 16t19.5 41q0 40 -50 40q-66 0 -86 -68h-82q41 136 172 136q62 0 96.5 -26.5t34.5 -72.5q0 -72 -87 -97z
" />
    <glyph glyph-name="uni2084" unicode="&#x2084;" horiz-adv-x="350" 
d="M287 66l-15 -66h-57l-16 -70h-78l16 70h-174l10 49l212 241h97l-52 -224h57zM68 66h84l31 134z" />
    <glyph glyph-name="uni2085" unicode="&#x2085;" horiz-adv-x="350" 
d="M170 168q50 0 77.5 -29.5t27.5 -78.5q0 -62 -44 -101t-116 -39q-71 0 -104.5 38t-25.5 90h79q-2 -27 10.5 -44t44.5 -17q35 0 57 21t22 51q0 49 -56 49q-43 0 -71 -28l-58 25l71 185h222l-16 -71h-152l-28 -66q27 15 60 15z" />
    <glyph glyph-name="uni2086" unicode="&#x2086;" horiz-adv-x="349" 
d="M164 166q48 0 80 -30t32 -80q0 -60 -45 -98t-107 -38q-134 0 -134 143q0 106 54 169t138 63q62 0 97 -34t29 -81h-73q2 22 -11 36t-41 14q-42 0 -70.5 -29.5t-41.5 -75.5q41 41 93 41zM118 -15q29 0 53.5 19t24.5 52q0 25 -14 37.5t-35 12.5q-29 0 -53.5 -20t-24.5 -53
q0 -24 14 -36t35 -12z" />
    <glyph glyph-name="uni2087" unicode="&#x2087;" horiz-adv-x="320" 
d="M35 290h275l-11 -49l-232 -311h-97l215 288h-166z" />
    <glyph glyph-name="uni2088" unicode="&#x2088;" horiz-adv-x="361" 
d="M228 93q39 -19 39 -67q0 -49 -44 -77.5t-107 -28.5q-56 0 -91.5 24t-35.5 66q0 56 70 88q-50 23 -50 74q0 55 46 89t123 34q67 0 105.5 -26t38.5 -71q0 -71 -94 -105zM176 230q-37 0 -61 -16.5t-24 -42.5q0 -9 4 -17t9.5 -12.5t14 -8.5t14 -5.5t11.5 -3.5l7 -1
q87 15 87 63q0 21 -16.5 32.5t-45.5 11.5zM71 18q0 -35 48 -35q30 0 49 14.5t19 36.5q0 30 -47 42q-26 -4 -47.5 -18.5t-21.5 -39.5z" />
    <glyph glyph-name="uni2089" unicode="&#x2089;" horiz-adv-x="357" 
d="M126 49q-48 0 -80 30t-32 80q0 60 45 98t107 38q134 0 134 -143q0 -106 -54 -169t-138 -63q-62 0 -97 34t-29 81h73q-2 -22 11 -36t41 -14q42 0 70.5 29.5t41.5 75.5q-41 -41 -93 -41zM172 230q-29 0 -53.5 -19t-24.5 -52q0 -25 14 -37.5t35 -12.5q29 0 53.5 20.5
t24.5 52.5q0 24 -14 36t-35 12z" />
    <glyph glyph-name="Euro" unicode="&#x20ac;" horiz-adv-x="776" 
d="M775 452h-133q7 61 -21 100t-94 39q-59 0 -109 -32.5t-83 -88.5h235l-45 -90h-227q-10 -38 -11 -75h206l-45 -89h-156q25 -108 133 -108q116 0 171 131h135q-21 -87 -74 -145t-114.5 -81t-131.5 -23q-113 0 -182 61t-86 165h-117l21 89h92q1 31 10 75h-85l21 90h94
q49 107 142.5 173.5t214.5 66.5q123 0 187.5 -70t51.5 -188z" />
    <glyph glyph-name="uni2113" unicode="&#x2113;" horiz-adv-x="433" 
d="M443 491q0 -193 -249 -312q-9 -47 10.5 -64.5t75.5 -17.5h42l-22 -97h-55q-81 0 -123.5 34t-38.5 100q-32 -11 -100 -29l22 94q38 12 98 34l51 221q19 86 58 130.5t107 44.5q59 0 91.5 -34.5t32.5 -103.5zM256 449l-36 -155q116 78 116 192q0 24 -5.5 34t-20.5 10
q-36 0 -54 -81z" />
    <glyph glyph-name="uni2117" unicode="&#x2117;" 
d="M422 710q152 0 255 -103.5t103 -256.5t-103 -256.5t-255 -103.5t-255 103.5t-103 256.5t103 256.5t255 103.5zM422 62q119 0 199.5 83.5t80.5 204.5t-80.5 204.5t-199.5 83.5t-199 -83.5t-80 -204.5t80 -204.5t199 -83.5zM442 544q80 0 118 -38.5t38 -98.5
q0 -62 -37 -100t-119 -37h-54v-116h-87v390h87h54zM446 342q32 0 48 18.5t16 46.5q0 27 -16 46t-48 19h-58v-130h58z" />
    <glyph glyph-name="trademark" unicode="&#x2122;" horiz-adv-x="906" 
d="M441 616h-117l-70 -300h-97l70 300h-119l20 84h333zM961 700l-89 -384h-90l61 264l-147 -264h-93l-24 261l-61 -261h-90l89 384h134l20 -267l145 267h145z" />
    <glyph glyph-name="uni2153" unicode="&#x2153;" horiz-adv-x="854" 
d="M13 0l748 700h106l-748 -700h-106zM348 700l-83 -360h-85l51 219q-53 -27 -128 -28l17 72q56 0 103 23.5t59 73.5h66zM735 166q38 -16 38 -67q0 -44 -36.5 -76.5t-105.5 -32.5q-72 0 -103.5 35.5t-21.5 87.5h84q-9 -54 43 -54q27 0 44 15t17 34q0 35 -54 35h-21l13 54h33
q33 0 52.5 16t19.5 41q0 40 -50 40q-66 0 -86 -68h-82q41 136 172 136q62 0 96.5 -26.5t34.5 -72.5q0 -72 -87 -97z" />
    <glyph glyph-name="uni2154" unicode="&#x2154;" horiz-adv-x="916" 
d="M349 340h-277l11 51l96 60q76 48 107 78t31 67q0 39 -35 39q-55 0 -74 -87h-82q14 72 55 114.5t106 42.5q53 0 84.5 -28t31.5 -76q0 -47 -30.5 -84t-95.5 -81l-44 -29h132zM75 0l748 700h106l-748 -700h-106zM797 166q38 -16 38 -67q0 -44 -36.5 -76.5t-105.5 -32.5
q-72 0 -103.5 35.5t-21.5 87.5h84q-9 -54 43 -54q27 0 44 15t17 34q0 35 -54 35h-21l13 54h33q33 0 52.5 16t19.5 41q0 40 -50 40q-66 0 -86 -68h-82q41 136 172 136q62 0 96.5 -26.5t34.5 -72.5q0 -72 -87 -97z" />
    <glyph glyph-name="oneeighth" unicode="&#x215b;" horiz-adv-x="867" 
d="M13 0l748 700h106l-748 -700h-106zM348 700l-83 -360h-85l51 219q-53 -27 -128 -28l17 72q56 0 103 23.5t59 73.5h66zM750 163q39 -19 39 -67q0 -49 -44 -77.5t-107 -28.5q-56 0 -91.5 24t-35.5 66q0 56 70 88q-50 23 -50 74q0 55 46 89t123 34q67 0 105.5 -26t38.5 -71
q0 -71 -94 -105zM698 300q-37 0 -61 -16.5t-24 -42.5q0 -9 4 -17t9.5 -12.5t14 -8.5t14 -5.5t11.5 -3.5l7 -1q87 15 87 63q0 21 -16.5 32.5t-45.5 11.5zM593 88q0 -35 48 -35q30 0 49 14.5t19 36.5q0 30 -47 42q-26 -4 -47.5 -18.5t-21.5 -39.5z" />
    <glyph glyph-name="threeeighths" unicode="&#x215c;" horiz-adv-x="890" 
d="M319 506q38 -16 38 -67q0 -44 -36.5 -76.5t-105.5 -32.5q-72 0 -103.5 35.5t-21.5 87.5h84q-9 -54 43 -54q27 0 44 15t17 34q0 35 -54 35h-21l13 54h33q33 0 52.5 16t19.5 41q0 40 -50 40q-66 0 -86 -68h-82q41 136 172 136q62 0 96.5 -26.5t34.5 -72.5q0 -72 -87 -97z
M36 0l748 700h106l-748 -700h-106zM773 163q39 -19 39 -67q0 -49 -44 -77.5t-107 -28.5q-56 0 -91.5 24t-35.5 66q0 56 70 88q-50 23 -50 74q0 55 46 89t123 34q67 0 105.5 -26t38.5 -71q0 -71 -94 -105zM721 300q-37 0 -61 -16.5t-24 -42.5q0 -9 4 -17t9.5 -12.5t14 -8.5
t14 -5.5t12.5 -3.5l6 -1q87 15 87 63q0 21 -16.5 32.5t-45.5 11.5zM616 88q0 -35 48 -35q30 0 49 14.5t19 36.5q0 30 -47 42q-26 -4 -47.5 -18.5t-21.5 -39.5z" />
    <glyph glyph-name="fiveeighths" unicode="&#x215d;" horiz-adv-x="878" 
d="M24 0l748 700h106l-748 -700h-106zM265 578q50 0 77.5 -29.5t27.5 -78.5q0 -62 -44 -101t-116 -39q-71 0 -104.5 38t-25.5 90h79q-2 -27 10.5 -44t44.5 -17q35 0 57 21t22 51q0 49 -56 49q-43 0 -71 -28l-58 25l71 185h222l-16 -71h-152l-28 -66q27 15 60 15zM761 163
q39 -19 39 -67q0 -49 -44 -77.5t-107 -28.5q-56 0 -91.5 24t-35.5 66q0 56 70 88q-50 23 -50 74q0 55 46 89t123 34q67 0 105.5 -26t38.5 -71q0 -71 -94 -105zM709 300q-37 0 -61 -16.5t-24 -42.5q0 -9 4 -17t9.5 -12.5t14 -8.5t14 -5.5t12.5 -3.5l6 -1q87 15 87 63
q0 21 -16.5 32.5t-45.5 11.5zM604 88q0 -35 48 -35q30 0 49 14.5t19 36.5q0 30 -47 42q-26 -4 -47.5 -18.5t-21.5 -39.5z" />
    <glyph glyph-name="seveneighths" unicode="&#x215e;" horiz-adv-x="787" 
d="M-67 0l748 700h106l-748 -700h-106zM130 700h275l-11 -49l-232 -311h-97l215 288h-166zM670 163q39 -19 39 -67q0 -49 -44 -77.5t-107 -28.5q-56 0 -91.5 24t-35.5 66q0 56 70 88q-50 23 -50 74q0 55 46 89t123 34q67 0 105.5 -26t38.5 -71q0 -71 -94 -105zM618 300
q-37 0 -61 -16.5t-24 -42.5q0 -9 4 -17t9.5 -12.5t14 -8.5t14 -5.5t11.5 -3.5l7 -1q87 15 87 63q0 21 -16.5 32.5t-45.5 11.5zM513 88q0 -35 48 -35q30 0 49 14.5t19 36.5q0 30 -47 42q-26 -4 -47.5 -18.5t-21.5 -39.5z" />
    <glyph glyph-name="arrowleft" unicode="&#x2190;" horiz-adv-x="695" 
d="M677 339l-25 -106h-440l118 -152l-88 -66l-202 271l327 271l66 -75l-176 -143h420z" />
    <glyph glyph-name="arrowup" unicode="&#x2191;" horiz-adv-x="620" 
d="M607 350l-87 -65l-110 144l-99 -429h-112l98 427l-168 -137l-65 80l324 256z" />
    <glyph glyph-name="arrowright" unicode="&#x2192;" horiz-adv-x="701" 
d="M471 557l202 -271l-327 -271l-66 75l176 143h-420l25 106h440l-118 152z" />
    <glyph glyph-name="arrowdown" unicode="&#x2193;" horiz-adv-x="619" 
d="M515 316l65 -80l-324 -256l-219 276l87 65l110 -144l99 429h112l-98 -427z" />
    <glyph glyph-name="arrowboth" unicode="&#x2194;" horiz-adv-x="857" 
d="M627 557l202 -271l-327 -271l-66 75l176 143h-400l118 -152l-88 -66l-202 271l327 271l66 -75l-176 -143h400l-118 152z" />
    <glyph glyph-name="arrowupdn" unicode="&#x2195;" horiz-adv-x="656" 
d="M351 109l169 136l66 -80l-325 -255l-219 275l87 66l110 -144l89 389l-167 -136l-66 81l324 255l219 -275l-87 -66l-110 144z" />
    <glyph glyph-name="uni2196" unicode="&#x2196;" horiz-adv-x="601" 
d="M518 72l-90 -71l-233 303l-48 -212h-116l90 388h394l-24 -104l-209 3z" />
    <glyph glyph-name="uni2197" unicode="&#x2197;" horiz-adv-x="585" 
d="M148 480h423l-95 -409h-113l54 222l-341 -272l-66 83l348 275l-234 -3z" />
    <glyph glyph-name="uni2198" unicode="&#x2198;" horiz-adv-x="597" 
d="M457 438h116l-90 -388h-394l24 104l209 -3l-236 307l90 71l233 -303z" />
    <glyph glyph-name="uni2199" unicode="&#x2199;" horiz-adv-x="581" 
d="M575 396l-348 -275l234 3l-24 -104h-423l95 409h113l-54 -222l341 272z" />
    <glyph glyph-name="uni21A5" unicode="&#x21a5;" horiz-adv-x="620" 
d="M520 285l-110 144l-75 -323h153l-24 -106h-417l24 106h152l74 321l-168 -137l-65 80l324 256l219 -276z" />
    <glyph glyph-name="uni21A7" unicode="&#x21a7;" horiz-adv-x="619" 
d="M347 179l168 137l65 -80l-324 -256l-219 276l87 65l110 -144l75 323h-153l24 106h417l-24 -106h-152z" />
    <glyph glyph-name="emptyset" unicode="&#x2205;" horiz-adv-x="714" 
d="M756 577l-97 -79q36 -63 36 -143q0 -145 -111.5 -255t-264.5 -110q-120 0 -195 73l-96 -78l-45 58l96 78q-35 64 -35 142q0 145 111.5 255.5t264.5 110.5q120 0 195 -73l96 78zM174 267q0 -34 10 -61l330 268q-41 33 -102 33q-99 0 -168.5 -74.5t-69.5 -165.5zM565 353
q0 34 -10 61l-329 -268q38 -33 102 -33q99 0 168 74.5t69 165.5z" />
    <glyph glyph-name="product" unicode="&#x220f;" horiz-adv-x="714" 
d="M751 700l-162 -700h-136l135 584h-307l-135 -584h-137l162 700h580z" />
    <glyph glyph-name="summation" unicode="&#x2211;" horiz-adv-x="615" 
d="M666 700l-27 -113h-329l163 -237l-250 -237h306l-25 -113h-510l20 85l299 276l-177 254l20 85h510z" />
    <glyph glyph-name="minus" unicode="&#x2212;" horiz-adv-x="575" 
d="M51 297h495l-25 -111h-496z" />
    <glyph glyph-name="radical" unicode="&#x221a;" horiz-adv-x="641" 
d="M580 700h156l-439 -700h-155l-85 500h136l51 -352z" />
    <glyph glyph-name="infinity" unicode="&#x221e;" horiz-adv-x="772" 
d="M575 412q68 0 112 -41.5t44 -107.5q0 -81 -62 -135.5t-145 -54.5q-102 0 -153 87q-81 -87 -179 -87q-67 0 -110.5 40.5t-43.5 107.5q0 81 62 136t144 55q98 0 154 -87q79 87 177 87zM208 164q34 0 64.5 21t44.5 41l14 21q-1 3 -2 8t-7.5 18t-15 22.5t-25.5 17.5t-37 8
q-41 0 -72 -26t-31 -68q0 -31 18 -47t49 -16zM525 164q41 0 72 26t31 68q0 30 -18.5 46.5t-47.5 16.5q-33 0 -64 -20.5t-46 -41.5l-15 -21q0 -3 1.5 -8t7.5 -18t15 -22.5t26 -17.5t38 -8z" />
    <glyph glyph-name="integral" unicode="&#x222b;" horiz-adv-x="586" 
d="M611 700h69l-27 -113h-40q-66 0 -102.5 -22.5t-66.5 -100.5l-197 -513q-21 -54 -50 -89.5t-67.5 -52.5t-76 -23t-90.5 -6h-62l27 113h40q65 0 100.5 20.5t63.5 92.5l196 504q24 61 53 100t66.5 58t74 25.5t89.5 6.5z" />
    <glyph glyph-name="approxequal" unicode="&#x2248;" horiz-adv-x="622" 
d="M50 268q20 81 69 130t119 49q35 0 64 -13t45 -28t37 -28t42 -13q30 0 45 18t27 52h95q-19 -80 -68 -129t-119 -49q-35 0 -63 13t-43.5 28t-36 28t-41.5 13q-52 0 -78 -71h-94zM26 58q20 81 69 130t119 49q35 0 64 -13t45 -28t37 -28t42 -13q30 0 45 18t27 52h95
q-19 -80 -68 -129t-119 -49q-35 0 -63 13t-43.5 28t-36 28t-41.5 13q-52 0 -78 -71h-94z" />
    <glyph glyph-name="notequal" unicode="&#x2260;" horiz-adv-x="580" 
d="M551 294h-169l-92 -107h231l-25 -111h-300l-82 -96l-57 45l43 51h-100l26 111h168l91 107h-230l26 111h298l80 95l58 -47l-41 -48h100z" />
    <glyph glyph-name="lessequal" unicode="&#x2264;" horiz-adv-x="574" 
d="M39 249l28 122l523 118l-25 -113l-372 -71l339 -72l-24 -102zM475 0h-495l25 108h496z" />
    <glyph glyph-name="greaterequal" unicode="&#x2265;" horiz-adv-x="575" 
d="M535 249l-523 -118l25 113l372 71l-339 72l24 102l469 -118zM9 108h495l-25 -108h-496z" />
    <glyph glyph-name="uni2460" unicode="&#x2460;" 
d="M422 -10q-152 0 -255 103.5t-103 256.5t103 256.5t255 103.5t255 -103.5t103 -256.5t-103 -256.5t-255 -103.5zM422 62q119 0 199.5 83.5t80.5 204.5t-80.5 204.5t-199.5 83.5t-199 -83.5t-80 -204.5t80 -204.5t199 -83.5zM491 522v-360h-84v219q-48 -27 -121 -28v72
q56 0 98 24.5t42 72.5h65z" />
    <glyph glyph-name="uni2461" unicode="&#x2461;" 
d="M422 -10q-152 0 -255 103.5t-103 256.5t103 256.5t255 103.5t255 -103.5t103 -256.5t-103 -256.5t-255 -103.5zM422 62q119 0 199.5 83.5t80.5 204.5t-80.5 204.5t-199.5 83.5t-199 -83.5t-80 -204.5t80 -204.5t199 -83.5zM560 179h-278v51l82 60q57 43 81 70.5t24 62.5
q0 51 -45 51q-54 0 -54 -87h-82q-2 67 33.5 112t106.5 45q58 0 91.5 -32.5t33.5 -85.5q0 -45 -23 -80t-69 -71l-38 -29h137v-67z" />
    <glyph glyph-name="uni2462" unicode="&#x2462;" 
d="M422 -10q-152 0 -255 103.5t-103 256.5t103 256.5t255 103.5t255 -103.5t103 -256.5t-103 -256.5t-255 -103.5zM422 62q119 0 199.5 83.5t80.5 204.5t-80.5 204.5t-199.5 83.5t-199 -83.5t-80 -204.5t80 -204.5t199 -83.5zM502 337q53 -19 53 -75q0 -41 -32 -70t-95 -29
q-67 0 -104 34.5t-40 88.5h85q3 -54 54 -54q24 0 37.5 12.5t13.5 29.5q0 42 -58 42h-25v54h34q27 0 43 13t16 36q0 24 -16.5 36t-43.5 12q-65 0 -71 -68h-81q4 61 41 98.5t110 37.5q66 0 105 -30.5t39 -81.5q0 -65 -65 -86z" />
    <glyph glyph-name="uni2463" unicode="&#x2463;" 
d="M422 -10q-152 0 -255 103.5t-103 256.5t103 256.5t255 103.5t255 -103.5t103 -256.5t-103 -256.5t-255 -103.5zM422 62q119 0 199.5 83.5t80.5 204.5t-80.5 204.5t-199.5 83.5t-199 -83.5t-80 -204.5t80 -204.5t199 -83.5zM565 308v-66h-57v-70h-78v70h-175v49l156 241
h97v-224h57zM344 308h86v138z" />
    <glyph glyph-name="uni2464" unicode="&#x2464;" 
d="M422 -10q-152 0 -255 103.5t-103 256.5t103 256.5t255 103.5t255 -103.5t103 -256.5t-103 -256.5t-255 -103.5zM422 62q119 0 199.5 83.5t80.5 204.5t-80.5 204.5t-199.5 83.5t-199 -83.5t-80 -204.5t80 -204.5t199 -83.5zM438 405q58 0 91 -34t33 -90q0 -57 -38 -90.5
t-103 -33.5q-67 0 -104 36.5t-42 91.5h80q3 -26 20 -43.5t47 -17.5q31 0 48 16t17 44t-17.5 44.5t-49.5 16.5q-43 0 -66 -28l-63 25l28 185h222v-71h-153l-12 -67q22 16 62 16z" />
    <glyph glyph-name="uni2465" unicode="&#x2465;" 
d="M422 -10q-152 0 -255 103.5t-103 256.5t103 256.5t255 103.5t255 -103.5t103 -256.5t-103 -256.5t-255 -103.5zM422 62q119 0 199.5 83.5t80.5 204.5t-80.5 204.5t-199.5 83.5t-199 -83.5t-80 -204.5t80 -204.5t199 -83.5zM438 408q53 0 89 -33t36 -87q0 -58 -39.5 -92
t-100.5 -34q-70 0 -110.5 48t-40.5 141t44 139.5t117 46.5q57 0 93.5 -32.5t41.5 -82.5h-73q-9 50 -65 50q-41 0 -62 -30.5t-23 -76.5q33 43 93 43zM423 227q25 0 43.5 15.5t18.5 44.5t-18.5 45t-42.5 16q-25 0 -43.5 -16.5t-18.5 -45.5t18.5 -44t42.5 -15z" />
    <glyph glyph-name="uni2466" unicode="&#x2466;" 
d="M422 -10q-152 0 -255 103.5t-103 256.5t103 256.5t255 103.5t255 -103.5t103 -256.5t-103 -256.5t-255 -103.5zM422 62q119 0 199.5 83.5t80.5 204.5t-80.5 204.5t-199.5 83.5t-199 -83.5t-80 -204.5t80 -204.5t199 -83.5zM298 515h275v-49l-160 -311h-92l148 288h-171
v72z" />
    <glyph glyph-name="uni2467" unicode="&#x2467;" 
d="M422 -10q-152 0 -255 103.5t-103 256.5t103 256.5t255 103.5t255 -103.5t103 -256.5t-103 -256.5t-255 -103.5zM422 62q119 0 199.5 83.5t80.5 204.5t-80.5 204.5t-199.5 83.5t-199 -83.5t-80 -204.5t80 -204.5t199 -83.5zM509 339q49 -25 49 -76q0 -47 -38.5 -73.5
t-97.5 -26.5t-97.5 26.5t-38.5 73.5q0 50 48 76q-66 26 -66 88q0 50 41.5 80.5t112.5 30.5t112.5 -30.5t41.5 -80.5q0 -62 -67 -88zM422 473q-33 0 -53 -14.5t-20 -37.5q0 -43 73 -55q72 14 72 55q0 24 -19.5 38t-52.5 14zM366 269q0 -20 15 -31.5t41 -11.5t41.5 11.5
t15.5 31.5q0 39 -57 50q-56 -9 -56 -50z" />
    <glyph glyph-name="uni2468" unicode="&#x2468;" 
d="M422 -10q-152 0 -255 103.5t-103 256.5t103 256.5t255 103.5t255 -103.5t103 -256.5t-103 -256.5t-255 -103.5zM422 62q119 0 199.5 83.5t80.5 204.5t-80.5 204.5t-199.5 83.5t-199 -83.5t-80 -204.5t80 -204.5t199 -83.5zM411 291q-53 0 -89.5 33t-36.5 87q0 58 39.5 92
t100.5 34q70 0 110.5 -48t40.5 -141t-44 -139.5t-116 -46.5q-57 0 -93.5 32.5t-41.5 82.5h73q7 -50 65 -50q41 0 61.5 30t22.5 77q-31 -43 -92 -43zM425 472q-24 0 -42.5 -15.5t-18.5 -44.5t18.5 -45t41.5 -16q25 0 44 16.5t19 45.5t-18.5 44t-43.5 15z" />
    <glyph glyph-name="uni2469" unicode="&#x2469;" horiz-adv-x="1088" 
d="M710 710q152 0 255 -103.5t103 -256.5t-103 -256.5t-255 -103.5h-288q-152 0 -255 103.5t-103 256.5t103 256.5t255 103.5h288zM710 62q119 0 199 83.5t80 204.5t-80 204.5t-199 83.5h-288q-119 0 -199 -83.5t-80 -204.5t80 -204.5t199 -83.5h288zM703 163q-80 0 -119 55
t-39 132t39 131.5t119 54.5t118.5 -54.5t38.5 -131.5t-38.5 -132t-118.5 -55zM473 530v-360h-84v219q-48 -27 -121 -28v72q56 0 98 24.5t42 72.5h65zM703 237q68 0 68 113q0 112 -68 112q-69 0 -69 -112q0 -113 69 -113z" />
    <glyph glyph-name="uni24EA" unicode="&#x24ea;" 
d="M422 -10q-152 0 -255 103.5t-103 256.5t103 256.5t255 103.5t255 -103.5t103 -256.5t-103 -256.5t-255 -103.5zM422 62q119 0 199.5 83.5t80.5 204.5t-80.5 204.5t-199.5 83.5t-199 -83.5t-80 -204.5t80 -204.5t199 -83.5zM422 165q-80 0 -119 55t-39 132t39 131.5
t119 54.5t118.5 -54.5t38.5 -131.5t-38.5 -132t-118.5 -55zM422 239q68 0 68 113q0 112 -68 112q-69 0 -69 -112q0 -113 69 -113z" />
    <glyph glyph-name="uni24FF" unicode="&#x24ff;" 
d="M422 -10q-152 0 -255 103.5t-103 256.5t103 256.5t255 103.5t255 -103.5t103 -256.5t-103 -256.5t-255 -103.5zM423 165q80 0 118.5 55t38.5 132t-38.5 131.5t-118.5 54.5t-119 -54.5t-39 -131.5t39 -132t119 -55zM423 239q-69 0 -69 113q0 112 69 112q68 0 68 -112
q0 -113 -68 -113z" />
    <glyph glyph-name="lozenge" unicode="&#x25ca;" horiz-adv-x="587" 
d="M45 298l305 245l208 -267l-307 -245zM183 287l92 -119l145 119l-91 119z" />
    <glyph glyph-name="uni25CF" unicode="&#x25cf;" horiz-adv-x="619" 
d="M322 40q-114 0 -192 78t-78 192t78 192t192 78t192 -78t78 -192t-78 -192t-192 -78z" />
    <glyph glyph-name="smileface" unicode="&#x263a;" horiz-adv-x="804" 
d="M784 350q0 -150 -105 -255t-255 -105t-255 106t-105 254q0 149 105.5 254.5t254.5 105.5q151 0 255.5 -105.5t104.5 -254.5zM236 533v-45h44v-128h46v128h44v45h-134zM478 533v-45h45v-128h45v128h45v45h-135zM424 81q109 0 187 76t81 183l-46 8q0 -92 -65 -156.5
t-157 -64.5t-156.5 64.5t-64.5 156.5l-46 -8q3 -107 81 -183t186 -76z" />
    <glyph glyph-name="uni2731" unicode="&#x2731;" horiz-adv-x="494" 
d="M458 296l-138 -37l89 -111l-74 -53l-77 119l-78 -119l-74 53l90 111l-138 37l29 86l132 -50l-7 142h91l-7 -142l133 50z" />
    <glyph glyph-name="uni2776" unicode="&#x2776;" 
d="M422 -10q-152 0 -255 103.5t-103 256.5t103 256.5t255 103.5t255 -103.5t103 -256.5t-103 -256.5t-255 -103.5zM492 162v360h-65q0 -48 -42 -72.5t-98 -24.5v-72q73 1 121 28v-219h84z" />
    <glyph glyph-name="uni2777" unicode="&#x2777;" 
d="M422 -10q-152 0 -255 103.5t-103 256.5t103 256.5t255 103.5t255 -103.5t103 -256.5t-103 -256.5t-255 -103.5zM283 179h278v67h-137l38 29q46 36 69 71t23 80q0 53 -33.5 85.5t-91.5 32.5q-71 0 -106.5 -45t-33.5 -112h82q0 87 54 87q45 0 45 -51q0 -35 -24 -62.5
t-81 -70.5l-82 -60v-51z" />
    <glyph glyph-name="uni2778" unicode="&#x2778;" 
d="M422 -10q-152 0 -255 103.5t-103 256.5t103 256.5t255 103.5t255 -103.5t103 -256.5t-103 -256.5t-255 -103.5zM503 337q65 21 65 86q0 51 -39 81.5t-105 30.5q-73 0 -110 -37.5t-41 -98.5h81q6 68 71 68q27 0 43.5 -12t16.5 -36q0 -23 -16 -36t-43 -13h-34v-54h25
q58 0 58 -42q0 -17 -13.5 -29.5t-37.5 -12.5q-51 0 -54 54h-85q3 -54 40 -88.5t104 -34.5q63 0 95 29t32 70q0 56 -53 75z" />
    <glyph glyph-name="uni2779" unicode="&#x2779;" 
d="M422 -10q-152 0 -255 103.5t-103 256.5t103 256.5t255 103.5t255 -103.5t103 -256.5t-103 -256.5t-255 -103.5zM566 242v66h-57v224h-97l-156 -241v-49h175v-70h78v70h57zM431 308h-86l86 138v-138z" />
    <glyph glyph-name="uni277A" unicode="&#x277a;" 
d="M422 -10q-152 0 -255 103.5t-103 256.5t103 256.5t255 103.5t255 -103.5t103 -256.5t-103 -256.5t-255 -103.5zM439 405q-40 0 -62 -16l12 67h153v71h-222l-28 -185l63 -25q23 28 66 28q32 0 49.5 -16.5t17.5 -44.5t-17 -44t-48 -16q-30 0 -47 17.5t-20 43.5h-80
q5 -55 42 -91.5t104 -36.5q65 0 103 33.5t38 90.5q0 56 -33 90t-91 34z" />
    <glyph glyph-name="uni277B" unicode="&#x277b;" 
d="M422 -10q-152 0 -255 103.5t-103 256.5t103 256.5t255 103.5t255 -103.5t103 -256.5t-103 -256.5t-255 -103.5zM439 408q-60 0 -93 -43q2 46 23 76.5t62 30.5q56 0 65 -50h73q-5 50 -41.5 82.5t-93.5 32.5q-73 0 -117 -46.5t-44 -139.5t40.5 -141t110.5 -48
q61 0 100.5 34t39.5 92q0 54 -36 87t-89 33zM424 227q-24 0 -42.5 15t-18.5 44t18.5 45.5t43.5 16.5q24 0 42.5 -16t18.5 -45t-18.5 -44.5t-43.5 -15.5z" />
    <glyph glyph-name="uni277C" unicode="&#x277c;" 
d="M422 -10q-152 0 -255 103.5t-103 256.5t103 256.5t255 103.5t255 -103.5t103 -256.5t-103 -256.5t-255 -103.5zM574 515h-275v-72h171l-148 -288h92l160 311v49z" />
    <glyph glyph-name="uni277D" unicode="&#x277d;" 
d="M422 -10q-152 0 -255 103.5t-103 256.5t103 256.5t255 103.5t255 -103.5t103 -256.5t-103 -256.5t-255 -103.5zM510 339q67 26 67 88q0 50 -41.5 80.5t-112.5 30.5t-112.5 -30.5t-41.5 -80.5q0 -62 66 -88q-48 -26 -48 -76q0 -47 38.5 -73.5t97.5 -26.5t97.5 26.5
t38.5 73.5q0 51 -49 76zM423 473q33 0 52.5 -14t19.5 -38q0 -41 -72 -55q-73 12 -73 55q0 23 20 37.5t53 14.5zM367 269q0 41 56 50q57 -11 57 -50q0 -20 -15.5 -31.5t-41.5 -11.5t-41 11.5t-15 31.5z" />
    <glyph glyph-name="uni277E" unicode="&#x277e;" 
d="M422 -10q-152 0 -255 103.5t-103 256.5t103 256.5t255 103.5t255 -103.5t103 -256.5t-103 -256.5t-255 -103.5zM412 291q61 0 92 43q-2 -47 -22.5 -77t-61.5 -30q-58 0 -65 50h-73q5 -50 41.5 -82.5t93.5 -32.5q72 0 116 46.5t44 139.5t-40.5 141t-110.5 48
q-61 0 -100.5 -34t-39.5 -92q0 -54 36.5 -87t89.5 -33zM426 472q25 0 43.5 -15t18.5 -44t-19 -45.5t-44 -16.5q-23 0 -41.5 16t-18.5 45t18.5 44.5t42.5 15.5z" />
    <glyph glyph-name="uni277F" unicode="&#x277f;" horiz-adv-x="1087" 
d="M422 710h287q152 0 255 -103.5t103 -256.5t-103 -256.5t-255 -103.5h-287q-152 0 -255 103.5t-103 256.5t103 256.5t255 103.5zM696 163q80 0 118.5 55t38.5 132t-38.5 131.5t-118.5 54.5t-119 -54.5t-39 -131.5t39 -132t119 -55zM465 170v360h-65q0 -48 -42 -72.5
t-98 -24.5v-72q73 1 121 28v-219h84zM696 237q-69 0 -69 113q0 112 69 112q68 0 68 -112q0 -113 -68 -113z" />
    <glyph glyph-name="uni27FB" unicode="&#x27fb;" horiz-adv-x="836" 
d="M653 233h-440l118 -152l-88 -66l-202 271l327 271l66 -75l-176 -143h420zM714 494h112l-96 -416h-112z" />
    <glyph glyph-name="uni27FC" unicode="&#x27fc;" horiz-adv-x="840" 
d="M610 557l202 -271l-327 -271l-66 75l176 143h-420l25 106h440l-118 152zM123 494h112l-96 -416h-112z" />
    <glyph glyph-name="Adieresis.ss02" horiz-adv-x="711" 
d="M355 755q-29 0 -45.5 17.5t-16.5 45.5q0 38 28.5 65.5t68.5 27.5q29 0 45.5 -17.5t16.5 -44.5q0 -38 -28.5 -66t-68.5 -28zM629 911q29 0 45.5 -17.5t16.5 -44.5q0 -38 -28.5 -66t-68.5 -28q-30 0 -46.5 17.5t-16.5 45.5q0 38 29 65.5t69 27.5zM549 700l93 -700h-153
l-16 153h-272l-88 -153h-160l416 700h180zM270 273h190l-30 278z" />
    <glyph glyph-name="B.ss03" horiz-adv-x="655" 
d="M488 358q116 -40 116 -160q0 -89 -71.5 -143.5t-215.5 -54.5h-163h-145l162 700h145h100q114 0 169 -45.5t55 -118.5q0 -127 -152 -178zM395 576h-108l-39 -171h101q61 0 97 27.5t36 71.5q0 34 -22.5 53t-64.5 19zM333 125q64 0 93 25t29 64q0 73 -86 73h-149l-37 -162
h150z" />
    <glyph glyph-name="Cdotaccent.ss02" horiz-adv-x="749" 
d="M494 765q-34 0 -53 20.5t-19 52.5q0 43 33 75t80 32q33 0 52 -20.5t19 -51.5q0 -44 -33 -76t-79 -32zM712 271q-37 -142 -136.5 -211.5t-230.5 -69.5q-142 0 -217.5 77.5t-76.5 213.5q0 116 51.5 214t149 156.5t220.5 58.5q142 0 213.5 -74.5t60.5 -186.5h-152
q4 61 -30.5 95.5t-105.5 34.5q-115 0 -183.5 -85t-68.5 -204q0 -85 39 -130t115 -45q141 0 200 156h152z" />
    <glyph glyph-name="Edieresis.ss02" horiz-adv-x="604" 
d="M309 755q-29 0 -45.5 17.5t-16.5 45.5q0 38 28.5 65.5t68.5 27.5q29 0 45.5 -17.5t16.5 -44.5q0 -38 -28.5 -66t-68.5 -28zM548 755q-30 0 -46.5 17.5t-16.5 45.5q0 38 29 65.5t69 27.5q29 0 45.5 -17.5t16.5 -44.5q0 -38 -28.5 -66t-68.5 -28zM627 569h-335l-36 -156
h309l-28 -121h-309l-38 -161h336l-30 -131h-487l162 700h487z" />
    <glyph glyph-name="Edotaccent.ss02" horiz-adv-x="604" 
d="M431 765q-34 0 -53 20.5t-19 52.5q0 43 33 75t80 32q33 0 52 -20.5t19 -51.5q0 -44 -33 -76t-79 -32zM627 569h-335l-36 -156h309l-28 -121h-309l-38 -161h336l-30 -131h-487l162 700h487z" />
    <glyph glyph-name="Euro.ss07" horiz-adv-x="726" 
d="M712 402h-124q6 54 -20.5 85t-86.5 31q-110 0 -174 -97h219l-42 -82h-213q-7 -28 -10 -67h194l-41 -82h-146q25 -91 122 -91q113 0 160 114h125q-24 -83 -73 -135t-102 -70t-116 -18q-107 0 -172.5 53.5t-81.5 146.5h-109l19 82h86q1 34 9 67h-80l19 82h89
q44 94 129.5 151t196.5 57q116 0 175.5 -62t47.5 -165z" />
    <glyph glyph-name="Gcommaaccent.ss02" horiz-adv-x="765" 
d="M742 450h-147q6 63 -28.5 97t-100.5 34q-107 0 -183 -84t-76 -204q0 -84 42.5 -130.5t127.5 -46.5q71 0 125.5 36t72.5 115h-217l25 106h347l-11 -47l-75 -326h-92l8 91q-82 -100 -227 -101q-130 -1 -205 76.5t-76 217.5q-2 182 117 304t303 122q141 0 214.5 -73
t55.5 -187zM312 -61q31 0 47 -20.5t16 -56.5q0 -77 -55.5 -132t-152.5 -63l11 49q32 5 59 21t34 40q-29 1 -44 19t-15 44q0 40 29.5 69.5t70.5 29.5z" />
    <glyph glyph-name="Gdotaccent.ss02" horiz-adv-x="765" 
d="M499 765q-34 0 -53 20.5t-19 52.5q0 43 33 75t80 32q33 0 52 -20.5t19 -51.5q0 -44 -33 -76t-79 -32zM742 450h-147q6 63 -28.5 97t-100.5 34q-107 0 -183 -84t-76 -204q0 -84 42.5 -130.5t127.5 -46.5q71 0 125.5 36t72.5 115h-217l25 106h347l-11 -47l-75 -326h-92
l8 91q-82 -100 -227 -101q-130 -1 -205 76.5t-76 217.5q-2 182 117 304t303 122q141 0 214.5 -73t55.5 -187z" />
    <glyph glyph-name="I.ss06" horiz-adv-x="447" 
d="M474 573h-99l-104 -446h100l-29 -127h-353l29 127h100l104 446h-101l30 127h353z" />
    <glyph glyph-name="IJ.ss05" horiz-adv-x="626" 
d="M40 132h118q222 0 271 210l82 358h154l-97 -418q-30 -132 -130 -207t-266 -75h-162zM225 246h-153l105 454h153z" />
    <glyph glyph-name="IJ.ss05.ss06" horiz-adv-x="1015" 
d="M375 573l-104 -446h100l-29 -127h-353l29 127h100l104 446h-101l30 127h353l-30 -127h-99zM1062 700l-97 -418q-30 -132 -130 -207t-266 -75h-162l30 132h118q222 0 271 210l51 223h-250l31 135h404z" />
    <glyph glyph-name="IJ.ss06" horiz-adv-x="1073" 
d="M375 573l-104 -446h100l-29 -127h-353l29 127h100l104 446h-101l30 127h353l-30 -127h-99zM1112 700l-31 -135l-78 -339q-27 -118 -107 -177t-201 -59q-142 0 -206 76.5t-34 212.5l7 31h153l-7 -31q-37 -161 96 -161q121 0 156 154l68 293h-251l32 135h403z" />
    <glyph glyph-name="Iacute.ss06" horiz-adv-x="447" 
d="M563 930l-185 -155h-130l139 155h176zM504 700l-30 -127h-99l-104 -446h100l-29 -127h-353l29 127h100l104 446h-101l30 127h353z" />
    <glyph glyph-name="Ibreve.ss06" horiz-adv-x="447" 
d="M351 775q-71 0 -107.5 44t-23.5 104h99q-7 -59 47 -59q55 0 71 59h101q-15 -66 -65.5 -107t-121.5 -41zM504 700l-30 -127h-99l-104 -446h100l-29 -127h-353l29 127h100l104 446h-101l30 127h353z" />
    <glyph glyph-name="Icircumflex.ss06" horiz-adv-x="447" 
d="M360 843l-73 -72h-125l151 146h122l83 -146h-118zM504 700l-30 -127h-99l-104 -446h100l-29 -127h-353l29 127h100l104 446h-101l30 127h353z" />
    <glyph glyph-name="Idieresis.ss02" horiz-adv-x="287" 
d="M143 755q-29 0 -45.5 17.5t-16.5 45.5q0 38 28.5 65.5t68.5 27.5q29 0 45.5 -17.5t16.5 -44.5q0 -38 -28.5 -66t-68.5 -28zM382 755q-30 0 -46.5 17.5t-16.5 45.5q0 38 29 65.5t69 27.5q29 0 45.5 -17.5t16.5 -44.5q0 -38 -28.5 -66t-68.5 -28zM162 0h-153l162 700h153z
" />
    <glyph glyph-name="Idieresis.ss06" horiz-adv-x="447" 
d="M325 907l-29 -131h-139l30 131h138zM421 907h139l-30 -131h-138zM504 700l-30 -127h-99l-104 -446h100l-29 -127h-353l29 127h100l104 446h-101l30 127h353z" />
    <glyph glyph-name="Idieresis.ss06.ss02" horiz-adv-x="447" 
d="M223 755q-29 0 -45.5 17.5t-16.5 45.5q0 38 28.5 65.5t68.5 27.5q29 0 45.5 -17.5t16.5 -44.5q0 -38 -28.5 -66t-68.5 -28zM497 911q29 0 45.5 -17.5t16.5 -44.5q0 -38 -28.5 -66t-68.5 -28q-30 0 -46.5 17.5t-16.5 45.5q0 38 29 65.5t69 27.5zM504 700l-30 -127h-99
l-104 -446h100l-29 -127h-353l29 127h100l104 446h-101l30 127h353z" />
    <glyph glyph-name="Idotaccent.ss02" horiz-adv-x="287" 
d="M265 765q-34 0 -53 20.5t-19 52.5q0 43 33 75t80 32q33 0 52 -20.5t19 -51.5q0 -44 -33 -76t-79 -32zM162 0h-153l162 700h153z" />
    <glyph glyph-name="Idotaccent.ss06" horiz-adv-x="447" 
d="M455 915l-32 -136h-164l32 136h164zM474 573h-99l-104 -446h100l-29 -127h-353l29 127h100l104 446h-101l30 127h353z" />
    <glyph glyph-name="Idotaccent.ss06.ss02" horiz-adv-x="447" 
d="M345 765q-34 0 -53 20.5t-19 52.5q0 43 33 75t80 32q33 0 52 -20.5t19 -51.5q0 -44 -33 -76t-79 -32zM474 573h-99l-104 -446h100l-29 -127h-353l29 127h100l104 446h-101l30 127h353z" />
    <glyph glyph-name="Igrave.ss06" horiz-adv-x="447" 
d="M434 775h-118l-126 155h162zM474 573h-99l-104 -446h100l-29 -127h-353l29 127h100l104 446h-101l30 127h353z" />
    <glyph glyph-name="Imacron.ss06" horiz-adv-x="447" 
d="M201 888h330l-23 -100h-331zM504 700l-30 -127h-99l-104 -446h100l-29 -127h-353l29 127h100l104 446h-101l30 127h353z" />
    <glyph glyph-name="Iogonek.ss06" horiz-adv-x="447" 
d="M474 573h-99l-104 -446h100l-29 -127h-100q-105 -54 -105 -111q0 -47 65 -47h24l-19 -79h-31q-67 0 -100.5 29.5t-33.5 76.5q0 26 8.5 46.5t28.5 37.5t32 24t40 23h-162l29 127h100l104 446h-101l30 127h353z" />
    <glyph glyph-name="Itilde.ss06" horiz-adv-x="447" 
d="M500 914h92q-24 -72 -67.5 -109.5t-101.5 -37.5q-38 0 -62.5 12.5t-42 24.5t-38.5 12q-38 0 -61 -43h-89q46 146 169 146q37 0 61 -12t41 -24t37 -12q40 0 62 43zM504 700l-30 -127h-99l-104 -446h100l-29 -127h-353l29 127h100l104 446h-101l30 127h353z" />
    <glyph glyph-name="J.ss05" horiz-adv-x="568" 
d="M-10 132h118q222 0 271 210l82 358h154l-97 -418q-30 -132 -130 -207t-266 -75h-162z" />
    <glyph glyph-name="J.ss05.ss06" horiz-adv-x="568" 
d="M615 700l-97 -418q-30 -132 -130 -207t-266 -75h-162l30 132h118q222 0 271 210l51 223h-250l31 135h404z" />
    <glyph glyph-name="J.ss06" horiz-adv-x="661" 
d="M700 700l-31 -135l-78 -339q-27 -118 -107 -177t-201 -59q-142 0 -206 76.5t-34 212.5l7 31h153l-7 -31q-37 -161 96 -161q121 0 156 154l68 293h-251l32 135h403z" />
    <glyph glyph-name="Jcircumflex.ss05" horiz-adv-x="568" 
d="M729 771h-118l-40 72l-73 -72h-125l151 146h122zM-10 132h118q222 0 271 210l82 358h154l-97 -418q-30 -132 -130 -207t-266 -75h-162z" />
    <glyph glyph-name="Jcircumflex.ss05.ss06" horiz-adv-x="568" 
d="M445 843l-73 -72h-125l151 146h122l83 -146h-118zM615 700l-97 -418q-30 -132 -130 -207t-266 -75h-162l30 132h118q222 0 271 210l51 223h-250l31 135h404z" />
    <glyph glyph-name="Jcircumflex.ss06" horiz-adv-x="661" 
d="M531 843l-73 -72h-125l151 146h122l83 -146h-118zM700 700l-31 -135l-78 -339q-27 -118 -107 -177t-201 -59q-142 0 -206 76.5t-34 212.5l7 31h153l-7 -31q-37 -161 96 -161q121 0 156 154l68 293h-251l32 135h403z" />
    <glyph glyph-name="Kcommaaccent.ss02" horiz-adv-x="664" 
d="M742 700l-339 -306l197 -394h-163l-148 292l-80 -73l-51 -219h-149l162 700h149l-61 -264l284 264h199zM252 -61q31 0 47 -20.5t16 -56.5q0 -77 -55.5 -132t-152.5 -63l11 49q32 5 59 21t34 40q-29 1 -44 19t-15 44q0 40 29.5 69.5t70.5 29.5z" />
    <glyph glyph-name="Lcaron.ss02" horiz-adv-x="588" 
d="M565 631q0 -79 -57 -136t-157 -65l11 50q33 5 60.5 21.5t35.5 40.5q-31 1 -46.5 20t-15.5 46q0 41 31 71.5t72 30.5q32 0 49 -21.5t17 -57.5zM324 700l-131 -565h341l-30 -135h-495l162 700h153z" />
    <glyph glyph-name="Lcommaaccent.ss02" horiz-adv-x="588" 
d="M193 135h341l-30 -135h-495l162 700h153zM241 -61q31 0 47 -20.5t16 -56.5q0 -77 -55.5 -132t-152.5 -63l11 49q32 5 59 21t34 40q-29 1 -44 19t-15 44q0 40 29.5 69.5t70.5 29.5z" />
    <glyph glyph-name="Ldot.ss02" horiz-adv-x="588" 
d="M193 135h341l-30 -135h-495l162 700h153zM400 330q-32 0 -50 19t-18 49q0 41 31 71t75 30q31 0 49 -19t18 -49q0 -41 -31 -71t-74 -30z" />
    <glyph glyph-name="Ncommaaccent.ss02" horiz-adv-x="749" 
d="M639 700h147l-162 -700h-174l-173 522l-121 -522h-147l162 700h175l172 -522zM312 -61q31 0 47 -20.5t16 -56.5q0 -77 -55.5 -132t-152.5 -63l11 49q32 5 59 21t34 40q-29 1 -44 19t-15 44q0 40 29.5 69.5t70.5 29.5z" />
    <glyph glyph-name="Odieresis.ss02" horiz-adv-x="790" 
d="M378 755q-29 0 -45.5 17.5t-16.5 45.5q0 38 28.5 65.5t68.5 27.5q29 0 45.5 -17.5t16.5 -44.5q0 -38 -28.5 -66t-68.5 -28zM617 755q-30 0 -46.5 17.5t-16.5 45.5q0 38 29 65.5t69 27.5q29 0 45.5 -17.5t16.5 -44.5q0 -38 -28.5 -66t-68.5 -28zM358 -10q-145 0 -225 78
t-80 222q0 182 118.5 301t304.5 119q145 0 225 -78t80 -222q0 -182 -118.5 -301t-304.5 -119zM369 119q105 0 176.5 84.5t71.5 203.5q0 82 -39 128t-112 46q-106 0 -177 -84.5t-71 -203.5q0 -83 39 -128.5t112 -45.5z" />
    <glyph glyph-name="Rcommaaccent.ss02" horiz-adv-x="656" 
d="M660 504q0 -165 -210 -205q56 -15 86 -52t37 -107l15 -140h-158l-15 136q-8 69 -50 89t-152 20l-57 -245h-147l162 700h242q130 0 188.5 -55.5t58.5 -140.5zM366 366q66 0 101 32.5t35 80.5q0 39 -24.5 64.5t-76.5 25.5h-113l-47 -203h125zM274 -61q31 0 47 -20.5
t16 -56.5q0 -77 -55.5 -132t-152.5 -63l11 49q32 5 59 21t34 40q-29 1 -44 19t-15 44q0 40 29.5 69.5t70.5 29.5z" />
    <glyph glyph-name="S.ss03" horiz-adv-x="649" 
d="M494 477q17 108 -99 108q-55 0 -88 -23t-33 -62q0 -35 27.5 -51.5t104.5 -38.5q96 -26 146.5 -66.5t50.5 -125.5q0 -58 -25.5 -103.5t-69 -72t-95.5 -39.5t-111 -13q-61 0 -113 14.5t-92.5 44.5t-58 83t-4.5 122h150q-18 -133 126 -133q62 0 98.5 23t36.5 65
q0 19 -7.5 32.5t-26.5 24t-36.5 16.5t-53.5 16q-52 14 -83 26t-63 33t-46.5 53t-14.5 77q0 107 81.5 165t207.5 58q136 0 195 -64.5t41 -168.5h-145z" />
    <glyph glyph-name="S_t.ss08" horiz-adv-x="981" 
d="M853 400l-44 -193q-12 -48 5 -71.5t67 -23.5h48l-25 -112h-68q-102 0 -147.5 55t-24.5 148l45 197h-206q20 90 -16 134.5t-109 44.5q-60 0 -100.5 -27t-40.5 -72q0 -20 8.5 -34.5t29.5 -25.5t37 -17t51 -16q38 -10 59 -16.5t53 -22t49 -33t30 -47t13 -67.5
q0 -100 -76.5 -155.5t-194.5 -55.5q-132 0 -198 66.5t-50 166.5h151q-8 -53 18.5 -80.5t82.5 -27.5q48 0 78.5 21.5t30.5 58.5q0 34 -27 49t-103 36q-101 25 -149 68t-48 120q0 111 90.5 176.5t214.5 65.5q113 0 188 -56t75 -154h82l26 112l150 26l-32 -138h130l-23 -100
h-130z" />
    <glyph glyph-name="Sacute.ss03" horiz-adv-x="649" 
d="M475 930h176l-185 -155h-130zM494 477q17 108 -99 108q-55 0 -88 -23t-33 -62q0 -35 27.5 -51.5t104.5 -38.5q96 -26 146.5 -66.5t50.5 -125.5q0 -58 -25.5 -103.5t-69 -72t-95.5 -39.5t-111 -13q-61 0 -113 14.5t-92.5 44.5t-58 83t-4.5 122h150q-18 -133 126 -133
q62 0 98.5 23t36.5 65q0 19 -7.5 32.5t-26.5 24t-36.5 16.5t-53.5 16q-52 14 -83 26t-63 33t-46.5 53t-14.5 77q0 107 81.5 165t207.5 58q136 0 195 -64.5t41 -168.5h-145z" />
    <glyph glyph-name="Scaron.ss03" horiz-adv-x="649" 
d="M517 922h125l-152 -146h-122l-83 146h118l40 -73zM494 477q17 108 -99 108q-55 0 -88 -23t-33 -62q0 -35 27.5 -51.5t104.5 -38.5q96 -26 146.5 -66.5t50.5 -125.5q0 -58 -25.5 -103.5t-69 -72t-95.5 -39.5t-111 -13q-61 0 -113 14.5t-92.5 44.5t-58 83t-4.5 122h150
q-18 -133 126 -133q62 0 98.5 23t36.5 65q0 19 -7.5 32.5t-26.5 24t-36.5 16.5t-53.5 16q-52 14 -83 26t-63 33t-46.5 53t-14.5 77q0 107 81.5 165t207.5 58q136 0 195 -64.5t41 -168.5h-145z" />
    <glyph glyph-name="Scedilla.ss03" horiz-adv-x="649" 
d="M639 477h-145q17 108 -99 108q-55 0 -88 -23t-33 -62q0 -35 27.5 -51.5t104.5 -38.5q96 -26 146.5 -66.5t50.5 -125.5q0 -109 -80.5 -166t-199.5 -62q41 -39 41 -91q0 -64 -47 -100t-142 -36h-48l18 77h40q47 0 70.5 21.5t23.5 52.5q0 42 -50 82q-103 17 -159.5 80.5
t-35.5 177.5h150q-18 -133 126 -133q62 0 98.5 23t36.5 65q0 19 -7.5 32.5t-26.5 24t-36.5 16.5t-53.5 16q-52 14 -83 26t-63 33t-46.5 53t-14.5 77q0 107 81.5 165t207.5 58q136 0 195 -64.5t41 -168.5z" />
    <glyph glyph-name="Scircumflex.ss03" horiz-adv-x="649" 
d="M606 771h-118l-40 72l-73 -72h-125l151 146h122zM494 477q17 108 -99 108q-55 0 -88 -23t-33 -62q0 -35 27.5 -51.5t104.5 -38.5q96 -26 146.5 -66.5t50.5 -125.5q0 -58 -25.5 -103.5t-69 -72t-95.5 -39.5t-111 -13q-61 0 -113 14.5t-92.5 44.5t-58 83t-4.5 122h150
q-18 -133 126 -133q62 0 98.5 23t36.5 65q0 19 -7.5 32.5t-26.5 24t-36.5 16.5t-53.5 16q-52 14 -83 26t-63 33t-46.5 53t-14.5 77q0 107 81.5 165t207.5 58q136 0 195 -64.5t41 -168.5h-145z" />
    <glyph glyph-name="Scommaaccent.ss02" horiz-adv-x="649" 
d="M199 223q-8 -53 18.5 -80.5t82.5 -27.5q49 0 79.5 21.5t30.5 58.5q0 34 -27 49t-103 36q-101 25 -149 68t-48 121q0 111 87 176t214 65q130 0 212 -69.5t59 -194.5h-148q11 65 -22 99t-100 34q-62 0 -104.5 -27t-42.5 -72q0 -20 8.5 -34.5t29.5 -25.5t37 -17t51 -16
q37 -10 59.5 -17t53.5 -22.5t48 -34t30 -48t13 -67.5q0 -100 -75.5 -154t-192.5 -54q-131 0 -199.5 66t-51.5 167h150zM255 -61q31 0 47 -20.5t16 -56.5q0 -77 -55.5 -132t-152.5 -63l11 49q32 5 59 21t34 40q-29 1 -44 19t-15 44q0 40 29.5 69.5t70.5 29.5z" />
    <glyph glyph-name="Scommaaccent.ss03" horiz-adv-x="649" 
d="M639 477h-145q17 108 -99 108q-55 0 -88 -23t-33 -62q0 -35 27.5 -51.5t104.5 -38.5q96 -26 146.5 -66.5t50.5 -125.5q0 -58 -25.5 -103.5t-69 -72t-95.5 -39.5t-111 -13q-61 0 -113 14.5t-92.5 44.5t-58 83t-4.5 122h150q-18 -133 126 -133q62 0 98.5 23t36.5 65
q0 19 -7.5 32.5t-26.5 24t-36.5 16.5t-53.5 16q-52 14 -83 26t-63 33t-46.5 53t-14.5 77q0 107 81.5 165t207.5 58q136 0 195 -64.5t41 -168.5zM161 -200l31 134h145l-19 -83q-22 -95 -67.5 -134t-136.5 -44l14 57q80 2 95 70h-62z" />
    <glyph glyph-name="Scommaaccent.ss03.ss02" horiz-adv-x="649" 
d="M494 477q17 108 -99 108q-55 0 -88 -23t-33 -62q0 -35 27.5 -51.5t104.5 -38.5q96 -26 146.5 -66.5t50.5 -125.5q0 -58 -25.5 -103.5t-69 -72t-95.5 -39.5t-111 -13q-61 0 -113 14.5t-92.5 44.5t-58 83t-4.5 122h150q-18 -133 126 -133q62 0 98.5 23t36.5 65
q0 19 -7.5 32.5t-26.5 24t-36.5 16.5t-53.5 16q-52 14 -83 26t-63 33t-46.5 53t-14.5 77q0 107 81.5 165t207.5 58q136 0 195 -64.5t41 -168.5h-145zM261 -61q31 0 47 -20.5t16 -56.5q0 -77 -55.5 -132t-152.5 -63l11 49q32 5 59 21t34 40q-29 1 -44 19t-15 44
q0 40 29.5 69.5t70.5 29.5z" />
    <glyph glyph-name="Udieresis.ss02" horiz-adv-x="741" 
d="M369 755q-29 0 -45.5 17.5t-16.5 45.5q0 38 28.5 65.5t68.5 27.5q29 0 45.5 -17.5t16.5 -44.5q0 -38 -28.5 -66t-68.5 -28zM608 755q-30 0 -46.5 17.5t-16.5 45.5q0 38 29 65.5t69 27.5q29 0 45.5 -17.5t16.5 -44.5q0 -38 -28.5 -66t-68.5 -28zM169 700h153l-92 -395
q-42 -184 113 -184q150 0 192 184l92 395h153l-99 -427q-31 -134 -120 -209t-236 -74q-152 1 -216.5 85.5t-26.5 249.5z" />
    <glyph glyph-name="Wdieresis.ss02" horiz-adv-x="1030" 
d="M514 755q-29 0 -45.5 17.5t-16.5 45.5q0 38 28.5 65.5t68.5 27.5q29 0 45.5 -17.5t16.5 -44.5q0 -38 -28.5 -66t-68.5 -28zM753 755q-30 0 -46.5 17.5t-16.5 45.5q0 38 29 65.5t69 27.5q29 0 45.5 -17.5t16.5 -44.5q0 -38 -28.5 -66t-68.5 -28zM954 700h164l-349 -700
h-159l-24 532l-271 -532h-171l-24 700h154l-1 -520l263 520h166l22 -498z" />
    <glyph glyph-name="Y.ss04" horiz-adv-x="700" 
d="M795 700l-357 -398l-69 -302h-153l69 300l-173 400h164l104 -259l225 259h190z" />
    <glyph glyph-name="Yacute.ss04" horiz-adv-x="700" 
d="M689 930l-185 -155h-130l139 155h176zM795 700l-357 -398l-69 -302h-153l69 300l-173 400h164l104 -259l225 259h190z" />
    <glyph glyph-name="Ycircumflex.ss04" horiz-adv-x="700" 
d="M486 843l-73 -72h-125l151 146h122l83 -146h-118zM795 700l-357 -398l-69 -302h-153l69 300l-173 400h164l104 -259l225 259h190z" />
    <glyph glyph-name="Ydieresis.ss02" horiz-adv-x="718" 
d="M365 755q-29 0 -45.5 17.5t-16.5 45.5q0 38 28.5 65.5t68.5 27.5q29 0 45.5 -17.5t16.5 -44.5q0 -38 -28.5 -66t-68.5 -28zM604 755q-30 0 -46.5 17.5t-16.5 45.5q0 38 29 65.5t69 27.5q29 0 45.5 -17.5t16.5 -44.5q0 -38 -28.5 -66t-68.5 -28zM623 700h185l-530 -700
h-186l218 283l-195 417h176l124 -285z" />
    <glyph glyph-name="Ydieresis.ss04" horiz-adv-x="700" 
d="M451 907l-29 -131h-139l30 131h138zM686 907l-30 -131h-138l29 131h139zM795 700l-357 -398l-69 -302h-153l69 300l-173 400h164l104 -259l225 259h190z" />
    <glyph glyph-name="Ydieresis.ss04.ss02" horiz-adv-x="700" 
d="M349 755q-29 0 -45.5 17.5t-16.5 45.5q0 38 28.5 65.5t68.5 27.5q29 0 45.5 -17.5t16.5 -44.5q0 -38 -28.5 -66t-68.5 -28zM588 755q-30 0 -46.5 17.5t-16.5 45.5q0 38 29 65.5t69 27.5q29 0 45.5 -17.5t16.5 -44.5q0 -38 -28.5 -66t-68.5 -28zM795 700l-357 -398
l-69 -302h-153l69 300l-173 400h164l104 -259l225 259h190z" />
    <glyph glyph-name="Ygrave.ss04" horiz-adv-x="700" 
d="M560 775h-118l-126 155h162zM795 700l-357 -398l-69 -302h-153l69 300l-173 400h164l104 -259l225 259h190z" />
    <glyph glyph-name="Zdotaccent.ss02" horiz-adv-x="666" 
d="M456 765q-34 0 -53 20.5t-19 52.5q0 43 33 75t80 32q33 0 52 -20.5t19 -51.5q0 -44 -33 -76t-79 -32zM707 700l-21 -91l-449 -478h352l-30 -131h-576l21 91l449 478h-321l31 131h544z" />
    <glyph glyph-name="_eightsuperior" horiz-adv-x="381" 
d="M269 166q49 -25 49 -76q0 -47 -38.5 -73.5t-97.5 -26.5t-97.5 26.5t-38.5 73.5q0 50 48 76q-66 26 -66 88q0 50 41.5 80.5t112.5 30.5t112.5 -30.5t41.5 -80.5q0 -62 -67 -88zM182 300q-33 0 -53 -14.5t-20 -37.5q0 -43 73 -55q72 14 72 55q0 24 -19.5 38t-52.5 14z
M126 96q0 -20 15 -31.5t41 -11.5t41.5 11.5t15.5 31.5q0 39 -57 50q-56 -9 -56 -50z" />
    <glyph glyph-name="a.ss09" horiz-adv-x="562" 
d="M343 509q99 0 149 -47t28 -142l-74 -320h-131l12 50q-74 -60 -169 -60q-70 0 -111.5 29.5t-41.5 92.5q0 37 15.5 66t38 47t60 31.5t70.5 21t81 14.5q38 6 51.5 8.5t34 9t28.5 16t12 24.5q6 26 -12 40t-54 14q-89 0 -116 -83h-136q21 82 86 135t179 53zM210 86q50 0 95 31
t59 95v-1l5 21q-28 -14 -96 -28q-61 -13 -90.5 -29t-29.5 -47q0 -42 57 -42z" />
    <glyph glyph-name="aacute.ss09" horiz-adv-x="562" 
d="M557 700l-168 -141h-118l126 141h160zM343 509q99 0 149 -47t28 -142l-74 -320h-131l12 50q-74 -60 -169 -60q-70 0 -111.5 29.5t-41.5 92.5q0 37 15.5 66t38 47t60 31.5t70.5 21t81 14.5q38 6 51.5 8.5t34 9t28.5 16t12 24.5q6 26 -12 40t-54 14q-89 0 -116 -83h-136
q21 82 86 135t179 53zM210 86q50 0 95 31t59 95v-1l5 21q-28 -14 -96 -28q-61 -13 -90.5 -29t-29.5 -47q0 -42 57 -42z" />
    <glyph glyph-name="abreve.ss09" horiz-adv-x="562" 
d="M353 555q-65 0 -98 40.5t-21 94.5h90q-7 -54 43 -54t64 54h92q-14 -60 -59.5 -97.5t-110.5 -37.5zM343 509q99 0 149 -47t28 -142l-74 -320h-131l12 50q-74 -60 -169 -60q-70 0 -111.5 29.5t-41.5 92.5q0 37 15.5 66t38 47t60 31.5t70.5 21t81 14.5q38 6 51.5 8.5t34 9
t28.5 16t12 24.5q6 26 -12 40t-54 14q-89 0 -116 -83h-136q21 82 86 135t179 53zM210 86q50 0 95 31t59 95v-1l5 21q-28 -14 -96 -28q-61 -13 -90.5 -29t-29.5 -47q0 -42 57 -42z" />
    <glyph glyph-name="acircumflex.ss09" horiz-adv-x="562" 
d="M371 629l-67 -65h-113l137 132h111l75 -132h-107zM343 509q99 0 149 -47t28 -142l-74 -320h-131l12 50q-74 -60 -169 -60q-70 0 -111.5 29.5t-41.5 92.5q0 37 15.5 66t38 47t60 31.5t70.5 21t81 14.5q38 6 51.5 8.5t34 9t28.5 16t12 24.5q6 26 -12 40t-54 14
q-89 0 -116 -83h-136q21 82 86 135t179 53zM210 86q50 0 95 31t59 95v-1l5 21q-28 -14 -96 -28q-61 -13 -90.5 -29t-29.5 -47q0 -42 57 -42z" />
    <glyph glyph-name="adieresis.ss02" horiz-adv-x="602" 
d="M248 558q-27 0 -42 16t-15 41q0 34 26 59t63 25q26 0 41 -16t15 -41q0 -34 -26 -59t-62 -25zM465 558q-27 0 -42 16t-15 41q0 34 26 59t63 25q26 0 41 -16t15 -41q0 -34 -26 -59t-62 -25zM461 500h138l-115 -500h-138l12 51q-24 -26 -64.5 -43.5t-88.5 -17.5
q-82 0 -132 53t-50 151q0 133 85 224.5t194 91.5q50 0 88 -21t56 -56zM253 94q63 0 107.5 56.5t44.5 137.5q0 109 -85 109q-66 0 -108.5 -59.5t-42.5 -136.5q0 -107 84 -107z" />
    <glyph glyph-name="adieresis.ss09" horiz-adv-x="562" 
d="M337 691l-27 -118h-125l27 118h125zM550 691l-27 -118h-125l27 118h125zM343 509q99 0 149 -47t28 -142l-74 -320h-131l12 50q-74 -60 -169 -60q-70 0 -111.5 29.5t-41.5 92.5q0 37 15.5 66t38 47t60 31.5t70.5 21t81 14.5q38 6 51.5 8.5t34 9t28.5 16t12 24.5
q6 26 -12 40t-54 14q-89 0 -116 -83h-136q21 82 86 135t179 53zM210 86q50 0 95 31t59 95v-1l5 21q-28 -14 -96 -28q-61 -13 -90.5 -29t-29.5 -47q0 -42 57 -42z" />
    <glyph glyph-name="adieresis.ss09.ss02" horiz-adv-x="562" 
d="M243 558q-27 0 -42 16t-15 41q0 34 26 59t63 25q26 0 41 -16t15 -41q0 -34 -26 -59t-62 -25zM460 558q-27 0 -42 16t-15 41q0 34 26 59t63 25q26 0 41 -16t15 -41q0 -34 -26 -59t-62 -25zM343 509q99 0 149 -47t28 -142l-74 -320h-131l12 50q-74 -60 -169 -60
q-70 0 -111.5 29.5t-41.5 92.5q0 37 15.5 66t38 47t60 31.5t70.5 21t81 14.5q38 6 51.5 8.5t34 9t28.5 16t12 24.5q6 26 -12 40t-54 14q-89 0 -116 -83h-136q21 82 86 135t179 53zM210 86q50 0 95 31t59 95v-1l5 21q-28 -14 -96 -28q-61 -13 -90.5 -29t-29.5 -47
q0 -42 57 -42z" />
    <glyph glyph-name="agrave.ss09" horiz-adv-x="562" 
d="M424 559h-107l-114 141h147zM343 509q99 0 149 -47t28 -142l-74 -320h-131l12 50q-74 -60 -169 -60q-70 0 -111.5 29.5t-41.5 92.5q0 37 15.5 66t38 47t60 31.5t70.5 21t81 14.5q38 6 51.5 8.5t34 9t28.5 16t12 24.5q6 26 -12 40t-54 14q-89 0 -116 -83h-136
q21 82 86 135t179 53zM210 86q50 0 95 31t59 95v-1l5 21q-28 -14 -96 -28q-61 -13 -90.5 -29t-29.5 -47q0 -42 57 -42z" />
    <glyph glyph-name="amacron.ss09" horiz-adv-x="562" 
d="M525 670l-21 -91h-301l22 91h300zM343 509q99 0 149 -47t28 -142l-74 -320h-131l12 50q-74 -60 -169 -60q-70 0 -111.5 29.5t-41.5 92.5q0 37 15.5 66t38 47t60 31.5t70.5 21t81 14.5q38 6 51.5 8.5t34 9t28.5 16t12 24.5q6 26 -12 40t-54 14q-89 0 -116 -83h-136
q21 82 86 135t179 53zM210 86q50 0 95 31t59 95v-1l5 21q-28 -14 -96 -28q-61 -13 -90.5 -29t-29.5 -47q0 -42 57 -42z" />
    <glyph glyph-name="aogonek.ss09" horiz-adv-x="562" 
d="M343 509q99 0 149 -47t28 -142l-74 -320q-95 -49 -95 -101q0 -43 59 -43h22l-17 -71h-29q-61 0 -91 26.5t-30 69.5q0 24 7.5 42.5t25 33.5t30 22.5t36.5 20.5h-49l12 50q-74 -60 -169 -60q-70 0 -111.5 29.5t-41.5 92.5q0 37 15.5 66t38 47t60 31.5t70.5 21t81 14.5
q38 6 51.5 8.5t34 9t28.5 16t12 24.5q6 26 -12 40t-54 14q-89 0 -116 -83h-136q21 82 86 135t179 53zM364 211l5 21q-28 -14 -96 -28q-61 -13 -90.5 -29t-29.5 -47q0 -42 57 -42q50 0 95 31t59 95v-1z" />
    <glyph glyph-name="aring.ss09" horiz-adv-x="562" 
d="M354 540q-46 0 -71.5 28.5t-25.5 69.5q0 51 39 87t91 36q45 0 71 -28t26 -68q0 -51 -38.5 -88t-91.5 -37zM378 686q-16 0 -29.5 -13t-13.5 -29q0 -12 7.5 -20.5t20.5 -8.5q17 0 30 13.5t13 29.5q0 12 -7.5 20t-20.5 8zM343 509q99 0 149 -47t28 -142l-74 -320h-131l12 50
q-74 -60 -169 -60q-70 0 -111.5 29.5t-41.5 92.5q0 37 15.5 66t38 47t60 31.5t70.5 21t81 14.5q38 6 51.5 8.5t34 9t28.5 16t12 24.5q6 26 -12 40t-54 14q-89 0 -116 -83h-136q21 82 86 135t179 53zM210 86q50 0 95 31t59 95v-1l5 21q-28 -14 -96 -28q-61 -13 -90.5 -29
t-29.5 -47q0 -42 57 -42z" />
    <glyph glyph-name="at.case" horiz-adv-x="963" 
d="M573 790q167 0 277 -98t110 -261q0 -136 -73.5 -234.5t-181.5 -98.5q-91 0 -119 68q-61 -68 -155 -68q-83 0 -127 51t-44 136q0 120 77.5 206.5t174.5 86.5q85 0 122 -68l13 58h110l-64 -280q-24 -93 37 -93q38 0 66.5 38.5t41 89t12.5 100.5q0 117 -72.5 191.5
t-198.5 74.5q-165 0 -288.5 -120.5t-123.5 -291.5q0 -122 70 -194t200 -72q111 0 181 51l54 -72q-113 -80 -255 -80q-166 0 -266 100t-100 269q0 144 73.5 262.5t193 183.5t255.5 65zM461 193q62 0 99 56t37 134q0 100 -74 100q-63 0 -105 -59.5t-42 -129.5q0 -43 20.5 -72
t64.5 -29z" />
    <glyph glyph-name="atilde.ss09" horiz-adv-x="562" 
d="M295 598q-33 0 -52 -39h-76q40 133 144 133q41 0 70.5 -22t47.5 -22q35 0 53 39h78q-41 -133 -144 -133q-41 0 -72 22t-49 22zM343 509q99 0 149 -47t28 -142l-74 -320h-131l12 50q-74 -60 -169 -60q-70 0 -111.5 29.5t-41.5 92.5q0 37 15.5 66t38 47t60 31.5t70.5 21
t81 14.5q38 6 51.5 8.5t34 9t28.5 16t12 24.5q6 26 -12 40t-54 14q-89 0 -116 -83h-136q21 82 86 135t179 53zM210 86q50 0 95 31t59 95v-1l5 21q-28 -14 -96 -28q-61 -13 -90.5 -29t-29.5 -47q0 -42 57 -42z" />
    <glyph glyph-name="braceleft.case" horiz-adv-x="399" 
d="M449 856h89l-25 -109h-50q-86 0 -107 -88l-38 -165q-29 -120 -149 -150q104 -45 75 -170l-29 -123q-12 -56 11 -77t73 -21h31l-25 -109h-54q-89 0 -134.5 55.5t-23.5 154.5l30 130q12 55 -7.5 81t-77.5 38l7 34l5 22l1 4l8 34q64 12 96.5 38t44.5 81l37 162
q19 83 72.5 130.5t139.5 47.5z" />
    <glyph glyph-name="braceright.case" horiz-adv-x="400" 
d="M400 363l-5 -22l-1 -4l-8 -34q-64 -12 -96.5 -38t-44.5 -81l-37 -162q-19 -83 -72.5 -130.5t-139.5 -47.5h-89l25 109h50q86 0 107 88l38 165q29 120 149 150q-104 45 -75 170l29 123q12 56 -11 77t-73 21h-31l25 109h54q89 0 134.5 -55.5t23.5 -154.5l-30 -130
q-12 -55 7.5 -81t77.5 -38z" />
    <glyph glyph-name="bracketleft.case" horiz-adv-x="354" 
d="M468 747h-163l-183 -794h163l-26 -109h-286l234 1012h286z" />
    <glyph glyph-name="bracketright.case" horiz-adv-x="354" 
d="M427 856l-234 -1012h-286l25 109h163l183 794h-163l26 109h286z" />
    <glyph glyph-name="bullet.case" horiz-adv-x="236" 
d="M54 310l34 148h157l-34 -148h-157z" />
    <glyph glyph-name="bullet.case.ss02" horiz-adv-x="249" 
d="M137 297q-32 0 -50 19t-18 49q0 41 31 71t75 30q31 0 49 -19t18 -49q0 -41 -31 -71t-74 -30z" />
    <glyph glyph-name="bullet.ss02" horiz-adv-x="249" 
d="M124 241q-32 0 -50 19t-18 49q0 41 31 71t75 30q31 0 49 -19t18 -49q0 -41 -31 -71t-74 -30z" />
    <glyph glyph-name="cdotaccent.ss02" horiz-adv-x="575" 
d="M352 557q-31 0 -48.5 18.5t-17.5 47.5q0 40 30 69t73 29q30 0 47 -18.5t17 -47.5q0 -39 -29.5 -68.5t-71.5 -29.5zM404 306q3 43 -17 67.5t-63 24.5q-69 0 -112.5 -55.5t-43.5 -130.5q0 -51 24 -80t68 -29q84 0 122 90h139q-33 -97 -100.5 -150t-166.5 -53
q-109 0 -169 58t-60 156q0 127 85 216.5t218 89.5q108 0 166.5 -59t46.5 -145h-137z" />
    <glyph glyph-name="cent.ss07" horiz-adv-x="552" 
d="M532 363h-127q2 35 -20 55t-62 20q-61 0 -105 -43.5t-44 -116.5q0 -98 91 -98q87 0 120 74h126q-29 -82 -88.5 -126t-138.5 -51l-18 -77h-102l20 83q-68 16 -105 64.5t-37 125.5q0 108 69 181.5t178 87.5l18 79h102l-19 -80q72 -13 111 -58t31 -120z" />
    <glyph glyph-name="colon.ss02" horiz-adv-x="270" 
d="M157 341q-32 0 -50 19t-18 49q0 41 31 71t75 30q31 0 49 -19t18 -49q0 -41 -31 -71t-74 -30zM76 -10q-32 0 -50 19t-18 49q0 41 31 71t75 30q31 0 49 -19t18 -49q0 -41 -31 -71t-74 -30z" />
    <glyph glyph-name="comma.ss02" horiz-adv-x="265" 
d="M104 159q32 0 49 -21.5t17 -58.5q0 -80 -57.5 -137.5t-158.5 -65.5l11 51q33 5 61 21.5t36 41.5q-31 1 -46.5 20t-15.5 46q0 42 31 72.5t73 30.5z" />
    <glyph glyph-name="dcaron.ss02" horiz-adv-x="599" 
d="M506 710h139l-164 -710h-139l13 55q-55 -65 -151 -65q-86 0 -133 56t-47 150q0 132 84.5 223t195.5 91q98 0 139 -71zM783 687q31 0 46.5 -19.5t15.5 -52.5q0 -72 -54.5 -124t-150.5 -59l11 46q32 5 58 20t34 37q-29 1 -44 18t-15 41q0 38 29.5 65.5t69.5 27.5zM255 94
q64 0 104.5 58t40.5 136q0 109 -86 109q-66 0 -105 -60.5t-39 -134.5q0 -108 85 -108z" />
    <glyph glyph-name="dieresis.ss02" horiz-adv-x="438" 
d="M231 558q-27 0 -42 16t-15 41q0 34 26 59t63 25q26 0 41 -16t15 -41q0 -34 -26 -59t-62 -25zM448 558q-27 0 -42 16t-15 41q0 34 26 59t63 25q26 0 41 -16t15 -41q0 -34 -26 -59t-62 -25z" />
    <glyph glyph-name="divide.ss02" horiz-adv-x="575" 
d="M322 345q-27 0 -42 16t-15 41q0 34 26 59t63 25q26 0 41 -16t15 -41q0 -34 -26 -59t-62 -25zM51 297h495l-25 -111h-496zM241 -2q-27 0 -42 16t-15 41q0 34 26 59t63 25q26 0 41 -16t15 -41q0 -34 -26 -59t-62 -25z" />
    <glyph glyph-name="dollar.ss03" horiz-adv-x="579" 
d="M579 490h-132q8 50 -15 74t-65 24q-47 0 -82 -25.5t-35 -68.5q0 -34 26 -52t90 -44q2 0 3 -0.5t3 -1t3 -1.5q73 -30 112 -70.5t39 -109.5q0 -92 -67.5 -150.5t-173.5 -71.5l-21 -93h-114l22 95q-90 16 -129.5 76t-22.5 152h134q-9 -60 22.5 -89.5t87.5 -29.5
q49 0 82.5 23t33.5 67q0 38 -25.5 57.5t-86.5 42.5q-82 32 -124 70t-42 110q0 92 67 153.5t166 76.5l20 86h114l-20 -88q78 -17 111.5 -74.5t18.5 -137.5z" />
    <glyph glyph-name="dollar.ss07" horiz-adv-x="526" 
d="M527 425h-129q7 47 -15 72t-65 25q-44 0 -75 -24.5t-31 -61.5q0 -8 1.5 -15.5t5.5 -14t7 -11t10.5 -10.5t12 -9t14.5 -8.5t14 -7.5t16 -7.5t16 -7.5q65 -31 102 -68.5t37 -100.5q0 -77 -55.5 -126t-141.5 -58l-17 -74h-102l19 79q-69 15 -97.5 65.5t-16.5 121.5h126
q-6 -40 11.5 -60t53.5 -20t58.5 17.5t22.5 46.5q0 13 -4.5 23.5t-17 19.5t-21.5 14t-30.5 15.5t-31.5 15.5q-58 29 -94.5 69.5t-36.5 106.5q0 84 63 136t160 61l17 71h102l-18 -76q75 -16 109 -68t21 -131z" />
    <glyph glyph-name="dollar.ss07.ss03" horiz-adv-x="516" 
d="M506 435h-126q6 41 -10.5 61t-50.5 20q-38 0 -65.5 -21t-27.5 -58q0 -7 1.5 -13.5t3 -11.5t6 -10t7 -8t10 -7.5t11 -7t14 -7t15 -6.5t17.5 -7t18 -7q28 -11 46.5 -21.5t40 -28.5t32.5 -45.5t11 -62.5q0 -83 -58.5 -136t-150.5 -65l-17 -75h-102l18 76q-80 13 -115 66
t-21 135h128q-6 -50 17 -74t67 -24q40 0 67 18.5t27 57.5q0 33 -20.5 48.5t-70.5 34.5q-33 12 -53.5 23t-43.5 29t-34.5 45t-11.5 63q0 84 60 141.5t150 69.5l17 73h102l-18 -77q67 -16 95 -67t15 -121z" />
    <glyph glyph-name="dotaccent.ss02" horiz-adv-x="439" 
d="M296 557q-31 0 -48.5 18.5t-17.5 47.5q0 40 30 69t73 29q30 0 47 -18.5t17 -47.5q0 -39 -29.5 -68.5t-71.5 -29.5z" />
    <glyph glyph-name="edieresis.ss02" horiz-adv-x="572" 
d="M235 558q-27 0 -42 16t-15 41q0 34 26 59t63 25q26 0 41 -16t15 -41q0 -34 -26 -59t-62 -25zM452 558q-27 0 -42 16t-15 41q0 34 26 59t63 25q26 0 41 -16t15 -41q0 -34 -26 -59t-62 -25zM322 510q116 0 169 -72t35 -199q-4 -20 -4 -22h-355v-12q0 -109 98 -109
q78 0 110 72h137q-70 -178 -254 -178q-116 0 -174 59.5t-58 157.5q0 122 80.5 212.5t215.5 90.5zM185 302h212q11 105 -78 105q-92 0 -134 -105z" />
    <glyph glyph-name="edotaccent.ss02" horiz-adv-x="572" 
d="M346 557q-31 0 -48.5 18.5t-17.5 47.5q0 40 30 69t73 29q30 0 47 -18.5t17 -47.5q0 -39 -29.5 -68.5t-71.5 -29.5zM322 510q116 0 169 -72t35 -199q-4 -20 -4 -22h-355v-12q0 -109 98 -109q78 0 110 72h137q-70 -178 -254 -178q-116 0 -174 59.5t-58 157.5
q0 122 80.5 212.5t215.5 90.5zM185 302h212q11 105 -78 105q-92 0 -134 -105z" />
    <glyph glyph-name="eight.dnom" horiz-adv-x="361" 
d="M244 163q39 -19 39 -67q0 -49 -44 -77.5t-107 -28.5q-56 0 -91.5 24t-35.5 66q0 56 70 88q-50 23 -50 74q0 55 46 89t123 34q67 0 105.5 -26t38.5 -71q0 -71 -94 -105zM192 300q-37 0 -61 -16.5t-24 -42.5q0 -9 4 -17t9.5 -12.5t14 -8.5t14 -5.5t11.5 -3.5l7 -1
q87 15 87 63q0 21 -16.5 32.5t-45.5 11.5zM87 88q0 -35 48 -35q30 0 49 14.5t19 36.5q0 30 -47 42q-26 -4 -47.5 -18.5t-21.5 -39.5z" />
    <glyph glyph-name="eight.dnom.ss03" horiz-adv-x="361" 
d="M254 189q48 -21 48 -71q0 -57 -46 -92.5t-126 -35.5q-64 0 -102.5 25.5t-38.5 66.5q0 76 90 107q-34 20 -34 59q0 54 43.5 85.5t108.5 31.5q53 0 89.5 -23t36.5 -62q0 -59 -69 -91zM192 302q-30 0 -48.5 -14t-18.5 -37q0 -33 45 -42q7 1 14.5 3t22.5 8t24 18t9 29
q0 35 -48 35zM135 55q38 0 62 17t24 43q0 35 -61 47q-87 -14 -87 -64q0 -20 16.5 -31.5t45.5 -11.5z" />
    <glyph glyph-name="eight.numr" horiz-adv-x="361" 
d="M323 503q39 -19 39 -67q0 -49 -44 -77.5t-107 -28.5q-56 0 -91.5 24t-35.5 66q0 56 70 88q-50 23 -50 74q0 55 46 89t123 34q67 0 105.5 -26t38.5 -71q0 -71 -94 -105zM271 640q-37 0 -61 -16.5t-24 -42.5q0 -9 4 -17t9.5 -12.5t14 -8.5t14 -5.5t12.5 -3.5l6 -1
q87 15 87 63q0 21 -16.5 32.5t-45.5 11.5zM166 428q0 -35 48 -35q30 0 49 14.5t19 36.5q0 30 -47 42q-26 -4 -47.5 -18.5t-21.5 -39.5z" />
    <glyph glyph-name="eight.numr.ss03" horiz-adv-x="361" 
d="M333 529q48 -21 48 -71q0 -57 -46 -92.5t-126 -35.5q-64 0 -102.5 25.5t-38.5 66.5q0 76 90 107q-34 20 -34 59q0 54 43.5 85.5t108.5 31.5q53 0 89.5 -23t36.5 -62q0 -59 -69 -91zM271 642q-30 0 -48.5 -14t-18.5 -37q0 -33 45 -42q7 1 14.5 3t22.5 8t24 18t9 29
q0 35 -48 35zM214 395q38 0 62 17t24 43q0 35 -61 47q-87 -14 -87 -64q0 -20 16.5 -31.5t45.5 -11.5z" />
    <glyph glyph-name="eight.ss03" horiz-adv-x="655" 
d="M494 360q100 -53 100 -154q0 -91 -82.5 -154t-219.5 -63q-121 0 -188 50.5t-67 137.5q0 146 180 199q-75 46 -75 129q0 88 79.5 143t190.5 55q98 0 160.5 -46.5t62.5 -128.5q0 -120 -141 -168zM406 593q-54 0 -88 -29.5t-34 -74.5q0 -32 20 -53.5t40 -26.5l19 -5
q5 1 13.5 3t30.5 10.5t39 20.5t30.5 34t13.5 49q0 72 -84 72zM295 103q66 0 110 35.5t44 86.5q0 38 -26.5 61.5t-52.5 28.5l-26 5q-3 0 -8.5 -1t-22 -5t-31 -9.5t-32.5 -16t-31 -23t-22 -32t-9 -42.5q0 -41 28 -64.5t79 -23.5z" />
    <glyph glyph-name="eight.ss07" horiz-adv-x="628" 
d="M626 457q0 -126 -163 -172q68 -41 68 -117q0 -83 -75.5 -131t-184.5 -48q-96 0 -155.5 39.5t-59.5 113.5q0 104 122 150q-89 42 -89 130q0 89 81.5 148.5t211.5 59.5q114 0 179 -47t65 -126zM334 335q6 1 16 2.5t36 9t45.5 18.5t35.5 32t16 48q0 36 -28.5 56t-78.5 20
q-64 0 -105.5 -30t-41.5 -73q0 -33 26.5 -53.5t52.5 -24.5zM279 95q52 0 84.5 24.5t32.5 62.5q0 29 -20 48t-40 23l-21 4q-5 -1 -13 -2.5t-28.5 -9t-36.5 -17.5t-29 -28.5t-13 -41.5q0 -63 84 -63z" />
    <glyph glyph-name="eight.ss07.ss03" horiz-adv-x="628" 
d="M476 322q89 -43 89 -134q0 -87 -79 -143t-210 -56q-118 0 -182.5 46t-64.5 124q0 127 164 175q-69 39 -69 113q0 81 76.5 132t183.5 51q96 0 156 -42.5t60 -117.5q0 -103 -124 -148zM377 524q-52 0 -84.5 -24t-32.5 -62q0 -30 20 -49t40 -23l20 -4q5 1 13 2.5t28.5 9
t36.5 17.5t29 29t13 42q0 62 -83 62zM280 99q63 0 104.5 29t41.5 73q0 34 -26 54.5t-52 24.5l-26 4q-6 -1 -16 -2.5t-36 -9t-45.5 -18.5t-35.5 -32t-16 -47q0 -36 27.5 -56t79.5 -20z" />
    <glyph glyph-name="eight.tf" horiz-adv-x="663" 
d="M666 513q0 -144 -174 -195q70 -44 70 -126q0 -93 -80.5 -148t-190.5 -55q-96 0 -159 44.5t-63 127.5q0 116 130 166q-90 44 -90 143q0 101 85.5 167t222.5 66q117 0 183 -50.5t66 -139.5zM361 376q6 1 16.5 3t37.5 12t47.5 23t37.5 37.5t17 54.5q0 41 -28 64t-79 23
q-66 0 -110 -35.5t-44 -84.5q0 -23 11 -41t26 -28t30.5 -17t26.5 -9zM298 100q53 0 87.5 29.5t34.5 73.5q0 32 -20 53.5t-40 27.5l-19 5q-5 -1 -13.5 -3t-30.5 -11t-39 -21t-30.5 -34t-13.5 -49q0 -34 22 -52.5t62 -18.5z" />
    <glyph glyph-name="eight.tf.ss03" horiz-adv-x="663" 
d="M498 360q100 -53 100 -154q0 -91 -82.5 -154t-219.5 -63q-121 0 -188 50.5t-67 137.5q0 146 180 199q-75 46 -75 129q0 88 79.5 143t190.5 55q98 0 160.5 -46.5t62.5 -128.5q0 -120 -141 -168zM410 593q-54 0 -88 -29.5t-34 -74.5q0 -32 20 -53.5t40 -26.5l19 -5
q5 1 13.5 3t30.5 10.5t39 20.5t30.5 34t13.5 49q0 72 -84 72zM299 103q66 0 110 35.5t44 86.5q0 38 -26.5 61.5t-52.5 28.5l-26 5q-3 0 -8.5 -1t-22 -5t-31 -9.5t-32.5 -16t-31 -23t-22 -32t-9 -42.5q0 -41 28 -64.5t79 -23.5z" />
    <glyph glyph-name="eight.tf.ss07" horiz-adv-x="621" 
d="M623 457q0 -126 -163 -172q68 -41 68 -117q0 -83 -75.5 -131t-184.5 -48q-96 0 -155.5 39.5t-59.5 113.5q0 104 122 150q-89 42 -89 130q0 89 81.5 148.5t211.5 59.5q114 0 179 -47t65 -126zM331 335q6 1 16 2.5t36 9t45.5 18.5t35.5 32t16 48q0 36 -28.5 56t-78.5 20
q-64 0 -105.5 -30t-41.5 -73q0 -33 26 -53.5t52 -24.5zM276 95q52 0 84.5 24.5t32.5 62.5q0 29 -20.5 48t-40.5 23l-20 4q-5 -1 -13 -2.5t-28.5 -9t-36.5 -17.5t-29 -28.5t-13 -41.5q0 -63 84 -63z" />
    <glyph glyph-name="eight.tf.ss07.ss03" horiz-adv-x="621" 
d="M473 322q89 -43 89 -134q0 -87 -79 -143t-210 -56q-118 0 -182.5 46t-64.5 124q0 127 164 175q-69 39 -69 113q0 81 76.5 132t183.5 51q96 0 156 -42.5t60 -117.5q0 -103 -124 -148zM374 524q-52 0 -84.5 -24t-32.5 -62q0 -30 20 -49t40 -23l20 -4q5 1 13 2.5t28.5 9
t36.5 17.5t29 29t13 42q0 62 -83 62zM277 99q63 0 104.5 29t41.5 73q0 34 -26 54.5t-52 24.5l-26 4q-6 -1 -16 -2.5t-36 -9t-45.5 -18.5t-35.5 -32t-16 -47q0 -36 27.5 -56t79.5 -20z" />
    <glyph glyph-name="ellipsis.ss02" horiz-adv-x="785" 
d="M76 -10q-32 0 -50 19t-18 49q0 41 31 71t75 30q31 0 49 -19t18 -49q0 -41 -31 -71t-74 -30zM333 -10q-32 0 -50 19t-18 49q0 41 31 71t75 30q31 0 49 -19t18 -49q0 -41 -31 -71t-74 -30zM591 -10q-32 0 -50 19t-18 49q0 41 31 71t75 30q31 0 49 -19t18 -49q0 -41 -31 -71
t-74 -30z" />
    <glyph glyph-name="emdash.case" horiz-adv-x="1133" 
d="M78 416h1054l-26 -112h-1054z" />
    <glyph glyph-name="endash.case" horiz-adv-x="738" 
d="M78 416h659l-26 -112h-659z" />
    <glyph glyph-name="exclam.ss02" horiz-adv-x="270" 
d="M164 700h151l-133 -475h-105zM76 -10q-32 0 -50 19t-18 49q0 41 31 71t75 30q31 0 49 -19t18 -49q0 -41 -31 -71t-74 -30z" />
    <glyph glyph-name="exclamdown.case" horiz-adv-x="257" 
d="M310 700l-34 -148h-157l34 148h157zM144 0h-151l133 475h105z" />
    <glyph glyph-name="exclamdown.case.ss02" horiz-adv-x="270" 
d="M204 541q-32 0 -50 19t-18 49q0 41 31 71t75 30q31 0 49 -19t18 -49q0 -41 -31 -71t-74 -30zM2 0l133 475h104l-86 -475h-151z" />
    <glyph glyph-name="exclamdown.ss02" horiz-adv-x="271" 
d="M153 321q-32 0 -50 19t-18 49q0 41 31 71t75 30q31 0 49 -19t18 -49q0 -41 -31 -71t-74 -30zM-49 -220l133 475h104l-86 -475h-151z" />
    <glyph glyph-name="f_f_i.liga.ss02" horiz-adv-x="1068" 
d="M1037 721q30 0 47 -18.5t17 -47.5q0 -39 -29.5 -68.5t-71.5 -29.5q-31 0 -48.5 18.5t-17.5 47.5q0 40 30 69t73 29zM1053 500l-115 -500h-144l92 400h-229l-92 -400h-143l92 400h-223l-92 -400h-143l92 400h-93l23 100h92l8 33q39 167 208 167h139l-25 -109h-92
q-74 0 -90 -75l-4 -16h222l8 33q39 167 208 167h139l-25 -109h-92q-74 0 -90 -75l-4 -16h373z" />
    <glyph glyph-name="f_f_j.liga.ss02" horiz-adv-x="1069" 
d="M1038 721q30 0 47 -18.5t17 -47.5q0 -39 -29.5 -68.5t-71.5 -29.5q-31 0 -48.5 18.5t-17.5 47.5q0 40 30 69t73 29zM1054 500l-105 -457l-21 -94q-40 -169 -226 -169h-128l26 113h72q99 0 120 94l16 70l79 343h-230l-92 -400h-143l92 400h-223l-92 -400h-143l92 400h-93
l23 100h92l8 33q39 167 208 167h139l-25 -109h-92q-74 0 -90 -75l-4 -16h222l8 33q39 167 208 167h139l-25 -109h-92q-74 0 -90 -75l-4 -16h374z" />
    <glyph glyph-name="f_i.liga.ss02" horiz-adv-x="703" 
d="M672 721q30 0 47 -18.5t17 -47.5q0 -39 -29.5 -68.5t-71.5 -29.5q-31 0 -48.5 18.5t-17.5 47.5q0 40 30 69t73 29zM688 500l-115 -500h-144l92 400h-230l-92 -400h-143l92 400h-93l23 100h92l8 33q39 167 208 167h139l-25 -109h-92q-74 0 -90 -75l-4 -16h374z" />
    <glyph glyph-name="f_j.liga.ss02" horiz-adv-x="691" 
d="M672 721q30 0 47 -18.5t17 -47.5q0 -39 -29.5 -68.5t-71.5 -29.5q-31 0 -48.5 18.5t-17.5 47.5q0 40 30 69t73 29zM688 500l-105 -457l-21 -94q-40 -169 -226 -169h-128l26 113h72q99 0 120 94l16 70l79 343h-230l-92 -400h-143l92 400h-93l23 100h92l8 33
q39 167 208 167h139l-25 -109h-92q-74 0 -90 -75l-4 -16h374z" />
    <glyph glyph-name="five.dnom" horiz-adv-x="350" 
d="M186 238q50 0 77.5 -29.5t27.5 -78.5q0 -62 -44 -101t-116 -39q-71 0 -104.5 38t-25.5 90h79q-2 -27 10.5 -44t44.5 -17q35 0 57 21t22 51q0 49 -56 49q-43 0 -71 -28l-58 25l71 185h222l-16 -71h-152l-28 -66q27 15 60 15z" />
    <glyph glyph-name="five.numr" horiz-adv-x="350" 
d="M265 578q50 0 77.5 -29.5t27.5 -78.5q0 -62 -44 -101t-116 -39q-71 0 -104.5 38t-25.5 90h79q-2 -27 10.5 -44t44.5 -17q35 0 57 21t22 51q0 49 -56 49q-43 0 -71 -28l-58 25l71 185h222l-16 -71h-152l-28 -66q27 15 60 15z" />
    <glyph glyph-name="five.ss07" horiz-adv-x="578" 
d="M546 504h-252l-46 -113q44 21 93 21q84 0 130.5 -49.5t46.5 -131.5q0 -106 -76.5 -173.5t-194.5 -67.5q-117 0 -169.5 64.5t-39.5 153.5h132q-5 -46 15.5 -76t73.5 -30q58 0 95 35.5t37 88.5q0 40 -23.5 62.5t-70.5 22.5q-66 0 -116 -47l-95 42l119 315h367z" />
    <glyph glyph-name="five.tf" horiz-adv-x="663" 
d="M620 576h-280l-54 -139q43 25 101 25q89 0 144.5 -55.5t55.5 -149.5q0 -116 -83.5 -191.5t-213.5 -75.5q-127 0 -187 72t-44 170h140q-6 -53 18 -88t83 -35q66 0 108.5 42t42.5 103q0 47 -28 74t-80 27q-69 0 -129 -54l-101 45l134 354h402z" />
    <glyph glyph-name="five.tf.ss07" horiz-adv-x="621" 
d="M565 504h-252l-46 -113q44 21 93 21q84 0 130.5 -49.5t46.5 -131.5q0 -106 -76.5 -173.5t-194.5 -67.5q-117 0 -169.5 64.5t-39.5 153.5h132q-5 -46 15.5 -76t73.5 -30q58 0 95 35.5t37 88.5q0 40 -23.5 62.5t-70.5 22.5q-66 0 -116 -47l-95 42l119 315h367z" />
    <glyph glyph-name="fiveeighths.ss03" horiz-adv-x="857" 
d="M24 0l748 700h106l-748 -700h-106zM265 578q50 0 77.5 -29.5t27.5 -78.5q0 -62 -44 -101t-116 -39q-71 0 -104.5 38t-25.5 90h79q-2 -27 10.5 -44t44.5 -17q35 0 57 21t22 51q0 49 -56 49q-43 0 -71 -28l-58 25l71 185h222l-16 -71h-152l-28 -66q27 15 60 15zM750 189
q48 -21 48 -71q0 -57 -46 -92.5t-126 -35.5q-64 0 -102.5 25.5t-38.5 66.5q0 76 90 107q-34 20 -34 59q0 54 43.5 85.5t108.5 31.5q53 0 89.5 -23t36.5 -62q0 -59 -69 -91zM688 302q-30 0 -48.5 -14t-18.5 -37q0 -33 45 -42q7 1 14.5 3t22.5 8t24 18t9 29q0 35 -48 35z
M631 55q38 0 62 17t24 43q0 35 -61 47q-87 -14 -87 -64q0 -20 16.5 -31.5t45.5 -11.5z" />
    <glyph glyph-name="florin.ss07" horiz-adv-x="593" 
d="M532 621h104l-24 -105h-63q-52 0 -78.5 -23.5t-50.5 -78.5l-23 -53h132l-19 -83h-150l-59 -135q-30 -68 -89.5 -105.5t-133.5 -37.5h-94l25 105h62q53 0 79 23t50 77l32 73h-124l19 83h141l48 111q32 74 90 111.5t126 37.5z" />
    <glyph glyph-name="four.dnom" horiz-adv-x="350" 
d="M303 136l-15 -66h-57l-16 -70h-78l16 70h-174l10 49l212 241h97l-52 -224h57zM84 136h84l31 134z" />
    <glyph glyph-name="four.numr" horiz-adv-x="350" 
d="M382 476l-15 -66h-57l-16 -70h-78l16 70h-174l10 49l212 241h97l-52 -224h57zM163 476h84l31 134z" />
    <glyph glyph-name="four.ss07" horiz-adv-x="613" 
d="M573 231l-26 -109h-98l-28 -122h-129l28 122h-303l19 81l367 417h161l-90 -389h99zM198 231h147l54 235z" />
    <glyph glyph-name="four.tf" horiz-adv-x="663" 
d="M619 254l-27 -116h-109l-32 -138h-136l32 138h-333l20 87l408 475h171l-103 -446h109zM199 254h175l66 286z" />
    <glyph glyph-name="four.tf.ss07" horiz-adv-x="621" 
d="M570 231l-26 -109h-98l-28 -122h-129l28 122h-303l19 81l367 417h161l-90 -389h99zM195 231h147l54 235z" />
    <glyph glyph-name="gcommaaccent.ss02" horiz-adv-x="598" 
d="M355 543q-32 0 -49 21.5t-17 58.5q0 80 57.5 137.5t158.5 65.5l-11 -51q-33 -5 -61 -21.5t-36 -41.5q31 -1 46.5 -20t15.5 -46q0 -42 -31 -72.5t-73 -30.5zM459 500h137l-118 -512q-25 -112 -93.5 -165t-187.5 -53q-69 0 -116.5 16.5t-69 45t-28 60t-1.5 67.5h131
q-4 -38 17 -60.5t74 -22.5q59 0 92 30t47 92l13 55q-61 -63 -155 -63q-83 0 -130.5 54t-47.5 149q0 133 85.5 225t196.5 92q48 0 87 -20t51 -57zM253 94q64 0 106.5 56.5t42.5 139.5q0 108 -83 108q-66 0 -109 -59t-43 -138q0 -107 86 -107z" />
    <glyph glyph-name="gdotaccent.ss02" horiz-adv-x="598" 
d="M355 557q-31 0 -48.5 18.5t-17.5 47.5q0 40 30 69t73 29q30 0 47 -18.5t17 -47.5q0 -39 -29.5 -68.5t-71.5 -29.5zM459 500h137l-118 -512q-25 -112 -93.5 -165t-187.5 -53q-69 0 -116.5 16.5t-69 45t-28 60t-1.5 67.5h131q-4 -38 17 -60.5t74 -22.5q59 0 92 30t47 92
l13 55q-61 -63 -155 -63q-83 0 -130.5 54t-47.5 149q0 133 85.5 225t196.5 92q48 0 87 -20t51 -57zM253 94q64 0 106.5 56.5t42.5 139.5q0 108 -83 108q-66 0 -109 -59t-43 -138q0 -107 86 -107z" />
    <glyph glyph-name="guillemotleft.case" horiz-adv-x="648" 
d="M422 555l-214 -207l107 -183h-149l-107 200l197 190h166zM679 555l-214 -207l107 -183h-149l-107 200l197 190h166z" />
    <glyph glyph-name="guillemotright.case" horiz-adv-x="648" 
d="M272 555l107 -200l-197 -190h-166l214 207l-107 183h149zM529 555l107 -200l-197 -190h-166l214 207l-107 183h149z" />
    <glyph glyph-name="guilsinglleft.case" horiz-adv-x="391" 
d="M422 555l-214 -207l107 -183h-149l-107 200l197 190h166z" />
    <glyph glyph-name="guilsinglright.case" horiz-adv-x="391" 
d="M272 555l107 -200l-197 -190h-166l214 207l-107 183h149z" />
    <glyph glyph-name="hyphen.case" horiz-adv-x="518" 
d="M78 416h439l-26 -112h-439z" />
    <glyph glyph-name="i.loclTRK" horiz-adv-x="266" 
d="M133 570l29 124h149l-29 -124h-149zM148 0h-144l115 500h144z" />
    <glyph glyph-name="i.loclTRK.ss02" horiz-adv-x="266" 
d="M210 557q-31 0 -48.5 18.5t-17.5 47.5q0 40 30 69t73 29q30 0 47 -18.5t17 -47.5q0 -39 -29.5 -68.5t-71.5 -29.5zM148 0h-144l115 500h144z" />
    <glyph glyph-name="i.ss02" horiz-adv-x="266" 
d="M210 557q-31 0 -48.5 18.5t-17.5 47.5q0 40 30 69t73 29q30 0 47 -18.5t17 -47.5q0 -39 -29.5 -68.5t-71.5 -29.5zM148 0h-144l115 500h144z" />
    <glyph glyph-name="idieresis.ss02" horiz-adv-x="266" 
d="M99 558q-27 0 -42 16t-15 41q0 34 26 59t63 25q26 0 41 -16t15 -41q0 -34 -26 -59t-62 -25zM316 558q-27 0 -42 16t-15 41q0 34 26 59t63 25q26 0 41 -16t15 -41q0 -34 -26 -59t-62 -25zM148 0h-144l115 500h144z" />
    <glyph glyph-name="ij.ss02" horiz-adv-x="530" 
d="M210 557q-31 0 -48.5 18.5t-17.5 47.5q0 40 30 69t73 29q30 0 47 -18.5t17 -47.5q0 -39 -29.5 -68.5t-71.5 -29.5zM511 721q30 0 47 -18.5t17 -47.5q0 -39 -29.5 -68.5t-71.5 -29.5q-31 0 -48.5 18.5t-17.5 47.5q0 40 30 69t73 29zM263 500l-115 -500h-144l115 500h144z
M383 500h144l-105 -457l-21 -94q-40 -169 -226 -169h-128l26 113h72q99 0 120 94l16 70z" />
    <glyph glyph-name="iogonek.ss02" horiz-adv-x="266" 
d="M247 721q30 0 47 -18.5t17 -47.5q0 -39 -29.5 -68.5t-71.5 -29.5q-31 0 -48.5 18.5t-17.5 47.5q0 40 30 69t73 29zM4 0l115 500h144l-115 -500q-95 -49 -95 -101q0 -43 59 -43h22l-17 -71h-29q-61 0 -91 26.5t-30 69.5q0 24 7.5 42.5t25 33.5t30 22.5t36.5 20.5h-62z" />
    <glyph glyph-name="j.ss02" horiz-adv-x="266" 
d="M247 721q30 0 47 -18.5t17 -47.5q0 -39 -29.5 -68.5t-71.5 -29.5q-31 0 -48.5 18.5t-17.5 47.5q0 40 30 69t73 29zM119 500h144l-105 -457l-21 -94q-40 -169 -226 -169h-128l26 113h72q99 0 120 94l16 70z" />
    <glyph glyph-name="kcommaaccent.ss02" horiz-adv-x="550" 
d="M591 500l-250 -217l146 -283h-144l-102 197l-71 -62l-31 -135h-136l164 710h136l-91 -393l207 183h172zM218 -53q29 0 44 -19.5t15 -52.5q0 -72 -51.5 -124t-142.5 -59l10 46q30 5 55 20t32 37q-28 1 -42 18t-14 41q0 38 28 65.5t66 27.5z" />
    <glyph glyph-name="lcaron.ss02" horiz-adv-x="267" 
d="M149 0h-146l164 710h146zM453 702q31 0 46.5 -19.5t15.5 -52.5q0 -72 -54.5 -124t-150.5 -59l11 46q32 5 58 20t34 37q-29 1 -44 18t-15 41q0 38 29.5 65.5t69.5 27.5z" />
    <glyph glyph-name="lcommaaccent.ss02" horiz-adv-x="267" 
d="M149 0h-146l164 710h146zM63 -53q29 0 44 -19.5t15 -52.5q0 -72 -51.5 -124t-142.5 -59l10 46q30 5 55 20t32 37q-28 1 -42 18t-14 41q0 38 28 65.5t66 27.5z" />
    <glyph glyph-name="ncommaaccent.ss02" horiz-adv-x="609" 
d="M436 510q79 0 114 -54.5t9 -164.5l-67 -291h-144l59 256q18 72 7.5 104.5t-55.5 32.5q-121 0 -178 -243l5 22l-40 -172h-142l115 500h142l-26 -112q82 122 201 122zM242 -53q29 0 44 -19.5t15 -52.5q0 -72 -51.5 -124t-142.5 -59l10 46q30 5 55 20t32 37q-28 1 -42 18
t-14 41q0 38 28 65.5t66 27.5z" />
    <glyph glyph-name="nine.dnom" horiz-adv-x="357" 
d="M142 119q-48 0 -80 30t-32 80q0 60 45 98t107 38q134 0 134 -143q0 -106 -54 -169t-138 -63q-62 0 -97 34t-29 81h73q-2 -22 11 -36t41 -14q42 0 70.5 29.5t41.5 75.5q-41 -41 -93 -41zM188 300q-29 0 -53.5 -19t-24.5 -52q0 -25 14 -37.5t35 -12.5q29 0 53.5 20.5
t24.5 52.5q0 24 -14 36t-35 12z" />
    <glyph glyph-name="nine.numr" horiz-adv-x="357" 
d="M221 459q-48 0 -80 30t-32 80q0 60 45 98t107 38q134 0 134 -143q0 -106 -54 -169t-138 -63q-62 0 -97 34t-29 81h73q-2 -22 11 -36t41 -14q42 0 70.5 29.5t41.5 75.5q-41 -41 -93 -41zM267 640q-29 0 -53.5 -19t-24.5 -52q0 -25 14 -37.5t35 -12.5q29 0 53.5 20.5
t24.5 52.5q0 24 -14 36t-35 12z" />
    <glyph glyph-name="nine.ss07" horiz-adv-x="597" 
d="M356 630q123 0 178 -91.5t19 -246.5q-37 -158 -121 -230t-191 -72q-103 0 -159.5 57t-45.5 139h120q-2 -38 19.5 -63t67.5 -25q66 0 111.5 49.5t68.5 124.5q-63 -61 -150 -61q-81 0 -132 49.5t-51 131.5q0 104 78.5 171t187.5 67zM304 311q48 0 88.5 36t40.5 92
q0 42 -23 63t-58 21q-47 0 -87.5 -34.5t-40.5 -92.5q0 -42 23 -63.5t57 -21.5z" />
    <glyph glyph-name="nine.tf" horiz-adv-x="663" 
d="M407 710q135 0 193.5 -99.5t17.5 -277.5q-80 -343 -337 -343q-118 0 -180 63.5t-50 155.5h128q-3 -44 21 -74t78 -30q75 0 127 58t78 146q-65 -69 -165 -69q-93 0 -150 56.5t-57 147.5q0 115 87 190.5t209 75.5zM345 347q54 0 101.5 42.5t47.5 108.5q0 48 -26.5 73
t-64.5 25q-55 0 -102.5 -41t-47.5 -108q0 -49 26 -74.5t66 -25.5z" />
    <glyph glyph-name="nine.tf.ss07" horiz-adv-x="621" 
d="M367 630q123 0 178 -91.5t19 -246.5q-37 -158 -121 -230t-191 -72q-103 0 -159.5 57t-45.5 139h120q-2 -38 19.5 -63t67.5 -25q66 0 111.5 49.5t68.5 124.5q-63 -61 -150 -61q-81 0 -132 49.5t-51 131.5q0 104 78.5 171t187.5 67zM315 311q48 0 88.5 36t40.5 92
q0 42 -23 63t-58 21q-47 0 -87.5 -34.5t-40.5 -92.5q0 -42 23 -63.5t57 -21.5z" />
    <glyph glyph-name="odieresis.ss02" horiz-adv-x="581" 
d="M249 558q-27 0 -42 16t-15 41q0 34 26 59t63 25q26 0 41 -16t15 -41q0 -34 -26 -59t-62 -25zM466 558q-27 0 -42 16t-15 41q0 34 26 59t63 25q26 0 41 -16t15 -41q0 -34 -26 -59t-62 -25zM247 -10q-105 0 -163 56.5t-58 159.5q0 133 88.5 218.5t221.5 85.5q105 0 162 -57
t57 -161q0 -133 -87.5 -217.5t-220.5 -84.5zM261 98q69 0 109 60.5t40 134.5q0 107 -88 107q-67 0 -108.5 -58.5t-41.5 -134.5q0 -109 89 -109z" />
    <glyph glyph-name="one.dnom" horiz-adv-x="305" 
d="M269 360l-83 -360h-85l51 219q-53 -27 -128 -28l17 72q56 0 103 23.5t59 73.5h66z" />
    <glyph glyph-name="one.dnom.ss06" horiz-adv-x="340" 
d="M203 70h72l-16 -70h-259l16 70h103l35 149q-55 -27 -128 -28l16 72q57 0 104 23.5t59 73.5h66z" />
    <glyph glyph-name="one.numr" horiz-adv-x="305" 
d="M348 700l-83 -360h-85l51 219q-53 -27 -128 -28l17 72q56 0 103 23.5t59 73.5h66z" />
    <glyph glyph-name="one.numr.ss06" horiz-adv-x="340" 
d="M282 410h72l-16 -70h-259l16 70h103l35 149q-55 -27 -128 -28l16 72q57 0 104 23.5t59 73.5h66z" />
    <glyph glyph-name="one.ss06" horiz-adv-x="586" 
d="M391 120h139l-28 -120h-472l28 120h182l71 307q-95 -43 -241 -46l29 127q50 1 95 11t89.5 30.5t76.5 59t45 91.5h120z" />
    <glyph glyph-name="one.ss07" horiz-adv-x="430" 
d="M448 621l-143 -621h-144l85 369q-81 -34 -197 -37l28 120q41 0 80 9t76 27.5t64.5 52.5t37.5 80h113z" />
    <glyph glyph-name="one.ss07.ss06" horiz-adv-x="562" 
d="M332 119h132l-27 -119h-446l27 119h170l58 250q-81 -34 -197 -37l28 120q41 0 80 9t76 27.5t64.5 52.5t37.5 80h113z" />
    <glyph glyph-name="one.tf" horiz-adv-x="663" 
d="M438 120h139l-28 -120h-472l28 120h182l71 307q-95 -43 -241 -46l29 127q50 1 95 11t89.5 30.5t76.5 59t45 91.5h120z" />
    <glyph glyph-name="one.tf.ss07" horiz-adv-x="621" 
d="M396 119h132l-27 -119h-446l27 119h170l58 250q-81 -34 -197 -37l28 120q41 0 80 9t76 27.5t64.5 52.5t37.5 80h113z" />
    <glyph glyph-name="oneeighth.ss03" horiz-adv-x="846" 
d="M13 0l748 700h106l-748 -700h-106zM348 700l-83 -360h-85l51 219q-53 -27 -128 -28l17 72q56 0 103 23.5t59 73.5h66zM739 189q48 -21 48 -71q0 -57 -46 -92.5t-126 -35.5q-64 0 -102.5 25.5t-38.5 66.5q0 76 90 107q-34 20 -34 59q0 54 43.5 85.5t108.5 31.5
q53 0 89.5 -23t36.5 -62q0 -59 -69 -91zM677 302q-30 0 -48.5 -14t-18.5 -37q0 -33 45 -42q7 1 14.5 3t22.5 8t24 18t9 29q0 35 -48 35zM620 55q38 0 62 17t24 43q0 35 -61 47q-87 -14 -87 -64q0 -20 16.5 -31.5t45.5 -11.5z" />
    <glyph glyph-name="oneeighth.ss06" horiz-adv-x="900" 
d="M46 0l748 700h106l-748 -700h-106zM282 410h72l-16 -70h-259l16 70h103l35 149q-55 -27 -128 -28l16 72q57 0 104 23.5t59 73.5h66zM783 163q39 -19 39 -67q0 -49 -44 -77.5t-107 -28.5q-56 0 -91.5 24t-35.5 66q0 56 70 88q-50 23 -50 74q0 55 46 89t123 34
q67 0 105.5 -26t38.5 -71q0 -71 -94 -105zM731 300q-37 0 -61 -16.5t-24 -42.5q0 -9 4 -17t9.5 -12.5t14 -8.5t14 -5.5t12.5 -3.5l6 -1q87 15 87 63q0 21 -16.5 32.5t-45.5 11.5zM626 88q0 -35 48 -35q30 0 49 14.5t19 36.5q0 30 -47 42q-26 -4 -47.5 -18.5t-21.5 -39.5z
" />
    <glyph glyph-name="oneeighth.ss06.ss03" horiz-adv-x="879" 
d="M46 0l748 700h106l-748 -700h-106zM282 410h72l-16 -70h-259l16 70h103l35 149q-55 -27 -128 -28l16 72q57 0 104 23.5t59 73.5h66zM772 189q48 -21 48 -71q0 -57 -46 -92.5t-126 -35.5q-64 0 -102.5 25.5t-38.5 66.5q0 76 90 107q-34 20 -34 59q0 54 43.5 85.5
t108.5 31.5q53 0 89.5 -23t36.5 -62q0 -59 -69 -91zM710 302q-30 0 -48.5 -14t-18.5 -37q0 -33 45 -42q7 1 14.5 3t22.5 8t24 18t9 29q0 35 -48 35zM653 55q38 0 62 17t24 43q0 35 -61 47q-87 -14 -87 -64q0 -20 16.5 -31.5t45.5 -11.5z" />
    <glyph glyph-name="onehalf.ss06" horiz-adv-x="878" 
d="M46 0l748 700h106l-748 -700h-106zM282 410h72l-16 -70h-259l16 70h103l35 149q-55 -27 -128 -28l16 72q57 0 104 23.5t59 73.5h66zM777 0h-277l11 51l96 60q76 48 107 78t31 67q0 39 -35 39q-55 0 -74 -87h-82q14 72 55 114.5t106 42.5q53 0 84.5 -28t31.5 -76
q0 -47 -30.5 -84t-95.5 -81l-44 -29h132z" />
    <glyph glyph-name="onequarter.ss06" horiz-adv-x="815" 
d="M46 0l748 700h106l-748 -700h-106zM282 410h72l-16 -70h-259l16 70h103l35 149q-55 -27 -128 -28l16 72q57 0 104 23.5t59 73.5h66zM768 136l-15 -66h-57l-16 -70h-78l16 70h-174l10 49l212 241h97l-52 -224h57zM549 136h84l31 134z" />
    <glyph glyph-name="parenleft.case" horiz-adv-x="325" 
d="M381 866l63 -69q-128 -129 -199.5 -270t-71.5 -313q0 -186 67 -328l-85 -52q-39 63 -74.5 173.5t-35.5 227.5q0 93 27 184t63.5 156.5t87.5 129t86.5 97.5t71.5 64z" />
    <glyph glyph-name="parenright.case" horiz-adv-x="328" 
d="M-9 -166l-63 69q128 129 199.5 270t71.5 313q0 186 -67 328l85 52q39 -63 74.5 -173.5t35.5 -227.5q0 -93 -27 -184t-63.5 -156.5t-87.5 -129t-86.5 -97.5t-71.5 -64z" />
    <glyph glyph-name="percent.ss07" horiz-adv-x="863" 
d="M229 315q-60 0 -98.5 38.5t-38.5 96.5q0 74 58.5 127t132.5 53q61 0 99 -38t38 -97q0 -74 -58.5 -127t-132.5 -53zM84 0l598 620h128l-598 -620h-128zM243 412q29 0 50 22t21 52q0 20 -11.5 33.5t-33.5 13.5q-28 0 -49.5 -22t-21.5 -52q0 -20 12 -33.5t33 -13.5zM608 -10
q-60 0 -98.5 38.5t-38.5 96.5q0 74 58.5 127t132.5 53q61 0 99 -38t38 -97q0 -74 -58.5 -127t-132.5 -53zM622 87q29 0 50 22t21 52q0 21 -11.5 34t-33.5 13q-28 0 -49.5 -22t-21.5 -52q0 -20 12 -33.5t33 -13.5z" />
    <glyph glyph-name="period.ss02" horiz-adv-x="270" 
d="M76 -10q-32 0 -50 19t-18 49q0 41 31 71t75 30q31 0 49 -19t18 -49q0 -41 -31 -71t-74 -30z" />
    <glyph glyph-name="periodcentered.case" horiz-adv-x="236" 
d="M54 310l34 148h157l-34 -148h-157z" />
    <glyph glyph-name="periodcentered.case.ss02" horiz-adv-x="249" 
d="M137 297q-32 0 -50 19t-18 49q0 41 31 71t75 30q31 0 49 -19t18 -49q0 -41 -31 -71t-74 -30z" />
    <glyph glyph-name="periodcentered.ss02" horiz-adv-x="249" 
d="M124 241q-32 0 -50 19t-18 49q0 41 31 71t75 30q31 0 49 -19t18 -49q0 -41 -31 -71t-74 -30z" />
    <glyph glyph-name="perthousand.ss07" horiz-adv-x="1221" 
d="M229 315q-60 0 -98.5 38.5t-38.5 96.5q0 74 58.5 127t132.5 53q61 0 99 -38t38 -97q0 -74 -58.5 -127t-132.5 -53zM84 0l598 620h128l-598 -620h-128zM243 412q29 0 50 22t21 52q0 20 -11.5 33.5t-33.5 13.5q-28 0 -49.5 -22t-21.5 -52q0 -20 12 -33.5t33 -13.5zM608 -10
q-60 0 -98.5 38.5t-38.5 96.5q0 74 58.5 127t132.5 53q61 0 99 -38t38 -97q0 -74 -58.5 -127t-132.5 -53zM975 -10q-60 0 -98.5 38.5t-38.5 96.5q0 74 58.5 127t132.5 53q61 0 99 -38t38 -97q0 -74 -58.5 -127t-132.5 -53zM622 87q29 0 50 22t21 52q0 21 -11.5 34t-33.5 13
q-28 0 -49.5 -22t-21.5 -52q0 -20 12 -33.5t33 -13.5zM989 87q29 0 50 22t21 52q0 21 -11.5 34t-33.5 13q-28 0 -49.5 -22t-21.5 -52q0 -20 12 -33.5t33 -13.5z" />
    <glyph glyph-name="question.ss02" horiz-adv-x="521" 
d="M351 710q94 0 147.5 -43.5t53.5 -123.5q0 -50 -23 -86.5t-57.5 -58.5t-70 -42t-65.5 -50t-38 -70l-2 -11h-131l6 26q13 54 42.5 92.5t61.5 59t63 38t51 39.5t20 53q0 62 -66 62q-43 0 -77.5 -31.5t-49.5 -103.5h-134q22 124 90.5 187t178.5 63zM178 -10q-32 0 -50 19
t-18 49q0 41 31 71t75 30q31 0 49 -19t18 -49q0 -41 -31 -71t-74 -30z" />
    <glyph glyph-name="questiondown.case" horiz-adv-x="510" 
d="M269 551l34 148h157l-34 -148h-157zM210 -9q-94 0 -147.5 43.5t-53.5 123.5q0 50 23 86.5t57.5 58.5t70 42t65.5 50t38 70l2 11h131l-6 -26q-13 -54 -42.5 -92.5t-61.5 -59t-63 -38t-51 -39.5t-20 -53q0 -62 66 -62q43 0 77.5 31.5t49.5 103.5h134q-22 -124 -90.5 -187
t-178.5 -63z" />
    <glyph glyph-name="questiondown.case.ss02" horiz-adv-x="510" 
d="M347 541q-32 0 -50 19t-18 49q0 41 31 71t75 30q31 0 49 -19t18 -49q0 -41 -31 -71t-74 -30zM210 -9q-94 0 -147.5 43.5t-53.5 123.5q0 50 23 86.5t57.5 58.5t70 42t65.5 50t38 70l2 11h131l-6 -26q-13 -54 -42.5 -92.5t-61.5 -59t-63 -38t-51 -39.5t-20 -53
q0 -62 66 -62q43 0 77.5 31.5t49.5 103.5h134q-22 -124 -90.5 -187t-178.5 -63z" />
    <glyph glyph-name="questiondown.ss02" horiz-adv-x="471" 
d="M283 321q-32 0 -50 19t-18 49q0 41 31 71t75 30q31 0 49 -19t18 -49q0 -41 -31 -71t-74 -30zM146 -229q-94 0 -147.5 43.5t-53.5 123.5q0 50 23 86.5t57.5 58.5t70 42t65.5 50t38 70l2 11h131l-6 -26q-13 -54 -42.5 -92.5t-61.5 -59t-63 -38t-51 -39.5t-20 -53
q0 -62 66 -62q43 0 77.5 31.5t49.5 103.5h134q-22 -124 -90.5 -187t-178.5 -63z" />
    <glyph glyph-name="quotedbl.ss02" horiz-adv-x="375" 
d="M95 420l22 189q5 50 28.5 75.5t56.5 25.5q34 0 45.5 -24t-5.5 -77l-66 -189h-81zM278 420l22 189q5 50 28.5 75.5t56.5 25.5q34 0 45.5 -24t-5.5 -77l-66 -189h-81z" />
    <glyph glyph-name="quotedblbase.ss02" horiz-adv-x="458" 
d="M97 165q34 0 52 -23.5t18 -66.5q0 -78 -57.5 -138t-157.5 -66l12 53q36 4 62 21.5t34 44.5q-29 1 -44.5 21t-15.5 49q0 43 29.5 74t67.5 31zM301 165q34 0 52 -23.5t18 -66.5q0 -78 -57.5 -138t-157.5 -66l12 53q36 4 62 21.5t34 44.5q-29 1 -44.5 21t-15.5 49
q0 43 29.5 74t67.5 31z" />
    <glyph glyph-name="quotedblleft.ss02" horiz-adv-x="458" 
d="M174 417q-33 0 -51 23.5t-18 66.5q0 78 57.5 138t157.5 66l-13 -53q-36 -4 -62 -21.5t-33 -44.5q29 -1 44 -21t15 -49q0 -44 -29 -74.5t-68 -30.5zM378 417q-33 0 -51 23.5t-18 66.5q0 78 57.5 138t157.5 66l-13 -53q-36 -4 -62 -21.5t-33 -44.5q29 -1 44 -21t15 -49
q0 -44 -29 -74.5t-68 -30.5z" />
    <glyph glyph-name="quotedblright.ss02" horiz-adv-x="457" 
d="M223 709q34 0 52 -23.5t18 -66.5q0 -78 -57.5 -138t-157.5 -66l12 53q36 4 62 21.5t34 44.5q-29 1 -44.5 21t-15.5 49q0 43 29.5 74t67.5 31zM426 709q34 0 52 -23.5t18 -66.5q0 -78 -57.5 -138t-157.5 -66l12 53q36 4 62 21.5t34 44.5q-29 1 -44.5 21t-15.5 49
q0 43 29.5 74t67.5 31z" />
    <glyph glyph-name="quoteleft.ss02" horiz-adv-x="254" 
d="M174 417q-33 0 -51 23.5t-18 66.5q0 78 57.5 138t157.5 66l-13 -53q-36 -4 -62 -21.5t-33 -44.5q29 -1 44 -21t15 -49q0 -44 -29 -74.5t-68 -30.5z" />
    <glyph glyph-name="quoteright.ss02" horiz-adv-x="254" 
d="M223 709q34 0 52 -23.5t18 -66.5q0 -78 -57.5 -138t-157.5 -66l12 53q36 4 62 21.5t34 44.5q-29 1 -44.5 21t-15.5 49q0 43 29.5 74t67.5 31z" />
    <glyph glyph-name="quotesinglbase.ss02" horiz-adv-x="254" 
d="M97 165q34 0 52 -23.5t18 -66.5q0 -78 -57.5 -138t-157.5 -66l12 53q36 4 62 21.5t34 44.5q-29 1 -44.5 21t-15.5 49q0 43 29.5 74t67.5 31z" />
    <glyph glyph-name="quotesingle.ss02" horiz-adv-x="192" 
d="M95 420l22 189q5 50 28.5 75.5t56.5 25.5q34 0 45.5 -24t-5.5 -77l-66 -189h-81z" />
    <glyph glyph-name="rcommaaccent.ss02" horiz-adv-x="456" 
d="M412 500h80l-27 -121h-65q-40 0 -67 -6.5t-56 -26t-50 -61t-37 -107.5l-41 -178h-145l115 500h145l-22 -97q54 97 170 97zM64 -53q29 0 44 -19.5t15 -52.5q0 -72 -51.5 -124t-142.5 -59l10 46q30 5 55 20t32 37q-28 1 -42 18t-14 41q0 38 28 65.5t66 27.5z" />
    <glyph glyph-name="s.ss03" horiz-adv-x="520" 
d="M362 337q8 73 -72 73q-36 0 -58.5 -14t-22.5 -40q0 -8 2 -15t8 -12t11 -8.5t16 -6.5t18 -5t21.5 -5.5t22.5 -5.5q75 -19 116 -51t41 -92q0 -75 -64 -120t-172 -45q-114 0 -171 50.5t-47 135.5h135q-6 -42 18 -61t68 -19q43 0 66.5 15.5t23.5 40.5q0 22 -19 31.5t-74 22.5
q-30 7 -48.5 12.5t-42.5 16.5t-38 24t-23.5 34t-9.5 48q0 75 64.5 122t167.5 47q98 0 150.5 -45t40.5 -128h-128z" />
    <glyph glyph-name="sacute.ss03" horiz-adv-x="520" 
d="M371 700h160l-168 -141h-118zM362 337q8 73 -72 73q-36 0 -58.5 -14t-22.5 -40q0 -8 2 -15t8 -12t11 -8.5t16 -6.5t18 -5t21.5 -5.5t22.5 -5.5q75 -19 116 -51t41 -92q0 -75 -64 -120t-172 -45q-114 0 -171 50.5t-47 135.5h135q-6 -42 18 -61t68 -19q43 0 66.5 15.5
t23.5 40.5q0 22 -19 31.5t-74 22.5q-30 7 -48.5 12.5t-42.5 16.5t-38 24t-23.5 34t-9.5 48q0 75 64.5 122t167.5 47q98 0 150.5 -45t40.5 -128h-128z" />
    <glyph glyph-name="scaron.ss03" horiz-adv-x="520" 
d="M404 696h113l-138 -132h-111l-75 132h107l36 -66zM362 337q8 73 -72 73q-36 0 -58.5 -14t-22.5 -40q0 -8 2 -15t8 -12t11 -8.5t16 -6.5t18 -5t21.5 -5.5t22.5 -5.5q75 -19 116 -51t41 -92q0 -75 -64 -120t-172 -45q-114 0 -171 50.5t-47 135.5h135q-6 -42 18 -61t68 -19
q43 0 66.5 15.5t23.5 40.5q0 22 -19 31.5t-74 22.5q-30 7 -48.5 12.5t-42.5 16.5t-38 24t-23.5 34t-9.5 48q0 75 64.5 122t167.5 47q98 0 150.5 -45t40.5 -128h-128z" />
    <glyph glyph-name="scedilla.ss03" horiz-adv-x="520" 
d="M490 337h-128q8 73 -72 73q-36 0 -58.5 -14t-22.5 -40q0 -8 2 -15t8 -12t11 -8.5t16 -6.5t18 -5t21.5 -5.5t22.5 -5.5q75 -19 116 -51t41 -92q0 -71 -58.5 -116t-158.5 -49q36 -34 36 -82q0 -58 -42.5 -90.5t-128.5 -32.5h-44l16 70h37q42 0 63.5 19t21.5 48q0 39 -45 73
q-81 14 -120 62t-31 119h135q-6 -42 18 -61t68 -19q43 0 66.5 15.5t23.5 40.5q0 22 -19 31.5t-74 22.5q-30 7 -48.5 12.5t-42.5 16.5t-38 24t-23.5 34t-9.5 48q0 75 64.5 122t167.5 47q98 0 150.5 -45t40.5 -128z" />
    <glyph glyph-name="scircumflex.ss03" horiz-adv-x="520" 
d="M488 564h-107l-36 65l-67 -65h-113l137 132h111zM362 337q8 73 -72 73q-36 0 -58.5 -14t-22.5 -40q0 -8 2 -15t8 -12t11 -8.5t16 -6.5t18 -5t21.5 -5.5t22.5 -5.5q75 -19 116 -51t41 -92q0 -75 -64 -120t-172 -45q-114 0 -171 50.5t-47 135.5h135q-6 -42 18 -61t68 -19
q43 0 66.5 15.5t23.5 40.5q0 22 -19 31.5t-74 22.5q-30 7 -48.5 12.5t-42.5 16.5t-38 24t-23.5 34t-9.5 48q0 75 64.5 122t167.5 47q98 0 150.5 -45t40.5 -128h-128z" />
    <glyph glyph-name="scommaaccent.ss02" horiz-adv-x="520" 
d="M159 163q-10 -74 71 -74q73 0 73 51q0 24 -18.5 34.5t-67.5 24.5q-7 2 -11 3q-77 20 -117 51.5t-40 89.5q0 76 65.5 121.5t169.5 45.5q112 0 169.5 -51.5t49.5 -134.5h-129q4 38 -22.5 59t-71.5 21q-39 0 -64.5 -15t-25.5 -41q0 -22 20.5 -32.5t73.5 -23.5
q76 -20 117.5 -51t41.5 -94q0 -75 -60.5 -116t-152.5 -41q-104 0 -159.5 49.5t-44.5 123.5h133zM199 -53q29 0 44 -19.5t15 -52.5q0 -72 -51.5 -124t-142.5 -59l10 46q30 5 55 20t32 37q-28 1 -42 18t-14 41q0 38 28 65.5t66 27.5z" />
    <glyph glyph-name="scommaaccent.ss03" horiz-adv-x="520" 
d="M490 337h-128q8 73 -72 73q-36 0 -58.5 -14t-22.5 -40q0 -8 2 -15t8 -12t11 -8.5t16 -6.5t18 -5t21.5 -5.5t22.5 -5.5q75 -19 116 -51t41 -92q0 -75 -64 -120t-172 -45q-114 0 -171 50.5t-47 135.5h135q-6 -42 18 -61t68 -19q43 0 66.5 15.5t23.5 40.5q0 22 -19 31.5
t-74 22.5q-30 7 -48.5 12.5t-42.5 16.5t-38 24t-23.5 34t-9.5 48q0 75 64.5 122t167.5 47q98 0 150.5 -45t40.5 -128zM108 -182l29 122h132l-18 -76q-20 -86 -61.5 -121.5t-123.5 -39.5l12 52q72 1 87 63h-57z" />
    <glyph glyph-name="scommaaccent.ss03.ss02" horiz-adv-x="520" 
d="M362 337q8 73 -72 73q-36 0 -58.5 -14t-22.5 -40q0 -8 2 -15t8 -12t11 -8.5t16 -6.5t18 -5t21.5 -5.5t22.5 -5.5q75 -19 116 -51t41 -92q0 -75 -64 -120t-172 -45q-114 0 -171 50.5t-47 135.5h135q-6 -42 18 -61t68 -19q43 0 66.5 15.5t23.5 40.5q0 22 -19 31.5t-74 22.5
q-30 7 -48.5 12.5t-42.5 16.5t-38 24t-23.5 34t-9.5 48q0 75 64.5 122t167.5 47q98 0 150.5 -45t40.5 -128h-128zM201 -53q29 0 44 -19.5t15 -52.5q0 -72 -51.5 -124t-142.5 -59l10 46q30 5 55 20t32 37q-28 1 -42 18t-14 41q0 38 28 65.5t66 27.5z" />
    <glyph glyph-name="semicolon.ss02" horiz-adv-x="266" 
d="M154 341q-32 0 -50 19t-18 49q0 41 31 71t75 30q31 0 49 -19t18 -49q0 -41 -31 -71t-74 -30zM104 159q32 0 49 -21.5t17 -58.5q0 -80 -57.5 -137.5t-158.5 -65.5l11 51q33 5 61 21.5t36 41.5q-31 1 -46.5 20t-15.5 46q0 42 31 72.5t73 30.5z" />
    <glyph glyph-name="seven.dnom" horiz-adv-x="320" 
d="M51 360h275l-11 -49l-232 -311h-97l215 288h-166z" />
    <glyph glyph-name="seven.dnom.ss06" horiz-adv-x="321" 
d="M327 360l-11 -49l-232 -311h-97l215 288h-91l-12 -48h-75l28 120h275z" />
    <glyph glyph-name="seven.numr" horiz-adv-x="320" 
d="M130 700h275l-11 -49l-232 -311h-97l215 288h-166z" />
    <glyph glyph-name="seven.numr.ss06" horiz-adv-x="321" 
d="M406 700l-11 -49l-232 -311h-97l215 288h-91l-12 -48h-75l28 120h275z" />
    <glyph glyph-name="seven.ss06" horiz-adv-x="613" 
d="M672 700l-21 -88l-452 -612h-175l425 574h-189l-22 -95h-136l51 221h519z" />
    <glyph glyph-name="seven.ss07" horiz-adv-x="566" 
d="M135 621h475l-19 -82l-406 -539h-161l380 502h-296z" />
    <glyph glyph-name="seven.ss07.ss06" horiz-adv-x="566" 
d="M135 621h475l-19 -82l-406 -539h-161l380 502h-171l-19 -82h-125l29 127z" />
    <glyph glyph-name="seven.tf" horiz-adv-x="663" 
d="M171 700h519l-21 -88l-452 -612h-175l425 574h-325z" />
    <glyph glyph-name="seven.tf.ss06" horiz-adv-x="613" 
d="M672 700l-21 -88l-452 -612h-175l425 574h-189l-22 -95h-136l51 221h519z" />
    <glyph glyph-name="seven.tf.ss07" horiz-adv-x="621" 
d="M158 621h475l-19 -82l-406 -539h-161l380 502h-296z" />
    <glyph glyph-name="seven.tf.ss07.ss06" horiz-adv-x="621" 
d="M158 621h475l-19 -82l-406 -539h-161l380 502h-171l-19 -82h-125l29 127z" />
    <glyph glyph-name="seveneighths.ss03" horiz-adv-x="766" 
d="M-67 0l748 700h106l-748 -700h-106zM130 700h275l-11 -49l-232 -311h-97l215 288h-166zM659 189q48 -21 48 -71q0 -57 -46 -92.5t-126 -35.5q-64 0 -102.5 25.5t-38.5 66.5q0 76 90 107q-34 20 -34 59q0 54 43.5 85.5t108.5 31.5q53 0 89.5 -23t36.5 -62q0 -59 -69 -91z
M597 302q-30 0 -48.5 -14t-18.5 -37q0 -33 45 -42q7 1 14.5 3t22.5 8t24 18t9 29q0 35 -48 35zM540 55q38 0 62 17t24 43q0 35 -61 47q-87 -14 -87 -64q0 -20 16.5 -31.5t45.5 -11.5z" />
    <glyph glyph-name="seveneighths.ss06" horiz-adv-x="788" 
d="M-66 0l748 700h106l-748 -700h-106zM406 700l-11 -49l-232 -311h-97l215 288h-91l-12 -48h-75l28 120h275zM671 163q39 -19 39 -67q0 -49 -44 -77.5t-107 -28.5q-56 0 -91.5 24t-35.5 66q0 56 70 88q-50 23 -50 74q0 55 46 89t123 34q67 0 105.5 -26t38.5 -71
q0 -71 -94 -105zM619 300q-37 0 -61 -16.5t-24 -42.5q0 -9 4 -17t9.5 -12.5t14 -8.5t14 -5.5t12.5 -3.5l6 -1q87 15 87 63q0 21 -16.5 32.5t-45.5 11.5zM514 88q0 -35 48 -35q30 0 49 14.5t19 36.5q0 30 -47 42q-26 -4 -47.5 -18.5t-21.5 -39.5z" />
    <glyph glyph-name="seveneighths.ss06.ss03" horiz-adv-x="767" 
d="M-66 0l748 700h106l-748 -700h-106zM406 700l-11 -49l-232 -311h-97l215 288h-91l-12 -48h-75l28 120h275zM660 189q48 -21 48 -71q0 -57 -46 -92.5t-126 -35.5q-64 0 -102.5 25.5t-38.5 66.5q0 76 90 107q-34 20 -34 59q0 54 43.5 85.5t108.5 31.5q53 0 89.5 -23
t36.5 -62q0 -59 -69 -91zM598 302q-30 0 -48.5 -14t-18.5 -37q0 -33 45 -42q7 1 14.5 3t22.5 8t24 18t9 29q0 35 -48 35zM541 55q38 0 62 17t24 43q0 35 -61 47q-87 -14 -87 -64q0 -20 16.5 -31.5t45.5 -11.5z" />
    <glyph glyph-name="six.dnom" horiz-adv-x="349" 
d="M180 236q48 0 80 -30t32 -80q0 -60 -45 -98t-107 -38q-134 0 -134 143q0 106 54 169t138 63q62 0 97 -34t29 -81h-73q2 22 -11 36t-41 14q-42 0 -70.5 -29.5t-41.5 -75.5q41 41 93 41zM134 55q29 0 53.5 19t24.5 52q0 25 -14 37.5t-35 12.5q-29 0 -53.5 -20t-24.5 -53
q0 -24 14 -36t35 -12z" />
    <glyph glyph-name="six.numr" horiz-adv-x="349" 
d="M259 576q48 0 80 -30t32 -80q0 -60 -45 -98t-107 -38q-134 0 -134 143q0 106 54 169t138 63q62 0 97 -34t29 -81h-73q2 22 -11 36t-41 14q-42 0 -70.5 -29.5t-41.5 -75.5q41 41 93 41zM213 395q29 0 53.5 19t24.5 52q0 25 -14 37.5t-35 12.5q-29 0 -53.5 -20t-24.5 -53
q0 -24 14 -36t35 -12z" />
    <glyph glyph-name="six.ss07" horiz-adv-x="586" 
d="M582 434h-120q2 38 -19.5 63t-67.5 25q-66 0 -111.5 -49.5t-67.5 -124.5q61 61 149 61q81 0 132 -49.5t51 -131.5q0 -104 -78.5 -171t-187.5 -67q-123 0 -178 91.5t-19 246.5q37 158 121 230t191 72q103 0 159.5 -57t45.5 -139zM314 309q-48 0 -88.5 -36t-40.5 -92
q0 -42 23 -63t58 -21q47 0 87.5 34.5t40.5 92.5q0 42 -23 63.5t-57 21.5z" />
    <glyph glyph-name="six.tf" horiz-adv-x="663" 
d="M656 491h-128q3 44 -21 74t-78 30q-75 0 -127 -58t-78 -146q65 69 165 69q93 0 150 -56.5t57 -147.5q0 -115 -87 -190.5t-209 -75.5q-135 0 -193.5 99.5t-17.5 277.5q80 343 337 343q118 0 180 -63.5t50 -155.5zM362 353q-54 0 -101.5 -42.5t-47.5 -108.5q0 -48 26.5 -73
t64.5 -25q55 0 102.5 41t47.5 108q0 49 -26 74.5t-66 25.5z" />
    <glyph glyph-name="six.tf.ss07" horiz-adv-x="621" 
d="M599 434h-120q2 38 -19.5 63t-67.5 25q-66 0 -111.5 -49.5t-67.5 -124.5q61 61 149 61q81 0 132 -49.5t51 -131.5q0 -104 -78.5 -171t-187.5 -67q-123 0 -178 91.5t-19 246.5q37 158 121 230t191 72q103 0 159.5 -57t45.5 -139zM331 309q-48 0 -88.5 -36t-40.5 -92
q0 -42 23 -63t58 -21q47 0 87.5 34.5t40.5 92.5q0 42 -23 63.5t-57 21.5z" />
    <glyph glyph-name="sterling.ss07" horiz-adv-x="583" 
d="M560 408l-115 1q21 117 -80 117q-57 0 -85.5 -30.5t-28.5 -70.5q0 -17 7 -34t14.5 -27t22.5 -28.5t22 -27.5h164l-19 -84h-111v-12q0 -71 -64 -110h207l-23 -102h-460l19 82q101 7 151 35.5t50 83.5q0 9 -2 23h-156l19 84h86q-46 57 -46 123q0 91 64.5 144.5t162.5 53.5
q102 0 161 -58t40 -163z" />
    <glyph glyph-name="tcaron.ss02" horiz-adv-x="415" 
d="M488 710q31 0 46.5 -19.5t15.5 -52.5q0 -72 -54.5 -124t-150.5 -59l11 46q32 5 58 20t34 37q-29 1 -44 18t-15 41q0 38 29.5 65.5t69.5 27.5zM226 200q-21 -88 62 -88h61l-26 -112h-104q-80 0 -120 48.5t-20 136.5l49 215h-92l23 100h92l26 112l150 26z" />
    <glyph glyph-name="three.dnom" horiz-adv-x="359" 
d="M240 166q38 -16 38 -67q0 -44 -36.5 -76.5t-105.5 -32.5q-72 0 -103.5 35.5t-21.5 87.5h84q-9 -54 43 -54q27 0 44 15t17 34q0 35 -54 35h-21l13 54h33q33 0 52.5 16t19.5 41q0 40 -50 40q-66 0 -86 -68h-82q41 136 172 136q62 0 96.5 -26.5t34.5 -72.5q0 -72 -87 -97z
" />
    <glyph glyph-name="three.dnom.ss03" horiz-adv-x="359" 
d="M245 187q48 -15 48 -67q0 -58 -44 -94t-119 -36q-74 0 -106.5 38t-22.5 97h82q-5 -34 10 -51t45 -17q31 0 51.5 16t20.5 43q0 39 -52 39h-31l13 54h25q33 0 50.5 14.5t17.5 35.5q0 15 -10.5 24.5t-31.5 9.5q-52 0 -67 -54h-85q17 56 57.5 89.5t105.5 33.5q55 0 85.5 -24
t30.5 -59q0 -31 -19 -55.5t-54 -36.5z" />
    <glyph glyph-name="three.numr" horiz-adv-x="359" 
d="M319 506q38 -16 38 -67q0 -44 -36.5 -76.5t-105.5 -32.5q-72 0 -103.5 35.5t-21.5 87.5h84q-9 -54 43 -54q27 0 44 15t17 34q0 35 -54 35h-21l13 54h33q33 0 52.5 16t19.5 41q0 40 -50 40q-66 0 -86 -68h-82q41 136 172 136q62 0 96.5 -26.5t34.5 -72.5q0 -72 -87 -97z
" />
    <glyph glyph-name="three.numr.ss03" horiz-adv-x="359" 
d="M324 527q48 -15 48 -67q0 -58 -44 -94t-119 -36q-74 0 -106.5 38t-22.5 97h82q-5 -34 10 -51t45 -17q31 0 51.5 16t20.5 43q0 39 -52 39h-31l13 54h25q33 0 50.5 14.5t17.5 35.5q0 15 -10.5 24.5t-31.5 9.5q-52 0 -67 -54h-85q17 56 57.5 89.5t105.5 33.5q55 0 85.5 -24
t30.5 -59q0 -31 -19 -55.5t-54 -36.5z" />
    <glyph glyph-name="three.ss03" horiz-adv-x="632" 
d="M628 536q0 -62 -38.5 -106.5t-103.5 -63.5q90 -40 90 -147q0 -101 -79.5 -165t-210.5 -64q-140 0 -202 73t-43 183h143q-12 -66 17 -101.5t88 -35.5t99.5 31.5t40.5 84.5q0 87 -109 87h-47l17 76h1l5 21h47q65 0 99.5 31t34.5 75q0 33 -20.5 53.5t-59.5 20.5
q-98 0 -131 -110h-148q32 109 104.5 170t186.5 61q107 0 163 -50.5t56 -123.5z" />
    <glyph glyph-name="three.ss07" horiz-adv-x="586" 
d="M583 458q0 -64 -42 -107t-111 -62q70 -33 70 -115q0 -77 -64.5 -130.5t-176.5 -53.5q-63 0 -107.5 18.5t-67 49t-30 66.5t-1.5 75h140q-9 -51 12.5 -73t59.5 -22q46 0 74.5 26t28.5 62q0 63 -85 63h-39l11 51h1l8 40h57q55 0 87.5 26.5t32.5 70.5q0 36 -23 55t-61 19
q-48 0 -87.5 -29.5t-56.5 -89.5h-136q70 231 287 231q101 0 160 -47t59 -124z" />
    <glyph glyph-name="three.ss07.ss03" horiz-adv-x="586" 
d="M570 478q0 -54 -37 -94.5t-98 -58.5q89 -38 89 -133q0 -89 -74.5 -145.5t-195.5 -56.5q-129 0 -181.5 64.5t-36.5 166.5h135q-9 -60 15 -89.5t77 -29.5q52 0 87.5 26.5t35.5 73.5q0 72 -92 72h-47l17 70l5 21h42q57 0 87 25.5t30 62.5q0 28 -17.5 45t-52.5 17
q-84 0 -113 -95h-141q61 209 268 209q96 0 147 -44t51 -107z" />
    <glyph glyph-name="three.tf" horiz-adv-x="663" 
d="M657 521q0 -68 -44.5 -116t-122.5 -69q75 -39 75 -132q0 -88 -69.5 -151t-197.5 -63q-132 0 -187.5 67.5t-38.5 163.5h148q-18 -111 84 -111q54 0 85.5 29.5t31.5 73.5q0 36 -23.5 57t-70.5 21h-44l7 30h-1l15 67h55q67 0 106.5 32t39.5 81q0 42 -27.5 64.5t-71.5 22.5
q-55 0 -100.5 -36t-63.5 -98h-140q31 114 109 185t206 71q110 0 175 -52.5t65 -136.5z" />
    <glyph glyph-name="three.tf.ss03" horiz-adv-x="663" 
d="M642 536q0 -62 -38.5 -106.5t-103.5 -63.5q90 -40 90 -147q0 -101 -79.5 -165t-210.5 -64q-140 0 -202 73t-43 183h143q-12 -66 17 -101.5t88 -35.5t99.5 31.5t40.5 84.5q0 87 -109 87h-47l17 76h1l5 21h47q65 0 99.5 31t34.5 75q0 33 -20.5 53.5t-59.5 20.5
q-98 0 -131 -110h-148q32 109 104.5 170t186.5 61q107 0 163 -50.5t56 -123.5z" />
    <glyph glyph-name="three.tf.ss07" horiz-adv-x="621" 
d="M599 458q0 -64 -42 -107t-111 -62q70 -33 70 -115q0 -77 -64.5 -130.5t-176.5 -53.5q-63 0 -107.5 18.5t-67 49t-30 66.5t-1.5 75h140q-9 -51 12.5 -73t59.5 -22q46 0 74.5 26t28.5 62q0 63 -85 63h-39l11 51h1l8 40h57q55 0 87.5 26.5t32.5 70.5q0 36 -23 55t-61 19
q-48 0 -87.5 -29.5t-56.5 -89.5h-136q70 231 287 231q101 0 160 -47t59 -124z" />
    <glyph glyph-name="three.tf.ss07.ss03" horiz-adv-x="621" 
d="M586 478q0 -54 -37 -94.5t-98 -58.5q89 -38 89 -133q0 -89 -74.5 -145.5t-195.5 -56.5q-129 0 -181.5 64.5t-36.5 166.5h135q-9 -60 15 -89.5t77 -29.5q52 0 87.5 26.5t35.5 73.5q0 72 -92 72h-47l17 70l5 21h42q57 0 87 25.5t30 62.5q0 28 -17.5 45t-52.5 17
q-84 0 -113 -95h-141q61 209 268 209q96 0 147 -44t51 -107z" />
    </font>
</defs>
</svg>
