<?xml version="1.0" standalone="no"?>
<!DOCTYPE svg PUBLIC "-//W3C//DTD SVG 1.1//EN" "http://www.w3.org/Graphics/SVG/1.1/DTD/svg11.dtd" >
<svg xmlns="http://www.w3.org/2000/svg" xmlns:xlink="http://www.w3.org/1999/xlink" version="1.1">
<metadata>
Created by FontForge 20170731 at Tue Jan 24 14:25:49 2017
 By Aleksey,,,
(c) TIGHTYPE 2016
</metadata>
<defs>
<font id="Sneak-Regular" horiz-adv-x="577" >
  <font-face 
    font-family="Sneak"
    font-weight="400"
    font-stretch="normal"
    units-per-em="1000"
    panose-1="0 0 5 0 0 0 0 0 0 0"
    ascent="800"
    descent="-200"
    x-height="500"
    cap-height="700"
    bbox="-250 -286 2175 946"
    underline-thickness="50"
    underline-position="-200"
    unicode-range="U+000D-27FC"
  />
<missing-glyph horiz-adv-x="840" 
d="M780 350q0 -150 -105 -255t-255 -105t-255 106t-105 254q0 149 105.5 254.5t254.5 105.5q151 0 255.5 -105.5t104.5 -254.5zM232 533v-45h44v-128h46v128h44v45h-134zM474 533v-45h45v-128h45v128h45v45h-135zM420 81q109 0 187 76t81 183l-46 8q0 -92 -65 -156.5
t-157 -64.5t-156.5 64.5t-64.5 156.5l-46 -8q3 -107 81 -183t186 -76z" />
    <glyph glyph-name="f_f.liga" unicode="ff" horiz-adv-x="707" 
d="M625 631q-85 0 -85 -99v-32h125v-66h-125v-434h-85v434h-242v-434h-85v434h-91v66h91v42q0 72 42 115t111 43h80v-69h-63q-85 0 -85 -99v-32h242v42q0 72 42 115t111 43h80v-69h-63z" />
    <glyph glyph-name="f_f_i.liga" unicode="ffi" horiz-adv-x="936" 
d="M862 500v-500h-85v434h-237v-434h-85v434h-242v-434h-85v434h-91v66h91v42q0 72 42 115t111 43h80v-69h-63q-85 0 -85 -99v-32h242v42q0 72 42 115t111 43h80v-69h-63q-85 0 -85 -99v-32h322zM771 680h98v-92h-98v92z" />
    <glyph glyph-name="f_f_j.liga" unicode="ffj" horiz-adv-x="936" 
d="M862 500v-560q0 -76 -42.5 -118t-120.5 -42h-81v70h63q97 0 96 100v484h-237v-434h-85v434h-242v-434h-85v434h-91v66h91v42q0 72 42 115t111 43h80v-69h-63q-85 0 -85 -99v-32h242v42q0 72 42 115t111 43h80v-69h-63q-85 0 -85 -99v-32h322zM771 680h98v-92h-98v92z" />
    <glyph glyph-name="f_f_l.liga" unicode="ffl" horiz-adv-x="948" 
d="M788 710h86v-710h-86v434h-248v-434h-85v434h-242v-434h-85v434h-91v66h91v42q0 72 42 115t111 43h80v-69h-63q-85 0 -85 -99v-32h242v42q0 72 42 115t111 43h80v-69h-63q-85 0 -85 -99v-32h248v210z" />
    <glyph glyph-name="f_i.liga" unicode="fi" horiz-adv-x="613" 
d="M539 500v-500h-85v434h-241v-434h-85v434h-91v66h91v42q0 72 42 115t111 43h80v-69h-63q-85 0 -85 -99v-32h326zM448 680h98v-92h-98v92z" />
    <glyph glyph-name="f_j.liga" unicode="fj" horiz-adv-x="608" 
d="M534 500v-560q0 -76 -42.5 -118t-120.5 -42h-81v70h63q97 0 96 100v484h-236v-434h-85v434h-91v66h91v42q0 72 42 115t111 43h80v-69h-63q-85 0 -85 -99v-32h321zM443 680h98v-92h-98v92z" />
    <glyph glyph-name="f_l.liga" unicode="fl" horiz-adv-x="617" 
d="M457 710h86v-710h-86v434h-244v-434h-85v434h-91v66h91v42q0 72 42 115t111 43h80v-69h-63q-85 0 -85 -99v-32h244v210z" />
    <glyph glyph-name=".notdef" horiz-adv-x="840" 
d="M780 350q0 -150 -105 -255t-255 -105t-255 106t-105 254q0 149 105.5 254.5t254.5 105.5q151 0 255.5 -105.5t104.5 -254.5zM232 533v-45h44v-128h46v128h44v45h-134zM474 533v-45h45v-128h45v128h45v45h-135zM420 81q109 0 187 76t81 183l-46 8q0 -92 -65 -156.5
t-157 -64.5t-156.5 64.5t-64.5 156.5l-46 -8q3 -107 81 -183t186 -76z" />
    <glyph glyph-name=".null" horiz-adv-x="0" 
 />
    <glyph glyph-name="nonmarkingreturn" horiz-adv-x="333" 
 />
    <glyph glyph-name="NULL" horiz-adv-x="0" 
 />
    <glyph glyph-name="NULL" horiz-adv-x="0" 
 />
    <glyph glyph-name="CR" unicode="&#xd;" horiz-adv-x="250" 
 />
    <glyph glyph-name="space" unicode=" " horiz-adv-x="260" 
 />
    <glyph glyph-name="exclam" unicode="!" horiz-adv-x="200" 
d="M53 700h94l-14 -507h-65zM50 0v99h100v-99h-100z" />
    <glyph glyph-name="quotedbl" unicode="&#x22;" horiz-adv-x="354" 
d="M72 420l-13 280h82l-13 -280h-56zM226 420l-13 280h82l-13 -280h-56z" />
    <glyph glyph-name="numbersign" unicode="#" horiz-adv-x="689" 
d="M626 397h-101l-32 -174h106v-66h-118l-29 -157h-75l29 157h-179l-29 -157h-75l29 157h-89v66h101l32 174h-106v66h118l29 157h75l-29 -157h179l29 157h75l-29 -157h89v-66zM418 223l32 174h-179l-32 -174h179z" />
    <glyph glyph-name="dollar" unicode="$" horiz-adv-x="581" 
d="M319 344q83 -37 125.5 -77.5t42.5 -111.5q0 -70 -46 -112t-122 -51v-92h-75v92q-82 10 -130 66t-53 137h81q5 -53 32.5 -86t69.5 -42v225h-1l-1 1q-103 40 -149 90t-46 126q0 79 55 131.5t142 60.5v89h75v-91q92 -13 144.5 -74t57.5 -153h-82q-10 129 -120 154v-282z
M131 511q0 -51 28.5 -80.5t84.5 -54.5v253q-47 -8 -80 -39.5t-33 -78.5zM319 66q84 15 84 88q0 68 -84 107v-195z" />
    <glyph glyph-name="percent" unicode="%" horiz-adv-x="765" 
d="M218 405q-65 0 -109.5 44t-44.5 108q0 66 44.5 109.5t109.5 43.5t109.5 -43.5t44.5 -109.5q0 -64 -44.5 -108t-109.5 -44zM93 0l495 700h85l-495 -700h-85zM218 470q36 0 58.5 25t22.5 62t-22.5 62t-58.5 25t-58.5 -25t-22.5 -62t22.5 -62t58.5 -25zM547 -10
q-65 0 -109.5 44t-44.5 108q0 66 44.5 109.5t109.5 43.5t109.5 -43.5t44.5 -109.5q0 -64 -44.5 -108t-109.5 -44zM547 55q36 0 58.5 25t22.5 62t-22.5 62t-58.5 25t-58.5 -25t-22.5 -62t22.5 -62t58.5 -25z" />
    <glyph glyph-name="ampersand" unicode="&#x26;" horiz-adv-x="638" 
d="M625 68h40v-68h-41q-84 0 -160 72q-80 -82 -206 -82q-99 0 -162 49.5t-63 133.5q0 63 36.5 109t105.5 84q-46 47 -68.5 85.5t-22.5 84.5q0 72 52.5 123t135.5 51q80 0 131.5 -47t51.5 -119q0 -67 -43 -112.5t-117 -84.5q7 -6 22 -21l135 -139q31 63 31 180h75
q0 -145 -51 -238q61 -61 118 -61zM270 643q-49 0 -78 -32t-29 -78q0 -35 19 -65t60 -69q30 14 48.5 25t41 28.5t33.5 40t11 48.5q0 44 -30 73t-76 29zM258 59q91 0 153 67l-142 146q-6 7 -13 14t-15.5 15t-12.5 12q-52 -27 -82.5 -58t-30.5 -79q0 -54 40 -85.5t103 -31.5z
" />
    <glyph glyph-name="quotesingle" unicode="'" horiz-adv-x="200" 
d="M72 420l-13 280h82l-13 -280h-56z" />
    <glyph glyph-name="parenleft" unicode="(" horiz-adv-x="287" 
d="M237 804l50 -42q-63 -78 -106 -196.5t-43 -245.5t43 -245.5t106 -196.5l-50 -42q-60 60 -118.5 193.5t-58.5 290.5t58.5 290.5t118.5 193.5z" />
    <glyph glyph-name="parenright" unicode=")" horiz-adv-x="287" 
d="M50 -164l-50 42q63 78 106 196.5t43 245.5t-43 245.5t-106 196.5l50 42q60 -60 118.5 -193.5t58.5 -290.5t-58.5 -290.5t-118.5 -193.5z" />
    <glyph glyph-name="asterisk" unicode="*" horiz-adv-x="402" 
d="M363 561l-124 -33l80 -100l-48 -35l-70 107l-70 -107l-48 35l80 100l-124 33l19 57l119 -45l-6 127h60l-6 -127l119 45z" />
    <glyph glyph-name="plus" unicode="+" horiz-adv-x="586" 
d="M525 279v-69h-192v-210h-79v210h-193v69h193v201h79v-201h192z" />
    <glyph glyph-name="comma" unicode="," horiz-adv-x="204" 
d="M51 99h103v-66q0 -76 -25.5 -109.5t-90.5 -43.5v42q35 7 47 25t12 53h-46v99z" />
    <glyph glyph-name="hyphen" unicode="-" horiz-adv-x="520" 
d="M61 331h398v-70h-398v70z" />
    <glyph glyph-name="period" unicode="." horiz-adv-x="200" 
d="M50 0v99h100v-99h-100z" />
    <glyph glyph-name="slash" unicode="/" horiz-adv-x="457" 
d="M15 -50l344 800h82l-344 -800h-82z" />
    <glyph glyph-name="zero" unicode="0" horiz-adv-x="648" 
d="M324 -10q-69 0 -122 31t-83 84t-44.5 114.5t-14.5 130.5t14.5 130.5t44.5 114.5t83 84t122 31t122 -31t83 -84t44.5 -114.5t14.5 -130.5t-14.5 -130.5t-44.5 -114.5t-83 -84t-122 -31zM324 67q80 0 126 74.5t46 208.5t-46 209t-126 75q-79 0 -125.5 -75t-46.5 -209
t46.5 -208.5t125.5 -74.5z" />
    <glyph glyph-name="one" unicode="1" horiz-adv-x="473" 
d="M382 700v-700h-89v500q-84 -70 -237 -74v76q47 2 88.5 13t79.5 32.5t60.5 60.5t22.5 92h75z" />
    <glyph glyph-name="two" unicode="2" horiz-adv-x="617" 
d="M543 0h-482v59l182 154q50 42 77 66.5t59 62t46 75.5t14 81q0 61 -37 99t-98 38q-75 0 -109 -53.5t-28 -138.5h-88q-5 70 16.5 129t76 98.5t134.5 39.5q103 0 161.5 -60t58.5 -156q0 -93 -55 -169t-167 -168l-98 -83h337v-74z" />
    <glyph glyph-name="three" unicode="3" horiz-adv-x="623" 
d="M425 338q49 -21 78.5 -62.5t29.5 -97.5q0 -80 -59 -134t-162 -54q-107 0 -166 55.5t-68 155.5h87q14 -135 148 -135q64 0 98.5 33t34.5 82q0 54 -37 89.5t-105 35.5h-58v17l-1 52h62q74 0 115 35t41 92q0 63 -42 97.5t-108 34.5q-72 0 -119.5 -40.5t-51.5 -117.5h-84
q4 110 72 172t180 62q105 0 173 -54t68 -150q0 -62 -34.5 -105t-91.5 -63z" />
    <glyph glyph-name="four" unicode="4" horiz-adv-x="625" 
d="M586 218v-73h-111v-145h-84v145h-338v57l304 498h118v-482h111zM150 218h241v403z" />
    <glyph glyph-name="five" unicode="5" horiz-adv-x="621" 
d="M311 445q108 0 172 -61.5t64 -169.5t-67 -166t-174 -58q-106 0 -170.5 61.5t-74.5 160.5h85q8 -64 49.5 -105.5t114.5 -41.5q70 0 111 38.5t41 107.5q0 77 -43.5 119.5t-120.5 42.5q-90 0 -145 -55l-66 34l52 348h370v-76h-296l-35 -219q54 40 133 40z" />
    <glyph glyph-name="six" unicode="6" horiz-adv-x="640" 
d="M339 454q97 0 161.5 -63.5t64.5 -169.5q0 -103 -64 -167t-171 -64q-118 0 -186 86.5t-68 258.5q0 181 68.5 278t196.5 97q97 0 158.5 -61.5t71.5 -151.5h-81q-8 52 -44.5 95t-109.5 43q-91 0 -136 -78.5t-44 -207.5q24 45 70 75t113 30zM330 63q65 0 109 44t44 115
q0 74 -44.5 116.5t-107.5 42.5q-64 0 -108.5 -42.5t-44.5 -114.5q0 -74 45 -117.5t107 -43.5z" />
    <glyph glyph-name="seven" unicode="7" horiz-adv-x="578" 
d="M53 700h475v-58l-320 -642h-101l314 623h-368v77z" />
    <glyph glyph-name="eight" unicode="8" horiz-adv-x="639" 
d="M423 324q54 -20 89 -58t35 -96q0 -80 -65 -130t-162 -50t-162.5 50t-65.5 130q0 58 35 96t89 58q-151 49 -151 181q0 91 70.5 147t184.5 56t183.5 -56t69.5 -147q0 -132 -150 -181zM154 502q0 -34 17 -61.5t41.5 -42t49 -24t41.5 -12.5l17 -3q7 1 18 3t39.5 12t50 24
t39.5 41.5t18 61.5q0 58 -44 96.5t-121 38.5q-78 0 -122 -38.5t-44 -95.5zM320 62q64 0 102 32t38 80q0 28 -14.5 50.5t-35 35t-41 20.5t-35.5 10l-14 3q-6 -1 -15.5 -3t-33.5 -10.5t-43 -20.5t-34 -34.5t-15 -50.5q0 -48 38.5 -80t102.5 -32z" />
    <glyph glyph-name="nine" unicode="9" horiz-adv-x="629" 
d="M305 710q118 0 186 -86.5t68 -258.5q0 -181 -68.5 -278t-196.5 -97q-97 0 -158.5 61.5t-71.5 151.5h81q8 -52 44.5 -95t109.5 -43q91 0 136 78.5t44 207.5q-24 -45 -70 -75t-113 -30q-97 0 -161.5 63.5t-64.5 169.5q0 103 64 167t171 64zM304 319q64 0 108.5 42.5
t44.5 114.5q0 74 -45 117.5t-107 43.5q-65 0 -109 -44t-44 -115q0 -74 44.5 -116.5t107.5 -42.5z" />
    <glyph glyph-name="colon" unicode=":" horiz-adv-x="200" 
d="M50 401v99h100v-99h-100zM50 0v99h100v-99h-100z" />
    <glyph glyph-name="semicolon" unicode=";" horiz-adv-x="204" 
d="M153 500v-99h-100v99h100zM51 99h103v-66q0 -76 -25.5 -109.5t-90.5 -43.5v42q35 7 47 25t12 53h-46v99z" />
    <glyph glyph-name="less" unicode="&#x3c;" horiz-adv-x="573" 
d="M88 277l397 213v-90l-307 -160l307 -160v-90l-397 213v74z" />
    <glyph glyph-name="equal" unicode="=" horiz-adv-x="586" 
d="M61 384h464v-69h-464v69zM61 172h464v-69h-464v69z" />
    <glyph glyph-name="greater" unicode="&#x3e;" horiz-adv-x="573" 
d="M485 203l-397 -213v90l307 160l-307 160v90l397 -213v-74z" />
    <glyph glyph-name="question" unicode="?" horiz-adv-x="504" 
d="M257 710q89 0 142.5 -47.5t53.5 -130.5q0 -46 -19 -81t-46 -57.5t-54 -44t-46 -52t-19 -70.5v-34h-82v36q0 50 19 87.5t45.5 60.5t53.5 43t46 47t19 62q0 52 -31 80.5t-81 28.5q-61 0 -95.5 -46t-31.5 -132h-81q-6 116 51 183t156 67zM178 0v99h100v-99h-100z" />
    <glyph glyph-name="at" unicode="@" horiz-adv-x="1000" 
d="M500 710q120 0 220 -54t160 -154.5t60 -228.5q0 -113 -47 -181.5t-129 -68.5q-94 0 -131 82q-17 -34 -56 -58t-96 -24q-96 0 -152.5 69.5t-56.5 170.5t56.5 170.5t149.5 69.5q90 0 134 -71l2 -2v63h75v-280q0 -125 76 -125q47 0 74 46.5t27 130.5q0 165 -104 272
t-261 107t-261 -106.5t-104 -269.5t103.5 -267.5t271.5 -104.5q119 0 184 58l45 -50q-83 -74 -234 -74q-191 0 -318.5 121.5t-127.5 316.5t127 318.5t313 123.5zM490 88q124 0 124 180q0 82 -34 126t-95 44q-64 0 -100.5 -54t-36.5 -125q0 -69 35 -120t107 -51z" />
    <glyph glyph-name="A" unicode="A" horiz-adv-x="664" 
d="M545 0l-63 177h-301l-63 -177h-94l255 700h106l254 -700h-94zM208 253h247l-123 348z" />
    <glyph glyph-name="B" unicode="B" horiz-adv-x="631" 
d="M424 346q126 -37 126 -162q0 -87 -52 -135.5t-159 -48.5h-167h-89v700h89h190q110 0 164.5 -48.5t54.5 -132.5q0 -142 -157 -173zM361 623h-189v-234h183q63 0 101 33.5t38 91.5q0 51 -33 80t-100 29zM328 78q65 0 98 30t33 85q0 56 -40 88.5t-107 32.5h-140v-236h156z
" />
    <glyph glyph-name="C" unicode="C" horiz-adv-x="740" 
d="M682 242q-15 -122 -92.5 -187t-200.5 -65q-154 0 -241.5 97.5t-87.5 256.5q0 162 89.5 264t240.5 102q120 0 195 -65t91 -174h-93q-12 71 -62 115.5t-133 44.5q-111 0 -174 -80.5t-63 -205.5t64 -201t179 -76q165 0 197 174h91z" />
    <glyph glyph-name="D" unicode="D" horiz-adv-x="700" 
d="M298 700q169 0 255.5 -94t86.5 -256t-86 -256t-256 -94h-215v700h215zM287 78q259 0 259 274q0 270 -259 270h-114v-544h114z" />
    <glyph glyph-name="E" unicode="E" horiz-adv-x="584" 
d="M516 620h-342v-227h319v-76h-319v-237h342v-80h-433v700h433v-80z" />
    <glyph glyph-name="F" unicode="F" horiz-adv-x="557" 
d="M495 620h-321v-231h308v-79h-308v-310h-91v700h412v-80z" />
    <glyph glyph-name="G" unicode="G" horiz-adv-x="764" 
d="M360 355h328v-355h-62l-10 126q-63 -136 -227 -136q-151 0 -240 99t-89 259q0 162 90.5 262t241.5 100q129 0 206.5 -65t86.5 -179h-89q-10 78 -64.5 121.5t-140.5 43.5q-111 0 -175.5 -78.5t-64.5 -203.5q0 -124 65.5 -202.5t181.5 -78.5q92 0 149 57t57 157h-244v73z
" />
    <glyph glyph-name="H" unicode="H" horiz-adv-x="723" 
d="M547 700h93v-700h-93v316h-372v-316h-92v700h92v-305h372v305z" />
    <glyph glyph-name="I" unicode="I" horiz-adv-x="257" 
d="M174 0h-91v700h91v-700z" />
    <glyph glyph-name="J" unicode="J" horiz-adv-x="637" 
d="M465 700h91v-438q0 -132 -65.5 -202t-186.5 -70q-118 0 -183.5 68.5t-65.5 196.5v32h90v-32q0 -93 41.5 -139.5t115.5 -46.5q79 0 121 50.5t42 150.5v430z" />
    <glyph glyph-name="K" unicode="K" horiz-adv-x="610" 
d="M481 0l-248 313l-60 -69v-244h-90v700h90v-328l285 328h114l-280 -320l298 -380h-109z" />
    <glyph glyph-name="L" unicode="L" horiz-adv-x="580" 
d="M176 81h356v-81h-449v700h93v-619z" />
    <glyph glyph-name="M" unicode="M" horiz-adv-x="877" 
d="M794 700v-700h-88v589l-218 -589h-99l-218 589v-589h-88v700h130l226 -619l225 619h130z" />
    <glyph glyph-name="N" unicode="N" horiz-adv-x="728" 
d="M557 700h88v-700h-112l-361 595v-595h-89v700h114l360 -596v596z" />
    <glyph glyph-name="O" unicode="O" horiz-adv-x="780" 
d="M390 -10q-153 0 -241.5 97t-88.5 263t88.5 263t241.5 97q154 0 242 -97t88 -263t-88 -263t-242 -97zM390 69q109 0 172.5 76.5t63.5 204.5t-63.5 204.5t-172.5 76.5t-172.5 -76.5t-63.5 -204.5t63.5 -204.5t172.5 -76.5z" />
    <glyph glyph-name="P" unicode="P" 
d="M302 700q126 0 188.5 -63.5t62.5 -162.5q0 -102 -63 -166.5t-188 -64.5h-129v-243h-90v700h90h129zM317 320q73 0 109.5 44t36.5 110q0 65 -36.5 106.5t-109.5 41.5h-144v-302h144z" />
    <glyph glyph-name="Q" unicode="Q" horiz-adv-x="780" 
d="M778 0h-101l-66 66q-87 -76 -221 -76q-153 0 -241.5 97t-88.5 263t88.5 263t241.5 97q154 0 242 -97t88 -263q0 -136 -62 -229zM390 69q95 0 158 60l-175 175l53 52l165 -167q35 67 35 161q0 128 -63.5 204.5t-172.5 76.5t-172.5 -76.5t-63.5 -204.5t63.5 -204.5
t172.5 -76.5z" />
    <glyph glyph-name="R" unicode="R" horiz-adv-x="636" 
d="M540 169l53 -169h-97l-53 163q-6 18 -13.5 32.5t-13.5 25.5t-18.5 19.5t-19 14t-25 9t-26 5.5t-32.5 3t-35 1h-42.5h-45.5v-273h-89v700h236q125 0 184.5 -60.5t59.5 -147.5q0 -68 -36.5 -117.5t-112.5 -68.5q91 -25 126 -137zM332 620h-160v-269h160q71 0 105.5 41
t34.5 96t-35 93.5t-105 38.5z" />
    <glyph glyph-name="S" unicode="S" horiz-adv-x="640" 
d="M156 207q16 -139 168 -139q125 0 125 99q0 53 -40.5 80.5t-150.5 56.5q-107 26 -159 75t-52 132q0 91 73.5 145t176.5 54q260 0 283 -247h-89q-20 168 -195 168q-66 0 -112.5 -32t-46.5 -89q0 -54 39 -84.5t145 -58.5q49 -12 85 -26.5t68.5 -37t49.5 -56t17 -77.5
q0 -85 -59 -132.5t-162 -47.5q-113 0 -179 58.5t-75 158.5h90z" />
    <glyph glyph-name="T" unicode="T" horiz-adv-x="638" 
d="M597 700v-80h-233v-620h-91v620h-232v80h556z" />
    <glyph glyph-name="U" unicode="U" horiz-adv-x="715" 
d="M80 700h91v-399q0 -232 186 -232t186 232v399h91v-407q0 -147 -70 -225t-207 -78t-207 78t-70 225v407z" />
    <glyph glyph-name="V" unicode="V" horiz-adv-x="689" 
d="M556 700h102l-260 -700h-107l-260 700h102l212 -592z" />
    <glyph glyph-name="W" unicode="W" horiz-adv-x="998" 
d="M864 700h91l-165 -700h-100l-191 611l-192 -611h-100l-165 700h92l128 -589l185 589h104l184 -589z" />
    <glyph glyph-name="X" unicode="X" horiz-adv-x="655" 
d="M627 0h-110l-190 283l-189 -283h-110l244 365l-225 335h111l170 -253l169 253h110l-224 -335z" />
    <glyph glyph-name="Y" unicode="Y" horiz-adv-x="653" 
d="M516 700h100l-342 -700h-101l132 268l-279 432h108l217 -343z" />
    <glyph glyph-name="Z" unicode="Z" horiz-adv-x="631" 
d="M180 80h386v-80h-511v61l373 559h-347v80h472v-61z" />
    <glyph glyph-name="bracketleft" unicode="[" horiz-adv-x="298" 
d="M298 727h-136v-810h136v-69h-215v948h215v-69z" />
    <glyph glyph-name="backslash" unicode="\" horiz-adv-x="457" 
d="M441 -50h-82l-344 800h82z" />
    <glyph glyph-name="bracketright" unicode="]" horiz-adv-x="298" 
d="M215 796v-948h-215v69h136v810h-136v69h215z" />
    <glyph glyph-name="asciicircum" unicode="^" horiz-adv-x="584" 
d="M332 700l209 -379h-96l-153 281l-153 -280h-96l209 378h80z" />
    <glyph glyph-name="underscore" unicode="_" horiz-adv-x="505" 
d="M53 19h398v-70h-398v70z" />
    <glyph glyph-name="grave" unicode="`" horiz-adv-x="411" 
d="M204 699l92 -129h-81l-114 129h103z" />
    <glyph glyph-name="a" unicode="a" horiz-adv-x="547" 
d="M283 509q85 0 138 -41.5t53 -120.5v-347h-81v90q-19 -38 -62.5 -69t-110.5 -31q-72 0 -119 37.5t-47 104.5t47.5 101t153.5 50q79 12 108.5 25.5t29.5 48.5q0 37 -31 60.5t-79 23.5q-116 0 -124 -114h-81q2 79 53.5 130.5t151.5 51.5zM236 55q65 0 111 44.5t46 120.5v41
q-35 -21 -123 -37q-69 -13 -101 -33t-32 -59q0 -38 28 -57.5t71 -19.5z" />
    <glyph glyph-name="b" unicode="b" horiz-adv-x="578" 
d="M310 510q95 0 156.5 -72t61.5 -192q0 -116 -57.5 -186t-155.5 -70q-64 0 -103 27.5t-54 58.5v-76h-84v710h84v-286q18 39 58.5 62.5t93.5 23.5zM302 59q69 0 105.5 49t36.5 133q0 87 -37.5 142.5t-108.5 55.5q-68 0 -104 -49.5t-36 -137.5q0 -92 38 -142.5t106 -50.5z
" />
    <glyph glyph-name="c" unicode="c" horiz-adv-x="565" 
d="M423 323q-7 54 -43.5 85.5t-90.5 31.5q-72 0 -114 -55t-42 -136q0 -85 45 -137.5t119 -52.5q110 0 133 110h81q-12 -82 -67.5 -130.5t-147.5 -48.5q-115 0 -181 74t-66 186q0 111 65.5 185t173.5 74q90 0 149.5 -51t67.5 -135h-82z" />
    <glyph glyph-name="d" unicode="d" 
d="M420 710h83v-710h-83v76q-15 -31 -54.5 -58.5t-103.5 -27.5q-98 0 -155.5 70t-57.5 186q0 120 62 192t157 72q53 0 93.5 -23.5t58.5 -62.5v286zM276 59q68 0 106 50.5t38 142.5q0 88 -36 137.5t-104 49.5q-72 0 -109.5 -55.5t-37.5 -142.5q0 -84 36.5 -133t106.5 -49z
" />
    <glyph glyph-name="e" unicode="e" horiz-adv-x="564" 
d="M429 161h79q-9 -74 -64.5 -122.5t-151.5 -48.5q-115 0 -179 74t-64 186t62.5 185.5t171.5 73.5q106 0 164.5 -70t58.5 -193v-18h-372q5 -78 48 -124t112 -46q54 0 89.5 27.5t45.5 75.5zM285 442q-64 0 -102 -41t-47 -111h286q-6 70 -39.5 111t-97.5 41z" />
    <glyph glyph-name="f" unicode="f" horiz-adv-x="380" 
d="M298 631q-85 0 -85 -99v-32h125v-66h-125v-434h-85v434h-91v66h91v42q0 72 42 115t111 43h80v-69h-63z" />
    <glyph glyph-name="g" unicode="g" horiz-adv-x="575" 
d="M419 500h82v-499q0 -112 -56.5 -171.5t-165.5 -59.5q-104 0 -157.5 52.5t-57.5 131.5h78q4 -48 36 -81.5t102 -33.5q78 0 108.5 43.5t30.5 123.5v72q-14 -31 -53 -59.5t-104 -28.5q-98 0 -155.5 70t-57.5 186q0 120 62 192t156 72q53 0 93.5 -23.5t58.5 -62.5v76zM275 59
q68 0 106 50.5t38 141.5q0 88 -36 137.5t-102 49.5q-72 0 -109.5 -55.5t-37.5 -141.5q0 -83 36.5 -132.5t104.5 -49.5z" />
    <glyph glyph-name="h" unicode="h" horiz-adv-x="578" 
d="M349 510q75 0 115.5 -48t40.5 -144v-318h-85v289q0 78 -22 114.5t-72 36.5q-68 0 -118 -77.5t-50 -208.5v-154h-84v500h1v210h84v-210h-1v-153q54 163 191 163z" />
    <glyph glyph-name="i" unicode="i" horiz-adv-x="233" 
d="M68 588v92h98v-92h-98zM159 0h-85v500h85v-500z" />
    <glyph glyph-name="j" unicode="j" horiz-adv-x="233" 
d="M68 680h98v-92h-98v92zM74 500h85v-560q0 -76 -42.5 -118t-120.5 -42h-81v70h63q97 0 96 100v550z" />
    <glyph glyph-name="k" unicode="k" horiz-adv-x="505" 
d="M390 0l-178 222l-57 -60v-162h-81v710h81v-442l220 232h101l-210 -221l222 -279h-98z" />
    <glyph glyph-name="l" unicode="l" horiz-adv-x="234" 
d="M160 0h-86v710h86v-710z" />
    <glyph glyph-name="m" unicode="m" horiz-adv-x="870" 
d="M642 509q74 0 114.5 -47t40.5 -125v-337h-83v294q0 72 -22.5 107t-71.5 35q-63 0 -103 -66.5t-40 -176.5v-193h-82v294q0 142 -95 142q-63 0 -102.5 -64.5t-39.5 -178.5v-193h-84v500h84v-124q16 53 57.5 93t106.5 40q124 0 149 -138q23 65 67 101.5t104 36.5z" />
    <glyph glyph-name="n" unicode="n" horiz-adv-x="578" 
d="M349 510q75 0 115.5 -48t40.5 -144v-318h-85v289q0 78 -22 114.5t-72 36.5q-68 0 -118 -77.5t-50 -208.5v-154h-84v500h84v-153q54 163 191 163z" />
    <glyph glyph-name="o" unicode="o" 
d="M288 -10q-109 0 -174 71.5t-65 187.5t65 188t174 72t174 -72t65 -188t-65 -187.5t-174 -71.5zM288 58q73 0 114 53.5t41 137.5t-41 137.5t-114 53.5t-114 -53.5t-41 -137.5t41 -137.5t114 -53.5z" />
    <glyph glyph-name="p" unicode="p" horiz-adv-x="579" 
d="M310 510q95 0 157 -72t62 -192q0 -116 -58 -186t-156 -70q-63 0 -102.5 27.5t-54.5 58.5v-296h-84v720h84v-76q19 40 59 63t93 23zM302 59q69 0 105.5 49t36.5 133q0 87 -37 142.5t-109 55.5q-67 0 -103.5 -49.5t-36.5 -137.5q0 -92 38 -142.5t106 -50.5z" />
    <glyph glyph-name="q" unicode="q" horiz-adv-x="578" 
d="M420 500h84v-720h-84v296q-15 -31 -54.5 -58.5t-103.5 -27.5q-98 0 -155.5 70t-57.5 186q0 120 62 192t157 72q53 0 93 -23t59 -63v76zM276 59q68 0 106 50.5t38 142.5q0 88 -36.5 137.5t-103.5 49.5q-72 0 -109.5 -55.5t-37.5 -142.5q0 -84 36.5 -133t106.5 -49z" />
    <glyph glyph-name="r" unicode="r" horiz-adv-x="427" 
d="M325 500h64v-72h-62q-168 0 -168 -223v-205h-85v500h85v-124q22 60 61 92t105 32z" />
    <glyph glyph-name="s" unicode="s" horiz-adv-x="501" 
d="M140 152q9 -96 118 -96q94 0 94 68q0 13 -3.5 24t-13 19t-17 14t-24.5 11.5t-26 8t-30 8t-30 7.5q-79 20 -120 55t-41 95q0 66 52 104.5t140 38.5q90 0 148 -44t69 -138h-79q-4 58 -42.5 86.5t-96.5 28.5q-55 0 -82.5 -21.5t-27.5 -54.5q0 -38 28 -56t100 -36
q39 -9 66 -19t55.5 -27t43.5 -43t15 -60q0 -66 -51.5 -100.5t-130.5 -34.5q-85 0 -136.5 42t-56.5 120h79z" />
    <glyph glyph-name="t" unicode="t" horiz-adv-x="377" 
d="M292 70h57v-70h-75q-70 0 -110.5 42t-40.5 116v276h-95v66h95v118l84 14v-132h123v-66h-123v-265q0 -99 85 -99z" />
    <glyph glyph-name="u" unicode="u" 
d="M420 500h83v-500h-83v153q-54 -163 -192 -163q-75 0 -115.5 48t-40.5 144v318h85v-289q0 -78 22 -114.5t72 -36.5q69 0 119 77.5t50 208.5v154z" />
    <glyph glyph-name="v" unicode="v" horiz-adv-x="541" 
d="M426 501h94l-200 -501h-99l-200 501h94l156 -413z" />
    <glyph glyph-name="w" unicode="w" horiz-adv-x="757" 
d="M641 501h82l-126 -501h-90l-128 418l-129 -418h-90l-127 501h82l96 -399l123 399h89l122 -400z" />
    <glyph glyph-name="x" unicode="x" horiz-adv-x="516" 
d="M493 0h-100l-135 194l-135 -194h-100l188 263l-171 238h100l118 -171l118 171h99l-169 -238z" />
    <glyph glyph-name="y" unicode="y" horiz-adv-x="553" 
d="M442 500h87l-226 -589q-28 -72 -66 -101.5t-111 -29.5h-85v69h69q48 0 72 15.5t40 56.5l24 63l-225 516h93l174 -411z" />
    <glyph glyph-name="z" unicode="z" horiz-adv-x="495" 
d="M158 71h275v-71h-387v53l270 377h-252v71h360v-56z" />
    <glyph glyph-name="braceleft" unicode="{" horiz-adv-x="327" 
d="M216 476q0 -126 -88 -154q88 -27 88 -152v-158q0 -56 21.5 -75.5t64.5 -19.5h25v-69h-32q-82 0 -119.5 37t-37.5 131v167q0 55 -21.5 77.5t-77.5 30.5v62q56 8 77.5 30.5t21.5 77.5v167q0 94 37.5 131t119.5 37h32v-69h-25q-43 0 -64.5 -19.5t-21.5 -75.5v-156z" />
    <glyph glyph-name="bar" unicode="|" horiz-adv-x="245" 
d="M162 -100h-79v900h79v-900z" />
    <glyph glyph-name="braceright" unicode="}" horiz-adv-x="327" 
d="M189 461q0 -55 21.5 -77.5t77.5 -30.5v-62q-56 -8 -77.5 -30.5t-21.5 -77.5v-167q0 -94 -37.5 -131t-119.5 -37h-32v69h25q43 0 64.5 19.5t21.5 75.5v156q0 126 88 154q-88 27 -88 152v158q0 56 -21.5 75.5t-64.5 19.5h-25v69h32q82 0 119.5 -37t37.5 -131v-167z" />
    <glyph glyph-name="asciitilde" unicode="~" horiz-adv-x="592" 
d="M63 176q4 71 43.5 110.5t100.5 39.5q30 0 57 -13.5t44 -29t39 -29t43 -13.5q36 0 54.5 21.5t22.5 54.5h62q-4 -70 -43.5 -109.5t-100.5 -39.5q-31 0 -58 13.5t-43.5 29t-38.5 29t-43 13.5q-68 0 -78 -77h-61z" />
    <glyph glyph-name="uni00A0" unicode="&#xa0;" horiz-adv-x="240" 
 />
    <glyph glyph-name="exclamdown" unicode="&#xa1;" horiz-adv-x="200" 
d="M150 480v-99h-100v99h100zM147 -220h-94l14 507h65z" />
    <glyph glyph-name="cent" unicode="&#xa2;" horiz-adv-x="588" 
d="M533 265q-14 -77 -66 -123t-134 -52v-90h-74v93q-93 16 -149 85.5t-56 171.5t57 172t148 84v94h74v-91q79 -8 131.5 -54.5t62.5 -126.5h-80q-16 95 -114 109v-376q96 11 121 104h79zM137 349q0 -74 33 -121t89 -62v367q-55 -14 -88.5 -62t-33.5 -122z" />
    <glyph glyph-name="sterling" unicode="&#xa3;" horiz-adv-x="613" 
d="M271 73h277v-73h-485v59q214 16 214 134q0 41 -28 77h-163v65h99q-41 40 -64.5 80t-23.5 98q0 90 62.5 143.5t155.5 53.5q91 0 153 -54.5t73 -166.5l-81 1q-8 70 -44 108.5t-98 38.5q-64 0 -101 -36.5t-37 -92.5q0 -19 5.5 -37t10.5 -30t20.5 -30.5t20.5 -24.5t26.5 -27
t24.5 -24h195v-65h-142q18 -33 18 -69q0 -84 -88 -128z" />
    <glyph glyph-name="currency" unicode="&#xa4;" horiz-adv-x="624" 
d="M524 250q0 -70 -37 -122l85 -88l-49 -50l-87 88q-52 -37 -124 -37t-124 37l-87 -88l-49 50l86 88q-37 52 -37 122q0 69 37 121l-86 89l49 50l86 -89q55 38 125 38t125 -38l86 89l49 -50l-85 -89q37 -55 37 -121zM312 111q61 0 97.5 40.5t36.5 98.5t-36.5 98.5t-97.5 40.5
t-97 -40.5t-36 -98.5t36 -98.5t97 -40.5z" />
    <glyph glyph-name="yen" unicode="&#xa5;" horiz-adv-x="645" 
d="M618 700l-219 -315h152v-64h-187v-98h187v-65h-187v-158h-83v158h-187v65h187v98h-187v64h153l-220 315h100l196 -287l196 287h99z" />
    <glyph glyph-name="brokenbar" unicode="&#xa6;" horiz-adv-x="245" 
d="M162 480h-79v320h79v-320zM162 -100h-79v320h79v-320z" />
    <glyph glyph-name="section" unicode="&#xa7;" horiz-adv-x="519" 
d="M377 206q68 -41 68 -120q0 -68 -50 -107t-131 -39q-99 0 -153.5 50.5t-63.5 142.5h79q16 -123 142 -123q97 0 97 75q0 40 -29.5 59t-112.5 44q-75 22 -117 55.5t-42 89.5q0 74 80 109q-76 43 -76 120q0 69 51.5 108.5t132.5 39.5q91 0 143 -53t61 -132h-78
q-15 115 -128 115q-41 0 -71 -19t-30 -58t33.5 -58t118.5 -42q158 -44 158 -145q0 -75 -82 -112zM141 347q0 -22 9.5 -38t30.5 -27.5t42.5 -19t56.5 -17.5q7 -2 11 -3l37 -12q54 24 54 77q0 18 -8.5 32t-18 22.5t-34 18.5t-38.5 14t-50 14q-4 1 -18 5t-21 7q-53 -24 -53 -73
z" />
    <glyph glyph-name="dieresis" unicode="&#xa8;" horiz-adv-x="411" 
d="M66 583v86h87v-86h-87zM262 583v86h87v-86h-87z" />
    <glyph glyph-name="copyright" unicode="&#xa9;" horiz-adv-x="836" 
d="M418 -10q-152 0 -255 103.5t-103 256.5t103 256.5t255 103.5t255 -103.5t103 -256.5t-103 -256.5t-255 -103.5zM418 42q127 0 212.5 89.5t85.5 218.5t-85.5 218.5t-212.5 89.5t-212.5 -90t-85.5 -218t85.5 -218t212.5 -90zM587 296q-9 -71 -52.5 -108.5t-113.5 -37.5
q-87 0 -136.5 54.5t-49.5 142.5q0 90 50 146.5t135 56.5q69 0 111.5 -37.5t51.5 -100.5h-63q-7 38 -32.5 61t-67.5 23q-57 0 -89.5 -41t-32.5 -107t33 -105.5t91 -39.5q86 0 102 93h63z" />
    <glyph glyph-name="guillemotleft" unicode="&#xab;" horiz-adv-x="620" 
d="M318 490l-165 -195l165 -195h-100l-162 195l162 195h100zM549 490l-165 -195l165 -195h-100l-162 195l162 195h100z" />
    <glyph glyph-name="logicalnot" unicode="&#xac;" horiz-adv-x="585" 
d="M525 357v-233h-78v164h-386v69h464z" />
    <glyph glyph-name="uni00AD" unicode="&#xad;" horiz-adv-x="520" 
d="M61 331h398v-70h-398v70z" />
    <glyph glyph-name="registered" unicode="&#xae;" horiz-adv-x="836" 
d="M418 710q152 0 255 -103.5t103 -256.5t-103 -256.5t-255 -103.5t-255 103.5t-103 256.5t103 256.5t255 103.5zM418 42q127 0 212.5 89.5t85.5 218.5t-85.5 218.5t-212.5 89.5t-212.5 -90t-85.5 -218t85.5 -218t212.5 -90zM469 330q57 -12 77 -78l29 -92h-68l-28 88
q-3 10 -7 17.5t-7 13t-9.5 10t-9.5 7.5t-11.5 5t-12 3t-14.5 1.5t-15 0.5h-18h-19v-146h-62v390h122q73 0 106.5 -34t33.5 -84q0 -82 -87 -102zM420 494h-64v-136h64q36 0 54.5 20.5t18.5 48.5t-18.5 47.5t-54.5 19.5z" />
    <glyph glyph-name="macron" unicode="&#xaf;" horiz-adv-x="411" 
d="M66 647h279v-64h-279v64z" />
    <glyph glyph-name="degree" unicode="&#xb0;" horiz-adv-x="389" 
d="M194 410q-65 0 -109.5 44t-44.5 108q0 66 44.5 109.5t109.5 43.5t109.5 -43.5t44.5 -109.5q0 -64 -44.5 -108t-109.5 -44zM194 475q36 0 58.5 25t22.5 62t-22.5 62t-58.5 25t-58.5 -25t-22.5 -62t22.5 -62t58.5 -25z" />
    <glyph glyph-name="plusminus" unicode="&#xb1;" horiz-adv-x="586" 
d="M332 334h193v-68h-193v-145h-78v145h-193v68h193v146h78v-146zM61 0v68h464v-68h-464z" />
    <glyph glyph-name="uni00B2" unicode="&#xb2;" horiz-adv-x="361" 
d="M313 410h-264v38l92 72q54 42 78.5 72t24.5 69q0 27 -16.5 44.5t-43.5 17.5q-36 0 -52 -26t-14 -68h-60q-4 61 28.5 103.5t99.5 42.5q56 0 88 -31.5t32 -82.5q0 -47 -27.5 -84.5t-81.5 -79.5l-47 -37h163v-50z" />
    <glyph glyph-name="uni00B3" unicode="&#xb3;" horiz-adv-x="357" 
d="M249 578q56 -21 56 -78q0 -41 -32 -70.5t-91 -29.5q-60 0 -95 32t-39 84h60q3 -34 23 -49.5t49 -15.5q32 0 49 16.5t17 40.5q0 23 -18 37.5t-52 14.5h-31v44h34q37 0 57.5 16t20.5 44q0 29 -21 44.5t-55 15.5q-78 0 -87 -77h-58q5 60 42 93.5t102 33.5q61 0 99 -29
t38 -79q0 -68 -68 -88z" />
    <glyph glyph-name="acute" unicode="&#xb4;" horiz-adv-x="411" 
d="M214 699h103l-114 -129h-81z" />
    <glyph glyph-name="uni00B5" unicode="&#xb5;" 
d="M420 500h83v-500h-83v153q-54 -163 -192 -163q-44 0 -75 16v-226h-80v374q-1 9 -1 28v318h85v-289q0 -78 22 -114.5t72 -36.5q69 0 119 77.5t50 208.5v154z" />
    <glyph glyph-name="paragraph" unicode="&#xb6;" horiz-adv-x="604" 
d="M62 511q0 57 30 101.5t78 66.5q46 21 101 21h280v-52h-80v-648h-60v648h-80v-648h-60v320q-85 0 -143 49q-66 51 -66 142z" />
    <glyph glyph-name="periodcentered" unicode="&#xb7;" horiz-adv-x="222" 
d="M61 245v99h100v-99h-100z" />
    <glyph glyph-name="cedilla" unicode="&#xb8;" horiz-adv-x="411" 
d="M222 2q72 -42 72 -104q0 -44 -34.5 -73.5t-95.5 -29.5h-44v57h36q74 0 74 54q0 25 -20.5 50.5t-50.5 43.5z" />
    <glyph glyph-name="uni00B9" unicode="&#xb9;" horiz-adv-x="294" 
d="M220 770v-360h-59v244q-45 -31 -124 -34v49q55 3 94.5 27t39.5 74h49z" />
    <glyph glyph-name="guillemotright" unicode="&#xbb;" horiz-adv-x="620" 
d="M171 490l162 -195l-162 -195h-100l165 195l-165 195h100zM402 490l162 -195l-162 -195h-100l165 195l-165 195h100z" />
    <glyph glyph-name="onequarter" unicode="&#xbc;" horiz-adv-x="768" 
d="M220 700v-360h-59v244q-45 -31 -124 -34v49q55 3 94.5 27t39.5 74h49zM67 0l586 700h79l-586 -700h-79zM740 122v-49h-58v-73h-58v73h-177v37l159 250h76v-238h58zM513 122h111v181z" />
    <glyph glyph-name="onehalf" unicode="&#xbd;" horiz-adv-x="839" 
d="M220 700v-360h-59v244q-45 -31 -124 -34v49q55 3 94.5 27t39.5 74h49zM67 0l586 700h79l-586 -700h-79zM791 0h-264v38l92 72q54 42 78.5 72t24.5 69q0 27 -16.5 44.5t-43.5 17.5q-36 0 -52 -26t-14 -68h-60q-4 61 28.5 103.5t99.5 42.5q56 0 88 -31.5t32 -82.5
q0 -47 -27.5 -84.5t-81.5 -79.5l-47 -37h163v-50z" />
    <glyph glyph-name="threequarters" unicode="&#xbe;" horiz-adv-x="800" 
d="M249 508q56 -21 56 -78q0 -41 -32 -70.5t-91 -29.5q-60 0 -95 32t-39 84h60q3 -34 23 -49.5t49 -15.5q32 0 49 16.5t17 40.5q0 23 -18 37.5t-52 14.5h-31v44h34q37 0 57.5 16t20.5 44q0 29 -21 44.5t-55 15.5q-78 0 -87 -77h-58q5 60 42 93.5t102 33.5q61 0 99 -29
t38 -79q0 -68 -68 -88zM99 0l586 700h79l-586 -700h-79zM772 122v-49h-58v-73h-58v73h-177v37l159 250h76v-238h58zM545 122h111v181z" />
    <glyph glyph-name="questiondown" unicode="&#xbf;" horiz-adv-x="459" 
d="M215 378v99h100v-99h-100zM236 -229q-89 0 -142.5 47.5t-53.5 130.5q0 46 19 81t46 57.5t54 44t46 52t19 70.5v34h82v-36q0 -50 -19 -87.5t-46 -60.5t-53.5 -43t-45.5 -47t-19 -62q0 -52 31 -80.5t81 -28.5q61 0 95.5 46t31.5 132h81q6 -116 -51 -183t-156 -67z" />
    <glyph glyph-name="Agrave" unicode="&#xc0;" horiz-adv-x="664" 
d="M413 777h-89l-126 142h114zM545 0l-63 177h-301l-63 -177h-94l255 700h106l254 -700h-94zM208 253h247l-123 348z" />
    <glyph glyph-name="Aacute" unicode="&#xc1;" horiz-adv-x="664" 
d="M466 919l-126 -142h-89l101 142h114zM545 0l-63 177h-301l-63 -177h-94l255 700h106l254 -700h-94zM208 253h247l-123 348z" />
    <glyph glyph-name="Acircumflex" unicode="&#xc2;" horiz-adv-x="664" 
d="M332 853l-64 -85h-86l105 140h90l104 -140h-86zM545 0l-63 177h-301l-63 -177h-94l255 700h106l254 -700h-94zM208 253h247l-123 348z" />
    <glyph glyph-name="Atilde" unicode="&#xc3;" horiz-adv-x="664" 
d="M262 836q-21 0 -36 -14t-20 -37h-58q8 59 40 90t77 31q41 0 77.5 -27t56.5 -27q22 0 37 14t21 37h59q-8 -59 -40.5 -90t-76.5 -31q-41 0 -78.5 27t-58.5 27zM545 0l-63 177h-301l-63 -177h-94l255 700h106l254 -700h-94zM208 253h247l-123 348z" />
    <glyph glyph-name="Adieresis" unicode="&#xc4;" horiz-adv-x="664" 
d="M273 873v-95h-95v95h95zM489 873v-95h-96v95h96zM545 0l-63 177h-301l-63 -177h-94l255 700h106l254 -700h-94zM208 253h247l-123 348z" />
    <glyph glyph-name="Aring" unicode="&#xc5;" horiz-adv-x="664" 
d="M545 0l-63 177h-301l-63 -177h-94l241 660q-43 33 -43 88q0 47 30.5 78.5t79.5 31.5q48 0 78.5 -31.5t30.5 -78.5q0 -55 -42 -87l240 -661h-94zM332 797q-20 0 -33 -14.5t-13 -34.5q0 -19 13 -33t33 -14q19 0 32 14t13 33q0 20 -13 34.5t-32 14.5zM208 253h247l-123 348z
" />
    <glyph glyph-name="AE" unicode="&#xc6;" horiz-adv-x="878" 
d="M810 621h-396l82 -228h291v-76h-263l86 -238h200v-79h-265l-63 177h-301l-63 -177h-94l255 700h531v-79zM208 253h247l-123 348z" />
    <glyph glyph-name="Ccedilla" unicode="&#xc7;" horiz-adv-x="740" 
d="M682 242q-13 -111 -78.5 -175t-170.5 -75q64 -42 64 -104q0 -49 -37.5 -81.5t-105.5 -32.5h-48v63h40q81 0 81 60q0 48 -64 94q-142 8 -222.5 105t-80.5 248q0 162 89.5 264t240.5 102q120 0 195 -65t91 -174h-93q-12 71 -62 115.5t-133 44.5q-111 0 -174 -80.5
t-63 -205.5t64 -201t179 -76q165 0 197 174h91z" />
    <glyph glyph-name="Egrave" unicode="&#xc8;" horiz-adv-x="584" 
d="M381 777h-89l-126 142h114zM516 620h-342v-227h319v-76h-319v-237h342v-80h-433v700h433v-80z" />
    <glyph glyph-name="Eacute" unicode="&#xc9;" horiz-adv-x="584" 
d="M434 919l-126 -142h-89l101 142h114zM516 620h-342v-227h319v-76h-319v-237h342v-80h-433v700h433v-80z" />
    <glyph glyph-name="Ecircumflex" unicode="&#xca;" horiz-adv-x="584" 
d="M300 853l-64 -85h-86l105 140h90l104 -140h-86zM516 620h-342v-227h319v-76h-319v-237h342v-80h-433v700h433v-80z" />
    <glyph glyph-name="Edieresis" unicode="&#xcb;" horiz-adv-x="584" 
d="M241 873v-95h-95v95h95zM457 873v-95h-96v95h96zM516 620h-342v-227h319v-76h-319v-237h342v-80h-433v700h433v-80z" />
    <glyph glyph-name="Igrave" unicode="&#xcc;" horiz-adv-x="257" 
d="M109 919l101 -142h-89l-126 142h114zM174 0h-91v700h91v-700z" />
    <glyph glyph-name="Iacute" unicode="&#xcd;" horiz-adv-x="257" 
d="M149 919h114l-126 -142h-89zM174 0h-91v700h91v-700z" />
    <glyph glyph-name="Icircumflex" unicode="&#xce;" horiz-adv-x="257" 
d="M278 768h-86l-63 85l-64 -85h-86l105 140h90zM174 0h-91v700h91v-700z" />
    <glyph glyph-name="Idieresis" unicode="&#xcf;" horiz-adv-x="257" 
d="M-25 778v95h95v-95h-95zM190 778v95h96v-95h-96zM174 0h-91v700h91v-700z" />
    <glyph glyph-name="Eth" unicode="&#xd0;" horiz-adv-x="700" 
d="M298 700q169 0 255.5 -94t86.5 -256t-86 -256t-256 -94h-215v311h-134v77h134v312h215zM287 78q259 0 259 274q0 270 -259 270h-114v-234h245v-77h-245v-233h114z" />
    <glyph glyph-name="Ntilde" unicode="&#xd1;" horiz-adv-x="728" 
d="M294 836q-21 0 -36 -14t-20 -37h-58q8 59 40 90t77 31q41 0 77.5 -27t56.5 -27q22 0 37 14t21 37h59q-8 -59 -40.5 -90t-76.5 -31q-41 0 -78.5 27t-58.5 27zM557 700h88v-700h-112l-361 595v-595h-89v700h114l360 -596v596z" />
    <glyph glyph-name="Ograve" unicode="&#xd2;" horiz-adv-x="780" 
d="M370 919l101 -142h-89l-126 142h114zM390 -10q-153 0 -241.5 97t-88.5 263t88.5 263t241.5 97q154 0 242 -97t88 -263t-88 -263t-242 -97zM390 69q109 0 172.5 76.5t63.5 204.5t-63.5 204.5t-172.5 76.5t-172.5 -76.5t-63.5 -204.5t63.5 -204.5t172.5 -76.5z" />
    <glyph glyph-name="Oacute" unicode="&#xd3;" horiz-adv-x="780" 
d="M410 919h114l-126 -142h-89zM390 -10q-153 0 -241.5 97t-88.5 263t88.5 263t241.5 97q154 0 242 -97t88 -263t-88 -263t-242 -97zM390 69q109 0 172.5 76.5t63.5 204.5t-63.5 204.5t-172.5 76.5t-172.5 -76.5t-63.5 -204.5t63.5 -204.5t172.5 -76.5z" />
    <glyph glyph-name="Ocircumflex" unicode="&#xd4;" horiz-adv-x="780" 
d="M539 768h-86l-63 85l-64 -85h-86l105 140h90zM390 -10q-153 0 -241.5 97t-88.5 263t88.5 263t241.5 97q154 0 242 -97t88 -263t-88 -263t-242 -97zM390 69q109 0 172.5 76.5t63.5 204.5t-63.5 204.5t-172.5 76.5t-172.5 -76.5t-63.5 -204.5t63.5 -204.5t172.5 -76.5z" />
    <glyph glyph-name="Otilde" unicode="&#xd5;" horiz-adv-x="780" 
d="M206 785q8 59 40 90t77 31q41 0 77.5 -27t56.5 -27q22 0 37 14t21 37h59q-8 -59 -40.5 -90t-76.5 -31q-41 0 -78.5 27t-58.5 27t-36 -14t-20 -37h-58zM390 -10q-153 0 -241.5 97t-88.5 263t88.5 263t241.5 97q154 0 242 -97t88 -263t-88 -263t-242 -97zM390 69
q109 0 172.5 76.5t63.5 204.5t-63.5 204.5t-172.5 76.5t-172.5 -76.5t-63.5 -204.5t63.5 -204.5t172.5 -76.5z" />
    <glyph glyph-name="Odieresis" unicode="&#xd6;" horiz-adv-x="780" 
d="M236 778v95h95v-95h-95zM451 778v95h96v-95h-96zM390 -10q-153 0 -241.5 97t-88.5 263t88.5 263t241.5 97q154 0 242 -97t88 -263t-88 -263t-242 -97zM390 69q109 0 172.5 76.5t63.5 204.5t-63.5 204.5t-172.5 76.5t-172.5 -76.5t-63.5 -204.5t63.5 -204.5t172.5 -76.5z
" />
    <glyph glyph-name="multiply" unicode="&#xd7;" horiz-adv-x="585" 
d="M495 395l-152 -149l152 -149l-51 -49l-151 149l-152 -149l-50 49l151 149l-151 149l50 50l152 -149l151 149z" />
    <glyph glyph-name="Oslash" unicode="&#xd8;" horiz-adv-x="780" 
d="M647 595q73 -95 73 -245q0 -166 -88 -263t-242 -97q-123 0 -204 63l-62 -73l-59 46l68 80q-73 95 -73 244q0 166 88.5 263t241.5 97q120 0 204 -62l61 72l59 -46zM154 350q0 -102 41 -172l342 403q-61 50 -147 50q-109 0 -172.5 -76.5t-63.5 -204.5zM390 69
q109 0 172.5 76.5t63.5 204.5q0 102 -41 172l-342 -402q59 -51 147 -51z" />
    <glyph glyph-name="Ugrave" unicode="&#xd9;" horiz-adv-x="715" 
d="M337 919l101 -142h-89l-126 142h114zM80 700h91v-399q0 -232 186 -232t186 232v399h91v-407q0 -147 -70 -225t-207 -78t-207 78t-70 225v407z" />
    <glyph glyph-name="Uacute" unicode="&#xda;" horiz-adv-x="715" 
d="M377 919h114l-126 -142h-89zM80 700h91v-399q0 -232 186 -232t186 232v399h91v-407q0 -147 -70 -225t-207 -78t-207 78t-70 225v407z" />
    <glyph glyph-name="Ucircumflex" unicode="&#xdb;" horiz-adv-x="715" 
d="M506 768h-86l-63 85l-64 -85h-86l105 140h90zM80 700h91v-399q0 -232 186 -232t186 232v399h91v-407q0 -147 -70 -225t-207 -78t-207 78t-70 225v407z" />
    <glyph glyph-name="Udieresis" unicode="&#xdc;" horiz-adv-x="715" 
d="M203 778v95h95v-95h-95zM418 778v95h96v-95h-96zM80 700h91v-399q0 -232 186 -232t186 232v399h91v-407q0 -147 -70 -225t-207 -78t-207 78t-70 225v407z" />
    <glyph glyph-name="Yacute" unicode="&#xdd;" horiz-adv-x="653" 
d="M457 919l-126 -142h-89l101 142h114zM516 700h100l-342 -700h-101l132 268l-279 432h108l217 -343z" />
    <glyph glyph-name="Thorn" unicode="&#xde;" horiz-adv-x="590" 
d="M302 579q126 0 188.5 -63.5t62.5 -162.5q0 -102 -63 -166.5t-188 -64.5h-129v-122h-90v700h90v-121h129zM317 199q73 0 109.5 44t36.5 110q0 65 -36.5 106.5t-109.5 41.5h-144v-302h144z" />
    <glyph glyph-name="germandbls" unicode="&#xdf;" horiz-adv-x="557" 
d="M342 394q84 -16 124.5 -70t40.5 -128q0 -91 -54.5 -143.5t-158.5 -52.5h-40v71h29q142 0 142 130q0 65 -40.5 106.5t-126.5 41.5h-49v67h30q55 0 88.5 32.5t33.5 81.5q0 46 -27.5 77.5t-72.5 31.5q-46 0 -74.5 -35t-28.5 -92v-512h-84v527q0 79 50 131t138 52
q83 0 132.5 -49.5t49.5 -119.5q0 -106 -102 -147z" />
    <glyph glyph-name="agrave" unicode="&#xe0;" horiz-adv-x="547" 
d="M332 570h-81l-114 129h103zM283 509q85 0 138 -41.5t53 -120.5v-347h-81v90q-19 -38 -62.5 -69t-110.5 -31q-72 0 -119 37.5t-47 104.5t47.5 101t153.5 50q79 12 108.5 25.5t29.5 48.5q0 37 -31 60.5t-79 23.5q-116 0 -124 -114h-81q2 79 53.5 130.5t151.5 51.5zM236 55
q65 0 111 44.5t46 120.5v41q-35 -21 -123 -37q-69 -13 -101 -33t-32 -59q0 -38 28 -57.5t71 -19.5z" />
    <glyph glyph-name="aacute" unicode="&#xe1;" horiz-adv-x="547" 
d="M406 699l-114 -129h-81l92 129h103zM283 509q85 0 138 -41.5t53 -120.5v-347h-81v90q-19 -38 -62.5 -69t-110.5 -31q-72 0 -119 37.5t-47 104.5t47.5 101t153.5 50q79 12 108.5 25.5t29.5 48.5q0 37 -31 60.5t-79 23.5q-116 0 -124 -114h-81q2 79 53.5 130.5t151.5 51.5z
M236 55q65 0 111 44.5t46 120.5v41q-35 -21 -123 -37q-69 -13 -101 -33t-32 -59q0 -38 28 -57.5t71 -19.5z" />
    <glyph glyph-name="acircumflex" unicode="&#xe2;" horiz-adv-x="547" 
d="M273 638l-58 -77h-78l95 127h82l95 -127h-78zM283 509q85 0 138 -41.5t53 -120.5v-347h-81v90q-19 -38 -62.5 -69t-110.5 -31q-72 0 -119 37.5t-47 104.5t47.5 101t153.5 50q79 12 108.5 25.5t29.5 48.5q0 37 -31 60.5t-79 23.5q-116 0 -124 -114h-81q2 79 53.5 130.5
t151.5 51.5zM236 55q65 0 111 44.5t46 120.5v41q-35 -21 -123 -37q-69 -13 -101 -33t-32 -59q0 -38 28 -57.5t71 -19.5z" />
    <glyph glyph-name="atilde" unicode="&#xe3;" horiz-adv-x="547" 
d="M210 616q-39 0 -50 -46h-52q7 53 36 81.5t68 28.5q37 0 69.5 -24.5t50.5 -24.5q40 0 51 46h53q-7 -53 -36 -81.5t-68 -28.5q-37 0 -70.5 24.5t-51.5 24.5zM283 509q85 0 138 -41.5t53 -120.5v-347h-81v90q-19 -38 -62.5 -69t-110.5 -31q-72 0 -119 37.5t-47 104.5
t47.5 101t153.5 50q79 12 108.5 25.5t29.5 48.5q0 37 -31 60.5t-79 23.5q-116 0 -124 -114h-81q2 79 53.5 130.5t151.5 51.5zM236 55q65 0 111 44.5t46 120.5v41q-35 -21 -123 -37q-69 -13 -101 -33t-32 -59q0 -38 28 -57.5t71 -19.5z" />
    <glyph glyph-name="adieresis" unicode="&#xe4;" horiz-adv-x="547" 
d="M218 669v-86h-87v86h87zM414 669v-86h-87v86h87zM283 509q85 0 138 -41.5t53 -120.5v-347h-81v90q-19 -38 -62.5 -69t-110.5 -31q-72 0 -119 37.5t-47 104.5t47.5 101t153.5 50q79 12 108.5 25.5t29.5 48.5q0 37 -31 60.5t-79 23.5q-116 0 -124 -114h-81q2 79 53.5 130.5
t151.5 51.5zM236 55q65 0 111 44.5t46 120.5v41q-35 -21 -123 -37q-69 -13 -101 -33t-32 -59q0 -38 28 -57.5t71 -19.5z" />
    <glyph glyph-name="aring" unicode="&#xe5;" horiz-adv-x="547" 
d="M272 544q-44 0 -72 29t-28 70q0 43 28 71.5t72 28.5t71.5 -28.5t27.5 -71.5q0 -41 -28 -70t-71 -29zM272 687q-18 0 -30 -13t-12 -31t12 -30.5t30 -12.5t29.5 12.5t11.5 30.5t-11.5 31t-29.5 13zM283 509q85 0 138 -41.5t53 -120.5v-347h-81v90q-19 -38 -62.5 -69
t-110.5 -31q-72 0 -119 37.5t-47 104.5t47.5 101t153.5 50q79 12 108.5 25.5t29.5 48.5q0 37 -31 60.5t-79 23.5q-116 0 -124 -114h-81q2 79 53.5 130.5t151.5 51.5zM236 55q65 0 111 44.5t46 120.5v41q-35 -21 -123 -37q-69 -13 -101 -33t-32 -59q0 -38 28 -57.5t71 -19.5z
" />
    <glyph glyph-name="ae" unicode="&#xe6;" horiz-adv-x="913" 
d="M778 161h79q-9 -74 -64.5 -122.5t-151.5 -48.5q-73 0 -126.5 32t-83.5 88q-24 -57 -80.5 -88.5t-130.5 -31.5q-72 0 -119 37.5t-47 104.5t47.5 101t153.5 50q79 12 108.5 25.5t29.5 48.5q0 37 -31 60.5t-79 23.5q-116 0 -124 -114h-81q2 79 53.5 130.5t151.5 51.5
q118 0 166 -87q66 87 183 87q106 0 164.5 -70t58.5 -193v-18h-372q5 -78 48 -124t112 -46q54 0 89.5 27.5t45.5 75.5zM634 442q-64 0 -102 -41t-47 -111h286q-6 70 -39.5 111t-97.5 41zM236 55q65 0 111 44.5t46 120.5v41q-35 -21 -123 -37q-69 -13 -101 -33t-32 -59
q0 -38 28 -57.5t71 -19.5z" />
    <glyph glyph-name="ccedilla" unicode="&#xe7;" horiz-adv-x="565" 
d="M511 169q-12 -76 -60.5 -123.5t-129.5 -54.5q55 -40 55 -93q0 -44 -34.5 -73.5t-95.5 -29.5h-44v57h36q74 0 74 54q0 46 -60 87q-96 15 -149.5 86t-53.5 171q0 111 65.5 185t173.5 74q90 0 149.5 -51t67.5 -135h-82q-7 54 -43.5 85.5t-90.5 31.5q-72 0 -114 -55t-42 -136
q0 -85 45 -137.5t119 -52.5q110 0 133 110h81z" />
    <glyph glyph-name="egrave" unicode="&#xe8;" horiz-adv-x="564" 
d="M339 570h-81l-114 129h103zM429 161h79q-9 -74 -64.5 -122.5t-151.5 -48.5q-115 0 -179 74t-64 186t62.5 185.5t171.5 73.5q106 0 164.5 -70t58.5 -193v-18h-372q5 -78 48 -124t112 -46q54 0 89.5 27.5t45.5 75.5zM285 442q-64 0 -102 -41t-47 -111h286q-6 70 -39.5 111
t-97.5 41z" />
    <glyph glyph-name="eacute" unicode="&#xe9;" horiz-adv-x="564" 
d="M413 699l-114 -129h-81l92 129h103zM429 161h79q-9 -74 -64.5 -122.5t-151.5 -48.5q-115 0 -179 74t-64 186t62.5 185.5t171.5 73.5q106 0 164.5 -70t58.5 -193v-18h-372q5 -78 48 -124t112 -46q54 0 89.5 27.5t45.5 75.5zM285 442q-64 0 -102 -41t-47 -111h286
q-6 70 -39.5 111t-97.5 41z" />
    <glyph glyph-name="ecircumflex" unicode="&#xea;" horiz-adv-x="564" 
d="M280 638l-58 -77h-78l95 127h82l95 -127h-78zM429 161h79q-9 -74 -64.5 -122.5t-151.5 -48.5q-115 0 -179 74t-64 186t62.5 185.5t171.5 73.5q106 0 164.5 -70t58.5 -193v-18h-372q5 -78 48 -124t112 -46q54 0 89.5 27.5t45.5 75.5zM285 442q-64 0 -102 -41t-47 -111h286
q-6 70 -39.5 111t-97.5 41z" />
    <glyph glyph-name="edieresis" unicode="&#xeb;" horiz-adv-x="564" 
d="M225 669v-86h-87v86h87zM421 669v-86h-87v86h87zM429 161h79q-9 -74 -64.5 -122.5t-151.5 -48.5q-115 0 -179 74t-64 186t62.5 185.5t171.5 73.5q106 0 164.5 -70t58.5 -193v-18h-372q5 -78 48 -124t112 -46q54 0 89.5 27.5t45.5 75.5zM285 442q-64 0 -102 -41t-47 -111
h286q-6 70 -39.5 111t-97.5 41z" />
    <glyph glyph-name="igrave" unicode="&#xec;" horiz-adv-x="233" 
d="M85 699l92 -129h-81l-114 129h103zM159 0h-85v500h85v-500z" />
    <glyph glyph-name="iacute" unicode="&#xed;" horiz-adv-x="233" 
d="M148 699h103l-114 -129h-81zM159 0h-85v500h85v-500z" />
    <glyph glyph-name="icircumflex" unicode="&#xee;" horiz-adv-x="233" 
d="M254 561h-78l-58 77l-58 -77h-78l95 127h82zM159 0h-85v500h85v-500z" />
    <glyph glyph-name="idieresis" unicode="&#xef;" horiz-adv-x="233" 
d="M-24 583v86h87v-86h-87zM172 583v86h87v-86h-87zM159 0h-85v500h85v-500z" />
    <glyph glyph-name="eth" unicode="&#xf0;" horiz-adv-x="565" 
d="M413 605q102 -106 102 -311q0 -152 -60.5 -228t-170.5 -76q-101 0 -168 63t-67 176q0 108 63 174.5t159 66.5q107 0 161 -76q-17 115 -87 176l-130 -66l-25 51l100 50q-58 26 -136 26h-37v69h41q127 0 209 -56l102 52l24 -50zM280 59q64 0 106 43t42 127q0 82 -41.5 127
t-106.5 45q-68 0 -108.5 -49t-40.5 -127q0 -81 43 -123.5t106 -42.5z" />
    <glyph glyph-name="ntilde" unicode="&#xf1;" horiz-adv-x="578" 
d="M218 616q-39 0 -50 -46h-52q7 53 36 81.5t68 28.5q37 0 69.5 -24.5t50.5 -24.5q40 0 51 46h53q-7 -53 -36 -81.5t-68 -28.5q-37 0 -70.5 24.5t-51.5 24.5zM349 510q75 0 115.5 -48t40.5 -144v-318h-85v289q0 78 -22 114.5t-72 36.5q-68 0 -118 -77.5t-50 -208.5v-154h-84
v500h84v-153q54 163 191 163z" />
    <glyph glyph-name="ograve" unicode="&#xf2;" 
d="M256 699l92 -129h-81l-114 129h103zM288 -10q-109 0 -174 71.5t-65 187.5t65 188t174 72t174 -72t65 -188t-65 -187.5t-174 -71.5zM288 58q73 0 114 53.5t41 137.5t-41 137.5t-114 53.5t-114 -53.5t-41 -137.5t41 -137.5t114 -53.5z" />
    <glyph glyph-name="oacute" unicode="&#xf3;" 
d="M319 699h103l-114 -129h-81zM288 -10q-109 0 -174 71.5t-65 187.5t65 188t174 72t174 -72t65 -188t-65 -187.5t-174 -71.5zM288 58q73 0 114 53.5t41 137.5t-41 137.5t-114 53.5t-114 -53.5t-41 -137.5t41 -137.5t114 -53.5z" />
    <glyph glyph-name="ocircumflex" unicode="&#xf4;" 
d="M425 561h-78l-58 77l-58 -77h-78l95 127h82zM288 -10q-109 0 -174 71.5t-65 187.5t65 188t174 72t174 -72t65 -188t-65 -187.5t-174 -71.5zM288 58q73 0 114 53.5t41 137.5t-41 137.5t-114 53.5t-114 -53.5t-41 -137.5t41 -137.5t114 -53.5z" />
    <glyph glyph-name="otilde" unicode="&#xf5;" 
d="M124 570q7 53 36 81.5t68 28.5q37 0 69.5 -24.5t50.5 -24.5q40 0 51 46h53q-7 -53 -36 -81.5t-68 -28.5q-37 0 -70.5 24.5t-51.5 24.5q-39 0 -50 -46h-52zM288 -10q-109 0 -174 71.5t-65 187.5t65 188t174 72t174 -72t65 -188t-65 -187.5t-174 -71.5zM288 58
q73 0 114 53.5t41 137.5t-41 137.5t-114 53.5t-114 -53.5t-41 -137.5t41 -137.5t114 -53.5z" />
    <glyph glyph-name="odieresis" unicode="&#xf6;" 
d="M147 583v86h87v-86h-87zM343 583v86h87v-86h-87zM288 -10q-109 0 -174 71.5t-65 187.5t65 188t174 72t174 -72t65 -188t-65 -187.5t-174 -71.5zM288 58q73 0 114 53.5t41 137.5t-41 137.5t-114 53.5t-114 -53.5t-41 -137.5t41 -137.5t114 -53.5z" />
    <glyph glyph-name="divide" unicode="&#xf7;" horiz-adv-x="586" 
d="M249 372v88h89v-88h-89zM61 279h464v-69h-464v69zM249 31v88h89v-88h-89z" />
    <glyph glyph-name="oslash" unicode="&#xf8;" 
d="M535 482l-57 -64q49 -70 49 -169q0 -116 -65 -187.5t-174 -71.5q-87 0 -149 49l-54 -60l-43 37l57 64q-50 69 -50 169q0 116 65 188t174 72q88 0 150 -49l53 59zM133 249q0 -62 22 -106l232 260q-40 37 -99 37q-73 0 -114 -53.5t-41 -137.5zM443 249q0 62 -22 106
l-232 -260q40 -37 99 -37q73 0 114 53.5t41 137.5z" />
    <glyph glyph-name="ugrave" unicode="&#xf9;" 
d="M349 570h-81l-114 129h103zM420 500h83v-500h-83v153q-54 -163 -192 -163q-75 0 -115.5 48t-40.5 144v318h85v-289q0 -78 22 -114.5t72 -36.5q69 0 119 77.5t50 208.5v154z" />
    <glyph glyph-name="uacute" unicode="&#xfa;" 
d="M423 699l-114 -129h-81l92 129h103zM420 500h83v-500h-83v153q-54 -163 -192 -163q-75 0 -115.5 48t-40.5 144v318h85v-289q0 -78 22 -114.5t72 -36.5q69 0 119 77.5t50 208.5v154z" />
    <glyph glyph-name="ucircumflex" unicode="&#xfb;" 
d="M290 638l-58 -77h-78l95 127h82l95 -127h-78zM420 500h83v-500h-83v153q-54 -163 -192 -163q-75 0 -115.5 48t-40.5 144v318h85v-289q0 -78 22 -114.5t72 -36.5q69 0 119 77.5t50 208.5v154z" />
    <glyph glyph-name="udieresis" unicode="&#xfc;" 
d="M235 669v-86h-87v86h87zM431 669v-86h-87v86h87zM420 500h83v-500h-83v153q-54 -163 -192 -163q-75 0 -115.5 48t-40.5 144v318h85v-289q0 -78 22 -114.5t72 -36.5q69 0 119 77.5t50 208.5v154z" />
    <glyph glyph-name="yacute" unicode="&#xfd;" horiz-adv-x="553" 
d="M408 699l-114 -129h-81l92 129h103zM442 500h87l-226 -589q-28 -72 -66 -101.5t-111 -29.5h-85v69h69q48 0 72 15.5t40 56.5l24 63l-225 516h93l174 -411z" />
    <glyph glyph-name="thorn" unicode="&#xfe;" horiz-adv-x="579" 
d="M310 510q95 0 157 -72t62 -192q0 -116 -58 -186t-156 -70q-63 0 -102.5 27.5t-54.5 58.5v-296h-84v720h1v210h84v-210h-1v-76q19 40 59 63t93 23zM302 59q69 0 105.5 49t36.5 133q0 87 -37 142.5t-109 55.5q-67 0 -103.5 -49.5t-36.5 -137.5q0 -92 38 -142.5t106 -50.5z
" />
    <glyph glyph-name="ydieresis" unicode="&#xff;" horiz-adv-x="553" 
d="M220 669v-86h-87v86h87zM416 669v-86h-87v86h87zM442 500h87l-226 -589q-28 -72 -66 -101.5t-111 -29.5h-85v69h69q48 0 72 15.5t40 56.5l24 63l-225 516h93l174 -411z" />
    <glyph glyph-name="Amacron" unicode="&#x100;" horiz-adv-x="664" 
d="M485 861v-71h-307v71h307zM545 0l-63 177h-301l-63 -177h-94l255 700h106l254 -700h-94zM208 253h247l-123 348z" />
    <glyph glyph-name="amacron" unicode="&#x101;" horiz-adv-x="547" 
d="M411 647v-64h-279v64h279zM283 509q85 0 138 -41.5t53 -120.5v-347h-81v90q-19 -38 -62.5 -69t-110.5 -31q-72 0 -119 37.5t-47 104.5t47.5 101t153.5 50q79 12 108.5 25.5t29.5 48.5q0 37 -31 60.5t-79 23.5q-116 0 -124 -114h-81q2 79 53.5 130.5t151.5 51.5zM236 55
q65 0 111 44.5t46 120.5v41q-35 -21 -123 -37q-69 -13 -101 -33t-32 -59q0 -38 28 -57.5t71 -19.5z" />
    <glyph glyph-name="Abreve" unicode="&#x102;" horiz-adv-x="664" 
d="M334 770q-64 0 -103.5 40t-39.5 97h73q2 -30 19.5 -50.5t49.5 -20.5q31 0 47.5 20.5t18.5 50.5h75q0 -57 -38.5 -97t-101.5 -40zM545 0l-63 177h-301l-63 -177h-94l255 700h106l254 -700h-94zM208 253h247l-123 348z" />
    <glyph glyph-name="abreve" unicode="&#x103;" horiz-adv-x="547" 
d="M273 565q-58 0 -94 36.5t-36 88.5h66q2 -27 18 -46t45 -19t43.5 18.5t16.5 46.5h68q0 -52 -35 -88.5t-92 -36.5zM283 509q85 0 138 -41.5t53 -120.5v-347h-81v90q-19 -38 -62.5 -69t-110.5 -31q-72 0 -119 37.5t-47 104.5t47.5 101t153.5 50q79 12 108.5 25.5t29.5 48.5
q0 37 -31 60.5t-79 23.5q-116 0 -124 -114h-81q2 79 53.5 130.5t151.5 51.5zM236 55q65 0 111 44.5t46 120.5v41q-35 -21 -123 -37q-69 -13 -101 -33t-32 -59q0 -38 28 -57.5t71 -19.5z" />
    <glyph glyph-name="Aogonek" unicode="&#x104;" horiz-adv-x="664" 
d="M641 -162h18v-64h-29q-68 0 -105 32.5t-37 81.5q0 68 76 112h-19l-63 177h-301l-63 -177h-94l255 700h106l254 -700q-34 -19 -56.5 -47t-22.5 -56q0 -59 81 -59zM208 253h247l-123 348z" />
    <glyph glyph-name="aogonek" unicode="&#x105;" horiz-adv-x="547" 
d="M475 -147h17v-58h-27q-61 0 -95 29.5t-34 73.5q0 62 69 102h-12v90q-19 -38 -62.5 -69t-110.5 -31q-72 0 -119 37.5t-47 104.5t47.5 101t153.5 50q79 12 108.5 25.5t29.5 48.5q0 37 -31 60.5t-79 23.5q-116 0 -124 -114h-81q2 79 53.5 130.5t151.5 51.5q85 0 138 -41.5
t53 -120.5v-347q-31 -18 -51.5 -43t-20.5 -51q0 -53 73 -53zM236 55q65 0 111 44.5t46 120.5v41q-35 -21 -123 -37q-69 -13 -101 -33t-32 -59q0 -38 28 -57.5t71 -19.5z" />
    <glyph glyph-name="Cacute" unicode="&#x106;" horiz-adv-x="740" 
d="M400 919h114l-126 -142h-89zM682 242q-15 -122 -92.5 -187t-200.5 -65q-154 0 -241.5 97.5t-87.5 256.5q0 162 89.5 264t240.5 102q120 0 195 -65t91 -174h-93q-12 71 -62 115.5t-133 44.5q-111 0 -174 -80.5t-63 -205.5t64 -201t179 -76q165 0 197 174h91z" />
    <glyph glyph-name="cacute" unicode="&#x107;" horiz-adv-x="565" 
d="M308 699h103l-114 -129h-81zM423 323q-7 54 -43.5 85.5t-90.5 31.5q-72 0 -114 -55t-42 -136q0 -85 45 -137.5t119 -52.5q110 0 133 110h81q-12 -82 -67.5 -130.5t-147.5 -48.5q-115 0 -181 74t-66 186q0 111 65.5 185t173.5 74q90 0 149.5 -51t67.5 -135h-82z" />
    <glyph glyph-name="Ccircumflex" unicode="&#x108;" horiz-adv-x="740" 
d="M529 768h-86l-63 85l-64 -85h-86l105 140h90zM682 242q-15 -122 -92.5 -187t-200.5 -65q-154 0 -241.5 97.5t-87.5 256.5q0 162 89.5 264t240.5 102q120 0 195 -65t91 -174h-93q-12 71 -62 115.5t-133 44.5q-111 0 -174 -80.5t-63 -205.5t64 -201t179 -76q165 0 197 174
h91z" />
    <glyph glyph-name="ccircumflex" unicode="&#x109;" horiz-adv-x="565" 
d="M414 561h-78l-58 77l-58 -77h-78l95 127h82zM423 323q-7 54 -43.5 85.5t-90.5 31.5q-72 0 -114 -55t-42 -136q0 -85 45 -137.5t119 -52.5q110 0 133 110h81q-12 -82 -67.5 -130.5t-147.5 -48.5q-115 0 -181 74t-66 186q0 111 65.5 185t173.5 74q90 0 149.5 -51t67.5 -135
h-82z" />
    <glyph glyph-name="Cdotaccent" unicode="&#x10a;" horiz-adv-x="740" 
d="M326 793v101h108v-101h-108zM682 242q-15 -122 -92.5 -187t-200.5 -65q-154 0 -241.5 97.5t-87.5 256.5q0 162 89.5 264t240.5 102q120 0 195 -65t91 -174h-93q-12 71 -62 115.5t-133 44.5q-111 0 -174 -80.5t-63 -205.5t64 -201t179 -76q165 0 197 174h91z" />
    <glyph glyph-name="cdotaccent" unicode="&#x10b;" horiz-adv-x="565" 
d="M228 588v92h98v-92h-98zM423 323q-7 54 -43.5 85.5t-90.5 31.5q-72 0 -114 -55t-42 -136q0 -85 45 -137.5t119 -52.5q110 0 133 110h81q-12 -82 -67.5 -130.5t-147.5 -48.5q-115 0 -181 74t-66 186q0 111 65.5 185t173.5 74q90 0 149.5 -51t67.5 -135h-82z" />
    <glyph glyph-name="Ccaron" unicode="&#x10c;" horiz-adv-x="740" 
d="M443 910h86l-104 -140h-90l-105 140h86l64 -85zM682 242q-15 -122 -92.5 -187t-200.5 -65q-154 0 -241.5 97.5t-87.5 256.5q0 162 89.5 264t240.5 102q120 0 195 -65t91 -174h-93q-12 71 -62 115.5t-133 44.5q-111 0 -174 -80.5t-63 -205.5t64 -201t179 -76
q165 0 197 174h91z" />
    <glyph glyph-name="ccaron" unicode="&#x10d;" horiz-adv-x="565" 
d="M335 688h78l-95 -127h-82l-95 127h78l58 -77zM423 323q-7 54 -43.5 85.5t-90.5 31.5q-72 0 -114 -55t-42 -136q0 -85 45 -137.5t119 -52.5q110 0 133 110h81q-12 -82 -67.5 -130.5t-147.5 -48.5q-115 0 -181 74t-66 186q0 111 65.5 185t173.5 74q90 0 149.5 -51
t67.5 -135h-82z" />
    <glyph glyph-name="Dcaron" unicode="&#x10e;" horiz-adv-x="700" 
d="M360 770h-90l-105 140h86l64 -85l63 85h86zM298 700q169 0 255.5 -94t86.5 -256t-86 -256t-256 -94h-215v700h215zM287 78q259 0 259 274q0 270 -259 270h-114v-544h114z" />
    <glyph glyph-name="dcaron" unicode="&#x10f;" 
d="M420 424v286h83v-710h-83v76q-15 -31 -54.5 -58.5t-103.5 -27.5q-98 0 -155.5 70t-57.5 186q0 120 62 192t157 72q53 0 93.5 -23.5t58.5 -62.5zM577 698h98v-59q0 -68 -24 -98.5t-86 -39.5v38q34 6 45 22t11 48h-44v89zM276 59q68 0 106 50.5t38 142.5q0 88 -36 137.5
t-104 49.5q-72 0 -109.5 -55.5t-37.5 -142.5q0 -84 36.5 -133t106.5 -49z" />
    <glyph glyph-name="Dcroat" unicode="&#x110;" horiz-adv-x="700" 
d="M298 700q169 0 255.5 -94t86.5 -256t-86 -256t-256 -94h-215v311h-134v77h134v312h215zM287 78q259 0 259 274q0 270 -259 270h-114v-234h245v-77h-245v-233h114z" />
    <glyph glyph-name="dcroat" unicode="&#x111;" 
d="M582 627v-66h-79v-561h-83v76q-15 -31 -54.5 -58.5t-103.5 -27.5q-98 0 -155.5 70t-57.5 186q0 120 62 192t157 72q53 0 93.5 -23.5t58.5 -62.5v137h-140v66h140v83h83v-83h79zM276 59q68 0 106 50.5t38 142.5q0 88 -36 137.5t-104 49.5q-72 0 -109.5 -55.5t-37.5 -142.5
q0 -84 36.5 -133t106.5 -49z" />
    <glyph glyph-name="Emacron" unicode="&#x112;" horiz-adv-x="584" 
d="M453 861v-71h-307v71h307zM516 620h-342v-227h319v-76h-319v-237h342v-80h-433v700h433v-80z" />
    <glyph glyph-name="emacron" unicode="&#x113;" horiz-adv-x="564" 
d="M418 647v-64h-279v64h279zM429 161h79q-9 -74 -64.5 -122.5t-151.5 -48.5q-115 0 -179 74t-64 186t62.5 185.5t171.5 73.5q106 0 164.5 -70t58.5 -193v-18h-372q5 -78 48 -124t112 -46q54 0 89.5 27.5t45.5 75.5zM285 442q-64 0 -102 -41t-47 -111h286q-6 70 -39.5 111
t-97.5 41z" />
    <glyph glyph-name="Ebreve" unicode="&#x114;" horiz-adv-x="584" 
d="M302 770q-64 0 -103.5 40t-39.5 97h73q2 -30 19.5 -50.5t49.5 -20.5q31 0 47.5 20.5t18.5 50.5h75q0 -57 -38.5 -97t-101.5 -40zM516 620h-342v-227h319v-76h-319v-237h342v-80h-433v700h433v-80z" />
    <glyph glyph-name="ebreve" unicode="&#x115;" horiz-adv-x="564" 
d="M280 565q-58 0 -94 36.5t-36 88.5h66q2 -27 18 -46t45 -19t43.5 18.5t16.5 46.5h68q0 -52 -35 -88.5t-92 -36.5zM429 161h79q-9 -74 -64.5 -122.5t-151.5 -48.5q-115 0 -179 74t-64 186t62.5 185.5t171.5 73.5q106 0 164.5 -70t58.5 -193v-18h-372q5 -78 48 -124t112 -46
q54 0 89.5 27.5t45.5 75.5zM285 442q-64 0 -102 -41t-47 -111h286q-6 70 -39.5 111t-97.5 41z" />
    <glyph glyph-name="Edotaccent" unicode="&#x116;" horiz-adv-x="584" 
d="M354 894v-101h-108v101h108zM516 620h-342v-227h319v-76h-319v-237h342v-80h-433v700h433v-80z" />
    <glyph glyph-name="edotaccent" unicode="&#x117;" horiz-adv-x="564" 
d="M328 680v-92h-98v92h98zM429 161h79q-9 -74 -64.5 -122.5t-151.5 -48.5q-115 0 -179 74t-64 186t62.5 185.5t171.5 73.5q106 0 164.5 -70t58.5 -193v-18h-372q5 -78 48 -124t112 -46q54 0 89.5 27.5t45.5 75.5zM285 442q-64 0 -102 -41t-47 -111h286q-6 70 -39.5 111
t-97.5 41z" />
    <glyph glyph-name="Eogonek" unicode="&#x118;" horiz-adv-x="584" 
d="M516 620h-342v-227h319v-76h-319v-237h342v-80h-154q-34 -19 -56.5 -47t-22.5 -56q0 -59 81 -59h18v-64h-29q-68 0 -105 32.5t-37 81.5q0 68 76 112h-204v700h433v-80z" />
    <glyph glyph-name="eogonek" unicode="&#x119;" horiz-adv-x="564" 
d="M339 -6q-61 -41 -61 -88q0 -53 73 -53h17v-58h-27q-61 0 -95 29.5t-34 73.5q0 55 55 93q-104 9 -161 81.5t-57 177.5q0 112 62.5 185.5t171.5 73.5q106 0 164.5 -70t58.5 -193v-18h-372q5 -78 48 -124t112 -46q54 0 89.5 27.5t45.5 75.5h79q-8 -64 -51 -110t-118 -57z
M285 442q-64 0 -102 -41t-47 -111h286q-6 70 -39.5 111t-97.5 41z" />
    <glyph glyph-name="Ecaron" unicode="&#x11a;" horiz-adv-x="584" 
d="M345 770h-90l-105 140h86l64 -85l63 85h86zM516 620h-342v-227h319v-76h-319v-237h342v-80h-433v700h433v-80z" />
    <glyph glyph-name="ecaron" unicode="&#x11b;" horiz-adv-x="564" 
d="M320 561h-82l-95 127h78l58 -77l58 77h78zM429 161h79q-9 -74 -64.5 -122.5t-151.5 -48.5q-115 0 -179 74t-64 186t62.5 185.5t171.5 73.5q106 0 164.5 -70t58.5 -193v-18h-372q5 -78 48 -124t112 -46q54 0 89.5 27.5t45.5 75.5zM285 442q-64 0 -102 -41t-47 -111h286
q-6 70 -39.5 111t-97.5 41z" />
    <glyph glyph-name="Gcircumflex" unicode="&#x11c;" horiz-adv-x="764" 
d="M388 853l-64 -85h-86l105 140h90l104 -140h-86zM360 355h328v-355h-62l-10 126q-63 -136 -227 -136q-151 0 -240 99t-89 259q0 162 90.5 262t241.5 100q129 0 206.5 -65t86.5 -179h-89q-10 78 -64.5 121.5t-140.5 43.5q-111 0 -175.5 -78.5t-64.5 -203.5
q0 -124 65.5 -202.5t181.5 -78.5q92 0 149 57t57 157h-244v73z" />
    <glyph glyph-name="gcircumflex" unicode="&#x11d;" horiz-adv-x="575" 
d="M279 638l-58 -77h-78l95 127h82l95 -127h-78zM419 500h82v-499q0 -112 -56.5 -171.5t-165.5 -59.5q-104 0 -157.5 52.5t-57.5 131.5h78q4 -48 36 -81.5t102 -33.5q78 0 108.5 43.5t30.5 123.5v72q-14 -31 -53 -59.5t-104 -28.5q-98 0 -155.5 70t-57.5 186q0 120 62 192
t156 72q53 0 93.5 -23.5t58.5 -62.5v76zM275 59q68 0 106 50.5t38 141.5q0 88 -36 137.5t-102 49.5q-72 0 -109.5 -55.5t-37.5 -141.5q0 -83 36.5 -132.5t104.5 -49.5z" />
    <glyph glyph-name="Gbreve" unicode="&#x11e;" horiz-adv-x="764" 
d="M390 770q-64 0 -103.5 40t-39.5 97h73q2 -30 19.5 -50.5t49.5 -20.5q31 0 47.5 20.5t18.5 50.5h75q0 -57 -38.5 -97t-101.5 -40zM360 355h328v-355h-62l-10 126q-63 -136 -227 -136q-151 0 -240 99t-89 259q0 162 90.5 262t241.5 100q129 0 206.5 -65t86.5 -179h-89
q-10 78 -64.5 121.5t-140.5 43.5q-111 0 -175.5 -78.5t-64.5 -203.5q0 -124 65.5 -202.5t181.5 -78.5q92 0 149 57t57 157h-244v73z" />
    <glyph glyph-name="gbreve" unicode="&#x11f;" horiz-adv-x="575" 
d="M279 565q-58 0 -94 36.5t-36 88.5h66q2 -27 18 -46t45 -19t43.5 18.5t16.5 46.5h68q0 -52 -35 -88.5t-92 -36.5zM419 500h82v-499q0 -112 -56.5 -171.5t-165.5 -59.5q-104 0 -157.5 52.5t-57.5 131.5h78q4 -48 36 -81.5t102 -33.5q78 0 108.5 43.5t30.5 123.5v72
q-14 -31 -53 -59.5t-104 -28.5q-98 0 -155.5 70t-57.5 186q0 120 62 192t156 72q53 0 93.5 -23.5t58.5 -62.5v76zM275 59q68 0 106 50.5t38 141.5q0 88 -36 137.5t-102 49.5q-72 0 -109.5 -55.5t-37.5 -141.5q0 -83 36.5 -132.5t104.5 -49.5z" />
    <glyph glyph-name="Gdotaccent" unicode="&#x120;" horiz-adv-x="764" 
d="M442 894v-101h-108v101h108zM360 355h328v-355h-62l-10 126q-63 -136 -227 -136q-151 0 -240 99t-89 259q0 162 90.5 262t241.5 100q129 0 206.5 -65t86.5 -179h-89q-10 78 -64.5 121.5t-140.5 43.5q-111 0 -175.5 -78.5t-64.5 -203.5q0 -124 65.5 -202.5t181.5 -78.5
q92 0 149 57t57 157h-244v73z" />
    <glyph glyph-name="gdotaccent" unicode="&#x121;" horiz-adv-x="575" 
d="M327 680v-92h-98v92h98zM419 500h82v-499q0 -112 -56.5 -171.5t-165.5 -59.5q-104 0 -157.5 52.5t-57.5 131.5h78q4 -48 36 -81.5t102 -33.5q78 0 108.5 43.5t30.5 123.5v72q-14 -31 -53 -59.5t-104 -28.5q-98 0 -155.5 70t-57.5 186q0 120 62 192t156 72
q53 0 93.5 -23.5t58.5 -62.5v76zM275 59q68 0 106 50.5t38 141.5q0 88 -36 137.5t-102 49.5q-72 0 -109.5 -55.5t-37.5 -141.5q0 -83 36.5 -132.5t104.5 -49.5z" />
    <glyph glyph-name="Gcommaaccent" unicode="&#x122;" horiz-adv-x="764" 
d="M360 355h328v-355h-62l-10 126q-63 -136 -227 -136q-151 0 -240 99t-89 259q0 162 90.5 262t241.5 100q129 0 206.5 -65t86.5 -179h-89q-10 78 -64.5 121.5t-140.5 43.5q-111 0 -175.5 -78.5t-64.5 -203.5q0 -124 65.5 -202.5t181.5 -78.5q92 0 149 57t57 157h-244v73z
M341 -166v95h104v-63q0 -73 -26 -105.5t-91 -42.5v41q35 6 47 23.5t12 51.5h-46z" />
    <glyph glyph-name="gcommaaccent" unicode="&#x123;" horiz-adv-x="575" 
d="M320 651v-79h-82v53q0 60 20.5 87.5t72.5 34.5v-34q-28 -6 -38 -20t-10 -42h37zM419 500h82v-499q0 -112 -56.5 -171.5t-165.5 -59.5q-104 0 -157.5 52.5t-57.5 131.5h78q4 -48 36 -81.5t102 -33.5q78 0 108.5 43.5t30.5 123.5v72q-14 -31 -53 -59.5t-104 -28.5
q-98 0 -155.5 70t-57.5 186q0 120 62 192t156 72q53 0 93.5 -23.5t58.5 -62.5v76zM275 59q68 0 106 50.5t38 141.5q0 88 -36 137.5t-102 49.5q-72 0 -109.5 -55.5t-37.5 -141.5q0 -83 36.5 -132.5t104.5 -49.5z" />
    <glyph glyph-name="Hcircumflex" unicode="&#x124;" horiz-adv-x="723" 
d="M362 853l-64 -85h-86l105 140h90l104 -140h-86zM547 700h93v-700h-93v316h-372v-316h-92v700h92v-305h372v305z" />
    <glyph glyph-name="hcircumflex" unicode="&#x125;" horiz-adv-x="578" 
d="M166 771l-58 77l-58 -77h-78l95 127h82l95 -127h-78zM349 510q75 0 115.5 -48t40.5 -144v-318h-85v289q0 78 -22 114.5t-72 36.5q-68 0 -118 -77.5t-50 -208.5v-154h-84v500h1v210h84v-210h-1v-153q54 163 191 163z" />
    <glyph glyph-name="Hbar" unicode="&#x126;" horiz-adv-x="708" 
d="M544 700h93v-700h-93v182h-372v-182h-92v700h92v-190h372v190zM172 261h372v170h-372v-170z" />
    <glyph glyph-name="hbar" unicode="&#x127;" horiz-adv-x="578" 
d="M349 510q75 0 115.5 -48t40.5 -144v-318h-85v289q0 78 -22 114.5t-72 36.5q-68 0 -118 -77.5t-50 -208.5v-154h-84v500h1v61h-97v66h97v83h84v-83h121v-66h-121v-61h-1v-153q54 163 191 163z" />
    <glyph glyph-name="Itilde" unicode="&#x128;" horiz-adv-x="257" 
d="M-55 785q8 59 40 90t77 31q41 0 77.5 -27t56.5 -27q22 0 37 14t21 37h59q-8 -59 -40.5 -90t-76.5 -31q-41 0 -78.5 27t-58.5 27t-36 -14t-20 -37h-58zM174 0h-91v700h91v-700z" />
    <glyph glyph-name="itilde" unicode="&#x129;" horiz-adv-x="233" 
d="M-47 570q7 53 36 81.5t68 28.5q37 0 69.5 -24.5t50.5 -24.5q40 0 51 46h53q-7 -53 -36 -81.5t-68 -28.5q-37 0 -70.5 24.5t-51.5 24.5q-39 0 -50 -46h-52zM159 0h-85v500h85v-500z" />
    <glyph glyph-name="Imacron" unicode="&#x12a;" horiz-adv-x="257" 
d="M-25 861h307v-71h-307v71zM174 0h-91v700h91v-700z" />
    <glyph glyph-name="imacron" unicode="&#x12b;" horiz-adv-x="233" 
d="M-23 647h279v-64h-279v64zM159 0h-85v500h85v-500z" />
    <glyph glyph-name="Ibreve" unicode="&#x12c;" horiz-adv-x="257" 
d="M271 907q0 -57 -38.5 -97t-101.5 -40q-64 0 -103.5 40t-39.5 97h73q2 -30 19.5 -50.5t49.5 -20.5q31 0 47.5 20.5t18.5 50.5h75zM174 0h-91v700h91v-700z" />
    <glyph glyph-name="ibreve" unicode="&#x12d;" horiz-adv-x="233" 
d="M245 690q0 -52 -35 -88.5t-92 -36.5q-58 0 -94 36.5t-36 88.5h66q2 -27 18 -46t45 -19t43.5 18.5t16.5 46.5h68zM159 0h-85v500h85v-500z" />
    <glyph glyph-name="Iogonek" unicode="&#x12e;" horiz-adv-x="257" 
d="M176 -162h18v-64h-29q-68 0 -105 32.5t-37 81.5q0 68 76 112h-16v700h91v-700q-34 -19 -56.5 -47t-22.5 -56q0 -59 81 -59z" />
    <glyph glyph-name="iogonek" unicode="&#x12f;" horiz-adv-x="233" 
d="M166 680v-92h-98v92h98zM160 -147h17v-58h-27q-61 0 -95 29.5t-34 73.5q0 62 69 102h-16v500h85v-500q-31 -18 -51.5 -43t-20.5 -51q0 -53 73 -53z" />
    <glyph glyph-name="Idotaccent" unicode="&#x130;" horiz-adv-x="257" 
d="M75 793v101h108v-101h-108zM174 0h-91v700h91v-700z" />
    <glyph glyph-name="dotlessi" unicode="&#x131;" horiz-adv-x="233" 
d="M159 0h-85v500h85v-500z" />
    <glyph glyph-name="IJ" unicode="&#x132;" horiz-adv-x="884" 
d="M174 0h-91v700h91v-700zM712 700h91v-438q0 -132 -65.5 -202t-186.5 -70q-118 0 -183.5 68.5t-65.5 196.5v32h90v-32q0 -93 41.5 -139.5t115.5 -46.5q79 0 121 50.5t42 150.5v430z" />
    <glyph glyph-name="ij" unicode="&#x133;" horiz-adv-x="466" 
d="M166 680v-92h-98v92h98zM301 680h98v-92h-98v92zM159 500v-500h-85v500h85zM307 500h85v-560q0 -76 -42.5 -118t-120.5 -42h-81v70h63q97 0 96 100v550z" />
    <glyph glyph-name="Jcircumflex" unicode="&#x134;" horiz-adv-x="637" 
d="M660 768h-86l-63 85l-64 -85h-86l105 140h90zM465 700h91v-438q0 -132 -65.5 -202t-186.5 -70q-118 0 -183.5 68.5t-65.5 196.5v32h90v-32q0 -93 41.5 -139.5t115.5 -46.5q79 0 121 50.5t42 150.5v430z" />
    <glyph glyph-name="jcircumflex" unicode="&#x135;" horiz-adv-x="233" 
d="M159 688l95 -127h-78l-58 77l-58 -77h-78l95 127h82zM74 500h85v-560q0 -76 -42.5 -118t-120.5 -42h-81v70h63q97 0 96 100v550z" />
    <glyph glyph-name="Kcommaaccent" unicode="&#x136;" horiz-adv-x="610" 
d="M292 380l298 -380h-109l-248 313l-60 -69v-244h-90v700h90v-328l285 328h114zM268 -166v95h104v-63q0 -73 -26 -105.5t-91 -42.5v41q35 6 47 23.5t12 51.5h-46z" />
    <glyph glyph-name="kcommaaccent" unicode="&#x137;" horiz-adv-x="505" 
d="M266 279l222 -279h-98l-178 222l-57 -60v-162h-81v710h81v-442l220 232h101zM223 -151v87h94v-58q0 -67 -23 -96.5t-83 -37.5v37q32 6 43 21.5t11 46.5h-42z" />
    <glyph glyph-name="Lacute" unicode="&#x139;" horiz-adv-x="580" 
d="M264 919l-126 -142h-89l101 142h114zM176 81h356v-81h-449v700h93v-619z" />
    <glyph glyph-name="lacute" unicode="&#x13a;" horiz-adv-x="234" 
d="M148 909h103l-114 -129h-81zM160 0h-86v710h86v-710z" />
    <glyph glyph-name="Lcommaaccent" unicode="&#x13b;" horiz-adv-x="580" 
d="M176 81h356v-81h-449v700h93v-619zM258 -166v95h104v-63q0 -73 -26 -105.5t-91 -42.5v41q35 6 47 23.5t12 51.5h-46z" />
    <glyph glyph-name="lcommaaccent" unicode="&#x13c;" horiz-adv-x="234" 
d="M160 710v-710h-86v710h86zM71 -64h94v-58q0 -67 -23 -96.5t-83 -37.5v37q32 6 43 21.5t11 46.5h-42v87z" />
    <glyph glyph-name="Lcaron" unicode="&#x13d;" horiz-adv-x="580" 
d="M399 639q0 -73 -26 -105.5t-91 -42.5v41q35 6 47 23.5t12 51.5h-46v95h104v-63zM176 81h356v-81h-449v700h93v-619z" />
    <glyph glyph-name="lcaron" unicode="&#x13e;" horiz-adv-x="234" 
d="M74 0v710h86v-710h-86zM235 698h98v-59q0 -68 -24 -98.5t-86 -39.5v38q34 6 45 22t11 48h-44v89z" />
    <glyph glyph-name="Ldot" unicode="&#x13f;" horiz-adv-x="580" 
d="M176 81h356v-81h-449v700h93v-619zM407 433v-99h-100v99h100z" />
    <glyph glyph-name="Lslash" unicode="&#x141;" horiz-adv-x="580" 
d="M176 81h356v-81h-449v251l-102 -69v95l102 69v354h93v-292l166 112v-95l-166 -112v-232z" />
    <glyph glyph-name="lslash" unicode="&#x142;" horiz-adv-x="234" 
d="M258 520v-85l-98 -84v-351h-86v277l-97 -84v85l97 84v348h86v-274z" />
    <glyph glyph-name="Nacute" unicode="&#x143;" horiz-adv-x="728" 
d="M498 919l-126 -142h-89l101 142h114zM557 700h88v-700h-112l-361 595v-595h-89v700h114l360 -596v596z" />
    <glyph glyph-name="nacute" unicode="&#x144;" horiz-adv-x="578" 
d="M414 699l-114 -129h-81l92 129h103zM349 510q75 0 115.5 -48t40.5 -144v-318h-85v289q0 78 -22 114.5t-72 36.5q-68 0 -118 -77.5t-50 -208.5v-154h-84v500h84v-153q54 163 191 163z" />
    <glyph glyph-name="Ncommaaccent" unicode="&#x145;" horiz-adv-x="728" 
d="M557 700h88v-700h-112l-361 595v-595h-89v700h114l360 -596v596zM325 -166v95h104v-63q0 -73 -26 -105.5t-91 -42.5v41q35 6 47 23.5t12 51.5h-46z" />
    <glyph glyph-name="ncommaaccent" unicode="&#x146;" horiz-adv-x="578" 
d="M349 510q75 0 115.5 -48t40.5 -144v-318h-85v289q0 78 -22 114.5t-72 36.5q-68 0 -118 -77.5t-50 -208.5v-154h-84v500h84v-153q54 163 191 163zM245 -151v87h94v-58q0 -67 -23 -96.5t-83 -37.5v37q32 6 43 21.5t11 46.5h-42z" />
    <glyph glyph-name="Ncaron" unicode="&#x147;" horiz-adv-x="728" 
d="M409 770h-90l-105 140h86l64 -85l63 85h86zM557 700h88v-700h-112l-361 595v-595h-89v700h114l360 -596v596z" />
    <glyph glyph-name="ncaron" unicode="&#x148;" horiz-adv-x="578" 
d="M321 561h-82l-95 127h78l58 -77l58 77h78zM349 510q75 0 115.5 -48t40.5 -144v-318h-85v289q0 78 -22 114.5t-72 36.5q-68 0 -118 -77.5t-50 -208.5v-154h-84v500h84v-153q54 163 191 163z" />
    <glyph glyph-name="Eng" unicode="&#x14a;" horiz-adv-x="728" 
d="M557 700h88v-755q0 -78 -43.5 -121.5t-120.5 -43.5h-86v75h66q49 0 71.5 24t23.5 78v43h-23l-361 595v-595h-89v700h114l360 -596v596z" />
    <glyph glyph-name="eng" unicode="&#x14b;" horiz-adv-x="578" 
d="M349 510q75 0 115.5 -48t40.5 -144v-378q0 -76 -42.5 -118t-120.5 -42h-81v70h63q97 0 96 100v339q0 78 -22 114.5t-72 36.5q-68 0 -118 -77.5t-50 -208.5v-154h-84v500h84v-153q54 163 191 163z" />
    <glyph glyph-name="Omacron" unicode="&#x14c;" horiz-adv-x="780" 
d="M236 861h307v-71h-307v71zM390 -10q-153 0 -241.5 97t-88.5 263t88.5 263t241.5 97q154 0 242 -97t88 -263t-88 -263t-242 -97zM390 69q109 0 172.5 76.5t63.5 204.5t-63.5 204.5t-172.5 76.5t-172.5 -76.5t-63.5 -204.5t63.5 -204.5t172.5 -76.5z" />
    <glyph glyph-name="omacron" unicode="&#x14d;" 
d="M148 647h279v-64h-279v64zM288 -10q-109 0 -174 71.5t-65 187.5t65 188t174 72t174 -72t65 -188t-65 -187.5t-174 -71.5zM288 58q73 0 114 53.5t41 137.5t-41 137.5t-114 53.5t-114 -53.5t-41 -137.5t41 -137.5t114 -53.5z" />
    <glyph glyph-name="Obreve" unicode="&#x14e;" horiz-adv-x="780" 
d="M532 907q0 -57 -38.5 -97t-101.5 -40q-64 0 -103.5 40t-39.5 97h73q2 -30 19.5 -50.5t49.5 -20.5q31 0 47.5 20.5t18.5 50.5h75zM390 -10q-153 0 -241.5 97t-88.5 263t88.5 263t241.5 97q154 0 242 -97t88 -263t-88 -263t-242 -97zM390 69q109 0 172.5 76.5t63.5 204.5
t-63.5 204.5t-172.5 76.5t-172.5 -76.5t-63.5 -204.5t63.5 -204.5t172.5 -76.5z" />
    <glyph glyph-name="obreve" unicode="&#x14f;" 
d="M416 690q0 -52 -35 -88.5t-92 -36.5q-58 0 -94 36.5t-36 88.5h66q2 -27 18 -46t45 -19t43.5 18.5t16.5 46.5h68zM288 -10q-109 0 -174 71.5t-65 187.5t65 188t174 72t174 -72t65 -188t-65 -187.5t-174 -71.5zM288 58q73 0 114 53.5t41 137.5t-41 137.5t-114 53.5
t-114 -53.5t-41 -137.5t41 -137.5t114 -53.5z" />
    <glyph glyph-name="Ohungarumlaut" unicode="&#x150;" horiz-adv-x="780" 
d="M332 921h98l-97 -142h-78zM500 921h97l-96 -142h-78zM390 -10q-153 0 -241.5 97t-88.5 263t88.5 263t241.5 97q154 0 242 -97t88 -263t-88 -263t-242 -97zM390 69q109 0 172.5 76.5t63.5 204.5t-63.5 204.5t-172.5 76.5t-172.5 -76.5t-63.5 -204.5t63.5 -204.5
t172.5 -76.5z" />
    <glyph glyph-name="ohungarumlaut" unicode="&#x151;" 
d="M239 692h89l-88 -129h-71zM392 692h88l-87 -129h-71zM288 -10q-109 0 -174 71.5t-65 187.5t65 188t174 72t174 -72t65 -188t-65 -187.5t-174 -71.5zM288 58q73 0 114 53.5t41 137.5t-41 137.5t-114 53.5t-114 -53.5t-41 -137.5t41 -137.5t114 -53.5z" />
    <glyph glyph-name="OE" unicode="&#x152;" horiz-adv-x="1130" 
d="M1062 620h-342v-227h319v-76h-319v-237h342v-80h-433v84q-89 -94 -239 -94q-153 0 -241.5 97t-88.5 263t88.5 263t241.5 97q150 0 239 -94v84h433v-80zM390 69q109 0 172.5 76.5t63.5 204.5t-63.5 204.5t-172.5 76.5t-172.5 -76.5t-63.5 -204.5t63.5 -204.5t172.5 -76.5z
" />
    <glyph glyph-name="oe" unicode="&#x153;" horiz-adv-x="958" 
d="M823 161h79q-9 -74 -64.5 -122.5t-151.5 -48.5q-135 0 -200 103q-66 -103 -198 -103q-109 0 -174 71.5t-65 187.5t65 188t174 72q132 0 197 -102q63 102 192 102q106 0 164.5 -70t58.5 -193v-18h-372q5 -78 48 -124t112 -46q54 0 89.5 27.5t45.5 75.5zM679 442
q-64 0 -102 -41t-47 -111h286q-6 70 -39.5 111t-97.5 41zM288 58q73 0 114 53.5t41 137.5t-41 137.5t-114 53.5t-114 -53.5t-41 -137.5t41 -137.5t114 -53.5z" />
    <glyph glyph-name="Racute" unicode="&#x154;" horiz-adv-x="636" 
d="M425 919l-126 -142h-89l101 142h114zM540 169l53 -169h-97l-53 163q-6 18 -13.5 32.5t-13.5 25.5t-18.5 19.5t-19 14t-25 9t-26 5.5t-32.5 3t-35 1h-42.5h-45.5v-273h-89v700h236q125 0 184.5 -60.5t59.5 -147.5q0 -68 -36.5 -117.5t-112.5 -68.5q91 -25 126 -137z
M332 620h-160v-269h160q71 0 105.5 41t34.5 96t-35 93.5t-105 38.5z" />
    <glyph glyph-name="racute" unicode="&#x155;" horiz-adv-x="427" 
d="M363 699l-114 -129h-81l92 129h103zM325 500h64v-72h-62q-168 0 -168 -223v-205h-85v500h85v-124q22 60 61 92t105 32z" />
    <glyph glyph-name="Rcommaaccent" unicode="&#x156;" horiz-adv-x="636" 
d="M540 169l53 -169h-97l-53 163q-6 18 -13.5 32.5t-13.5 25.5t-18.5 19.5t-19 14t-25 9t-26 5.5t-32.5 3t-35 1h-42.5h-45.5v-273h-89v700h236q125 0 184.5 -60.5t59.5 -147.5q0 -68 -36.5 -117.5t-112.5 -68.5q91 -25 126 -137zM332 620h-160v-269h160q71 0 105.5 41
t34.5 96t-35 93.5t-105 38.5zM287 -166v95h104v-63q0 -73 -26 -105.5t-91 -42.5v41q35 6 47 23.5t12 51.5h-46z" />
    <glyph glyph-name="rcommaaccent" unicode="&#x157;" horiz-adv-x="427" 
d="M325 500h64v-72h-62q-168 0 -168 -223v-205h-85v500h85v-124q22 60 61 92t105 32zM71 -151v87h94v-58q0 -67 -23 -96.5t-83 -37.5v37q32 6 43 21.5t11 46.5h-42z" />
    <glyph glyph-name="Rcaron" unicode="&#x158;" horiz-adv-x="636" 
d="M336 770h-90l-105 140h86l64 -85l63 85h86zM540 169l53 -169h-97l-53 163q-6 18 -13.5 32.5t-13.5 25.5t-18.5 19.5t-19 14t-25 9t-26 5.5t-32.5 3t-35 1h-42.5h-45.5v-273h-89v700h236q125 0 184.5 -60.5t59.5 -147.5q0 -68 -36.5 -117.5t-112.5 -68.5q91 -25 126 -137z
M332 620h-160v-269h160q71 0 105.5 41t34.5 96t-35 93.5t-105 38.5z" />
    <glyph glyph-name="rcaron" unicode="&#x159;" horiz-adv-x="427" 
d="M270 561h-82l-95 127h78l58 -77l58 77h78zM325 500h64v-72h-62q-168 0 -168 -223v-205h-85v500h85v-124q22 60 61 92t105 32z" />
    <glyph glyph-name="Sacute" unicode="&#x15a;" horiz-adv-x="640" 
d="M326 919h114l-126 -142h-89zM156 207q16 -139 168 -139q125 0 125 99q0 53 -40.5 80.5t-150.5 56.5q-107 26 -159 75t-52 132q0 91 73.5 145t176.5 54q260 0 283 -247h-89q-20 168 -195 168q-66 0 -112.5 -32t-46.5 -89q0 -54 39 -84.5t145 -58.5q49 -12 85 -26.5
t68.5 -37t49.5 -56t17 -77.5q0 -85 -59 -132.5t-162 -47.5q-113 0 -179 58.5t-75 158.5h90z" />
    <glyph glyph-name="sacute" unicode="&#x15b;" horiz-adv-x="501" 
d="M275 699h103l-114 -129h-81zM140 152q9 -96 118 -96q94 0 94 68q0 13 -3.5 24t-13 19t-17 14t-24.5 11.5t-26 8t-30 8t-30 7.5q-79 20 -120 55t-41 95q0 66 52 104.5t140 38.5q90 0 148 -44t69 -138h-79q-4 58 -42.5 86.5t-96.5 28.5q-55 0 -82.5 -21.5t-27.5 -54.5
q0 -38 28 -56t100 -36q39 -9 66 -19t55.5 -27t43.5 -43t15 -60q0 -66 -51.5 -100.5t-130.5 -34.5q-85 0 -136.5 42t-56.5 120h79z" />
    <glyph glyph-name="Scircumflex" unicode="&#x15c;" horiz-adv-x="640" 
d="M455 768h-86l-63 85l-64 -85h-86l105 140h90zM156 207q16 -139 168 -139q125 0 125 99q0 53 -40.5 80.5t-150.5 56.5q-107 26 -159 75t-52 132q0 91 73.5 145t176.5 54q260 0 283 -247h-89q-20 168 -195 168q-66 0 -112.5 -32t-46.5 -89q0 -54 39 -84.5t145 -58.5
q49 -12 85 -26.5t68.5 -37t49.5 -56t17 -77.5q0 -85 -59 -132.5t-162 -47.5q-113 0 -179 58.5t-75 158.5h90z" />
    <glyph glyph-name="scircumflex" unicode="&#x15d;" horiz-adv-x="501" 
d="M381 561h-78l-58 77l-58 -77h-78l95 127h82zM140 152q9 -96 118 -96q94 0 94 68q0 13 -3.5 24t-13 19t-17 14t-24.5 11.5t-26 8t-30 8t-30 7.5q-79 20 -120 55t-41 95q0 66 52 104.5t140 38.5q90 0 148 -44t69 -138h-79q-4 58 -42.5 86.5t-96.5 28.5q-55 0 -82.5 -21.5
t-27.5 -54.5q0 -38 28 -56t100 -36q39 -9 66 -19t55.5 -27t43.5 -43t15 -60q0 -66 -51.5 -100.5t-130.5 -34.5q-85 0 -136.5 42t-56.5 120h79z" />
    <glyph glyph-name="Scedilla" unicode="&#x15e;" horiz-adv-x="640" 
d="M321 367q49 -12 85 -26.5t68.5 -37t49.5 -56t17 -77.5q0 -77 -48.5 -123.5t-134.5 -54.5q63 -43 63 -104q0 -49 -37.5 -81.5t-105.5 -32.5h-48v63h40q81 0 81 60q0 51 -65 94q-98 9 -155 66.5t-65 149.5h90q16 -139 168 -139q125 0 125 99q0 53 -40.5 80.5t-150.5 56.5
q-107 26 -159 75t-52 132q0 91 73.5 145t176.5 54q260 0 283 -247h-89q-20 168 -195 168q-66 0 -112.5 -32t-46.5 -89q0 -54 39 -84.5t145 -58.5z" />
    <glyph glyph-name="scedilla" unicode="&#x15f;" horiz-adv-x="501" 
d="M256 274q39 -9 66 -19t55.5 -27t43.5 -43t15 -60q0 -59 -40.5 -92.5t-106.5 -40.5q56 -39 56 -94q0 -44 -34.5 -73.5t-95.5 -29.5h-44v57h36q74 0 74 54q0 44 -58 86q-72 7 -115 48.5t-47 111.5h79q9 -96 118 -96q94 0 94 68q0 13 -3.5 24t-13 19t-17 14t-24.5 11.5
t-26 8t-30 8t-30 7.5q-79 20 -120 55t-41 95q0 66 52 104.5t140 38.5q90 0 148 -44t69 -138h-79q-4 58 -42.5 86.5t-96.5 28.5q-55 0 -82.5 -21.5t-27.5 -54.5q0 -38 28 -56t100 -36z" />
    <glyph glyph-name="Scaron" unicode="&#x160;" horiz-adv-x="640" 
d="M369 910h86l-104 -140h-90l-105 140h86l64 -85zM156 207q16 -139 168 -139q125 0 125 99q0 53 -40.5 80.5t-150.5 56.5q-107 26 -159 75t-52 132q0 91 73.5 145t176.5 54q260 0 283 -247h-89q-20 168 -195 168q-66 0 -112.5 -32t-46.5 -89q0 -54 39 -84.5t145 -58.5
q49 -12 85 -26.5t68.5 -37t49.5 -56t17 -77.5q0 -85 -59 -132.5t-162 -47.5q-113 0 -179 58.5t-75 158.5h90z" />
    <glyph glyph-name="scaron" unicode="&#x161;" horiz-adv-x="501" 
d="M302 688h78l-95 -127h-82l-95 127h78l58 -77zM140 152q9 -96 118 -96q94 0 94 68q0 13 -3.5 24t-13 19t-17 14t-24.5 11.5t-26 8t-30 8t-30 7.5q-79 20 -120 55t-41 95q0 66 52 104.5t140 38.5q90 0 148 -44t69 -138h-79q-4 58 -42.5 86.5t-96.5 28.5q-55 0 -82.5 -21.5
t-27.5 -54.5q0 -38 28 -56t100 -36q39 -9 66 -19t55.5 -27t43.5 -43t15 -60q0 -66 -51.5 -100.5t-130.5 -34.5q-85 0 -136.5 42t-56.5 120h79z" />
    <glyph glyph-name="uni0162" unicode="&#x162;" horiz-adv-x="638" 
d="M364 620v-620h-19q76 -45 76 -112q0 -49 -37.5 -81.5t-105.5 -32.5h-48v63h40q81 0 81 60q0 28 -22.5 56t-55.5 47v620h-232v80h556v-80h-233z" />
    <glyph glyph-name="uni0163" unicode="&#x163;" horiz-adv-x="377" 
d="M349 0q69 -41 69 -102q0 -44 -34.5 -73.5t-95.5 -29.5h-44v57h36q74 0 74 54q0 25 -20.5 50.5t-50.5 43.5h-9q-70 0 -110.5 42t-40.5 116v276h-95v66h95v118l84 14v-132h123v-66h-123v-265q0 -99 85 -99h57v-70z" />
    <glyph glyph-name="Tcaron" unicode="&#x164;" horiz-adv-x="638" 
d="M365 770h-90l-105 140h86l64 -85l63 85h86zM597 700v-80h-233v-620h-91v620h-232v80h556z" />
    <glyph glyph-name="tcaron" unicode="&#x165;" horiz-adv-x="377" 
d="M315 700h98v-59q0 -68 -24 -98.5t-86 -39.5v38q34 6 45 22t11 48h-44v89zM207 169q0 -99 85 -99h57v-70h-75q-70 0 -110.5 42t-40.5 116v276h-95v66h95v118l84 14v-132h123v-66h-123v-265z" />
    <glyph glyph-name="Tbar" unicode="&#x166;" horiz-adv-x="638" 
d="M597 620h-233v-197h190v-77h-190v-346h-91v346h-188v77h188v197h-232v80h556v-80z" />
    <glyph glyph-name="tbar" unicode="&#x167;" horiz-adv-x="377" 
d="M292 70h57v-70h-75q-70 0 -110.5 42t-40.5 116v105h-95v66h95v105h-95v66h95v118l84 14v-132h123v-66h-123v-105h123v-66h-123v-94q0 -99 85 -99z" />
    <glyph glyph-name="Utilde" unicode="&#x168;" horiz-adv-x="715" 
d="M173 785q8 59 40 90t77 31q41 0 77.5 -27t56.5 -27q22 0 37 14t21 37h59q-8 -59 -40.5 -90t-76.5 -31q-41 0 -78.5 27t-58.5 27t-36 -14t-20 -37h-58zM80 700h91v-399q0 -232 186 -232t186 232v399h91v-407q0 -147 -70 -225t-207 -78t-207 78t-70 225v407z" />
    <glyph glyph-name="utilde" unicode="&#x169;" 
d="M227 616q-39 0 -50 -46h-52q7 53 36 81.5t68 28.5q37 0 69.5 -24.5t50.5 -24.5q40 0 51 46h53q-7 -53 -36 -81.5t-68 -28.5q-37 0 -70.5 24.5t-51.5 24.5zM420 500h83v-500h-83v153q-54 -163 -192 -163q-75 0 -115.5 48t-40.5 144v318h85v-289q0 -78 22 -114.5t72 -36.5
q69 0 119 77.5t50 208.5v154z" />
    <glyph glyph-name="Umacron" unicode="&#x16a;" horiz-adv-x="715" 
d="M203 861h307v-71h-307v71zM80 700h91v-399q0 -232 186 -232t186 232v399h91v-407q0 -147 -70 -225t-207 -78t-207 78t-70 225v407z" />
    <glyph glyph-name="umacron" unicode="&#x16b;" 
d="M428 647v-64h-279v64h279zM420 500h83v-500h-83v153q-54 -163 -192 -163q-75 0 -115.5 48t-40.5 144v318h85v-289q0 -78 22 -114.5t72 -36.5q69 0 119 77.5t50 208.5v154z" />
    <glyph glyph-name="Ubreve" unicode="&#x16c;" horiz-adv-x="715" 
d="M499 907q0 -57 -38.5 -97t-101.5 -40q-64 0 -103.5 40t-39.5 97h73q2 -30 19.5 -50.5t49.5 -20.5q31 0 47.5 20.5t18.5 50.5h75zM80 700h91v-399q0 -232 186 -232t186 232v399h91v-407q0 -147 -70 -225t-207 -78t-207 78t-70 225v407z" />
    <glyph glyph-name="ubreve" unicode="&#x16d;" 
d="M290 565q-58 0 -94 36.5t-36 88.5h66q2 -27 18 -46t45 -19t43.5 18.5t16.5 46.5h68q0 -52 -35 -88.5t-92 -36.5zM420 500h83v-500h-83v153q-54 -163 -192 -163q-75 0 -115.5 48t-40.5 144v318h85v-289q0 -78 22 -114.5t72 -36.5q69 0 119 77.5t50 208.5v154z" />
    <glyph glyph-name="Uring" unicode="&#x16e;" horiz-adv-x="715" 
d="M357 727q-48 0 -79 32t-31 77q0 47 30.5 78.5t79.5 31.5q48 0 78.5 -31.5t30.5 -78.5q0 -45 -30.5 -77t-78.5 -32zM357 789q19 0 32 14t13 33q0 20 -13 34.5t-32 14.5q-20 0 -33 -14.5t-13 -34.5q0 -19 13 -33t33 -14zM80 700h91v-399q0 -232 186 -232t186 232v399h91
v-407q0 -147 -70 -225t-207 -78t-207 78t-70 225v407z" />
    <glyph glyph-name="uring" unicode="&#x16f;" 
d="M289 544q-44 0 -72 29t-28 70q0 43 28 71.5t72 28.5t71.5 -28.5t27.5 -71.5q0 -41 -28 -70t-71 -29zM289 687q-18 0 -30 -13t-12 -31t12 -30.5t30 -12.5t29.5 12.5t11.5 30.5t-11.5 31t-29.5 13zM420 500h83v-500h-83v153q-54 -163 -192 -163q-75 0 -115.5 48t-40.5 144
v318h85v-289q0 -78 22 -114.5t72 -36.5q69 0 119 77.5t50 208.5v154z" />
    <glyph glyph-name="Uhungarumlaut" unicode="&#x170;" horiz-adv-x="715" 
d="M299 921h98l-97 -142h-78zM467 921h97l-96 -142h-78zM80 700h91v-399q0 -232 186 -232t186 232v399h91v-407q0 -147 -70 -225t-207 -78t-207 78t-70 225v407z" />
    <glyph glyph-name="uhungarumlaut" unicode="&#x171;" 
d="M329 692l-88 -129h-71l70 129h89zM394 563h-71l70 129h88zM420 500h83v-500h-83v153q-54 -163 -192 -163q-75 0 -115.5 48t-40.5 144v318h85v-289q0 -78 22 -114.5t72 -36.5q69 0 119 77.5t50 208.5v154z" />
    <glyph glyph-name="Uogonek" unicode="&#x172;" horiz-adv-x="715" 
d="M543 700h91v-407q0 -259 -207 -297q-31 -19 -51.5 -46t-20.5 -53q0 -59 81 -59h18v-64h-29q-68 0 -105 32.5t-37 81.5q0 60 60 102q-130 4 -196.5 82t-66.5 221v407h91v-399q0 -232 186 -232t186 232v399z" />
    <glyph glyph-name="uogonek" unicode="&#x173;" 
d="M505 -147h17v-58h-27q-61 0 -95 29.5t-34 73.5q0 62 69 102h-15v153q-54 -163 -192 -163q-75 0 -115.5 48t-40.5 144v318h85v-289q0 -78 22 -114.5t72 -36.5q69 0 119 77.5t50 208.5v154h83v-500h1q-31 -18 -51.5 -43t-20.5 -51q0 -53 73 -53z" />
    <glyph glyph-name="Wcircumflex" unicode="&#x174;" horiz-adv-x="998" 
d="M499 853l-64 -85h-86l105 140h90l104 -140h-86zM864 700h91l-165 -700h-100l-191 611l-192 -611h-100l-165 700h92l128 -589l185 589h104l184 -589z" />
    <glyph glyph-name="wcircumflex" unicode="&#x175;" horiz-adv-x="757" 
d="M379 638l-58 -77h-78l95 127h82l95 -127h-78zM641 501h82l-126 -501h-90l-128 418l-129 -418h-90l-127 501h82l96 -399l123 399h89l122 -400z" />
    <glyph glyph-name="Ycircumflex" unicode="&#x176;" horiz-adv-x="653" 
d="M323 853l-64 -85h-86l105 140h90l104 -140h-86zM516 700h100l-342 -700h-101l132 268l-279 432h108l217 -343z" />
    <glyph glyph-name="ycircumflex" unicode="&#x177;" horiz-adv-x="553" 
d="M275 638l-58 -77h-78l95 127h82l95 -127h-78zM442 500h87l-226 -589q-28 -72 -66 -101.5t-111 -29.5h-85v69h69q48 0 72 15.5t40 56.5l24 63l-225 516h93l174 -411z" />
    <glyph glyph-name="Ydieresis" unicode="&#x178;" horiz-adv-x="653" 
d="M264 873v-95h-95v95h95zM480 873v-95h-96v95h96zM516 700h100l-342 -700h-101l132 268l-279 432h108l217 -343z" />
    <glyph glyph-name="Zacute" unicode="&#x179;" horiz-adv-x="631" 
d="M449 919l-126 -142h-89l101 142h114zM180 80h386v-80h-511v61l373 559h-347v80h472v-61z" />
    <glyph glyph-name="zacute" unicode="&#x17a;" horiz-adv-x="495" 
d="M376 699l-114 -129h-81l92 129h103zM158 71h275v-71h-387v53l270 377h-252v71h360v-56z" />
    <glyph glyph-name="Zdotaccent" unicode="&#x17b;" horiz-adv-x="631" 
d="M369 894v-101h-108v101h108zM180 80h386v-80h-511v61l373 559h-347v80h472v-61z" />
    <glyph glyph-name="zdotaccent" unicode="&#x17c;" horiz-adv-x="495" 
d="M291 680v-92h-98v92h98zM158 71h275v-71h-387v53l270 377h-252v71h360v-56z" />
    <glyph glyph-name="Zcaron" unicode="&#x17d;" horiz-adv-x="631" 
d="M360 770h-90l-105 140h86l64 -85l63 85h86zM180 80h386v-80h-511v61l373 559h-347v80h472v-61z" />
    <glyph glyph-name="zcaron" unicode="&#x17e;" horiz-adv-x="495" 
d="M283 561h-82l-95 127h78l58 -77l58 77h78zM158 71h275v-71h-387v53l270 377h-252v71h360v-56z" />
    <glyph glyph-name="florin" unicode="&#x192;" horiz-adv-x="633" 
d="M516 626q-57 0 -81.5 -28.5t-38.5 -89.5l-27 -118h182v-64h-196l-31 -136q-23 -102 -65.5 -146t-127.5 -44h-93v74h79q57 0 82 28.5t38 88.5l30 135h-159v64h173l28 129q21 98 63.5 139.5t129.5 41.5h93v-74h-79z" />
    <glyph glyph-name="uni01CD" unicode="&#x1cd;" horiz-adv-x="664" 
d="M377 770h-90l-105 140h86l64 -85l63 85h86zM545 0l-63 177h-301l-63 -177h-94l255 700h106l254 -700h-94zM208 253h247l-123 348z" />
    <glyph glyph-name="uni01CE" unicode="&#x1ce;" horiz-adv-x="547" 
d="M313 561h-82l-95 127h78l58 -77l58 77h78zM283 509q85 0 138 -41.5t53 -120.5v-347h-81v90q-19 -38 -62.5 -69t-110.5 -31q-72 0 -119 37.5t-47 104.5t47.5 101t153.5 50q79 12 108.5 25.5t29.5 48.5q0 37 -31 60.5t-79 23.5q-116 0 -124 -114h-81q2 79 53.5 130.5
t151.5 51.5zM236 55q65 0 111 44.5t46 120.5v41q-35 -21 -123 -37q-69 -13 -101 -33t-32 -59q0 -38 28 -57.5t71 -19.5z" />
    <glyph glyph-name="uni01CF" unicode="&#x1cf;" horiz-adv-x="257" 
d="M192 910h86l-104 -140h-90l-105 140h86l64 -85zM174 0h-91v700h91v-700z" />
    <glyph glyph-name="uni01D0" unicode="&#x1d0;" horiz-adv-x="233" 
d="M175 688h78l-95 -127h-82l-95 127h78l58 -77zM159 0h-85v500h85v-500z" />
    <glyph glyph-name="uni01D1" unicode="&#x1d1;" horiz-adv-x="780" 
d="M453 910h86l-104 -140h-90l-105 140h86l64 -85zM390 -10q-153 0 -241.5 97t-88.5 263t88.5 263t241.5 97q154 0 242 -97t88 -263t-88 -263t-242 -97zM390 69q109 0 172.5 76.5t63.5 204.5t-63.5 204.5t-172.5 76.5t-172.5 -76.5t-63.5 -204.5t63.5 -204.5t172.5 -76.5z
" />
    <glyph glyph-name="uni01D2" unicode="&#x1d2;" 
d="M346 688h78l-95 -127h-82l-95 127h78l58 -77zM288 -10q-109 0 -174 71.5t-65 187.5t65 188t174 72t174 -72t65 -188t-65 -187.5t-174 -71.5zM288 58q73 0 114 53.5t41 137.5t-41 137.5t-114 53.5t-114 -53.5t-41 -137.5t41 -137.5t114 -53.5z" />
    <glyph glyph-name="uni01D3" unicode="&#x1d3;" horiz-adv-x="715" 
d="M420 910h86l-104 -140h-90l-105 140h86l64 -85zM80 700h91v-399q0 -232 186 -232t186 232v399h91v-407q0 -147 -70 -225t-207 -78t-207 78t-70 225v407z" />
    <glyph glyph-name="uni01D4" unicode="&#x1d4;" 
d="M330 561h-82l-95 127h78l58 -77l58 77h78zM420 500h83v-500h-83v153q-54 -163 -192 -163q-75 0 -115.5 48t-40.5 144v318h85v-289q0 -78 22 -114.5t72 -36.5q69 0 119 77.5t50 208.5v154z" />
    <glyph glyph-name="uni01E2" unicode="&#x1e2;" horiz-adv-x="878" 
d="M661 861v-71h-307v71h307zM810 621h-396l82 -228h291v-76h-263l86 -238h200v-79h-265l-63 177h-301l-63 -177h-94l255 700h531v-79zM208 253h247l-123 348z" />
    <glyph glyph-name="uni01E3" unicode="&#x1e3;" horiz-adv-x="913" 
d="M591 647v-64h-279v64h279zM778 161h79q-9 -74 -64.5 -122.5t-151.5 -48.5q-73 0 -126.5 32t-83.5 88q-24 -57 -80.5 -88.5t-130.5 -31.5q-72 0 -119 37.5t-47 104.5t47.5 101t153.5 50q79 12 108.5 25.5t29.5 48.5q0 37 -31 60.5t-79 23.5q-116 0 -124 -114h-81
q2 79 53.5 130.5t151.5 51.5q118 0 166 -87q66 87 183 87q106 0 164.5 -70t58.5 -193v-18h-372q5 -78 48 -124t112 -46q54 0 89.5 27.5t45.5 75.5zM634 442q-64 0 -102 -41t-47 -111h286q-6 70 -39.5 111t-97.5 41zM236 55q65 0 111 44.5t46 120.5v41q-35 -21 -123 -37
q-69 -13 -101 -33t-32 -59q0 -38 28 -57.5t71 -19.5z" />
    <glyph glyph-name="uni01EB" unicode="&#x1eb;" 
d="M353 -2q-29 -18 -48.5 -42.5t-19.5 -49.5q0 -53 73 -53h17v-58h-27q-61 0 -95 29.5t-34 73.5q0 55 54 92q-102 6 -163 77t-61 182q0 116 65 188t174 72t174 -72t65 -188q0 -97 -46.5 -164t-127.5 -87zM133 249q0 -84 41 -137.5t114 -53.5t114 53.5t41 137.5t-41 137.5
t-114 53.5t-114 -53.5t-41 -137.5z" />
    <glyph glyph-name="AEacute" unicode="&#x1fc;" horiz-adv-x="878" 
d="M642 919l-126 -142h-89l101 142h114zM810 621h-396l82 -228h291v-76h-263l86 -238h200v-79h-265l-63 177h-301l-63 -177h-94l255 700h531v-79zM208 253h247l-123 348z" />
    <glyph glyph-name="aeacute" unicode="&#x1fd;" horiz-adv-x="913" 
d="M586 699l-114 -129h-81l92 129h103zM778 161h79q-9 -74 -64.5 -122.5t-151.5 -48.5q-73 0 -126.5 32t-83.5 88q-24 -57 -80.5 -88.5t-130.5 -31.5q-72 0 -119 37.5t-47 104.5t47.5 101t153.5 50q79 12 108.5 25.5t29.5 48.5q0 37 -31 60.5t-79 23.5q-116 0 -124 -114h-81
q2 79 53.5 130.5t151.5 51.5q118 0 166 -87q66 87 183 87q106 0 164.5 -70t58.5 -193v-18h-372q5 -78 48 -124t112 -46q54 0 89.5 27.5t45.5 75.5zM634 442q-64 0 -102 -41t-47 -111h286q-6 70 -39.5 111t-97.5 41zM236 55q65 0 111 44.5t46 120.5v41q-35 -21 -123 -37
q-69 -13 -101 -33t-32 -59q0 -38 28 -57.5t71 -19.5z" />
    <glyph glyph-name="Oslashacute" unicode="&#x1fe;" horiz-adv-x="780" 
d="M524 919l-126 -142h-89l101 142h114zM647 595q73 -95 73 -245q0 -166 -88 -263t-242 -97q-123 0 -204 63l-62 -73l-59 46l68 80q-73 95 -73 244q0 166 88.5 263t241.5 97q120 0 204 -62l61 72l59 -46zM154 350q0 -102 41 -172l342 403q-61 50 -147 50
q-109 0 -172.5 -76.5t-63.5 -204.5zM390 69q109 0 172.5 76.5t63.5 204.5q0 102 -41 172l-342 -402q59 -51 147 -51z" />
    <glyph glyph-name="oslashacute" unicode="&#x1ff;" 
d="M422 699l-114 -129h-81l92 129h103zM535 482l-57 -64q49 -70 49 -169q0 -116 -65 -187.5t-174 -71.5q-87 0 -149 49l-54 -60l-43 37l57 64q-50 69 -50 169q0 116 65 188t174 72q88 0 150 -49l53 59zM133 249q0 -62 22 -106l232 260q-40 37 -99 37q-73 0 -114 -53.5
t-41 -137.5zM443 249q0 62 -22 106l-232 -260q40 -37 99 -37q73 0 114 53.5t41 137.5z" />
    <glyph glyph-name="Scommaaccent" unicode="&#x218;" horiz-adv-x="640" 
d="M321 367q49 -12 85 -26.5t68.5 -37t49.5 -56t17 -77.5q0 -85 -59 -132.5t-162 -47.5q-113 0 -179 58.5t-75 158.5h90q16 -139 168 -139q125 0 125 99q0 53 -40.5 80.5t-150.5 56.5q-107 26 -159 75t-52 132q0 91 73.5 145t176.5 54q260 0 283 -247h-89q-20 168 -195 168
q-66 0 -112.5 -32t-46.5 -89q0 -54 39 -84.5t145 -58.5zM269 -166v95h104v-63q0 -73 -26 -105.5t-91 -42.5v41q35 6 47 23.5t12 51.5h-46z" />
    <glyph glyph-name="scommaaccent" unicode="&#x219;" horiz-adv-x="501" 
d="M256 274q39 -9 66 -19t55.5 -27t43.5 -43t15 -60q0 -66 -51.5 -100.5t-130.5 -34.5q-85 0 -136.5 42t-56.5 120h79q9 -96 118 -96q94 0 94 68q0 13 -3.5 24t-13 19t-17 14t-24.5 11.5t-26 8t-30 8t-30 7.5q-79 20 -120 55t-41 95q0 66 52 104.5t140 38.5q90 0 148 -44
t69 -138h-79q-4 58 -42.5 86.5t-96.5 28.5q-55 0 -82.5 -21.5t-27.5 -54.5q0 -38 28 -56t100 -36zM209 -151v87h94v-58q0 -67 -23 -96.5t-83 -37.5v37q32 6 43 21.5t11 46.5h-42z" />
    <glyph glyph-name="uni021A" unicode="&#x21a;" horiz-adv-x="638" 
d="M597 700v-80h-233v-620h-91v620h-232v80h556zM270 -166v95h104v-63q0 -73 -26 -105.5t-91 -42.5v41q35 6 47 23.5t12 51.5h-46z" />
    <glyph glyph-name="uni021B" unicode="&#x21b;" horiz-adv-x="377" 
d="M292 70h57v-70h-75q-70 0 -110.5 42t-40.5 116v276h-95v66h95v118l84 14v-132h123v-66h-123v-265q0 -99 85 -99zM193 -151v87h94v-58q0 -67 -23 -96.5t-83 -37.5v37q32 6 43 21.5t11 46.5h-42z" />
    <glyph glyph-name="uni0226" unicode="&#x226;" horiz-adv-x="664" 
d="M386 894v-101h-108v101h108zM545 0l-63 177h-301l-63 -177h-94l255 700h106l254 -700h-94zM208 253h247l-123 348z" />
    <glyph glyph-name="uni0227" unicode="&#x227;" horiz-adv-x="547" 
d="M321 680v-92h-98v92h98zM283 509q85 0 138 -41.5t53 -120.5v-347h-81v90q-19 -38 -62.5 -69t-110.5 -31q-72 0 -119 37.5t-47 104.5t47.5 101t153.5 50q79 12 108.5 25.5t29.5 48.5q0 37 -31 60.5t-79 23.5q-116 0 -124 -114h-81q2 79 53.5 130.5t151.5 51.5zM236 55
q65 0 111 44.5t46 120.5v41q-35 -21 -123 -37q-69 -13 -101 -33t-32 -59q0 -38 28 -57.5t71 -19.5z" />
    <glyph glyph-name="uni0232" unicode="&#x232;" horiz-adv-x="653" 
d="M476 861v-71h-307v71h307zM516 700h100l-342 -700h-101l132 268l-279 432h108l217 -343z" />
    <glyph glyph-name="uni0233" unicode="&#x233;" horiz-adv-x="553" 
d="M413 647v-64h-279v64h279zM442 500h87l-226 -589q-28 -72 -66 -101.5t-111 -29.5h-85v69h69q48 0 72 15.5t40 56.5l24 63l-225 516h93l174 -411z" />
    <glyph glyph-name="uni0237" unicode="&#x237;" horiz-adv-x="233" 
d="M74 500h85v-560q0 -76 -42.5 -118t-120.5 -42h-81v70h63q97 0 96 100v550z" />
    <glyph glyph-name="circumflex" unicode="&#x2c6;" horiz-adv-x="411" 
d="M342 561h-78l-58 77l-58 -77h-78l95 127h82z" />
    <glyph glyph-name="caron" unicode="&#x2c7;" horiz-adv-x="411" 
d="M264 688h78l-95 -127h-82l-95 127h78l58 -77z" />
    <glyph glyph-name="breve" unicode="&#x2d8;" horiz-adv-x="411" 
d="M335 690q0 -52 -35 -88.5t-92 -36.5q-58 0 -94 36.5t-36 88.5h66q2 -27 18 -46t45 -19t43.5 18.5t16.5 46.5h68z" />
    <glyph glyph-name="dotaccent" unicode="&#x2d9;" horiz-adv-x="411" 
d="M157 588v92h98v-92h-98z" />
    <glyph glyph-name="ring" unicode="&#x2da;" horiz-adv-x="411" 
d="M206 544q-44 0 -72 29t-28 70q0 43 28 71.5t72 28.5t71.5 -28.5t27.5 -71.5q0 -41 -28 -70t-71 -29zM206 600q18 0 29.5 12.5t11.5 30.5t-11.5 31t-29.5 13t-30 -13t-12 -31t12 -30.5t30 -12.5z" />
    <glyph glyph-name="ogonek" unicode="&#x2db;" horiz-adv-x="411" 
d="M201 2l66 -2q-31 -18 -51.5 -43t-20.5 -51q0 -53 73 -53h17v-58h-27q-61 0 -95 29.5t-34 73.5q0 63 72 104z" />
    <glyph glyph-name="tilde" unicode="&#x2dc;" horiz-adv-x="411" 
d="M42 570q7 53 36 81.5t68 28.5q37 0 69.5 -24.5t50.5 -24.5q40 0 51 46h53q-7 -53 -36 -81.5t-68 -28.5q-37 0 -70.5 24.5t-51.5 24.5q-39 0 -50 -46h-52z" />
    <glyph glyph-name="hungarumlaut" unicode="&#x2dd;" horiz-adv-x="411" 
d="M130 692h89l-88 -129h-71zM283 692h88l-87 -129h-71z" />
    <glyph glyph-name="uni0394" unicode="&#x394;" horiz-adv-x="709" 
d="M400 700l272 -636v-64h-635v64l272 636h91zM135 78h439l-220 528z" />
    <glyph glyph-name="uni03A9" unicode="&#x3a9;" horiz-adv-x="807" 
d="M737 360q0 -90 -35 -162.5t-100 -116.5h131v-81h-276v64q92 27 140.5 107t48.5 186q0 114 -65.5 194t-176.5 80q-110 0 -176.5 -80.5t-66.5 -193.5q0 -106 48.5 -186t140.5 -107v-64h-276v81h131q-65 44 -100 116.5t-35 162.5q0 151 90.5 250.5t243.5 99.5t243 -99.5
t90 -250.5z" />
    <glyph glyph-name="uni03BC" unicode="&#x3bc;" horiz-adv-x="579" 
d="M422 500h83v-500h-83v153q-54 -163 -192 -163q-44 0 -75 16v-226h-80v374q-1 9 -1 28v318h85v-289q0 -78 22 -114.5t72 -36.5q69 0 119 77.5t50 208.5v154z" />
    <glyph glyph-name="pi" unicode="&#x3c0;" horiz-adv-x="675" 
d="M594 70h46v-70h-63q-70 0 -111.5 43t-41.5 119v268h-189v-430h-84v430h-113v70h580v-70h-109v-256q0 -104 85 -104z" />
    <glyph glyph-name="Wgrave" unicode="&#x1e80;" horiz-adv-x="998" 
d="M580 777h-89l-126 142h114zM864 700h91l-165 -700h-100l-191 611l-192 -611h-100l-165 700h92l128 -589l185 589h104l184 -589z" />
    <glyph glyph-name="wgrave" unicode="&#x1e81;" horiz-adv-x="757" 
d="M438 570h-81l-114 129h103zM641 501h82l-126 -501h-90l-128 418l-129 -418h-90l-127 501h82l96 -399l123 399h89l122 -400z" />
    <glyph glyph-name="Wacute" unicode="&#x1e82;" horiz-adv-x="998" 
d="M633 919l-126 -142h-89l101 142h114zM864 700h91l-165 -700h-100l-191 611l-192 -611h-100l-165 700h92l128 -589l185 589h104l184 -589z" />
    <glyph glyph-name="wacute" unicode="&#x1e83;" horiz-adv-x="757" 
d="M512 699l-114 -129h-81l92 129h103zM641 501h82l-126 -501h-90l-128 418l-129 -418h-90l-127 501h82l96 -399l123 399h89l122 -400z" />
    <glyph glyph-name="Wdieresis" unicode="&#x1e84;" horiz-adv-x="998" 
d="M440 873v-95h-95v95h95zM656 873v-95h-96v95h96zM864 700h91l-165 -700h-100l-191 611l-192 -611h-100l-165 700h92l128 -589l185 589h104l184 -589z" />
    <glyph glyph-name="wdieresis" unicode="&#x1e85;" horiz-adv-x="757" 
d="M324 669v-86h-87v86h87zM520 669v-86h-87v86h87zM641 501h82l-126 -501h-90l-128 418l-129 -418h-90l-127 501h82l96 -399l123 399h89l122 -400z" />
    <glyph glyph-name="uni1EA0" unicode="&#x1ea0;" horiz-adv-x="664" 
d="M639 0h-94l-63 177h-301l-63 -177h-94l255 700h106zM208 253h247l-123 348zM278 -201v101h108v-101h-108z" />
    <glyph glyph-name="uni1EA1" unicode="&#x1ea1;" horiz-adv-x="547" 
d="M283 509q85 0 138 -41.5t53 -120.5v-347h-81v90q-19 -38 -62.5 -69t-110.5 -31q-72 0 -119 37.5t-47 104.5t47.5 101t153.5 50q79 12 108.5 25.5t29.5 48.5q0 37 -31 60.5t-79 23.5q-116 0 -124 -114h-81q2 79 53.5 130.5t151.5 51.5zM236 55q65 0 111 44.5t46 120.5v41
q-35 -21 -123 -37q-69 -13 -101 -33t-32 -59q0 -38 28 -57.5t71 -19.5zM226 -185v92h98v-92h-98z" />
    <glyph glyph-name="uni1EB8" unicode="&#x1eb8;" horiz-adv-x="584" 
d="M516 620h-342v-227h319v-76h-319v-237h342v-80h-433v700h433v-80zM233 -201v101h108v-101h-108z" />
    <glyph glyph-name="uni1EB9" unicode="&#x1eb9;" horiz-adv-x="564" 
d="M429 161h79q-9 -74 -64.5 -122.5t-151.5 -48.5q-115 0 -179 74t-64 186t62.5 185.5t171.5 73.5q106 0 164.5 -70t58.5 -193v-18h-372q5 -78 48 -124t112 -46q54 0 89.5 27.5t45.5 75.5zM285 442q-64 0 -102 -41t-47 -111h286q-6 70 -39.5 111t-97.5 41zM240 -185v92h98
v-92h-98z" />
    <glyph glyph-name="uni1ECA" unicode="&#x1eca;" horiz-adv-x="257" 
d="M174 0h-91v700h91v-700zM74 -201v101h108v-101h-108z" />
    <glyph glyph-name="uni1ECC" unicode="&#x1ecc;" horiz-adv-x="780" 
d="M390 -10q-153 0 -241.5 97t-88.5 263t88.5 263t241.5 97q154 0 242 -97t88 -263t-88 -263t-242 -97zM390 69q109 0 172.5 76.5t63.5 204.5t-63.5 204.5t-172.5 76.5t-172.5 -76.5t-63.5 -204.5t63.5 -204.5t172.5 -76.5zM336 -201v101h108v-101h-108z" />
    <glyph glyph-name="uni1ECD" unicode="&#x1ecd;" 
d="M288 -10q-109 0 -174 71.5t-65 187.5t65 188t174 72t174 -72t65 -188t-65 -187.5t-174 -71.5zM288 58q73 0 114 53.5t41 137.5t-41 137.5t-114 53.5t-114 -53.5t-41 -137.5t41 -137.5t114 -53.5zM239 -185v92h98v-92h-98z" />
    <glyph glyph-name="uni1EE4" unicode="&#x1ee4;" horiz-adv-x="715" 
d="M80 700h91v-399q0 -232 186 -232t186 232v399h91v-407q0 -147 -70 -225t-207 -78t-207 78t-70 225v407zM303 -201v101h108v-101h-108z" />
    <glyph glyph-name="uni1EE5" unicode="&#x1ee5;" 
d="M420 500h83v-500h-83v153q-54 -163 -192 -163q-75 0 -115.5 48t-40.5 144v318h85v-289q0 -78 22 -114.5t72 -36.5q69 0 119 77.5t50 208.5v154zM255 -185v92h98v-92h-98z" />
    <glyph glyph-name="Ygrave" unicode="&#x1ef2;" horiz-adv-x="653" 
d="M404 777h-89l-126 142h114zM516 700h100l-342 -700h-101l132 268l-279 432h108l217 -343z" />
    <glyph glyph-name="ygrave" unicode="&#x1ef3;" horiz-adv-x="553" 
d="M334 570h-81l-114 129h103zM442 500h87l-226 -589q-28 -72 -66 -101.5t-111 -29.5h-85v69h69q48 0 72 15.5t40 56.5l24 63l-225 516h93l174 -411z" />
    <glyph glyph-name="uni200B" unicode="&#x200b;" horiz-adv-x="0" 
 />
    <glyph glyph-name="endash" unicode="&#x2013;" horiz-adv-x="720" 
d="M61 331h598v-70h-598v70z" />
    <glyph glyph-name="emdash" unicode="&#x2014;" horiz-adv-x="1077" 
d="M61 331h955v-70h-955v70z" />
    <glyph glyph-name="quoteleft" unicode="&#x2018;" horiz-adv-x="202" 
d="M163 664q-35 -6 -47 -24t-12 -53h46v-99h-102v65q0 76 25 110t90 43v-42z" />
    <glyph glyph-name="quoteright" unicode="&#x2019;" horiz-adv-x="202" 
d="M52 700h102v-66q0 -76 -25 -109.5t-90 -43.5v42q35 7 47 25t12 53h-46v99z" />
    <glyph glyph-name="quotesinglbase" unicode="&#x201a;" horiz-adv-x="203" 
d="M51 99h102v-66q0 -76 -25 -109.5t-90 -43.5v42q35 7 47 25t12 53h-46v99z" />
    <glyph glyph-name="quotedblleft" unicode="&#x201c;" horiz-adv-x="362" 
d="M48 553q0 76 25 110t90 43v-42q-35 -6 -47 -24t-12 -53h46v-99h-102v65zM323 664q-35 -6 -47 -24t-12 -53h46v-99h-102v65q0 76 25 110t90 43v-42z" />
    <glyph glyph-name="quotedblright" unicode="&#x201d;" horiz-adv-x="362" 
d="M52 601v99h102v-66q0 -76 -25 -109.5t-90 -43.5v42q35 7 47 25t12 53h-46zM212 700h102v-66q0 -76 -25 -109.5t-90 -43.5v42q35 7 47 25t12 53h-46v99z" />
    <glyph glyph-name="quotedblbase" unicode="&#x201e;" horiz-adv-x="363" 
d="M51 0v99h102v-66q0 -76 -25 -109.5t-90 -43.5v42q35 7 47 25t12 53h-46zM211 99h102v-66q0 -76 -25 -109.5t-90 -43.5v42q35 7 47 25t12 53h-46v99z" />
    <glyph glyph-name="dagger" unicode="&#x2020;" horiz-adv-x="468" 
d="M421 532v-70h-148v-462h-78v462h-148v70h148v168h78v-168h148z" />
    <glyph glyph-name="daggerdbl" unicode="&#x2021;" horiz-adv-x="469" 
d="M422 462h-148v-224h147v-70h-147v-168h-78v168h-149v70h149v224h-148v70h148v168h78v-168h148v-70z" />
    <glyph glyph-name="bullet" unicode="&#x2022;" horiz-adv-x="222" 
d="M61 245v99h100v-99h-100z" />
    <glyph glyph-name="ellipsis" unicode="&#x2026;" horiz-adv-x="709" 
d="M50 0v99h100v-99h-100zM305 0v99h100v-99h-100zM559 0v99h100v-99h-100z" />
    <glyph glyph-name="perthousand" unicode="&#x2030;" horiz-adv-x="1121" 
d="M218 405q-65 0 -109.5 44t-44.5 108q0 66 44.5 109.5t109.5 43.5t109.5 -43.5t44.5 -109.5q0 -64 -44.5 -108t-109.5 -44zM93 0l495 700h85l-495 -700h-85zM218 470q36 0 58.5 25t22.5 62t-22.5 62t-58.5 25t-58.5 -25t-22.5 -62t22.5 -62t58.5 -25zM547 -10
q-65 0 -109.5 44t-44.5 108q0 66 44.5 109.5t109.5 43.5t109.5 -43.5t44.5 -109.5q0 -64 -44.5 -108t-109.5 -44zM914 -10q-65 0 -109.5 44t-44.5 108q0 66 44.5 109.5t109.5 43.5t109.5 -43.5t44.5 -109.5q0 -64 -44.5 -108t-109.5 -44zM547 55q36 0 58.5 25t22.5 62
t-22.5 62t-58.5 25t-58.5 -25t-22.5 -62t22.5 -62t58.5 -25zM914 55q36 0 58.5 25t22.5 62t-22.5 62t-58.5 25t-58.5 -25t-22.5 -62t22.5 -62t58.5 -25z" />
    <glyph glyph-name="guilsinglleft" unicode="&#x2039;" horiz-adv-x="389" 
d="M318 490l-165 -195l165 -195h-100l-162 195l162 195h100z" />
    <glyph glyph-name="guilsinglright" unicode="&#x203a;" horiz-adv-x="389" 
d="M171 490l162 -195l-162 -195h-100l165 195l-165 195h100z" />
    <glyph glyph-name="uni2042" unicode="&#x2042;" horiz-adv-x="897" 
d="M518 393l-70 107l-70 -107l-48 35l80 100l-124 33l19 57l119 -45l-6 127h60l-6 -127l119 45l19 -57l-124 -33l80 -100zM359 238l19 -57l-124 -33l80 -100l-48 -35l-70 107l-70 -107l-48 35l80 100l-124 33l19 57l119 -45l-6 127h60l-6 -127zM842 181l-124 -33l80 -100
l-48 -35l-70 107l-70 -107l-48 35l80 100l-124 33l19 57l119 -45l-6 127h60l-6 -127l119 45z" />
    <glyph glyph-name="fraction" unicode="&#x2044;" horiz-adv-x="188" 
d="M-250 0l586 700h79l-586 -700h-79z" />
    <glyph glyph-name="uni2051" unicode="&#x2051;" horiz-adv-x="407" 
d="M85 428l80 100l-124 33l19 57l119 -45l-6 127h60l-6 -127l119 45l19 -57l-124 -33l80 -100l-48 -35l-70 107l-70 -107zM346 238l19 -57l-124 -33l80 -100l-48 -35l-70 107l-70 -107l-48 35l80 100l-124 33l19 57l119 -45l-6 127h60l-6 -127z" />
    <glyph glyph-name="uni2070" unicode="&#x2070;" horiz-adv-x="371" 
d="M186 401q-76 0 -112 54.5t-36 131.5q0 49 13.5 89.5t48 69.5t86.5 29t86.5 -29t48 -69.5t13.5 -89.5q0 -77 -36 -131.5t-112 -54.5zM186 455q40 0 63 34.5t23 97.5q0 64 -23 99t-63 35q-41 0 -63.5 -34.5t-22.5 -99.5q0 -63 22.5 -97.5t63.5 -34.5z" />
    <glyph glyph-name="uni2074" unicode="&#x2074;" horiz-adv-x="349" 
d="M321 532v-49h-58v-73h-58v73h-177v37l159 250h76v-238h58zM94 532h111v181z" />
    <glyph glyph-name="uni2075" unicode="&#x2075;" horiz-adv-x="358" 
d="M188 642q59 0 94.5 -33t35.5 -89q0 -57 -38 -88.5t-99 -31.5q-62 0 -98.5 34t-41.5 86h58q4 -30 25.5 -50t58.5 -20t58 18.5t21 51.5q0 35 -22.5 55t-62.5 20q-29 0 -49 -10t-26 -19l-46 21l28 183h213v-52h-162l-18 -97q31 21 71 21z" />
    <glyph glyph-name="uni2076" unicode="&#x2076;" horiz-adv-x="359" 
d="M192 643q53 0 88.5 -33t35.5 -88t-36.5 -88.5t-96.5 -33.5q-66 0 -105 46t-39 137q0 94 40 143t112 49q54 0 89.5 -32.5t40.5 -80.5h-55q-4 25 -22.5 44t-55.5 19q-47 0 -70 -37t-24 -96q33 51 98 51zM183 449q32 0 54.5 19.5t22.5 54.5q0 34 -22.5 53.5t-53.5 19.5
q-32 0 -54 -19.5t-22 -54.5q0 -34 22 -53.5t53 -19.5z" />
    <glyph glyph-name="uni2077" unicode="&#x2077;" horiz-adv-x="325" 
d="M37 770h260v-38l-165 -322h-68l159 308h-186v52z" />
    <glyph glyph-name="uni2078" unicode="&#x2078;" horiz-adv-x="381" 
d="M260 575q62 -23 62 -78q0 -44 -37.5 -70.5t-93.5 -26.5t-93.5 26.5t-37.5 70.5q0 54 61 78q-77 25 -77 93q0 48 40 77.5t107 29.5t107 -29.5t40 -77.5q0 -68 -78 -93zM191 726q-41 0 -64 -17.5t-23 -44.5q0 -34 33.5 -50.5t53.5 -16.5q9 0 27 5t39 21t21 40
q0 28 -23.5 45.5t-63.5 17.5zM118 500q0 -23 20 -37.5t53 -14.5t52.5 14.5t19.5 37.5q0 46 -72 58q-11 -2 -23.5 -5t-31 -17.5t-18.5 -35.5z" />
    <glyph glyph-name="uni2079" unicode="&#x2079;" horiz-adv-x="363" 
d="M169 532q-53 0 -88.5 33t-35.5 88t36.5 88.5t96.5 33.5q66 0 105 -46t39 -137q0 -94 -40 -143t-112 -49q-54 0 -89.5 32.5t-40.5 80.5h55q4 -25 22.5 -44t55.5 -19q47 0 70 37t24 96q-33 -51 -98 -51zM178 726q-32 0 -54.5 -19.5t-22.5 -54.5q0 -34 22.5 -53.5
t53.5 -19.5q32 0 54 19.5t22 54.5q0 34 -22 53.5t-53 19.5z" />
    <glyph glyph-name="uni2080" unicode="&#x2080;" horiz-adv-x="371" 
d="M186 -79q-76 0 -112 54.5t-36 131.5q0 49 13.5 89.5t48 69.5t86.5 29t86.5 -29t48 -69.5t13.5 -89.5q0 -77 -36 -131.5t-112 -54.5zM186 -25q40 0 63 34.5t23 97.5q0 64 -23 99t-63 35q-41 0 -63.5 -34.5t-22.5 -99.5q0 -63 22.5 -97.5t63.5 -34.5z" />
    <glyph glyph-name="uni2081" unicode="&#x2081;" horiz-adv-x="294" 
d="M220 290v-360h-59v244q-45 -31 -124 -34v49q55 3 94.5 27t39.5 74h49z" />
    <glyph glyph-name="uni2082" unicode="&#x2082;" horiz-adv-x="361" 
d="M313 -70h-264v38l92 72q54 42 78.5 72t24.5 69q0 27 -16.5 44.5t-43.5 17.5q-36 0 -52 -26t-14 -68h-60q-4 61 28.5 103.5t99.5 42.5q56 0 88 -31.5t32 -82.5q0 -47 -27.5 -84.5t-81.5 -79.5l-47 -37h163v-50z" />
    <glyph glyph-name="uni2083" unicode="&#x2083;" horiz-adv-x="357" 
d="M249 98q56 -21 56 -78q0 -41 -32 -70.5t-91 -29.5q-60 0 -95 32t-39 84h60q3 -34 23 -49.5t49 -15.5q32 0 49 16.5t17 40.5q0 23 -18 37.5t-52 14.5h-31v44h34q37 0 57.5 16t20.5 44q0 29 -21 44.5t-55 15.5q-78 0 -87 -77h-58q5 60 42 93.5t102 33.5q61 0 99 -29t38 -79
q0 -68 -68 -88z" />
    <glyph glyph-name="uni2084" unicode="&#x2084;" horiz-adv-x="349" 
d="M321 52v-49h-58v-73h-58v73h-177v37l159 250h76v-238h58zM94 52h111v181z" />
    <glyph glyph-name="uni2085" unicode="&#x2085;" horiz-adv-x="358" 
d="M188 162q59 0 94.5 -33t35.5 -89q0 -57 -38 -88.5t-99 -31.5q-62 0 -98.5 34t-41.5 86h58q4 -30 25.5 -50t58.5 -20t58 18.5t21 51.5q0 35 -22.5 55t-62.5 20q-29 0 -49 -10t-26 -19l-46 21l28 183h213v-52h-162l-18 -97q31 21 71 21z" />
    <glyph glyph-name="uni2086" unicode="&#x2086;" horiz-adv-x="359" 
d="M192 163q53 0 88.5 -33t35.5 -88t-36.5 -88.5t-96.5 -33.5q-66 0 -105 46t-39 137q0 94 40 143t112 49q54 0 89.5 -32.5t40.5 -80.5h-55q-4 25 -22.5 44t-55.5 19q-47 0 -70 -37t-24 -96q33 51 98 51zM183 -31q32 0 54.5 19.5t22.5 54.5q0 34 -22.5 53.5t-53.5 19.5
q-32 0 -54 -19.5t-22 -54.5q0 -34 22 -53.5t53 -19.5z" />
    <glyph glyph-name="uni2087" unicode="&#x2087;" horiz-adv-x="325" 
d="M37 290h260v-38l-165 -322h-68l159 308h-186v52z" />
    <glyph glyph-name="uni2088" unicode="&#x2088;" horiz-adv-x="381" 
d="M260 95q62 -23 62 -78q0 -44 -37.5 -70.5t-93.5 -26.5t-93.5 26.5t-37.5 70.5q0 54 61 78q-77 25 -77 93q0 48 40 77.5t107 29.5t107 -29.5t40 -77.5q0 -68 -78 -93zM191 246q-41 0 -64 -17.5t-23 -44.5q0 -34 33.5 -50.5t53.5 -16.5q9 0 27 5t39 21t21 40
q0 28 -23.5 45.5t-63.5 17.5zM118 20q0 -23 20 -37.5t53 -14.5t52.5 14.5t19.5 37.5q0 46 -72 58q-11 -2 -23.5 -5t-31 -17.5t-18.5 -35.5z" />
    <glyph glyph-name="uni2089" unicode="&#x2089;" horiz-adv-x="363" 
d="M169 52q-53 0 -88.5 33t-35.5 88t36.5 88.5t96.5 33.5q66 0 105 -46t39 -137q0 -94 -40 -143t-112 -49q-54 0 -89.5 32.5t-40.5 80.5h55q4 -25 22.5 -44t55.5 -19q47 0 70 37t24 96q-33 -51 -98 -51zM178 246q-32 0 -54.5 -19.5t-22.5 -54.5q0 -34 22.5 -53.5t53.5 -19.5
q32 0 54 19.5t22 54.5q0 34 -22 53.5t-53 19.5z" />
    <glyph glyph-name="Euro" unicode="&#x20ac;" horiz-adv-x="769" 
d="M629 206h82q-15 -111 -81.5 -163.5t-169.5 -52.5q-117 0 -193 66.5t-104 175.5h-118v65h107q-3 25 -3 52q0 16 2 48h-106v65h117q26 111 100.5 179.5t187.5 68.5q103 0 173 -58t86 -161h-83q-11 62 -57 103t-118 41q-75 0 -127 -46t-73 -127h270l-22 -65h-260
q-2 -30 -2 -48q0 -27 3 -52h232l-22 -65h-197q24 -79 79 -123.5t133 -44.5q133 0 164 142z" />
    <glyph glyph-name="uni2113" unicode="&#x2113;" horiz-adv-x="425" 
d="M192 167q0 -54 21.5 -77.5t67.5 -23.5h56v-66h-66q-67 0 -107 36.5t-45 101.5q-36 -17 -86 -34v66q44 17 86 39v251q0 170 123 170q62 0 94.5 -42t32.5 -118q0 -182 -177 -293v-10zM192 450v-195q104 83 104 215q0 93 -54 93q-28 0 -39 -28t-11 -85z" />
    <glyph glyph-name="uni2117" unicode="&#x2117;" horiz-adv-x="836" 
d="M418 710q152 0 255 -103.5t103 -256.5t-103 -256.5t-255 -103.5t-255 103.5t-103 256.5t103 256.5t255 103.5zM418 42q127 0 212.5 89.5t85.5 218.5t-85.5 218.5t-212.5 89.5t-212.5 -90t-85.5 -218t85.5 -218t212.5 -90zM436 543q73 0 109 -36.5t36 -93.5
q0 -59 -35.5 -95.5t-109.5 -36.5h-67v-128h-61v390h61h67zM443 334q38 0 57 22.5t19 56.5q0 33 -19 55t-57 22h-74v-156h74z" />
    <glyph glyph-name="trademark" unicode="&#x2122;" horiz-adv-x="889" 
d="M346 700v-58h-124v-326h-67v326h-123v58h314zM829 700v-384h-61v317l-108 -317h-75l-108 314v-314h-60v384h99l106 -316l106 316h101z" />
    <glyph glyph-name="uni2153" unicode="&#x2153;" horiz-adv-x="840" 
d="M220 700v-360h-59v244q-45 -31 -124 -34v49q55 3 94.5 27t39.5 74h49zM67 0l586 700h79l-586 -700h-79zM732 168q56 -21 56 -78q0 -41 -32 -70.5t-91 -29.5q-60 0 -95 32t-39 84h60q3 -34 23 -49.5t49 -15.5q32 0 49 16.5t17 40.5q0 23 -18 37.5t-52 14.5h-31v44h34
q37 0 57.5 16t20.5 44q0 29 -21 44.5t-55 15.5q-78 0 -87 -77h-58q5 60 42 93.5t102 33.5q61 0 99 -29t38 -79q0 -68 -68 -88z" />
    <glyph glyph-name="uni2154" unicode="&#x2154;" horiz-adv-x="910" 
d="M313 340h-264v38l92 72q54 42 78.5 72t24.5 69q0 27 -16.5 44.5t-43.5 17.5q-36 0 -52 -26t-14 -68h-60q-4 61 28.5 103.5t99.5 42.5q56 0 88 -31.5t32 -82.5q0 -47 -27.5 -84.5t-81.5 -79.5l-47 -37h163v-50zM137 0l586 700h79l-586 -700h-79zM802 168q56 -21 56 -78
q0 -41 -32 -70.5t-91 -29.5q-60 0 -95 32t-39 84h60q3 -34 23 -49.5t49 -15.5q32 0 49 16.5t17 40.5q0 23 -18 37.5t-52 14.5h-31v44h34q37 0 57.5 16t20.5 44q0 29 -21 44.5t-55 15.5q-78 0 -87 -77h-58q5 60 42 93.5t102 33.5q61 0 99 -29t38 -79q0 -68 -68 -88z" />
    <glyph glyph-name="oneeighth" unicode="&#x215b;" horiz-adv-x="859" 
d="M220 700v-360h-59v244q-45 -31 -124 -34v49q55 3 94.5 27t39.5 74h49zM67 0l586 700h79l-586 -700h-79zM738 165q62 -23 62 -78q0 -44 -37.5 -70.5t-93.5 -26.5t-93.5 26.5t-37.5 70.5q0 54 61 78q-77 25 -77 93q0 48 40 77.5t107 29.5t107 -29.5t40 -77.5q0 -68 -78 -93
zM669 316q-41 0 -64 -17.5t-23 -44.5q0 -34 33.5 -50.5t53.5 -16.5q9 0 27 5t39 21t21 40q0 28 -23.5 45.5t-63.5 17.5zM596 90q0 -23 20 -37.5t53 -14.5t52.5 14.5t19.5 37.5q0 46 -72 58q-11 -2 -23.5 -5t-31 -17.5t-18.5 -35.5z" />
    <glyph glyph-name="threeeighths" unicode="&#x215c;" horiz-adv-x="891" 
d="M249 508q56 -21 56 -78q0 -41 -32 -70.5t-91 -29.5q-60 0 -95 32t-39 84h60q3 -34 23 -49.5t49 -15.5q32 0 49 16.5t17 40.5q0 23 -18 37.5t-52 14.5h-31v44h34q37 0 57.5 16t20.5 44q0 29 -21 44.5t-55 15.5q-78 0 -87 -77h-58q5 60 42 93.5t102 33.5q61 0 99 -29
t38 -79q0 -68 -68 -88zM99 0l586 700h79l-586 -700h-79zM770 165q62 -23 62 -78q0 -44 -37.5 -70.5t-93.5 -26.5t-93.5 26.5t-37.5 70.5q0 54 61 78q-77 25 -77 93q0 48 40 77.5t107 29.5t107 -29.5t40 -77.5q0 -68 -78 -93zM701 316q-41 0 -64 -17.5t-23 -44.5
q0 -34 33.5 -50.5t53.5 -16.5q9 0 27 5t39 21t21 40q0 28 -23.5 45.5t-63.5 17.5zM628 90q0 -23 20 -37.5t53 -14.5t52.5 14.5t19.5 37.5q0 46 -72 58q-11 -2 -23.5 -5t-31 -17.5t-18.5 -35.5z" />
    <glyph glyph-name="fiveeighths" unicode="&#x215d;" horiz-adv-x="890" 
d="M188 572q59 0 94.5 -33t35.5 -89q0 -57 -38 -88.5t-99 -31.5q-62 0 -98.5 34t-41.5 86h58q4 -30 25.5 -50t58.5 -20t58 18.5t21 51.5q0 35 -22.5 55t-62.5 20q-29 0 -49 -10t-26 -19l-46 21l28 183h213v-52h-162l-18 -97q31 21 71 21zM98 0l586 700h79l-586 -700h-79z
M769 165q62 -23 62 -78q0 -44 -37.5 -70.5t-93.5 -26.5t-93.5 26.5t-37.5 70.5q0 54 61 78q-77 25 -77 93q0 48 40 77.5t107 29.5t107 -29.5t40 -77.5q0 -68 -78 -93zM700 316q-41 0 -64 -17.5t-23 -44.5q0 -34 33.5 -50.5t53.5 -16.5q9 0 27 5t39 21t21 40q0 28 -23.5 45.5
t-63.5 17.5zM627 90q0 -23 20 -37.5t53 -14.5t52.5 14.5t19.5 37.5q0 46 -72 58q-11 -2 -23.5 -5t-31 -17.5t-18.5 -35.5z" />
    <glyph glyph-name="seveneighths" unicode="&#x215e;" horiz-adv-x="789" 
d="M-3 0l586 700h79l-586 -700h-79zM37 700h260v-38l-165 -322h-68l159 308h-186v52zM668 165q62 -23 62 -78q0 -44 -37.5 -70.5t-93.5 -26.5t-93.5 26.5t-37.5 70.5q0 54 61 78q-77 25 -77 93q0 48 40 77.5t107 29.5t107 -29.5t40 -77.5q0 -68 -78 -93zM599 316
q-41 0 -64 -17.5t-23 -44.5q0 -34 33.5 -50.5t53.5 -16.5q9 0 27 5t39 21t21 40q0 28 -23.5 45.5t-63.5 17.5zM526 90q0 -23 20 -37.5t53 -14.5t52.5 14.5t19.5 37.5q0 46 -72 58q-11 -2 -23.5 -5t-31 -17.5t-18.5 -35.5z" />
    <glyph glyph-name="arrowleft" unicode="&#x2190;" horiz-adv-x="742" 
d="M681 320v-68h-497l180 -179l-51 -50l-257 263l257 263l51 -50l-180 -179h497z" />
    <glyph glyph-name="arrowup" unicode="&#x2191;" horiz-adv-x="626" 
d="M576 368l-48 -48l-177 176v-496h-76v496l-178 -176l-48 48l264 257z" />
    <glyph glyph-name="arrowright" unicode="&#x2192;" horiz-adv-x="742" 
d="M429 549l257 -263l-257 -263l-51 50l180 179h-497v68h497l-180 179z" />
    <glyph glyph-name="arrowdown" unicode="&#x2193;" horiz-adv-x="626" 
d="M528 285l48 -48l-264 -257l-263 257l48 48l177 -176v496h76v-496z" />
    <glyph glyph-name="arrowboth" unicode="&#x2194;" horiz-adv-x="876" 
d="M563 549l257 -263l-257 -263l-51 50l180 179h-508l180 -179l-51 -50l-257 263l257 263l51 -50l-180 -179h508l-180 179z" />
    <glyph glyph-name="arrowupdn" unicode="&#x2195;" horiz-adv-x="648" 
d="M362 50l177 176l48 -48l-263 -258l-264 258l49 48l177 -176v505l-177 -176l-49 48l264 258l263 -258l-48 -48l-177 176v-505z" />
    <glyph glyph-name="uni2196" unicode="&#x2196;" horiz-adv-x="607" 
d="M549 66l-51 -52l-345 345l1 -273h-71v394h394v-69l-275 1z" />
    <glyph glyph-name="uni2197" unicode="&#x2197;" horiz-adv-x="615" 
d="M138 480h394v-394h-71l1 273l-345 -345l-51 52l346 346l-274 -1v69z" />
    <glyph glyph-name="uni2198" unicode="&#x2198;" horiz-adv-x="606" 
d="M452 444h71v-394h-394v69l275 -1l-347 346l51 52l345 -345z" />
    <glyph glyph-name="uni2199" unicode="&#x2199;" horiz-adv-x="614" 
d="M549 434l-346 -346l274 1v-69h-394v394h71l-1 -273l345 345z" />
    <glyph glyph-name="uni21A5" unicode="&#x21a5;" horiz-adv-x="626" 
d="M528 320l-177 176v-428h158v-68h-391v68h157v428l-178 -176l-48 48l264 257l263 -257z" />
    <glyph glyph-name="uni21A7" unicode="&#x21a7;" horiz-adv-x="626" 
d="M528 285l48 -48l-264 -257l-263 257l48 48l177 -176v428h-158v68h391v-68h-157v-428z" />
    <glyph glyph-name="emptyset" unicode="&#x2205;" horiz-adv-x="770" 
d="M710 590l-77 -77q68 -87 68 -203q0 -133 -88 -226.5t-228 -93.5q-119 0 -203 71l-76 -76l-46 45l77 77q-68 87 -68 203q0 133 88 226.5t228 93.5q118 0 204 -71l76 76zM150 310q0 -82 43 -147l342 342q-63 51 -150 51q-108 0 -171.5 -73t-63.5 -173zM621 310
q0 82 -43 147l-342 -342q63 -51 149 -51q109 0 172.5 73t63.5 173z" />
    <glyph glyph-name="product" unicode="&#x220f;" horiz-adv-x="673" 
d="M590 700v-700h-83v629h-341v-629h-83v700h507z" />
    <glyph glyph-name="summation" unicode="&#x2211;" horiz-adv-x="581" 
d="M520 700v-70h-345l243 -280l-243 -280h345v-70h-462v55l257 295l-257 295v55h462z" />
    <glyph glyph-name="minus" unicode="&#x2212;" horiz-adv-x="586" 
d="M61 279h464v-69h-464v69z" />
    <glyph glyph-name="radical" unicode="&#x221a;" horiz-adv-x="615" 
d="M492 700h92l-266 -700h-100l-197 500h93l154 -404z" />
    <glyph glyph-name="infinity" unicode="&#x221e;" horiz-adv-x="769" 
d="M540 406q69 0 118.5 -44.5t49.5 -113.5q0 -70 -49 -114.5t-119 -44.5q-52 0 -92 28t-63 68q-24 -40 -64 -68t-92 -28q-70 0 -119 44.5t-49 114.5q0 69 49.5 113.5t118.5 44.5q51 0 91 -27.5t65 -67.5q24 39 63.5 67t91.5 28zM230 151q38 0 67.5 24.5t40.5 48.5l10 24
q-2 4 -4.5 10.5t-13.5 23t-23.5 29t-33 23t-43.5 10.5q-41 0 -70.5 -25.5t-29.5 -70.5t29.5 -71t70.5 -26zM539 151q41 0 70.5 26t29.5 71t-29.5 70.5t-70.5 25.5q-36 0 -65.5 -24t-41.5 -48l-12 -24q1 -4 4 -10.5t13 -23t22.5 -29.5t34 -23.5t45.5 -10.5z" />
    <glyph glyph-name="integral" unicode="&#x222b;" horiz-adv-x="505" 
d="M432 700h63v-70h-51q-52 0 -78 -25.5t-36 -97.5l-79 -566q-14 -91 -57 -126t-124 -35h-60v70h51q51 0 76.5 23.5t35.5 89.5l80 563q15 100 57 137t122 37z" />
    <glyph glyph-name="approxequal" unicode="&#x2248;" horiz-adv-x="592" 
d="M63 271q4 71 43.5 110.5t100.5 39.5q30 0 57 -13.5t44 -29t39 -29t43 -13.5q36 0 54.5 21t22.5 55h62q-4 -70 -43.5 -109.5t-100.5 -39.5q-39 0 -71 21.5t-59 42.5t-53 21q-68 0 -78 -77h-61zM63 81q4 71 43.5 110.5t100.5 39.5q30 0 57 -13.5t44 -29t39 -29t43 -13.5
q36 0 54.5 21t22.5 55h62q-4 -70 -43.5 -109.5t-100.5 -39.5q-39 0 -71 21.5t-59 42.5t-53 21q-68 0 -78 -77h-61z" />
    <glyph glyph-name="notequal" unicode="&#x2260;" horiz-adv-x="586" 
d="M525 315h-153l-88 -143h241v-69h-283l-76 -123l-50 28l59 95h-114v69h156l88 143h-244v69h287l71 116l50 -28l-54 -88h110v-69z" />
    <glyph glyph-name="lessequal" unicode="&#x2264;" horiz-adv-x="586" 
d="M62 262v69l464 155v-73l-359 -116l359 -117v-73zM525 1h-464v68h464v-68z" />
    <glyph glyph-name="greaterequal" unicode="&#x2265;" horiz-adv-x="585" 
d="M525 262l-464 -155v73l358 117l-358 116v73l464 -155v-69zM61 68h464v-68h-464v68z" />
    <glyph glyph-name="uni2460" unicode="&#x2460;" horiz-adv-x="836" 
d="M418 -10q-152 0 -255 103.5t-103 256.5t103 256.5t255 103.5t255 -103.5t103 -256.5t-103 -256.5t-255 -103.5zM418 42q127 0 212.5 89.5t85.5 218.5t-85.5 218.5t-212.5 89.5t-212.5 -90t-85.5 -218t85.5 -218t212.5 -90zM472 526v-360h-59v244q-45 -31 -124 -34v49
q55 3 94.5 27t39.5 74h49z" />
    <glyph glyph-name="uni2461" unicode="&#x2461;" horiz-adv-x="836" 
d="M418 -10q-152 0 -255 103.5t-103 256.5t103 256.5t255 103.5t255 -103.5t103 -256.5t-103 -256.5t-255 -103.5zM418 42q127 0 212.5 89.5t85.5 218.5t-85.5 218.5t-212.5 89.5t-212.5 -90t-85.5 -218t85.5 -218t212.5 -90zM547 178h-264v38l92 72q54 42 78.5 72t24.5 69
q0 27 -16.5 44.5t-43.5 17.5q-36 0 -52 -26t-14 -68h-60q-4 61 28.5 103.5t99.5 42.5q56 0 88 -31.5t32 -82.5q0 -47 -27.5 -84.5t-81.5 -79.5l-47 -37h163v-50z" />
    <glyph glyph-name="uni2462" unicode="&#x2462;" horiz-adv-x="836" 
d="M418 -10q-152 0 -255 103.5t-103 256.5t103 256.5t255 103.5t255 -103.5t103 -256.5t-103 -256.5t-255 -103.5zM418 42q127 0 212.5 89.5t85.5 218.5t-85.5 218.5t-212.5 89.5t-212.5 -90t-85.5 -218t85.5 -218t212.5 -90zM488 341q56 -21 56 -78q0 -41 -32 -70.5
t-91 -29.5q-60 0 -95 32t-39 84h60q3 -34 23 -49.5t49 -15.5q32 0 49 16.5t17 40.5q0 23 -18 37.5t-52 14.5h-31v44h34q37 0 57.5 16t20.5 44q0 29 -21 44.5t-55 15.5q-78 0 -87 -77h-58q5 60 42 93.5t102 33.5q61 0 99 -29t38 -79q0 -68 -68 -88z" />
    <glyph glyph-name="uni2463" unicode="&#x2463;" horiz-adv-x="836" 
d="M418 -10q-152 0 -255 103.5t-103 256.5t103 256.5t255 103.5t255 -103.5t103 -256.5t-103 -256.5t-255 -103.5zM418 42q127 0 212.5 89.5t85.5 218.5t-85.5 218.5t-212.5 89.5t-212.5 -90t-85.5 -218t85.5 -218t212.5 -90zM550 293v-49h-58v-73h-58v73h-177v37l159 250
h76v-238h58zM323 293h111v181z" />
    <glyph glyph-name="uni2464" unicode="&#x2464;" horiz-adv-x="836" 
d="M418 -10q-152 0 -255 103.5t-103 256.5t103 256.5t255 103.5t255 -103.5t103 -256.5t-103 -256.5t-255 -103.5zM418 42q127 0 212.5 89.5t85.5 218.5t-85.5 218.5t-212.5 89.5t-212.5 -90t-85.5 -218t85.5 -218t212.5 -90zM423 397q59 0 94.5 -33t35.5 -89
q0 -57 -38 -88.5t-99 -31.5q-62 0 -98.5 34t-41.5 86h58q4 -30 25.5 -50t58.5 -20t58 18.5t21 51.5q0 35 -22.5 55t-62.5 20q-29 0 -49 -10t-26 -19l-46 21l28 183h213v-52h-162l-18 -97q32 21 71 21z" />
    <glyph glyph-name="uni2465" unicode="&#x2465;" horiz-adv-x="836" 
d="M418 -10q-152 0 -255 103.5t-103 256.5t103 256.5t255 103.5t255 -103.5t103 -256.5t-103 -256.5t-255 -103.5zM418 42q127 0 212.5 89.5t85.5 218.5t-85.5 218.5t-212.5 89.5t-212.5 -90t-85.5 -218t85.5 -218t212.5 -90zM425 406q53 0 88.5 -33t35.5 -88t-36.5 -88.5
t-96.5 -33.5q-66 0 -105 46t-39 137q0 94 40 143t112 49q54 0 89.5 -32.5t40.5 -80.5h-55q-4 25 -22.5 44t-55.5 19q-47 0 -70 -37t-24 -96q33 51 98 51zM416 212q32 0 54.5 19.5t22.5 54.5q0 34 -22.5 53.5t-53.5 19.5q-32 0 -54 -19.5t-22 -54.5q0 -34 22 -53.5t53 -19.5z
" />
    <glyph glyph-name="uni2466" unicode="&#x2466;" horiz-adv-x="836" 
d="M418 -10q-152 0 -255 103.5t-103 256.5t103 256.5t255 103.5t255 -103.5t103 -256.5t-103 -256.5t-255 -103.5zM418 42q127 0 212.5 89.5t85.5 218.5t-85.5 218.5t-212.5 89.5t-212.5 -90t-85.5 -218t85.5 -218t212.5 -90zM297 515h260v-38l-165 -322h-68l159 308h-186
v52z" />
    <glyph glyph-name="uni2467" unicode="&#x2467;" horiz-adv-x="836" 
d="M418 -10q-152 0 -255 103.5t-103 256.5t103 256.5t255 103.5t255 -103.5t103 -256.5t-103 -256.5t-255 -103.5zM418 42q127 0 212.5 89.5t85.5 218.5t-85.5 218.5t-212.5 89.5t-212.5 -90t-85.5 -218t85.5 -218t212.5 -90zM487 338q62 -23 62 -78q0 -44 -37.5 -70.5
t-93.5 -26.5t-93.5 26.5t-37.5 70.5q0 54 61 78q-77 25 -77 93q0 48 40 77.5t107 29.5t107 -29.5t40 -77.5q0 -68 -78 -93zM418 489q-41 0 -64 -17.5t-23 -44.5q0 -34 33.5 -50.5t53.5 -16.5q9 0 27 5t39 21t21 40q0 28 -23.5 45.5t-63.5 17.5zM345 263q0 -23 20 -37.5
t53 -14.5t52.5 14.5t19.5 37.5q0 46 -72 58q-11 -2 -23.5 -5t-31 -17.5t-18.5 -35.5z" />
    <glyph glyph-name="uni2468" unicode="&#x2468;" horiz-adv-x="836" 
d="M418 -10q-152 0 -255 103.5t-103 256.5t103 256.5t255 103.5t255 -103.5t103 -256.5t-103 -256.5t-255 -103.5zM418 42q127 0 212.5 89.5t85.5 218.5t-85.5 218.5t-212.5 89.5t-212.5 -90t-85.5 -218t85.5 -218t212.5 -90zM416 293q-53 0 -88.5 33t-35.5 88t36.5 88.5
t96.5 33.5q66 0 104.5 -46t38.5 -137q0 -94 -39.5 -143t-111.5 -49q-54 0 -89.5 32.5t-40.5 80.5h55q4 -25 22.5 -44t55.5 -19q46 0 69.5 37t24.5 96q-33 -51 -98 -51zM425 487q-32 0 -54.5 -19.5t-22.5 -54.5q0 -34 22.5 -53.5t53.5 -19.5q32 0 54 19.5t22 54.5
q0 34 -22 53.5t-53 19.5z" />
    <glyph glyph-name="uni2469" unicode="&#x2469;" horiz-adv-x="1099" 
d="M681 710q152 0 255 -103.5t103 -256.5t-103 -256.5t-255 -103.5h-263q-152 0 -255 103.5t-103 256.5t103 256.5t255 103.5h263zM681 42q127 0 212.5 90t85.5 218t-85.5 218t-212.5 90h-263q-127 0 -212.5 -90t-85.5 -218t85.5 -218t212.5 -90h263zM679 162
q-76 0 -112 54.5t-36 131.5q0 49 13.5 89.5t48 69.5t86.5 29t86.5 -29t48 -69.5t13.5 -89.5q0 -77 -36 -131.5t-112 -54.5zM444 530v-360h-59v244q-45 -31 -124 -34v49q55 3 94.5 27t39.5 74h49zM679 216q40 0 63 34.5t23 97.5q0 64 -23 99t-63 35q-41 0 -63.5 -34.5
t-22.5 -99.5q0 -63 22.5 -97.5t63.5 -34.5z" />
    <glyph glyph-name="uni24EA" unicode="&#x24ea;" horiz-adv-x="836" 
d="M418 -10q-152 0 -255 103.5t-103 256.5t103 256.5t255 103.5t255 -103.5t103 -256.5t-103 -256.5t-255 -103.5zM418 42q127 0 212.5 89.5t85.5 218.5t-85.5 218.5t-212.5 89.5t-212.5 -90t-85.5 -218t85.5 -218t212.5 -90zM418 164q-76 0 -112 54.5t-36 131.5
q0 49 13.5 89.5t48 69.5t86.5 29t86.5 -29t48 -69.5t13.5 -89.5q0 -77 -36 -131.5t-112 -54.5zM418 218q40 0 63 34.5t23 97.5q0 64 -23 99t-63 35q-41 0 -63.5 -34.5t-22.5 -99.5q0 -63 22.5 -97.5t63.5 -34.5z" />
    <glyph glyph-name="uni24FF" unicode="&#x24ff;" horiz-adv-x="836" 
d="M418 -10q-152 0 -255 103.5t-103 256.5t103 256.5t255 103.5t255 -103.5t103 -256.5t-103 -256.5t-255 -103.5zM420 164q76 0 112 54.5t36 131.5q0 49 -13.5 89.5t-48 69.5t-86.5 29t-86.5 -29t-48 -69.5t-13.5 -89.5q0 -77 36 -131.5t112 -54.5zM420 218
q-41 0 -63.5 34.5t-22.5 97.5q0 65 22.5 99.5t63.5 34.5q40 0 63 -35t23 -99q0 -63 -23 -97.5t-63 -34.5z" />
    <glyph glyph-name="lozenge" unicode="&#x25ca;" horiz-adv-x="603" 
d="M53 287l249 248l248 -248l-248 -248zM144 287l158 -158l157 158l-157 158z" />
    <glyph glyph-name="uni25CF" unicode="&#x25cf;" horiz-adv-x="660" 
d="M330 40q-114 0 -192 78t-78 192t78 192t192 78t192 -78t78 -192t-78 -192t-192 -78z" />
    <glyph glyph-name="smileface" unicode="&#x263a;" horiz-adv-x="840" 
d="M780 350q0 -150 -105 -255t-255 -105t-255 106t-105 254q0 149 105.5 254.5t254.5 105.5q151 0 255.5 -105.5t104.5 -254.5zM232 533v-45h44v-128h46v128h44v45h-134zM474 533v-45h45v-128h45v128h45v45h-135zM420 81q109 0 187 76t81 183l-46 8q0 -92 -65 -156.5
t-157 -64.5t-156.5 64.5t-64.5 156.5l-46 -8q3 -107 81 -183t186 -76z" />
    <glyph glyph-name="uni2731" unicode="&#x2731;" horiz-adv-x="498" 
d="M445 304l-150 -42l96 -123l-56 -41l-86 129l-87 -129l-56 41l97 123l-150 42l21 65l147 -54l-6 156h68l-6 -155l147 53z" />
    <glyph glyph-name="uni2776" unicode="&#x2776;" horiz-adv-x="836" 
d="M418 -10q-152 0 -255 103.5t-103 256.5t103 256.5t255 103.5t255 -103.5t103 -256.5t-103 -256.5t-255 -103.5zM474 166v360h-49q0 -50 -39.5 -74t-94.5 -27v-49q79 3 124 34v-244h59z" />
    <glyph glyph-name="uni2777" unicode="&#x2777;" horiz-adv-x="836" 
d="M418 -10q-152 0 -255 103.5t-103 256.5t103 256.5t255 103.5t255 -103.5t103 -256.5t-103 -256.5t-255 -103.5zM285 178h264v50h-163l47 37q54 42 81.5 79.5t27.5 84.5q0 51 -32 82.5t-88 31.5q-67 0 -99.5 -42.5t-28.5 -103.5h60q-2 42 14 68t52 26q27 0 43.5 -17.5
t16.5 -44.5q0 -39 -24.5 -69t-78.5 -72l-92 -72v-38z" />
    <glyph glyph-name="uni2778" unicode="&#x2778;" horiz-adv-x="836" 
d="M418 -10q-152 0 -255 103.5t-103 256.5t103 256.5t255 103.5t255 -103.5t103 -256.5t-103 -256.5t-255 -103.5zM490 341q68 20 68 88q0 50 -38 79t-99 29q-65 0 -102 -33.5t-42 -93.5h58q9 77 87 77q34 0 55 -15.5t21 -44.5q0 -28 -20.5 -44t-57.5 -16h-34v-44h31
q34 0 52 -14.5t18 -37.5q0 -24 -17 -40.5t-49 -16.5q-29 0 -49 15.5t-23 49.5h-60q4 -52 39 -84t95 -32q59 0 91 29.5t32 70.5q0 57 -56 78z" />
    <glyph glyph-name="uni2779" unicode="&#x2779;" horiz-adv-x="836" 
d="M418 -10q-152 0 -255 103.5t-103 256.5t103 256.5t255 103.5t255 -103.5t103 -256.5t-103 -256.5t-255 -103.5zM552 244v49h-58v238h-76l-159 -250v-37h177v-73h58v73h58zM436 293h-111l111 181v-181z" />
    <glyph glyph-name="uni277A" unicode="&#x277a;" horiz-adv-x="836" 
d="M418 -10q-152 0 -255 103.5t-103 256.5t103 256.5t255 103.5t255 -103.5t103 -256.5t-103 -256.5t-255 -103.5zM425 397q-39 0 -71 -21l18 97h162v52h-213l-28 -183l46 -21q6 9 26 19t49 10q40 0 62.5 -20t22.5 -55q0 -33 -21 -51.5t-58 -18.5t-58.5 20t-25.5 50h-58
q5 -52 41.5 -86t98.5 -34q61 0 99 31.5t38 88.5q0 56 -35.5 89t-94.5 33z" />
    <glyph glyph-name="uni277B" unicode="&#x277b;" horiz-adv-x="836" 
d="M418 -10q-152 0 -255 103.5t-103 256.5t103 256.5t255 103.5t255 -103.5t103 -256.5t-103 -256.5t-255 -103.5zM427 406q-65 0 -98 -51q1 59 24 96t70 37q37 0 55.5 -19t22.5 -44h55q-5 48 -40.5 80.5t-89.5 32.5q-72 0 -112 -49t-40 -143q0 -91 39 -137t105 -46
q60 0 96.5 33.5t36.5 88.5t-35.5 88t-88.5 33zM418 212q-31 0 -53 19.5t-22 53.5q0 35 22 54.5t54 19.5q31 0 53.5 -19.5t22.5 -53.5q0 -35 -22.5 -54.5t-54.5 -19.5z" />
    <glyph glyph-name="uni277C" unicode="&#x277c;" horiz-adv-x="836" 
d="M418 -10q-152 0 -255 103.5t-103 256.5t103 256.5t255 103.5t255 -103.5t103 -256.5t-103 -256.5t-255 -103.5zM559 515h-260v-52h186l-159 -308h68l165 322v38z" />
    <glyph glyph-name="uni277D" unicode="&#x277d;" horiz-adv-x="836" 
d="M418 -10q-152 0 -255 103.5t-103 256.5t103 256.5t255 103.5t255 -103.5t103 -256.5t-103 -256.5t-255 -103.5zM489 338q78 25 78 93q0 48 -40 77.5t-107 29.5t-107 -29.5t-40 -77.5q0 -68 77 -93q-61 -24 -61 -78q0 -44 37.5 -70.5t93.5 -26.5t93.5 26.5t37.5 70.5
q0 55 -62 78zM420 489q40 0 63.5 -17.5t23.5 -45.5q0 -24 -21 -40t-39 -21t-27 -5q-6 0 -18.5 3t-28.5 10t-28 21t-12 33q0 27 23 44.5t64 17.5zM347 263q0 21 18.5 35.5t31 17.5t23.5 5q72 -12 72 -58q0 -23 -19.5 -37.5t-52.5 -14.5t-53 14.5t-20 37.5z" />
    <glyph glyph-name="uni277E" unicode="&#x277e;" horiz-adv-x="836" 
d="M418 -10q-152 0 -255 103.5t-103 256.5t103 256.5t255 103.5t255 -103.5t103 -256.5t-103 -256.5t-255 -103.5zM418 293q65 0 98 51q-1 -59 -24.5 -96t-69.5 -37q-37 0 -55.5 19t-22.5 44h-55q5 -48 40.5 -80.5t89.5 -32.5q72 0 111.5 49t39.5 143q0 91 -38.5 137
t-104.5 46q-60 0 -96.5 -33.5t-36.5 -88.5t35.5 -88t88.5 -33zM427 487q31 0 53 -19.5t22 -53.5q0 -35 -22 -54.5t-54 -19.5q-31 0 -53.5 19.5t-22.5 53.5q0 35 22.5 54.5t54.5 19.5z" />
    <glyph glyph-name="uni277F" unicode="&#x277f;" horiz-adv-x="1099" 
d="M418 710h263q152 0 255 -103.5t103 -256.5t-103 -256.5t-255 -103.5h-263q-152 0 -255 103.5t-103 256.5t103 256.5t255 103.5zM682 162q76 0 112 54.5t36 131.5q0 49 -13.5 89.5t-48 69.5t-86.5 29t-86.5 -29t-48 -69.5t-13.5 -89.5q0 -77 36 -131.5t112 -54.5zM446 170
v360h-49q0 -50 -39.5 -74t-94.5 -27v-49q79 3 124 34v-244h59zM682 216q-41 0 -63.5 34.5t-22.5 97.5q0 65 22.5 99.5t63.5 34.5q40 0 63 -35t23 -99q0 -63 -23 -97.5t-63 -34.5z" />
    <glyph glyph-name="uni27FB" unicode="&#x27fb;" horiz-adv-x="839" 
d="M681 481h75v-390h-75v161h-497l180 -179l-51 -50l-257 263l257 263l51 -50l-180 -179h497v161z" />
    <glyph glyph-name="uni27FC" unicode="&#x27fc;" horiz-adv-x="839" 
d="M526 549l257 -263l-257 -263l-51 50l180 179h-497v-161h-75v390h75v-161h497l-180 179z" />
    <glyph glyph-name="Adieresis.ss02" horiz-adv-x="664" 
d="M220 760q-26 0 -42 16.5t-16 41.5t16 41.5t42 16.5t42.5 -16.5t16.5 -41.5q0 -24 -16.5 -41t-42.5 -17zM438 760q-26 0 -42 16.5t-16 41.5t16 41.5t42 16.5t42 -16.5t16 -41.5t-16 -41.5t-42 -16.5zM545 0l-63 177h-301l-63 -177h-94l255 700h106l254 -700h-94zM208 253
h247l-123 348z" />
    <glyph glyph-name="B.ss03" horiz-adv-x="633" 
d="M427 358q81 -17 117.5 -63t36.5 -109q0 -88 -54 -137t-165 -49h-190h-89v700h89h167q107 0 159 -48.5t52 -135.5q0 -121 -123 -158zM328 622h-156v-235h140q68 0 107.5 32.5t39.5 87.5t-33 85t-98 30zM361 78q133 0 133 113q0 55 -38 87.5t-101 32.5h-183v-233h189z" />
    <glyph glyph-name="Cdotaccent.ss02" horiz-adv-x="740" 
d="M380 781q-29 0 -47 18.5t-18 46.5t18 47t47 19t47 -19t18 -47t-18 -46.5t-47 -18.5zM682 242q-15 -122 -92.5 -187t-200.5 -65q-154 0 -241.5 97.5t-87.5 256.5q0 162 89.5 264t240.5 102q120 0 195 -65t91 -174h-93q-12 71 -62 115.5t-133 44.5q-111 0 -174 -80.5
t-63 -205.5t64 -201t179 -76q165 0 197 174h91z" />
    <glyph glyph-name="Edieresis.ss02" horiz-adv-x="584" 
d="M188 760q-26 0 -42 16.5t-16 41.5t16 41.5t42 16.5t42.5 -16.5t16.5 -41.5q0 -24 -16.5 -41t-42.5 -17zM406 760q-26 0 -42 16.5t-16 41.5t16 41.5t42 16.5t42 -16.5t16 -41.5t-16 -41.5t-42 -16.5zM516 620h-342v-227h319v-76h-319v-237h342v-80h-433v700h433v-80z" />
    <glyph glyph-name="Edotaccent.ss02" horiz-adv-x="584" 
d="M300 781q-29 0 -47 18.5t-18 46.5t18 47t47 19t47 -19t18 -47t-18 -46.5t-47 -18.5zM516 620h-342v-227h319v-76h-319v-237h342v-80h-433v700h433v-80z" />
    <glyph glyph-name="Euro.ss07" horiz-adv-x="704" 
d="M568 177h78q-12 -94 -74.5 -140.5t-155.5 -46.5q-106 0 -173.5 58.5t-91.5 154.5h-106v61h95q-2 30 -2 45t2 43h-95v61h105q24 98 91 157.5t168 59.5q94 0 155.5 -48t74.5 -141h-78q-9 53 -46.5 86t-102.5 33q-66 0 -112 -39t-66 -108h245l-21 -61h-235q-2 -28 -2 -42
q0 -16 2 -46h212l-21 -61h-179q21 -68 68 -106t116 -38q126 0 149 118z" />
    <glyph glyph-name="Gcommaaccent.ss02" horiz-adv-x="764" 
d="M360 355h328v-355h-62l-10 126q-63 -136 -227 -136q-151 0 -240 99t-89 259q0 162 90.5 262t241.5 100q129 0 206.5 -65t86.5 -179h-89q-10 78 -64.5 121.5t-140.5 43.5q-111 0 -175.5 -78.5t-64.5 -203.5q0 -124 65.5 -202.5t181.5 -78.5q92 0 149 57t57 157h-244v73z
M388 -73q29 0 46 -21.5t17 -59.5q0 -54 -31 -88.5t-92 -43.5v39q26 6 43.5 20.5t17.5 35.5q-29 1 -44 17.5t-15 41.5t16.5 42t41.5 17z" />
    <glyph glyph-name="Gdotaccent.ss02" horiz-adv-x="764" 
d="M388 781q-29 0 -47 18.5t-18 46.5t18 47t47 19t47 -19t18 -47t-18 -46.5t-47 -18.5zM360 355h328v-355h-62l-10 126q-63 -136 -227 -136q-151 0 -240 99t-89 259q0 162 90.5 262t241.5 100q129 0 206.5 -65t86.5 -179h-89q-10 78 -64.5 121.5t-140.5 43.5
q-111 0 -175.5 -78.5t-64.5 -203.5q0 -124 65.5 -202.5t181.5 -78.5q92 0 149 57t57 157h-244v73z" />
    <glyph glyph-name="I.ss06" horiz-adv-x="417" 
d="M354 622h-100v-544h100v-78h-291v78h100v544h-100v78h291v-78z" />
    <glyph glyph-name="IJ.ss05" horiz-adv-x="610" 
d="M83 80h121q114 0 174 62t60 177v381h91v-398q0 -137 -81 -219.5t-230 -82.5h-135v80zM183 201h-91v499h91v-499z" />
    <glyph glyph-name="IJ.ss05.ss06" horiz-adv-x="955" 
d="M354 700v-78h-100v-544h100v-78h-291v78h100v544h-100v78h291zM882 700v-398q0 -137 -81 -219.5t-230 -82.5h-135v80h121q114 0 174 62t60 177v300h-229v81h320z" />
    <glyph glyph-name="IJ.ss06" horiz-adv-x="1008" 
d="M354 700v-78h-100v-544h100v-78h-291v78h100v544h-100v78h291zM928 700v-438q0 -132 -65.5 -202t-186.5 -70q-118 0 -183.5 68.5t-65.5 196.5v32h90v-32q0 -93 41.5 -139.5t115.5 -46.5q79 0 121 50.5t42 150.5v349h-229v81h320z" />
    <glyph glyph-name="Iacute.ss06" horiz-adv-x="417" 
d="M343 919l-126 -142h-89l101 142h114zM354 622h-100v-544h100v-78h-291v78h100v544h-100v78h291v-78z" />
    <glyph glyph-name="Ibreve.ss06" horiz-adv-x="417" 
d="M211 770q-64 0 -103.5 40t-39.5 97h73q2 -30 19.5 -50.5t49.5 -20.5q31 0 47.5 20.5t18.5 50.5h75q0 -57 -38.5 -97t-101.5 -40zM354 622h-100v-544h100v-78h-291v78h100v544h-100v78h291v-78z" />
    <glyph glyph-name="Icircumflex.ss06" horiz-adv-x="417" 
d="M209 853l-64 -85h-86l105 140h90l104 -140h-86zM354 700v-78h-100v-544h100v-78h-291v78h100v544h-100v78h291z" />
    <glyph glyph-name="Idieresis.ss02" horiz-adv-x="257" 
d="M17 760q-26 0 -42 16.5t-16 41.5t16 41.5t42 16.5t42.5 -16.5t16.5 -41.5q0 -24 -16.5 -41t-42.5 -17zM235 760q-26 0 -42 16.5t-16 41.5t16 41.5t42 16.5t42 -16.5t16 -41.5t-16 -41.5t-42 -16.5zM174 0h-91v700h91v-700z" />
    <glyph glyph-name="Idieresis.ss06" horiz-adv-x="417" 
d="M150 873v-95h-95v95h95zM270 873h96v-95h-96v95zM354 700v-78h-100v-544h100v-78h-291v78h100v544h-100v78h291z" />
    <glyph glyph-name="Idieresis.ss06.ss02" horiz-adv-x="417" 
d="M156 818q0 -24 -16.5 -41t-42.5 -17t-42 16.5t-16 41.5t16 41.5t42 16.5t42.5 -16.5t16.5 -41.5zM315 876q26 0 42 -16.5t16 -41.5t-16 -41.5t-42 -16.5t-42 16.5t-16 41.5t16 41.5t42 16.5zM354 700v-78h-100v-544h100v-78h-291v78h100v544h-100v78h291z" />
    <glyph glyph-name="Idotaccent.ss02" horiz-adv-x="257" 
d="M129 781q-29 0 -47 18.5t-18 46.5t18 47t47 19t47 -19t18 -47t-18 -46.5t-47 -18.5zM174 0h-91v700h91v-700z" />
    <glyph glyph-name="Idotaccent.ss06" horiz-adv-x="417" 
d="M263 894v-101h-108v101h108zM354 622h-100v-544h100v-78h-291v78h100v544h-100v78h291v-78z" />
    <glyph glyph-name="Idotaccent.ss06.ss02" horiz-adv-x="417" 
d="M209 781q-29 0 -47 18.5t-18 46.5t18 47t47 19t47 -19t18 -47t-18 -46.5t-47 -18.5zM354 622h-100v-544h100v-78h-291v78h100v544h-100v78h291v-78z" />
    <glyph glyph-name="Igrave.ss06" horiz-adv-x="417" 
d="M290 777h-89l-126 142h114zM354 622h-100v-544h100v-78h-291v78h100v544h-100v78h291v-78z" />
    <glyph glyph-name="Imacron.ss06" horiz-adv-x="417" 
d="M55 861h307v-71h-307v71zM354 700v-78h-100v-544h100v-78h-291v78h100v544h-100v78h291z" />
    <glyph glyph-name="Iogonek.ss06" horiz-adv-x="417" 
d="M354 622h-100v-544h100v-78h-100q-34 -19 -56.5 -47t-22.5 -56q0 -59 81 -59h18v-64h-29q-68 0 -105 32.5t-37 81.5q0 68 76 112h-116v78h100v544h-100v78h291v-78z" />
    <glyph glyph-name="Itilde.ss06" horiz-adv-x="417" 
d="M139 836q-21 0 -36 -14t-20 -37h-58q8 59 40 90t77 31q41 0 77.5 -27t56.5 -27q22 0 37 14t21 37h59q-8 -59 -40.5 -90t-76.5 -31q-41 0 -78.5 27t-58.5 27zM354 700v-78h-100v-544h100v-78h-291v78h100v544h-100v78h291z" />
    <glyph glyph-name="J.ss05" horiz-adv-x="538" 
d="M19 80h121q114 0 174 62t60 177v381h91v-398q0 -137 -81 -219.5t-230 -82.5h-135v80z" />
    <glyph glyph-name="J.ss05.ss06" horiz-adv-x="538" 
d="M465 700v-398q0 -137 -81 -219.5t-230 -82.5h-135v80h121q114 0 174 62t60 177v300h-229v81h320z" />
    <glyph glyph-name="J.ss06" horiz-adv-x="636" 
d="M556 700v-438q0 -132 -65.5 -202t-186.5 -70q-118 0 -183.5 68.5t-65.5 196.5v32h90v-32q0 -93 41.5 -139.5t115.5 -46.5q79 0 121 50.5t42 150.5v349h-229v81h320z" />
    <glyph glyph-name="Jcircumflex.ss05" horiz-adv-x="538" 
d="M569 768h-86l-63 85l-64 -85h-86l105 140h90zM19 80h121q114 0 174 62t60 177v381h91v-398q0 -137 -81 -219.5t-230 -82.5h-135v80z" />
    <glyph glyph-name="Jcircumflex.ss05.ss06" horiz-adv-x="538" 
d="M306 853l-64 -85h-86l105 140h90l104 -140h-86zM465 700v-398q0 -137 -81 -219.5t-230 -82.5h-135v80h121q114 0 174 62t60 177v300h-229v81h320z" />
    <glyph glyph-name="Jcircumflex.ss06" horiz-adv-x="636" 
d="M396 853l-64 -85h-86l105 140h90l104 -140h-86zM556 700v-438q0 -132 -65.5 -202t-186.5 -70q-118 0 -183.5 68.5t-65.5 196.5v32h90v-32q0 -93 41.5 -139.5t115.5 -46.5q79 0 121 50.5t42 150.5v349h-229v81h320z" />
    <glyph glyph-name="Kcommaaccent.ss02" horiz-adv-x="610" 
d="M292 380l298 -380h-109l-248 313l-60 -69v-244h-90v700h90v-328l285 328h114zM315 -73q29 0 46 -21.5t17 -59.5q0 -54 -31 -88.5t-92 -43.5v39q26 6 43.5 20.5t17.5 35.5q-29 1 -44 17.5t-15 41.5t16.5 42t41.5 17z" />
    <glyph glyph-name="Lcaron.ss02" horiz-adv-x="580" 
d="M403 628q0 -54 -31.5 -89t-92.5 -44v39q26 6 43.5 20.5t17.5 35.5q-29 1 -44 18t-15 42t16.5 42t41.5 17q29 0 46.5 -21.5t17.5 -59.5zM176 81h356v-81h-449v700h93v-619z" />
    <glyph glyph-name="Lcommaaccent.ss02" horiz-adv-x="580" 
d="M176 81h356v-81h-449v700h93v-619zM305 -73q29 0 46 -21.5t17 -59.5q0 -54 -31 -88.5t-92 -43.5v39q26 6 43.5 20.5t17.5 35.5q-29 1 -44 17.5t-15 41.5t16.5 42t41.5 17z" />
    <glyph glyph-name="Ldot.ss02" horiz-adv-x="580" 
d="M176 81h356v-81h-449v700h93v-619zM362 320q-26 0 -43 17.5t-17 42.5q0 26 16.5 43t43.5 17t43.5 -17t16.5 -43q0 -25 -17 -42.5t-43 -17.5z" />
    <glyph glyph-name="Ncommaaccent.ss02" horiz-adv-x="728" 
d="M557 700h88v-700h-112l-361 595v-595h-89v700h114l360 -596v596zM372 -73q29 0 46 -21.5t17 -59.5q0 -54 -31 -88.5t-92 -43.5v39q26 6 43.5 20.5t17.5 35.5q-29 1 -44 17.5t-15 41.5t16.5 42t41.5 17z" />
    <glyph glyph-name="Odieresis.ss02" horiz-adv-x="780" 
d="M278 760q-26 0 -42 16.5t-16 41.5t16 41.5t42 16.5t42.5 -16.5t16.5 -41.5q0 -24 -16.5 -41t-42.5 -17zM496 760q-26 0 -42 16.5t-16 41.5t16 41.5t42 16.5t42 -16.5t16 -41.5t-16 -41.5t-42 -16.5zM390 -10q-153 0 -241.5 97t-88.5 263t88.5 263t241.5 97q154 0 242 -97
t88 -263t-88 -263t-242 -97zM390 69q109 0 172.5 76.5t63.5 204.5t-63.5 204.5t-172.5 76.5t-172.5 -76.5t-63.5 -204.5t63.5 -204.5t172.5 -76.5z" />
    <glyph glyph-name="Rcommaaccent.ss02" horiz-adv-x="636" 
d="M540 169l53 -169h-97l-53 163q-6 18 -13.5 32.5t-13.5 25.5t-18.5 19.5t-19 14t-25 9t-26 5.5t-32.5 3t-35 1h-42.5h-45.5v-273h-89v700h236q125 0 184.5 -60.5t59.5 -147.5q0 -68 -36.5 -117.5t-112.5 -68.5q91 -25 126 -137zM332 620h-160v-269h160q71 0 105.5 41
t34.5 96t-35 93.5t-105 38.5zM334 -73q29 0 46 -21.5t17 -59.5q0 -54 -31 -88.5t-92 -43.5v39q26 6 43.5 20.5t17.5 35.5q-29 1 -44 17.5t-15 41.5t16.5 42t41.5 17z" />
    <glyph glyph-name="S.ss03" horiz-adv-x="640" 
d="M479 493q-8 72 -47.5 105.5t-114.5 33.5q-69 0 -104.5 -29t-35.5 -80q0 -53 42.5 -80t153.5 -57q105 -26 157 -74.5t52 -128.5q0 -92 -69.5 -142.5t-176.5 -50.5q-123 0 -199 61.5t-85 185.5h90q8 -78 56 -123t136 -45q71 0 113.5 30t42.5 86q0 52 -38 81t-142 56
q-50 12 -85.5 26t-70 36.5t-52 56.5t-17.5 80q0 89 63.5 139t169.5 50q118 0 179.5 -57.5t69.5 -159.5h-88z" />
    <glyph glyph-name="S_t.ss08" horiz-adv-x="913" 
d="M829 70h56v-70h-75q-70 0 -110.5 42t-40.5 116v276h-172q-9 197 -199 197q-66 0 -108.5 -31.5t-42.5 -89.5q0 -54 39 -84.5t145 -58.5q49 -12 85 -26.5t68.5 -37t49.5 -56t17 -77.5q0 -85 -59 -132.5t-162 -47.5q-113 0 -179 58.5t-75 158.5h90q16 -139 168 -139
q125 0 125 99q0 53 -40.5 80.5t-150.5 56.5q-107 26 -159 75t-52 132q0 92 69 145.5t171 53.5q243 0 279 -210h93v118l85 14v-132h123v-66h-123v-265q0 -99 85 -99z" />
    <glyph glyph-name="Sacute.ss03" horiz-adv-x="640" 
d="M338 919h114l-126 -142h-89zM479 493q-8 72 -47.5 105.5t-114.5 33.5q-69 0 -104.5 -29t-35.5 -80q0 -53 42.5 -80t153.5 -57q105 -26 157 -74.5t52 -128.5q0 -92 -69.5 -142.5t-176.5 -50.5q-123 0 -199 61.5t-85 185.5h90q8 -78 56 -123t136 -45q71 0 113.5 30t42.5 86
q0 52 -38 81t-142 56q-50 12 -85.5 26t-70 36.5t-52 56.5t-17.5 80q0 89 63.5 139t169.5 50q118 0 179.5 -57.5t69.5 -159.5h-88z" />
    <glyph glyph-name="Scaron.ss03" horiz-adv-x="640" 
d="M381 910h86l-104 -140h-90l-105 140h86l64 -85zM479 493q-8 72 -47.5 105.5t-114.5 33.5q-69 0 -104.5 -29t-35.5 -80q0 -53 42.5 -80t153.5 -57q105 -26 157 -74.5t52 -128.5q0 -92 -69.5 -142.5t-176.5 -50.5q-123 0 -199 61.5t-85 185.5h90q8 -78 56 -123t136 -45
q71 0 113.5 30t42.5 86q0 52 -38 81t-142 56q-50 12 -85.5 26t-70 36.5t-52 56.5t-17.5 80q0 89 63.5 139t169.5 50q118 0 179.5 -57.5t69.5 -159.5h-88z" />
    <glyph glyph-name="Scedilla.ss03" horiz-adv-x="640" 
d="M582 183q0 -85 -59 -134.5t-154 -57.5q62 -43 62 -103q0 -49 -37.5 -81.5t-105.5 -32.5h-48v63h40q81 0 81 60q0 50 -65 95q-106 9 -170.5 70t-73.5 175h90q8 -78 56 -123t136 -45q71 0 113.5 30t42.5 86q0 52 -38 81t-142 56q-50 12 -85.5 26t-70 36.5t-52 56.5
t-17.5 80q0 89 63.5 139t169.5 50q118 0 179.5 -57.5t69.5 -159.5h-88q-8 72 -47.5 105.5t-114.5 33.5q-69 0 -104.5 -29t-35.5 -80q0 -53 42.5 -80t153.5 -57q105 -26 157 -74.5t52 -128.5z" />
    <glyph glyph-name="Scircumflex.ss03" horiz-adv-x="640" 
d="M467 768h-86l-63 85l-64 -85h-86l105 140h90zM479 493q-8 72 -47.5 105.5t-114.5 33.5q-69 0 -104.5 -29t-35.5 -80q0 -53 42.5 -80t153.5 -57q105 -26 157 -74.5t52 -128.5q0 -92 -69.5 -142.5t-176.5 -50.5q-123 0 -199 61.5t-85 185.5h90q8 -78 56 -123t136 -45
q71 0 113.5 30t42.5 86q0 52 -38 81t-142 56q-50 12 -85.5 26t-70 36.5t-52 56.5t-17.5 80q0 89 63.5 139t169.5 50q118 0 179.5 -57.5t69.5 -159.5h-88z" />
    <glyph glyph-name="Scommaaccent.ss02" horiz-adv-x="640" 
d="M156 207q16 -139 168 -139q125 0 125 99q0 53 -40.5 80.5t-150.5 56.5q-107 26 -159 75t-52 132q0 91 73.5 145t176.5 54q260 0 283 -247h-89q-20 168 -195 168q-66 0 -112.5 -32t-46.5 -89q0 -54 39 -84.5t145 -58.5q49 -12 85 -26.5t68.5 -37t49.5 -56t17 -77.5
q0 -85 -59 -132.5t-162 -47.5q-113 0 -179 58.5t-75 158.5h90zM316 -73q29 0 46 -21.5t17 -59.5q0 -54 -31 -88.5t-92 -43.5v39q26 6 43.5 20.5t17.5 35.5q-29 1 -44 17.5t-15 41.5t16.5 42t41.5 17z" />
    <glyph glyph-name="Scommaaccent.ss03" horiz-adv-x="640" 
d="M373 386q105 -26 157 -74.5t52 -128.5q0 -92 -69.5 -142.5t-176.5 -50.5q-123 0 -199 61.5t-85 185.5h90q8 -78 56 -123t136 -45q71 0 113.5 30t42.5 86q0 52 -38 81t-142 56q-50 12 -85.5 26t-70 36.5t-52 56.5t-17.5 80q0 89 63.5 139t169.5 50q118 0 179.5 -57.5
t69.5 -159.5h-88q-8 72 -47.5 105.5t-114.5 33.5q-69 0 -104.5 -29t-35.5 -80q0 -53 42.5 -80t153.5 -57zM288 -166v95h104v-63q0 -73 -26 -105.5t-91 -42.5v41q35 6 47 23.5t12 51.5h-46z" />
    <glyph glyph-name="Scommaaccent.ss03.ss02" horiz-adv-x="640" 
d="M479 493q-8 72 -47.5 105.5t-114.5 33.5q-69 0 -104.5 -29t-35.5 -80q0 -53 42.5 -80t153.5 -57q105 -26 157 -74.5t52 -128.5q0 -92 -69.5 -142.5t-176.5 -50.5q-123 0 -199 61.5t-85 185.5h90q8 -78 56 -123t136 -45q71 0 113.5 30t42.5 86q0 52 -38 81t-142 56
q-50 12 -85.5 26t-70 36.5t-52 56.5t-17.5 80q0 89 63.5 139t169.5 50q118 0 179.5 -57.5t69.5 -159.5h-88zM335 -73q29 0 46 -21.5t17 -59.5q0 -54 -31 -88.5t-92 -43.5v39q26 6 43.5 20.5t17.5 35.5q-29 1 -44 17.5t-15 41.5t16.5 42t41.5 17z" />
    <glyph glyph-name="Udieresis.ss02" horiz-adv-x="715" 
d="M245 760q-26 0 -42 16.5t-16 41.5t16 41.5t42 16.5t42.5 -16.5t16.5 -41.5q0 -24 -16.5 -41t-42.5 -17zM463 760q-26 0 -42 16.5t-16 41.5t16 41.5t42 16.5t42 -16.5t16 -41.5t-16 -41.5t-42 -16.5zM80 700h91v-399q0 -232 186 -232t186 232v399h91v-407q0 -147 -70 -225
t-207 -78t-207 78t-70 225v407z" />
    <glyph glyph-name="Wdieresis.ss02" horiz-adv-x="998" 
d="M387 760q-26 0 -42 16.5t-16 41.5t16 41.5t42 16.5t42.5 -16.5t16.5 -41.5q0 -24 -16.5 -41t-42.5 -17zM605 760q-26 0 -42 16.5t-16 41.5t16 41.5t42 16.5t42 -16.5t16 -41.5t-16 -41.5t-42 -16.5zM864 700h91l-165 -700h-100l-191 611l-192 -611h-100l-165 700h92
l128 -589l185 589h104l184 -589z" />
    <glyph glyph-name="Y.ss04" horiz-adv-x="664" 
d="M637 700l-259 -401v-299h-91v297l-260 403h106l199 -310l199 310h106z" />
    <glyph glyph-name="Yacute.ss04" horiz-adv-x="664" 
d="M466 919l-126 -142h-89l101 142h114zM637 700l-259 -401v-299h-91v297l-260 403h106l199 -310l199 310h106z" />
    <glyph glyph-name="Ycircumflex.ss04" horiz-adv-x="664" 
d="M332 853l-64 -85h-86l105 140h90l104 -140h-86zM637 700l-259 -401v-299h-91v297l-260 403h106l199 -310l199 310h106z" />
    <glyph glyph-name="Ydieresis.ss02" horiz-adv-x="653" 
d="M211 760q-26 0 -42 16.5t-16 41.5t16 41.5t42 16.5t42.5 -16.5t16.5 -41.5q0 -24 -16.5 -41t-42.5 -17zM429 760q-26 0 -42 16.5t-16 41.5t16 41.5t42 16.5t42 -16.5t16 -41.5t-16 -41.5t-42 -16.5zM516 700h100l-342 -700h-101l132 268l-279 432h108l217 -343z" />
    <glyph glyph-name="Ydieresis.ss04" horiz-adv-x="664" 
d="M273 873v-95h-95v95h95zM489 873v-95h-96v95h96zM637 700l-259 -401v-299h-91v297l-260 403h106l199 -310l199 310h106z" />
    <glyph glyph-name="Ydieresis.ss04.ss02" horiz-adv-x="664" 
d="M220 760q-26 0 -42 16.5t-16 41.5t16 41.5t42 16.5t42.5 -16.5t16.5 -41.5q0 -24 -16.5 -41t-42.5 -17zM438 760q-26 0 -42 16.5t-16 41.5t16 41.5t42 16.5t42 -16.5t16 -41.5t-16 -41.5t-42 -16.5zM637 700l-259 -401v-299h-91v297l-260 403h106l199 -310l199 310h106z
" />
    <glyph glyph-name="Ygrave.ss04" horiz-adv-x="664" 
d="M413 777h-89l-126 142h114zM637 700l-259 -401v-299h-91v297l-260 403h106l199 -310l199 310h106z" />
    <glyph glyph-name="Zdotaccent.ss02" horiz-adv-x="631" 
d="M315 781q-29 0 -47 18.5t-18 46.5t18 47t47 19t47 -19t18 -47t-18 -46.5t-47 -18.5zM180 80h386v-80h-511v61l373 559h-347v80h472v-61z" />
    <glyph glyph-name="_eightsuperior" horiz-adv-x="381" 
d="M260 165q62 -23 62 -78q0 -44 -37.5 -70.5t-93.5 -26.5t-93.5 26.5t-37.5 70.5q0 54 61 78q-77 25 -77 93q0 48 40 77.5t107 29.5t107 -29.5t40 -77.5q0 -68 -78 -93zM191 316q-41 0 -64 -17.5t-23 -44.5q0 -34 33.5 -50.5t53.5 -16.5q9 0 27 5t39 21t21 40
q0 28 -23.5 45.5t-63.5 17.5zM118 90q0 -23 20 -37.5t53 -14.5t52.5 14.5t19.5 37.5q0 46 -72 58q-11 -2 -23.5 -5t-31 -17.5t-18.5 -35.5z" />
    <glyph glyph-name="a.ss01" horiz-adv-x="575" 
d="M418 500h83v-500h-83v75q-15 -31 -54 -58t-102 -27q-98 0 -155.5 70t-57.5 186q0 120 61.5 192t156.5 72q52 0 92.5 -23.5t58.5 -62.5v76zM275 60q68 0 105.5 50t37.5 142q0 88 -36 137t-103 49q-70 0 -107 -55.5t-37 -141.5q0 -84 35.5 -132.5t104.5 -48.5z" />
    <glyph glyph-name="aacute.ss01" horiz-adv-x="575" 
d="M415 699l-114 -129h-81l92 129h103zM418 500h83v-500h-83v75q-15 -31 -54 -58t-102 -27q-98 0 -155.5 70t-57.5 186q0 120 61.5 192t156.5 72q52 0 92.5 -23.5t58.5 -62.5v76zM275 60q68 0 105.5 50t37.5 142q0 88 -36 137t-103 49q-70 0 -107 -55.5t-37 -141.5
q0 -84 35.5 -132.5t104.5 -48.5z" />
    <glyph glyph-name="abreve.ss01" horiz-adv-x="575" 
d="M282 565q-58 0 -94 36.5t-36 88.5h66q2 -27 18 -46t45 -19t43.5 18.5t16.5 46.5h68q0 -52 -35 -88.5t-92 -36.5zM418 500h83v-500h-83v75q-15 -31 -54 -58t-102 -27q-98 0 -155.5 70t-57.5 186q0 120 61.5 192t156.5 72q52 0 92.5 -23.5t58.5 -62.5v76zM275 60
q68 0 105.5 50t37.5 142q0 88 -36 137t-103 49q-70 0 -107 -55.5t-37 -141.5q0 -84 35.5 -132.5t104.5 -48.5z" />
    <glyph glyph-name="acircumflex.ss01" horiz-adv-x="575" 
d="M282 638l-58 -77h-78l95 127h82l95 -127h-78zM418 500h83v-500h-83v75q-15 -31 -54 -58t-102 -27q-98 0 -155.5 70t-57.5 186q0 120 61.5 192t156.5 72q52 0 92.5 -23.5t58.5 -62.5v76zM275 60q68 0 105.5 50t37.5 142q0 88 -36 137t-103 49q-70 0 -107 -55.5t-37 -141.5
q0 -84 35.5 -132.5t104.5 -48.5z" />
    <glyph glyph-name="adieresis.ss01" horiz-adv-x="575" 
d="M227 669v-86h-87v86h87zM423 669v-86h-87v86h87zM418 500h83v-500h-83v75q-15 -31 -54 -58t-102 -27q-98 0 -155.5 70t-57.5 186q0 120 61.5 192t156.5 72q52 0 92.5 -23.5t58.5 -62.5v76zM275 60q68 0 105.5 50t37.5 142q0 88 -36 137t-103 49q-70 0 -107 -55.5
t-37 -141.5q0 -84 35.5 -132.5t104.5 -48.5z" />
    <glyph glyph-name="adieresis.ss01.ss02" horiz-adv-x="575" 
d="M182 568q-23 0 -38 15.5t-15 37.5q0 23 14.5 38t38.5 15t38.5 -15t14.5 -38q0 -22 -15 -37.5t-38 -15.5zM380 568q-23 0 -38 15.5t-15 37.5q0 23 14.5 38t38.5 15t38.5 -15t14.5 -38q0 -22 -15 -37.5t-38 -15.5zM418 500h83v-500h-83v75q-15 -31 -54 -58t-102 -27
q-98 0 -155.5 70t-57.5 186q0 120 61.5 192t156.5 72q52 0 92.5 -23.5t58.5 -62.5v76zM275 60q68 0 105.5 50t37.5 142q0 88 -36 137t-103 49q-70 0 -107 -55.5t-37 -141.5q0 -84 35.5 -132.5t104.5 -48.5z" />
    <glyph glyph-name="adieresis.ss02" horiz-adv-x="547" 
d="M173 568q-23 0 -38 15.5t-15 37.5q0 23 14.5 38t38.5 15t38.5 -15t14.5 -38q0 -22 -15 -37.5t-38 -15.5zM371 568q-23 0 -38 15.5t-15 37.5q0 23 14.5 38t38.5 15t38.5 -15t14.5 -38q0 -22 -15 -37.5t-38 -15.5zM283 509q85 0 138 -41.5t53 -120.5v-347h-81v90
q-19 -38 -62.5 -69t-110.5 -31q-72 0 -119 37.5t-47 104.5t47.5 101t153.5 50q79 12 108.5 25.5t29.5 48.5q0 37 -31 60.5t-79 23.5q-116 0 -124 -114h-81q2 79 53.5 130.5t151.5 51.5zM236 55q65 0 111 44.5t46 120.5v41q-35 -21 -123 -37q-69 -13 -101 -33t-32 -59
q0 -38 28 -57.5t71 -19.5z" />
    <glyph glyph-name="agrave.ss01" horiz-adv-x="575" 
d="M341 570h-81l-114 129h103zM418 500h83v-500h-83v75q-15 -31 -54 -58t-102 -27q-98 0 -155.5 70t-57.5 186q0 120 61.5 192t156.5 72q52 0 92.5 -23.5t58.5 -62.5v76zM275 60q68 0 105.5 50t37.5 142q0 88 -36 137t-103 49q-70 0 -107 -55.5t-37 -141.5
q0 -84 35.5 -132.5t104.5 -48.5z" />
    <glyph glyph-name="amacron.ss01" horiz-adv-x="575" 
d="M420 647v-64h-279v64h279zM418 500h83v-500h-83v75q-15 -31 -54 -58t-102 -27q-98 0 -155.5 70t-57.5 186q0 120 61.5 192t156.5 72q52 0 92.5 -23.5t58.5 -62.5v76zM275 60q68 0 105.5 50t37.5 142q0 88 -36 137t-103 49q-70 0 -107 -55.5t-37 -141.5q0 -84 35.5 -132.5
t104.5 -48.5z" />
    <glyph glyph-name="aogonek.ss01" horiz-adv-x="575" 
d="M502 -147h17v-58h-27q-61 0 -95 29.5t-34 73.5q0 62 69 102h-14v75q-15 -31 -54 -58t-102 -27q-98 0 -155.5 70t-57.5 186q0 120 61.5 192t156.5 72q52 0 92.5 -23.5t58.5 -62.5v76h83v-500q-31 -18 -51.5 -43t-20.5 -51q0 -53 73 -53zM275 60q68 0 105.5 50t37.5 142
q0 88 -36 137t-103 49q-70 0 -107 -55.5t-37 -141.5q0 -84 35.5 -132.5t104.5 -48.5z" />
    <glyph glyph-name="aring.ss01" horiz-adv-x="575" 
d="M281 544q-44 0 -72 29t-28 70q0 43 28 71.5t72 28.5t71.5 -28.5t27.5 -71.5q0 -41 -28 -70t-71 -29zM281 687q-18 0 -30 -13t-12 -31t12 -30.5t30 -12.5t29.5 12.5t11.5 30.5t-11.5 31t-29.5 13zM418 500h83v-500h-83v75q-15 -31 -54 -58t-102 -27q-98 0 -155.5 70
t-57.5 186q0 120 61.5 192t156.5 72q52 0 92.5 -23.5t58.5 -62.5v76zM275 60q68 0 105.5 50t37.5 142q0 88 -36 137t-103 49q-70 0 -107 -55.5t-37 -141.5q0 -84 35.5 -132.5t104.5 -48.5z" />
    <glyph glyph-name="at.case" horiz-adv-x="1000" 
d="M500 790q120 0 220 -54t160 -154.5t60 -228.5q0 -113 -47 -181.5t-129 -68.5q-94 0 -131 82q-17 -34 -56 -58t-96 -24q-96 0 -152.5 69.5t-56.5 170.5t56.5 170.5t149.5 69.5q90 0 134 -71l2 -2v63h75v-280q0 -125 76 -125q47 0 74 46.5t27 130.5q0 165 -104 272
t-261 107t-261 -106.5t-104 -269.5t103.5 -267.5t271.5 -104.5q119 0 184 58l45 -50q-83 -74 -234 -74q-191 0 -318.5 121.5t-127.5 316.5t127 318.5t313 123.5zM490 168q124 0 124 180q0 82 -34 126t-95 44q-64 0 -100.5 -54t-36.5 -125q0 -69 35 -120t107 -51z" />
    <glyph glyph-name="atilde.ss01" horiz-adv-x="575" 
d="M219 616q-39 0 -50 -46h-52q7 53 36 81.5t68 28.5q37 0 69.5 -24.5t50.5 -24.5q40 0 51 46h53q-7 -53 -36 -81.5t-68 -28.5q-37 0 -70.5 24.5t-51.5 24.5zM418 500h83v-500h-83v75q-15 -31 -54 -58t-102 -27q-98 0 -155.5 70t-57.5 186q0 120 61.5 192t156.5 72
q52 0 92.5 -23.5t58.5 -62.5v76zM275 60q68 0 105.5 50t37.5 142q0 88 -36 137t-103 49q-70 0 -107 -55.5t-37 -141.5q0 -84 35.5 -132.5t104.5 -48.5z" />
    <glyph glyph-name="braceleft.case" horiz-adv-x="327" 
d="M216 504q0 -126 -88 -154q88 -27 88 -152v-158q0 -56 21.5 -75.5t64.5 -19.5h25v-69h-32q-82 0 -119.5 37t-37.5 131v167q0 55 -21.5 77.5t-77.5 30.5v62q56 8 77.5 30.5t21.5 77.5v167q0 94 37.5 131t119.5 37h32v-69h-25q-43 0 -64.5 -19.5t-21.5 -75.5v-156z" />
    <glyph glyph-name="braceright.case" horiz-adv-x="327" 
d="M189 489q0 -55 21.5 -77.5t77.5 -30.5v-62q-56 -8 -77.5 -30.5t-21.5 -77.5v-167q0 -94 -37.5 -131t-119.5 -37h-32v69h25q43 0 64.5 19.5t21.5 75.5v156q0 126 88 154q-88 27 -88 152v158q0 56 -21.5 75.5t-64.5 19.5h-25v69h32q82 0 119.5 -37t37.5 -131v-167z" />
    <glyph glyph-name="bracketleft.case" horiz-adv-x="298" 
d="M298 755h-136v-810h136v-69h-215v948h215v-69z" />
    <glyph glyph-name="bracketright.case" horiz-adv-x="298" 
d="M215 824v-948h-215v69h136v810h-136v69h215z" />
    <glyph glyph-name="bullet.case" horiz-adv-x="222" 
d="M61 310v99h100v-99h-100z" />
    <glyph glyph-name="bullet.case.ss02" horiz-adv-x="242" 
d="M121 293q-26 0 -43 17.5t-17 42.5q0 26 16.5 43t43.5 17t43.5 -17t16.5 -43q0 -25 -17 -42.5t-43 -17.5z" />
    <glyph glyph-name="bullet.ss02" horiz-adv-x="242" 
d="M121 231q-26 0 -43 17.5t-17 42.5q0 26 16.5 43t43.5 17t43.5 -17t16.5 -43q0 -25 -17 -42.5t-43 -17.5z" />
    <glyph glyph-name="cdotaccent.ss02" horiz-adv-x="565" 
d="M277 577q-26 0 -42.5 17.5t-16.5 42.5t16.5 42t42.5 17t42.5 -17t16.5 -42t-16.5 -42.5t-42.5 -17.5zM423 323q-7 54 -43.5 85.5t-90.5 31.5q-72 0 -114 -55t-42 -136q0 -85 45 -137.5t119 -52.5q110 0 133 110h81q-12 -82 -67.5 -130.5t-147.5 -48.5q-115 0 -181 74
t-66 186q0 111 65.5 185t173.5 74q90 0 149.5 -51t67.5 -135h-82z" />
    <glyph glyph-name="cent.ss07" horiz-adv-x="533" 
d="M479 231q-11 -64 -58.5 -105t-118.5 -49v-77h-69v79q-84 13 -134 76t-50 155t51 155.5t133 75.5v79h69v-78q69 -8 115.5 -49.5t57.5 -108.5h-78q-7 33 -31.5 57t-63.5 31v-326q38 6 64 28.5t36 56.5h77zM130 309q0 -62 28 -103.5t75 -55.5v320q-46 -13 -74.5 -55.5
t-28.5 -105.5z" />
    <glyph glyph-name="colon.ss02" horiz-adv-x="220" 
d="M110 390q-26 0 -43 17.5t-17 42.5q0 26 16.5 43t43.5 17t43.5 -17t16.5 -43q0 -25 -17 -42.5t-43 -17.5zM110 -10q-26 0 -43 17.5t-17 42.5q0 26 16.5 43t43.5 17t43.5 -17t16.5 -43q0 -25 -17 -42.5t-43 -17.5z" />
    <glyph glyph-name="comma.ss02" horiz-adv-x="215" 
d="M101 110q30 0 47 -21.5t17 -60.5q0 -55 -31.5 -90t-93.5 -44v39q26 6 44 21t18 36q-29 1 -44.5 17.5t-15.5 42.5t17 43t42 17z" />
    <glyph glyph-name="dcaron.ss02" 
d="M420 424v286h83v-710h-83v76q-15 -31 -54.5 -58.5t-103.5 -27.5q-98 0 -155.5 70t-57.5 186q0 120 62 192t157 72q53 0 93.5 -23.5t58.5 -62.5zM622 708q28 0 44.5 -19.5t16.5 -54.5q0 -49 -30 -81t-89 -39v35q25 5 42 18.5t17 32.5q-28 1 -42.5 16t-14.5 38t16 38.5
t40 15.5zM276 59q68 0 106 50.5t38 142.5q0 88 -36 137.5t-104 49.5q-72 0 -109.5 -55.5t-37.5 -142.5q0 -84 36.5 -133t106.5 -49z" />
    <glyph glyph-name="dieresis.ss02" horiz-adv-x="411" 
d="M107 568q-23 0 -38 15.5t-15 37.5q0 23 14.5 38t38.5 15t38.5 -15t14.5 -38q0 -22 -15 -37.5t-38 -15.5zM305 568q-23 0 -38 15.5t-15 37.5q0 23 14.5 38t38.5 15t38.5 -15t14.5 -38q0 -22 -15 -37.5t-38 -15.5z" />
    <glyph glyph-name="divide.ss02" horiz-adv-x="586" 
d="M294 367q-23 0 -38 15.5t-15 37.5q0 23 14.5 38t38.5 15t38.5 -15t14.5 -38q0 -22 -15 -37.5t-38 -15.5zM61 279h464v-69h-464v69zM294 17q-23 0 -38 15.5t-15 37.5q0 23 14.5 38t38.5 15t38.5 -15t14.5 -38q0 -22 -15 -37.5t-38 -15.5z" />
    <glyph glyph-name="dollar.ss03" horiz-adv-x="581" 
d="M521 170q0 -78 -53 -125t-141 -54v-91h-75v93q-93 13 -146.5 73.5t-58.5 153.5h82q5 -65 38 -103.5t85 -50.5v261q-40 16 -68.5 31.5t-56 38.5t-42 55t-14.5 71q0 74 51.5 121t129.5 56v90h75v-91q83 -12 128.5 -67t51.5 -135h-81q-9 106 -99 127v-246h1l2 -1
q97 -38 144 -87.5t47 -119.5zM156 525q0 -70 96 -116v217q-43 -8 -69.5 -34t-26.5 -67zM327 63q48 5 78.5 30.5t30.5 71.5q0 81 -109 131v-233z" />
    <glyph glyph-name="dollar.ss07" horiz-adv-x="534" 
d="M298 317q34 -13 57 -25t48 -32t37.5 -48t12.5 -64q0 -65 -43 -107t-112 -50v-73h-69v74q-73 11 -114 60t-45 117h78q7 -83 81 -105v200l-6 3q-85 37 -130.5 80t-45.5 113t51.5 115.5t130.5 52.5v72h69v-74q80 -12 126 -63t50 -127h-78q-9 96 -98 120v-239zM129 456
q0 -38 25 -63.5t75 -47.5v214q-43 -7 -71.5 -33t-28.5 -70zM298 62q34 7 53.5 29t19.5 57q0 33 -19 53.5t-54 35.5v-175z" />
    <glyph glyph-name="dollar.ss07.ss03" horiz-adv-x="524" 
d="M464 145q0 -69 -45.5 -109t-122.5 -46v-72h-69v74q-82 10 -129 61.5t-51 128.5h78q5 -49 32 -80t70 -41v220q-36 14 -58.5 25.5t-49 32.5t-39.5 50.5t-13 68.5q0 72 44.5 116t115.5 53v73h69v-74q72 -10 112 -59t44 -117h-78q-9 86 -78 105v-223h1q39 -15 65 -28.5
t51.5 -35t38 -52.5t12.5 -71zM149 460q0 -67 78 -101v198q-35 -8 -56.5 -32.5t-21.5 -64.5zM296 59q85 11 85 89q0 43 -19.5 65t-65.5 42v-196z" />
    <glyph glyph-name="dotaccent.ss02" horiz-adv-x="413" 
d="M205 577q-26 0 -42.5 17.5t-16.5 42.5t16.5 42t42.5 17t42.5 -17t16.5 -42t-16.5 -42.5t-42.5 -17.5z" />
    <glyph glyph-name="edieresis.ss02" horiz-adv-x="564" 
d="M180 568q-23 0 -38 15.5t-15 37.5q0 23 14.5 38t38.5 15t38.5 -15t14.5 -38q0 -22 -15 -37.5t-38 -15.5zM378 568q-23 0 -38 15.5t-15 37.5q0 23 14.5 38t38.5 15t38.5 -15t14.5 -38q0 -22 -15 -37.5t-38 -15.5zM429 161h79q-9 -74 -64.5 -122.5t-151.5 -48.5
q-115 0 -179 74t-64 186t62.5 185.5t171.5 73.5q106 0 164.5 -70t58.5 -193v-18h-372q5 -78 48 -124t112 -46q54 0 89.5 27.5t45.5 75.5zM285 442q-64 0 -102 -41t-47 -111h286q-6 70 -39.5 111t-97.5 41z" />
    <glyph glyph-name="edotaccent.ss02" horiz-adv-x="564" 
d="M279 577q-26 0 -42.5 17.5t-16.5 42.5t16.5 42t42.5 17t42.5 -17t16.5 -42t-16.5 -42.5t-42.5 -17.5zM429 161h79q-9 -74 -64.5 -122.5t-151.5 -48.5q-115 0 -179 74t-64 186t62.5 185.5t171.5 73.5q106 0 164.5 -70t58.5 -193v-18h-372q5 -78 48 -124t112 -46
q54 0 89.5 27.5t45.5 75.5zM285 442q-64 0 -102 -41t-47 -111h286q-6 70 -39.5 111t-97.5 41z" />
    <glyph glyph-name="eight.dnom" horiz-adv-x="381" 
d="M260 165q62 -23 62 -78q0 -44 -37.5 -70.5t-93.5 -26.5t-93.5 26.5t-37.5 70.5q0 54 61 78q-77 25 -77 93q0 48 40 77.5t107 29.5t107 -29.5t40 -77.5q0 -68 -78 -93zM191 316q-41 0 -64 -17.5t-23 -44.5q0 -34 33.5 -50.5t53.5 -16.5q9 0 27 5t39 21t21 40
q0 28 -23.5 45.5t-63.5 17.5zM118 90q0 -23 20 -37.5t53 -14.5t52.5 14.5t19.5 37.5q0 46 -72 58q-11 -2 -23.5 -5t-31 -17.5t-18.5 -35.5z" />
    <glyph glyph-name="eight.dnom.ss03" horiz-adv-x="381" 
d="M260 190q78 -25 78 -93q0 -48 -40 -77.5t-107 -29.5t-107 29.5t-40 77.5q0 68 77 93q-61 24 -61 78q0 44 37.5 70.5t93.5 26.5t93.5 -26.5t37.5 -70.5q0 -55 -62 -78zM191 317q-33 0 -53 -14.5t-20 -37.5q0 -21 18.5 -35.5t31 -17.5t23.5 -5q72 12 72 58q0 23 -19.5 37.5
t-52.5 14.5zM191 39q40 0 63.5 17.5t23.5 45.5q0 24 -21 40t-39 21t-27 5q-6 0 -18.5 -3t-28.5 -10t-28 -21t-12 -33q0 -27 23 -44.5t64 -17.5z" />
    <glyph glyph-name="eight.numr" horiz-adv-x="381" 
d="M260 505q62 -23 62 -78q0 -44 -37.5 -70.5t-93.5 -26.5t-93.5 26.5t-37.5 70.5q0 54 61 78q-77 25 -77 93q0 48 40 77.5t107 29.5t107 -29.5t40 -77.5q0 -68 -78 -93zM191 656q-41 0 -64 -17.5t-23 -44.5q0 -34 33.5 -50.5t53.5 -16.5q9 0 27 5t39 21t21 40
q0 28 -23.5 45.5t-63.5 17.5zM118 430q0 -23 20 -37.5t53 -14.5t52.5 14.5t19.5 37.5q0 46 -72 58q-11 -2 -23.5 -5t-31 -17.5t-18.5 -35.5z" />
    <glyph glyph-name="eight.numr.ss03" horiz-adv-x="381" 
d="M260 530q78 -25 78 -93q0 -48 -40 -77.5t-107 -29.5t-107 29.5t-40 77.5q0 68 77 93q-61 24 -61 78q0 44 37.5 70.5t93.5 26.5t93.5 -26.5t37.5 -70.5q0 -55 -62 -78zM191 657q-33 0 -53 -14.5t-20 -37.5q0 -21 18.5 -35.5t31 -17.5t23.5 -5q72 12 72 58q0 23 -19.5 37.5
t-52.5 14.5zM191 379q40 0 63.5 17.5t23.5 45.5q0 24 -21 40t-39 21t-27 5q-6 0 -18.5 -3t-28.5 -10t-28 -21t-12 -33q0 -27 23 -44.5t64 -17.5z" />
    <glyph glyph-name="eight.ss03" horiz-adv-x="639" 
d="M422 373q66 -21 108.5 -65t42.5 -116q0 -91 -69.5 -146.5t-183.5 -55.5t-184.5 55.5t-70.5 146.5q0 72 43 116t109 65q-125 45 -125 155q0 80 65.5 130t162.5 50t162 -50t65 -130q0 -110 -125 -155zM179 524q0 -45 35.5 -74.5t70.5 -37.5l35 -7q6 1 15.5 2.5t33.5 10
t42.5 20.5t33.5 35t15 51q0 48 -38 80t-102 32t-102.5 -32t-38.5 -80zM320 63q77 0 121 38.5t44 96.5q0 34 -17 61.5t-41 42t-48.5 24t-41.5 12.5l-17 2q-7 -1 -18 -3t-39.5 -12t-50.5 -24t-40 -41.5t-18 -62.5q0 -57 44 -95.5t122 -38.5z" />
    <glyph glyph-name="eight.ss07" horiz-adv-x="597" 
d="M398 289q112 -42 112 -138q0 -72 -60.5 -116.5t-150.5 -44.5t-151 44.5t-61 116.5q0 96 112 137q-59 19 -97.5 58.5t-38.5 102.5q0 81 65 131t171 50t170.5 -50t64.5 -131q0 -63 -38.5 -102.5t-97.5 -57.5zM146 445q0 -31 16 -55t38 -36.5t44.5 -20.5t38.5 -11l16 -2
q6 1 16.5 2.5t36.5 10t46 20.5t36.5 36t16.5 55q0 50 -40.5 83.5t-111.5 33.5t-112 -33.5t-41 -82.5zM299 58q58 0 93.5 27t35.5 70q0 25 -13.5 45t-32 30.5t-37.5 18t-33 9.5l-13 2q-5 -1 -14 -2.5t-31 -9t-39 -18t-31 -30.5t-14 -45q0 -43 35 -70t94 -27z" />
    <glyph glyph-name="eight.ss07.ss03" horiz-adv-x="597" 
d="M397 331q60 -18 98.5 -57.5t38.5 -102.5q0 -81 -64.5 -131t-170.5 -50t-171 50t-65 131q0 63 38.5 102.5t98.5 57.5q-113 41 -113 138q0 72 61 116.5t151 44.5t150.5 -44.5t60.5 -116.5q0 -97 -113 -138zM170 465q0 -25 13.5 -45t32 -30.5t37.5 -18t33 -9.5l13 -2
q5 1 14 2.5t31 9t39 18t31 30.5t14 45q0 42 -35.5 69.5t-93.5 27.5q-59 0 -94 -27.5t-35 -69.5zM299 59q71 0 111.5 33t40.5 84q0 30 -15.5 54t-38 36.5t-45 20.5t-38.5 11l-15 2q-6 -1 -16.5 -2.5t-37 -10t-46.5 -21t-36.5 -36.5t-16.5 -55q0 -49 40.5 -82.5t112.5 -33.5z
" />
    <glyph glyph-name="eight.tf" horiz-adv-x="647" 
d="M427 324q54 -20 89 -58t35 -96q0 -80 -65 -130t-162 -50t-162.5 50t-65.5 130q0 58 35 96t89 58q-151 49 -151 181q0 91 70.5 147t184.5 56t183.5 -56t69.5 -147q0 -132 -150 -181zM158 502q0 -34 17 -61.5t41.5 -42t49 -24t41.5 -12.5l17 -3q7 1 18 3t39.5 12t50 24
t39.5 41.5t18 61.5q0 58 -44 96.5t-121 38.5q-78 0 -122 -38.5t-44 -95.5zM324 62q64 0 102 32t38 80q0 28 -14.5 50.5t-35 35t-41 20.5t-35.5 10l-14 3q-6 -1 -15.5 -3t-33.5 -10.5t-43 -20.5t-34 -34.5t-15 -50.5q0 -48 38.5 -80t102.5 -32z" />
    <glyph glyph-name="eight.tf.ss03" horiz-adv-x="647" 
d="M426 373q66 -21 108.5 -65t42.5 -116q0 -91 -69.5 -146.5t-183.5 -55.5t-184.5 55.5t-70.5 146.5q0 72 43 116t109 65q-125 45 -125 155q0 80 65.5 130t162.5 50t162 -50t65 -130q0 -110 -125 -155zM183 524q0 -45 35.5 -74.5t70.5 -37.5l35 -7q6 1 15.5 2.5t33.5 10
t42.5 20.5t33.5 35t15 51q0 48 -38 80t-102 32t-102.5 -32t-38.5 -80zM324 63q77 0 121 38.5t44 96.5q0 34 -17 61.5t-41 42t-48.5 24t-41.5 12.5l-17 2q-7 -1 -18 -3t-39.5 -12t-50.5 -24t-40 -41.5t-18 -62.5q0 -57 44 -95.5t122 -38.5z" />
    <glyph glyph-name="eight.tf.ss07" horiz-adv-x="599" 
d="M399 289q112 -42 112 -138q0 -72 -60.5 -116.5t-150.5 -44.5t-151 44.5t-61 116.5q0 96 112 137q-59 19 -97.5 58.5t-38.5 102.5q0 81 65 131t171 50t170.5 -50t64.5 -131q0 -63 -38.5 -102.5t-97.5 -57.5zM147 445q0 -31 16 -55t38 -36.5t44.5 -20.5t38.5 -11l16 -2
q6 1 16.5 2.5t36.5 10t46 20.5t36.5 36t16.5 55q0 50 -40.5 83.5t-111.5 33.5t-112 -33.5t-41 -82.5zM300 58q58 0 93.5 27t35.5 70q0 40 -32.5 66t-64.5 33l-32 6q-5 -1 -14 -2.5t-31 -9t-39 -18t-31 -30.5t-14 -45q0 -43 35 -70t94 -27z" />
    <glyph glyph-name="eight.tf.ss07.ss03" horiz-adv-x="599" 
d="M398 331q60 -18 98.5 -57.5t38.5 -102.5q0 -81 -64.5 -131t-170.5 -50t-171 50t-65 131q0 63 38.5 102.5t98.5 57.5q-113 41 -113 138q0 72 61 116.5t151 44.5t150.5 -44.5t60.5 -116.5q0 -97 -113 -138zM171 465q0 -40 32.5 -66t64.5 -33l32 -6q5 1 14 2.5t31 9t39 18
t31 30.5t14 45q0 42 -35.5 69.5t-93.5 27.5q-59 0 -94 -27.5t-35 -69.5zM300 59q71 0 111.5 33t40.5 84q0 30 -15.5 54t-38 36.5t-45 20.5t-37.5 11l-16 2q-6 -1 -16.5 -2.5t-37 -10t-46.5 -21t-36.5 -36.5t-16.5 -55q0 -49 40.5 -82.5t112.5 -33.5z" />
    <glyph glyph-name="ellipsis.ss02" horiz-adv-x="713" 
d="M110 -10q-26 0 -43 17.5t-17 42.5q0 26 16.5 43t43.5 17t43.5 -17t16.5 -43q0 -25 -17 -42.5t-43 -17.5zM357 -10q-26 0 -43 17.5t-17 42.5q0 26 16.5 43t43.5 17t43.5 -17t16.5 -43q0 -25 -17 -42.5t-43 -17.5zM603 -10q-26 0 -43 17.5t-17 42.5q0 26 16.5 43t43.5 17
t43.5 -17t16.5 -43q0 -25 -17 -42.5t-43 -17.5z" />
    <glyph glyph-name="emdash.case" horiz-adv-x="1077" 
d="M61 396h955v-70h-955v70z" />
    <glyph glyph-name="endash.case" horiz-adv-x="720" 
d="M61 396h598v-70h-598v70z" />
    <glyph glyph-name="exclam.ss02" horiz-adv-x="220" 
d="M63 700h94l-14 -507h-65zM110 -10q-26 0 -43 17.5t-17 42.5q0 26 16.5 43t43.5 17t43.5 -17t16.5 -43q0 -25 -17 -42.5t-43 -17.5z" />
    <glyph glyph-name="exclamdown.case" horiz-adv-x="200" 
d="M150 700v-99h-100v99h100zM147 0h-94l14 507h65z" />
    <glyph glyph-name="exclamdown.case.ss02" horiz-adv-x="220" 
d="M110 590q-26 0 -43 17.5t-17 42.5q0 26 16.5 43t43.5 17t43.5 -17t16.5 -43q0 -25 -17 -42.5t-43 -17.5zM63 0l14 507h65l15 -507h-94z" />
    <glyph glyph-name="exclamdown.ss02" horiz-adv-x="220" 
d="M110 370q-26 0 -43 17.5t-17 42.5q0 26 16.5 43t43.5 17t43.5 -17t16.5 -43q0 -25 -17 -42.5t-43 -17.5zM63 -220l14 507h65l15 -507h-94z" />
    <glyph glyph-name="f_f_i.liga.ss02" horiz-adv-x="951" 
d="M867 500v-500h-85v434h-242v-434h-85v434h-242v-434h-85v434h-91v66h91v42q0 72 42 115t111 43h80v-69h-63q-85 0 -85 -99v-32h242v42q0 72 42 115t111 43h80v-69h-63q-85 0 -85 -99v-32h327zM825 577q-26 0 -42.5 17.5t-16.5 42.5t16.5 42t42.5 17t42.5 -17t16.5 -42
t-16.5 -42.5t-42.5 -17.5z" />
    <glyph glyph-name="f_f_j.liga.ss02" horiz-adv-x="953" 
d="M869 500v-560q0 -76 -42.5 -118t-120.5 -42h-81v70h63q97 0 96 100v484h-244v-434h-85v434h-242v-434h-85v434h-91v66h91v42q0 72 42 115t111 43h80v-69h-63q-85 0 -85 -99v-32h242v42q0 72 42 115t111 43h80v-69h-63q-85 0 -85 -99v-32h329zM827 577q-26 0 -42.5 17.5
t-16.5 42.5t16.5 42t42.5 17t42.5 -17t16.5 -42t-16.5 -42.5t-42.5 -17.5z" />
    <glyph glyph-name="f_i.liga.ss02" horiz-adv-x="626" 
d="M542 500v-500h-85v434h-244v-434h-85v434h-91v66h91v42q0 72 42 115t111 43h80v-69h-63q-85 0 -85 -99v-32h329zM500 577q-26 0 -42.5 17.5t-16.5 42.5t16.5 42t42.5 17t42.5 -17t16.5 -42t-16.5 -42.5t-42.5 -17.5z" />
    <glyph glyph-name="f_j.liga.ss02" horiz-adv-x="617" 
d="M543 500v-560q0 -76 -42.5 -118t-120.5 -42h-81v70h63q97 0 96 100v484h-245v-434h-85v434h-91v66h91v42q0 72 42 115t111 43h80v-69h-63q-85 0 -85 -99v-32h330zM501 577q-26 0 -42.5 17.5t-16.5 42.5t16.5 42t42.5 17t42.5 -17t16.5 -42t-16.5 -42.5t-42.5 -17.5z" />
    <glyph glyph-name="five.dnom" horiz-adv-x="358" 
d="M188 232q59 0 94.5 -33t35.5 -89q0 -57 -38 -88.5t-99 -31.5q-62 0 -98.5 34t-41.5 86h58q4 -30 25.5 -50t58.5 -20t58 18.5t21 51.5q0 35 -22.5 55t-62.5 20q-29 0 -49 -10t-26 -19l-46 21l28 183h213v-52h-162l-18 -97q31 21 71 21z" />
    <glyph glyph-name="five.numr" horiz-adv-x="358" 
d="M188 572q59 0 94.5 -33t35.5 -89q0 -57 -38 -88.5t-99 -31.5q-62 0 -98.5 34t-41.5 86h58q4 -30 25.5 -50t58.5 -20t58 18.5t21 51.5q0 35 -22.5 55t-62.5 20q-29 0 -49 -10t-26 -19l-46 21l28 183h213v-52h-162l-18 -97q31 21 71 21z" />
    <glyph glyph-name="five.ss07" horiz-adv-x="563" 
d="M288 395q97 0 155 -55t58 -150t-60.5 -147.5t-158.5 -52.5q-96 0 -154.5 55t-67.5 143h79q7 -55 44.5 -91.5t102.5 -36.5q63 0 100 33.5t37 94.5q0 66 -39 103t-108 37q-36 0 -68 -11.5t-44.5 -21.5t-17.5 -16l-62 32l46 309h337v-71h-268l-31 -191q47 37 120 37z" />
    <glyph glyph-name="five.tf" horiz-adv-x="647" 
d="M326 445q108 0 172 -61.5t64 -169.5t-67 -166t-174 -58q-106 0 -170.5 61.5t-74.5 160.5h85q8 -64 49.5 -105.5t114.5 -41.5q70 0 111 38.5t41 107.5q0 77 -43.5 119.5t-120.5 42.5q-90 0 -145 -55l-66 34l52 348h370v-76h-296l-35 -219q54 40 133 40z" />
    <glyph glyph-name="five.tf.ss07" horiz-adv-x="599" 
d="M305 395q97 0 155 -55t58 -150t-60.5 -147.5t-158.5 -52.5q-96 0 -154.5 55t-67.5 143h79q7 -55 44.5 -91.5t102.5 -36.5q63 0 100 33.5t37 94.5q0 66 -39 103t-108 37q-36 0 -68 -11.5t-44.5 -21.5t-17.5 -16l-62 32l46 309h337v-71h-268l-31 -191q47 37 120 37z" />
    <glyph glyph-name="fiveeighths.ss03" horiz-adv-x="874" 
d="M188 572q59 0 94.5 -33t35.5 -89q0 -57 -38 -88.5t-99 -31.5q-62 0 -98.5 34t-41.5 86h58q4 -30 25.5 -50t58.5 -20t58 18.5t21 51.5q0 35 -22.5 55t-62.5 20q-29 0 -49 -10t-26 -19l-46 21l28 183h213v-52h-162l-18 -97q31 21 71 21zM98 0l586 700h79l-586 -700h-79z
M753 190q78 -25 78 -93q0 -48 -40 -77.5t-107 -29.5t-107 29.5t-40 77.5q0 68 77 93q-61 24 -61 78q0 44 37.5 70.5t93.5 26.5t93.5 -26.5t37.5 -70.5q0 -55 -62 -78zM684 317q-33 0 -53 -14.5t-20 -37.5q0 -21 18.5 -35.5t31 -17.5t23.5 -5q72 12 72 58q0 23 -19.5 37.5
t-52.5 14.5zM684 39q40 0 63.5 17.5t23.5 45.5q0 24 -21 40t-39 21t-27 5q-6 0 -18.5 -3t-28.5 -10t-28 -21t-12 -33q0 -27 23 -44.5t64 -17.5z" />
    <glyph glyph-name="florin.ss07" horiz-adv-x="553" 
d="M441 552q-47 0 -67 -25t-31 -79l-20 -97h145v-63h-158l-24 -118q-18 -90 -55 -130t-107 -40h-76v68h64q47 0 66.5 24.5t30.5 79.5l23 116h-127v63h140l22 108q17 87 54 124t108 37h76v-68h-64z" />
    <glyph glyph-name="four.dnom" horiz-adv-x="349" 
d="M321 122v-49h-58v-73h-58v73h-177v37l159 250h76v-238h58zM94 122h111v181z" />
    <glyph glyph-name="four.numr" horiz-adv-x="349" 
d="M321 462v-49h-58v-73h-58v73h-177v37l159 250h76v-238h58zM94 462h111v181z" />
    <glyph glyph-name="four.ss07" horiz-adv-x="570" 
d="M534 196v-68h-102v-128h-78v128h-308v53l276 439h110v-424h102zM137 196h217v352z" />
    <glyph glyph-name="four.tf" horiz-adv-x="647" 
d="M591 218v-73h-111v-145h-84v145h-338v57l304 498h118v-482h111zM155 218h241v403z" />
    <glyph glyph-name="four.tf.ss07" horiz-adv-x="599" 
d="M548 196v-68h-102v-128h-78v128h-308v53l276 439h110v-424h102zM151 196h217v352z" />
    <glyph glyph-name="gcommaaccent.ss02" horiz-adv-x="575" 
d="M283 554q-30 0 -47 21.5t-17 60.5q0 55 31.5 90t93.5 44v-39q-26 -6 -44 -21t-18 -36q29 -1 44.5 -17.5t15.5 -42.5t-17 -43t-42 -17zM419 500h82v-499q0 -112 -56.5 -171.5t-165.5 -59.5q-104 0 -157.5 52.5t-57.5 131.5h78q4 -48 36 -81.5t102 -33.5q78 0 108.5 43.5
t30.5 123.5v72q-14 -31 -53 -59.5t-104 -28.5q-98 0 -155.5 70t-57.5 186q0 120 62 192t156 72q53 0 93.5 -23.5t58.5 -62.5v76zM275 59q68 0 106 50.5t38 141.5q0 88 -36 137.5t-102 49.5q-72 0 -109.5 -55.5t-37.5 -141.5q0 -83 36.5 -132.5t104.5 -49.5z" />
    <glyph glyph-name="gdotaccent.ss02" horiz-adv-x="575" 
d="M278 577q-26 0 -42.5 17.5t-16.5 42.5t16.5 42t42.5 17t42.5 -17t16.5 -42t-16.5 -42.5t-42.5 -17.5zM419 500h82v-499q0 -112 -56.5 -171.5t-165.5 -59.5q-104 0 -157.5 52.5t-57.5 131.5h78q4 -48 36 -81.5t102 -33.5q78 0 108.5 43.5t30.5 123.5v72q-14 -31 -53 -59.5
t-104 -28.5q-98 0 -155.5 70t-57.5 186q0 120 62 192t156 72q53 0 93.5 -23.5t58.5 -62.5v76zM275 59q68 0 106 50.5t38 141.5q0 88 -36 137.5t-102 49.5q-72 0 -109.5 -55.5t-37.5 -141.5q0 -83 36.5 -132.5t104.5 -49.5z" />
    <glyph glyph-name="guillemotleft.case" horiz-adv-x="620" 
d="M318 555l-165 -195l165 -195h-100l-162 195l162 195h100zM549 555l-165 -195l165 -195h-100l-162 195l162 195h100z" />
    <glyph glyph-name="guillemotright.case" horiz-adv-x="620" 
d="M171 555l162 -195l-162 -195h-100l165 195l-165 195h100zM402 555l162 -195l-162 -195h-100l165 195l-165 195h100z" />
    <glyph glyph-name="guilsinglleft.case" horiz-adv-x="389" 
d="M318 555l-165 -195l165 -195h-100l-162 195l162 195h100z" />
    <glyph glyph-name="guilsinglright.case" horiz-adv-x="389" 
d="M171 555l162 -195l-162 -195h-100l165 195l-165 195h100z" />
    <glyph glyph-name="hyphen.case" horiz-adv-x="520" 
d="M61 396h398v-70h-398v70z" />
    <glyph glyph-name="i.loclTRK" horiz-adv-x="233" 
d="M68 588v92h98v-92h-98zM159 0h-85v500h85v-500z" />
    <glyph glyph-name="i.loclTRK.ss02" horiz-adv-x="233" 
d="M117 577q-26 0 -42.5 17.5t-16.5 42.5t16.5 42t42.5 17t42.5 -17t16.5 -42t-16.5 -42.5t-42.5 -17.5zM159 0h-85v500h85v-500z" />
    <glyph glyph-name="i.ss02" horiz-adv-x="233" 
d="M117 577q-26 0 -42.5 17.5t-16.5 42.5t16.5 42t42.5 17t42.5 -17t16.5 -42t-16.5 -42.5t-42.5 -17.5zM159 0h-85v500h85v-500z" />
    <glyph glyph-name="idieresis.ss02" horiz-adv-x="233" 
d="M18 568q-23 0 -38 15.5t-15 37.5q0 23 14.5 38t38.5 15t38.5 -15t14.5 -38q0 -22 -15 -37.5t-38 -15.5zM216 568q-23 0 -38 15.5t-15 37.5q0 23 14.5 38t38.5 15t38.5 -15t14.5 -38q0 -22 -15 -37.5t-38 -15.5zM159 0h-85v500h85v-500z" />
    <glyph glyph-name="ij.ss02" horiz-adv-x="466" 
d="M117 577q-26 0 -42.5 17.5t-16.5 42.5t16.5 42t42.5 17t42.5 -17t16.5 -42t-16.5 -42.5t-42.5 -17.5zM350 577q-26 0 -42.5 17.5t-16.5 42.5t16.5 42t42.5 17t42.5 -17t16.5 -42t-16.5 -42.5t-42.5 -17.5zM159 500v-500h-85v500h85zM307 500h85v-560q0 -76 -42.5 -118
t-120.5 -42h-81v70h63q97 0 96 100v550z" />
    <glyph glyph-name="iogonek.ss02" horiz-adv-x="233" 
d="M117 577q-26 0 -42.5 17.5t-16.5 42.5t16.5 42t42.5 17t42.5 -17t16.5 -42t-16.5 -42.5t-42.5 -17.5zM160 -147h17v-58h-27q-61 0 -95 29.5t-34 73.5q0 62 69 102h-16v500h85v-500q-31 -18 -51.5 -43t-20.5 -51q0 -53 73 -53z" />
    <glyph glyph-name="j.ss02" horiz-adv-x="233" 
d="M117 577q-26 0 -42.5 17.5t-16.5 42.5t16.5 42t42.5 17t42.5 -17t16.5 -42t-16.5 -42.5t-42.5 -17.5zM74 500h85v-560q0 -76 -42.5 -118t-120.5 -42h-81v70h63q97 0 96 100v550z" />
    <glyph glyph-name="kcommaaccent.ss02" horiz-adv-x="505" 
d="M266 279l222 -279h-98l-178 222l-57 -60v-162h-81v710h81v-442l220 232h101zM265 -60q26 0 41.5 -19.5t15.5 -54.5q0 -49 -28 -81t-84 -39v35q24 5 40 18.5t16 32.5q-27 1 -40.5 16t-13.5 38t15 38.5t38 15.5z" />
    <glyph glyph-name="lcaron.ss02" horiz-adv-x="234" 
d="M160 0h-86v710h86v-710zM280 708q28 0 44.5 -19.5t16.5 -54.5q0 -49 -30 -81t-89 -39v35q25 5 42 18.5t17 32.5q-28 1 -42.5 16t-14.5 38t16 38.5t40 15.5z" />
    <glyph glyph-name="lcommaaccent.ss02" horiz-adv-x="234" 
d="M160 0h-86v710h86v-710zM113 -60q26 0 41.5 -19.5t15.5 -54.5q0 -49 -28 -81t-84 -39v35q24 5 40 18.5t16 32.5q-27 1 -40.5 16t-13.5 38t15 38.5t38 15.5z" />
    <glyph glyph-name="ncommaaccent.ss02" horiz-adv-x="578" 
d="M349 510q75 0 115.5 -48t40.5 -144v-318h-85v289q0 78 -22 114.5t-72 36.5q-68 0 -118 -77.5t-50 -208.5v-154h-84v500h84v-153q54 163 191 163zM287 -60q26 0 41.5 -19.5t15.5 -54.5q0 -49 -28 -81t-84 -39v35q24 5 40 18.5t16 32.5q-27 1 -40.5 16t-13.5 38t15 38.5
t38 15.5z" />
    <glyph glyph-name="nine.dnom" horiz-adv-x="363" 
d="M169 122q-53 0 -88.5 33t-35.5 88t36.5 88.5t96.5 33.5q66 0 105 -46t39 -137q0 -94 -40 -143t-112 -49q-54 0 -89.5 32.5t-40.5 80.5h55q4 -25 22.5 -44t55.5 -19q47 0 70 37t24 96q-33 -51 -98 -51zM178 316q-32 0 -54.5 -19.5t-22.5 -54.5q0 -34 22.5 -53.5
t53.5 -19.5q32 0 54 19.5t22 54.5q0 34 -22 53.5t-53 19.5z" />
    <glyph glyph-name="nine.numr" horiz-adv-x="363" 
d="M169 462q-53 0 -88.5 33t-35.5 88t36.5 88.5t96.5 33.5q66 0 105 -46t39 -137q0 -94 -40 -143t-112 -49q-54 0 -89.5 32.5t-40.5 80.5h55q4 -25 22.5 -44t55.5 -19q47 0 70 37t24 96q-33 -51 -98 -51zM178 656q-32 0 -54.5 -19.5t-22.5 -54.5q0 -34 22.5 -53.5
t53.5 -19.5q32 0 54 19.5t22 54.5q0 34 -22 53.5t-53 19.5z" />
    <glyph glyph-name="nine.ss07" horiz-adv-x="579" 
d="M281 630q107 0 169 -77.5t62 -230.5q0 -161 -62.5 -246.5t-178.5 -85.5q-88 0 -143.5 54.5t-65.5 135.5h76q7 -46 39.5 -83t98.5 -37q81 0 121 68.5t40 180.5q-21 -39 -63 -65.5t-102 -26.5q-88 0 -146 56.5t-58 151.5q0 91 58 148t155 57zM280 284q57 0 97 37t40 101
t-40 102t-96 38q-58 0 -97 -38t-39 -101q0 -65 39.5 -102t95.5 -37z" />
    <glyph glyph-name="nine.tf" horiz-adv-x="647" 
d="M310 710q118 0 186 -86.5t68 -258.5q0 -181 -68.5 -278t-196.5 -97q-97 0 -158.5 61.5t-71.5 151.5h81q8 -52 44.5 -95t109.5 -43q91 0 136 78.5t44 207.5q-24 -45 -70 -75t-113 -30q-97 0 -161.5 63.5t-64.5 169.5q0 103 64 167t171 64zM309 319q64 0 108.5 42.5
t44.5 114.5q0 74 -45 117.5t-107 43.5q-65 0 -109 -44t-44 -115q0 -74 44.5 -116.5t107.5 -42.5z" />
    <glyph glyph-name="nine.tf.ss07" horiz-adv-x="599" 
d="M291 630q107 0 169 -77.5t62 -230.5q0 -161 -62.5 -246.5t-178.5 -85.5q-88 0 -143.5 54.5t-65.5 135.5h76q7 -46 39.5 -83t98.5 -37q81 0 121 68.5t40 180.5q-21 -39 -63 -65.5t-102 -26.5q-88 0 -146 56.5t-58 151.5q0 91 58 148t155 57zM290 284q57 0 97 37t40 101
t-40 102t-96 38q-58 0 -97 -38t-39 -101q0 -65 39.5 -102t95.5 -37z" />
    <glyph glyph-name="odieresis.ss02" 
d="M189 568q-23 0 -38 15.5t-15 37.5q0 23 14.5 38t38.5 15t38.5 -15t14.5 -38q0 -22 -15 -37.5t-38 -15.5zM387 568q-23 0 -38 15.5t-15 37.5q0 23 14.5 38t38.5 15t38.5 -15t14.5 -38q0 -22 -15 -37.5t-38 -15.5zM288 -10q-109 0 -174 71.5t-65 187.5t65 188t174 72
t174 -72t65 -188t-65 -187.5t-174 -71.5zM288 58q73 0 114 53.5t41 137.5t-41 137.5t-114 53.5t-114 -53.5t-41 -137.5t41 -137.5t114 -53.5z" />
    <glyph glyph-name="one.dnom" horiz-adv-x="294" 
d="M220 360v-360h-59v244q-45 -31 -124 -34v49q55 3 94.5 27t39.5 74h49z" />
    <glyph glyph-name="one.dnom.ss06" horiz-adv-x="328" 
d="M226 50h74v-50h-245v50h112v194q-45 -31 -124 -34v49q55 3 94.5 27t39.5 74h49v-310z" />
    <glyph glyph-name="one.numr" horiz-adv-x="294" 
d="M220 700v-360h-59v244q-45 -31 -124 -34v49q55 3 94.5 27t39.5 74h49z" />
    <glyph glyph-name="one.numr.ss06" horiz-adv-x="328" 
d="M226 390h74v-50h-245v50h112v194q-45 -31 -124 -34v49q55 3 94.5 27t39.5 74h49v-310z" />
    <glyph glyph-name="one.ss06" horiz-adv-x="589" 
d="M382 76h159v-76h-451v76h203v424q-84 -70 -237 -74v76q47 2 88.5 13t79.5 32.5t60.5 60.5t22.5 92h75v-624z" />
    <glyph glyph-name="one.ss07" horiz-adv-x="416" 
d="M333 620v-620h-84v435q-71 -57 -197 -61v71q40 2 74.5 11.5t66.5 29t51 54t19 80.5h70z" />
    <glyph glyph-name="one.ss07.ss06" horiz-adv-x="552" 
d="M333 72h136v-72h-404v72h184v363q-71 -57 -197 -61v71q40 2 74.5 11.5t66.5 29t51 54t19 80.5h70v-548z" />
    <glyph glyph-name="one.tf" horiz-adv-x="647" 
d="M431 76h159v-76h-451v76h203v424q-84 -70 -237 -74v76q47 2 88.5 13t79.5 32.5t60.5 60.5t22.5 92h75v-624z" />
    <glyph glyph-name="one.tf.ss07" horiz-adv-x="599" 
d="M385 72h136v-72h-404v72h184v363q-71 -57 -197 -61v71q40 2 74.5 11.5t66.5 29t51 54t19 80.5h70v-548z" />
    <glyph glyph-name="oneeighth.ss03" horiz-adv-x="843" 
d="M220 700v-360h-59v244q-45 -31 -124 -34v49q55 3 94.5 27t39.5 74h49zM67 0l586 700h79l-586 -700h-79zM722 190q78 -25 78 -93q0 -48 -40 -77.5t-107 -29.5t-107 29.5t-40 77.5q0 68 77 93q-61 24 -61 78q0 44 37.5 70.5t93.5 26.5t93.5 -26.5t37.5 -70.5q0 -55 -62 -78
zM653 317q-33 0 -53 -14.5t-20 -37.5q0 -21 18.5 -35.5t31 -17.5t23.5 -5q72 12 72 58q0 23 -19.5 37.5t-52.5 14.5zM653 39q40 0 63.5 17.5t23.5 45.5q0 24 -21 40t-39 21t-27 5q-6 0 -18.5 -3t-28.5 -10t-28 -21t-12 -33q0 -27 23 -44.5t64 -17.5z" />
    <glyph glyph-name="oneeighth.ss06" horiz-adv-x="894" 
d="M226 390h74v-50h-245v50h112v194q-45 -31 -124 -34v49q55 3 94.5 27t39.5 74h49v-310zM102 0l586 700h79l-586 -700h-79zM773 165q62 -23 62 -78q0 -44 -37.5 -70.5t-93.5 -26.5t-93.5 26.5t-37.5 70.5q0 54 61 78q-77 25 -77 93q0 48 40 77.5t107 29.5t107 -29.5
t40 -77.5q0 -68 -78 -93zM704 316q-41 0 -64 -17.5t-23 -44.5q0 -34 33.5 -50.5t53.5 -16.5q9 0 27 5t39 21t21 40q0 28 -23.5 45.5t-63.5 17.5zM631 90q0 -23 20 -37.5t53 -14.5t52.5 14.5t19.5 37.5q0 46 -72 58q-11 -2 -23.5 -5t-31 -17.5t-18.5 -35.5z" />
    <glyph glyph-name="oneeighth.ss06.ss03" horiz-adv-x="878" 
d="M226 390h74v-50h-245v50h112v194q-45 -31 -124 -34v49q55 3 94.5 27t39.5 74h49v-310zM102 0l586 700h79l-586 -700h-79zM757 190q78 -25 78 -93q0 -48 -40 -77.5t-107 -29.5t-107 29.5t-40 77.5q0 68 77 93q-61 24 -61 78q0 44 37.5 70.5t93.5 26.5t93.5 -26.5
t37.5 -70.5q0 -55 -62 -78zM688 317q-33 0 -53 -14.5t-20 -37.5q0 -21 18.5 -35.5t31 -17.5t23.5 -5q72 12 72 58q0 23 -19.5 37.5t-52.5 14.5zM688 39q40 0 63.5 17.5t23.5 45.5q0 24 -21 40t-39 21t-27 5q-6 0 -18.5 -3t-28.5 -10t-28 -21t-12 -33q0 -27 23 -44.5
t64 -17.5z" />
    <glyph glyph-name="onehalf.ss06" horiz-adv-x="874" 
d="M226 390h74v-50h-245v50h112v194q-45 -31 -124 -34v49q55 3 94.5 27t39.5 74h49v-310zM102 0l586 700h79l-586 -700h-79zM826 0h-264v38l92 72q54 42 78.5 72t24.5 69q0 27 -16.5 44.5t-43.5 17.5q-36 0 -52 -26t-14 -68h-60q-4 61 28.5 103.5t99.5 42.5q56 0 88 -31.5
t32 -82.5q0 -47 -27.5 -84.5t-81.5 -79.5l-47 -37h163v-50z" />
    <glyph glyph-name="onequarter.ss06" horiz-adv-x="803" 
d="M226 390h74v-50h-245v50h112v194q-45 -31 -124 -34v49q55 3 94.5 27t39.5 74h49v-310zM102 0l586 700h79l-586 -700h-79zM775 122v-49h-58v-73h-58v73h-177v37l159 250h76v-238h58zM548 122h111v181z" />
    <glyph glyph-name="parenleft.case" horiz-adv-x="287" 
d="M237 834l50 -42q-63 -78 -106 -196.5t-43 -245.5t43 -245.5t106 -196.5l-50 -42q-60 60 -118.5 193.5t-58.5 290.5t58.5 290.5t118.5 193.5z" />
    <glyph glyph-name="parenright.case" horiz-adv-x="287" 
d="M50 -134l-50 42q63 78 106 196.5t43 245.5t-43 245.5t-106 196.5l50 42q60 -60 118.5 -193.5t58.5 -290.5t-58.5 -290.5t-118.5 -193.5z" />
    <glyph glyph-name="percent.ss07" horiz-adv-x="833" 
d="M218 325q-65 0 -109.5 44t-44.5 108q0 66 44.5 109.5t109.5 43.5t109.5 -43.5t44.5 -109.5q0 -64 -44.5 -108t-109.5 -44zM149 0l444 620h85l-445 -620h-84zM218 390q36 0 58.5 25t22.5 62t-22.5 62t-58.5 25t-58.5 -25t-22.5 -62t22.5 -62t58.5 -25zM615 -10
q-65 0 -109.5 44t-44.5 108q0 66 44.5 109.5t109.5 43.5t109.5 -43.5t44.5 -109.5q0 -64 -44.5 -108t-109.5 -44zM615 55q36 0 58.5 25t22.5 62t-22.5 62t-58.5 25t-58.5 -25t-22.5 -62t22.5 -62t58.5 -25z" />
    <glyph glyph-name="period.ss02" horiz-adv-x="220" 
d="M110 -10q-26 0 -43 17.5t-17 42.5q0 26 16.5 43t43.5 17t43.5 -17t16.5 -43q0 -25 -17 -42.5t-43 -17.5z" />
    <glyph glyph-name="periodcentered.case" horiz-adv-x="222" 
d="M61 310v99h100v-99h-100z" />
    <glyph glyph-name="periodcentered.case.ss02" horiz-adv-x="242" 
d="M121 293q-26 0 -43 17.5t-17 42.5q0 26 16.5 43t43.5 17t43.5 -17t16.5 -43q0 -25 -17 -42.5t-43 -17.5z" />
    <glyph glyph-name="periodcentered.ss02" horiz-adv-x="242" 
d="M121 231q-26 0 -43 17.5t-17 42.5q0 26 16.5 43t43.5 17t43.5 -17t16.5 -43q0 -25 -17 -42.5t-43 -17.5z" />
    <glyph glyph-name="perthousand.ss07" horiz-adv-x="1175" 
d="M218 325q-65 0 -109.5 44t-44.5 108q0 66 44.5 109.5t109.5 43.5t109.5 -43.5t44.5 -109.5q0 -64 -44.5 -108t-109.5 -44zM149 0l444 620h85l-445 -620h-84zM218 390q36 0 58.5 25t22.5 62t-22.5 62t-58.5 25t-58.5 -25t-22.5 -62t22.5 -62t58.5 -25zM615 -10
q-65 0 -109.5 44t-44.5 108q0 66 44.5 109.5t109.5 43.5t109.5 -43.5t44.5 -109.5q0 -64 -44.5 -108t-109.5 -44zM968 -10q-65 0 -109.5 44t-44.5 108q0 66 44.5 109.5t109.5 43.5t109.5 -43.5t44.5 -109.5q0 -64 -44.5 -108t-109.5 -44zM615 55q36 0 58.5 25t22.5 62
t-22.5 62t-58.5 25t-58.5 -25t-22.5 -62t22.5 -62t58.5 -25zM968 55q36 0 58.5 25t22.5 62t-22.5 62t-58.5 25t-58.5 -25t-22.5 -62t22.5 -62t58.5 -25z" />
    <glyph glyph-name="question.ss02" horiz-adv-x="504" 
d="M257 710q89 0 142.5 -47.5t53.5 -130.5q0 -46 -19 -81t-46 -57.5t-54 -44t-46 -52t-19 -70.5v-34h-82v36q0 50 19 87.5t45.5 60.5t53.5 43t46 47t19 62q0 52 -31 80.5t-81 28.5q-61 0 -95.5 -46t-31.5 -132h-81q-6 116 51 183t156 67zM228 -10q-26 0 -43 17.5t-17 42.5
q0 26 16.5 43t43.5 17t43.5 -17t16.5 -43q0 -25 -17 -42.5t-43 -17.5z" />
    <glyph glyph-name="questiondown.case" horiz-adv-x="493" 
d="M222 598v99h100v-99h-100zM243 -9q-89 0 -142.5 47.5t-53.5 130.5q0 46 19 81t46 57.5t54 44t46 52t19 70.5v34h82v-36q0 -50 -19 -87.5t-45.5 -60.5t-53.5 -43t-46 -47t-19 -62q0 -52 31 -80.5t81 -28.5q61 0 95.5 46t31.5 132h81q6 -116 -51 -183t-156 -67z" />
    <glyph glyph-name="questiondown.case.ss02" horiz-adv-x="493" 
d="M272 588q-26 0 -43 17.5t-17 42.5q0 26 16.5 43t43.5 17t43.5 -17t16.5 -43q0 -25 -17 -42.5t-43 -17.5zM243 -9q-89 0 -142.5 47.5t-53.5 130.5q0 46 19 81t46 57.5t54 44t46 52t19 70.5v34h82v-36q0 -50 -19 -87.5t-45.5 -60.5t-53.5 -43t-46 -47t-19 -62
q0 -52 31 -80.5t81 -28.5q61 0 95.5 46t31.5 132h81q6 -116 -51 -183t-156 -67z" />
    <glyph glyph-name="questiondown.ss02" horiz-adv-x="459" 
d="M265 368q-26 0 -43 17.5t-17 42.5q0 26 16.5 43t43.5 17t43.5 -17t16.5 -43q0 -25 -17 -42.5t-43 -17.5zM236 -229q-89 0 -142.5 47.5t-53.5 130.5q0 46 19 81t46 57.5t54 44t46 52t19 70.5v34h82v-36q0 -50 -19 -87.5t-46 -60.5t-53.5 -43t-45.5 -47t-19 -62
q0 -52 31 -80.5t81 -28.5q61 0 95.5 46t31.5 132h81q6 -116 -51 -183t-156 -67z" />
    <glyph glyph-name="quotedbl.ss02" horiz-adv-x="360" 
d="M79 420l-19 225q-3 31 9 48t34 17t34 -17t9 -48l-20 -225h-47zM233 420l-19 225q-3 31 9 48t34 17t34 -17t9 -48l-20 -225h-47z" />
    <glyph glyph-name="quotedblbase.ss02" horiz-adv-x="369" 
d="M99 115q29 0 45.5 -22.5t16.5 -62.5q0 -58 -30.5 -94.5t-90.5 -46.5v41q25 6 43 22t17 38q-27 0 -42.5 17.5t-15.5 44.5t16 45t41 18zM258 115q29 0 45.5 -22.5t16.5 -62.5q0 -58 -30.5 -94.5t-90.5 -46.5v41q25 6 43 22t17 38q-27 0 -42.5 17.5t-15.5 44.5t16 45t41 18z
" />
    <glyph glyph-name="quotedblleft.ss02" horiz-adv-x="369" 
d="M111 485q-29 0 -45.5 23t-16.5 63q0 57 30.5 93.5t90.5 46.5v-40q-26 -6 -43.5 -22.5t-17.5 -38.5q28 0 43 -17.5t15 -44.5q0 -26 -16 -44.5t-40 -18.5zM270 485q-29 0 -45.5 23t-16.5 63q0 57 30.5 93.5t90.5 46.5v-40q-26 -6 -43.5 -22.5t-17.5 -38.5q28 0 43 -17.5
t15 -44.5q0 -26 -16 -44.5t-40 -18.5z" />
    <glyph glyph-name="quotedblright.ss02" horiz-adv-x="369" 
d="M99 706q29 0 45.5 -22.5t16.5 -62.5q0 -58 -30.5 -94.5t-90.5 -46.5v41q25 6 43 22t17 38q-27 0 -42.5 17.5t-15.5 44.5t16 45t41 18zM258 706q29 0 45.5 -22.5t16.5 -62.5q0 -58 -30.5 -94.5t-90.5 -46.5v41q25 6 43 22t17 38q-27 0 -42.5 17.5t-15.5 44.5t16 45t41 18z
" />
    <glyph glyph-name="quoteleft.ss02" horiz-adv-x="210" 
d="M111 485q-29 0 -45.5 23t-16.5 63q0 57 30.5 93.5t90.5 46.5v-40q-26 -6 -43.5 -22.5t-17.5 -38.5q28 0 43 -17.5t15 -44.5q0 -26 -16 -44.5t-40 -18.5z" />
    <glyph glyph-name="quoteright.ss02" horiz-adv-x="210" 
d="M99 706q29 0 45.5 -22.5t16.5 -62.5q0 -58 -30.5 -94.5t-90.5 -46.5v41q25 6 43 22t17 38q-27 0 -42.5 17.5t-15.5 44.5t16 45t41 18z" />
    <glyph glyph-name="quotesinglbase.ss02" horiz-adv-x="210" 
d="M99 115q29 0 45.5 -22.5t16.5 -62.5q0 -58 -30.5 -94.5t-90.5 -46.5v41q25 6 43 22t17 38q-27 0 -42.5 17.5t-15.5 44.5t16 45t41 18z" />
    <glyph glyph-name="quotesingle.ss02" horiz-adv-x="206" 
d="M79 420l-19 225q-3 31 9 48t34 17t34 -17t9 -48l-20 -225h-47z" />
    <glyph glyph-name="rcommaaccent.ss02" horiz-adv-x="427" 
d="M325 500h64v-72h-62q-168 0 -168 -223v-205h-85v500h85v-124q22 60 61 92t105 32zM113 -60q26 0 41.5 -19.5t15.5 -54.5q0 -49 -28 -81t-84 -39v35q24 5 40 18.5t16 32.5q-27 1 -40.5 16t-13.5 38t15 38.5t38 15.5z" />
    <glyph glyph-name="s.ss03" horiz-adv-x="501" 
d="M364 347q-8 96 -113 96q-46 0 -73.5 -18t-27.5 -54q0 -13 3.5 -24t13 -19t17 -13.5t24.5 -11.5t26 -8.5t31 -8l30 -7.5q78 -20 119.5 -54t41.5 -92q0 -66 -52.5 -104.5t-140.5 -38.5q-90 0 -148 44t-68 138h79q8 -115 139 -115q55 0 82 21.5t27 54.5q0 32 -29.5 51.5
t-97.5 36.5q-33 8 -53.5 14t-47.5 18t-42.5 26t-26.5 36.5t-11 51.5q0 69 53 105.5t133 36.5q84 0 134.5 -42.5t55.5 -119.5h-78z" />
    <glyph glyph-name="sacute.ss03" horiz-adv-x="501" 
d="M289 699h103l-114 -129h-81zM364 347q-8 96 -113 96q-46 0 -73.5 -18t-27.5 -54q0 -13 3.5 -24t13 -19t17 -13.5t24.5 -11.5t26 -8.5t31 -8l30 -7.5q78 -20 119.5 -54t41.5 -92q0 -66 -52.5 -104.5t-140.5 -38.5q-90 0 -148 44t-68 138h79q8 -115 139 -115q55 0 82 21.5
t27 54.5q0 32 -29.5 51.5t-97.5 36.5q-33 8 -53.5 14t-47.5 18t-42.5 26t-26.5 36.5t-11 51.5q0 69 53 105.5t133 36.5q84 0 134.5 -42.5t55.5 -119.5h-78z" />
    <glyph glyph-name="scaron.ss03" horiz-adv-x="501" 
d="M316 688h78l-95 -127h-82l-95 127h78l58 -77zM364 347q-8 96 -113 96q-46 0 -73.5 -18t-27.5 -54q0 -13 3.5 -24t13 -19t17 -13.5t24.5 -11.5t26 -8.5t31 -8l30 -7.5q78 -20 119.5 -54t41.5 -92q0 -66 -52.5 -104.5t-140.5 -38.5q-90 0 -148 44t-68 138h79
q8 -115 139 -115q55 0 82 21.5t27 54.5q0 32 -29.5 51.5t-97.5 36.5q-33 8 -53.5 14t-47.5 18t-42.5 26t-26.5 36.5t-11 51.5q0 69 53 105.5t133 36.5q84 0 134.5 -42.5t55.5 -119.5h-78z" />
    <glyph glyph-name="scedilla.ss03" horiz-adv-x="501" 
d="M456 133q0 -59 -42.5 -96t-115.5 -45q56 -39 56 -94q0 -44 -34.5 -73.5t-95.5 -29.5h-44v57h36q74 0 74 54q0 45 -58 85q-167 16 -185 181h79q8 -115 139 -115q55 0 82 21.5t27 54.5q0 32 -29.5 51.5t-97.5 36.5q-33 8 -53.5 14t-47.5 18t-42.5 26t-26.5 36.5t-11 51.5
q0 69 53 105.5t133 36.5q84 0 134.5 -42.5t55.5 -119.5h-78q-8 96 -113 96q-46 0 -73.5 -18t-27.5 -54q0 -13 3.5 -24t13 -19t17 -13.5t24.5 -11.5t26 -8.5t31 -8l30 -7.5q78 -20 119.5 -54t41.5 -92z" />
    <glyph glyph-name="scircumflex.ss03" horiz-adv-x="501" 
d="M395 561h-78l-58 77l-58 -77h-78l95 127h82zM364 347q-8 96 -113 96q-46 0 -73.5 -18t-27.5 -54q0 -13 3.5 -24t13 -19t17 -13.5t24.5 -11.5t26 -8.5t31 -8l30 -7.5q78 -20 119.5 -54t41.5 -92q0 -66 -52.5 -104.5t-140.5 -38.5q-90 0 -148 44t-68 138h79
q8 -115 139 -115q55 0 82 21.5t27 54.5q0 32 -29.5 51.5t-97.5 36.5q-33 8 -53.5 14t-47.5 18t-42.5 26t-26.5 36.5t-11 51.5q0 69 53 105.5t133 36.5q84 0 134.5 -42.5t55.5 -119.5h-78z" />
    <glyph glyph-name="scommaaccent.ss02" horiz-adv-x="501" 
d="M140 152q9 -96 118 -96q94 0 94 68q0 13 -3.5 24t-13 19t-17 14t-24.5 11.5t-26 8t-30 8t-30 7.5q-79 20 -120 55t-41 95q0 66 52 104.5t140 38.5q90 0 148 -44t69 -138h-79q-4 58 -42.5 86.5t-96.5 28.5q-55 0 -82.5 -21.5t-27.5 -54.5q0 -38 28 -56t100 -36
q39 -9 66 -19t55.5 -27t43.5 -43t15 -60q0 -66 -51.5 -100.5t-130.5 -34.5q-85 0 -136.5 42t-56.5 120h79zM251 -60q26 0 41.5 -19.5t15.5 -54.5q0 -49 -28 -81t-84 -39v35q24 5 40 18.5t16 32.5q-27 1 -40.5 16t-13.5 38t15 38.5t38 15.5z" />
    <glyph glyph-name="scommaaccent.ss03" horiz-adv-x="501" 
d="M295 279q78 -20 119.5 -54t41.5 -92q0 -66 -52.5 -104.5t-140.5 -38.5q-90 0 -148 44t-68 138h79q8 -115 139 -115q55 0 82 21.5t27 54.5q0 32 -29.5 51.5t-97.5 36.5q-33 8 -53.5 14t-47.5 18t-42.5 26t-26.5 36.5t-11 51.5q0 69 53 105.5t133 36.5q84 0 134.5 -42.5
t55.5 -119.5h-78q-8 96 -113 96q-46 0 -73.5 -18t-27.5 -54q0 -13 3.5 -24t13 -19t17 -13.5t24.5 -11.5t26 -8.5t31 -8zM216 -151v87h94v-58q0 -67 -23 -96.5t-83 -37.5v37q32 6 43 21.5t11 46.5h-42z" />
    <glyph glyph-name="scommaaccent.ss03.ss02" horiz-adv-x="501" 
d="M364 347q-8 96 -113 96q-46 0 -73.5 -18t-27.5 -54q0 -13 3.5 -24t13 -19t17 -13.5t24.5 -11.5t26 -8.5t31 -8l30 -7.5q78 -20 119.5 -54t41.5 -92q0 -66 -52.5 -104.5t-140.5 -38.5q-90 0 -148 44t-68 138h79q8 -115 139 -115q55 0 82 21.5t27 54.5q0 32 -29.5 51.5
t-97.5 36.5q-33 8 -53.5 14t-47.5 18t-42.5 26t-26.5 36.5t-11 51.5q0 69 53 105.5t133 36.5q84 0 134.5 -42.5t55.5 -119.5h-78zM258 -60q26 0 41.5 -19.5t15.5 -54.5q0 -49 -28 -81t-84 -39v35q24 5 40 18.5t16 32.5q-27 1 -40.5 16t-13.5 38t15 38.5t38 15.5z" />
    <glyph glyph-name="semicolon.ss02" horiz-adv-x="215" 
d="M105 390q-26 0 -43 17.5t-17 42.5q0 26 16.5 43t43.5 17t43.5 -17t16.5 -43q0 -25 -17 -42.5t-43 -17.5zM101 110q30 0 47 -21.5t17 -60.5q0 -55 -31.5 -90t-93.5 -44v39q26 6 44 21t18 36q-29 1 -44.5 17.5t-15.5 42.5t17 43t42 17z" />
    <glyph glyph-name="seven.dnom" horiz-adv-x="325" 
d="M37 360h260v-38l-165 -322h-68l159 308h-186v52z" />
    <glyph glyph-name="seven.dnom.ss06" horiz-adv-x="325" 
d="M297 360v-38l-165 -322h-68l159 308h-128v-56h-58v108h260z" />
    <glyph glyph-name="seven.numr" horiz-adv-x="325" 
d="M37 700h260v-38l-165 -322h-68l159 308h-186v52z" />
    <glyph glyph-name="seven.numr.ss06" horiz-adv-x="325" 
d="M297 700v-38l-165 -322h-68l159 308h-128v-56h-58v108h260z" />
    <glyph glyph-name="seven.ss06" horiz-adv-x="578" 
d="M528 700v-58l-320 -642h-101l314 623h-285v-112h-83v189h475z" />
    <glyph glyph-name="seven.ss07" horiz-adv-x="546" 
d="M66 620h431v-54l-289 -566h-93l282 549h-331v71z" />
    <glyph glyph-name="seven.ss07.ss06" horiz-adv-x="546" 
d="M497 620v-54l-289 -566h-93l282 549h-253v-104h-78v175h431z" />
    <glyph glyph-name="seven.tf" horiz-adv-x="647" 
d="M75 700h475v-58l-320 -642h-101l314 623h-368v77z" />
    <glyph glyph-name="seven.tf.ss06" horiz-adv-x="578" 
d="M528 700v-58l-320 -642h-101l314 623h-285v-112h-83v189h475z" />
    <glyph glyph-name="seven.tf.ss07" horiz-adv-x="599" 
d="M86 620h431v-54l-289 -566h-93l282 549h-331v71z" />
    <glyph glyph-name="seven.tf.ss07.ss06" horiz-adv-x="599" 
d="M517 620v-54l-289 -566h-93l282 549h-253v-104h-78v175h431z" />
    <glyph glyph-name="seveneighths.ss03" horiz-adv-x="773" 
d="M-3 0l586 700h79l-586 -700h-79zM37 700h260v-38l-165 -322h-68l159 308h-186v52zM652 190q78 -25 78 -93q0 -48 -40 -77.5t-107 -29.5t-107 29.5t-40 77.5q0 68 77 93q-61 24 -61 78q0 44 37.5 70.5t93.5 26.5t93.5 -26.5t37.5 -70.5q0 -55 -62 -78zM583 317
q-33 0 -53 -14.5t-20 -37.5q0 -21 18.5 -35.5t31 -17.5t23.5 -5q72 12 72 58q0 23 -19.5 37.5t-52.5 14.5zM583 39q40 0 63.5 17.5t23.5 45.5q0 24 -21 40t-39 21t-27 5q-6 0 -18.5 -3t-28.5 -10t-28 -21t-12 -33q0 -27 23 -44.5t64 -17.5z" />
    <glyph glyph-name="seveneighths.ss06" horiz-adv-x="789" 
d="M-3 0l586 700h79l-586 -700h-79zM297 700v-38l-165 -322h-68l159 308h-128v-56h-58v108h260zM668 165q62 -23 62 -78q0 -44 -37.5 -70.5t-93.5 -26.5t-93.5 26.5t-37.5 70.5q0 54 61 78q-77 25 -77 93q0 48 40 77.5t107 29.5t107 -29.5t40 -77.5q0 -68 -78 -93zM599 316
q-41 0 -64 -17.5t-23 -44.5q0 -34 33.5 -50.5t53.5 -16.5q9 0 27 5t39 21t21 40q0 28 -23.5 45.5t-63.5 17.5zM526 90q0 -23 20 -37.5t53 -14.5t52.5 14.5t19.5 37.5q0 46 -72 58q-11 -2 -23.5 -5t-31 -17.5t-18.5 -35.5z" />
    <glyph glyph-name="seveneighths.ss06.ss03" horiz-adv-x="773" 
d="M-3 0l586 700h79l-586 -700h-79zM297 700v-38l-165 -322h-68l159 308h-128v-56h-58v108h260zM652 190q78 -25 78 -93q0 -48 -40 -77.5t-107 -29.5t-107 29.5t-40 77.5q0 68 77 93q-61 24 -61 78q0 44 37.5 70.5t93.5 26.5t93.5 -26.5t37.5 -70.5q0 -55 -62 -78zM583 317
q-33 0 -53 -14.5t-20 -37.5q0 -21 18.5 -35.5t31 -17.5t23.5 -5q72 12 72 58q0 23 -19.5 37.5t-52.5 14.5zM583 39q40 0 63.5 17.5t23.5 45.5q0 24 -21 40t-39 21t-27 5q-6 0 -18.5 -3t-28.5 -10t-28 -21t-12 -33q0 -27 23 -44.5t64 -17.5z" />
    <glyph glyph-name="six.dnom" horiz-adv-x="359" 
d="M192 233q53 0 88.5 -33t35.5 -88t-36.5 -88.5t-96.5 -33.5q-66 0 -105 46t-39 137q0 94 40 143t112 49q54 0 89.5 -32.5t40.5 -80.5h-55q-4 25 -22.5 44t-55.5 19q-47 0 -70 -37t-24 -96q33 51 98 51zM183 39q32 0 54.5 19.5t22.5 54.5q0 34 -22.5 53.5t-53.5 19.5
q-32 0 -54 -19.5t-22 -54.5q0 -34 22 -53.5t53 -19.5z" />
    <glyph glyph-name="six.numr" horiz-adv-x="359" 
d="M192 573q53 0 88.5 -33t35.5 -88t-36.5 -88.5t-96.5 -33.5q-66 0 -105 46t-39 137q0 94 40 143t112 49q54 0 89.5 -32.5t40.5 -80.5h-55q-4 25 -22.5 44t-55.5 19q-47 0 -70 -37t-24 -96q33 51 98 51zM183 379q32 0 54.5 19.5t22.5 54.5q0 34 -22.5 53.5t-53.5 19.5
q-32 0 -54 -19.5t-22 -54.5q0 -34 22 -53.5t53 -19.5z" />
    <glyph glyph-name="six.ss07" horiz-adv-x="582" 
d="M306 403q88 0 146 -56.5t58 -151.5q0 -91 -58 -148t-155 -57q-107 0 -169 77.5t-62 230.5q0 161 62.5 246.5t178.5 85.5q88 0 143.5 -54.5t65.5 -135.5h-76q-7 46 -39.5 83t-98.5 37q-81 0 -121 -68.5t-40 -180.5q21 39 63 65.5t102 26.5zM297 58q58 0 97 38t39 101
q0 65 -39.5 102t-95.5 37q-57 0 -97 -37t-40 -101t40 -102t96 -38z" />
    <glyph glyph-name="six.tf" horiz-adv-x="647" 
d="M342 454q97 0 161.5 -63.5t64.5 -169.5q0 -103 -64 -167t-171 -64q-118 0 -186 86.5t-68 258.5q0 181 68.5 278t196.5 97q97 0 158.5 -61.5t71.5 -151.5h-81q-8 52 -44.5 95t-109.5 43q-91 0 -136 -78.5t-44 -207.5q24 45 70 75t113 30zM333 63q65 0 109 44t44 115
q0 74 -44.5 116.5t-107.5 42.5q-64 0 -108.5 -42.5t-44.5 -114.5q0 -74 45 -117.5t107 -43.5z" />
    <glyph glyph-name="six.tf.ss07" horiz-adv-x="599" 
d="M317 403q88 0 146 -56.5t58 -151.5q0 -91 -58 -148t-155 -57q-107 0 -169 77.5t-62 230.5q0 161 62.5 246.5t178.5 85.5q88 0 143.5 -54.5t65.5 -135.5h-76q-7 46 -39.5 83t-98.5 37q-81 0 -121 -68.5t-40 -180.5q21 39 63 65.5t102 26.5zM308 58q58 0 97 38t39 101
q0 65 -39.5 102t-95.5 37q-57 0 -97 -37t-40 -101t40 -102t96 -38z" />
    <glyph glyph-name="sterling.ss07" horiz-adv-x="557" 
d="M252 67h240v-67h-427v55q185 13 185 118q0 34 -22 64h-141v63h80q-72 70 -72 151q0 82 54 130.5t138 48.5t136 -48t59 -147l-74 1q-10 126 -119 126q-55 0 -86.5 -31.5t-31.5 -82.5q0 -14 2.5 -26.5t9 -25t10.5 -20.5t16 -21t16 -18t19 -19.5t18 -17.5h172v-63h-122
q14 -26 14 -57q0 -74 -74 -113z" />
    <glyph glyph-name="tcaron.ss02" horiz-adv-x="377" 
d="M360 710q28 0 44.5 -19.5t16.5 -54.5q0 -49 -30 -81t-89 -39v35q25 5 42 18.5t17 32.5q-28 1 -42.5 16t-14.5 38t16 38.5t40 15.5zM207 169q0 -99 85 -99h57v-70h-75q-70 0 -110.5 42t-40.5 116v276h-95v66h95v118l84 14v-132h123v-66h-123v-265z" />
    <glyph glyph-name="three.dnom" horiz-adv-x="357" 
d="M249 168q56 -21 56 -78q0 -41 -32 -70.5t-91 -29.5q-60 0 -95 32t-39 84h60q3 -34 23 -49.5t49 -15.5q32 0 49 16.5t17 40.5q0 23 -18 37.5t-52 14.5h-31v44h34q37 0 57.5 16t20.5 44q0 29 -21 44.5t-55 15.5q-78 0 -87 -77h-58q5 60 42 93.5t102 33.5q61 0 99 -29
t38 -79q0 -68 -68 -88z" />
    <glyph glyph-name="three.dnom.ss03" horiz-adv-x="357" 
d="M249 186q68 -20 68 -88q0 -50 -38 -79t-99 -29q-65 0 -102 34t-42 93h58q9 -77 87 -77q34 0 55 15.5t21 44.5q0 28 -21 44.5t-57 16.5h-34v43h31q34 0 52 14.5t18 38.5q0 23 -17 39.5t-49 16.5q-29 0 -49 -15.5t-23 -49.5h-60q4 52 39 84t95 32q59 0 91 -29.5t32 -70.5
q0 -57 -56 -78z" />
    <glyph glyph-name="three.numr" horiz-adv-x="357" 
d="M249 508q56 -21 56 -78q0 -41 -32 -70.5t-91 -29.5q-60 0 -95 32t-39 84h60q3 -34 23 -49.5t49 -15.5q32 0 49 16.5t17 40.5q0 23 -18 37.5t-52 14.5h-31v44h34q37 0 57.5 16t20.5 44q0 29 -21 44.5t-55 15.5q-78 0 -87 -77h-58q5 60 42 93.5t102 33.5q61 0 99 -29
t38 -79q0 -68 -68 -88z" />
    <glyph glyph-name="three.numr.ss03" horiz-adv-x="357" 
d="M249 526q68 -20 68 -88q0 -50 -38 -79t-99 -29q-65 0 -102 34t-42 93h58q9 -77 87 -77q34 0 55 15.5t21 44.5q0 28 -21 44.5t-57 16.5h-34v43h31q34 0 52 14.5t18 38.5q0 23 -17 39.5t-49 16.5q-29 0 -49 -15.5t-23 -49.5h-60q4 52 39 84t95 32q59 0 91 -29.5t32 -70.5
q0 -57 -56 -78z" />
    <glyph glyph-name="three.ss03" horiz-adv-x="623" 
d="M428 364q58 -21 92 -64.5t34 -108.5q0 -94 -68.5 -147.5t-174.5 -53.5q-110 0 -176.5 60.5t-76.5 173.5h85q6 -79 53 -119t119 -40q66 0 108.5 33.5t42.5 93.5q0 61 -42 97t-115 36h-64l1 55v14h59q68 0 104.5 31.5t36.5 84.5q0 50 -35.5 87t-99.5 37q-57 0 -98 -33
t-48 -102h-87q9 97 71 154t163 57q102 0 161.5 -57t59.5 -137q0 -55 -28.5 -93.5t-76.5 -58.5z" />
    <glyph glyph-name="three.ss07" horiz-adv-x="568" 
d="M392 297q95 -38 95 -135q0 -71 -53.5 -121.5t-146.5 -50.5q-92 0 -148.5 51.5t-64.5 138.5h82q6 -61 42.5 -90t88.5 -29q57 0 88 32t31 76q0 46 -32 73.5t-94 27.5h-53v63h57q65 0 101 31t36 82q0 55 -38.5 84t-99.5 29q-60 0 -102.5 -35t-48.5 -104h-79q9 100 69.5 155
t157.5 55t160.5 -48.5t63.5 -134.5q0 -111 -112 -150z" />
    <glyph glyph-name="three.ss07.ss03" horiz-adv-x="568" 
d="M392 323q112 -40 112 -151q0 -86 -62 -134t-159 -48q-104 0 -162.5 54t-67.5 156h79q13 -140 155 -140q59 0 96.5 29.5t37.5 83.5q0 52 -36 83t-101 31h-57v63h53q62 0 94 27.5t32 73.5q0 43 -31.5 75.5t-87.5 32.5q-52 0 -88.5 -29t-42.5 -90h-82q8 87 64.5 138.5
t148.5 51.5q93 0 146.5 -50.5t53.5 -121.5q0 -97 -95 -135z" />
    <glyph glyph-name="three.tf" horiz-adv-x="647" 
d="M436 338q49 -21 78.5 -62.5t29.5 -97.5q0 -80 -59 -134t-162 -54q-107 0 -166 55.5t-68 155.5h87q14 -135 148 -135q64 0 98.5 33t34.5 82q0 54 -37 89.5t-105 35.5h-58v17l-1 52h62q74 0 115 35t41 92q0 63 -42 97.5t-108 34.5q-72 0 -119.5 -40.5t-51.5 -117.5h-84
q4 110 72 172t180 62q105 0 173 -54t68 -150q0 -62 -34.5 -105t-91.5 -63z" />
    <glyph glyph-name="three.tf.ss03" horiz-adv-x="647" 
d="M439 364q58 -21 92 -64.5t34 -108.5q0 -94 -68.5 -147.5t-174.5 -53.5q-110 0 -176.5 60.5t-76.5 173.5h85q6 -79 53 -119t119 -40q66 0 108.5 33.5t42.5 93.5q0 61 -42 97t-115 36h-64l1 55v14h59q68 0 104.5 31.5t36.5 84.5q0 50 -35.5 87t-99.5 37q-57 0 -98 -33
t-48 -102h-87q9 97 71 154t163 57q102 0 161.5 -57t59.5 -137q0 -55 -28.5 -93.5t-76.5 -58.5z" />
    <glyph glyph-name="three.tf.ss07" horiz-adv-x="599" 
d="M406 297q95 -38 95 -135q0 -71 -53.5 -121.5t-146.5 -50.5q-92 0 -148.5 51.5t-64.5 138.5h82q6 -61 42.5 -90t88.5 -29q57 0 88 32t31 76q0 46 -32 73.5t-94 27.5h-53v63h57q65 0 101 31t36 82q0 55 -38.5 84t-99.5 29q-60 0 -102.5 -35t-48.5 -104h-79q9 100 69.5 155
t157.5 55t160.5 -48.5t63.5 -134.5q0 -111 -112 -150z" />
    <glyph glyph-name="three.tf.ss07.ss03" horiz-adv-x="599" 
d="M406 323q112 -40 112 -151q0 -86 -62 -134t-159 -48q-104 0 -162.5 54t-67.5 156h79q13 -140 155 -140q59 0 96.5 29.5t37.5 83.5q0 52 -36 83t-101 31h-57v63h53q62 0 94 27.5t32 73.5q0 43 -31.5 75.5t-87.5 32.5q-52 0 -88.5 -29t-42.5 -90h-82q8 87 64.5 138.5
t148.5 51.5q93 0 146.5 -50.5t53.5 -121.5q0 -97 -95 -135z" />
    <glyph glyph-name="threeeighths.ss03" horiz-adv-x="880" 
d="M249 526q68 -20 68 -88q0 -50 -38 -79t-99 -29q-65 0 -102 34t-42 93h58q9 -77 87 -77q34 0 55 15.5t21 44.5q0 28 -21 44.5t-57 16.5h-34v43h31q34 0 52 14.5t18 38.5q0 23 -17 39.5t-49 16.5q-29 0 -49 -15.5t-23 -49.5h-60q4 52 39 84t95 32q59 0 91 -29.5t32 -70.5
q0 -57 -56 -78zM104 0l586 700h79l-586 -700h-79zM759 190q78 -25 78 -93q0 -48 -40 -77.5t-107 -29.5t-107 29.5t-40 77.5q0 68 77 93q-61 24 -61 78q0 44 37.5 70.5t93.5 26.5t93.5 -26.5t37.5 -70.5q0 -55 -62 -78zM690 317q-33 0 -53 -14.5t-20 -37.5q0 -21 18.5 -35.5
t31 -17.5t23.5 -5q72 12 72 58q0 23 -19.5 37.5t-52.5 14.5zM690 39q40 0 63.5 17.5t23.5 45.5q0 24 -21 40t-39 21t-27 5q-6 0 -18.5 -3t-28.5 -10t-28 -21t-12 -33q0 -27 23 -44.5t64 -17.5z" />
    <glyph glyph-name="threequarters.ss03" horiz-adv-x="805" 
d="M249 526q68 -20 68 -88q0 -50 -38 -79t-99 -29q-65 0 -102 34t-42 93h58q9 -77 87 -77q34 0 55 15.5t21 44.5q0 28 -21 44.5t-57 16.5h-34v43h31q34 0 52 14.5t18 38.5q0 23 -17 39.5t-49 16.5q-29 0 -49 -15.5t-23 -49.5h-60q4 52 39 84t95 32q59 0 91 -29.5t32 -70.5
q0 -57 -56 -78zM104 0l586 700h79l-586 -700h-79zM777 122v-49h-58v-73h-58v73h-177v37l159 250h76v-238h58zM550 122h111v181z" />
    <glyph glyph-name="two.dnom" horiz-adv-x="361" 
d="M313 0h-264v38l92 72q54 42 78.5 72t24.5 69q0 27 -16.5 44.5t-43.5 17.5q-36 0 -52 -26t-14 -68h-60q-4 61 28.5 103.5t99.5 42.5q56 0 88 -31.5t32 -82.5q0 -47 -27.5 -84.5t-81.5 -79.5l-47 -37h163v-50z" />
    <glyph glyph-name="two.numr" horiz-adv-x="361" 
d="M313 340h-264v38l92 72q54 42 78.5 72t24.5 69q0 27 -16.5 44.5t-43.5 17.5q-36 0 -52 -26t-14 -68h-60q-4 61 28.5 103.5t99.5 42.5q56 0 88 -31.5t32 -82.5q0 -47 -27.5 -84.5t-81.5 -79.5l-47 -37h163v-50z" />
    <glyph glyph-name="two.ss07" horiz-adv-x="559" 
d="M498 0h-435v54l162 135q90 72 133 126t43 125q0 53 -32 86t-86 33q-66 0 -96.5 -47t-25.5 -122h-82q-7 99 46 169.5t160 70.5q93 0 146 -54t53 -139q0 -82 -49 -148.5t-149 -147.5l-88 -72h300v-69z" />
    <glyph glyph-name="two.tf" horiz-adv-x="647" 
d="M557 0h-482v59l182 154q50 42 77 66.5t59 62t46 75.5t14 81q0 61 -37 99t-98 38q-75 0 -109 -53.5t-28 -138.5h-88q-5 70 16.5 129t76 98.5t134.5 39.5q103 0 161.5 -60t58.5 -156q0 -93 -55 -169t-167 -168l-98 -83h337v-74z" />
    <glyph glyph-name="two.tf.ss07" horiz-adv-x="599" 
d="M510 0h-435v54l162 135q90 72 133 126t43 125q0 53 -32 86t-86 33q-66 0 -96.5 -47t-25.5 -122h-82q-7 99 46 169.5t160 70.5q93 0 146 -54t53 -139q0 -82 -49 -148.5t-149 -147.5l-88 -72h300v-69z" />
    <glyph glyph-name="udieresis.ss02" 
d="M190 568q-23 0 -38 15.5t-15 37.5q0 23 14.5 38t38.5 15t38.5 -15t14.5 -38q0 -22 -15 -37.5t-38 -15.5zM388 568q-23 0 -38 15.5t-15 37.5q0 23 14.5 38t38.5 15t38.5 -15t14.5 -38q0 -22 -15 -37.5t-38 -15.5zM420 500h83v-500h-83v153q-54 -163 -192 -163
q-75 0 -115.5 48t-40.5 144v318h85v-289q0 -78 22 -114.5t72 -36.5q69 0 119 77.5t50 208.5v154z" />
    <glyph glyph-name="uni00AD.case" horiz-adv-x="520" 
d="M61 396h398v-70h-398v70z" />
    <glyph glyph-name="uni00B3.ss03" horiz-adv-x="357" 
d="M249 596q68 -20 68 -88q0 -50 -38 -79t-99 -29q-65 0 -102 34t-42 93h58q9 -77 87 -77q34 0 55 15.5t21 44.5q0 28 -21 44.5t-57 16.5h-34v43h31q34 0 52 14.5t18 38.5q0 23 -17 39.5t-49 16.5q-29 0 -49 -15.5t-23 -49.5h-60q4 52 39 84t95 32q59 0 91 -29.5t32 -70.5
q0 -57 -56 -78z" />
    <glyph glyph-name="uni00B9.ss06" horiz-adv-x="328" 
d="M226 460h74v-50h-245v50h112v194q-45 -31 -124 -34v49q55 3 94.5 27t39.5 74h49v-310z" />
    <glyph glyph-name="uni01CE.ss01" horiz-adv-x="575" 
d="M322 561h-82l-95 127h78l58 -77l58 77h78zM418 500h83v-500h-83v75q-15 -31 -54 -58t-102 -27q-98 0 -155.5 70t-57.5 186q0 120 61.5 192t156.5 72q52 0 92.5 -23.5t58.5 -62.5v76zM275 60q68 0 105.5 50t37.5 142q0 88 -36 137t-103 49q-70 0 -107 -55.5t-37 -141.5
q0 -84 35.5 -132.5t104.5 -48.5z" />
    <glyph glyph-name="uni01CF.ss06" horiz-adv-x="417" 
d="M254 770h-90l-105 140h86l64 -85l63 85h86zM354 700v-78h-100v-544h100v-78h-291v78h100v544h-100v78h291z" />
    <glyph glyph-name="uni021A.ss02" horiz-adv-x="638" 
d="M597 700v-80h-233v-620h-91v620h-232v80h556zM317 -73q29 0 46 -21.5t17 -59.5q0 -54 -31 -88.5t-92 -43.5v39q26 6 43.5 20.5t17.5 35.5q-29 1 -44 17.5t-15 41.5t16.5 42t41.5 17z" />
    <glyph glyph-name="uni021B.ss02" horiz-adv-x="377" 
d="M292 70h57v-70h-75q-70 0 -110.5 42t-40.5 116v276h-95v66h95v118l84 14v-132h123v-66h-123v-265q0 -99 85 -99zM235 -60q26 0 41.5 -19.5t15.5 -54.5q0 -49 -28 -81t-84 -39v35q24 5 40 18.5t16 32.5q-27 1 -40.5 16t-13.5 38t15 38.5t38 15.5z" />
    <glyph glyph-name="uni0226.ss02" horiz-adv-x="664" 
d="M332 781q-29 0 -47 18.5t-18 46.5t18 47t47 19t47 -19t18 -47t-18 -46.5t-47 -18.5zM545 0l-63 177h-301l-63 -177h-94l255 700h106l254 -700h-94zM208 253h247l-123 348z" />
    <glyph glyph-name="uni0227.ss01" horiz-adv-x="575" 
d="M330 680v-92h-98v92h98zM418 500h83v-500h-83v75q-15 -31 -54 -58t-102 -27q-98 0 -155.5 70t-57.5 186q0 120 61.5 192t156.5 72q52 0 92.5 -23.5t58.5 -62.5v76zM275 60q68 0 105.5 50t37.5 142q0 88 -36 137t-103 49q-70 0 -107 -55.5t-37 -141.5q0 -84 35.5 -132.5
t104.5 -48.5z" />
    <glyph glyph-name="uni0227.ss01.ss02" horiz-adv-x="575" 
d="M281 577q-26 0 -42.5 17.5t-16.5 42.5t16.5 42t42.5 17t42.5 -17t16.5 -42t-16.5 -42.5t-42.5 -17.5zM418 500h83v-500h-83v75q-15 -31 -54 -58t-102 -27q-98 0 -155.5 70t-57.5 186q0 120 61.5 192t156.5 72q52 0 92.5 -23.5t58.5 -62.5v76zM275 60q68 0 105.5 50
t37.5 142q0 88 -36 137t-103 49q-70 0 -107 -55.5t-37 -141.5q0 -84 35.5 -132.5t104.5 -48.5z" />
    </font>
</defs>
</svg>
