<?xml version="1.0" standalone="no"?>
<!DOCTYPE svg PUBLIC "-//W3C//DTD SVG 1.1//EN" "http://www.w3.org/Graphics/SVG/1.1/DTD/svg11.dtd" >
<svg xmlns="http://www.w3.org/2000/svg" xmlns:xlink="http://www.w3.org/1999/xlink" version="1.1">
<metadata>
Created by FontForge 20170731 at Tue Jan 24 14:25:49 2017
 By Aleksey,,,
(c) TIGHTYPE 2016
</metadata>
<defs>
<font id="Sneak-RegularItalic" horiz-adv-x="835" >
  <font-face 
    font-family="Sneak"
    font-weight="400"
    font-style="italic"
    font-stretch="normal"
    units-per-em="1000"
    panose-1="0 0 5 0 0 0 0 0 0 0"
    ascent="800"
    descent="-200"
    x-height="500"
    cap-height="700"
    bbox="-310 -286 2232 946"
    underline-thickness="50"
    underline-position="-200"
    slope="-13"
    unicode-range="U+000D-27FC"
  />
<missing-glyph horiz-adv-x="838" 
d="M801 350q0 -150 -105 -255t-255 -105t-255 106t-105 254q0 149 105.5 254.5t254.5 105.5q151 0 255.5 -105.5t104.5 -254.5zM253 533v-45h44v-128h46v128h44v45h-134zM495 533v-45h45v-128h45v128h45v45h-135zM441 81q109 0 187 76t81 183l-46 8q0 -92 -65 -156.5
t-157 -64.5q-91 0 -156 64.5t-65 156.5l-46 -8q3 -107 81 -183t186 -76z" />
    <glyph glyph-name="f_f.liga" unicode="ff" horiz-adv-x="707" 
d="M279 538l-9 -38h125l-16 -66h-124l-100 -434h-85l100 434h-91l15 66h91l12 52q16 72 62 110t113 38h93l-17 -69h-58q-90 0 -111 -93zM717 631q-90 0 -111 -93l-9 -38h125l-16 -66h-124l-100 -434h-85l100 434h-117l15 66h117l12 52q16 72 62 110t113 38h93l-17 -69h-58z
" />
    <glyph glyph-name="f_f_i.liga" unicode="ffi" horiz-adv-x="938" 
d="M279 538l-9 -38h125l-16 -66h-124l-100 -434h-85l100 434h-91l15 66h91l12 52q16 72 62 110t113 38h93l-17 -69h-58q-90 0 -111 -93zM606 538l-9 -38h125l-16 -66h-124l-100 -434h-85l100 434h-117l15 66h117l12 52q16 72 62 110t113 38h93l-17 -69h-58q-90 0 -111 -93z
M871 680h98l-21 -92h-98zM920 500l-115 -500h-85l100 434h-113l15 66h198z" />
    <glyph glyph-name="f_f_j.liga" unicode="ffj" horiz-adv-x="938" 
d="M279 538l-9 -38h125l-16 -66h-124l-100 -434h-85l100 434h-91l15 66h91l12 52q16 72 62 110t113 38h93l-17 -69h-58q-90 0 -111 -93zM606 538l-9 -38h125l-16 -66h-124l-100 -434h-85l100 434h-117l15 66h117l12 52q16 72 62 110t113 38h93l-17 -69h-58q-90 0 -111 -93z
M871 680h98l-21 -92h-98zM920 500l-111 -483l-24 -103q-15 -64 -60 -99t-117 -35h-98l16 70h70q89 0 111 95l14 57l99 432h-113l15 66h198z" />
    <glyph glyph-name="f_f_l.liga" unicode="ffl" horiz-adv-x="948" 
d="M894 710h86l-164 -710h-86l100 434h-123l15 66h123zM279 538l-9 -38h125l-16 -66h-124l-100 -434h-85l100 434h-91l15 66h91l12 52q16 72 62 110t113 38h93l-17 -69h-58q-90 0 -111 -93zM606 538l-9 -38h125l-16 -66h-124l-100 -434h-85l100 434h-117l15 66h117l12 52
q16 72 62 110t113 38h93l-17 -69h-58q-90 0 -111 -93z" />
    <glyph glyph-name="f_i.liga" unicode="fi" horiz-adv-x="615" 
d="M279 538l-9 -38h125l-16 -66h-124l-100 -434h-85l100 434h-91l15 66h91l12 52q16 72 62 110t113 38h93l-17 -69h-58q-90 0 -111 -93zM548 680h98l-21 -92h-98zM597 500l-115 -500h-85l100 434h-117l15 66h202z" />
    <glyph glyph-name="f_j.liga" unicode="fj" horiz-adv-x="610" 
d="M279 538l-9 -38h125l-16 -66h-124l-100 -434h-85l100 434h-91l15 66h91l12 52q16 72 62 110t113 38h93l-17 -69h-58q-90 0 -111 -93zM543 680h98l-21 -92h-98zM592 500l-111 -483l-24 -103q-15 -64 -60 -99t-117 -35h-98l16 70h70q89 0 111 95l14 57l99 432h-112l15 66
h197z" />
    <glyph glyph-name="f_l.liga" unicode="fl" horiz-adv-x="617" 
d="M563 710h86l-164 -710h-86l100 434h-119l15 66h119zM279 538l-9 -38h125l-16 -66h-124l-100 -434h-85l100 434h-91l15 66h91l12 52q16 72 62 110t113 38h93l-17 -69h-58q-90 0 -111 -93z" />
    <glyph glyph-name=".notdef" horiz-adv-x="838" 
d="M801 350q0 -150 -105 -255t-255 -105t-255 106t-105 254q0 149 105.5 254.5t254.5 105.5q151 0 255.5 -105.5t104.5 -254.5zM253 533v-45h44v-128h46v128h44v45h-134zM495 533v-45h45v-128h45v128h45v45h-135zM441 81q109 0 187 76t81 183l-46 8q0 -92 -65 -156.5
t-157 -64.5q-91 0 -156 64.5t-65 156.5l-46 -8q3 -107 81 -183t186 -76z" />
    <glyph glyph-name=".null" horiz-adv-x="0" 
 />
    <glyph glyph-name="nonmarkingreturn" horiz-adv-x="333" 
 />
    <glyph glyph-name="NULL" horiz-adv-x="0" 
 />
    <glyph glyph-name="NULL" horiz-adv-x="0" 
 />
    <glyph glyph-name="CR" unicode="&#xd;" horiz-adv-x="250" 
 />
    <glyph glyph-name="space" unicode=" " horiz-adv-x="260" 
 />
    <glyph glyph-name="exclam" unicode="!" horiz-adv-x="200" 
d="M157 700h94l-131 -507h-65zM-9 0l23 99h101l-22 -99h-102z" />
    <glyph glyph-name="quotedbl" unicode="&#x22;" horiz-adv-x="354" 
d="M111 420l52 280h82l-78 -280h-56zM265 420l52 280h82l-78 -280h-56z" />
    <glyph glyph-name="numbersign" unicode="#" horiz-adv-x="689" 
d="M660 397h-101l-73 -174h107l-15 -66h-119l-65 -157h-77l65 157h-175l-65 -157h-77l65 157h-88l15 66h100l73 174h-106l15 66h118l65 157h77l-65 -157h175l65 157h77l-65 -157h89zM409 223l73 174h-175l-73 -174h175z" />
    <glyph glyph-name="dollar" unicode="$" horiz-adv-x="582" 
d="M422 697q87 -16 127 -76.5t24 -148.5h-81q9 63 -14 102.5t-72 51.5l-65 -282q66 -34 98 -71t32 -99q0 -84 -58 -131.5t-153 -52.5l-21 -90h-75l22 94q-84 14 -116 68.5t-21 132.5h81q-13 -107 73 -127l51 224l-1 1q-80 37 -116 80t-36 107q0 95 68.5 156.5t179.5 65.5
l20 88h75zM188 488q0 -41 21.5 -66t64.5 -46l58 253q-62 -8 -103 -46t-41 -95zM384 167q0 58 -62 94l-45 -196q49 6 78 31.5t29 70.5z" />
    <glyph glyph-name="percent" unicode="%" horiz-adv-x="816" 
d="M263 405q-58 0 -95.5 37t-37.5 93q0 71 56 123t128 52q59 0 96.5 -37t37.5 -94q0 -70 -56.5 -122t-128.5 -52zM60 0l657 700h89l-657 -700h-89zM270 470q41 0 72 31.5t31 74.5q0 30 -17 49t-48 19q-41 0 -72 -31.5t-31 -73.5q0 -30 17 -49.5t48 -19.5zM548 -10
q-58 0 -95.5 37t-37.5 93q0 71 56 123t128 52q59 0 96.5 -37t37.5 -94q0 -70 -56.5 -122t-128.5 -52zM555 55q41 0 72 31.5t31 74.5q0 30 -17 49t-48 19q-41 0 -72 -31.5t-31 -73.5q0 -30 17 -49.5t48 -19.5z" />
    <glyph glyph-name="ampersand" unicode="&#x26;" horiz-adv-x="638" 
d="M583 68h40l-16 -68h-41q-78 0 -136 63q-90 -73 -213 -73q-94 0 -150.5 44.5t-56.5 120.5q0 68 48.5 118.5t142.5 93.5q-56 82 -56 147q0 82 63.5 139t154.5 57q75 0 119.5 -39.5t44.5 -105.5q0 -40 -16.5 -74t-48.5 -61t-64.5 -46t-77.5 -40l14 -18l105 -143
q42 62 70 184h75q-36 -162 -98 -246q44 -53 97 -53zM359 643q-56 0 -95 -40.5t-39 -91.5q0 -46 51 -112q36 15 61 28t52.5 32.5t42 44.5t14.5 55q0 38 -23.5 61t-63.5 23zM95 160q0 -48 35 -74.5t92 -26.5q89 0 162 63l-111 150q-20 26 -29 39q-70 -30 -109.5 -63.5
t-39.5 -87.5z" />
    <glyph glyph-name="quotesingle" unicode="'" horiz-adv-x="200" 
d="M111 420l52 280h82l-78 -280h-56z" />
    <glyph glyph-name="parenleft" unicode="(" horiz-adv-x="287" 
d="M362 804l40 -45q-269 -267 -269 -572q0 -169 63 -318l-54 -33q-88 178 -88 363q0 91 24.5 179t58 151t80 122.5t79 92t66.5 60.5z" />
    <glyph glyph-name="parenright" unicode=")" horiz-adv-x="291" 
d="M-42 -164l-40 45q269 267 269 572q0 169 -63 318l54 33q88 -178 88 -363q0 -91 -24.5 -179t-58 -151t-80 -122.5t-79 -92t-66.5 -60.5z" />
    <glyph glyph-name="asterisk" unicode="*" horiz-adv-x="402" 
d="M431 561l-123 -34l79 -99l-48 -35l-70 107l-70 -107l-48 35l80 99l-123 34l18 57l119 -45l-6 127h60l-6 -127l120 45z" />
    <glyph glyph-name="plus" unicode="+" horiz-adv-x="585" 
d="M531 279l-16 -69h-191l-49 -210h-79l49 210h-193l16 69h193l46 201h79l-46 -201h191z" />
    <glyph glyph-name="comma" unicode="," horiz-adv-x="203" 
d="M14 99h105l-15 -66q-19 -83 -50.5 -114t-101.5 -39l11 44q35 4 51 21t25 55h-48z" />
    <glyph glyph-name="hyphen" unicode="-" horiz-adv-x="520" 
d="M80 331h398l-16 -70h-398z" />
    <glyph glyph-name="period" unicode="." horiz-adv-x="200" 
d="M-9 0l23 99h101l-22 -99h-102z" />
    <glyph glyph-name="slash" unicode="/" horiz-adv-x="458" 
d="M-54 -50l529 800h84l-529 -800h-84z" />
    <glyph glyph-name="zero" unicode="0" horiz-adv-x="643" 
d="M281 -10q-111 0 -164.5 74t-53.5 189q0 74 21.5 151.5t62 147t108 114t150.5 44.5q76 0 126.5 -38t71 -95t20.5 -130q0 -74 -21.5 -151.5t-61.5 -147t-108 -114t-151 -44.5zM284 67q69 0 126.5 53.5t89.5 140t32 182.5q0 191 -129 191q-103 0 -175 -113.5t-72 -262.5
q0 -191 128 -191z" />
    <glyph glyph-name="one" unicode="1" horiz-adv-x="473" 
d="M486 700l-162 -700h-89l114 493q-93 -61 -252 -67l17 76q47 2 91 12.5t87 32t74.5 61t44.5 92.5h75z" />
    <glyph glyph-name="two" unicode="2" horiz-adv-x="617" 
d="M485 0h-482l14 59l217 154q130 90 175 134q91 87 91 176q0 52 -29 82t-82 30q-73 0 -118 -53t-59 -139h-89q20 116 84.5 191.5t182.5 75.5q96 0 147.5 -51.5t51.5 -134.5q0 -52 -20.5 -99t-65.5 -93.5t-92 -84.5t-122 -90l-118 -83h331z" />
    <glyph glyph-name="three" unicode="3" horiz-adv-x="623" 
d="M618 529q0 -70 -49 -121t-126 -72q78 -41 78 -136q0 -86 -66 -148t-184 -62q-114 0 -166.5 58.5t-38.5 152.5h88q-19 -135 118 -135q75 0 118 38.5t43 97.5q0 47 -29 75.5t-87 28.5h-59l4 17l12 52h61q86 0 139.5 43t53.5 105q0 51 -36 81t-94 30q-67 0 -124 -40.5
t-79 -117.5h-85q27 107 105 170.5t183 63.5q94 0 157 -49.5t63 -131.5z" />
    <glyph glyph-name="four" unicode="4" horiz-adv-x="625" 
d="M579 700l-112 -482h112l-18 -73h-110l-34 -145h-84l34 145h-339l14 57l419 498h118zM149 218h234l91 393z" />
    <glyph glyph-name="five" unicode="5" horiz-adv-x="621" 
d="M595 624h-295l-83 -213q51 34 120 34q96 0 152.5 -56.5t56.5 -146.5q0 -108 -80 -180t-199 -72q-110 0 -169.5 63t-45.5 159h85q-7 -62 27 -104.5t108 -42.5q82 0 134.5 50.5t52.5 128.5q0 62 -36.5 95.5t-104.5 33.5q-27 0 -52 -5.5t-41.5 -13.5t-28.5 -16t-19 -14
t-8 -6l-58 34l132 348h370z" />
    <glyph glyph-name="six" unicode="6" horiz-adv-x="640" 
d="M628 497h-81q1 22 -3 43t-15.5 44t-38 37t-64.5 14q-92 0 -155.5 -77t-93.5 -205q31 44 81.5 71.5t113.5 27.5q91 0 142.5 -56t51.5 -139q0 -108 -81.5 -187.5t-199.5 -79.5q-126 0 -176.5 97t-10.5 271q40 175 125 263.5t204 88.5q106 0 158 -62.5t43 -150.5zM360 381
q-75 0 -134 -53.5t-59 -136.5q0 -61 33.5 -94.5t87.5 -33.5q74 0 134 55.5t60 137.5q0 59 -34 92t-88 33z" />
    <glyph glyph-name="seven" unicode="7" horiz-adv-x="578" 
d="M157 700h475l-14 -58l-468 -642h-108l458 623h-361z" />
    <glyph glyph-name="eight" unicode="8" horiz-adv-x="639" 
d="M637 527q0 -83 -57.5 -133.5t-141.5 -71.5q95 -45 95 -136q0 -86 -78 -141t-180 -55q-90 0 -148.5 45t-58.5 118q0 66 48 109t117 64q-114 43 -114 155q0 98 83 162.5t206 64.5q104 0 166.5 -48.5t62.5 -132.5zM344 359q8 1 21.5 3.5t48.5 14.5t61.5 28t48.5 47.5
t22 70.5q0 51 -35.5 82t-103.5 31q-87 0 -142.5 -46.5t-55.5 -108.5q0 -29 14 -52.5t33.5 -36t39.5 -20.5t34 -10zM277 62q72 0 120 38.5t48 90.5q0 24 -12 43.5t-29 30t-34 17.5t-29 9l-12 2q-7 -1 -18.5 -3t-40.5 -12.5t-51.5 -24t-41 -39.5t-18.5 -58q0 -43 31 -68.5
t87 -25.5z" />
    <glyph glyph-name="nine" unicode="9" horiz-adv-x="629" 
d="M396 710q126 0 176.5 -97t10.5 -271q-40 -175 -125 -263.5t-204 -88.5q-106 0 -158 62.5t-43 150.5h81q-1 -22 3 -43t15.5 -44t38 -37t64.5 -14q92 0 155.5 77t93.5 205q-31 -44 -81.5 -71.5t-113.5 -27.5q-91 0 -142.5 56t-51.5 139q0 108 81.5 187.5t199.5 79.5z
M321 319q75 0 134 53.5t59 136.5q0 61 -34 94.5t-87 33.5q-74 0 -134 -55.5t-60 -137.5q0 -59 34 -92t88 -33z" />
    <glyph glyph-name="colon" unicode=":" horiz-adv-x="200" 
d="M84 401l23 99h101l-22 -99h-102zM-9 0l23 99h101l-22 -99h-102z" />
    <glyph glyph-name="semicolon" unicode=";" horiz-adv-x="204" 
d="M111 500h101l-22 -99h-102zM-9 0l23 99h105l-15 -66q-19 -83 -50.5 -114t-101.5 -39l11 44q35 4 51 21t25 55h-48z" />
    <glyph glyph-name="less" unicode="&#x3c;" horiz-adv-x="586" 
d="M107 277l445 213l-21 -96l-342 -160l269 -160l-21 -84l-348 213z" />
    <glyph glyph-name="equal" unicode="=" horiz-adv-x="589" 
d="M96 384h463l-16 -69h-463zM43 172h463l-16 -69h-463z" />
    <glyph glyph-name="greater" unicode="&#x3e;" horiz-adv-x="574" 
d="M474 203l-445 -213l21 96l342 160l-269 160l21 84l348 -213z" />
    <glyph glyph-name="question" unicode="?" horiz-adv-x="504" 
d="M349 710q80 0 127 -39.5t47 -114.5q0 -51 -23.5 -89.5t-58.5 -63t-71.5 -48t-67.5 -58.5t-41 -79l-6 -25h-81l8 36q12 54 43 94t66.5 63.5t69 45t55.5 51t22 68.5q0 87 -93 87q-130 0 -166 -178h-81q24 126 88.5 188t162.5 62zM119 0l23 99h101l-22 -99h-102z" />
    <glyph glyph-name="at" unicode="@" horiz-adv-x="999" 
d="M575 710q169 0 276 -100t107 -266q0 -133 -67 -227t-169 -94q-45 0 -76.5 20t-42.5 59q-60 -79 -163 -79q-81 0 -127.5 53.5t-46.5 139.5q0 112 74 199.5t179 87.5t133 -88l18 78h75l-64 -280q-30 -125 50 -125q66 0 108.5 76.5t42.5 177.5q0 136 -81.5 219t-221.5 83
q-116 0 -219 -55t-168 -157.5t-65 -228.5q0 -140 80.5 -223.5t224.5 -83.5q115 0 195 58l37 -52q-99 -72 -243 -72q-166 0 -268 100.5t-102 272.5q0 146 76 264t195 180.5t253 62.5zM456 88q54 0 92.5 35t54.5 84t16 104q0 127 -96 127q-76 0 -128 -71t-52 -152
q0 -53 27 -90t86 -37z" />
    <glyph glyph-name="A" unicode="A" horiz-adv-x="664" 
d="M491 0l-21 177h-303l-105 -177h-96l417 700h106l92 -700h-90zM212 253h248l-42 349z" />
    <glyph glyph-name="B" unicode="B" horiz-adv-x="631" 
d="M649 538q0 -69 -48.5 -121.5t-150.5 -70.5q103 -37 103 -149q0 -87 -65 -142t-193 -55h-181h-89l162 700h89h187q92 0 139 -46t47 -116zM386 389q76 0 124 37t48 98q0 46 -28.5 72.5t-84.5 26.5h-187l-54 -234h182zM300 78q85 0 123.5 35.5t38.5 91.5q0 52 -32.5 80.5
t-90.5 28.5h-152l-55 -236h168z" />
    <glyph glyph-name="C" unicode="C" horiz-adv-x="739" 
d="M678 242q-40 -130 -130 -191t-206 -61q-130 0 -201.5 73.5t-73.5 206.5q-2 116 48.5 216.5t145.5 162t214 61.5q125 0 191.5 -66.5t58.5 -172.5h-90q4 72 -39 116t-129 44q-92 0 -164 -51.5t-108.5 -131t-36.5 -169.5q0 -100 49.5 -155.5t147.5 -55.5q162 0 233 174h90z
" />
    <glyph glyph-name="D" unicode="D" horiz-adv-x="703" 
d="M394 700q136 0 209.5 -79t73.5 -211q0 -59 -14 -115t-46.5 -110t-80 -95t-120.5 -65.5t-161 -24.5h-230l162 700h207zM253 78q77 0 137.5 24t95.5 59.5t57.5 83t30.5 89t8 82.5q0 206 -210 206h-113l-126 -544h120z" />
    <glyph glyph-name="E" unicode="E" horiz-adv-x="584" 
d="M601 620h-342l-52 -227h322l-18 -76h-322l-54 -237h341l-18 -80h-433l162 700h433z" />
    <glyph glyph-name="F" unicode="F" horiz-adv-x="557" 
d="M580 620h-321l-53 -231h310l-18 -79h-310l-72 -310h-91l162 700h412z" />
    <glyph glyph-name="G" unicode="G" horiz-adv-x="760" 
d="M730 466h-89q9 80 -30.5 123.5t-123.5 43.5q-138 0 -234 -105.5t-96 -250.5q0 -95 48.5 -152t152.5 -57q200 0 249 214h-244l16 73h328l-3 -14l-1 -5l-12 -54h-1l-65 -282h-61l18 115q-85 -124 -242 -125q-129 -1 -200.5 74t-73.5 205q-2 116 50.5 217t150.5 162.5
t219 61.5q129 0 195 -68t49 -176z" />
    <glyph glyph-name="H" unicode="H" horiz-adv-x="723" 
d="M651 700h93l-162 -700h-93l73 316h-372l-73 -316h-92l162 700h92l-71 -305h372z" />
    <glyph glyph-name="I" unicode="I" horiz-adv-x="257" 
d="M116 0h-91l162 700h91z" />
    <glyph glyph-name="J" unicode="J" horiz-adv-x="637" 
d="M569 700h91l-106 -456q-29 -124 -104 -189t-191 -65q-122 0 -176.5 69.5t-26.5 195.5l7 32h88l-7 -32q-20 -91 11.5 -138.5t107.5 -47.5q159 0 206 201z" />
    <glyph glyph-name="K" unicode="K" horiz-adv-x="610" 
d="M676 700l-355 -320l211 -380h-101l-178 318l-81 -74l-57 -244h-90l162 700h90l-74 -318l352 318h121z" />
    <glyph glyph-name="L" unicode="L" horiz-adv-x="580" 
d="M137 81h355l-18 -81h-449l162 700h93z" />
    <glyph glyph-name="M" unicode="M" horiz-adv-x="877" 
d="M898 700l-162 -700h-88l136 590l-355 -590h-98l-81 591l-137 -591h-88l162 700h125l85 -613l364 613h137z" />
    <glyph glyph-name="N" unicode="N" horiz-adv-x="728" 
d="M661 700h88l-162 -700h-108l-226 601l-139 -601h-89l162 700h110l225 -601z" />
    <glyph glyph-name="O" unicode="O" horiz-adv-x="780" 
d="M345 -10q-136 0 -206.5 77.5t-70.5 213.5q0 184 116.5 306.5t293.5 122.5q136 0 206.5 -78t70.5 -214q0 -182 -116.5 -305t-293.5 -123zM351 69q130 0 219 103t89 248q0 100 -47.5 155.5t-139.5 55.5q-130 0 -219 -102.5t-89 -248.5q0 -101 48 -156t139 -55z" />
    <glyph glyph-name="P" unicode="P" horiz-adv-x="590" 
d="M397 700q109 0 161.5 -60t52.5 -149q0 -107 -74 -177.5t-210 -70.5h-156l-56 -243h-90l162 700h90h120zM334 320q90 0 137.5 49t47.5 122q0 58 -30.5 94.5t-95.5 36.5h-134l-70 -302h145z" />
    <glyph glyph-name="Q" unicode="Q" horiz-adv-x="780" 
d="M755 418q0 -184 -118 -307l84 -111h-91l-48 64q-104 -74 -237 -74q-136 0 -206.5 77.5t-70.5 213.5q0 184 116.5 306.5t293.5 122.5q136 0 206.5 -78t70.5 -214zM351 69q97 0 178 63l-136 179l57 45l131 -171q78 99 78 235q0 100 -47.5 155.5t-139.5 55.5
q-130 0 -219 -102.5t-89 -248.5q0 -101 48 -156t139 -55z" />
    <glyph glyph-name="R" unicode="R" horiz-adv-x="636" 
d="M623 510q0 -76 -48.5 -132.5t-153.5 -75.5q85 -31 98 -138l19 -164h-94l-16 159q-3 24 -10 42t-15.5 30.5t-27 20.5t-33 12.5t-46 6.5t-53.5 2.5t-66 0.5l-63 -274h-89l162 700h220q112 0 164 -54.5t52 -135.5zM355 351q89 0 132.5 44t43.5 107q0 50 -29 84t-90 34h-155
l-62 -269h160z" />
    <glyph glyph-name="S" unicode="S" horiz-adv-x="640" 
d="M145 207q-8 -71 23.5 -105t105.5 -34q77 0 118 33.5t41 85.5q0 45 -33 66.5t-130 52.5q-86 27 -127.5 69t-41.5 108q0 100 84 163.5t205 63.5q122 0 189 -66.5t50 -180.5h-89q9 78 -27 123t-122 45q-83 0 -140 -39t-57 -105q0 -48 33.5 -71.5t119.5 -51.5
q38 -11 62.5 -21t55 -30t46 -51t15.5 -73q0 -88 -69 -143.5t-184 -55.5q-116 0 -173.5 58.5t-43.5 158.5h89z" />
    <glyph glyph-name="T" unicode="T" horiz-adv-x="638" 
d="M701 700l-19 -80h-233l-143 -620h-91l143 620h-232l19 80h556z" />
    <glyph glyph-name="U" unicode="U" horiz-adv-x="715" 
d="M184 700h91l-92 -399q-54 -232 133 -232q184 0 239 232l92 399h91l-96 -415q-32 -141 -116 -220t-223 -75q-134 4 -190 83.5t-21 226.5z" />
    <glyph glyph-name="V" unicode="V" horiz-adv-x="689" 
d="M654 700h108l-422 -700h-107l-98 700h96l74 -599z" />
    <glyph glyph-name="W" unicode="W" horiz-adv-x="998" 
d="M963 700h96l-327 -700h-95l-50 615l-336 -615h-102l-3 700h88l-7 -590l322 590h106l48 -581z" />
    <glyph glyph-name="X" unicode="X" horiz-adv-x="655" 
d="M711 700l-304 -340l162 -360h-102l-128 283l-253 -283h-116l330 370l-149 330h103l114 -254l227 254h116z" />
    <glyph glyph-name="Y" unicode="Y" horiz-adv-x="653" 
d="M610 700h110l-503 -700h-108l198 272l-177 428h100l139 -343z" />
    <glyph glyph-name="Z" unicode="Z" horiz-adv-x="631" 
d="M657 700l-14 -61l-498 -559h383l-18 -80h-513l14 61l496 559h-348l19 80h479z" />
    <glyph glyph-name="bracketleft" unicode="[" horiz-adv-x="298" 
d="M408 727h-136l-187 -810h136l-16 -69h-215l219 948h215z" />
    <glyph glyph-name="backslash" unicode="\" horiz-adv-x="446" 
d="M363 -50h-74l-159 800h74z" />
    <glyph glyph-name="bracketright" unicode="]" horiz-adv-x="298" 
d="M341 796l-219 -948h-215l16 69h136l187 810h-136l16 69h215z" />
    <glyph glyph-name="asciicircum" unicode="^" horiz-adv-x="584" 
d="M436 700l121 -379h-90l-88 281l-219 -280h-101l297 378h80z" />
    <glyph glyph-name="underscore" unicode="_" horiz-adv-x="505" 
d="M-16 19h398l-16 -70h-398z" />
    <glyph glyph-name="grave" unicode="`" horiz-adv-x="411" 
d="M303 699l67 -129h-75l-90 129h98z" />
    <glyph glyph-name="a" unicode="a" horiz-adv-x="580" 
d="M480 500h83l-115 -500h-83l14 60q-68 -70 -169 -70q-82 0 -128 52t-46 146q0 134 83.5 228t193.5 94q112 0 147 -97zM233 60q86 0 139.5 72t53.5 172q0 134 -107 134q-59 0 -105 -39t-68.5 -95t-22.5 -116q0 -128 110 -128z" />
    <glyph glyph-name="b" unicode="b" horiz-adv-x="577" 
d="M357 510q80 0 130 -58t50 -158q0 -129 -78.5 -216.5t-188.5 -87.5q-112 0 -149 99l-21 -89h-84l164 710h84l-65 -280q60 80 158 80zM267 59q80 0 132 68.5t52 166.5q0 63 -26 104t-84 41q-80 0 -133.5 -75t-53.5 -170q0 -67 30 -101t83 -34z" />
    <glyph glyph-name="c" unicode="c" horiz-adv-x="563" 
d="M437 323q4 55 -26.5 86t-85.5 31q-87 0 -144.5 -72t-57.5 -166q0 -65 32 -104t94 -39q109 0 155 110h86q-69 -179 -242 -179q-99 0 -154.5 56t-55.5 152q0 122 80.5 216.5t204.5 94.5q93 0 149.5 -53t46.5 -133h-82z" />
    <glyph glyph-name="d" unicode="d" horiz-adv-x="577" 
d="M526 710h83l-164 -710h-83l16 70q-64 -80 -168 -80q-82 0 -127.5 54.5t-45.5 145.5q0 129 80.5 224.5t187.5 95.5q58 0 98.5 -30t52.5 -71zM232 59q83 0 136.5 73t53.5 169q0 66 -29 102t-83 36q-56 0 -100.5 -39t-65.5 -95t-21 -115q0 -62 27 -96.5t82 -34.5z" />
    <glyph glyph-name="e" unicode="e" horiz-adv-x="563" 
d="M322 509q108 0 155.5 -72.5t25.5 -190.5q-1 -5 -2 -8.5t-1.5 -5t-0.5 -2.5v-2h-374q-1 -9 -1 -27q0 -67 33 -105t98 -38q103 0 148 103h82q-28 -81 -87 -126t-147 -45q-103 0 -157.5 59t-54.5 155q0 121 79.5 213t203.5 92zM138 290h291q8 67 -17 109.5t-91 42.5
q-67 0 -114.5 -43t-68.5 -109z" />
    <glyph glyph-name="f" unicode="f" horiz-adv-x="380" 
d="M390 631q-90 0 -111 -93l-9 -38h125l-16 -66h-124l-100 -434h-85l100 434h-91l15 66h91l12 52q16 72 62 110t113 38h93l-17 -69h-58z" />
    <glyph glyph-name="g" unicode="g" horiz-adv-x="574" 
d="M475 500h82l-102 -442l-14 -62q-26 -115 -89 -170.5t-169 -55.5q-112 0 -157 53.5t-32 130.5h78q-6 -49 18 -82t93 -33q78 0 119 44t59 123l12 52l2 8q-63 -76 -165 -76q-80 0 -127 52t-47 146q0 130 82.5 226t191.5 96q53 0 92 -26t53 -71zM232 59q85 0 136.5 72.5
t51.5 173.5q0 133 -105 133q-87 0 -140 -77t-53 -172q0 -130 110 -130z" />
    <glyph glyph-name="h" unicode="h" horiz-adv-x="578" 
d="M401 510q75 0 108 -51.5t11 -145.5l-72 -313h-85l66 284q20 80 5.5 118t-67.5 38q-66 0 -133 -77.5t-97 -208.5l10 47l-46 -201h-84l115 500h1l49 210h84l-49 -210h-1l-34 -148q93 158 219 158z" />
    <glyph glyph-name="i" unicode="i" horiz-adv-x="234" 
d="M147 588l21 92h98l-21 -92h-98zM102 0h-85l115 500h85z" />
    <glyph glyph-name="j" unicode="j" horiz-adv-x="234" 
d="M168 680h98l-21 -92h-98zM132 500h85l-111 -483l-24 -103q-15 -64 -60 -99t-117 -35h-98l16 70h70q89 0 111 95l14 57z" />
    <glyph glyph-name="k" unicode="k" horiz-adv-x="505" 
d="M533 500l-261 -221l158 -279h-90l-128 227l-78 -65l-37 -162h-81l164 710h81l-100 -431l263 221h109z" />
    <glyph glyph-name="l" unicode="l" horiz-adv-x="234" 
d="M102 0h-86l164 710h86z" />
    <glyph glyph-name="m" unicode="m" horiz-adv-x="871" 
d="M694 509q74 0 107 -53.5t10 -151.5l-71 -304h-83l69 294q33 142 -60 142q-66 0 -120.5 -66.5t-80.5 -176.5v1l-45 -194h-82l65 279q19 83 4.5 120t-62.5 37q-62 0 -114 -58.5t-81 -165.5l-49 -212h-84l115 500h84l-27 -118q71 127 185 127q58 0 91 -35.5t32 -105.5
q76 141 197 141z" />
    <glyph glyph-name="n" unicode="n" horiz-adv-x="578" 
d="M401 510q75 0 108 -51.5t11 -145.5l-72 -313h-85l66 284q20 80 5.5 118t-67.5 38q-66 0 -133 -77.5t-97 -208.5l10 47l-46 -201h-84l115 500h84l-34 -148q93 158 219 158z" />
    <glyph glyph-name="o" unicode="o" horiz-adv-x="575" 
d="M244 -10q-99 0 -152 58t-53 155q0 128 85.5 217t210.5 89q98 0 149.5 -58t51.5 -155q0 -130 -83.5 -218t-208.5 -88zM248 58q87 0 145 73.5t58 167.5q0 65 -30.5 103t-92.5 38q-87 0 -145 -72.5t-58 -167.5q0 -65 30.5 -103.5t92.5 -38.5z" />
    <glyph glyph-name="p" unicode="p" horiz-adv-x="579" 
d="M363 510q79 0 127 -58.5t48 -157.5q0 -126 -74 -215t-184 -89q-61 0 -103.5 28t-56.5 66l-70 -304h-84l166 720h84l-16 -67q29 36 73 56.5t90 20.5zM269 59q85 0 134 69.5t49 166.5q0 144 -113 144q-81 0 -132 -70.5t-51 -170.5q0 -139 113 -139z" />
    <glyph glyph-name="q" unicode="q" horiz-adv-x="577" 
d="M476 500h84l-166 -720h-84l64 279q-61 -69 -160 -69q-85 0 -131 52.5t-46 146.5q0 132 81 226.5t190 94.5q54 0 94 -25.5t55 -67.5zM236 59q64 0 109 41.5t64 110.5l6 25q6 32 6 65q0 138 -105 138q-86 0 -140 -77.5t-54 -172.5q0 -130 114 -130z" />
    <glyph glyph-name="r" unicode="r" horiz-adv-x="427" 
d="M369 500h78l-16 -72h-66q-79 0 -132 -47.5t-83 -175.5l5 24l-53 -229h-85l115 500h85l-24 -106q58 109 176 106z" />
    <glyph glyph-name="s" unicode="s" horiz-adv-x="501" 
d="M117 152q-7 -47 18 -71.5t80 -24.5q51 0 80.5 20t29.5 57q0 16 -5 27t-20 20t-24 13t-37 13t-39 13q-65 21 -98 50t-33 80q0 72 62 116t153 44t145.5 -46.5t43.5 -135.5h-78q9 58 -23 86.5t-92 28.5q-61 0 -94.5 -26.5t-33.5 -64.5q0 -20 13 -34t30.5 -21.5t59.5 -21.5
q4 -1 6 -2q34 -11 55.5 -20.5t45.5 -25.5t36 -39t12 -53q0 -68 -57.5 -106t-139.5 -38q-90 0 -138 46t-37 116h79z" />
    <glyph glyph-name="t" unicode="t" horiz-adv-x="377" 
d="M249 434l-60 -263q-12 -52 3.5 -76.5t61.5 -24.5h53l-16 -70h-53q-84 0 -118 45.5t-16 124.5l61 264h-95l15 66h95l27 118l88 14l-30 -132h122l-15 -66h-123z" />
    <glyph glyph-name="u" unicode="u" horiz-adv-x="577" 
d="M477 500h83l-115 -500h-83l32 138q-89 -148 -213 -148q-77 0 -111.5 49.5t-12.5 145.5l72 315h85l-66 -289q-18 -78 -3.5 -114.5t64.5 -36.5q74 0 137.5 75.5t94.5 210.5l-4 -18z" />
    <glyph glyph-name="v" unicode="v" horiz-adv-x="541" 
d="M480 501h98l-316 -501h-99l-84 501h87l61 -415z" />
    <glyph glyph-name="w" unicode="w" horiz-adv-x="757" 
d="M696 501h85l-242 -501h-89l-33 418l-224 -418h-91l-11 501h76l5 -403l216 403h90l30 -397z" />
    <glyph glyph-name="x" unicode="x" horiz-adv-x="516" 
d="M435 0h-94l-90 196l-182 -196h-104l249 263l-113 238h92l81 -176l158 176h103l-224 -242z" />
    <glyph glyph-name="y" unicode="y" horiz-adv-x="553" 
d="M493 500h94l-364 -592q-43 -69 -87.5 -98.5t-115.5 -29.5h-88l16 69h66q44 0 72.5 17t57.5 64l39 63l-105 507h85l81 -412z" />
    <glyph glyph-name="z" unicode="z" horiz-adv-x="495" 
d="M482 501l-13 -56l-347 -374h272l-17 -71h-389l12 53l353 377h-253l16 71h366z" />
    <glyph glyph-name="braceleft" unicode="{" horiz-adv-x="326" 
d="M414 796h38l-15 -69h-27q-42 0 -67 -18t-37 -68l-39 -169q-16 -67 -46 -104t-80 -49q83 -34 55 -156l-37 -160q-11 -50 6.5 -68t62.5 -18h21l-16 -69h-25q-164 0 -123 175l37 160q12 55 -4 77.5t-69 30.5l5 24v2l3 12l6 24q58 8 84.5 30.5t38.5 77.5l42 183
q20 85 60.5 118.5t125.5 33.5z" />
    <glyph glyph-name="bar" unicode="|" horiz-adv-x="245" 
d="M81 -100h-79l208 900h79z" />
    <glyph glyph-name="braceright" unicode="}" horiz-adv-x="327" 
d="M306 329v-2l-3 -12l-6 -24q-58 -8 -84.5 -30.5t-38.5 -77.5l-42 -183q-20 -85 -60.5 -118.5t-125.5 -33.5h-38l15 69h27q42 0 67 18t37 68l39 169q16 67 46 104t80 49q-83 34 -55 156l37 160q11 50 -6.5 68t-62.5 18h-21l16 69h25q164 0 123 -175l-37 -160
q-12 -55 4 -77.5t69 -30.5z" />
    <glyph glyph-name="asciitilde" unicode="~" horiz-adv-x="592" 
d="M46 176q19 72 62.5 111t103.5 39q31 0 57.5 -13.5t41.5 -29t36 -29t44 -13.5q62 0 89 76h64q-19 -71 -63 -110t-104 -39q-31 0 -56.5 13.5t-40.5 29t-36 29t-44 13.5q-66 0 -90 -77h-64z" />
    <glyph glyph-name="uni00A0" unicode="&#xa0;" horiz-adv-x="240" 
 />
    <glyph glyph-name="exclamdown" unicode="&#xa1;" horiz-adv-x="200" 
d="M204 480l-23 -99h-101l22 99h102zM38 -220h-94l131 507h65z" />
    <glyph glyph-name="cent" unicode="&#xa2;" horiz-adv-x="588" 
d="M567 428h-80q4 45 -19 73.5t-69 35.5l-87 -376q97 9 144 104h80q-28 -79 -92.5 -125t-147.5 -51l-21 -89h-74l22 95q-73 16 -113.5 71.5t-40.5 138.5q0 119 78.5 204t194.5 99l21 92h74l-21 -92q76 -10 118 -56.5t33 -123.5zM152 307q0 -113 88 -140l84 367
q-73 -17 -122.5 -79t-49.5 -148z" />
    <glyph glyph-name="sterling" unicode="&#xa3;" horiz-adv-x="613" 
d="M401 710q98 0 153.5 -58.5t41.5 -162.5l-81 1q16 147 -114 147q-74 0 -119.5 -45t-45.5 -109q0 -13 1.5 -25t7 -24.5t8.5 -20.5t12 -21.5l12 -18t15 -20t14 -18.5h196l-15 -65h-145q9 -22 9 -51q0 -98 -109 -146h265l-17 -73h-485l13 59q126 9 187 50t61 103q0 30 -15 58
h-160l14 65h99q-53 71 -53 145q0 104 73.5 167t176.5 63z" />
    <glyph glyph-name="currency" unicode="&#xa4;" horiz-adv-x="624" 
d="M508 374q22 -39 22 -88q0 -95 -71 -168l60 -87l-55 -41l-64 84q-58 -33 -125 -33q-64 0 -112 35l-103 -86l-43 50l100 88q-22 41 -22 89q0 93 70 165l-61 86l56 42l62 -85q60 34 129 34q67 0 112 -34l101 85l42 -51zM175 219q0 -47 27.5 -77.5t79.5 -30.5
q70 0 118.5 51.5t48.5 118.5q0 46 -27.5 77t-79.5 31q-69 0 -118 -52t-49 -118z" />
    <glyph glyph-name="yen" unicode="&#xa5;" horiz-adv-x="645" 
d="M727 700l-292 -315h146l-15 -64h-186l-23 -98h187l-15 -65h-187l-36 -158h-83l36 158h-186l15 65h186l23 98h-187l15 64h158l-147 315h91l130 -287l263 287h107z" />
    <glyph glyph-name="brokenbar" unicode="&#xa6;" horiz-adv-x="245" 
d="M215 480h-79l74 320h79zM81 -100h-79l74 320h79z" />
    <glyph glyph-name="section" unicode="&#xa7;" horiz-adv-x="519" 
d="M515 525h-78q6 51 -19 83t-82 32q-48 0 -85 -22t-37 -63q0 -12 3 -22t11.5 -18t15.5 -14t21.5 -12.5t23.5 -9.5t28 -10t28 -10q68 -26 98.5 -55t30.5 -74q0 -89 -116 -128q49 -38 49 -102q0 -72 -57 -116t-148 -44q-100 0 -149.5 53.5t-37.5 139.5h80q-14 -123 111 -123
q56 0 87 23t31 61q0 9 -1.5 16.5t-5.5 14.5t-7.5 12t-12 10.5t-13.5 8.5t-17 8t-18.5 7.5t-22 8.5t-22.5 9q-64 25 -96.5 54t-32.5 78q0 85 111 125q-55 37 -55 103q0 71 59 116t144 45q95 0 143 -55.5t38 -129.5zM393 315q0 15 -7 28t-14.5 20.5t-28 16.5t-30.5 13t-39 13
l-9 3q-22 8 -34 13q-74 -28 -74 -87q0 -16 7 -28.5t14.5 -20.5t29 -17.5t33 -13t43.5 -14.5q22 -8 33 -13q33 11 54.5 34t21.5 53z" />
    <glyph glyph-name="dieresis" unicode="&#xa8;" horiz-adv-x="411" 
d="M144 583l20 86h88l-19 -86h-89zM341 583l20 86h88l-19 -86h-89z" />
    <glyph glyph-name="copyright" unicode="&#xa9;" 
d="M439 -10q-152 0 -255 103.5t-103 256.5t103 256.5t255 103.5t255 -103.5t103 -256.5t-103 -256.5t-255 -103.5zM439 42q127 0 212.5 89.5t85.5 218.5t-85.5 218.5t-212.5 89.5t-212.5 -90t-85.5 -218t85.5 -218t212.5 -90zM608 296q-9 -71 -52.5 -108.5t-113.5 -37.5
q-87 0 -136.5 54.5t-49.5 142.5q0 90 50 146.5t135 56.5q69 0 111.5 -37.5t51.5 -100.5h-63q-7 38 -32.5 61t-67.5 23q-57 0 -89.5 -41t-32.5 -107t33 -105.5t91 -39.5q86 0 102 93h63z" />
    <glyph glyph-name="guillemotleft" unicode="&#xab;" horiz-adv-x="620" 
d="M384 490l-219 -201l115 -189h-97l-117 199l207 191h111zM615 490l-219 -201l115 -189h-97l-117 199l207 191h111z" />
    <glyph glyph-name="logicalnot" unicode="&#xac;" horiz-adv-x="585" 
d="M549 357l-54 -233h-78l39 164h-386l16 69h463z" />
    <glyph glyph-name="uni00AD" unicode="&#xad;" horiz-adv-x="520" 
d="M80 331h398l-16 -70h-398z" />
    <glyph glyph-name="registered" unicode="&#xae;" 
d="M439 710q152 0 255 -103.5t103 -256.5t-103 -256.5t-255 -103.5t-255 103.5t-103 256.5t103 256.5t255 103.5zM439 42q127 0 212.5 89.5t85.5 218.5t-85.5 218.5t-212.5 89.5t-212.5 -90t-85.5 -218t85.5 -218t212.5 -90zM490 330q57 -12 77 -78l29 -92h-68l-28 88
q-3 10 -7 17.5t-7 13t-9.5 10t-9.5 7.5t-11.5 5t-12 3t-14.5 1.5t-15 0.5h-18h-19v-146h-62v390h122q73 0 106.5 -34t33.5 -84q0 -82 -87 -102zM441 494h-64v-136h64q36 0 54.5 20.5t18.5 48.5t-18.5 47.5t-54.5 19.5z" />
    <glyph glyph-name="macron" unicode="&#xaf;" horiz-adv-x="411" 
d="M157 647h279l-14 -64h-279z" />
    <glyph glyph-name="degree" unicode="&#xb0;" horiz-adv-x="389" 
d="M232 410q-58 0 -95.5 37t-37.5 93q0 71 56 123t128 52q59 0 96.5 -37t37.5 -94q0 -70 -56.5 -122t-128.5 -52zM239 475q41 0 72 31.5t31 74.5q0 30 -17 49t-48 19q-41 0 -72 -31.5t-31 -73.5q0 -30 17 -49.5t48 -19.5z" />
    <glyph glyph-name="plusminus" unicode="&#xb1;" horiz-adv-x="594" 
d="M351 334h193l-16 -68h-192l-34 -145h-77l33 145h-193l16 68h193l33 146h78zM12 0l16 68h463l-16 -68h-463z" />
    <glyph glyph-name="uni00B2" unicode="&#xb2;" horiz-adv-x="361" 
d="M350 410h-264l10 38l107 72q38 25 55 37.5t40.5 33.5t33 40.5t9.5 42.5q0 49 -49 49q-35 0 -57 -27t-29 -67h-61q11 65 49 105.5t100 40.5q50 0 80 -27t30 -74q0 -48 -35 -88t-109 -89l-55 -37h157z" />
    <glyph glyph-name="uni00B3" unicode="&#xb3;" horiz-adv-x="357" 
d="M324 578q41 -16 41 -66q0 -44 -38 -78t-102 -34q-63 0 -93.5 32.5t-22.5 83.5h61q-5 -34 12 -49.5t46 -15.5q35 0 57 20t22 45q0 44 -61 44h-30l10 44h35q42 0 67.5 20t25.5 51q0 49 -63 49q-79 0 -105 -77h-58q40 127 165 127q55 0 89 -25t34 -70q0 -74 -92 -101z" />
    <glyph glyph-name="acute" unicode="&#xb4;" horiz-adv-x="411" 
d="M313 699h107l-141 -129h-83z" />
    <glyph glyph-name="uni00B5" unicode="&#xb5;" horiz-adv-x="577" 
d="M477 500h83l-115 -500h-83l32 138q-89 -148 -213 -148q-52 0 -84 22l-53 -232h-80l90 388l3 17l72 315h85l-66 -289q-18 -78 -3.5 -114.5t64.5 -36.5q74 0 137.5 75.5t94.5 210.5l-4 -18z" />
    <glyph glyph-name="paragraph" unicode="&#xb6;" horiz-adv-x="604" 
d="M117 473q0 70 39.5 125t102.5 81q51 21 149 21h247l-12 -52h-80l-150 -648h-60l150 648h-80l-150 -648h-60l74 320q-85 0 -132 49q-38 36 -38 104z" />
    <glyph glyph-name="periodcentered" unicode="&#xb7;" horiz-adv-x="224" 
d="M60 245l23 99h101l-22 -99h-102z" />
    <glyph glyph-name="cedilla" unicode="&#xb8;" horiz-adv-x="411" 
d="M156 2q51 -34 51 -91q0 -50 -39.5 -83t-112.5 -33h-48l13 57h36q43 0 65.5 18t22.5 48q0 46 -51 82z" />
    <glyph glyph-name="uni00B9" unicode="&#xb9;" horiz-adv-x="294" 
d="M340 770l-83 -360h-59l56 244q-51 -31 -132 -34l12 49q53 3 99.5 29t57.5 72h49z" />
    <glyph glyph-name="guillemotright" unicode="&#xbb;" horiz-adv-x="620" 
d="M225 490l117 -199l-207 -191h-111l219 201l-115 189h97zM456 490l117 -199l-207 -191h-111l219 201l-115 189h97z" />
    <glyph glyph-name="onequarter" unicode="&#xbc;" horiz-adv-x="768" 
d="M7 0l748 700h82l-748 -700h-82zM324 700l-83 -360h-59l56 244q-51 -31 -132 -34l12 49q53 3 99.5 29t57.5 72h49zM711 122l-12 -49h-58l-17 -73h-58l17 73h-177l8 37l217 250h76l-55 -238h59zM485 122h110l41 177z" />
    <glyph glyph-name="onehalf" unicode="&#xbd;" horiz-adv-x="839" 
d="M7 0l748 700h82l-748 -700h-82zM324 700l-83 -360h-59l56 244q-51 -31 -132 -34l12 49q53 3 99.5 29t57.5 72h49zM733 0h-264l10 38l107 72q38 25 55 37.5t40.5 33.5t33 40.5t9.5 42.5q0 49 -49 49q-35 0 -57 -27t-29 -67h-61q11 65 49 105.5t100 40.5q50 0 80 -27
t30 -74q0 -48 -35 -88t-109 -89l-55 -37h157z" />
    <glyph glyph-name="threequarters" unicode="&#xbe;" horiz-adv-x="800" 
d="M308 508q41 -16 41 -66q0 -44 -38 -78t-102 -34q-63 0 -93.5 32.5t-22.5 83.5h61q-5 -34 12 -49.5t46 -15.5q35 0 57 20t22 45q0 44 -61 44h-30l10 44h35q42 0 67.5 20t25.5 51q0 49 -63 49q-79 0 -105 -77h-58q40 127 165 127q55 0 89 -25t34 -70q0 -74 -92 -101zM39 0
l748 700h82l-748 -700h-82zM743 122l-12 -49h-58l-17 -73h-58l17 73h-177l8 37l217 250h76l-55 -238h59zM517 122h110l41 177z" />
    <glyph glyph-name="questiondown" unicode="&#xbf;" horiz-adv-x="459" 
d="M243 378l23 99h101l-22 -99h-102zM139 -229q-80 0 -127 39.5t-47 114.5q0 51 23.5 89.5t58.5 63t71.5 48t67.5 58.5t41 79l6 25h81l-8 -36q-12 -54 -43 -94t-66.5 -63.5t-69 -45t-55.5 -51t-22 -68.5q0 -87 93 -87q130 0 166 178h81q-24 -126 -88.5 -188t-162.5 -62z" />
    <glyph glyph-name="Agrave" unicode="&#xc0;" horiz-adv-x="664" 
d="M521 777h-82l-99 142h108zM491 0l-21 177h-303l-105 -177h-96l417 700h106l92 -700h-90zM212 253h248l-42 349z" />
    <glyph glyph-name="Aacute" unicode="&#xc1;" horiz-adv-x="664" 
d="M632 919l-155 -142h-92l129 142h118zM489 700l92 -700h-90l-21 177h-303l-105 -177h-96l417 700h106zM212 253h248l-42 349z" />
    <glyph glyph-name="Acircumflex" unicode="&#xc2;" horiz-adv-x="664" 
d="M474 853l-84 -85h-89l138 140h90l71 -140h-82zM489 700l92 -700h-90l-21 177h-303l-105 -177h-96l417 700h106zM212 253h248l-42 349z" />
    <glyph glyph-name="Atilde" unicode="&#xc3;" horiz-adv-x="664" 
d="M604 903h62q-21 -60 -57.5 -90.5t-79.5 -30.5q-27 0 -47.5 8.5t-30 18.5t-23.5 18.5t-31 8.5q-42 0 -67 -51h-59q42 121 138 121q41 0 74 -27t58 -27q42 0 63 51zM489 700l92 -700h-90l-21 177h-303l-105 -177h-96l417 700h106zM212 253h248l-42 349z" />
    <glyph glyph-name="Adieresis" unicode="&#xc4;" horiz-adv-x="664" 
d="M416 873l-21 -95h-98l22 95h97zM536 873h97l-22 -95h-97zM489 700l92 -700h-90l-21 177h-303l-105 -177h-96l417 700h106zM212 253h248l-42 349z" />
    <glyph glyph-name="Aring" unicode="&#xc5;" horiz-adv-x="664" 
d="M491 0l-21 177h-303l-105 -177h-96l395 664q-28 26 -28 70q0 51 38.5 87.5t91.5 36.5q44 0 69.5 -27.5t25.5 -66.5q0 -33 -17.5 -61.5t-45.5 -45.5l86 -657h-90zM456 797q-24 0 -41 -18t-17 -41q0 -16 10 -26.5t27 -10.5q23 0 40 17.5t17 39.5q0 16 -9.5 27.5t-26.5 11.5
zM212 253h248l-42 349z" />
    <glyph glyph-name="AE" unicode="&#xc6;" horiz-adv-x="882" 
d="M899 621h-400l30 -228h298l-18 -76h-270l32 -238h203l-18 -79h-265l-21 177h-303l-105 -177h-96l417 700h535zM212 253h248l-42 349z" />
    <glyph glyph-name="Ccedilla" unicode="&#xc7;" horiz-adv-x="739" 
d="M725 471h-90q4 72 -39 116t-129 44q-92 0 -164 -51.5t-108.5 -131t-36.5 -169.5q0 -100 49.5 -155.5t147.5 -55.5q162 0 233 174h90q-39 -127 -125.5 -188t-198.5 -64q41 -36 41 -88q0 -55 -43.5 -91.5t-123.5 -36.5h-53l14 63h40q47 0 71.5 20t24.5 53q0 47 -50 86
q-99 18 -152.5 89t-55.5 185q-2 116 48.5 216.5t145.5 162t214 61.5q125 0 191.5 -66.5t58.5 -172.5z" />
    <glyph glyph-name="Egrave" unicode="&#xc8;" horiz-adv-x="584" 
d="M489 777h-82l-99 142h108zM601 620h-342l-52 -227h322l-18 -76h-322l-54 -237h341l-18 -80h-433l162 700h433z" />
    <glyph glyph-name="Eacute" unicode="&#xc9;" horiz-adv-x="584" 
d="M600 919l-155 -142h-92l129 142h118zM601 620h-342l-52 -227h322l-18 -76h-322l-54 -237h341l-18 -80h-433l162 700h433z" />
    <glyph glyph-name="Ecircumflex" unicode="&#xca;" horiz-adv-x="584" 
d="M442 853l-84 -85h-89l138 140h90l71 -140h-82zM601 620h-342l-52 -227h322l-18 -76h-322l-54 -237h341l-18 -80h-433l162 700h433z" />
    <glyph glyph-name="Edieresis" unicode="&#xcb;" horiz-adv-x="584" 
d="M384 873l-21 -95h-98l22 95h97zM601 873l-22 -95h-97l22 95h97zM601 620h-342l-52 -227h322l-18 -76h-322l-54 -237h341l-18 -80h-433l162 700h433z" />
    <glyph glyph-name="Igrave" unicode="&#xcc;" horiz-adv-x="257" 
d="M245 919l73 -142h-82l-99 142h108zM116 0h-91l162 700h91z" />
    <glyph glyph-name="Iacute" unicode="&#xcd;" horiz-adv-x="257" 
d="M311 919h118l-155 -142h-92zM116 0h-91l162 700h91z" />
    <glyph glyph-name="Icircumflex" unicode="&#xce;" horiz-adv-x="257" 
d="M397 768h-82l-44 85l-84 -85h-89l138 140h90zM116 0h-91l162 700h91z" />
    <glyph glyph-name="Idieresis" unicode="&#xcf;" horiz-adv-x="257" 
d="M94 778l22 95h97l-21 -95h-98zM311 778l22 95h97l-22 -95h-97zM116 0h-91l162 700h91z" />
    <glyph glyph-name="Eth" unicode="&#xd0;" horiz-adv-x="703" 
d="M394 700q136 0 209.5 -79t73.5 -211q0 -59 -14 -115t-46.5 -110t-80 -95t-120.5 -65.5t-161 -24.5h-230l72 311h-135l19 77h134l72 312h207zM253 78q77 0 137.5 24t95.5 59.5t57.5 83t30.5 89t8 82.5q0 206 -210 206h-113l-54 -234h244l-18 -77h-244l-54 -233h120z" />
    <glyph glyph-name="Ntilde" unicode="&#xd1;" horiz-adv-x="728" 
d="M429 836q-42 0 -67 -51h-59q42 121 138 121q41 0 74 -27t58 -27q42 0 63 51h62q-21 -60 -57.5 -90.5t-79.5 -30.5q-27 0 -47.5 8.5t-30 18.5t-23.5 18.5t-31 8.5zM661 700h88l-162 -700h-108l-226 601l-139 -601h-89l162 700h110l225 -601z" />
    <glyph glyph-name="Ograve" unicode="&#xd2;" horiz-adv-x="780" 
d="M493 919l73 -142h-82l-99 142h108zM345 -10q-136 0 -206.5 77.5t-70.5 213.5q0 184 116.5 306.5t293.5 122.5q136 0 206.5 -78t70.5 -214q0 -182 -116.5 -305t-293.5 -123zM351 69q130 0 219 103t89 248q0 100 -47.5 155.5t-139.5 55.5q-130 0 -219 -102.5t-89 -248.5
q0 -101 48 -156t139 -55z" />
    <glyph glyph-name="Oacute" unicode="&#xd3;" horiz-adv-x="780" 
d="M559 919h118l-155 -142h-92zM345 -10q-136 0 -206.5 77.5t-70.5 213.5q0 184 116.5 306.5t293.5 122.5q136 0 206.5 -78t70.5 -214q0 -182 -116.5 -305t-293.5 -123zM351 69q130 0 219 103t89 248q0 100 -47.5 155.5t-139.5 55.5q-130 0 -219 -102.5t-89 -248.5
q0 -101 48 -156t139 -55z" />
    <glyph glyph-name="Ocircumflex" unicode="&#xd4;" horiz-adv-x="780" 
d="M645 768h-82l-44 85l-84 -85h-89l138 140h90zM345 -10q-136 0 -206.5 77.5t-70.5 213.5q0 184 116.5 306.5t293.5 122.5q136 0 206.5 -78t70.5 -214q0 -182 -116.5 -305t-293.5 -123zM351 69q130 0 219 103t89 248q0 100 -47.5 155.5t-139.5 55.5q-130 0 -219 -102.5
t-89 -248.5q0 -101 48 -156t139 -55z" />
    <glyph glyph-name="Otilde" unicode="&#xd5;" horiz-adv-x="780" 
d="M316 785q42 121 138 121q41 0 74 -27t58 -27q42 0 63 51h62q-21 -60 -57.5 -90.5t-79.5 -30.5q-27 0 -47.5 8.5t-30 18.5t-23.5 18.5t-31 8.5q-42 0 -67 -51h-59zM345 -10q-136 0 -206.5 77.5t-70.5 213.5q0 184 116.5 306.5t293.5 122.5q136 0 206.5 -78t70.5 -214
q0 -182 -116.5 -305t-293.5 -123zM351 69q130 0 219 103t89 248q0 100 -47.5 155.5t-139.5 55.5q-130 0 -219 -102.5t-89 -248.5q0 -101 48 -156t139 -55z" />
    <glyph glyph-name="Odieresis" unicode="&#xd6;" horiz-adv-x="780" 
d="M342 778l22 95h97l-21 -95h-98zM559 778l22 95h97l-22 -95h-97zM345 -10q-136 0 -206.5 77.5t-70.5 213.5q0 184 116.5 306.5t293.5 122.5q136 0 206.5 -78t70.5 -214q0 -182 -116.5 -305t-293.5 -123zM351 69q130 0 219 103t89 248q0 100 -47.5 155.5t-139.5 55.5
q-130 0 -219 -102.5t-89 -248.5q0 -101 48 -156t139 -55z" />
    <glyph glyph-name="multiply" unicode="&#xd7;" horiz-adv-x="587" 
d="M527 397l-187 -155l118 -156l-55 -42l-117 154l-185 -154l-42 50l187 156l-118 156l55 44l117 -155l185 154z" />
    <glyph glyph-name="Oslash" unicode="&#xd8;" horiz-adv-x="780" 
d="M809 674l-93 -86q39 -69 39 -170q0 -182 -116.5 -305t-293.5 -123q-127 0 -199 70l-87 -80l-48 46l95 87q-38 67 -38 168q0 184 116.5 306.5t293.5 122.5q126 0 198 -69l85 79zM164 280q0 -56 15 -99l429 398q-47 52 -136 52q-130 0 -219 -102.5t-89 -248.5zM659 420
q0 59 -16 101l-430 -398q48 -54 138 -54q130 0 219 103t89 248z" />
    <glyph glyph-name="Ugrave" unicode="&#xd9;" horiz-adv-x="715" 
d="M473 919l73 -142h-82l-99 142h108zM184 700h91l-92 -399q-54 -232 133 -232q184 0 239 232l92 399h91l-96 -415q-32 -141 -116 -220t-223 -75q-134 4 -190 83.5t-21 226.5z" />
    <glyph glyph-name="Uacute" unicode="&#xda;" horiz-adv-x="715" 
d="M539 919h118l-155 -142h-92zM184 700h91l-92 -399q-54 -232 133 -232q184 0 239 232l92 399h91l-96 -415q-32 -141 -116 -220t-223 -75q-134 4 -190 83.5t-21 226.5z" />
    <glyph glyph-name="Ucircumflex" unicode="&#xdb;" horiz-adv-x="715" 
d="M625 768h-82l-44 85l-84 -85h-89l138 140h90zM184 700h91l-92 -399q-54 -232 133 -232q184 0 239 232l92 399h91l-96 -415q-32 -141 -116 -220t-223 -75q-134 4 -190 83.5t-21 226.5z" />
    <glyph glyph-name="Udieresis" unicode="&#xdc;" horiz-adv-x="715" 
d="M322 778l22 95h97l-21 -95h-98zM539 778l22 95h97l-22 -95h-97zM184 700h91l-92 -399q-54 -232 133 -232q184 0 239 232l92 399h91l-96 -415q-32 -141 -116 -220t-223 -75q-134 4 -190 83.5t-21 226.5z" />
    <glyph glyph-name="Yacute" unicode="&#xdd;" horiz-adv-x="653" 
d="M624 919l-155 -142h-92l129 142h118zM610 700h110l-503 -700h-108l198 272l-177 428h100l139 -343z" />
    <glyph glyph-name="Thorn" unicode="&#xde;" horiz-adv-x="635" 
d="M369 579q109 0 161.5 -60t52.5 -149q0 -107 -74 -177.5t-210 -70.5h-156l-28 -122h-90l162 700h90l-28 -121h120zM306 199q90 0 137.5 49t47.5 122q0 58 -30.5 94.5t-95.5 36.5h-134l-70 -302h145z" />
    <glyph glyph-name="germandbls" unicode="&#xdf;" horiz-adv-x="558" 
d="M377 391q124 -35 124 -171q0 -96 -67 -158t-197 -62h-41l16 71h29q89 0 133 43.5t44 111.5q0 123 -137 123l-2 27l2 -27h-49l15 67h30q68 0 110 40t42 98q0 38 -20 61.5t-60 23.5q-46 0 -81 -32.5t-50 -94.5l-118 -512h-83l121 527q21 88 79 135.5t138 47.5q77 0 119 -44
t42 -109q0 -62 -37 -104.5t-102 -61.5z" />
    <glyph glyph-name="agrave" unicode="&#xe0;" horiz-adv-x="580" 
d="M410 570h-75l-90 129h98zM480 500h83l-115 -500h-83l14 60q-68 -70 -169 -70q-82 0 -128 52t-46 146q0 134 83.5 228t193.5 94q112 0 147 -97zM233 60q86 0 139.5 72t53.5 172q0 134 -107 134q-59 0 -105 -39t-68.5 -95t-22.5 -116q0 -128 110 -128z" />
    <glyph glyph-name="aacute" unicode="&#xe1;" horiz-adv-x="580" 
d="M510 699l-141 -129h-83l117 129h107zM480 500h83l-115 -500h-83l14 60q-68 -70 -169 -70q-82 0 -128 52t-46 146q0 134 83.5 228t193.5 94q112 0 147 -97zM233 60q86 0 139.5 72t53.5 172q0 134 -107 134q-59 0 -105 -39t-68.5 -95t-22.5 -116q0 -128 110 -128z" />
    <glyph glyph-name="acircumflex" unicode="&#xe2;" horiz-adv-x="580" 
d="M370 638l-76 -77h-81l125 127h82l65 -127h-75zM480 500h83l-115 -500h-83l14 60q-68 -70 -169 -70q-82 0 -128 52t-46 146q0 134 83.5 228t193.5 94q112 0 147 -97zM233 60q86 0 139.5 72t53.5 172q0 134 -107 134q-59 0 -105 -39t-68.5 -95t-22.5 -116q0 -128 110 -128z
" />
    <glyph glyph-name="atilde" unicode="&#xe3;" horiz-adv-x="580" 
d="M299 616q-18 0 -34 -13t-25 -33h-53q37 110 123 110q37 0 66.5 -24.5t51.5 -24.5q37 0 56 46h55q-19 -54 -51 -82t-71 -28t-68.5 24.5t-49.5 24.5zM480 500h83l-115 -500h-83l14 60q-68 -70 -169 -70q-82 0 -128 52t-46 146q0 134 83.5 228t193.5 94q112 0 147 -97z
M233 60q86 0 139.5 72t53.5 172q0 134 -107 134q-59 0 -105 -39t-68.5 -95t-22.5 -116q0 -128 110 -128z" />
    <glyph glyph-name="adieresis" unicode="&#xe4;" horiz-adv-x="580" 
d="M319 669l-19 -86h-89l20 86h88zM516 669l-19 -86h-89l20 86h88zM480 500h83l-115 -500h-83l14 60q-68 -70 -169 -70q-82 0 -128 52t-46 146q0 134 83.5 228t193.5 94q112 0 147 -97zM233 60q86 0 139.5 72t53.5 172q0 134 -107 134q-59 0 -105 -39t-68.5 -95t-22.5 -116
q0 -128 110 -128z" />
    <glyph glyph-name="aring" unicode="&#xe5;" horiz-adv-x="580" 
d="M353 544q-41 0 -64.5 25t-23.5 61q0 46 35 79.5t83 33.5q40 0 63.5 -25t23.5 -61q0 -46 -35 -79.5t-82 -33.5zM377 687q-21 0 -37 -16t-16 -37q0 -15 9 -24.5t25 -9.5q21 0 36.5 16t15.5 36q0 14 -8.5 24.5t-24.5 10.5zM480 500h83l-115 -500h-83l14 60q-68 -70 -169 -70
q-82 0 -128 52t-46 146q0 134 83.5 228t193.5 94q112 0 147 -97zM233 60q86 0 139.5 72t53.5 172q0 134 -107 134q-59 0 -105 -39t-68.5 -95t-22.5 -116q0 -128 110 -128z" />
    <glyph glyph-name="ae" unicode="&#xe6;" horiz-adv-x="912" 
d="M671 509q108 0 155.5 -72.5t25.5 -190.5q-1 -5 -2 -8.5t-1.5 -5t-0.5 -2.5v-2h-374q-1 -9 -1 -27q0 -67 33 -105t98 -38q103 0 148 103h82q-28 -81 -87 -126t-147 -45q-150 0 -197 123q-33 -54 -98.5 -88.5t-136.5 -34.5q-63 0 -104 29.5t-41 93.5q0 72 58 109.5
t179 59.5q94 16 118 29q32 15 39 45v1q9 38 -16.5 61t-75.5 23q-112 0 -148 -114h-82q23 83 80 132.5t151 49.5q121 0 159 -74q79 74 186 74zM487 290h291q8 67 -17 109.5t-91 42.5q-67 0 -114.5 -43t-68.5 -109zM190 55q66 0 120 41.5t74 116.5l6 26l3 20q-31 -15 -130 -36
q-50 -10 -79 -19.5t-52.5 -31t-23.5 -53.5q0 -64 82 -64z" />
    <glyph glyph-name="ccedilla" unicode="&#xe7;" horiz-adv-x="563" 
d="M519 323h-82q4 55 -26.5 86t-85.5 31q-87 0 -144.5 -72t-57.5 -166q0 -65 32 -104t94 -39q109 0 155 110h86q-67 -173 -231 -179q36 -33 36 -79q0 -50 -39.5 -83t-112.5 -33h-48l13 57h36q43 0 65.5 18t22.5 48q0 43 -47 79q-70 16 -108.5 69t-38.5 132q0 122 80.5 216.5
t204.5 94.5q93 0 149.5 -53t46.5 -133z" />
    <glyph glyph-name="egrave" unicode="&#xe8;" horiz-adv-x="563" 
d="M391 570h-75l-90 129h98zM322 509q108 0 155.5 -72.5t25.5 -190.5q-1 -5 -2 -8.5t-1.5 -5t-0.5 -2.5v-2h-374q-1 -9 -1 -27q0 -67 33 -105t98 -38q103 0 148 103h82q-28 -81 -87 -126t-147 -45q-103 0 -157.5 59t-54.5 155q0 121 79.5 213t203.5 92zM138 290h291
q8 67 -17 109.5t-91 42.5q-67 0 -114.5 -43t-68.5 -109z" />
    <glyph glyph-name="eacute" unicode="&#xe9;" horiz-adv-x="563" 
d="M491 699l-141 -129h-83l117 129h107zM322 509q108 0 155.5 -72.5t25.5 -190.5q-1 -5 -2 -8.5t-1.5 -5t-0.5 -2.5v-2h-374q-1 -9 -1 -27q0 -67 33 -105t98 -38q103 0 148 103h82q-28 -81 -87 -126t-147 -45q-103 0 -157.5 59t-54.5 155q0 121 79.5 213t203.5 92zM138 290
h291q8 67 -17 109.5t-91 42.5q-67 0 -114.5 -43t-68.5 -109z" />
    <glyph glyph-name="ecircumflex" unicode="&#xea;" horiz-adv-x="563" 
d="M351 638l-76 -77h-81l125 127h82l65 -127h-75zM322 509q108 0 155.5 -72.5t25.5 -190.5q-1 -5 -2 -8.5t-1.5 -5t-0.5 -2.5v-2h-374q-1 -9 -1 -27q0 -67 33 -105t98 -38q103 0 148 103h82q-28 -81 -87 -126t-147 -45q-103 0 -157.5 59t-54.5 155q0 121 79.5 213t203.5 92z
M138 290h291q8 67 -17 109.5t-91 42.5q-67 0 -114.5 -43t-68.5 -109z" />
    <glyph glyph-name="edieresis" unicode="&#xeb;" horiz-adv-x="563" 
d="M300 669l-19 -86h-89l20 86h88zM497 669l-19 -86h-89l20 86h88zM322 509q108 0 155.5 -72.5t25.5 -190.5q-1 -5 -2 -8.5t-1.5 -5t-0.5 -2.5v-2h-374q-1 -9 -1 -27q0 -67 33 -105t98 -38q103 0 148 103h82q-28 -81 -87 -126t-147 -45q-103 0 -157.5 59t-54.5 155
q0 121 79.5 213t203.5 92zM138 290h291q8 67 -17 109.5t-91 42.5q-67 0 -114.5 -43t-68.5 -109z" />
    <glyph glyph-name="igrave" unicode="&#xec;" horiz-adv-x="234" 
d="M184 699l67 -129h-75l-90 129h98zM102 0h-85l115 500h85z" />
    <glyph glyph-name="iacute" unicode="&#xed;" horiz-adv-x="234" 
d="M244 699h107l-141 -129h-83zM102 0h-85l115 500h85z" />
    <glyph glyph-name="icircumflex" unicode="&#xee;" horiz-adv-x="234" 
d="M326 561h-75l-40 77l-76 -77h-81l125 127h82zM102 0h-85l115 500h85z" />
    <glyph glyph-name="idieresis" unicode="&#xef;" horiz-adv-x="234" 
d="M52 583l20 86h88l-19 -86h-89zM249 583l20 86h88l-19 -86h-89zM102 0h-85l115 500h85z" />
    <glyph glyph-name="eth" unicode="&#xf0;" horiz-adv-x="563" 
d="M585 647l-99 -45q54 -74 54 -202q0 -178 -86 -294t-227 -116q-86 0 -139.5 51t-53.5 145q0 120 83.5 202t196.5 82q62 0 100.5 -26t51.5 -66q10 127 -52 192l-140 -64l-21 46l115 52q-51 27 -127 27h-48l16 69h52q120 0 189 -58l115 52zM235 59q65 0 116 42t70 127
q19 82 -12.5 127.5t-96.5 45.5q-83 0 -139.5 -64.5t-56.5 -150.5q0 -63 32.5 -95t86.5 -32z" />
    <glyph glyph-name="ntilde" unicode="&#xf1;" horiz-adv-x="578" 
d="M307 616q-18 0 -34 -13t-25 -33h-53q37 110 123 110q37 0 66.5 -24.5t51.5 -24.5q37 0 56 46h55q-19 -54 -51 -82t-71 -28t-68.5 24.5t-49.5 24.5zM401 510q75 0 108 -51.5t11 -145.5l-72 -313h-85l66 284q20 80 5.5 118t-67.5 38q-66 0 -133 -77.5t-97 -208.5l10 47
l-46 -201h-84l115 500h84l-34 -148q93 158 219 158z" />
    <glyph glyph-name="ograve" unicode="&#xf2;" horiz-adv-x="575" 
d="M348 699l67 -129h-75l-90 129h98zM244 -10q-99 0 -152 58t-53 155q0 128 85.5 217t210.5 89q98 0 149.5 -58t51.5 -155q0 -130 -83.5 -218t-208.5 -88zM248 58q87 0 145 73.5t58 167.5q0 65 -30.5 103t-92.5 38q-87 0 -145 -72.5t-58 -167.5q0 -65 30.5 -103.5
t92.5 -38.5z" />
    <glyph glyph-name="oacute" unicode="&#xf3;" horiz-adv-x="575" 
d="M408 699h107l-141 -129h-83zM244 -10q-99 0 -152 58t-53 155q0 128 85.5 217t210.5 89q98 0 149.5 -58t51.5 -155q0 -130 -83.5 -218t-208.5 -88zM248 58q87 0 145 73.5t58 167.5q0 65 -30.5 103t-92.5 38q-87 0 -145 -72.5t-58 -167.5q0 -65 30.5 -103.5t92.5 -38.5z
" />
    <glyph glyph-name="ocircumflex" unicode="&#xf4;" horiz-adv-x="575" 
d="M490 561h-75l-40 77l-76 -77h-81l125 127h82zM244 -10q-99 0 -152 58t-53 155q0 128 85.5 217t210.5 89q98 0 149.5 -58t51.5 -155q0 -130 -83.5 -218t-208.5 -88zM248 58q87 0 145 73.5t58 167.5q0 65 -30.5 103t-92.5 38q-87 0 -145 -72.5t-58 -167.5
q0 -65 30.5 -103.5t92.5 -38.5z" />
    <glyph glyph-name="otilde" unicode="&#xf5;" horiz-adv-x="575" 
d="M192 570q37 110 123 110q37 0 66.5 -24.5t51.5 -24.5q37 0 56 46h55q-19 -54 -51 -82t-71 -28t-68.5 24.5t-49.5 24.5q-18 0 -34 -13t-25 -33h-53zM244 -10q-99 0 -152 58t-53 155q0 128 85.5 217t210.5 89q98 0 149.5 -58t51.5 -155q0 -130 -83.5 -218t-208.5 -88z
M248 58q87 0 145 73.5t58 167.5q0 65 -30.5 103t-92.5 38q-87 0 -145 -72.5t-58 -167.5q0 -65 30.5 -103.5t92.5 -38.5z" />
    <glyph glyph-name="odieresis" unicode="&#xf6;" horiz-adv-x="575" 
d="M216 583l20 86h88l-19 -86h-89zM413 583l20 86h88l-19 -86h-89zM244 -10q-99 0 -152 58t-53 155q0 128 85.5 217t210.5 89q98 0 149.5 -58t51.5 -155q0 -130 -83.5 -218t-208.5 -88zM248 58q87 0 145 73.5t58 167.5q0 65 -30.5 103t-92.5 38q-87 0 -145 -72.5t-58 -167.5
q0 -65 30.5 -103.5t92.5 -38.5z" />
    <glyph glyph-name="divide" unicode="&#xf7;" horiz-adv-x="585" 
d="M275 372l20 88h90l-20 -88h-90zM68 279h463l-16 -69h-463zM199 31l20 88h90l-20 -88h-90z" />
    <glyph glyph-name="oslash" unicode="&#xf8;" horiz-adv-x="575" 
d="M588 480l-77 -68q25 -49 25 -116q0 -130 -83.5 -218t-208.5 -88q-94 0 -149 55l-74 -66l-35 37l79 70q-26 50 -26 117q0 128 85.5 217t210.5 89q93 0 145 -54l72 64zM125 200q0 -31 7 -55l288 257q-32 38 -92 38q-87 0 -145 -72.5t-58 -167.5zM451 299q0 30 -6 54
l-290 -256q33 -39 93 -39q87 0 145 73.5t58 167.5z" />
    <glyph glyph-name="ugrave" unicode="&#xf9;" horiz-adv-x="577" 
d="M421 570h-75l-90 129h98zM477 500h83l-115 -500h-83l32 138q-89 -148 -213 -148q-77 0 -111.5 49.5t-12.5 145.5l72 315h85l-66 -289q-18 -78 -3.5 -114.5t64.5 -36.5q74 0 137.5 75.5t94.5 210.5l-4 -18z" />
    <glyph glyph-name="uacute" unicode="&#xfa;" horiz-adv-x="577" 
d="M521 699l-141 -129h-83l117 129h107zM477 500h83l-115 -500h-83l32 138q-89 -148 -213 -148q-77 0 -111.5 49.5t-12.5 145.5l72 315h85l-66 -289q-18 -78 -3.5 -114.5t64.5 -36.5q74 0 137.5 75.5t94.5 210.5l-4 -18z" />
    <glyph glyph-name="ucircumflex" unicode="&#xfb;" horiz-adv-x="577" 
d="M381 638l-76 -77h-81l125 127h82l65 -127h-75zM477 500h83l-115 -500h-83l32 138q-89 -148 -213 -148q-77 0 -111.5 49.5t-12.5 145.5l72 315h85l-66 -289q-18 -78 -3.5 -114.5t64.5 -36.5q74 0 137.5 75.5t94.5 210.5l-4 -18z" />
    <glyph glyph-name="udieresis" unicode="&#xfc;" horiz-adv-x="577" 
d="M330 669l-19 -86h-89l20 86h88zM527 669l-19 -86h-89l20 86h88zM477 500h83l-115 -500h-83l32 138q-89 -148 -213 -148q-77 0 -111.5 49.5t-12.5 145.5l72 315h85l-66 -289q-18 -78 -3.5 -114.5t64.5 -36.5q74 0 137.5 75.5t94.5 210.5l-4 -18z" />
    <glyph glyph-name="yacute" unicode="&#xfd;" horiz-adv-x="553" 
d="M507 699l-141 -129h-83l117 129h107zM493 500h94l-364 -592q-43 -69 -87.5 -98.5t-115.5 -29.5h-88l16 69h66q44 0 72.5 17t57.5 64l39 63l-105 507h85l81 -412z" />
    <glyph glyph-name="thorn" unicode="&#xfe;" horiz-adv-x="579" 
d="M363 510q79 0 127 -58.5t48 -157.5q0 -126 -74 -215t-184 -89q-61 0 -103.5 28t-56.5 66l-70 -304h-84l166 720h1l49 210h84l-49 -210h-1l-16 -67q29 36 73 56.5t90 20.5zM269 59q85 0 134 69.5t49 166.5q0 144 -113 144q-81 0 -132 -70.5t-51 -170.5q0 -139 113 -139z
" />
    <glyph glyph-name="ydieresis" unicode="&#xff;" horiz-adv-x="553" 
d="M316 669l-19 -86h-89l20 86h88zM513 669l-19 -86h-89l20 86h88zM493 500h94l-364 -592q-43 -69 -87.5 -98.5t-115.5 -29.5h-88l16 69h66q44 0 72.5 17t57.5 64l39 63l-105 507h85l81 -412z" />
    <glyph glyph-name="Amacron" unicode="&#x100;" horiz-adv-x="664" 
d="M318 861h307l-15 -71h-307zM489 700l92 -700h-90l-21 177h-303l-105 -177h-96l417 700h106zM212 253h248l-42 349z" />
    <glyph glyph-name="amacron" unicode="&#x101;" horiz-adv-x="580" 
d="M507 647l-14 -64h-279l14 64h279zM480 500h83l-115 -500h-83l14 60q-68 -70 -169 -70q-82 0 -128 52t-46 146q0 134 83.5 228t193.5 94q112 0 147 -97zM233 60q86 0 139.5 72t53.5 172q0 134 -107 134q-59 0 -105 -39t-68.5 -95t-22.5 -116q0 -128 110 -128z" />
    <glyph glyph-name="Abreve" unicode="&#x102;" horiz-adv-x="664" 
d="M461 770q-63 0 -96.5 41.5t-21.5 95.5h73q-5 -30 7.5 -50.5t45.5 -20.5q32 0 53 20.5t29 50.5h75q-15 -61 -58.5 -99t-106.5 -38zM489 700l92 -700h-90l-21 177h-303l-105 -177h-96l417 700h106zM212 253h248l-42 349z" />
    <glyph glyph-name="abreve" unicode="&#x103;" horiz-adv-x="580" 
d="M356 565q-57 0 -87.5 37.5t-19.5 87.5h66q-4 -28 7.5 -46.5t40.5 -18.5t48.5 19t26.5 46h68q-13 -55 -53 -90t-97 -35zM480 500h83l-115 -500h-83l14 60q-68 -70 -169 -70q-82 0 -128 52t-46 146q0 134 83.5 228t193.5 94q112 0 147 -97zM233 60q86 0 139.5 72t53.5 172
q0 134 -107 134q-59 0 -105 -39t-68.5 -95t-22.5 -116q0 -128 110 -128z" />
    <glyph glyph-name="Aogonek" unicode="&#x104;" horiz-adv-x="664" 
d="M475 -116q0 -46 69 -46h19l-15 -64h-30q-59 0 -89 30t-30 72q0 41 27 69t78 55h-13l-21 177h-303l-105 -177h-96l417 700h106l92 -700q-106 -55 -106 -116zM212 253h248l-42 349z" />
    <glyph glyph-name="aogonek" unicode="&#x105;" horiz-adv-x="580" 
d="M448 0q-41 -21 -68.5 -48.5t-27.5 -56.5q0 -42 63 -42h17l-14 -58h-27q-53 0 -80.5 27t-27.5 65q0 37 24.5 63t70.5 50h-13l14 60q-68 -70 -169 -70q-82 0 -128 52t-46 146q0 134 83.5 228t193.5 94q112 0 147 -97l20 87h83zM233 60q86 0 139.5 72t53.5 172
q0 134 -107 134q-59 0 -105 -39t-68.5 -95t-22.5 -116q0 -128 110 -128z" />
    <glyph glyph-name="Cacute" unicode="&#x106;" horiz-adv-x="739" 
d="M555 919h118l-155 -142h-92zM678 242q-40 -130 -130 -191t-206 -61q-130 0 -201.5 73.5t-73.5 206.5q-2 116 48.5 216.5t145.5 162t214 61.5q125 0 191.5 -66.5t58.5 -172.5h-90q4 72 -39 116t-129 44q-92 0 -164 -51.5t-108.5 -131t-36.5 -169.5q0 -100 49.5 -155.5
t147.5 -55.5q162 0 233 174h90z" />
    <glyph glyph-name="cacute" unicode="&#x107;" horiz-adv-x="563" 
d="M399 699h107l-141 -129h-83zM437 323q4 55 -26.5 86t-85.5 31q-87 0 -144.5 -72t-57.5 -166q0 -65 32 -104t94 -39q109 0 155 110h86q-69 -179 -242 -179q-99 0 -154.5 56t-55.5 152q0 122 80.5 216.5t204.5 94.5q93 0 149.5 -53t46.5 -133h-82z" />
    <glyph glyph-name="Ccircumflex" unicode="&#x108;" horiz-adv-x="739" 
d="M641 768h-82l-44 85l-84 -85h-89l138 140h90zM678 242q-40 -130 -130 -191t-206 -61q-130 0 -201.5 73.5t-73.5 206.5q-2 116 48.5 216.5t145.5 162t214 61.5q125 0 191.5 -66.5t58.5 -172.5h-90q4 72 -39 116t-129 44q-92 0 -164 -51.5t-108.5 -131t-36.5 -169.5
q0 -100 49.5 -155.5t147.5 -55.5q162 0 233 174h90z" />
    <glyph glyph-name="ccircumflex" unicode="&#x109;" horiz-adv-x="563" 
d="M481 561h-75l-40 77l-76 -77h-81l125 127h82zM437 323q4 55 -26.5 86t-85.5 31q-87 0 -144.5 -72t-57.5 -166q0 -65 32 -104t94 -39q109 0 155 110h86q-69 -179 -242 -179q-99 0 -154.5 56t-55.5 152q0 122 80.5 216.5t204.5 94.5q93 0 149.5 -53t46.5 -133h-82z" />
    <glyph glyph-name="Cdotaccent" unicode="&#x10a;" horiz-adv-x="739" 
d="M444 793l23 101h108l-23 -101h-108zM678 242q-40 -130 -130 -191t-206 -61q-130 0 -201.5 73.5t-73.5 206.5q-2 116 48.5 216.5t145.5 162t214 61.5q125 0 191.5 -66.5t58.5 -172.5h-90q4 72 -39 116t-129 44q-92 0 -164 -51.5t-108.5 -131t-36.5 -169.5
q0 -100 49.5 -155.5t147.5 -55.5q162 0 233 174h90z" />
    <glyph glyph-name="cdotaccent" unicode="&#x10b;" horiz-adv-x="563" 
d="M302 588l21 92h98l-21 -92h-98zM437 323q4 55 -26.5 86t-85.5 31q-87 0 -144.5 -72t-57.5 -166q0 -65 32 -104t94 -39q109 0 155 110h86q-69 -179 -242 -179q-99 0 -154.5 56t-55.5 152q0 122 80.5 216.5t204.5 94.5q93 0 149.5 -53t46.5 -133h-82z" />
    <glyph glyph-name="Ccaron" unicode="&#x10c;" horiz-adv-x="739" 
d="M585 910h89l-137 -140h-90l-72 140h82l44 -85zM678 242q-40 -130 -130 -191t-206 -61q-130 0 -201.5 73.5t-73.5 206.5q-2 116 48.5 216.5t145.5 162t214 61.5q125 0 191.5 -66.5t58.5 -172.5h-90q4 72 -39 116t-129 44q-92 0 -164 -51.5t-108.5 -131t-36.5 -169.5
q0 -100 49.5 -155.5t147.5 -55.5q162 0 233 174h90z" />
    <glyph glyph-name="ccaron" unicode="&#x10d;" horiz-adv-x="563" 
d="M429 688h81l-125 -127h-82l-65 127h74l41 -77zM437 323q4 55 -26.5 86t-85.5 31q-87 0 -144.5 -72t-57.5 -166q0 -65 32 -104t94 -39q109 0 155 110h86q-69 -179 -242 -179q-99 0 -154.5 56t-55.5 152q0 122 80.5 216.5t204.5 94.5q93 0 149.5 -53t46.5 -133h-82z" />
    <glyph glyph-name="Dcaron" unicode="&#x10e;" horiz-adv-x="703" 
d="M478 770h-90l-72 140h82l44 -85l84 85h89zM394 700q136 0 209.5 -79t73.5 -211q0 -59 -14 -115t-46.5 -110t-80 -95t-120.5 -65.5t-161 -24.5h-230l162 700h207zM253 78q77 0 137.5 24t95.5 59.5t57.5 83t30.5 89t8 82.5q0 206 -210 206h-113l-126 -544h120z" />
    <glyph glyph-name="dcaron" unicode="&#x10f;" horiz-adv-x="577" 
d="M456 409l70 301h83l-164 -710h-83l16 70q-64 -80 -168 -80q-82 0 -127.5 54.5t-45.5 145.5q0 129 80.5 224.5t187.5 95.5q58 0 98.5 -30t52.5 -71zM680 693h100l-14 -59q-19 -75 -48.5 -103t-96.5 -35l11 40q33 3 48.5 18.5t23.5 49.5h-46zM232 59q83 0 136.5 73
t53.5 169q0 66 -29 102t-83 36q-56 0 -100.5 -39t-65.5 -95t-21 -115q0 -62 27 -96.5t82 -34.5z" />
    <glyph glyph-name="Dcroat" unicode="&#x110;" horiz-adv-x="703" 
d="M394 700q136 0 209.5 -79t73.5 -211q0 -59 -14 -115t-46.5 -110t-80 -95t-120.5 -65.5t-161 -24.5h-230l72 311h-135l19 77h134l72 312h207zM253 78q77 0 137.5 24t95.5 59.5t57.5 83t30.5 89t8 82.5q0 206 -210 206h-113l-54 -234h244l-18 -77h-244l-54 -233h120z" />
    <glyph glyph-name="dcroat" unicode="&#x111;" horiz-adv-x="577" 
d="M669 627l-15 -66h-79l-130 -561h-83l16 70q-64 -80 -168 -80q-82 0 -127.5 54.5t-45.5 145.5q0 129 80.5 224.5t187.5 95.5q58 0 98.5 -30t52.5 -71l36 152h-141l16 66h140l19 83h83l-19 -83h79zM232 59q83 0 136.5 73t53.5 169q0 66 -29 102t-83 36q-56 0 -100.5 -39
t-65.5 -95t-21 -115q0 -62 27 -96.5t82 -34.5z" />
    <glyph glyph-name="Emacron" unicode="&#x112;" horiz-adv-x="584" 
d="M593 861l-15 -71h-307l15 71h307zM601 620h-342l-52 -227h322l-18 -76h-322l-54 -237h341l-18 -80h-433l162 700h433z" />
    <glyph glyph-name="emacron" unicode="&#x113;" horiz-adv-x="563" 
d="M488 647l-14 -64h-279l14 64h279zM322 509q108 0 155.5 -72.5t25.5 -190.5q-1 -5 -2 -8.5t-1.5 -5t-0.5 -2.5v-2h-374q-1 -9 -1 -27q0 -67 33 -105t98 -38q103 0 148 103h82q-28 -81 -87 -126t-147 -45q-103 0 -157.5 59t-54.5 155q0 121 79.5 213t203.5 92zM138 290h291
q8 67 -17 109.5t-91 42.5q-67 0 -114.5 -43t-68.5 -109z" />
    <glyph glyph-name="Ebreve" unicode="&#x114;" horiz-adv-x="584" 
d="M429 770q-63 0 -96.5 41.5t-21.5 95.5h73q-5 -30 7.5 -50.5t45.5 -20.5q32 0 53 20.5t29 50.5h75q-15 -61 -58.5 -99t-106.5 -38zM601 620h-342l-52 -227h322l-18 -76h-322l-54 -237h341l-18 -80h-433l162 700h433z" />
    <glyph glyph-name="ebreve" unicode="&#x115;" horiz-adv-x="563" 
d="M337 565q-57 0 -87.5 37.5t-19.5 87.5h66q-4 -28 7.5 -46.5t40.5 -18.5t48.5 19t26.5 46h68q-13 -55 -53 -90t-97 -35zM322 509q108 0 155.5 -72.5t25.5 -190.5q-1 -5 -2 -8.5t-1.5 -5t-0.5 -2.5v-2h-374q-1 -9 -1 -27q0 -67 33 -105t98 -38q103 0 148 103h82
q-28 -81 -87 -126t-147 -45q-103 0 -157.5 59t-54.5 155q0 121 79.5 213t203.5 92zM138 290h291q8 67 -17 109.5t-91 42.5q-67 0 -114.5 -43t-68.5 -109z" />
    <glyph glyph-name="Edotaccent" unicode="&#x116;" horiz-adv-x="584" 
d="M502 894l-23 -101h-108l23 101h108zM601 620h-342l-52 -227h322l-18 -76h-322l-54 -237h341l-18 -80h-433l162 700h433z" />
    <glyph glyph-name="edotaccent" unicode="&#x117;" horiz-adv-x="563" 
d="M406 680l-21 -92h-98l21 92h98zM322 509q108 0 155.5 -72.5t25.5 -190.5q-1 -5 -2 -8.5t-1.5 -5t-0.5 -2.5v-2h-374q-1 -9 -1 -27q0 -67 33 -105t98 -38q103 0 148 103h82q-28 -81 -87 -126t-147 -45q-103 0 -157.5 59t-54.5 155q0 121 79.5 213t203.5 92zM138 290h291
q8 67 -17 109.5t-91 42.5q-67 0 -114.5 -43t-68.5 -109z" />
    <glyph glyph-name="Eogonek" unicode="&#x118;" horiz-adv-x="584" 
d="M601 620h-342l-52 -227h322l-18 -76h-322l-54 -237h341l-18 -80h-95q-106 -55 -106 -116q0 -46 69 -46h19l-15 -64h-30q-59 0 -89 30t-30 72q0 41 27 69t78 55h-261l162 700h433z" />
    <glyph glyph-name="eogonek" unicode="&#x119;" horiz-adv-x="563" 
d="M322 509q108 0 155.5 -72.5t25.5 -190.5q-1 -5 -2 -8.5t-1.5 -5t-0.5 -2.5v-2h-374q-1 -9 -1 -27q0 -67 33 -105t98 -38q103 0 148 103h82q-26 -76 -79.5 -120.5t-132.5 -49.5q-79 -47 -79 -96q0 -42 63 -42h17l-14 -58h-27q-53 0 -80.5 27t-27.5 65q0 61 82 106
q-82 12 -125 69t-43 142q0 121 79.5 213t203.5 92zM138 290h291q8 67 -17 109.5t-91 42.5q-67 0 -114.5 -43t-68.5 -109z" />
    <glyph glyph-name="Ecaron" unicode="&#x11a;" horiz-adv-x="584" 
d="M464 770h-90l-72 140h82l44 -85l84 85h89zM601 620h-342l-52 -227h322l-18 -76h-322l-54 -237h341l-18 -80h-433l162 700h433z" />
    <glyph glyph-name="ecaron" unicode="&#x11b;" horiz-adv-x="563" 
d="M370 561h-82l-65 127h74l41 -77l76 77h81zM322 509q108 0 155.5 -72.5t25.5 -190.5q-1 -5 -2 -8.5t-1.5 -5t-0.5 -2.5v-2h-374q-1 -9 -1 -27q0 -67 33 -105t98 -38q103 0 148 103h82q-28 -81 -87 -126t-147 -45q-103 0 -157.5 59t-54.5 155q0 121 79.5 213t203.5 92z
M138 290h291q8 67 -17 109.5t-91 42.5q-67 0 -114.5 -43t-68.5 -109z" />
    <glyph glyph-name="Gcircumflex" unicode="&#x11c;" horiz-adv-x="760" 
d="M523 853l-84 -85h-89l138 140h90l71 -140h-82zM730 466h-89q9 80 -30.5 123.5t-123.5 43.5q-138 0 -234 -105.5t-96 -250.5q0 -95 48.5 -152t152.5 -57q200 0 249 214h-244l16 73h328l-3 -14l-1 -5l-12 -54h-1l-65 -282h-61l18 115q-85 -124 -242 -125q-129 -1 -200.5 74
t-73.5 205q-2 116 50.5 217t150.5 162.5t219 61.5q129 0 195 -68t49 -176z" />
    <glyph glyph-name="gcircumflex" unicode="&#x11d;" horiz-adv-x="574" 
d="M359 638l-76 -77h-81l125 127h82l65 -127h-75zM475 500h82l-102 -442l-14 -62q-26 -115 -89 -170.5t-169 -55.5q-112 0 -157 53.5t-32 130.5h78q-6 -49 18 -82t93 -33q78 0 119 44t59 123l12 52l2 8q-63 -76 -165 -76q-80 0 -127 52t-47 146q0 130 82.5 226t191.5 96
q53 0 92 -26t53 -71zM232 59q85 0 136.5 72.5t51.5 173.5q0 133 -105 133q-87 0 -140 -77t-53 -172q0 -130 110 -130z" />
    <glyph glyph-name="Gbreve" unicode="&#x11e;" horiz-adv-x="760" 
d="M510 770q-63 0 -96.5 41.5t-21.5 95.5h73q-5 -30 7.5 -50.5t45.5 -20.5q32 0 53 20.5t29 50.5h75q-15 -61 -58.5 -99t-106.5 -38zM730 466h-89q9 80 -30.5 123.5t-123.5 43.5q-138 0 -234 -105.5t-96 -250.5q0 -95 48.5 -152t152.5 -57q200 0 249 214h-244l16 73h328
l-3 -14l-1 -5l-12 -54h-1l-65 -282h-61l18 115q-85 -124 -242 -125q-129 -1 -200.5 74t-73.5 205q-2 116 50.5 217t150.5 162.5t219 61.5q129 0 195 -68t49 -176z" />
    <glyph glyph-name="gbreve" unicode="&#x11f;" horiz-adv-x="574" 
d="M345 565q-57 0 -87.5 37.5t-19.5 87.5h66q-4 -28 7.5 -46.5t40.5 -18.5t48.5 19t26.5 46h68q-13 -55 -53 -90t-97 -35zM475 500h82l-102 -442l-14 -62q-26 -115 -89 -170.5t-169 -55.5q-112 0 -157 53.5t-32 130.5h78q-6 -49 18 -82t93 -33q78 0 119 44t59 123l12 52l2 8
q-63 -76 -165 -76q-80 0 -127 52t-47 146q0 130 82.5 226t191.5 96q53 0 92 -26t53 -71zM232 59q85 0 136.5 72.5t51.5 173.5q0 133 -105 133q-87 0 -140 -77t-53 -172q0 -130 110 -130z" />
    <glyph glyph-name="Gdotaccent" unicode="&#x120;" horiz-adv-x="760" 
d="M583 894l-23 -101h-108l23 101h108zM730 466h-89q9 80 -30.5 123.5t-123.5 43.5q-138 0 -234 -105.5t-96 -250.5q0 -95 48.5 -152t152.5 -57q200 0 249 214h-244l16 73h328l-3 -14l-1 -5l-12 -54h-1l-65 -282h-61l18 115q-85 -124 -242 -125q-129 -1 -200.5 74t-73.5 205
q-2 116 50.5 217t150.5 162.5t219 61.5q129 0 195 -68t49 -176z" />
    <glyph glyph-name="gdotaccent" unicode="&#x121;" horiz-adv-x="574" 
d="M414 680l-21 -92h-98l21 92h98zM475 500h82l-102 -442l-14 -62q-26 -115 -89 -170.5t-169 -55.5q-112 0 -157 53.5t-32 130.5h78q-6 -49 18 -82t93 -33q78 0 119 44t59 123l12 52l2 8q-63 -76 -165 -76q-80 0 -127 52t-47 146q0 130 82.5 226t191.5 96q53 0 92 -26
t53 -71zM232 59q85 0 136.5 72.5t51.5 173.5q0 133 -105 133q-87 0 -140 -77t-53 -172q0 -130 110 -130z" />
    <glyph glyph-name="Gcommaaccent" unicode="&#x122;" horiz-adv-x="760" 
d="M730 466h-89q9 80 -30.5 123.5t-123.5 43.5q-138 0 -234 -105.5t-96 -250.5q0 -95 48.5 -152t152.5 -57q200 0 249 214h-244l16 73h328l-3 -14l-1 -5l-12 -54h-1l-65 -282h-61l18 115q-85 -124 -242 -125q-129 -1 -200.5 74t-73.5 205q-2 116 50.5 217t150.5 162.5
t219 61.5q129 0 195 -68t49 -176zM238 -166l23 95h106l-15 -63q-19 -80 -51 -110t-102 -38l11 43q35 3 51.5 19.5t25.5 53.5h-49z" />
    <glyph glyph-name="gcommaaccent" unicode="&#x123;" horiz-adv-x="574" 
d="M437 651l-18 -79h-84l12 53q16 66 41 91t80 31l-8 -35q-29 -3 -41.5 -16.5t-19.5 -44.5h38zM475 500h82l-102 -442l-14 -62q-26 -115 -89 -170.5t-169 -55.5q-112 0 -157 53.5t-32 130.5h78q-6 -49 18 -82t93 -33q78 0 119 44t59 123l12 52l2 8q-63 -76 -165 -76
q-80 0 -127 52t-47 146q0 130 82.5 226t191.5 96q53 0 92 -26t53 -71zM232 59q85 0 136.5 72.5t51.5 173.5q0 133 -105 133q-87 0 -140 -77t-53 -172q0 -130 110 -130z" />
    <glyph glyph-name="Hcircumflex" unicode="&#x124;" horiz-adv-x="723" 
d="M505 853l-84 -85h-89l138 140h90l71 -140h-82zM651 700h93l-162 -700h-93l73 316h-372l-73 -316h-92l162 700h92l-71 -305h372z" />
    <glyph glyph-name="hcircumflex" unicode="&#x125;" horiz-adv-x="578" 
d="M259 848l-76 -77h-81l125 127h82l65 -127h-75zM401 510q75 0 108 -51.5t11 -145.5l-72 -313h-85l66 284q20 80 5.5 118t-67.5 38q-66 0 -133 -77.5t-97 -208.5l10 47l-46 -201h-84l115 500h1l49 210h84l-49 -210h-1l-34 -148q93 158 219 158z" />
    <glyph glyph-name="Hbar" unicode="&#x126;" horiz-adv-x="708" 
d="M648 700h93l-162 -700h-93l42 182h-372l-42 -182h-92l162 700h92l-44 -190h372zM174 261h372l40 170h-372z" />
    <glyph glyph-name="hbar" unicode="&#x127;" horiz-adv-x="578" 
d="M401 510q75 0 108 -51.5t11 -145.5l-72 -313h-85l66 284q20 80 5.5 118t-67.5 38q-66 0 -133 -77.5t-97 -208.5l10 47l-46 -201h-84l115 500h1l14 61h-96l16 66h96l19 83h84l-19 -83h122l-15 -66h-123l-14 -61h-1l-34 -148q93 158 219 158z" />
    <glyph glyph-name="Itilde" unicode="&#x128;" horiz-adv-x="257" 
d="M68 785q42 121 138 121q41 0 74 -27t58 -27q42 0 63 51h62q-21 -60 -57.5 -90.5t-79.5 -30.5q-27 0 -47.5 8.5t-30 18.5t-23.5 18.5t-31 8.5q-42 0 -67 -51h-59zM116 0h-91l162 700h91z" />
    <glyph glyph-name="itilde" unicode="&#x129;" horiz-adv-x="234" 
d="M28 570q37 110 123 110q37 0 66.5 -24.5t51.5 -24.5q37 0 56 46h55q-19 -54 -51 -82t-71 -28t-68.5 24.5t-49.5 24.5q-18 0 -34 -13t-25 -33h-53zM102 0h-85l115 500h85z" />
    <glyph glyph-name="Imacron" unicode="&#x12a;" horiz-adv-x="257" 
d="M115 861h307l-15 -71h-307zM116 0h-91l162 700h91z" />
    <glyph glyph-name="imacron" unicode="&#x12b;" horiz-adv-x="234" 
d="M69 647h279l-14 -64h-279zM102 0h-85l115 500h85z" />
    <glyph glyph-name="Ibreve" unicode="&#x12c;" horiz-adv-x="257" 
d="M423 907q-15 -61 -58.5 -99t-106.5 -38t-96.5 41.5t-21.5 95.5h73q-5 -30 7.5 -50.5t45.5 -20.5q32 0 53 20.5t29 50.5h75zM116 0h-91l162 700h91z" />
    <glyph glyph-name="ibreve" unicode="&#x12d;" horiz-adv-x="234" 
d="M347 690q-13 -55 -53 -90t-97 -35t-87.5 37.5t-19.5 87.5h66q-4 -28 7.5 -46.5t40.5 -18.5t48.5 19t26.5 46h68zM102 0h-85l115 500h85z" />
    <glyph glyph-name="Iogonek" unicode="&#x12e;" horiz-adv-x="257" 
d="M116 0q-106 -55 -106 -116q0 -46 69 -46h19l-15 -64h-30q-59 0 -89 30t-30 72q0 41 27 69t78 55h-14l162 700h91z" />
    <glyph glyph-name="iogonek" unicode="&#x12f;" horiz-adv-x="234" 
d="M168 680h98l-21 -92h-98zM17 0l115 500h85l-115 -500q-41 -21 -68.5 -48.5t-27.5 -56.5q0 -42 63 -42h17l-14 -58h-27q-53 0 -80.5 27t-27.5 65q0 37 24.5 63t70.5 50h-15z" />
    <glyph glyph-name="Idotaccent" unicode="&#x130;" horiz-adv-x="257" 
d="M200 793l23 101h108l-23 -101h-108zM116 0h-91l162 700h91z" />
    <glyph glyph-name="dotlessi" unicode="&#x131;" horiz-adv-x="234" 
d="M102 0h-85l115 500h85z" />
    <glyph glyph-name="IJ" unicode="&#x132;" horiz-adv-x="884" 
d="M116 0h-91l162 700h91zM816 700h91l-106 -456q-29 -124 -104 -189t-191 -65q-122 0 -176.5 69.5t-26.5 195.5l7 32h88l-7 -32q-20 -91 11.5 -138.5t107.5 -47.5q159 0 206 201z" />
    <glyph glyph-name="ij" unicode="&#x133;" horiz-adv-x="468" 
d="M266 680l-21 -92h-98l21 92h98zM402 680h98l-21 -92h-98zM217 500l-115 -500h-85l115 500h85zM366 500h85l-111 -483l-24 -103q-15 -64 -60 -99t-117 -35h-98l16 70h70q89 0 111 95l14 57z" />
    <glyph glyph-name="Jcircumflex" unicode="&#x134;" horiz-adv-x="637" 
d="M779 768h-82l-44 85l-84 -85h-89l138 140h90zM569 700h91l-106 -456q-29 -124 -104 -189t-191 -65q-122 0 -176.5 69.5t-26.5 195.5l7 32h88l-7 -32q-20 -91 11.5 -138.5t107.5 -47.5q159 0 206 201z" />
    <glyph glyph-name="jcircumflex" unicode="&#x135;" horiz-adv-x="234" 
d="M261 688l65 -127h-75l-40 77l-76 -77h-81l125 127h82zM132 500h85l-111 -483l-24 -103q-15 -64 -60 -99t-117 -35h-98l16 70h70q89 0 111 95l14 57z" />
    <glyph glyph-name="Kcommaaccent" unicode="&#x136;" horiz-adv-x="610" 
d="M676 700l-355 -320l211 -380h-101l-178 318l-81 -74l-57 -244h-90l162 700h90l-74 -318l352 318h121zM170 -166l23 95h106l-15 -63q-19 -80 -51 -110t-102 -38l11 43q35 3 51.5 19.5t25.5 53.5h-49z" />
    <glyph glyph-name="kcommaaccent" unicode="&#x137;" horiz-adv-x="505" 
d="M533 500l-261 -221l158 -279h-90l-128 227l-78 -65l-37 -162h-81l164 710h81l-100 -431l263 221h109zM129 -151l21 87h96l-14 -58q-18 -73 -47 -100.5t-92 -33.5l10 38q33 4 47.5 19t22.5 48h-44z" />
    <glyph glyph-name="Lacute" unicode="&#x139;" horiz-adv-x="580" 
d="M430 919l-155 -142h-92l129 142h118zM137 81h355l-18 -81h-449l162 700h93z" />
    <glyph glyph-name="lacute" unicode="&#x13a;" horiz-adv-x="234" 
d="M292 909h107l-141 -129h-83zM102 0h-86l164 710h86z" />
    <glyph glyph-name="Lcommaaccent" unicode="&#x13b;" horiz-adv-x="580" 
d="M137 81h355l-18 -81h-449l162 700h93zM160 -166l23 95h106l-15 -63q-19 -80 -51 -110t-102 -38l11 43q35 3 51.5 19.5t25.5 53.5h-49z" />
    <glyph glyph-name="lcommaaccent" unicode="&#x13c;" horiz-adv-x="234" 
d="M180 710h86l-164 -710h-86zM-23 -151l21 87h96l-14 -58q-18 -73 -47 -100.5t-92 -33.5l10 38q33 4 47.5 19t22.5 48h-44z" />
    <glyph glyph-name="Lcaron" unicode="&#x13d;" horiz-adv-x="580" 
d="M412 702h106l-15 -63q-19 -80 -51 -110t-102 -38l11 43q35 3 51.5 19.5t25.5 53.5h-49zM280 700l-143 -619h355l-18 -81h-449l162 700h93z" />
    <glyph glyph-name="lcaron" unicode="&#x13e;" horiz-adv-x="234" 
d="M16 0l164 710h86l-164 -710h-86zM337 698h100l-14 -59q-19 -75 -48.5 -103t-96.5 -35l11 40q33 3 48.5 18.5t23.5 49.5h-46z" />
    <glyph glyph-name="Ldot" unicode="&#x13f;" horiz-adv-x="580" 
d="M137 81h355l-18 -81h-449l162 700h93zM437 433l-22 -99h-102l23 99h101z" />
    <glyph glyph-name="Lslash" unicode="&#x141;" horiz-adv-x="580" 
d="M137 81h355l-18 -81h-449l58 251l-118 -69l21 95l119 69l82 354h93l-67 -291l191 111l-22 -95l-191 -112z" />
    <glyph glyph-name="lslash" unicode="&#x142;" horiz-adv-x="234" 
d="M319 520l-19 -85l-117 -84l-81 -351h-86l64 277l-117 -84l20 85l117 84l80 348h86l-63 -274z" />
    <glyph glyph-name="Nacute" unicode="&#x143;" horiz-adv-x="728" 
d="M664 919l-155 -142h-92l129 142h118zM661 700h88l-162 -700h-108l-226 601l-139 -601h-89l162 700h110l225 -601z" />
    <glyph glyph-name="nacute" unicode="&#x144;" horiz-adv-x="578" 
d="M518 699l-141 -129h-83l117 129h107zM401 510q75 0 108 -51.5t11 -145.5l-72 -313h-85l66 284q20 80 5.5 118t-67.5 38q-66 0 -133 -77.5t-97 -208.5l10 47l-46 -201h-84l115 500h84l-34 -148q93 158 219 158z" />
    <glyph glyph-name="Ncommaaccent" unicode="&#x145;" horiz-adv-x="728" 
d="M661 700h88l-162 -700h-108l-226 601l-139 -601h-89l162 700h110l225 -601zM227 -166l23 95h106l-15 -63q-19 -80 -51 -110t-102 -38l11 43q35 3 51.5 19.5t25.5 53.5h-49z" />
    <glyph glyph-name="ncommaaccent" unicode="&#x146;" horiz-adv-x="578" 
d="M401 510q75 0 108 -51.5t11 -145.5l-72 -313h-85l66 284q20 80 5.5 118t-67.5 38q-66 0 -133 -77.5t-97 -208.5l10 47l-46 -201h-84l115 500h84l-34 -148q93 158 219 158zM153 -151l21 87h96l-14 -58q-18 -73 -47 -100.5t-92 -33.5l10 38q33 4 47.5 19t22.5 48h-44z" />
    <glyph glyph-name="Ncaron" unicode="&#x147;" horiz-adv-x="728" 
d="M528 770h-90l-72 140h82l44 -85l84 85h89zM661 700h88l-162 -700h-108l-226 601l-139 -601h-89l162 700h110l225 -601z" />
    <glyph glyph-name="ncaron" unicode="&#x148;" horiz-adv-x="578" 
d="M397 561h-82l-65 127h74l41 -77l76 77h81zM401 510q75 0 108 -51.5t11 -145.5l-72 -313h-85l66 284q20 80 5.5 118t-67.5 38q-66 0 -133 -77.5t-97 -208.5l10 47l-46 -201h-84l115 500h84l-34 -148q93 158 219 158z" />
    <glyph glyph-name="Eng" unicode="&#x14a;" horiz-adv-x="728" 
d="M749 700l-156 -675l-19 -84q-38 -161 -199 -161h-89l18 75h66q94 0 118 99l10 46h-19l-226 601l-139 -601h-89l162 700h110l225 -601l139 601h88z" />
    <glyph glyph-name="eng" unicode="&#x14b;" horiz-adv-x="578" 
d="M401 510q75 0 108 -51.5t11 -145.5l-68 -296l-24 -103q-15 -64 -60 -99t-117 -35h-98l16 70h70q89 0 111 95l14 59l65 280q20 80 5.5 118t-67.5 38q-66 0 -133 -77.5t-97 -208.5l10 47l-46 -201h-84l115 500h84l-34 -148q93 158 219 158z" />
    <glyph glyph-name="Omacron" unicode="&#x14c;" horiz-adv-x="780" 
d="M363 861h307l-15 -71h-307zM345 -10q-136 0 -206.5 77.5t-70.5 213.5q0 184 116.5 306.5t293.5 122.5q136 0 206.5 -78t70.5 -214q0 -182 -116.5 -305t-293.5 -123zM351 69q130 0 219 103t89 248q0 100 -47.5 155.5t-139.5 55.5q-130 0 -219 -102.5t-89 -248.5
q0 -101 48 -156t139 -55z" />
    <glyph glyph-name="omacron" unicode="&#x14d;" horiz-adv-x="575" 
d="M233 647h279l-14 -64h-279zM244 -10q-99 0 -152 58t-53 155q0 128 85.5 217t210.5 89q98 0 149.5 -58t51.5 -155q0 -130 -83.5 -218t-208.5 -88zM248 58q87 0 145 73.5t58 167.5q0 65 -30.5 103t-92.5 38q-87 0 -145 -72.5t-58 -167.5q0 -65 30.5 -103.5t92.5 -38.5z" />
    <glyph glyph-name="Obreve" unicode="&#x14e;" horiz-adv-x="780" 
d="M671 907q-15 -61 -58.5 -99t-106.5 -38t-96.5 41.5t-21.5 95.5h73q-5 -30 7.5 -50.5t45.5 -20.5q32 0 53 20.5t29 50.5h75zM345 -10q-136 0 -206.5 77.5t-70.5 213.5q0 184 116.5 306.5t293.5 122.5q136 0 206.5 -78t70.5 -214q0 -182 -116.5 -305t-293.5 -123zM351 69
q130 0 219 103t89 248q0 100 -47.5 155.5t-139.5 55.5q-130 0 -219 -102.5t-89 -248.5q0 -101 48 -156t139 -55z" />
    <glyph glyph-name="obreve" unicode="&#x14f;" horiz-adv-x="575" 
d="M511 690q-13 -55 -53 -90t-97 -35t-87.5 37.5t-19.5 87.5h66q-4 -28 7.5 -46.5t40.5 -18.5t48.5 19t26.5 46h68zM244 -10q-99 0 -152 58t-53 155q0 128 85.5 217t210.5 89q98 0 149.5 -58t51.5 -155q0 -130 -83.5 -218t-208.5 -88zM248 58q87 0 145 73.5t58 167.5
q0 65 -30.5 103t-92.5 38q-87 0 -145 -72.5t-58 -167.5q0 -65 30.5 -103.5t92.5 -38.5z" />
    <glyph glyph-name="Ohungarumlaut" unicode="&#x150;" horiz-adv-x="780" 
d="M482 921h101l-128 -142h-83zM649 921h103l-130 -142h-83zM345 -10q-136 0 -206.5 77.5t-70.5 213.5q0 184 116.5 306.5t293.5 122.5q136 0 206.5 -78t70.5 -214q0 -182 -116.5 -305t-293.5 -123zM351 69q130 0 219 103t89 248q0 100 -47.5 155.5t-139.5 55.5
q-130 0 -219 -102.5t-89 -248.5q0 -101 48 -156t139 -55z" />
    <glyph glyph-name="ohungarumlaut" unicode="&#x151;" horiz-adv-x="575" 
d="M335 692h92l-117 -129h-75zM487 692h93l-118 -129h-75zM244 -10q-99 0 -152 58t-53 155q0 128 85.5 217t210.5 89q98 0 149.5 -58t51.5 -155q0 -130 -83.5 -218t-208.5 -88zM248 58q87 0 145 73.5t58 167.5q0 65 -30.5 103t-92.5 38q-87 0 -145 -72.5t-58 -167.5
q0 -65 30.5 -103.5t92.5 -38.5z" />
    <glyph glyph-name="OE" unicode="&#x152;" horiz-adv-x="1140" 
d="M1157 620h-342l-52 -227h322l-18 -76h-322l-54 -237h341l-18 -80h-433l18 76q-110 -86 -254 -86q-136 0 -206.5 77.5t-70.5 213.5q0 184 116.5 306.5t293.5 122.5q171 0 239 -123l26 113h433zM351 69q130 0 219 103t89 248q0 100 -47.5 155.5t-139.5 55.5
q-130 0 -219 -102.5t-89 -248.5q0 -101 48 -156t139 -55z" />
    <glyph glyph-name="oe" unicode="&#x153;" horiz-adv-x="969" 
d="M727 509q108 0 155.5 -72.5t25.5 -190.5q-1 -5 -2 -8.5t-1.5 -5t-0.5 -2.5v-2h-374q-1 -9 -1 -27q0 -67 33 -105t98 -38q103 0 148 103h82q-28 -81 -87 -126t-147 -45q-138 0 -189 105q-84 -105 -223 -105q-99 0 -152 58t-53 155q0 128 85.5 217t210.5 89q132 0 179 -103
q83 103 213 103zM543 290h291q8 67 -17 109.5t-91 42.5q-67 0 -114.5 -43t-68.5 -109zM248 58q87 0 145 73.5t58 167.5q0 65 -30.5 103t-92.5 38q-87 0 -145 -72.5t-58 -167.5q0 -65 30.5 -103.5t92.5 -38.5z" />
    <glyph glyph-name="Racute" unicode="&#x154;" horiz-adv-x="636" 
d="M591 919l-155 -142h-92l129 142h118zM623 510q0 -76 -48.5 -132.5t-153.5 -75.5q85 -31 98 -138l19 -164h-94l-16 159q-3 24 -10 42t-15.5 30.5t-27 20.5t-33 12.5t-46 6.5t-53.5 2.5t-66 0.5l-63 -274h-89l162 700h220q112 0 164 -54.5t52 -135.5zM355 351
q89 0 132.5 44t43.5 107q0 50 -29 84t-90 34h-155l-62 -269h160z" />
    <glyph glyph-name="racute" unicode="&#x155;" horiz-adv-x="427" 
d="M461 699l-141 -129h-83l117 129h107zM193 394q58 109 176 106h78l-16 -72h-66q-79 0 -132 -47.5t-83 -175.5l5 24l-53 -229h-85l115 500h85z" />
    <glyph glyph-name="Rcommaaccent" unicode="&#x156;" horiz-adv-x="636" 
d="M623 510q0 -76 -48.5 -132.5t-153.5 -75.5q85 -31 98 -138l19 -164h-94l-16 159q-3 24 -10 42t-15.5 30.5t-27 20.5t-33 12.5t-46 6.5t-53.5 2.5t-66 0.5l-63 -274h-89l162 700h220q112 0 164 -54.5t52 -135.5zM355 351q89 0 132.5 44t43.5 107q0 50 -29 84t-90 34h-155
l-62 -269h160zM189 -166l23 95h106l-15 -63q-19 -80 -51 -110t-102 -38l11 43q35 3 51.5 19.5t25.5 53.5h-49z" />
    <glyph glyph-name="rcommaaccent" unicode="&#x157;" horiz-adv-x="427" 
d="M369 500h78l-16 -72h-66q-79 0 -132 -47.5t-83 -175.5l5 24l-53 -229h-85l115 500h85l-24 -106q58 109 176 106zM-22 -151l21 87h96l-14 -58q-18 -73 -47 -100.5t-92 -33.5l10 38q33 4 47.5 19t22.5 48h-44z" />
    <glyph glyph-name="Rcaron" unicode="&#x158;" horiz-adv-x="636" 
d="M455 770h-90l-72 140h82l44 -85l84 85h89zM623 510q0 -76 -48.5 -132.5t-153.5 -75.5q85 -31 98 -138l19 -164h-94l-16 159q-3 24 -10 42t-15.5 30.5t-27 20.5t-33 12.5t-46 6.5t-53.5 2.5t-66 0.5l-63 -274h-89l162 700h220q112 0 164 -54.5t52 -135.5zM355 351
q89 0 132.5 44t43.5 107q0 50 -29 84t-90 34h-155l-62 -269h160z" />
    <glyph glyph-name="rcaron" unicode="&#x159;" horiz-adv-x="427" 
d="M340 561h-82l-65 127h74l41 -77l76 77h81zM193 394q58 109 176 106h78l-16 -72h-66q-79 0 -132 -47.5t-83 -175.5l5 24l-53 -229h-85l115 500h85z" />
    <glyph glyph-name="Sacute" unicode="&#x15a;" horiz-adv-x="640" 
d="M480 919h118l-155 -142h-92zM145 207q-8 -71 23.5 -105t105.5 -34q77 0 118 33.5t41 85.5q0 45 -33 66.5t-130 52.5q-86 27 -127.5 69t-41.5 108q0 100 84 163.5t205 63.5q122 0 189 -66.5t50 -180.5h-89q9 78 -27 123t-122 45q-83 0 -140 -39t-57 -105q0 -48 33.5 -71.5
t119.5 -51.5q38 -11 62.5 -21t55 -30t46 -51t15.5 -73q0 -88 -69 -143.5t-184 -55.5q-116 0 -173.5 58.5t-43.5 158.5h89z" />
    <glyph glyph-name="sacute" unicode="&#x15b;" horiz-adv-x="501" 
d="M356 699h107l-141 -129h-83zM117 152q-7 -47 18 -71.5t80 -24.5q51 0 80.5 20t29.5 57q0 16 -5 27t-20 20t-24 13t-37 13t-39 13q-65 21 -98 50t-33 80q0 72 62 116t153 44t145.5 -46.5t43.5 -135.5h-78q9 58 -23 86.5t-92 28.5q-61 0 -94.5 -26.5t-33.5 -64.5
q0 -20 13 -34t30.5 -21.5t59.5 -21.5q4 -1 6 -2q34 -11 55.5 -20.5t45.5 -25.5t36 -39t12 -53q0 -68 -57.5 -106t-139.5 -38q-90 0 -138 46t-37 116h79z" />
    <glyph glyph-name="Scircumflex" unicode="&#x15c;" horiz-adv-x="640" 
d="M566 768h-82l-44 85l-84 -85h-89l138 140h90zM145 207q-8 -71 23.5 -105t105.5 -34q77 0 118 33.5t41 85.5q0 45 -33 66.5t-130 52.5q-86 27 -127.5 69t-41.5 108q0 100 84 163.5t205 63.5q122 0 189 -66.5t50 -180.5h-89q9 78 -27 123t-122 45q-83 0 -140 -39t-57 -105
q0 -48 33.5 -71.5t119.5 -51.5q38 -11 62.5 -21t55 -30t46 -51t15.5 -73q0 -88 -69 -143.5t-184 -55.5q-116 0 -173.5 58.5t-43.5 158.5h89z" />
    <glyph glyph-name="scircumflex" unicode="&#x15d;" horiz-adv-x="501" 
d="M438 561h-75l-40 77l-76 -77h-81l125 127h82zM117 152q-7 -47 18 -71.5t80 -24.5q51 0 80.5 20t29.5 57q0 16 -5 27t-20 20t-24 13t-37 13t-39 13q-65 21 -98 50t-33 80q0 72 62 116t153 44t145.5 -46.5t43.5 -135.5h-78q9 58 -23 86.5t-92 28.5q-61 0 -94.5 -26.5
t-33.5 -64.5q0 -20 13 -34t30.5 -21.5t59.5 -21.5q4 -1 6 -2q34 -11 55.5 -20.5t45.5 -25.5t36 -39t12 -53q0 -68 -57.5 -106t-139.5 -38q-90 0 -138 46t-37 116h79z" />
    <glyph glyph-name="Scedilla" unicode="&#x15e;" horiz-adv-x="640" 
d="M390 710q122 0 189 -66.5t50 -180.5h-89q9 78 -27 123t-122 45q-83 0 -140 -39t-57 -105q0 -48 33.5 -71.5t119.5 -51.5q38 -11 62.5 -21t55 -30t46 -51t15.5 -73q0 -85 -65 -140t-173 -59q41 -36 41 -88q0 -55 -43.5 -91.5t-123.5 -36.5h-53l14 63h40q47 0 71.5 20
t24.5 53q0 46 -50 85q-85 16 -124.5 71.5t-28.5 140.5h89q-8 -71 23.5 -105t105.5 -34q77 0 118 33.5t41 85.5q0 45 -33 66.5t-130 52.5q-86 27 -127.5 69t-41.5 108q0 100 84 163.5t205 63.5z" />
    <glyph glyph-name="scedilla" unicode="&#x15f;" horiz-adv-x="501" 
d="M473 327h-78q9 58 -23 86.5t-92 28.5q-61 0 -94.5 -26.5t-33.5 -64.5q0 -20 13 -34t30.5 -21.5t59.5 -21.5q4 -1 6 -2q34 -11 55.5 -20.5t45.5 -25.5t36 -39t12 -53q0 -64 -51.5 -101.5t-127.5 -41.5q37 -34 37 -80q0 -50 -39.5 -83t-112.5 -33h-48l13 57h36
q43 0 65.5 18t22.5 48q0 42 -44 77q-66 13 -99.5 55.5t-23.5 101.5h79q-7 -47 18 -71.5t80 -24.5q51 0 80.5 20t29.5 57q0 16 -5 27t-20 20t-24 13t-37 13t-39 13q-65 21 -98 50t-33 80q0 72 62 116t153 44t145.5 -46.5t43.5 -135.5z" />
    <glyph glyph-name="Scaron" unicode="&#x160;" horiz-adv-x="640" 
d="M510 910h89l-137 -140h-90l-72 140h82l44 -85zM145 207q-8 -71 23.5 -105t105.5 -34q77 0 118 33.5t41 85.5q0 45 -33 66.5t-130 52.5q-86 27 -127.5 69t-41.5 108q0 100 84 163.5t205 63.5q122 0 189 -66.5t50 -180.5h-89q9 78 -27 123t-122 45q-83 0 -140 -39t-57 -105
q0 -48 33.5 -71.5t119.5 -51.5q38 -11 62.5 -21t55 -30t46 -51t15.5 -73q0 -88 -69 -143.5t-184 -55.5q-116 0 -173.5 58.5t-43.5 158.5h89z" />
    <glyph glyph-name="scaron" unicode="&#x161;" horiz-adv-x="501" 
d="M386 688h81l-125 -127h-82l-65 127h74l41 -77zM117 152q-7 -47 18 -71.5t80 -24.5q51 0 80.5 20t29.5 57q0 16 -5 27t-20 20t-24 13t-37 13t-39 13q-65 21 -98 50t-33 80q0 72 62 116t153 44t145.5 -46.5t43.5 -135.5h-78q9 58 -23 86.5t-92 28.5q-61 0 -94.5 -26.5
t-33.5 -64.5q0 -20 13 -34t30.5 -21.5t59.5 -21.5q4 -1 6 -2q34 -11 55.5 -20.5t45.5 -25.5t36 -39t12 -53q0 -68 -57.5 -106t-139.5 -38q-90 0 -138 46t-37 116h79z" />
    <glyph glyph-name="uni0162" unicode="&#x162;" horiz-adv-x="638" 
d="M449 620l-143 -620h-17q53 -38 53 -98q0 -55 -43.5 -91.5t-123.5 -36.5h-53l14 63h40q47 0 71.5 20t24.5 53q0 50 -56 90h-1l143 620h-232l19 80h556l-19 -80h-233z" />
    <glyph glyph-name="uni0163" unicode="&#x163;" horiz-adv-x="377" 
d="M249 434l-60 -263q-12 -52 3.5 -76.5t61.5 -24.5h53l-16 -69q48 -36 48 -89q0 -50 -39.5 -83t-112.5 -33h-48l13 57h36q43 0 65.5 18t22.5 48q0 45 -50 81q-77 4 -108.5 49t-13.5 121l61 264h-95l15 66h95l27 118l88 14l-30 -132h122l-15 -66h-123z" />
    <glyph glyph-name="Tcaron" unicode="&#x164;" horiz-adv-x="638" 
d="M484 770h-90l-72 140h82l44 -85l84 85h89zM701 700l-19 -80h-233l-143 -620h-91l143 620h-232l19 80h556z" />
    <glyph glyph-name="tcaron" unicode="&#x165;" horiz-adv-x="377" 
d="M422 700h100l-14 -59q-19 -75 -48.5 -103t-96.5 -35l11 40q33 3 48.5 18.5t23.5 49.5h-46zM295 632l-30 -132h122l-15 -66h-123l-60 -263q-12 -52 3.5 -76.5t61.5 -24.5h53l-16 -70h-53q-84 0 -118 45.5t-16 124.5l61 264h-95l15 66h95l27 118z" />
    <glyph glyph-name="Tbar" unicode="&#x166;" horiz-adv-x="638" 
d="M682 620h-233l-45 -197h189l-18 -77h-189l-80 -346h-91l80 346h-189l19 77h188l45 197h-232l19 80h556z" />
    <glyph glyph-name="tbar" unicode="&#x167;" horiz-adv-x="377" 
d="M372 434h-123l-24 -105h123l-15 -66h-123l-21 -92q-12 -52 3.5 -76.5t61.5 -24.5h53l-16 -70h-53q-84 0 -118 45.5t-16 124.5l21 93h-95l16 66h95l24 105h-95l15 66h95l27 118l88 14l-30 -132h122z" />
    <glyph glyph-name="Utilde" unicode="&#x168;" horiz-adv-x="715" 
d="M296 785q42 121 138 121q41 0 74 -27t58 -27q42 0 63 51h62q-21 -60 -57.5 -90.5t-79.5 -30.5q-27 0 -47.5 8.5t-30 18.5t-23.5 18.5t-31 8.5q-42 0 -67 -51h-59zM184 700h91l-92 -399q-54 -232 133 -232q184 0 239 232l92 399h91l-96 -415q-32 -141 -116 -220t-223 -75
q-134 4 -190 83.5t-21 226.5z" />
    <glyph glyph-name="utilde" unicode="&#x169;" horiz-adv-x="577" 
d="M310 616q-18 0 -34 -13t-25 -33h-53q37 110 123 110q37 0 66.5 -24.5t51.5 -24.5q37 0 56 46h55q-19 -54 -51 -82t-71 -28t-68.5 24.5t-49.5 24.5zM477 500h83l-115 -500h-83l32 138q-89 -148 -213 -148q-77 0 -111.5 49.5t-12.5 145.5l72 315h85l-66 -289
q-18 -78 -3.5 -114.5t64.5 -36.5q74 0 137.5 75.5t94.5 210.5l-4 -18z" />
    <glyph glyph-name="Umacron" unicode="&#x16a;" horiz-adv-x="715" 
d="M343 861h307l-15 -71h-307zM184 700h91l-92 -399q-54 -232 133 -232q184 0 239 232l92 399h91l-96 -415q-32 -141 -116 -220t-223 -75q-134 4 -190 83.5t-21 226.5z" />
    <glyph glyph-name="umacron" unicode="&#x16b;" horiz-adv-x="577" 
d="M518 647l-14 -64h-279l14 64h279zM477 500h83l-115 -500h-83l32 138q-89 -148 -213 -148q-77 0 -111.5 49.5t-12.5 145.5l72 315h85l-66 -289q-18 -78 -3.5 -114.5t64.5 -36.5q74 0 137.5 75.5t94.5 210.5l-4 -18z" />
    <glyph glyph-name="Ubreve" unicode="&#x16c;" horiz-adv-x="715" 
d="M651 907q-15 -61 -58.5 -99t-106.5 -38t-96.5 41.5t-21.5 95.5h73q-5 -30 7.5 -50.5t45.5 -20.5q32 0 53 20.5t29 50.5h75zM184 700h91l-92 -399q-54 -232 133 -232q184 0 239 232l92 399h91l-96 -415q-32 -141 -116 -220t-223 -75q-134 4 -190 83.5t-21 226.5z" />
    <glyph glyph-name="ubreve" unicode="&#x16d;" horiz-adv-x="577" 
d="M367 565q-57 0 -87.5 37.5t-19.5 87.5h66q-4 -28 7.5 -46.5t40.5 -18.5t48.5 19t26.5 46h68q-13 -55 -53 -90t-97 -35zM477 500h83l-115 -500h-83l32 138q-89 -148 -213 -148q-77 0 -111.5 49.5t-12.5 145.5l72 315h85l-66 -289q-18 -78 -3.5 -114.5t64.5 -36.5
q74 0 137.5 75.5t94.5 210.5l-4 -18z" />
    <glyph glyph-name="Uring" unicode="&#x16e;" horiz-adv-x="715" 
d="M475 727q-45 0 -71 27.5t-26 67.5q0 51 38.5 87.5t91.5 36.5q44 0 69.5 -27.5t25.5 -66.5q0 -51 -38 -88t-90 -37zM480 789q23 0 40 17.5t17 39.5q0 16 -9.5 27.5t-26.5 11.5q-24 0 -41 -18t-17 -41q0 -16 10 -26.5t27 -10.5zM184 700h91l-92 -399q-54 -232 133 -232
q184 0 239 232l92 399h91l-96 -415q-32 -141 -116 -220t-223 -75q-134 4 -190 83.5t-21 226.5z" />
    <glyph glyph-name="uring" unicode="&#x16f;" horiz-adv-x="577" 
d="M364 544q-41 0 -64.5 25t-23.5 61q0 46 35 79.5t83 33.5q40 0 63.5 -25t23.5 -61q0 -46 -35 -79.5t-82 -33.5zM388 687q-21 0 -37 -16t-16 -37q0 -15 9 -24.5t25 -9.5q21 0 36.5 16t15.5 36q0 14 -8.5 24.5t-24.5 10.5zM477 500h83l-115 -500h-83l32 138
q-89 -148 -213 -148q-77 0 -111.5 49.5t-12.5 145.5l72 315h85l-66 -289q-18 -78 -3.5 -114.5t64.5 -36.5q74 0 137.5 75.5t94.5 210.5l-4 -18z" />
    <glyph glyph-name="Uhungarumlaut" unicode="&#x170;" horiz-adv-x="715" 
d="M462 921h101l-128 -142h-83zM629 921h103l-130 -142h-83zM184 700h91l-92 -399q-54 -232 133 -232q184 0 239 232l92 399h91l-96 -415q-32 -141 -116 -220t-223 -75q-134 4 -190 83.5t-21 226.5z" />
    <glyph glyph-name="uhungarumlaut" unicode="&#x171;" horiz-adv-x="577" 
d="M433 692l-117 -129h-75l100 129h92zM468 563h-75l100 129h93zM437 328l40 172h83l-115 -500h-83l32 138q-89 -148 -213 -148q-77 0 -111.5 49.5t-12.5 145.5l72 315h85l-66 -289q-18 -78 -3.5 -114.5t64.5 -36.5q74 0 137.5 75.5t94.5 210.5z" />
    <glyph glyph-name="Uogonek" unicode="&#x172;" horiz-adv-x="715" 
d="M647 700h91l-96 -415q-58 -249 -254 -288q-100 -54 -100 -113q0 -46 69 -46h19l-15 -64h-30q-59 0 -89 30t-30 72q0 64 87 114q-132 5 -187 84t-20 226l92 400h91l-92 -399q-54 -232 133 -232q184 0 239 232z" />
    <glyph glyph-name="uogonek" unicode="&#x173;" horiz-adv-x="577" 
d="M446 0q-41 -21 -68.5 -48.5t-27.5 -56.5q0 -42 63 -42h17l-14 -58h-27q-53 0 -80.5 27t-27.5 65q0 37 24.5 63t70.5 50h-14l32 138q-89 -148 -213 -148q-77 0 -111.5 49.5t-12.5 145.5l72 315h85l-66 -289q-18 -78 -3.5 -114.5t64.5 -36.5q74 0 137.5 75.5t94.5 210.5
l-4 -18l40 172h83l-115 -500h1z" />
    <glyph glyph-name="Wcircumflex" unicode="&#x174;" horiz-adv-x="998" 
d="M641 853l-84 -85h-89l138 140h90l71 -140h-82zM963 700h96l-327 -700h-95l-50 615l-336 -615h-102l-3 700h88l-7 -590l322 590h106l48 -581z" />
    <glyph glyph-name="wcircumflex" unicode="&#x175;" horiz-adv-x="757" 
d="M471 638l-76 -77h-81l125 127h82l65 -127h-75zM696 501h85l-242 -501h-89l-33 418l-224 -418h-91l-11 501h76l5 -403l216 403h90l30 -397z" />
    <glyph glyph-name="Ycircumflex" unicode="&#x176;" horiz-adv-x="653" 
d="M466 853l-84 -85h-89l138 140h90l71 -140h-82zM610 700h110l-503 -700h-108l198 272l-177 428h100l139 -343z" />
    <glyph glyph-name="ycircumflex" unicode="&#x177;" horiz-adv-x="553" 
d="M367 638l-76 -77h-81l125 127h82l65 -127h-75zM493 500h94l-364 -592q-43 -69 -87.5 -98.5t-115.5 -29.5h-88l16 69h66q44 0 72.5 17t57.5 64l39 63l-105 507h85l81 -412z" />
    <glyph glyph-name="Ydieresis" unicode="&#x178;" horiz-adv-x="653" 
d="M408 873l-21 -95h-98l22 95h97zM625 873l-22 -95h-97l22 95h97zM610 700h110l-503 -700h-108l198 272l-177 428h100l139 -343z" />
    <glyph glyph-name="Zacute" unicode="&#x179;" horiz-adv-x="631" 
d="M615 919l-155 -142h-92l129 142h118zM657 700l-14 -61l-498 -559h383l-18 -80h-513l14 61l496 559h-348l19 80h479z" />
    <glyph glyph-name="zacute" unicode="&#x17a;" horiz-adv-x="495" 
d="M475 699l-141 -129h-83l117 129h107zM482 501l-13 -56l-347 -374h272l-17 -71h-389l12 53l353 377h-253l16 71h366z" />
    <glyph glyph-name="Zdotaccent" unicode="&#x17b;" horiz-adv-x="631" 
d="M517 894l-23 -101h-108l23 101h108zM657 700l-14 -61l-498 -559h383l-18 -80h-513l14 61l496 559h-348l19 80h479z" />
    <glyph glyph-name="zdotaccent" unicode="&#x17c;" horiz-adv-x="495" 
d="M390 680l-21 -92h-98l21 92h98zM482 501l-13 -56l-347 -374h272l-17 -71h-389l12 53l353 377h-253l16 71h366z" />
    <glyph glyph-name="Zcaron" unicode="&#x17d;" horiz-adv-x="631" 
d="M479 770h-90l-72 140h82l44 -85l84 85h89zM657 700l-14 -61l-498 -559h383l-18 -80h-513l14 61l496 559h-348l19 80h479z" />
    <glyph glyph-name="zcaron" unicode="&#x17e;" horiz-adv-x="495" 
d="M354 561h-82l-65 127h74l41 -77l76 77h81zM482 501l-13 -56l-347 -374h272l-17 -71h-389l12 53l353 377h-253l16 71h366z" />
    <glyph glyph-name="florin" unicode="&#x192;" horiz-adv-x="633" 
d="M592 700h107l-18 -74h-79q-57 0 -86 -26.5t-54 -80.5l-59 -129h179l-14 -64h-194l-87 -191q-62 -135 -201 -135h-106l17 74h78q57 0 88 27t54 80l66 145h-158l15 64h171l70 154q36 80 85.5 118t125.5 38z" />
    <glyph glyph-name="uni01CD" unicode="&#x1cd;" horiz-adv-x="664" 
d="M496 770h-90l-72 140h82l44 -85l84 85h89zM489 700l92 -700h-90l-21 177h-303l-105 -177h-96l417 700h106zM212 253h248l-42 349z" />
    <glyph glyph-name="uni01CE" unicode="&#x1ce;" horiz-adv-x="580" 
d="M389 561h-82l-65 127h74l41 -77l76 77h81zM480 500h83l-115 -500h-83l14 60q-68 -70 -169 -70q-82 0 -128 52t-46 146q0 134 83.5 228t193.5 94q112 0 147 -97zM233 60q86 0 139.5 72t53.5 172q0 134 -107 134q-59 0 -105 -39t-68.5 -95t-22.5 -116q0 -128 110 -128z" />
    <glyph glyph-name="uni01CF" unicode="&#x1cf;" horiz-adv-x="257" 
d="M341 910h89l-137 -140h-90l-72 140h82l44 -85zM116 0h-91l162 700h91z" />
    <glyph glyph-name="uni01D0" unicode="&#x1d0;" horiz-adv-x="234" 
d="M274 688h81l-125 -127h-82l-65 127h74l41 -77zM102 0h-85l115 500h85z" />
    <glyph glyph-name="uni01D1" unicode="&#x1d1;" horiz-adv-x="780" 
d="M589 910h89l-137 -140h-90l-72 140h82l44 -85zM345 -10q-136 0 -206.5 77.5t-70.5 213.5q0 184 116.5 306.5t293.5 122.5q136 0 206.5 -78t70.5 -214q0 -182 -116.5 -305t-293.5 -123zM351 69q130 0 219 103t89 248q0 100 -47.5 155.5t-139.5 55.5q-130 0 -219 -102.5
t-89 -248.5q0 -101 48 -156t139 -55z" />
    <glyph glyph-name="uni01D2" unicode="&#x1d2;" horiz-adv-x="575" 
d="M438 688h81l-125 -127h-82l-65 127h74l41 -77zM244 -10q-99 0 -152 58t-53 155q0 128 85.5 217t210.5 89q98 0 149.5 -58t51.5 -155q0 -130 -83.5 -218t-208.5 -88zM248 58q87 0 145 73.5t58 167.5q0 65 -30.5 103t-92.5 38q-87 0 -145 -72.5t-58 -167.5
q0 -65 30.5 -103.5t92.5 -38.5z" />
    <glyph glyph-name="uni01D3" unicode="&#x1d3;" horiz-adv-x="715" 
d="M569 910h89l-137 -140h-90l-72 140h82l44 -85zM184 700h91l-92 -399q-54 -232 133 -232q184 0 239 232l92 399h91l-96 -415q-32 -141 -116 -220t-223 -75q-134 4 -190 83.5t-21 226.5z" />
    <glyph glyph-name="uni01D4" unicode="&#x1d4;" horiz-adv-x="577" 
d="M400 561h-82l-65 127h74l41 -77l76 77h81zM477 500h83l-115 -500h-83l32 138q-89 -148 -213 -148q-77 0 -111.5 49.5t-12.5 145.5l72 315h85l-66 -289q-18 -78 -3.5 -114.5t64.5 -36.5q74 0 137.5 75.5t94.5 210.5l-4 -18z" />
    <glyph glyph-name="uni01E2" unicode="&#x1e2;" horiz-adv-x="882" 
d="M823 861l-15 -71h-307l15 71h307zM899 621h-400l30 -228h298l-18 -76h-270l32 -238h203l-18 -79h-265l-21 177h-303l-105 -177h-96l417 700h535zM212 253h248l-42 349z" />
    <glyph glyph-name="uni01E3" unicode="&#x1e3;" horiz-adv-x="912" 
d="M690 647l-14 -64h-279l14 64h279zM671 509q108 0 155.5 -72.5t25.5 -190.5q-1 -5 -2 -8.5t-1.5 -5t-0.5 -2.5v-2h-374q-1 -9 -1 -27q0 -67 33 -105t98 -38q103 0 148 103h82q-28 -81 -87 -126t-147 -45q-150 0 -197 123q-33 -54 -98.5 -88.5t-136.5 -34.5
q-63 0 -104 29.5t-41 93.5q0 72 58 109.5t179 59.5q94 16 118 29q32 15 39 45v1q9 38 -16.5 61t-75.5 23q-112 0 -148 -114h-82q23 83 80 132.5t151 49.5q121 0 159 -74q79 74 186 74zM487 290h291q8 67 -17 109.5t-91 42.5q-67 0 -114.5 -43t-68.5 -109zM190 55
q66 0 120 41.5t74 116.5l6 26l3 20q-31 -15 -130 -36q-50 -10 -79 -19.5t-52.5 -31t-23.5 -53.5q0 -64 82 -64z" />
    <glyph glyph-name="uni01EB" unicode="&#x1eb;" horiz-adv-x="575" 
d="M286 -7q-83 -47 -83 -98q0 -42 63 -42h17l-14 -58h-27q-53 0 -80.5 27t-27.5 65q0 59 79 105q-84 9 -129 65.5t-45 145.5q0 128 85.5 217t210.5 89q98 0 149.5 -58t51.5 -155q0 -118 -70 -203t-180 -100zM125 200q0 -65 30.5 -103.5t92.5 -38.5q87 0 145 73.5t58 167.5
q0 65 -30.5 103t-92.5 38q-87 0 -145 -72.5t-58 -167.5z" />
    <glyph glyph-name="AEacute" unicode="&#x1fc;" horiz-adv-x="882" 
d="M830 919l-155 -142h-92l129 142h118zM899 621h-400l30 -228h298l-18 -76h-270l32 -238h203l-18 -79h-265l-21 177h-303l-105 -177h-96l417 700h535zM212 253h248l-42 349z" />
    <glyph glyph-name="aeacute" unicode="&#x1fd;" horiz-adv-x="912" 
d="M693 699l-141 -129h-83l117 129h107zM671 509q108 0 155.5 -72.5t25.5 -190.5q-1 -5 -2 -8.5t-1.5 -5t-0.5 -2.5v-2h-374q-1 -9 -1 -27q0 -67 33 -105t98 -38q103 0 148 103h82q-28 -81 -87 -126t-147 -45q-150 0 -197 123q-33 -54 -98.5 -88.5t-136.5 -34.5
q-63 0 -104 29.5t-41 93.5q0 72 58 109.5t179 59.5q94 16 118 29q32 15 39 45v1q9 38 -16.5 61t-75.5 23q-112 0 -148 -114h-82q23 83 80 132.5t151 49.5q121 0 159 -74q79 74 186 74zM487 290h291q8 67 -17 109.5t-91 42.5q-67 0 -114.5 -43t-68.5 -109zM190 55
q66 0 120 41.5t74 116.5l6 26l3 20q-31 -15 -130 -36q-50 -10 -79 -19.5t-52.5 -31t-23.5 -53.5q0 -64 82 -64z" />
    <glyph glyph-name="Oslashacute" unicode="&#x1fe;" horiz-adv-x="780" 
d="M677 919l-155 -142h-92l129 142h118zM809 674l-93 -86q39 -69 39 -170q0 -182 -116.5 -305t-293.5 -123q-127 0 -199 70l-87 -80l-48 46l95 87q-38 67 -38 168q0 184 116.5 306.5t293.5 122.5q126 0 198 -69l85 79zM164 280q0 -56 15 -99l429 398q-47 52 -136 52
q-130 0 -219 -102.5t-89 -248.5zM659 420q0 59 -16 101l-430 -398q48 -54 138 -54q130 0 219 103t89 248z" />
    <glyph glyph-name="oslashacute" unicode="&#x1ff;" horiz-adv-x="575" 
d="M515 699l-141 -129h-83l117 129h107zM588 480l-77 -68q25 -49 25 -116q0 -130 -83.5 -218t-208.5 -88q-94 0 -149 55l-74 -66l-35 37l79 70q-26 50 -26 117q0 128 85.5 217t210.5 89q93 0 145 -54l72 64zM125 200q0 -31 7 -55l288 257q-32 38 -92 38q-87 0 -145 -72.5
t-58 -167.5zM451 299q0 30 -6 54l-290 -256q33 -39 93 -39q87 0 145 73.5t58 167.5z" />
    <glyph glyph-name="Scommaaccent" unicode="&#x218;" horiz-adv-x="640" 
d="M390 710q122 0 189 -66.5t50 -180.5h-89q9 78 -27 123t-122 45q-83 0 -140 -39t-57 -105q0 -48 33.5 -71.5t119.5 -51.5q38 -11 62.5 -21t55 -30t46 -51t15.5 -73q0 -88 -69 -143.5t-184 -55.5q-116 0 -173.5 58.5t-43.5 158.5h89q-8 -71 23.5 -105t105.5 -34
q77 0 118 33.5t41 85.5q0 45 -33 66.5t-130 52.5q-86 27 -127.5 69t-41.5 108q0 100 84 163.5t205 63.5zM171 -166l23 95h106l-15 -63q-19 -80 -51 -110t-102 -38l11 43q35 3 51.5 19.5t25.5 53.5h-49z" />
    <glyph glyph-name="scommaaccent" unicode="&#x219;" horiz-adv-x="501" 
d="M473 327h-78q9 58 -23 86.5t-92 28.5q-61 0 -94.5 -26.5t-33.5 -64.5q0 -20 13 -34t30.5 -21.5t59.5 -21.5q4 -1 6 -2q34 -11 55.5 -20.5t45.5 -25.5t36 -39t12 -53q0 -68 -57.5 -106t-139.5 -38q-90 0 -138 46t-37 116h79q-7 -47 18 -71.5t80 -24.5q51 0 80.5 20
t29.5 57q0 16 -5 27t-20 20t-24 13t-37 13t-39 13q-65 21 -98 50t-33 80q0 72 62 116t153 44t145.5 -46.5t43.5 -135.5zM115 -151l21 87h96l-14 -58q-18 -73 -47 -100.5t-92 -33.5l10 38q33 4 47.5 19t22.5 48h-44z" />
    <glyph glyph-name="uni021A" unicode="&#x21a;" horiz-adv-x="638" 
d="M701 700l-19 -80h-233l-143 -620h-91l143 620h-232l19 80h556zM172 -166l23 95h106l-15 -63q-19 -80 -51 -110t-102 -38l11 43q35 3 51.5 19.5t25.5 53.5h-49z" />
    <glyph glyph-name="uni021B" unicode="&#x21b;" horiz-adv-x="377" 
d="M249 434l-60 -263q-12 -52 3.5 -76.5t61.5 -24.5h53l-16 -70h-53q-84 0 -118 45.5t-16 124.5l61 264h-95l15 66h95l27 118l88 14l-30 -132h122l-15 -66h-123zM99 -151l21 87h96l-14 -58q-18 -73 -47 -100.5t-92 -33.5l10 38q33 4 47.5 19t22.5 48h-44z" />
    <glyph glyph-name="uni0226" unicode="&#x226;" horiz-adv-x="664" 
d="M534 894l-23 -101h-108l23 101h108zM491 0l-21 177h-303l-105 -177h-96l417 700h106l92 -700h-90zM212 253h248l-42 349z" />
    <glyph glyph-name="uni0227" unicode="&#x227;" horiz-adv-x="580" 
d="M425 680l-21 -92h-98l21 92h98zM480 500h83l-115 -500h-83l14 60q-68 -70 -169 -70q-82 0 -128 52t-46 146q0 134 83.5 228t193.5 94q112 0 147 -97zM233 60q86 0 139.5 72t53.5 172q0 134 -107 134q-59 0 -105 -39t-68.5 -95t-22.5 -116q0 -128 110 -128z" />
    <glyph glyph-name="uni0232" unicode="&#x232;" horiz-adv-x="653" 
d="M617 861l-15 -71h-307l15 71h307zM610 700h110l-503 -700h-108l198 272l-177 428h100l139 -343z" />
    <glyph glyph-name="uni0233" unicode="&#x233;" horiz-adv-x="553" 
d="M504 647l-14 -64h-279l14 64h279zM493 500h94l-364 -592q-43 -69 -87.5 -98.5t-115.5 -29.5h-88l16 69h66q44 0 72.5 17t57.5 64l39 63l-105 507h85l81 -412z" />
    <glyph glyph-name="uni0237" unicode="&#x237;" horiz-adv-x="234" 
d="M217 500l-111 -483l-24 -103q-15 -64 -60 -99t-117 -35h-98l16 70h70q89 0 111 95l14 57l114 498h85z" />
    <glyph glyph-name="circumflex" unicode="&#x2c6;" horiz-adv-x="411" 
d="M413 561h-75l-40 77l-76 -77h-81l125 127h82z" />
    <glyph glyph-name="caron" unicode="&#x2c7;" horiz-adv-x="411" 
d="M362 688h81l-125 -127h-82l-65 127h74l41 -77z" />
    <glyph glyph-name="breve" unicode="&#x2d8;" horiz-adv-x="411" 
d="M436 690q-13 -55 -53 -90t-97 -35t-87.5 37.5t-19.5 87.5h66q-4 -28 7.5 -46.5t40.5 -18.5t48.5 19t26.5 46h68z" />
    <glyph glyph-name="dotaccent" unicode="&#x2d9;" horiz-adv-x="411" 
d="M235 588l21 92h98l-21 -92h-98z" />
    <glyph glyph-name="ring" unicode="&#x2da;" horiz-adv-x="411" 
d="M282 544q-41 0 -64.5 25t-23.5 61q0 46 35 79.5t83 33.5q40 0 63.5 -25t23.5 -61q0 -46 -35 -79.5t-82 -33.5zM287 600q21 0 36.5 16t15.5 36q0 14 -8.5 24.5t-24.5 10.5q-21 0 -37 -16t-16 -37q0 -15 9 -24.5t25 -9.5z" />
    <glyph glyph-name="ogonek" unicode="&#x2db;" horiz-adv-x="411" 
d="M143 2l66 -2q-41 -21 -68.5 -48.5t-27.5 -56.5q0 -42 63 -42h17l-14 -58h-27q-53 0 -80.5 27t-27.5 65t25.5 64.5t73.5 50.5z" />
    <glyph glyph-name="tilde" unicode="&#x2dc;" horiz-adv-x="411" 
d="M116 570q37 110 123 110q37 0 66.5 -24.5t51.5 -24.5q37 0 56 46h55q-19 -54 -51 -82t-71 -28t-68.5 24.5t-49.5 24.5q-18 0 -34 -13t-25 -33h-53z" />
    <glyph glyph-name="hungarumlaut" unicode="&#x2dd;" horiz-adv-x="411" 
d="M232 692h92l-117 -129h-75zM384 692h93l-118 -129h-75z" />
    <glyph glyph-name="uni0394" unicode="&#x394;" horiz-adv-x="709" 
d="M504 700l125 -636l-15 -64h-635l14 64l420 636h91zM98 78h443l-98 532z" />
    <glyph glyph-name="uni03A9" unicode="&#x3a9;" horiz-adv-x="807" 
d="M773 423q0 -106 -54 -198t-147 -144h121l-18 -81h-276l7 30l8 34q123 33 194 136t71 218q0 92 -49 152.5t-144 60.5q-127 0 -219 -105.5t-92 -243.5q0 -78 33 -138t99 -80l-15 -64h-276l19 81h143q-93 67 -93 212q0 109 52.5 204.5t146.5 154t206 58.5q133 0 208 -81
t75 -206z" />
    <glyph glyph-name="uni03BC" unicode="&#x3bc;" horiz-adv-x="580" 
d="M480 500h83l-115 -500h-83l32 138q-89 -148 -213 -148q-52 0 -84 22l-53 -232h-80l90 388l3 17l72 315h85l-66 -289q-18 -78 -3.5 -114.5t64.5 -36.5q74 0 137.5 75.5t94.5 210.5l-4 -18z" />
    <glyph glyph-name="pi" unicode="&#x3c0;" horiz-adv-x="675" 
d="M550 430l-59 -259q-25 -101 65 -101h42l-16 -70h-40q-86 0 -120.5 45.5t-16.5 124.5l60 260h-189l-99 -430h-84l99 430h-113l16 70h580l-16 -70h-109z" />
    <glyph glyph-name="Wgrave" unicode="&#x1e80;" horiz-adv-x="998" 
d="M688 777h-82l-99 142h108zM963 700h96l-327 -700h-95l-50 615l-336 -615h-102l-3 700h88l-7 -590l322 590h106l48 -581z" />
    <glyph glyph-name="wgrave" unicode="&#x1e81;" horiz-adv-x="757" 
d="M511 570h-75l-90 129h98zM696 501h85l-242 -501h-89l-33 418l-224 -418h-91l-11 501h76l5 -403l216 403h90l30 -397z" />
    <glyph glyph-name="Wacute" unicode="&#x1e82;" horiz-adv-x="998" 
d="M799 919l-155 -142h-92l129 142h118zM963 700h96l-327 -700h-95l-50 615l-336 -615h-102l-3 700h88l-7 -590l322 590h106l48 -581z" />
    <glyph glyph-name="wacute" unicode="&#x1e83;" horiz-adv-x="757" 
d="M611 699l-141 -129h-83l117 129h107zM696 501h85l-242 -501h-89l-33 418l-224 -418h-91l-11 501h76l5 -403l216 403h90l30 -397z" />
    <glyph glyph-name="Wdieresis" unicode="&#x1e84;" horiz-adv-x="998" 
d="M583 873l-21 -95h-98l22 95h97zM800 873l-22 -95h-97l22 95h97zM963 700h96l-327 -700h-95l-50 615l-336 -615h-102l-3 700h88l-7 -590l322 590h106l48 -581z" />
    <glyph glyph-name="wdieresis" unicode="&#x1e85;" horiz-adv-x="757" 
d="M420 669l-19 -86h-89l20 86h88zM617 669l-19 -86h-89l20 86h88zM696 501h85l-242 -501h-89l-33 418l-224 -418h-91l-11 501h76l5 -403l216 403h90l30 -397z" />
    <glyph glyph-name="uni1EA0" unicode="&#x1ea0;" horiz-adv-x="664" 
d="M581 0h-90l-21 177h-303l-105 -177h-96l417 700h106zM212 253h248l-42 349zM174 -201l23 101h108l-23 -101h-108z" />
    <glyph glyph-name="uni1EA1" unicode="&#x1ea1;" horiz-adv-x="580" 
d="M480 500h83l-115 -500h-83l14 60q-68 -70 -169 -70q-82 0 -128 52t-46 146q0 134 83.5 228t193.5 94q112 0 147 -97zM233 60q86 0 139.5 72t53.5 172q0 134 -107 134q-59 0 -105 -39t-68.5 -95t-22.5 -116q0 -128 110 -128zM142 -185l21 92h98l-21 -92h-98z" />
    <glyph glyph-name="uni1EB8" unicode="&#x1eb8;" horiz-adv-x="584" 
d="M601 620h-342l-52 -227h322l-18 -76h-322l-54 -237h341l-18 -80h-433l162 700h433zM142 -201l23 101h108l-23 -101h-108z" />
    <glyph glyph-name="uni1EB9" unicode="&#x1eb9;" horiz-adv-x="563" 
d="M322 509q108 0 155.5 -72.5t25.5 -190.5q-1 -5 -2 -8.5t-1.5 -5t-0.5 -2.5v-2h-374q-1 -9 -1 -27q0 -67 33 -105t98 -38q103 0 148 103h82q-28 -81 -87 -126t-147 -45q-103 0 -157.5 59t-54.5 155q0 121 79.5 213t203.5 92zM138 290h291q8 67 -17 109.5t-91 42.5
q-67 0 -114.5 -43t-68.5 -109zM137 -185l21 92h98l-21 -92h-98z" />
    <glyph glyph-name="uni1ECA" unicode="&#x1eca;" horiz-adv-x="257" 
d="M116 0h-91l162 700h91zM-30 -201l23 101h108l-23 -101h-108z" />
    <glyph glyph-name="uni1ECC" unicode="&#x1ecc;" horiz-adv-x="780" 
d="M345 -10q-136 0 -206.5 77.5t-70.5 213.5q0 184 116.5 306.5t293.5 122.5q136 0 206.5 -78t70.5 -214q0 -182 -116.5 -305t-293.5 -123zM351 69q130 0 219 103t89 248q0 100 -47.5 155.5t-139.5 55.5q-130 0 -219 -102.5t-89 -248.5q0 -101 48 -156t139 -55zM230 -201
l23 101h108l-23 -101h-108z" />
    <glyph glyph-name="uni1ECD" unicode="&#x1ecd;" horiz-adv-x="575" 
d="M244 -10q-99 0 -152 58t-53 155q0 128 85.5 217t210.5 89q98 0 149.5 -58t51.5 -155q0 -130 -83.5 -218t-208.5 -88zM248 58q87 0 145 73.5t58 167.5q0 65 -30.5 103t-92.5 38q-87 0 -145 -72.5t-58 -167.5q0 -65 30.5 -103.5t92.5 -38.5zM138 -185l21 92h98l-21 -92h-98
z" />
    <glyph glyph-name="uni1EE4" unicode="&#x1ee4;" horiz-adv-x="715" 
d="M184 700h91l-92 -399q-54 -232 133 -232q184 0 239 232l92 399h91l-96 -415q-32 -141 -116 -220t-223 -75q-134 4 -190 83.5t-21 226.5zM199 -201l23 101h108l-23 -101h-108z" />
    <glyph glyph-name="uni1EE5" unicode="&#x1ee5;" horiz-adv-x="577" 
d="M477 500h83l-115 -500h-83l32 138q-89 -148 -213 -148q-77 0 -111.5 49.5t-12.5 145.5l72 315h85l-66 -289q-18 -78 -3.5 -114.5t64.5 -36.5q74 0 137.5 75.5t94.5 210.5l-4 -18zM154 -185l21 92h98l-21 -92h-98z" />
    <glyph glyph-name="Ygrave" unicode="&#x1ef2;" horiz-adv-x="653" 
d="M513 777h-82l-99 142h108zM610 700h110l-503 -700h-108l198 272l-177 428h100l139 -343z" />
    <glyph glyph-name="ygrave" unicode="&#x1ef3;" horiz-adv-x="553" 
d="M407 570h-75l-90 129h98zM493 500h94l-364 -592q-43 -69 -87.5 -98.5t-115.5 -29.5h-88l16 69h66q44 0 72.5 17t57.5 64l39 63l-105 507h85l81 -412z" />
    <glyph glyph-name="uni200B" unicode="&#x200b;" horiz-adv-x="0" 
 />
    <glyph glyph-name="endash" unicode="&#x2013;" horiz-adv-x="720" 
d="M80 331h598l-17 -70h-597z" />
    <glyph glyph-name="emdash" unicode="&#x2014;" horiz-adv-x="1078" 
d="M80 331h956l-16 -70h-956z" />
    <glyph glyph-name="quoteleft" unicode="&#x2018;" horiz-adv-x="203" 
d="M261 663q-36 -4 -52 -21t-25 -55h48l-23 -99h-104l14 65q20 84 51.5 115t101.5 38z" />
    <glyph glyph-name="quoteright" unicode="&#x2019;" horiz-adv-x="204" 
d="M153 700h105l-15 -66q-19 -83 -50.5 -114t-101.5 -39l11 44q35 4 51 21t25 55h-48z" />
    <glyph glyph-name="quotesinglbase" unicode="&#x201a;" horiz-adv-x="203" 
d="M14 99h105l-15 -66q-19 -83 -50.5 -114t-101.5 -39l11 44q35 4 51 21t25 55h-48z" />
    <glyph glyph-name="quotedblleft" unicode="&#x201c;" horiz-adv-x="363" 
d="M261 663q-36 -4 -52 -21t-25 -55h48l-23 -99h-104l14 65q20 84 51.5 115t101.5 38zM421 663q-36 -4 -52 -21t-25 -55h48l-23 -99h-104l14 65q20 84 51.5 115t101.5 38z" />
    <glyph glyph-name="quotedblright" unicode="&#x201d;" horiz-adv-x="363" 
d="M153 700h105l-15 -66q-19 -83 -50.5 -114t-101.5 -39l11 44q35 4 51 21t25 55h-48zM312 700h105l-15 -66q-19 -83 -50.5 -114t-101.5 -39l11 44q35 4 51 21t25 55h-48z" />
    <glyph glyph-name="quotedblbase" unicode="&#x201e;" horiz-adv-x="363" 
d="M14 99h105l-15 -66q-19 -83 -50.5 -114t-101.5 -39l11 44q35 4 51 21t25 55h-48zM174 99h105l-15 -66q-19 -83 -50.5 -114t-101.5 -39l11 44q35 4 51 21t25 55h-48z" />
    <glyph glyph-name="dagger" unicode="&#x2020;" horiz-adv-x="468" 
d="M486 532l-16 -70h-148l-107 -462h-78l107 462h-148l16 70h148l39 168h78l-39 -168h148z" />
    <glyph glyph-name="daggerdbl" unicode="&#x2021;" horiz-adv-x="469" 
d="M470 462h-148l-52 -224h149l-16 -70h-149l-39 -168h-78l39 168h-147l16 70h147l52 224h-148l16 70h148l39 168h78l-39 -168h148z" />
    <glyph glyph-name="bullet" unicode="&#x2022;" horiz-adv-x="224" 
d="M60 245l23 99h101l-22 -99h-102z" />
    <glyph glyph-name="ellipsis" unicode="&#x2026;" horiz-adv-x="709" 
d="M-9 0l23 99h101l-22 -99h-102zM246 0l23 99h101l-22 -99h-102zM500 0l23 99h101l-22 -99h-102z" />
    <glyph glyph-name="perthousand" unicode="&#x2030;" horiz-adv-x="1173" 
d="M263 405q-58 0 -95.5 37t-37.5 93q0 71 56 123t128 52q59 0 96.5 -37t37.5 -94q0 -70 -56.5 -122t-128.5 -52zM60 0l657 700h89l-657 -700h-89zM270 470q41 0 72 31.5t31 74.5q0 30 -17 49t-48 19q-41 0 -72 -31.5t-31 -73.5q0 -30 17 -49.5t48 -19.5zM548 -10
q-58 0 -95.5 37t-37.5 93q0 71 56 123t128 52q59 0 96.5 -37t37.5 -94q0 -70 -56.5 -122t-128.5 -52zM913 -10q-58 0 -95.5 37t-37.5 93q0 71 56 123t128 52q59 0 96.5 -37t37.5 -94q0 -70 -56.5 -122t-128.5 -52zM555 55q41 0 72 31.5t31 74.5q0 30 -17 49t-48 19
q-41 0 -72 -31.5t-31 -73.5q0 -30 17 -49.5t48 -19.5zM920 55q41 0 72 31.5t31 74.5q0 30 -17 49t-48 19q-41 0 -72 -31.5t-31 -73.5q0 -30 17 -49.5t48 -19.5z" />
    <glyph glyph-name="guilsinglleft" unicode="&#x2039;" horiz-adv-x="389" 
d="M384 490l-219 -201l115 -189h-97l-117 199l207 191h111z" />
    <glyph glyph-name="guilsinglright" unicode="&#x203a;" horiz-adv-x="389" 
d="M225 490l117 -199l-207 -191h-111l219 201l-115 189h97z" />
    <glyph glyph-name="uni2042" unicode="&#x2042;" horiz-adv-x="897" 
d="M559 393l-70 107l-70 -107l-48 35l80 99l-123 34l18 57l119 -45l-6 127h60l-6 -127l120 45l18 -57l-123 -34l79 -99zM401 238l18 -57l-123 -34l79 -99l-48 -35l-70 107l-70 -107l-48 35l80 99l-123 34l18 57l119 -45l-6 127h60l-6 -127zM795 181l-123 -34l79 -99l-48 -35
l-70 107l-70 -107l-48 35l80 99l-123 34l18 57l119 -45l-6 127h60l-6 -127l120 45z" />
    <glyph glyph-name="fraction" unicode="&#x2044;" horiz-adv-x="188" 
d="M-310 0l748 700h82l-748 -700h-82z" />
    <glyph glyph-name="uni2051" unicode="&#x2051;" horiz-adv-x="407" 
d="M433 561l-123 -34l79 -99l-48 -35l-70 107l-70 -107l-48 35l80 99l-123 34l18 57l119 -45l-6 127h60l-6 -127l120 45zM327 238l18 -57l-123 -34l79 -99l-48 -35l-70 107l-70 -107l-48 35l80 99l-123 34l18 57l119 -45l-6 127h60l-6 -127z" />
    <glyph glyph-name="uni2070" unicode="&#x2070;" horiz-adv-x="371" 
d="M234 401q-65 0 -95.5 41t-30.5 101q0 84 50 158t138 74q65 0 94 -40.5t29 -100.5q0 -53 -18.5 -104.5t-62.5 -90t-104 -38.5zM235 455q53 0 87.5 53t34.5 123q0 90 -64 90q-53 0 -87.5 -52.5t-34.5 -123.5q0 -90 64 -90z" />
    <glyph glyph-name="uni2074" unicode="&#x2074;" horiz-adv-x="349" 
d="M387 532l-12 -49h-58l-17 -73h-58l17 73h-177l8 37l217 250h76l-55 -238h59zM161 532h110l41 177z" />
    <glyph glyph-name="uni2075" unicode="&#x2075;" horiz-adv-x="358" 
d="M275 642q50 0 79.5 -29t29.5 -79q0 -62 -43 -98t-110 -36q-66 0 -100.5 34.5t-26.5 85.5h58q-3 -30 14 -50t56 -20q42 0 68.5 23.5t26.5 60.5q0 61 -70 61q-30 0 -52.5 -10t-29.5 -19l-41 21l70 183h213l-12 -52h-161l-40 -96q31 20 71 20z" />
    <glyph glyph-name="uni2076" unicode="&#x2076;" horiz-adv-x="359" 
d="M273 643q47 0 78.5 -28t31.5 -77q0 -58 -44 -98t-109 -40q-119 0 -119 135q0 97 51 168.5t137 71.5q57 0 90 -32.5t26 -80.5h-54q2 25 -12.5 44t-49.5 19q-48 0 -80 -37t-46 -96q41 51 100 51zM230 449q37 0 66 24.5t29 63.5q0 29 -17 44t-44 15q-37 0 -66.5 -24.5
t-29.5 -62.5q0 -29 17.5 -44.5t44.5 -15.5z" />
    <glyph glyph-name="uni2077" unicode="&#x2077;" horiz-adv-x="325" 
d="M157 770h260l-9 -38l-239 -322h-73l231 308h-182z" />
    <glyph glyph-name="uni2078" unicode="&#x2078;" horiz-adv-x="381" 
d="M334 575q47 -21 47 -70q0 -47 -43 -76t-103 -29q-53 0 -87 23.5t-34 63.5q0 59 83 89q-59 21 -59 80q0 52 46.5 85.5t118.5 33.5q61 0 97 -25.5t36 -68.5q0 -40 -29.5 -67t-72.5 -39zM300 726q-44 0 -73 -21t-29 -51q0 -29 27.5 -43t44.5 -14q10 0 32 5.5t47.5 24
t25.5 45.5q0 25 -19 39.5t-56 14.5zM175 492q0 -44 62 -44q37 0 61.5 17.5t24.5 42.5q0 38 -61 50q-87 -17 -87 -66z" />
    <glyph glyph-name="uni2079" unicode="&#x2079;" horiz-adv-x="363" 
d="M244 532q-47 0 -78.5 28t-31.5 77q0 58 44 98t109 40q119 0 119 -135q0 -97 -51 -168.5t-137 -71.5q-57 0 -90 32.5t-26 80.5h54q-2 -25 12.5 -44t49.5 -19q48 0 80 37t46 96q-41 -51 -100 -51zM287 726q-37 0 -66 -24.5t-29 -63.5q0 -29 17 -44t44 -15q37 0 66.5 24.5
t29.5 62.5q0 29 -17.5 44.5t-44.5 15.5z" />
    <glyph glyph-name="uni2080" unicode="&#x2080;" horiz-adv-x="371" 
d="M123 -79q-65 0 -95.5 41t-30.5 101q0 84 50 158t138 74q65 0 94 -40.5t29 -100.5q0 -53 -18.5 -104.5t-62.5 -90t-104 -38.5zM124 -25q53 0 87.5 53t34.5 123q0 90 -64 90q-53 0 -87.5 -52.5t-34.5 -123.5q0 -90 64 -90z" />
    <glyph glyph-name="uni2081" unicode="&#x2081;" horiz-adv-x="294" 
d="M229 290l-83 -360h-59l56 244q-51 -31 -132 -34l12 49q53 3 99.5 29t57.5 72h49z" />
    <glyph glyph-name="uni2082" unicode="&#x2082;" horiz-adv-x="361" 
d="M239 -70h-264l10 38l107 72q38 25 55 37.5t40.5 33.5t33 40.5t9.5 42.5q0 49 -49 49q-35 0 -57 -27t-29 -67h-61q11 65 49 105.5t100 40.5q50 0 80 -27t30 -74q0 -48 -35 -88t-109 -89l-55 -37h157z" />
    <glyph glyph-name="uni2083" unicode="&#x2083;" horiz-adv-x="357" 
d="M213 98q41 -16 41 -66q0 -44 -38 -78t-102 -34q-63 0 -93.5 32.5t-22.5 83.5h61q-5 -34 12 -49.5t46 -15.5q35 0 57 20t22 45q0 44 -61 44h-30l10 44h35q42 0 67.5 20t25.5 51q0 49 -63 49q-79 0 -105 -77h-58q40 127 165 127q55 0 89 -25t34 -70q0 -74 -92 -101z" />
    <glyph glyph-name="uni2084" unicode="&#x2084;" horiz-adv-x="349" 
d="M276 52l-12 -49h-58l-17 -73h-58l17 73h-177l8 37l217 250h76l-55 -238h59zM50 52h110l41 177z" />
    <glyph glyph-name="uni2085" unicode="&#x2085;" horiz-adv-x="358" 
d="M164 162q50 0 79.5 -29t29.5 -79q0 -62 -43 -98t-110 -36q-66 0 -100.5 34.5t-26.5 85.5h58q-3 -30 14 -50t56 -20q42 0 68.5 23.5t26.5 60.5q0 61 -70 61q-30 0 -52.5 -10t-29.5 -19l-41 21l70 183h213l-12 -52h-161l-40 -96q31 20 71 20z" />
    <glyph glyph-name="uni2086" unicode="&#x2086;" horiz-adv-x="359" 
d="M162 163q47 0 78.5 -28t31.5 -77q0 -58 -44 -98t-109 -40q-119 0 -119 135q0 97 51 168.5t137 71.5q57 0 90 -32.5t26 -80.5h-54q2 25 -12.5 44t-49.5 19q-48 0 -80 -37t-46 -96q41 51 100 51zM119 -31q37 0 66 24.5t29 63.5q0 29 -17 44t-44 15q-37 0 -66.5 -24.5
t-29.5 -62.5q0 -29 17.5 -44.5t44.5 -15.5z" />
    <glyph glyph-name="uni2087" unicode="&#x2087;" horiz-adv-x="325" 
d="M46 290h260l-9 -38l-239 -322h-73l231 308h-182z" />
    <glyph glyph-name="uni2088" unicode="&#x2088;" horiz-adv-x="381" 
d="M223 95q47 -21 47 -70q0 -47 -43 -76t-103 -29q-53 0 -87 23.5t-34 63.5q0 59 83 89q-59 21 -59 80q0 52 46.5 85.5t118.5 33.5q61 0 97 -25.5t36 -68.5q0 -40 -29.5 -67t-72.5 -39zM189 246q-44 0 -73 -21t-29 -51q0 -29 27.5 -43t44.5 -14q10 0 32 5.5t47.5 24
t25.5 45.5q0 25 -19 39.5t-56 14.5zM64 12q0 -44 62 -44q37 0 61.5 17.5t24.5 42.5q0 38 -61 50q-87 -17 -87 -66z" />
    <glyph glyph-name="uni2089" unicode="&#x2089;" horiz-adv-x="363" 
d="M133 52q-47 0 -78.5 28t-31.5 77q0 58 44 98t109 40q119 0 119 -135q0 -97 -51 -168.5t-137 -71.5q-57 0 -90 32.5t-26 80.5h54q-2 -25 12.5 -44t49.5 -19q48 0 80 37t46 96q-41 -51 -100 -51zM176 246q-37 0 -66 -24.5t-29 -63.5q0 -29 17 -44t44 -15q37 0 66.5 24.5
t29.5 62.5q0 29 -17.5 44.5t-44.5 15.5z" />
    <glyph glyph-name="Euro" unicode="&#x20ac;" horiz-adv-x="769" 
d="M765 491h-84q3 62 -33 103t-110 41q-77 0 -142 -47.5t-104 -125.5h278l-38 -65h-266q-16 -50 -17 -100h234l-38 -65h-195q10 -80 54 -124t119 -44q128 0 193 142h84q-32 -110 -108.5 -163t-175.5 -53q-115 0 -180 67t-76 175h-119l15 65h102q3 53 16 100h-95l15 65h103
q47 110 137.5 179t207.5 69q107 0 168.5 -58.5t54.5 -160.5z" />
    <glyph glyph-name="uni2113" unicode="&#x2113;" horiz-adv-x="425" 
d="M173 173l-1 -6q-13 -54 4 -77.5t65 -23.5h53l-15 -66h-54q-73 0 -106.5 35.5t-25.5 101.5q-41 -16 -94 -33l15 66q52 18 95 40l58 250q39 170 151 170q52 0 80.5 -33.5t28.5 -99.5q0 -196 -254 -324zM237 450l-45 -195q160 103 160 245q0 63 -38 63q-29 0 -46.5 -28.5
t-30.5 -84.5z" />
    <glyph glyph-name="uni2117" unicode="&#x2117;" 
d="M439 710q152 0 255 -103.5t103 -256.5t-103 -256.5t-255 -103.5t-255 103.5t-103 256.5t103 256.5t255 103.5zM439 42q127 0 212.5 89.5t85.5 218.5t-85.5 218.5t-212.5 89.5t-212.5 -90t-85.5 -218t85.5 -218t212.5 -90zM457 543q73 0 109 -36.5t36 -93.5
q0 -59 -35.5 -95.5t-109.5 -36.5h-67v-128h-61v390h61h67zM464 334q38 0 57 22.5t19 56.5q0 33 -19 55t-57 22h-74v-156h74z" />
    <glyph glyph-name="trademark" unicode="&#x2122;" horiz-adv-x="889" 
d="M437 642h-124l-76 -326h-67l76 326h-124l14 58h314zM933 700l-89 -384h-61l73 317l-181 -317h-75l-35 314l-73 -314h-60l89 384h95l33 -316l179 316h105z" />
    <glyph glyph-name="uni2153" unicode="&#x2153;" horiz-adv-x="840" 
d="M7 0l748 700h82l-748 -700h-82zM324 700l-83 -360h-59l56 244q-51 -31 -132 -34l12 49q53 3 99.5 29t57.5 72h49zM712 168q41 -16 41 -66q0 -44 -38 -78t-102 -34q-63 0 -93.5 32.5t-22.5 83.5h61q-5 -34 12 -49.5t46 -15.5q35 0 57 20t22 45q0 44 -61 44h-30l10 44h35
q42 0 67.5 20t25.5 51q0 49 -63 49q-79 0 -105 -77h-58q40 127 165 127q55 0 89 -25t34 -70q0 -74 -92 -101z" />
    <glyph glyph-name="uni2154" unicode="&#x2154;" horiz-adv-x="910" 
d="M334 340h-264l10 38l107 72q38 25 55 37.5t40.5 33.5t33 40.5t9.5 42.5q0 49 -49 49q-35 0 -57 -27t-29 -67h-61q11 65 49 105.5t100 40.5q50 0 80 -27t30 -74q0 -48 -35 -88t-109 -89l-55 -37h157zM77 0l748 700h82l-748 -700h-82zM782 168q41 -16 41 -66q0 -44 -38 -78
t-102 -34q-63 0 -93.5 32.5t-22.5 83.5h61q-5 -34 12 -49.5t46 -15.5q35 0 57 20t22 45q0 44 -61 44h-30l10 44h35q42 0 67.5 20t25.5 51q0 49 -63 49q-79 0 -105 -77h-58q40 127 165 127q55 0 89 -25t34 -70q0 -74 -92 -101z" />
    <glyph glyph-name="oneeighth" unicode="&#x215b;" horiz-adv-x="859" 
d="M7 0l748 700h82l-748 -700h-82zM324 700l-83 -360h-59l56 244q-51 -31 -132 -34l12 49q53 3 99.5 29t57.5 72h49zM717 165q47 -21 47 -70q0 -47 -43 -76t-103 -29q-53 0 -87 23.5t-34 63.5q0 59 83 89q-59 21 -59 80q0 52 46.5 85.5t118.5 33.5q61 0 97 -25.5t36 -68.5
q0 -40 -29.5 -67t-72.5 -39zM683 316q-44 0 -73 -21t-29 -51q0 -29 27.5 -43t44.5 -14q10 0 32 5.5t47.5 24t25.5 45.5q0 25 -19 39.5t-56 14.5zM558 82q0 -44 62 -44q37 0 61.5 17.5t24.5 42.5q0 38 -61 50q-87 -17 -87 -66z" />
    <glyph glyph-name="threeeighths" unicode="&#x215c;" horiz-adv-x="891" 
d="M308 508q41 -16 41 -66q0 -44 -38 -78t-102 -34q-63 0 -93.5 32.5t-22.5 83.5h61q-5 -34 12 -49.5t46 -15.5q35 0 57 20t22 45q0 44 -61 44h-30l10 44h35q42 0 67.5 20t25.5 51q0 49 -63 49q-79 0 -105 -77h-58q40 127 165 127q55 0 89 -25t34 -70q0 -74 -92 -101zM39 0
l748 700h82l-748 -700h-82zM749 165q47 -21 47 -70q0 -47 -43 -76t-103 -29q-53 0 -87 23.5t-34 63.5q0 59 83 89q-59 21 -59 80q0 52 46.5 85.5t118.5 33.5q61 0 97 -25.5t36 -68.5q0 -40 -29.5 -67t-72.5 -39zM715 316q-44 0 -73 -21t-29 -51q0 -29 27.5 -43t44.5 -14
q10 0 32 5.5t47.5 24t25.5 45.5q0 25 -19 39.5t-56 14.5zM590 82q0 -44 62 -44q37 0 61.5 17.5t24.5 42.5q0 38 -61 50q-87 -17 -87 -66z" />
    <glyph glyph-name="fiveeighths" unicode="&#x215d;" horiz-adv-x="890" 
d="M38 0l748 700h82l-748 -700h-82zM259 572q50 0 79.5 -29t29.5 -79q0 -62 -43 -98t-110 -36q-66 0 -100.5 34.5t-26.5 85.5h58q-3 -30 14 -50t56 -20q42 0 68.5 23.5t26.5 60.5q0 61 -70 61q-30 0 -52.5 -10t-29.5 -19l-41 21l70 183h213l-12 -52h-161l-40 -96
q31 20 71 20zM748 165q47 -21 47 -70q0 -47 -43 -76t-103 -29q-53 0 -87 23.5t-34 63.5q0 59 83 89q-59 21 -59 80q0 52 46.5 85.5t118.5 33.5q61 0 97 -25.5t36 -68.5q0 -40 -29.5 -67t-72.5 -39zM714 316q-44 0 -73 -21t-29 -51q0 -29 27.5 -43t44.5 -14q10 0 32 5.5
t47.5 24t25.5 45.5q0 25 -19 39.5t-56 14.5zM589 82q0 -44 62 -44q37 0 61.5 17.5t24.5 42.5q0 38 -61 50q-87 -17 -87 -66z" />
    <glyph glyph-name="seveneighths" unicode="&#x215e;" horiz-adv-x="789" 
d="M-63 0l748 700h82l-748 -700h-82zM141 700h260l-9 -38l-239 -322h-73l231 308h-182zM647 165q47 -21 47 -70q0 -47 -43 -76t-103 -29q-53 0 -87 23.5t-34 63.5q0 59 83 89q-59 21 -59 80q0 52 46.5 85.5t118.5 33.5q61 0 97 -25.5t36 -68.5q0 -40 -29.5 -67t-72.5 -39z
M613 316q-44 0 -73 -21t-29 -51q0 -29 27.5 -43t44.5 -14q10 0 32 5.5t47.5 24t25.5 45.5q0 25 -19 39.5t-56 14.5zM488 82q0 -44 62 -44q37 0 61.5 17.5t24.5 42.5q0 38 -61 50q-87 -17 -87 -66z" />
    <glyph glyph-name="arrowleft" unicode="&#x2190;" horiz-adv-x="741" 
d="M696 320l-16 -68h-503l141 -188l-58 -41l-197 263l318 263l44 -51l-218 -178h489z" />
    <glyph glyph-name="arrowup" unicode="&#x2191;" horiz-adv-x="630" 
d="M606 358l-56 -43l-141 179l-115 -494h-75l114 492l-212 -167l-42 53l312 247z" />
    <glyph glyph-name="arrowright" unicode="&#x2192;" horiz-adv-x="742" 
d="M497 549l197 -263l-318 -263l-44 51l218 178h-489l16 68h503l-141 188z" />
    <glyph glyph-name="arrowdown" unicode="&#x2193;" horiz-adv-x="629" 
d="M533 280l42 -53l-312 -247l-215 267l56 43l141 -179l115 494h75l-114 -492z" />
    <glyph glyph-name="arrowboth" unicode="&#x2194;" horiz-adv-x="876" 
d="M631 549l197 -263l-318 -263l-44 51l218 178h-507l141 -188l-58 -41l-197 263l318 263l44 -51l-218 -178h507l-141 188z" />
    <glyph glyph-name="arrowupdn" unicode="&#x2195;" horiz-adv-x="659" 
d="M578 374l-141 180l-116 -500l212 167l42 -53l-312 -248l-215 268l56 43l141 -179l115 499l-210 -167l-42 53l312 248l215 -268z" />
    <glyph glyph-name="uni2196" unicode="&#x2196;" horiz-adv-x="613" 
d="M506 411l-265 1l270 -350l-59 -48l-267 349l-61 -263h-75l87 380h385z" />
    <glyph glyph-name="uni2197" unicode="&#x2197;" horiz-adv-x="607" 
d="M160 480h417l-93 -401h-75l65 278l-400 -321l-45 56l401 320l-286 -1z" />
    <glyph glyph-name="uni2198" unicode="&#x2198;" horiz-adv-x="611" 
d="M494 430h75l-87 -380h-385l15 69l265 -1l-270 350l59 48l267 -349z" />
    <glyph glyph-name="uni2199" unicode="&#x2199;" horiz-adv-x="606" 
d="M578 408l-401 -320l286 1l-16 -69h-417l93 401h75l-65 -278l400 321z" />
    <glyph glyph-name="uni21A5" unicode="&#x21a5;" horiz-adv-x="630" 
d="M550 315l-141 179l-99 -426h160l-15 -68h-391l16 68h155l98 424l-212 -167l-42 53l312 247l215 -267z" />
    <glyph glyph-name="uni21A7" unicode="&#x21a7;" horiz-adv-x="629" 
d="M321 113l212 167l42 -53l-312 -247l-215 267l56 43l141 -179l99 426h-160l15 68h391l-16 -68h-155z" />
    <glyph glyph-name="emptyset" unicode="&#x2205;" horiz-adv-x="749" 
d="M776 590l-102 -83q38 -64 38 -144q0 -146 -112.5 -259.5t-268.5 -113.5q-124 0 -198 76l-100 -81l-36 45l101 82q-37 63 -37 143q0 147 112 261t268 114q123 0 199 -78l102 83zM140 256q0 -51 21 -93l419 341q-52 52 -141 52q-124 0 -211.5 -92.5t-87.5 -207.5zM634 363
q0 52 -21 94l-419 -341q52 -52 141 -52q82 0 152 44.5t108.5 113t38.5 141.5z" />
    <glyph glyph-name="product" unicode="&#x220f;" horiz-adv-x="673" 
d="M694 700l-162 -700h-83l146 629h-341l-146 -629h-83l162 700h507z" />
    <glyph glyph-name="summation" unicode="&#x2211;" horiz-adv-x="581" 
d="M624 700l-17 -70h-352l186 -280l-300 -280h337l-16 -70h-462l13 55l327 304l-191 286l13 55h462z" />
    <glyph glyph-name="minus" unicode="&#x2212;" horiz-adv-x="585" 
d="M68 279h463l-16 -69h-463z" />
    <glyph glyph-name="radical" unicode="&#x221a;" horiz-adv-x="616" 
d="M589 700h100l-429 -700h-99l-82 500h85l61 -403z" />
    <glyph glyph-name="infinity" unicode="&#x221e;" horiz-adv-x="776" 
d="M570 406q61 0 103 -38.5t42 -100.5q0 -75 -59 -126.5t-134 -51.5q-54 0 -90.5 28t-55.5 67q-73 -95 -171 -95q-61 0 -103 39t-42 101q0 74 58 125.5t133 51.5q54 0 91 -28t56 -67q31 40 76 67.5t96 27.5zM210 151q24 0 47.5 10.5t39.5 25.5t29 30t19 25l6 11q-1 4 -2 10
t-8 21.5t-16.5 27.5t-28.5 22t-43 10q-46 0 -84.5 -32.5t-38.5 -82.5q0 -37 22.5 -57.5t57.5 -20.5zM520 151q48 0 86.5 32t38.5 83q0 37 -23 57.5t-57 20.5q-23 0 -46.5 -10.5t-40 -25t-29.5 -29.5t-19 -25l-7 -11q0 -4 1.5 -10t8 -22t16 -28t28.5 -22t43 -10z" />
    <glyph glyph-name="integral" unicode="&#x222b;" horiz-adv-x="505" 
d="M536 700h63l-16 -70h-51q-52 0 -84 -25.5t-59 -97.5l-210 -566q-34 -91 -85.5 -126t-132.5 -35h-60l16 70h51q51 0 82.5 23.5t55.5 89.5l211 563q38 100 88.5 137t130.5 37z" />
    <glyph glyph-name="approxequal" unicode="&#x2248;" horiz-adv-x="613" 
d="M68 271q19 72 62.5 111t103.5 39q31 0 57.5 -13.5t41.5 -29t36 -29t44 -13.5q62 0 89 76h64q-19 -71 -63 -110t-104 -39q-31 0 -56.5 13.5t-40.5 29t-36 29t-44 13.5q-66 0 -90 -77h-64zM46 81q19 72 62.5 111t103.5 39q31 0 57.5 -13.5t41.5 -29t36 -29t44 -13.5
q62 0 89 76h64q-19 -71 -63 -110t-104 -39q-31 0 -56.5 13.5t-40.5 29t-36 29t-44 13.5q-66 0 -90 -77h-64z" />
    <glyph glyph-name="notequal" unicode="&#x2260;" horiz-adv-x="589" 
d="M543 315h-152l-123 -143h238l-16 -69h-281l-106 -123l-43 35l75 88h-108l16 69h152l122 143h-237l16 69h281l99 116l44 -35l-70 -81h109z" />
    <glyph glyph-name="lessequal" unicode="&#x2264;" horiz-adv-x="586" 
d="M63 262l15 69l500 155l-17 -78l-385 -116l331 -116l-17 -69zM466 1h-463l16 68h463z" />
    <glyph glyph-name="greaterequal" unicode="&#x2265;" horiz-adv-x="586" 
d="M527 262l-499 -155l17 77l385 116l-332 117l17 69l428 -155zM20 68h463l-16 -68h-463z" />
    <glyph glyph-name="uni2460" unicode="&#x2460;" 
d="M439 -10q-152 0 -255 103.5t-103 256.5t103 256.5t255 103.5t255 -103.5t103 -256.5t-103 -256.5t-255 -103.5zM439 42q127 0 212.5 89.5t85.5 218.5t-85.5 218.5t-212.5 89.5t-212.5 -90t-85.5 -218t85.5 -218t212.5 -90zM493 526v-360h-59v244q-45 -31 -124 -34v49
q55 3 94.5 27t39.5 74h49z" />
    <glyph glyph-name="uni2461" unicode="&#x2461;" 
d="M439 -10q-152 0 -255 103.5t-103 256.5t103 256.5t255 103.5t255 -103.5t103 -256.5t-103 -256.5t-255 -103.5zM439 42q127 0 212.5 89.5t85.5 218.5t-85.5 218.5t-212.5 89.5t-212.5 -90t-85.5 -218t85.5 -218t212.5 -90zM569 178h-264v38l91 72q54 43 79 72.5t25 68.5
q0 27 -16.5 44.5t-44.5 17.5q-36 0 -52 -26t-14 -68h-60q-3 61 29.5 103.5t98.5 42.5q56 0 88 -31.5t32 -82.5q0 -47 -27 -84.5t-81 -79.5l-47 -37h163v-50z" />
    <glyph glyph-name="uni2462" unicode="&#x2462;" 
d="M439 -10q-152 0 -255 103.5t-103 256.5t103 256.5t255 103.5t255 -103.5t103 -256.5t-103 -256.5t-255 -103.5zM439 42q127 0 212.5 89.5t85.5 218.5t-85.5 218.5t-212.5 89.5t-212.5 -90t-85.5 -218t85.5 -218t212.5 -90zM509 341q56 -21 56 -78q0 -41 -32 -70.5
t-91 -29.5q-60 0 -95 32t-39 84h60q3 -34 23.5 -49.5t49.5 -15.5q31 0 48 16.5t17 40.5q0 23 -18 37.5t-52 14.5h-31v44h34q37 0 57.5 16t20.5 44q0 29 -21 44.5t-54 15.5q-79 0 -88 -77h-58q5 60 42 93.5t103 33.5q60 0 98 -29t38 -79q0 -68 -68 -88z" />
    <glyph glyph-name="uni2463" unicode="&#x2463;" 
d="M439 -10q-152 0 -255 103.5t-103 256.5t103 256.5t255 103.5t255 -103.5t103 -256.5t-103 -256.5t-255 -103.5zM439 42q127 0 212.5 89.5t85.5 218.5t-85.5 218.5t-212.5 89.5t-212.5 -90t-85.5 -218t85.5 -218t212.5 -90zM571 293v-49h-58v-73h-58v73h-177v37l159 250
h76v-238h58zM344 293h111v181z" />
    <glyph glyph-name="uni2464" unicode="&#x2464;" 
d="M439 -10q-152 0 -255 103.5t-103 256.5t103 256.5t255 103.5t255 -103.5t103 -256.5t-103 -256.5t-255 -103.5zM439 42q127 0 212.5 89.5t85.5 218.5t-85.5 218.5t-212.5 89.5t-212.5 -90t-85.5 -218t85.5 -218t212.5 -90zM444 397q59 0 94.5 -33t35.5 -89
q0 -57 -38 -88.5t-99 -31.5q-62 0 -98.5 34t-41.5 86h58q4 -30 25.5 -50t58.5 -20t58 18.5t21 51.5q0 35 -22.5 55t-62.5 20q-29 0 -49.5 -10t-26.5 -19l-45 21l28 183h213v-52h-162l-18 -97q31 21 71 21z" />
    <glyph glyph-name="uni2465" unicode="&#x2465;" 
d="M439 -10q-152 0 -255 103.5t-103 256.5t103 256.5t255 103.5t255 -103.5t103 -256.5t-103 -256.5t-255 -103.5zM439 42q127 0 212.5 89.5t85.5 218.5t-85.5 218.5t-212.5 89.5t-212.5 -90t-85.5 -218t85.5 -218t212.5 -90zM446 406q53 0 89 -33t36 -88t-36.5 -88.5
t-96.5 -33.5q-66 0 -105 46t-39 137q0 94 40 143t111 49q55 0 89.5 -32.5t40.5 -80.5h-55q-4 25 -22.5 44t-55.5 19q-46 0 -69.5 -37t-24.5 -96q33 51 98 51zM438 212q32 0 54 20t22 54t-22 53.5t-53 19.5q-32 0 -54.5 -19.5t-22.5 -54.5q0 -34 22.5 -53.5t53.5 -19.5z" />
    <glyph glyph-name="uni2466" unicode="&#x2466;" 
d="M439 -10q-152 0 -255 103.5t-103 256.5t103 256.5t255 103.5t255 -103.5t103 -256.5t-103 -256.5t-255 -103.5zM439 42q127 0 212.5 89.5t85.5 218.5t-85.5 218.5t-212.5 89.5t-212.5 -90t-85.5 -218t85.5 -218t212.5 -90zM318 515h260v-38l-165 -322h-68l159 308h-186
v52z" />
    <glyph glyph-name="uni2467" unicode="&#x2467;" 
d="M439 -10q-152 0 -255 103.5t-103 256.5t103 256.5t255 103.5t255 -103.5t103 -256.5t-103 -256.5t-255 -103.5zM439 42q127 0 212.5 89.5t85.5 218.5t-85.5 218.5t-212.5 89.5t-212.5 -90t-85.5 -218t85.5 -218t212.5 -90zM509 338q62 -23 62 -78q0 -44 -38 -70.5
t-94 -26.5t-93.5 26.5t-37.5 70.5q0 55 62 78q-77 25 -77 93q0 48 40 77.5t106 29.5q67 0 107 -29.5t40 -77.5q0 -68 -77 -93zM439 489q-40 0 -63 -17.5t-23 -44.5q0 -34 33.5 -50.5t52.5 -16.5q9 0 27.5 5t39 21t20.5 40q0 28 -23 45.5t-64 17.5zM367 263q0 -23 19.5 -37.5
t52.5 -14.5t53 14.5t20 37.5q0 21 -18.5 35.5t-31 17.5t-23.5 5q-72 -12 -72 -58z" />
    <glyph glyph-name="uni2468" unicode="&#x2468;" 
d="M439 -10q-152 0 -255 103.5t-103 256.5t103 256.5t255 103.5t255 -103.5t103 -256.5t-103 -256.5t-255 -103.5zM439 42q127 0 212.5 89.5t85.5 218.5t-85.5 218.5t-212.5 89.5t-212.5 -90t-85.5 -218t85.5 -218t212.5 -90zM437 293q-53 0 -88.5 33t-35.5 88t36.5 88.5
t96.5 33.5q66 0 105 -46t39 -137q0 -94 -40 -143t-112 -49q-54 0 -89.5 32.5t-40.5 80.5h55q4 -25 22.5 -44t55.5 -19q47 0 70 37t24 96q-33 -51 -98 -51zM446 487q-32 0 -54.5 -19.5t-22.5 -54.5q0 -34 22.5 -53.5t53.5 -19.5q32 0 54.5 19.5t22.5 54.5q0 34 -22.5 53.5
t-53.5 19.5z" />
    <glyph glyph-name="uni2469" unicode="&#x2469;" horiz-adv-x="1098" 
d="M702 710q152 0 255 -103.5t103 -256.5t-103 -256.5t-255 -103.5h-263q-152 0 -255 103.5t-103 256.5t103 256.5t255 103.5h263zM702 42q127 0 212.5 90t85.5 218t-85.5 218t-212.5 90h-263q-127 0 -212.5 -90t-85.5 -218t85.5 -218t212.5 -90h263zM702 162
q-76 0 -112 54.5t-36 131.5q0 49 13.5 89.5t48 69.5t86.5 29t86.5 -29t48 -69.5t13.5 -89.5q0 -77 -36 -131.5t-112 -54.5zM469 530v-360h-59v244q-45 -31 -124 -34v49q55 3 94.5 27t39.5 74h49zM702 216q41 0 63.5 34.5t22.5 97.5q0 65 -22.5 99.5t-63.5 34.5t-63.5 -34.5
t-22.5 -99.5q0 -63 22.5 -97.5t63.5 -34.5z" />
    <glyph glyph-name="uni24EA" unicode="&#x24ea;" 
d="M439 -10q-152 0 -255 103.5t-103 256.5t103 256.5t255 103.5t255 -103.5t103 -256.5t-103 -256.5t-255 -103.5zM439 42q127 0 212.5 89.5t85.5 218.5t-85.5 218.5t-212.5 89.5t-212.5 -90t-85.5 -218t85.5 -218t212.5 -90zM439 164q-76 0 -112 54.5t-36 131.5
q0 49 13.5 89.5t48 69.5t86.5 29t86.5 -29t48 -69.5t13.5 -89.5q0 -77 -36 -131.5t-112 -54.5zM439 218q41 0 63.5 34.5t22.5 97.5q0 65 -22.5 99.5t-63.5 34.5t-63.5 -34.5t-22.5 -99.5q0 -63 22.5 -97.5t63.5 -34.5z" />
    <glyph glyph-name="uni24FF" unicode="&#x24ff;" 
d="M439 -10q-152 0 -255 103.5t-103 256.5t103 256.5t255 103.5t255 -103.5t103 -256.5t-103 -256.5t-255 -103.5zM441 164q76 0 112 54.5t36 131.5q0 49 -13.5 89.5t-48 69.5t-86.5 29t-86.5 -29t-48 -69.5t-13.5 -89.5q0 -77 36 -131.5t112 -54.5zM441 218
q-41 0 -63.5 34.5t-22.5 97.5q0 65 22.5 99.5t63.5 34.5t63.5 -34.5t22.5 -99.5q0 -63 -22.5 -97.5t-63.5 -34.5z" />
    <glyph glyph-name="lozenge" unicode="&#x25ca;" horiz-adv-x="603" 
d="M61 294l300 241l197 -255l-299 -241zM152 287l121 -158l194 158l-121 158z" />
    <glyph glyph-name="uni25CF" unicode="&#x25cf;" horiz-adv-x="654" 
d="M339 40q-114 0 -192 78t-78 192t78 192t192 78t192 -78t78 -192t-78 -192t-192 -78z" />
    <glyph glyph-name="smileface" unicode="&#x263a;" horiz-adv-x="839" 
d="M801 350q0 -150 -105 -255t-255 -105t-255 106t-105 254q0 149 105.5 254.5t254.5 105.5q151 0 255.5 -105.5t104.5 -254.5zM253 533v-45h44v-128h46v128h44v45h-134zM495 533v-45h45v-128h45v128h45v45h-135zM441 81q109 0 187 76t81 183l-46 8q0 -92 -65 -156.5
t-157 -64.5q-91 0 -156 64.5t-65 156.5l-46 -8q3 -107 81 -183t186 -76z" />
    <glyph glyph-name="uni2731" unicode="&#x2731;" horiz-adv-x="498" 
d="M457 304l-150 -43l96 -122l-55 -41l-87 129l-87 -129l-55 41l96 123l-150 42l21 65l147 -53l-6 155h68l-6 -156l147 54z" />
    <glyph glyph-name="uni2776" unicode="&#x2776;" 
d="M439 -10q-152 0 -255 103.5t-103 256.5t103 256.5t255 103.5t255 -103.5t103 -256.5t-103 -256.5t-255 -103.5zM495 166v360h-49q0 -50 -39.5 -74t-94.5 -27v-49q79 3 124 34v-244h59z" />
    <glyph glyph-name="uni2777" unicode="&#x2777;" 
d="M439 -10q-152 0 -255 103.5t-103 256.5t103 256.5t255 103.5t255 -103.5t103 -256.5t-103 -256.5t-255 -103.5zM307 178h264v50h-163l47 37q54 42 81 79.5t27 84.5q0 51 -32 82.5t-88 31.5q-66 0 -98.5 -42.5t-29.5 -103.5h60q-2 42 14 68t52 26q28 0 44.5 -17.5
t16.5 -44.5q0 -39 -25 -68.5t-79 -72.5l-91 -72v-38z" />
    <glyph glyph-name="uni2778" unicode="&#x2778;" 
d="M439 -10q-152 0 -255 103.5t-103 256.5t103 256.5t255 103.5t255 -103.5t103 -256.5t-103 -256.5t-255 -103.5zM511 341q68 20 68 88q0 50 -38 79t-98 29q-66 0 -103 -33.5t-42 -93.5h58q9 77 88 77q33 0 54 -15.5t21 -44.5q0 -28 -20.5 -44t-57.5 -16h-34v-44h31
q34 0 52 -14.5t18 -37.5q0 -24 -17 -40.5t-48 -16.5q-29 0 -49.5 15.5t-23.5 49.5h-60q4 -52 39 -84t95 -32q59 0 91 29.5t32 70.5q0 57 -56 78z" />
    <glyph glyph-name="uni2779" unicode="&#x2779;" 
d="M439 -10q-152 0 -255 103.5t-103 256.5t103 256.5t255 103.5t255 -103.5t103 -256.5t-103 -256.5t-255 -103.5zM573 244v49h-58v238h-76l-159 -250v-37h177v-73h58v73h58zM457 293h-111l111 181v-181z" />
    <glyph glyph-name="uni277A" unicode="&#x277a;" 
d="M439 -10q-152 0 -255 103.5t-103 256.5t103 256.5t255 103.5t255 -103.5t103 -256.5t-103 -256.5t-255 -103.5zM446 397q-40 0 -71 -21l18 97h162v52h-213l-28 -183l45 -21q6 9 26.5 19t49.5 10q40 0 62.5 -20t22.5 -55q0 -33 -21 -51.5t-58 -18.5t-58.5 20t-25.5 50h-58
q5 -52 41.5 -86t98.5 -34q61 0 99 31.5t38 88.5q0 56 -35.5 89t-94.5 33z" />
    <glyph glyph-name="uni277B" unicode="&#x277b;" 
d="M439 -10q-152 0 -255 103.5t-103 256.5t103 256.5t255 103.5t255 -103.5t103 -256.5t-103 -256.5t-255 -103.5zM448 406q-65 0 -98 -51q1 59 24.5 96t69.5 37q37 0 55.5 -19t22.5 -44h55q-6 48 -40.5 80.5t-89.5 32.5q-71 0 -111 -49t-40 -143q0 -91 39 -137t105 -46
q60 0 96.5 33.5t36.5 88.5t-36 88t-89 33zM440 212q-31 0 -53.5 19.5t-22.5 53.5q0 35 22.5 54.5t54.5 19.5q31 0 53 -19.5t22 -53.5t-22 -54t-54 -20z" />
    <glyph glyph-name="uni277C" unicode="&#x277c;" 
d="M439 -10q-152 0 -255 103.5t-103 256.5t103 256.5t255 103.5t255 -103.5t103 -256.5t-103 -256.5t-255 -103.5zM580 515h-260v-52h186l-159 -308h68l165 322v38z" />
    <glyph glyph-name="uni277D" unicode="&#x277d;" 
d="M439 -10q-152 0 -255 103.5t-103 256.5t103 256.5t255 103.5t255 -103.5t103 -256.5t-103 -256.5t-255 -103.5zM511 338q77 25 77 93q0 48 -40 77.5t-107 29.5q-66 0 -106 -29.5t-40 -77.5q0 -68 77 -93q-62 -23 -62 -78q0 -44 37.5 -70.5t93.5 -26.5t94 26.5t38 70.5
q0 55 -62 78zM441 489q41 0 64 -17.5t23 -45.5q0 -24 -20.5 -40t-39 -21t-27.5 -5t-27 5t-38.5 21.5t-20.5 40.5q0 27 23 44.5t63 17.5zM369 263q0 46 72 58q11 -2 23.5 -5t31 -17.5t18.5 -35.5q0 -23 -20 -37.5t-53 -14.5t-52.5 14.5t-19.5 37.5z" />
    <glyph glyph-name="uni277E" unicode="&#x277e;" 
d="M439 -10q-152 0 -255 103.5t-103 256.5t103 256.5t255 103.5t255 -103.5t103 -256.5t-103 -256.5t-255 -103.5zM439 293q65 0 98 51q-1 -59 -24 -96t-70 -37q-37 0 -55.5 19t-22.5 44h-55q5 -48 40.5 -80.5t89.5 -32.5q72 0 112 49t40 143q0 91 -39 137t-105 46
q-60 0 -96.5 -33.5t-36.5 -88.5t35.5 -88t88.5 -33zM448 487q31 0 53.5 -19.5t22.5 -53.5q0 -35 -22.5 -54.5t-54.5 -19.5q-31 0 -53.5 19.5t-22.5 53.5q0 35 22.5 54.5t54.5 19.5z" />
    <glyph glyph-name="uni277F" unicode="&#x277f;" horiz-adv-x="1097" 
d="M439 710h262q152 0 255 -103.5t103 -256.5t-103 -256.5t-255 -103.5h-262q-152 0 -255 103.5t-103 256.5t103 256.5t255 103.5zM699 162q76 0 112 54.5t36 131.5q0 49 -13.5 89.5t-48 69.5t-86.5 29t-86.5 -29t-48 -69.5t-13.5 -89.5q0 -77 36 -131.5t112 -54.5zM466 170
v360h-49q0 -50 -39.5 -74t-94.5 -27v-49q79 3 124 34v-244h59zM699 216q-41 0 -63.5 34.5t-22.5 97.5q0 65 22.5 99.5t63.5 34.5t63.5 -34.5t22.5 -99.5q0 -63 -22.5 -97.5t-63.5 -34.5z" />
    <glyph glyph-name="uni27FB" unicode="&#x27fb;" horiz-adv-x="838" 
d="M734 481h75l-90 -390h-76l38 161h-503l141 -188l-58 -41l-197 263l318 263l44 -51l-218 -178h488z" />
    <glyph glyph-name="uni27FC" unicode="&#x27fc;" horiz-adv-x="839" 
d="M594 549l197 -263l-318 -263l-44 51l218 178h-488l-38 -161h-75l90 390h76l-38 -161h503l-141 188z" />
    <glyph glyph-name="Adieresis.ss02" horiz-adv-x="664" 
d="M341 760q-22 0 -35 13.5t-13 34.5q0 27 21.5 47.5t51.5 20.5q22 0 35 -13t13 -34q0 -28 -21.5 -48.5t-51.5 -20.5zM584 876q21 0 34 -13t13 -34q0 -28 -21 -48.5t-51 -20.5q-22 0 -35 13.5t-13 34.5q0 27 21.5 47.5t51.5 20.5zM489 700l92 -700h-90l-21 177h-303
l-105 -177h-96l417 700h106zM212 253h248l-42 349z" />
    <glyph glyph-name="B.ss03" horiz-adv-x="633" 
d="M449 358q122 -31 122 -159q0 -90 -64 -144.5t-203 -54.5h-190h-89l162 700h89h143q99 0 146.5 -44t47.5 -114q0 -64 -41.5 -113t-122.5 -71zM406 623h-148l-54 -236h134q80 0 130 39t50 103q0 94 -112 94zM318 78q82 0 122.5 36t40.5 92q0 50 -30 77.5t-84 27.5h-181
l-54 -233h186z" />
    <glyph glyph-name="Cdotaccent.ss02" horiz-adv-x="739" 
d="M497 781q-25 0 -39.5 15t-14.5 38q0 32 24 55t58 23q24 0 38.5 -15t14.5 -39q0 -31 -24 -54t-57 -23zM678 242q-40 -130 -130 -191t-206 -61q-130 0 -201.5 73.5t-73.5 206.5q-2 116 48.5 216.5t145.5 162t214 61.5q125 0 191.5 -66.5t58.5 -172.5h-90q4 72 -39 116
t-129 44q-92 0 -164 -51.5t-108.5 -131t-36.5 -169.5q0 -100 49.5 -155.5t147.5 -55.5q162 0 233 174h90z" />
    <glyph glyph-name="Edieresis.ss02" horiz-adv-x="584" 
d="M309 760q-22 0 -35 13.5t-13 34.5q0 27 21.5 47.5t51.5 20.5q22 0 35 -13t13 -34q0 -28 -21.5 -48.5t-51.5 -20.5zM527 760q-22 0 -35 13.5t-13 34.5q0 27 21.5 47.5t51.5 20.5q21 0 34 -13t13 -34q0 -28 -21 -48.5t-51 -20.5zM601 620h-342l-52 -227h322l-18 -76h-322
l-54 -237h341l-18 -80h-433l162 700h433z" />
    <glyph glyph-name="Edotaccent.ss02" horiz-adv-x="584" 
d="M424 781q-25 0 -39.5 15t-14.5 38q0 32 24 55t58 23q24 0 38.5 -15t14.5 -39q0 -31 -24 -54t-57 -23zM601 620h-342l-52 -227h322l-18 -76h-322l-54 -237h341l-18 -80h-433l162 700h433z" />
    <glyph glyph-name="Euro.ss07" horiz-adv-x="704" 
d="M683 441h-78q3 54 -27 86.5t-94 32.5q-70 0 -128 -40t-93 -107h254l-36 -61h-242q-13 -42 -15 -88h214l-35 -61h-178q8 -70 46.5 -107t105.5 -37q121 0 172 118h79q-30 -97 -101 -142t-157 -45q-102 0 -160 59t-68 154h-108l14 61h92q3 49 14 88h-86l15 61h92
q41 97 122 157t189 60q95 0 149.5 -49.5t47.5 -139.5z" />
    <glyph glyph-name="Gcommaaccent.ss02" horiz-adv-x="760" 
d="M730 466h-89q9 80 -30.5 123.5t-123.5 43.5q-138 0 -234 -105.5t-96 -250.5q0 -95 48.5 -152t152.5 -57q200 0 249 214h-244l16 73h328l-3 -14l-1 -5l-12 -54h-1l-65 -282h-61l18 115q-85 -124 -242 -125q-129 -1 -200.5 74t-73.5 205q-2 116 50.5 217t150.5 162.5
t219 61.5q129 0 195 -68t49 -176zM307 -73q48 0 48 -61q0 -59 -41 -102t-116 -50l9 39q26 2 48 18t27 38q-48 0 -48 47q0 28 22 49.5t51 21.5z" />
    <glyph glyph-name="Gdotaccent.ss02" horiz-adv-x="760" 
d="M505 781q-25 0 -39.5 15t-14.5 38q0 32 24 55t58 23q24 0 38.5 -15t14.5 -39q0 -31 -24 -54t-57 -23zM730 466h-89q9 80 -30.5 123.5t-123.5 43.5q-138 0 -234 -105.5t-96 -250.5q0 -95 48.5 -152t152.5 -57q200 0 249 214h-244l16 73h328l-3 -14l-1 -5l-12 -54h-1
l-65 -282h-61l18 115q-85 -124 -242 -125q-129 -1 -200.5 74t-73.5 205q-2 116 50.5 217t150.5 162.5t219 61.5q129 0 195 -68t49 -176z" />
    <glyph glyph-name="I.ss06" horiz-adv-x="417" 
d="M439 622h-99l-126 -544h100l-18 -78h-291l18 78h100l126 544h-101l19 78h291z" />
    <glyph glyph-name="IJ.ss05" horiz-adv-x="610" 
d="M44 80h120q114 0 188.5 62t100.5 177l88 381h91l-99 -431q-26 -117 -122 -193t-233 -76h-153zM171 201h-91l116 499h91z" />
    <glyph glyph-name="IJ.ss05.ss06" horiz-adv-x="955" 
d="M340 622l-126 -544h100l-18 -78h-291l18 78h100l126 544h-101l19 78h291l-19 -78h-99zM986 700l-19 -81h-1l-80 -350q-26 -117 -122 -193t-233 -76h-153l19 80h120q114 0 188.5 62t100.5 177l69 300h-228l19 81h320z" />
    <glyph glyph-name="IJ.ss06" horiz-adv-x="1008" 
d="M340 622l-126 -544h100l-18 -78h-291l18 78h100l126 544h-101l19 78h291l-19 -78h-99zM1032 700l-106 -456q-29 -124 -104 -189t-191 -65q-122 0 -176.5 69.5t-26.5 195.5l7 32h88l-7 -32q-20 -91 11.5 -138.5t107.5 -47.5q159 0 206 201l81 349h-229l19 81h320z" />
    <glyph glyph-name="Iacute.ss06" horiz-adv-x="417" 
d="M509 919l-155 -142h-92l129 142h118zM458 700l-19 -78h-99l-126 -544h100l-18 -78h-291l18 78h100l126 544h-101l19 78h291z" />
    <glyph glyph-name="Ibreve.ss06" horiz-adv-x="417" 
d="M338 770q-63 0 -96.5 41.5t-21.5 95.5h73q-5 -30 7.5 -50.5t45.5 -20.5q32 0 53 20.5t29 50.5h75q-15 -61 -58.5 -99t-106.5 -38zM458 700l-19 -78h-99l-126 -544h100l-18 -78h-291l18 78h100l126 544h-101l19 78h291z" />
    <glyph glyph-name="Icircumflex.ss06" horiz-adv-x="417" 
d="M351 853l-84 -85h-89l138 140h90l71 -140h-82zM458 700l-19 -78h-99l-126 -544h100l-18 -78h-291l18 78h100l126 544h-101l19 78h291z" />
    <glyph glyph-name="Idieresis.ss02" horiz-adv-x="257" 
d="M138 760q-22 0 -35 13.5t-13 34.5q0 27 21.5 47.5t51.5 20.5q21 0 34.5 -13t13.5 -34q0 -28 -21.5 -48.5t-51.5 -20.5zM356 760q-22 0 -35 13.5t-13 34.5q0 27 21.5 47.5t51.5 20.5q21 0 34 -13t13 -34q0 -28 -21 -48.5t-51 -20.5zM116 0h-91l162 700h91z" />
    <glyph glyph-name="Idieresis.ss06" horiz-adv-x="417" 
d="M293 873l-21 -95h-98l22 95h97zM413 873h97l-22 -95h-97zM458 700l-19 -78h-99l-126 -544h100l-18 -78h-291l18 78h100l126 544h-101l19 78h291z" />
    <glyph glyph-name="Idieresis.ss06.ss02" horiz-adv-x="417" 
d="M218 760q-22 0 -35 13.5t-13 34.5q0 27 21.5 47.5t51.5 20.5q21 0 34.5 -13t13.5 -34q0 -28 -21.5 -48.5t-51.5 -20.5zM461 876q21 0 34 -13t13 -34q0 -28 -21 -48.5t-51 -20.5q-22 0 -35 13.5t-13 34.5q0 27 21.5 47.5t51.5 20.5zM458 700l-19 -78h-99l-126 -544h100
l-18 -78h-291l18 78h100l126 544h-101l19 78h291z" />
    <glyph glyph-name="Idotaccent.ss02" horiz-adv-x="257" 
d="M253 781q-25 0 -39.5 15t-14.5 38q0 32 24 55t58 23q24 0 38.5 -15t14.5 -39q0 -31 -24 -54t-57 -23zM116 0h-91l162 700h91z" />
    <glyph glyph-name="Idotaccent.ss06" horiz-adv-x="417" 
d="M411 894l-23 -101h-108l23 101h108zM439 622h-99l-126 -544h100l-18 -78h-291l18 78h100l126 544h-101l19 78h291z" />
    <glyph glyph-name="Idotaccent.ss06.ss02" horiz-adv-x="417" 
d="M333 781q-25 0 -39.5 15t-14.5 38q0 32 24 55t58 23q24 0 38.5 -15t14.5 -39q0 -31 -24 -54t-57 -23zM439 622h-99l-126 -544h100l-18 -78h-291l18 78h100l126 544h-101l19 78h291z" />
    <glyph glyph-name="Igrave.ss06" horiz-adv-x="417" 
d="M398 777h-82l-99 142h108zM439 622h-99l-126 -544h100l-18 -78h-291l18 78h100l126 544h-101l19 78h291z" />
    <glyph glyph-name="Imacron.ss06" horiz-adv-x="417" 
d="M195 861h307l-15 -71h-307zM458 700l-19 -78h-99l-126 -544h100l-18 -78h-291l18 78h100l126 544h-101l19 78h291z" />
    <glyph glyph-name="Iogonek.ss06" horiz-adv-x="417" 
d="M439 622h-99l-126 -544h100l-18 -78h-100q-106 -55 -106 -116q0 -46 69 -46h19l-15 -64h-30q-59 0 -89 30t-30 72q0 41 27 69t78 55h-114l18 78h100l126 544h-101l19 78h291z" />
    <glyph glyph-name="Itilde.ss06" horiz-adv-x="417" 
d="M481 903h62q-21 -60 -57.5 -90.5t-79.5 -30.5q-27 0 -47.5 8.5t-30 18.5t-23.5 18.5t-31 8.5q-42 0 -67 -51h-59q42 121 138 121q41 0 74 -27t58 -27q42 0 63 51zM458 700l-19 -78h-99l-126 -544h100l-18 -78h-291l18 78h100l126 544h-101l19 78h291z" />
    <glyph glyph-name="J.ss05" horiz-adv-x="538" 
d="M-20 80h120q114 0 188.5 62t100.5 177l88 381h91l-99 -431q-26 -117 -122 -193t-233 -76h-153z" />
    <glyph glyph-name="J.ss05.ss06" horiz-adv-x="538" 
d="M569 700l-19 -81h-1l-80 -350q-26 -117 -122 -193t-233 -76h-153l19 80h120q114 0 188.5 62t100.5 177l69 300h-228l19 81h320z" />
    <glyph glyph-name="J.ss06" horiz-adv-x="636" 
d="M660 700l-106 -456q-29 -124 -104 -189t-191 -65q-122 0 -176.5 69.5t-26.5 195.5l7 32h88l-7 -32q-20 -91 11.5 -138.5t107.5 -47.5q159 0 206 201l81 349h-229l19 81h320z" />
    <glyph glyph-name="Jcircumflex.ss05" horiz-adv-x="538" 
d="M688 768h-82l-44 85l-84 -85h-89l138 140h90zM-20 80h120q114 0 188.5 62t100.5 177l88 381h91l-99 -431q-26 -117 -122 -193t-233 -76h-153z" />
    <glyph glyph-name="Jcircumflex.ss05.ss06" horiz-adv-x="538" 
d="M448 853l-84 -85h-89l138 140h90l71 -140h-82zM569 700l-19 -81h-1l-80 -350q-26 -117 -122 -193t-233 -76h-153l19 80h120q114 0 188.5 62t100.5 177l69 300h-228l19 81h320z" />
    <glyph glyph-name="Jcircumflex.ss06" horiz-adv-x="636" 
d="M538 853l-84 -85h-89l138 140h90l71 -140h-82zM340 700h320l-106 -456q-29 -124 -104 -189t-191 -65q-122 0 -176.5 69.5t-26.5 195.5l7 32h88l-7 -32q-20 -91 11.5 -138.5t107.5 -47.5q159 0 206 201l81 349h-229z" />
    <glyph glyph-name="Kcommaaccent.ss02" horiz-adv-x="610" 
d="M676 700l-355 -320l211 -380h-101l-178 318l-81 -74l-57 -244h-90l162 700h90l-74 -318l352 318h121zM239 -73q48 0 48 -61q0 -59 -41 -102t-116 -50l9 39q26 2 48 18t27 38q-48 0 -48 47q0 28 22 49.5t51 21.5z" />
    <glyph glyph-name="Lcaron.ss02" horiz-adv-x="580" 
d="M509 648q0 -60 -41 -103t-117 -50l9 39q26 2 48 18t27 38q-48 0 -48 48q0 29 22 50t52 21q48 0 48 -61zM280 700l-143 -619h355l-18 -81h-449l162 700h93z" />
    <glyph glyph-name="Lcommaaccent.ss02" horiz-adv-x="580" 
d="M137 81h355l-18 -81h-449l162 700h93zM229 -73q48 0 48 -61q0 -59 -41 -102t-116 -50l9 39q26 2 48 18t27 38q-48 0 -48 47q0 28 22 49.5t51 21.5z" />
    <glyph glyph-name="Ldot.ss02" horiz-adv-x="580" 
d="M137 81h355l-18 -81h-449l162 700h93zM360 320q-23 0 -36 13.5t-13 35.5q0 29 22 50t53 21q22 0 35.5 -14t13.5 -35q0 -29 -22 -50t-53 -21z" />
    <glyph glyph-name="Ncommaaccent.ss02" horiz-adv-x="728" 
d="M661 700h88l-162 -700h-108l-226 601l-139 -601h-89l162 700h110l225 -601zM296 -73q48 0 48 -61q0 -59 -41 -102t-116 -50l9 39q26 2 48 18t27 38q-48 0 -48 47q0 28 22 49.5t51 21.5z" />
    <glyph glyph-name="Odieresis.ss02" horiz-adv-x="780" 
d="M386 760q-22 0 -35 13.5t-13 34.5q0 27 21.5 47.5t51.5 20.5q21 0 34.5 -13t13.5 -34q0 -28 -21.5 -48.5t-51.5 -20.5zM604 760q-22 0 -35 13.5t-13 34.5q0 27 21.5 47.5t51.5 20.5q21 0 34 -13t13 -34q0 -28 -21 -48.5t-51 -20.5zM345 -10q-136 0 -206.5 77.5
t-70.5 213.5q0 184 116.5 306.5t293.5 122.5q136 0 206.5 -78t70.5 -214q0 -182 -116.5 -305t-293.5 -123zM351 69q130 0 219 103t89 248q0 100 -47.5 155.5t-139.5 55.5q-130 0 -219 -102.5t-89 -248.5q0 -101 48 -156t139 -55z" />
    <glyph glyph-name="Rcommaaccent.ss02" horiz-adv-x="636" 
d="M623 510q0 -76 -48.5 -132.5t-153.5 -75.5q85 -31 98 -138l19 -164h-94l-16 159q-3 24 -10 42t-15.5 30.5t-27 20.5t-33 12.5t-46 6.5t-53.5 2.5t-66 0.5l-63 -274h-89l162 700h220q112 0 164 -54.5t52 -135.5zM355 351q89 0 132.5 44t43.5 107q0 50 -29 84t-90 34h-155
l-62 -269h160zM258 -73q48 0 48 -61q0 -59 -41 -102t-116 -50l9 39q26 2 48 18t27 38q-48 0 -48 47q0 28 22 49.5t51 21.5z" />
    <glyph glyph-name="S.ss03" horiz-adv-x="640" 
d="M534 493q10 72 -21.5 105.5t-106.5 33.5q-82 0 -126 -34.5t-44 -88.5q0 -47 35 -69.5t133 -55.5q79 -25 123.5 -65.5t44.5 -115.5q0 -100 -80 -156.5t-200 -56.5q-128 0 -194.5 65t-48.5 182h89q-9 -79 28.5 -123.5t126.5 -44.5q81 0 133.5 35.5t52.5 96.5q0 50 -34.5 73
t-117.5 49q-41 12 -68.5 24t-57 32.5t-44.5 52t-15 73.5q0 93 73.5 149t192.5 56q124 0 176.5 -60.5t37.5 -156.5h-88z" />
    <glyph glyph-name="S_t.ss08" horiz-adv-x="914" 
d="M786 434l-60 -263q-23 -101 65 -101h53l-16 -70h-50q-86 0 -120.5 45.5t-16.5 124.5l61 264h-173q17 87 -20.5 142t-126.5 55q-76 0 -132 -39t-56 -104q0 -48 34 -72t120 -52q38 -11 61.5 -21t54.5 -29.5t46.5 -50.5t15.5 -73q0 -89 -69.5 -144.5t-183.5 -55.5
q-117 0 -173.5 58.5t-42.5 158.5h89q-8 -71 23.5 -105t105.5 -34q77 0 118 33.5t41 85.5q0 19 -7 34t-16.5 25t-34 21t-44 18t-61.5 21q-86 27 -128 69t-42 108q0 100 83.5 163.5t199.5 63.5q109 0 173 -58.5t62 -151.5h98l27 118l88 14l-30 -132h123l-16 -66h-123z" />
    <glyph glyph-name="Sacute.ss03" horiz-adv-x="640" 
d="M500 919h118l-155 -142h-92zM534 493q10 72 -21.5 105.5t-106.5 33.5q-82 0 -126 -34.5t-44 -88.5q0 -47 35 -69.5t133 -55.5q79 -25 123.5 -65.5t44.5 -115.5q0 -100 -80 -156.5t-200 -56.5q-128 0 -194.5 65t-48.5 182h89q-9 -79 28.5 -123.5t126.5 -44.5
q81 0 133.5 35.5t52.5 96.5q0 50 -34.5 73t-117.5 49q-41 12 -68.5 24t-57 32.5t-44.5 52t-15 73.5q0 93 73.5 149t192.5 56q124 0 176.5 -60.5t37.5 -156.5h-88z" />
    <glyph glyph-name="Scaron.ss03" horiz-adv-x="640" 
d="M530 910h89l-137 -140h-90l-72 140h82l44 -85zM534 493q10 72 -21.5 105.5t-106.5 33.5q-82 0 -126 -34.5t-44 -88.5q0 -47 35 -69.5t133 -55.5q79 -25 123.5 -65.5t44.5 -115.5q0 -100 -80 -156.5t-200 -56.5q-128 0 -194.5 65t-48.5 182h89q-9 -79 28.5 -123.5
t126.5 -44.5q81 0 133.5 35.5t52.5 96.5q0 50 -34.5 73t-117.5 49q-41 12 -68.5 24t-57 32.5t-44.5 52t-15 73.5q0 93 73.5 149t192.5 56q124 0 176.5 -60.5t37.5 -156.5h-88z" />
    <glyph glyph-name="Scedilla.ss03" horiz-adv-x="640" 
d="M622 493h-88q10 72 -21.5 105.5t-106.5 33.5q-82 0 -126 -34.5t-44 -88.5q0 -47 35 -69.5t133 -55.5q79 -25 123.5 -65.5t44.5 -115.5q0 -96 -74 -152t-187 -61q41 -36 41 -88q0 -55 -43.5 -91.5t-123.5 -36.5h-53l14 63h40q47 0 71.5 20t24.5 53q0 45 -48 84
q-101 14 -151 77t-34 166h89q-9 -79 28.5 -123.5t126.5 -44.5q81 0 133.5 35.5t52.5 96.5q0 50 -34.5 73t-117.5 49q-41 12 -68.5 24t-57 32.5t-44.5 52t-15 73.5q0 93 73.5 149t192.5 56q124 0 176.5 -60.5t37.5 -156.5z" />
    <glyph glyph-name="Scircumflex.ss03" horiz-adv-x="640" 
d="M586 768h-82l-44 85l-84 -85h-89l138 140h90zM534 493q10 72 -21.5 105.5t-106.5 33.5q-82 0 -126 -34.5t-44 -88.5q0 -47 35 -69.5t133 -55.5q79 -25 123.5 -65.5t44.5 -115.5q0 -100 -80 -156.5t-200 -56.5q-128 0 -194.5 65t-48.5 182h89q-9 -79 28.5 -123.5
t126.5 -44.5q81 0 133.5 35.5t52.5 96.5q0 50 -34.5 73t-117.5 49q-41 12 -68.5 24t-57 32.5t-44.5 52t-15 73.5q0 93 73.5 149t192.5 56q124 0 176.5 -60.5t37.5 -156.5h-88z" />
    <glyph glyph-name="Scommaaccent.ss02" horiz-adv-x="640" 
d="M145 207q-8 -71 23.5 -105t105.5 -34q77 0 118 33.5t41 85.5q0 45 -33 66.5t-130 52.5q-86 27 -127.5 69t-41.5 108q0 100 84 163.5t205 63.5q122 0 189 -66.5t50 -180.5h-89q9 78 -27 123t-122 45q-83 0 -140 -39t-57 -105q0 -48 33.5 -71.5t119.5 -51.5
q38 -11 62.5 -21t55 -30t46 -51t15.5 -73q0 -88 -69 -143.5t-184 -55.5q-116 0 -173.5 58.5t-43.5 158.5h89zM240 -73q48 0 48 -61q0 -59 -41 -102t-116 -50l9 39q26 2 48 18t27 38q-48 0 -48 47q0 28 22 49.5t51 21.5z" />
    <glyph glyph-name="Scommaaccent.ss03" horiz-adv-x="640" 
d="M622 493h-88q10 72 -21.5 105.5t-106.5 33.5q-82 0 -126 -34.5t-44 -88.5q0 -47 35 -69.5t133 -55.5q79 -25 123.5 -65.5t44.5 -115.5q0 -100 -80 -156.5t-200 -56.5q-128 0 -194.5 65t-48.5 182h89q-9 -79 28.5 -123.5t126.5 -44.5q81 0 133.5 35.5t52.5 96.5
q0 50 -34.5 73t-117.5 49q-41 12 -68.5 24t-57 32.5t-44.5 52t-15 73.5q0 93 73.5 149t192.5 56q124 0 176.5 -60.5t37.5 -156.5zM190 -166l23 95h106l-15 -63q-19 -80 -51 -110t-102 -38l11 43q35 3 51.5 19.5t25.5 53.5h-49z" />
    <glyph glyph-name="Scommaaccent.ss03.ss02" horiz-adv-x="640" 
d="M534 493q10 72 -21.5 105.5t-106.5 33.5q-82 0 -126 -34.5t-44 -88.5q0 -47 35 -69.5t133 -55.5q79 -25 123.5 -65.5t44.5 -115.5q0 -100 -80 -156.5t-200 -56.5q-128 0 -194.5 65t-48.5 182h89q-9 -79 28.5 -123.5t126.5 -44.5q81 0 133.5 35.5t52.5 96.5q0 50 -34.5 73
t-117.5 49q-41 12 -68.5 24t-57 32.5t-44.5 52t-15 73.5q0 93 73.5 149t192.5 56q124 0 176.5 -60.5t37.5 -156.5h-88zM259 -73q48 0 48 -61q0 -59 -41 -102t-116 -50l9 39q26 2 48 18t27 38q-48 0 -48 47q0 28 22 49.5t51 21.5z" />
    <glyph glyph-name="Udieresis.ss02" horiz-adv-x="715" 
d="M366 760q-22 0 -35 13.5t-13 34.5q0 27 21.5 47.5t51.5 20.5q21 0 34.5 -13t13.5 -34q0 -28 -21.5 -48.5t-51.5 -20.5zM584 760q-22 0 -35 13.5t-13 34.5q0 27 21.5 47.5t51.5 20.5q21 0 34 -13t13 -34q0 -28 -21 -48.5t-51 -20.5zM184 700h91l-92 -399
q-54 -232 133 -232q184 0 239 232l92 399h91l-96 -415q-32 -141 -116 -220t-223 -75q-134 4 -190 83.5t-21 226.5z" />
    <glyph glyph-name="Wdieresis.ss02" horiz-adv-x="998" 
d="M508 760q-22 0 -35 13.5t-13 34.5q0 27 21.5 47.5t51.5 20.5q21 0 34.5 -13t13.5 -34q0 -28 -21.5 -48.5t-51.5 -20.5zM726 760q-22 0 -35 13.5t-13 34.5q0 27 21.5 47.5t51.5 20.5q21 0 34 -13t13 -34q0 -28 -21 -48.5t-51 -20.5zM963 700h96l-327 -700h-95l-50 615
l-336 -615h-102l-3 700h88l-7 -590l322 590h106l48 -581z" />
    <glyph glyph-name="Y.ss04" horiz-adv-x="664" 
d="M741 700l-353 -401l-68 -299h-91l68 299l-166 401h100l126 -308l267 308h117z" />
    <glyph glyph-name="Yacute.ss04" horiz-adv-x="664" 
d="M632 919l-155 -142h-92l129 142h118zM741 700l-353 -401l-68 -299h-91l68 299l-166 401h100l126 -308l267 308h117z" />
    <glyph glyph-name="Ycircumflex.ss04" horiz-adv-x="664" 
d="M474 853l-84 -85h-89l138 140h90l71 -140h-82zM741 700l-353 -401l-68 -299h-91l68 299l-166 401h100l126 -308l267 308h117z" />
    <glyph glyph-name="Ydieresis.ss02" horiz-adv-x="653" 
d="M333 760q-22 0 -35 13.5t-13 34.5q0 27 21.5 47.5t51.5 20.5q22 0 35 -13t13 -34q0 -28 -21.5 -48.5t-51.5 -20.5zM551 760q-22 0 -35 13.5t-13 34.5q0 27 21.5 47.5t51.5 20.5q21 0 34 -13t13 -34q0 -28 -21 -48.5t-51 -20.5zM610 700h110l-503 -700h-108l198 272
l-177 428h100l139 -343z" />
    <glyph glyph-name="Ydieresis.ss04" horiz-adv-x="664" 
d="M416 873l-21 -95h-98l22 95h97zM633 873l-22 -95h-97l22 95h97zM741 700l-353 -401l-68 -299h-91l68 299l-166 401h100l126 -308l267 308h117z" />
    <glyph glyph-name="Ydieresis.ss04.ss02" horiz-adv-x="664" 
d="M341 760q-22 0 -35 13.5t-13 34.5q0 27 21.5 47.5t51.5 20.5q22 0 35 -13t13 -34q0 -28 -21.5 -48.5t-51.5 -20.5zM559 760q-22 0 -35 13.5t-13 34.5q0 27 21.5 47.5t51.5 20.5q21 0 34 -13t13 -34q0 -28 -21 -48.5t-51 -20.5zM741 700l-353 -401l-68 -299h-91l68 299
l-166 401h100l126 -308l267 308h117z" />
    <glyph glyph-name="Ygrave.ss04" horiz-adv-x="664" 
d="M521 777h-82l-99 142h108zM741 700l-353 -401l-68 -299h-91l68 299l-166 401h100l126 -308l267 308h117z" />
    <glyph glyph-name="Zdotaccent.ss02" horiz-adv-x="631" 
d="M439 781q-25 0 -39.5 15t-14.5 38q0 32 24 55t58 23q24 0 38.5 -15t14.5 -39q0 -31 -24 -54t-57 -23zM657 700l-14 -61l-498 -559h383l-18 -80h-513l14 61l496 559h-348l19 80h479z" />
    <glyph glyph-name="_eightsuperior" horiz-adv-x="406" 
d="M262 165q62 -23 62 -78q0 -44 -38 -70.5t-94 -26.5t-93.5 26.5t-37.5 70.5q0 55 62 78q-77 25 -77 93q0 48 40 77.5t106 29.5q67 0 107 -29.5t40 -77.5q0 -68 -77 -93zM192 316q-40 0 -63 -17.5t-23 -44.5q0 -34 33.5 -50.5t52.5 -16.5q9 0 27.5 5t39 21t20.5 40
q0 28 -23 45.5t-64 17.5zM120 90q0 -23 19.5 -37.5t52.5 -14.5t53 14.5t20 37.5q0 21 -18.5 35.5t-31 17.5t-23.5 5q-72 -12 -72 -58z" />
    <glyph glyph-name="a.ss09" horiz-adv-x="545" 
d="M330 509q87 0 135 -44.5t28 -131.5l-77 -333h-81l19 84q-77 -94 -185 -94q-65 0 -105.5 29t-40.5 92q0 74 58.5 112t178.5 59q93 16 117 28q32 17 40 46v1q9 38 -16.5 61t-75.5 23q-112 0 -148 -114h-82q23 83 81 132.5t154 49.5zM190 55q66 0 119.5 41t74.5 116l11 48
q-33 -16 -132 -37q-76 -15 -115.5 -37t-39.5 -67q0 -64 82 -64z" />
    <glyph glyph-name="aacute.ss09" horiz-adv-x="545" 
d="M504 699l-141 -129h-83l117 129h107zM330 509q87 0 135 -44.5t28 -131.5l-77 -333h-81l19 84q-77 -94 -185 -94q-65 0 -105.5 29t-40.5 92q0 74 58.5 112t178.5 59q93 16 117 28q32 17 40 46v1q9 38 -16.5 61t-75.5 23q-112 0 -148 -114h-82q23 83 81 132.5t154 49.5z
M190 55q66 0 119.5 41t74.5 116l11 48q-33 -16 -132 -37q-76 -15 -115.5 -37t-39.5 -67q0 -64 82 -64z" />
    <glyph glyph-name="abreve.ss09" horiz-adv-x="545" 
d="M350 565q-57 0 -87.5 37.5t-19.5 87.5h66q-4 -28 7.5 -46.5t40.5 -18.5t48.5 19t26.5 46h68q-13 -55 -53 -90t-97 -35zM330 509q87 0 135 -44.5t28 -131.5l-77 -333h-81l19 84q-77 -94 -185 -94q-65 0 -105.5 29t-40.5 92q0 74 58.5 112t178.5 59q93 16 117 28
q32 17 40 46v1q9 38 -16.5 61t-75.5 23q-112 0 -148 -114h-82q23 83 81 132.5t154 49.5zM190 55q66 0 119.5 41t74.5 116l11 48q-33 -16 -132 -37q-76 -15 -115.5 -37t-39.5 -67q0 -64 82 -64z" />
    <glyph glyph-name="acircumflex.ss09" horiz-adv-x="545" 
d="M364 638l-76 -77h-81l125 127h82l65 -127h-75zM330 509q87 0 135 -44.5t28 -131.5l-77 -333h-81l19 84q-77 -94 -185 -94q-65 0 -105.5 29t-40.5 92q0 74 58.5 112t178.5 59q93 16 117 28q32 17 40 46v1q9 38 -16.5 61t-75.5 23q-112 0 -148 -114h-82q23 83 81 132.5
t154 49.5zM190 55q66 0 119.5 41t74.5 116l11 48q-33 -16 -132 -37q-76 -15 -115.5 -37t-39.5 -67q0 -64 82 -64z" />
    <glyph glyph-name="adieresis.ss02" horiz-adv-x="580" 
d="M252 568q-20 0 -31.5 12t-11.5 31q0 26 19 44.5t47 18.5q19 0 31 -12.5t12 -30.5q0 -26 -19 -44.5t-47 -18.5zM450 568q-20 0 -31.5 12t-11.5 31q0 26 19 44.5t47 18.5q19 0 31 -12.5t12 -30.5q0 -26 -19 -44.5t-47 -18.5zM480 500h83l-115 -500h-83l14 60
q-68 -70 -169 -70q-82 0 -128 52t-46 146q0 134 83.5 228t193.5 94q112 0 147 -97zM233 60q86 0 139.5 72t53.5 172q0 134 -107 134q-59 0 -105 -39t-68.5 -95t-22.5 -116q0 -128 110 -128z" />
    <glyph glyph-name="adieresis.ss09" horiz-adv-x="545" 
d="M313 669l-19 -86h-89l20 86h88zM510 669l-19 -86h-89l20 86h88zM330 509q87 0 135 -44.5t28 -131.5l-77 -333h-81l19 84q-77 -94 -185 -94q-65 0 -105.5 29t-40.5 92q0 74 58.5 112t178.5 59q93 16 117 28q32 17 40 46v1q9 38 -16.5 61t-75.5 23q-112 0 -148 -114h-82
q23 83 81 132.5t154 49.5zM190 55q66 0 119.5 41t74.5 116l11 48q-33 -16 -132 -37q-76 -15 -115.5 -37t-39.5 -67q0 -64 82 -64z" />
    <glyph glyph-name="adieresis.ss09.ss02" horiz-adv-x="545" 
d="M246 568q-20 0 -31.5 12t-11.5 31q0 26 19 44.5t47 18.5q19 0 31 -12.5t12 -30.5q0 -26 -19 -44.5t-47 -18.5zM444 568q-20 0 -31.5 12t-11.5 31q0 26 19 44.5t47 18.5q19 0 31 -12.5t12 -30.5q0 -26 -19 -44.5t-47 -18.5zM330 509q87 0 135 -44.5t28 -131.5l-77 -333
h-81l19 84q-77 -94 -185 -94q-65 0 -105.5 29t-40.5 92q0 74 58.5 112t178.5 59q93 16 117 28q32 17 40 46v1q9 38 -16.5 61t-75.5 23q-112 0 -148 -114h-82q23 83 81 132.5t154 49.5zM190 55q66 0 119.5 41t74.5 116l11 48q-33 -16 -132 -37q-76 -15 -115.5 -37t-39.5 -67
q0 -64 82 -64z" />
    <glyph glyph-name="agrave.ss09" horiz-adv-x="545" 
d="M404 570h-75l-90 129h98zM330 509q87 0 135 -44.5t28 -131.5l-77 -333h-81l19 84q-77 -94 -185 -94q-65 0 -105.5 29t-40.5 92q0 74 58.5 112t178.5 59q93 16 117 28q32 17 40 46v1q9 38 -16.5 61t-75.5 23q-112 0 -148 -114h-82q23 83 81 132.5t154 49.5zM190 55
q66 0 119.5 41t74.5 116l11 48q-33 -16 -132 -37q-76 -15 -115.5 -37t-39.5 -67q0 -64 82 -64z" />
    <glyph glyph-name="amacron.ss09" horiz-adv-x="545" 
d="M501 647l-14 -64h-279l14 64h279zM330 509q87 0 135 -44.5t28 -131.5l-77 -333h-81l19 84q-77 -94 -185 -94q-65 0 -105.5 29t-40.5 92q0 74 58.5 112t178.5 59q93 16 117 28q32 17 40 46v1q9 38 -16.5 61t-75.5 23q-112 0 -148 -114h-82q23 83 81 132.5t154 49.5z
M190 55q66 0 119.5 41t74.5 116l11 48q-33 -16 -132 -37q-76 -15 -115.5 -37t-39.5 -67q0 -64 82 -64z" />
    <glyph glyph-name="aogonek.ss09" horiz-adv-x="545" 
d="M330 509q87 0 135 -44.5t28 -131.5l-77 -333q-41 -21 -68.5 -48.5t-27.5 -56.5q0 -42 63 -42h17l-14 -58h-27q-53 0 -80.5 27t-27.5 65q0 37 24.5 63t70.5 50h-11l19 84q-77 -94 -185 -94q-65 0 -105.5 29t-40.5 92q0 74 58.5 112t178.5 59q93 16 117 28q32 17 40 46v1
q9 38 -16.5 61t-75.5 23q-112 0 -148 -114h-82q23 83 81 132.5t154 49.5zM190 55q66 0 119.5 41t74.5 116l11 48q-33 -16 -132 -37q-76 -15 -115.5 -37t-39.5 -67q0 -64 82 -64z" />
    <glyph glyph-name="aring.ss09" horiz-adv-x="545" 
d="M347 544q-41 0 -64.5 25t-23.5 61q0 46 35 79.5t83 33.5q40 0 63.5 -25t23.5 -61q0 -46 -35 -79.5t-82 -33.5zM371 687q-21 0 -37 -16t-16 -37q0 -15 9 -24.5t25 -9.5q21 0 36.5 16t15.5 36q0 14 -8.5 24.5t-24.5 10.5zM330 509q87 0 135 -44.5t28 -131.5l-77 -333h-81
l19 84q-77 -94 -185 -94q-65 0 -105.5 29t-40.5 92q0 74 58.5 112t178.5 59q93 16 117 28q32 17 40 46v1q9 38 -16.5 61t-75.5 23q-112 0 -148 -114h-82q23 83 81 132.5t154 49.5zM190 55q66 0 119.5 41t74.5 116l11 48q-33 -16 -132 -37q-76 -15 -115.5 -37t-39.5 -67
q0 -64 82 -64z" />
    <glyph glyph-name="at.case" horiz-adv-x="999" 
d="M593 790q169 0 276 -100t107 -266q0 -133 -67 -227t-169 -94q-45 0 -76.5 20t-42.5 59q-60 -79 -163 -79q-81 0 -127.5 53.5t-46.5 139.5q0 112 74 199.5t179 87.5t133 -88l18 78h75l-64 -280q-30 -125 50 -125q66 0 108.5 76.5t42.5 177.5q0 136 -81.5 219t-221.5 83
q-116 0 -219 -55t-168 -157.5t-65 -228.5q0 -140 80.5 -223.5t224.5 -83.5q115 0 195 58l37 -52q-99 -72 -243 -72q-166 0 -268 100.5t-102 272.5q0 146 76 264t195 180.5t253 62.5zM474 168q54 0 92.5 35t54.5 84t16 104q0 127 -96 127q-76 0 -128 -71t-52 -152
q0 -53 27 -90t86 -37z" />
    <glyph glyph-name="atilde.ss09" horiz-adv-x="545" 
d="M293 616q-18 0 -34 -13t-25 -33h-53q37 110 123 110q37 0 66.5 -24.5t51.5 -24.5q37 0 56 46h55q-19 -54 -51 -82t-71 -28t-68.5 24.5t-49.5 24.5zM330 509q87 0 135 -44.5t28 -131.5l-77 -333h-81l19 84q-77 -94 -185 -94q-65 0 -105.5 29t-40.5 92q0 74 58.5 112
t178.5 59q93 16 117 28q32 17 40 46v1q9 38 -16.5 61t-75.5 23q-112 0 -148 -114h-82q23 83 81 132.5t154 49.5zM190 55q66 0 119.5 41t74.5 116l11 48q-33 -16 -132 -37q-76 -15 -115.5 -37t-39.5 -67q0 -64 82 -64z" />
    <glyph glyph-name="braceleft.case" horiz-adv-x="326" 
d="M421 824h38l-15 -69h-27q-42 0 -67 -18t-37 -68l-39 -169q-16 -67 -46 -104t-80 -49q83 -34 55 -156l-37 -160q-11 -50 6.5 -68t62.5 -18h21l-16 -69h-25q-164 0 -123 175l37 160q12 55 -4 77.5t-69 30.5l5 24v2l3 12l6 24q58 8 84.5 30.5t38.5 77.5l42 183
q20 85 60.5 118.5t125.5 33.5z" />
    <glyph glyph-name="braceright.case" horiz-adv-x="328" 
d="M313 357v-2l-3 -12l-6 -24q-58 -8 -84.5 -30.5t-38.5 -77.5l-42 -183q-20 -85 -60.5 -118.5t-125.5 -33.5h-38l15 69h27q42 0 67 18t37 68l39 169q16 67 46 104t80 49q-83 34 -55 156l37 160q11 50 -6.5 68t-62.5 18h-21l16 69h25q164 0 123 -175l-37 -160
q-12 -55 4 -77.5t69 -30.5z" />
    <glyph glyph-name="bracketleft.case" horiz-adv-x="298" 
d="M415 755h-136l-187 -810h136l-16 -69h-215l219 948h215z" />
    <glyph glyph-name="bracketright.case" horiz-adv-x="298" 
d="M348 824l-219 -948h-215l16 69h136l187 810h-136l16 69h215z" />
    <glyph glyph-name="bullet.case" horiz-adv-x="224" 
d="M75 310l23 99h101l-22 -99h-102z" />
    <glyph glyph-name="bullet.case.ss02" horiz-adv-x="244" 
d="M135 293q-23 0 -36 13.5t-13 35.5q0 29 22 50t53 21q22 0 35.5 -14t13.5 -35q0 -29 -22 -50t-53 -21z" />
    <glyph glyph-name="bullet.ss02" horiz-adv-x="245" 
d="M120 231q-23 0 -36 13.5t-13 35.5q0 29 22 50t53 21q22 0 35.5 -14t13.5 -35q0 -29 -22 -50t-53 -21z" />
    <glyph glyph-name="cdotaccent.ss02" horiz-adv-x="563" 
d="M352 577q-23 0 -36 13.5t-13 35.5q0 28 22 49t52 21q22 0 35.5 -14t13.5 -35q0 -28 -22 -49t-52 -21zM437 323q4 55 -26.5 86t-85.5 31q-87 0 -144.5 -72t-57.5 -166q0 -65 32 -104t94 -39q109 0 155 110h86q-69 -179 -242 -179q-99 0 -154.5 56t-55.5 152
q0 122 80.5 216.5t204.5 94.5q93 0 149.5 -53t46.5 -133h-82z" />
    <glyph glyph-name="cent.ss07" horiz-adv-x="531" 
d="M504 384h-78q1 31 -18.5 56t-56.5 32l-75 -326q39 5 71 27.5t48 57.5h78q-24 -67 -82 -108t-131 -46l-18 -77h-69l19 81q-66 15 -102.5 66t-36.5 125q0 105 70 182t175 88l18 78h69l-18 -79q66 -10 103.5 -51.5t33.5 -105.5zM135 271q0 -97 73 -121l73 320
q-62 -16 -104 -70.5t-42 -128.5z" />
    <glyph glyph-name="colon.ss02" horiz-adv-x="220" 
d="M143 390q-23 0 -36 13.5t-13 35.5q0 29 22 50t53 21q22 0 35.5 -14t13.5 -35q0 -29 -22 -50t-53 -21zM51 -10q-23 0 -36 13.5t-13 35.5q0 29 22 50t53 21q22 0 35.5 -14t13.5 -35q0 -29 -22 -50t-53 -21z" />
    <glyph glyph-name="comma.ss02" horiz-adv-x="217" 
d="M68 110q49 0 49 -62q0 -60 -42 -103.5t-118 -50.5l9 39q27 2 49 18.5t27 38.5q-48 0 -48 48q0 29 22 50.5t52 21.5z" />
    <glyph glyph-name="dcaron.ss02" horiz-adv-x="577" 
d="M456 409l70 301h83l-164 -710h-83l16 70q-64 -80 -168 -80q-82 0 -127.5 54.5t-45.5 145.5q0 129 80.5 224.5t187.5 95.5q58 0 98.5 -30t52.5 -71zM726 703q46 0 46 -56q0 -54 -39.5 -93t-112.5 -45l9 35q25 1 46 16t26 35q-23 0 -34.5 12t-11.5 31q0 26 21 45.5t50 19.5
zM232 59q83 0 136.5 73t53.5 169q0 66 -29 102t-83 36q-56 0 -100.5 -39t-65.5 -95t-21 -115q0 -62 27 -96.5t82 -34.5z" />
    <glyph glyph-name="dieresis.ss02" horiz-adv-x="411" 
d="M198 568q-20 0 -31.5 12t-11.5 31q0 26 19 44.5t47 18.5q19 0 31 -12.5t12 -30.5q0 -26 -19 -44.5t-47 -18.5zM396 568q-20 0 -31.5 12t-11.5 31q0 26 19 44.5t47 18.5q19 0 31 -12.5t12 -30.5q0 -26 -19 -44.5t-47 -18.5z" />
    <glyph glyph-name="divide.ss02" horiz-adv-x="585" 
d="M330 367q-20 0 -31.5 12t-11.5 31q0 26 19 44.5t47 18.5q19 0 31 -12.5t12 -30.5q0 -26 -19 -44.5t-47 -18.5zM68 279h463l-16 -69h-463zM248 17q-20 0 -31.5 12t-11.5 31q0 26 19 44.5t47 18.5q19 0 31 -12.5t12 -30.5q0 -26 -19 -44.5t-47 -18.5z" />
    <glyph glyph-name="dollar.ss03" horiz-adv-x="580" 
d="M557 497h-81q16 107 -69 128l-57 -247h1q1 -1 2 -1q148 -69 148 -187q0 -87 -67.5 -141t-172.5 -59l-21 -90h-75l22 94q-91 15 -129.5 75t-22.5 151h81q-9 -65 14.5 -103.5t72.5 -50.5l61 262q-69 32 -105.5 68.5t-36.5 99.5q0 85 66 141t161 64l21 89h75l-21 -92
q78 -14 112.5 -69t20.5 -132zM210 507q0 -60 72 -97l50 216q-52 -9 -87 -41t-35 -78zM414 184q0 69 -83 112l-54 -233q58 6 97.5 36.5t39.5 84.5z" />
    <glyph glyph-name="dollar.ss07" horiz-adv-x="535" 
d="M385 624q75 -14 110.5 -64t22.5 -124h-78q12 96 -70 120l-56 -241q57 -29 89 -63t32 -91q0 -74 -54.5 -120.5t-141.5 -51.5l-17 -71h-69l17 75q-71 13 -99.5 61.5t-18.5 114.5h77q-9 -84 58 -105l46 201l-6 3q-136 66 -136 174q0 81 64.5 132.5t162.5 54.5l16 71h69z
M175 442q0 -34 19 -56t58 -42l50 216q-55 -6 -91 -37t-36 -81zM351 160q0 50 -55 77l-41 -176q45 7 70.5 33.5t25.5 65.5z" />
    <glyph glyph-name="dollar.ss07.ss03" horiz-adv-x="523" 
d="M492 450h-77q12 84 -54 105l-51 -223h1q63 -27 96 -62t33 -97q0 -84 -58 -131.5t-151 -52.5l-17 -71h-69l17 75q-78 13 -113.5 64t-22.5 125h78q-12 -99 74 -120l51 219q-59 26 -91.5 59.5t-32.5 94.5q0 80 57.5 134t146.5 59l17 72h69l-18 -76q68 -14 97.5 -62.5
t17.5 -111.5zM190 443q0 -54 57 -83l46 197q-45 -9 -74 -39t-29 -75zM356 165q0 34 -15.5 53.5t-48.5 35.5l-46 -196q48 5 79 30.5t31 76.5z" />
    <glyph glyph-name="dotaccent.ss02" horiz-adv-x="413" 
d="M287 577q-23 0 -36 13.5t-13 35.5q0 28 22 49t52 21q22 0 35.5 -14t13.5 -35q0 -28 -22 -49t-52 -21z" />
    <glyph glyph-name="edieresis.ss02" horiz-adv-x="563" 
d="M233 568q-20 0 -31.5 12t-11.5 31q0 26 19 44.5t47 18.5q19 0 31 -12.5t12 -30.5q0 -26 -19 -44.5t-47 -18.5zM431 568q-20 0 -31.5 12t-11.5 31q0 26 19 44.5t47 18.5q19 0 31 -12.5t12 -30.5q0 -26 -19 -44.5t-47 -18.5zM322 509q108 0 155.5 -72.5t25.5 -190.5
q-1 -5 -2 -8.5t-1.5 -5t-0.5 -2.5v-2h-374q-1 -9 -1 -27q0 -67 33 -105t98 -38q103 0 148 103h82q-28 -81 -87 -126t-147 -45q-103 0 -157.5 59t-54.5 155q0 121 79.5 213t203.5 92zM138 290h291q8 67 -17 109.5t-91 42.5q-67 0 -114.5 -43t-68.5 -109z" />
    <glyph glyph-name="edotaccent.ss02" horiz-adv-x="563" 
d="M337 577q-23 0 -36 13.5t-13 35.5q0 28 22 49t52 21q22 0 35.5 -14t13.5 -35q0 -28 -22 -49t-52 -21zM322 509q108 0 155.5 -72.5t25.5 -190.5q-1 -5 -2 -8.5t-1.5 -5t-0.5 -2.5v-2h-374q-1 -9 -1 -27q0 -67 33 -105t98 -38q103 0 148 103h82q-28 -81 -87 -126t-147 -45
q-103 0 -157.5 59t-54.5 155q0 121 79.5 213t203.5 92zM138 290h291q8 67 -17 109.5t-91 42.5q-67 0 -114.5 -43t-68.5 -109z" />
    <glyph glyph-name="eight.dnom" horiz-adv-x="381" 
d="M239 165q47 -21 47 -70q0 -47 -43 -76t-103 -29q-53 0 -87 23.5t-34 63.5q0 59 83 89q-59 21 -59 80q0 52 46.5 85.5t118.5 33.5q61 0 97 -25.5t36 -68.5q0 -40 -29.5 -67t-72.5 -39zM205 316q-44 0 -73 -21t-29 -51q0 -29 27.5 -43t44.5 -14q10 0 32 5.5t47.5 24
t25.5 45.5q0 25 -19 39.5t-56 14.5zM80 82q0 -44 62 -44q37 0 61.5 17.5t24.5 42.5q0 38 -61 50q-87 -17 -87 -66z" />
    <glyph glyph-name="eight.dnom.ss03" horiz-adv-x="381" 
d="M246 190q59 -21 59 -80q0 -52 -46.5 -86t-118.5 -34q-61 0 -97.5 25.5t-36.5 68.5q0 40 29 66.5t72 39.5q-46 19 -46 66q0 48 43.5 78.5t102.5 30.5q52 0 87 -24t35 -64q0 -57 -83 -87zM205 317q-36 0 -60.5 -17.5t-24.5 -42.5q0 -38 61 -50q12 2 27 5.5t37 20t22 40.5
q0 44 -62 44zM142 39q45 0 74 21t29 51q0 29 -28 43t-45 14q-6 0 -21 -3.5t-35 -11t-34.5 -24t-14.5 -37.5q0 -23 19.5 -38t55.5 -15z" />
    <glyph glyph-name="eight.numr" horiz-adv-x="381" 
d="M318 505q47 -21 47 -70q0 -47 -43 -76t-103 -29q-53 0 -87 23.5t-34 63.5q0 59 83 89q-59 21 -59 80q0 52 46.5 85.5t118.5 33.5q61 0 97 -25.5t36 -68.5q0 -40 -29.5 -67t-72.5 -39zM284 656q-44 0 -73 -21t-29 -51q0 -29 27.5 -43t44.5 -14q10 0 32 5.5t47.5 24
t25.5 45.5q0 25 -19 39.5t-56 14.5zM159 422q0 -44 62 -44q37 0 61.5 17.5t24.5 42.5q0 38 -61 50q-87 -17 -87 -66z" />
    <glyph glyph-name="eight.numr.ss03" horiz-adv-x="381" 
d="M325 530q59 -21 59 -80q0 -52 -46.5 -86t-118.5 -34q-61 0 -97.5 25.5t-36.5 68.5q0 40 29 66.5t72 39.5q-46 19 -46 66q0 48 43.5 78.5t102.5 30.5q52 0 87 -24t35 -64q0 -57 -83 -87zM284 657q-36 0 -60.5 -17.5t-24.5 -42.5q0 -38 61 -50q12 2 27 5.5t37 20t22 40.5
q0 44 -62 44zM221 379q45 0 74 21t29 51q0 29 -28 43t-45 14q-6 0 -21 -3.5t-35 -11t-34.5 -24t-14.5 -37.5q0 -23 19.5 -38t55.5 -15z" />
    <glyph glyph-name="eight.ss03" horiz-adv-x="639" 
d="M615 544q0 -69 -49 -111.5t-120 -63.5q53 -21 86 -61.5t33 -98.5q0 -91 -82 -155t-206 -64q-105 0 -167.5 48t-62.5 131q0 84 59.5 135.5t143.5 72.5q-99 43 -99 136q0 82 77.5 138.5t181.5 56.5q91 0 148 -45.5t57 -118.5zM355 405q7 1 18.5 3t41 12t52 23.5t41 39.5
t18.5 58q0 44 -30.5 69.5t-87.5 25.5q-72 0 -120 -38.5t-48 -90.5q0 -39 29 -64.5t57 -31.5zM476 219q0 29 -14 52.5t-34 35.5t-40 20t-34 11l-14 2q-8 -1 -21.5 -3.5t-48.5 -14t-61.5 -28t-48 -48t-21.5 -70.5q0 -51 35 -82t104 -31q87 0 142.5 47t55.5 109z" />
    <glyph glyph-name="eight.ss07" horiz-adv-x="597" 
d="M584 467q0 -72 -54 -116.5t-130 -64.5q91 -40 91 -124q0 -75 -71 -123.5t-169 -48.5q-84 0 -137.5 37.5t-53.5 103.5q0 62 43.5 100.5t107.5 58.5q-107 41 -107 138q0 84 77 143t191 59q98 0 155 -44.5t57 -118.5zM314 320q7 1 19.5 3t44.5 12t56 24t44 41.5t20 61.5
q0 45 -33 72t-96 27q-80 0 -130.5 -40.5t-50.5 -94.5q0 -26 13 -46.5t31.5 -31t37 -17.5t31.5 -9zM255 58q66 0 109.5 33t43.5 78q0 35 -27 57.5t-54 27.5l-27 6q-3 0 -8.5 -1t-22 -5t-31 -9.5t-32.5 -15t-30.5 -21t-21.5 -29.5t-9 -38q0 -38 28.5 -60.5t81.5 -22.5z" />
    <glyph glyph-name="eight.ss07.ss03" horiz-adv-x="597" 
d="M564 485q0 -60 -44.5 -99t-109.5 -58q110 -42 110 -142q0 -84 -75 -140t-189 -56q-100 0 -158.5 44t-58.5 117q0 72 54.5 117.5t131.5 64.5q-91 40 -91 122q0 75 71 125t166 50q85 0 139 -40t54 -105zM324 360q3 0 8.5 1t22 5t31 9.5t32.5 15t30.5 21t21.5 29.5t9 38
q0 38 -28.5 60.5t-81.5 22.5q-65 0 -109 -33t-44 -78q0 -35 27 -57.5t54 -27.5zM437 194q0 41 -31.5 67.5t-63.5 32.5l-32 6q-7 -1 -19.5 -3t-44.5 -12t-56 -24t-44 -41.5t-20 -61.5q0 -45 33 -72t97 -27q80 0 130.5 40t50.5 95z" />
    <glyph glyph-name="eight.tf" horiz-adv-x="647" 
d="M641 527q0 -83 -57.5 -133.5t-141.5 -71.5q95 -45 95 -136q0 -86 -78 -141t-180 -55q-90 0 -148.5 45t-58.5 118q0 66 48 109t117 64q-114 43 -114 155q0 98 83 162.5t206 64.5q104 0 166.5 -48.5t62.5 -132.5zM348 359q8 1 21.5 3.5t48.5 14.5t61.5 28t48.5 47.5
t22 70.5q0 51 -35.5 82t-103.5 31q-87 0 -142.5 -46.5t-55.5 -108.5q0 -29 14 -52.5t33.5 -36t39.5 -20.5t34 -10zM281 62q72 0 120 38.5t48 90.5q0 24 -12 43.5t-29 30t-34 17.5t-29 9l-12 2q-7 -1 -18.5 -3t-40.5 -12.5t-51.5 -24t-41 -39.5t-18.5 -58q0 -43 31 -68.5
t87 -25.5z" />
    <glyph glyph-name="eight.tf.ss03" horiz-adv-x="647" 
d="M619 544q0 -69 -49 -111.5t-120 -63.5q53 -21 86 -61.5t33 -98.5q0 -91 -82 -155t-206 -64q-105 0 -167.5 48t-62.5 131q0 84 59.5 135.5t143.5 72.5q-99 43 -99 136q0 82 77.5 138.5t181.5 56.5q91 0 148 -45.5t57 -118.5zM359 405q7 1 18.5 3t41 12t52 23.5t41 39.5
t18.5 58q0 44 -30.5 69.5t-87.5 25.5q-72 0 -120 -38.5t-48 -90.5q0 -39 29 -64.5t57 -31.5zM480 219q0 29 -14 52.5t-34 35.5t-40 20t-34 11l-14 2q-8 -1 -21.5 -3.5t-48.5 -14t-61.5 -28t-48 -48t-21.5 -70.5q0 -51 35 -82t104 -31q87 0 142.5 47t55.5 109z" />
    <glyph glyph-name="eight.tf.ss07" horiz-adv-x="599" 
d="M585 467q0 -72 -54 -116.5t-130 -64.5q91 -40 91 -124q0 -75 -71 -123.5t-169 -48.5q-84 0 -137.5 37.5t-53.5 103.5q0 62 43.5 100.5t107.5 58.5q-107 41 -107 138q0 84 77 143t191 59q98 0 155 -44.5t57 -118.5zM315 320q7 1 19.5 3t44.5 12t56 24t44 41.5t20 61.5
q0 45 -33 72t-96 27q-80 0 -130.5 -40.5t-50.5 -94.5q0 -26 13 -46.5t31.5 -31t37 -17.5t31.5 -9zM256 58q66 0 109.5 33t43.5 78q0 35 -27 57.5t-54 27.5l-27 6q-3 0 -8.5 -1t-22 -5t-31 -9.5t-32.5 -15t-30.5 -21t-21.5 -29.5t-9 -38q0 -38 28.5 -60.5t81.5 -22.5z" />
    <glyph glyph-name="eight.tf.ss07.ss03" horiz-adv-x="599" 
d="M565 485q0 -60 -44.5 -99t-109.5 -58q110 -42 110 -142q0 -84 -75 -140t-189 -56q-100 0 -158.5 44t-58.5 117q0 72 54.5 117.5t131.5 64.5q-91 40 -91 122q0 75 71 125t166 50q85 0 139 -40t54 -105zM325 360q3 0 8.5 1t22 5t31 9.5t32.5 15t30.5 21t21.5 29.5t9 38
q0 38 -28.5 60.5t-81.5 22.5q-65 0 -109 -33t-44 -78q0 -35 27 -57.5t54 -27.5zM438 194q0 41 -32 67.5t-64 32.5l-31 6q-7 -1 -19.5 -3t-44.5 -12t-56 -24t-44 -41.5t-20 -61.5q0 -45 33 -72t97 -27q80 0 130.5 40t50.5 95z" />
    <glyph glyph-name="ellipsis.ss02" horiz-adv-x="713" 
d="M51 -10q-23 0 -36 13.5t-13 35.5q0 29 22 50t53 21q22 0 35.5 -14t13.5 -35q0 -29 -22 -50t-53 -21zM298 -10q-23 0 -36 13.5t-13 35.5q0 29 22 50t53 21q22 0 35.5 -14t13.5 -35q0 -29 -22 -50t-53 -21zM544 -10q-23 0 -36 13.5t-13 35.5q0 29 22 50t53 21
q22 0 35.5 -14t13.5 -35q0 -29 -22 -50t-53 -21z" />
    <glyph glyph-name="emdash.case" horiz-adv-x="1078" 
d="M95 396h956l-16 -70h-956z" />
    <glyph glyph-name="endash.case" horiz-adv-x="720" 
d="M95 396h598l-17 -70h-597z" />
    <glyph glyph-name="exclam.ss02" horiz-adv-x="220" 
d="M167 700h94l-131 -507h-65zM51 -10q-23 0 -36 13.5t-13 35.5q0 29 22 50t53 21q22 0 35.5 -14t13.5 -35q0 -29 -22 -50t-53 -21z" />
    <glyph glyph-name="exclamdown.case" horiz-adv-x="200" 
d="M255 700l-23 -99h-101l22 99h102zM89 0h-94l131 507h65z" />
    <glyph glyph-name="exclamdown.case.ss02" horiz-adv-x="221" 
d="M190 590q-23 0 -36 13.5t-13 35.5q0 29 22 50t53 21q22 0 35.5 -14t13.5 -35q0 -29 -22 -50t-53 -21zM6 0l131 507h65l-102 -507h-94z" />
    <glyph glyph-name="exclamdown.ss02" horiz-adv-x="221" 
d="M139 370q-23 0 -36 13.5t-13 35.5q0 29 22 50t53 21q22 0 35.5 -14t13.5 -35q0 -29 -22 -50t-53 -21zM-45 -220l131 507h65l-102 -507h-94z" />
    <glyph glyph-name="f_f_i.liga.ss02" horiz-adv-x="957" 
d="M279 538l-9 -38h125l-16 -66h-124l-100 -434h-85l100 434h-91l15 66h91l12 52q16 72 62 110t113 38h93l-17 -69h-58q-90 0 -111 -93zM606 538l-9 -38h125l-16 -66h-124l-100 -434h-85l100 434h-117l15 66h117l12 52q16 72 62 110t113 38h93l-17 -69h-58q-90 0 -111 -93z
M930 696q22 0 35.5 -14t13.5 -35q0 -28 -22 -49t-52 -21q-23 0 -36 13.5t-13 35.5q0 28 22 49t52 21zM925 500l-115 -500h-85l100 434h-118l15 66h203z" />
    <glyph glyph-name="f_f_j.liga.ss02" horiz-adv-x="959" 
d="M279 538l-9 -38h125l-16 -66h-124l-100 -434h-85l100 434h-91l15 66h91l12 52q16 72 62 110t113 38h93l-17 -69h-58q-90 0 -111 -93zM606 538l-9 -38h125l-16 -66h-124l-100 -434h-85l100 434h-117l15 66h117l12 52q16 72 62 110t113 38h93l-17 -69h-58q-90 0 -111 -93z
M932 696q22 0 35.5 -14t13.5 -35q0 -28 -22 -49t-52 -21q-23 0 -36 13.5t-13 35.5q0 28 22 49t52 21zM927 500l-111 -483l-24 -103q-15 -64 -60 -99t-117 -35h-98l16 70h70q89 0 111 95l14 57l99 432h-120l15 66h205z" />
    <glyph glyph-name="f_i.liga.ss02" horiz-adv-x="632" 
d="M279 538l-9 -38h125l-16 -66h-124l-100 -434h-85l100 434h-91l15 66h91l12 52q16 72 62 110t113 38h93l-17 -69h-58q-90 0 -111 -93zM605 696q22 0 35.5 -14t13.5 -35q0 -28 -22 -49t-52 -21q-23 0 -36 13.5t-13 35.5q0 28 22 49t52 21zM600 500l-115 -500h-85l100 434
h-120l15 66h205z" />
    <glyph glyph-name="f_j.liga.ss02" horiz-adv-x="618" 
d="M279 538l-9 -38h125l-16 -66h-124l-100 -434h-85l100 434h-91l15 66h91l12 52q16 72 62 110t113 38h93l-17 -69h-58q-90 0 -111 -93zM606 696q22 0 35.5 -14t13.5 -35q0 -28 -22 -49t-52 -21q-23 0 -36 13.5t-13 35.5q0 28 22 49t52 21zM601 500l-111 -483l-24 -103
q-15 -64 -60 -99t-117 -35h-98l16 70h70q89 0 111 95l14 57l99 432h-121l15 66h206z" />
    <glyph glyph-name="five.dnom" horiz-adv-x="358" 
d="M180 232q50 0 79.5 -29t29.5 -79q0 -62 -43 -98t-110 -36q-66 0 -100.5 34.5t-26.5 85.5h58q-3 -30 14 -50t56 -20q42 0 68.5 23.5t26.5 60.5q0 61 -70 61q-30 0 -52.5 -10t-29.5 -19l-41 21l70 183h213l-12 -52h-161l-40 -96q31 20 71 20z" />
    <glyph glyph-name="five.numr" horiz-adv-x="358" 
d="M259 572q50 0 79.5 -29t29.5 -79q0 -62 -43 -98t-110 -36q-66 0 -100.5 34.5t-26.5 85.5h58q-3 -30 14 -50t56 -20q42 0 68.5 23.5t26.5 60.5q0 61 -70 61q-30 0 -52.5 -10t-29.5 -19l-41 21l70 183h213l-12 -52h-161l-40 -96q31 20 71 20z" />
    <glyph glyph-name="five.ss07" horiz-adv-x="563" 
d="M535 549h-265l-74 -186q49 32 113 32q85 0 134.5 -49.5t49.5 -131.5q0 -101 -73 -162.5t-179 -61.5q-102 0 -154 56.5t-41 141.5h79q-5 -55 22.5 -91.5t96.5 -36.5q74 0 121.5 42.5t47.5 112.5q0 55 -31.5 84t-90.5 29q-36 0 -70.5 -12t-48.5 -21.5t-20 -15.5l-55 32
l118 309h337z" />
    <glyph glyph-name="five.tf" horiz-adv-x="647" 
d="M610 624h-295l-83 -213q51 34 120 34q96 0 152.5 -56.5t56.5 -146.5q0 -108 -80 -180t-199 -72q-110 0 -169.5 63t-45.5 159h85q-7 -62 27 -104.5t108 -42.5q82 0 134.5 50.5t52.5 128.5q0 62 -36.5 95.5t-104.5 33.5q-27 0 -52 -5.5t-41.5 -13.5t-28.5 -16t-19 -14
t-8 -6l-58 34l132 348h370z" />
    <glyph glyph-name="five.tf.ss07" horiz-adv-x="599" 
d="M552 549h-265l-74 -186q49 32 113 32q85 0 134.5 -49.5t49.5 -131.5q0 -101 -73 -162.5t-179 -61.5q-102 0 -154 56.5t-41 141.5h79q-5 -55 22.5 -91.5t96.5 -36.5q74 0 121.5 42.5t47.5 112.5q0 55 -31.5 84t-90.5 29q-36 0 -70.5 -12t-48.5 -21.5t-20 -15.5l-55 32
l118 309h337z" />
    <glyph glyph-name="fiveeighths.ss03" horiz-adv-x="874" 
d="M38 0l748 700h82l-748 -700h-82zM259 572q50 0 79.5 -29t29.5 -79q0 -62 -43 -98t-110 -36q-66 0 -100.5 34.5t-26.5 85.5h58q-3 -30 14 -50t56 -20q42 0 68.5 23.5t26.5 60.5q0 61 -70 61q-30 0 -52.5 -10t-29.5 -19l-41 21l70 183h213l-12 -52h-161l-40 -96
q31 20 71 20zM739 190q59 -21 59 -80q0 -52 -46.5 -86t-118.5 -34q-61 0 -97.5 25.5t-36.5 68.5q0 40 29 66.5t72 39.5q-46 19 -46 66q0 48 43.5 78.5t102.5 30.5q52 0 87 -24t35 -64q0 -57 -83 -87zM698 317q-36 0 -60.5 -17.5t-24.5 -42.5q0 -38 61 -50q12 2 27 5.5t37 20
t22 40.5q0 44 -62 44zM635 39q45 0 74 21t29 51q0 29 -28 43t-45 14q-6 0 -21 -3.5t-35 -11t-34.5 -24t-14.5 -37.5q0 -23 19.5 -38t55.5 -15z" />
    <glyph glyph-name="florin.ss07" horiz-adv-x="553" 
d="M500 620h90l-15 -68h-65q-47 0 -71 -24t-46 -76l-44 -101h142l-14 -63h-156l-67 -153q-59 -135 -184 -135h-80l15 68h65q47 0 71 23.5t46 76.5l52 120h-125l14 63h139l57 132q58 137 176 137z" />
    <glyph glyph-name="four.dnom" horiz-adv-x="349" 
d="M292 122l-12 -49h-58l-17 -73h-58l17 73h-177l8 37l217 250h76l-55 -238h59zM66 122h110l41 177z" />
    <glyph glyph-name="four.numr" horiz-adv-x="349" 
d="M371 462l-12 -49h-58l-17 -73h-58l17 73h-177l8 37l217 250h76l-55 -238h59zM145 462h110l41 177z" />
    <glyph glyph-name="four.ss07" horiz-adv-x="570" 
d="M521 196l-16 -68h-101l-30 -128h-78l30 128h-308l12 53l377 439h110l-98 -424h102zM132 196h209l79 341z" />
    <glyph glyph-name="four.tf" horiz-adv-x="647" 
d="M584 700l-112 -482h112l-18 -73h-110l-34 -145h-84l34 145h-339l14 57l419 498h118zM154 218h234l91 393z" />
    <glyph glyph-name="four.tf.ss07" horiz-adv-x="599" 
d="M535 196l-16 -68h-101l-30 -128h-78l30 128h-308l12 53l377 439h110l-98 -424h102zM146 196h209l79 341z" />
    <glyph glyph-name="gcommaaccent.ss02" horiz-adv-x="574" 
d="M357 554q-49 0 -49 62q0 60 42 103.5t118 50.5l-9 -39q-27 -2 -49 -18.5t-27 -38.5q48 0 48 -48q0 -29 -22 -50.5t-52 -21.5zM475 500h82l-102 -442l-14 -62q-26 -115 -89 -170.5t-169 -55.5q-112 0 -157 53.5t-32 130.5h78q-6 -49 18 -82t93 -33q78 0 119 44t59 123
l12 52l2 8q-63 -76 -165 -76q-80 0 -127 52t-47 146q0 130 82.5 226t191.5 96q53 0 92 -26t53 -71zM232 59q85 0 136.5 72.5t51.5 173.5q0 133 -105 133q-87 0 -140 -77t-53 -172q0 -130 110 -130z" />
    <glyph glyph-name="gdotaccent.ss02" horiz-adv-x="574" 
d="M345 577q-23 0 -36 13.5t-13 35.5q0 28 22 49t52 21q22 0 35.5 -14t13.5 -35q0 -28 -22 -49t-52 -21zM475 500h82l-102 -442l-14 -62q-26 -115 -89 -170.5t-169 -55.5q-112 0 -157 53.5t-32 130.5h78q-6 -49 18 -82t93 -33q78 0 119 44t59 123l12 52l2 8
q-63 -76 -165 -76q-80 0 -127 52t-47 146q0 130 82.5 226t191.5 96q53 0 92 -26t53 -71zM232 59q85 0 136.5 72.5t51.5 173.5q0 133 -105 133q-87 0 -140 -77t-53 -172q0 -130 110 -130z" />
    <glyph glyph-name="guillemotleft.case" horiz-adv-x="620" 
d="M399 555l-219 -201l115 -189h-97l-117 199l207 191h111zM630 555l-219 -201l115 -189h-97l-117 199l207 191h111z" />
    <glyph glyph-name="guillemotright.case" horiz-adv-x="620" 
d="M240 555l117 -199l-207 -191h-111l219 201l-115 189h97zM471 555l117 -199l-207 -191h-111l219 201l-115 189h97z" />
    <glyph glyph-name="guilsinglleft.case" horiz-adv-x="389" 
d="M399 555l-219 -201l115 -189h-97l-117 199l207 191h111z" />
    <glyph glyph-name="guilsinglright.case" horiz-adv-x="389" 
d="M240 555l117 -199l-207 -191h-111l219 201l-115 189h97z" />
    <glyph glyph-name="hyphen.case" horiz-adv-x="520" 
d="M95 396h398l-16 -70h-398z" />
    <glyph glyph-name="i.loclTRK" horiz-adv-x="234" 
d="M147 588l21 92h98l-21 -92h-98zM102 0h-85l115 500h85z" />
    <glyph glyph-name="i.loclTRK.ss02" horiz-adv-x="234" 
d="M197 577q-23 0 -36 13.5t-13 35.5q0 28 22 49t52 21q22 0 35.5 -14t13.5 -35q0 -28 -22 -49t-52 -21zM102 0h-85l115 500h85z" />
    <glyph glyph-name="i.ss02" horiz-adv-x="234" 
d="M197 577q-23 0 -36 13.5t-13 35.5q0 28 22 49t52 21q22 0 35.5 -14t13.5 -35q0 -28 -22 -49t-52 -21zM102 0h-85l115 500h85z" />
    <glyph glyph-name="idieresis.ss02" horiz-adv-x="234" 
d="M93 568q-20 0 -31.5 12t-11.5 31q0 26 19 44.5t47 18.5q19 0 31 -12.5t12 -30.5q0 -26 -19 -44.5t-47 -18.5zM291 568q-20 0 -31.5 12t-11.5 31q0 26 19 44.5t47 18.5q19 0 31 -12.5t12 -30.5q0 -26 -19 -44.5t-47 -18.5zM102 0h-85l115 500h85z" />
    <glyph glyph-name="ij.ss02" horiz-adv-x="468" 
d="M197 577q-23 0 -36 13.5t-13 35.5q0 28 22 49t52 21q22 0 35.5 -14t13.5 -35q0 -28 -22 -49t-52 -21zM456 696q22 0 35.5 -14t13.5 -35q0 -28 -22 -49t-52 -21q-23 0 -36 13.5t-13 35.5q0 28 22 49t52 21zM217 500l-115 -500h-85l115 500h85zM366 500h85l-111 -483
l-24 -103q-15 -64 -60 -99t-117 -35h-98l16 70h70q89 0 111 95l14 57z" />
    <glyph glyph-name="iogonek.ss02" horiz-adv-x="234" 
d="M222 696q22 0 35.5 -14t13.5 -35q0 -28 -22 -49t-52 -21q-23 0 -36 13.5t-13 35.5q0 28 22 49t52 21zM17 0l115 500h85l-115 -500q-41 -21 -68.5 -48.5t-27.5 -56.5q0 -42 63 -42h17l-14 -58h-27q-53 0 -80.5 27t-27.5 65q0 37 24.5 63t70.5 50h-15z" />
    <glyph glyph-name="j.ss02" horiz-adv-x="234" 
d="M222 696q22 0 35.5 -14t13.5 -35q0 -28 -22 -49t-52 -21q-23 0 -36 13.5t-13 35.5q0 28 22 49t52 21zM132 500h85l-111 -483l-24 -103q-15 -64 -60 -99t-117 -35h-98l16 70h70q89 0 111 95l14 57z" />
    <glyph glyph-name="kcommaaccent.ss02" horiz-adv-x="505" 
d="M533 500l-261 -221l158 -279h-90l-128 227l-78 -65l-37 -162h-81l164 710h81l-100 -431l263 221h109zM193 -60q44 0 44 -56q0 -54 -37.5 -93t-106.5 -45l8 35q24 1 44 16t25 35q-43 0 -43 43q0 26 19.5 45.5t46.5 19.5z" />
    <glyph glyph-name="lcaron.ss02" horiz-adv-x="234" 
d="M102 0h-86l164 710h86zM383 708q46 0 46 -56q0 -54 -39.5 -93t-112.5 -45l9 35q25 1 46 16t26 35q-23 0 -34.5 12t-11.5 31q0 26 21 45.5t50 19.5z" />
    <glyph glyph-name="lcommaaccent.ss02" horiz-adv-x="234" 
d="M102 0h-86l164 710h86zM41 -60q44 0 44 -56q0 -54 -37.5 -93t-106.5 -45l8 35q24 1 44 16t25 35q-43 0 -43 43q0 26 19.5 45.5t46.5 19.5z" />
    <glyph glyph-name="ncommaaccent.ss02" horiz-adv-x="578" 
d="M401 510q75 0 108 -51.5t11 -145.5l-72 -313h-85l66 284q20 80 5.5 118t-67.5 38q-66 0 -133 -77.5t-97 -208.5l10 47l-46 -201h-84l115 500h84l-34 -148q93 158 219 158zM217 -60q44 0 44 -56q0 -54 -37.5 -93t-106.5 -45l8 35q24 1 44 16t25 35q-43 0 -43 43
q0 26 19.5 45.5t46.5 19.5z" />
    <glyph glyph-name="nine.dnom" horiz-adv-x="363" 
d="M149 122q-47 0 -78.5 28t-31.5 77q0 58 44 98t109 40q119 0 119 -135q0 -97 -51 -168.5t-137 -71.5q-57 0 -90 32.5t-26 80.5h54q-2 -25 12.5 -44t49.5 -19q48 0 80 37t46 96q-41 -51 -100 -51zM192 316q-37 0 -66 -24.5t-29 -63.5q0 -29 17 -44t44 -15q37 0 66.5 24.5
t29.5 62.5q0 29 -17.5 44.5t-44.5 15.5z" />
    <glyph glyph-name="nine.numr" horiz-adv-x="363" 
d="M228 462q-47 0 -78.5 28t-31.5 77q0 58 44 98t109 40q119 0 119 -135q0 -97 -51 -168.5t-137 -71.5q-57 0 -90 32.5t-26 80.5h54q-2 -25 12.5 -44t49.5 -19q48 0 80 37t46 96q-41 -51 -100 -51zM271 656q-37 0 -66 -24.5t-29 -63.5q0 -29 17 -44t44 -15q37 0 66.5 24.5
t29.5 62.5q0 29 -17.5 44.5t-44.5 15.5z" />
    <glyph glyph-name="nine.ss07" horiz-adv-x="579" 
d="M351 630q114 0 162.5 -84.5t13.5 -238.5q-36 -159 -112.5 -238t-184.5 -79q-96 0 -144.5 54.5t-39.5 135.5h75q-1 -19 2.5 -38t14 -38.5t34.5 -31.5t58 -12q82 0 138 67t82 178q-61 -88 -168 -88q-80 0 -130.5 49t-50.5 130q0 99 72 166.5t178 67.5zM289 284
q66 0 118.5 47t52.5 118q0 54 -30.5 83.5t-80.5 29.5q-66 0 -117.5 -47.5t-51.5 -119.5q0 -54 30 -82.5t79 -28.5z" />
    <glyph glyph-name="nine.tf" horiz-adv-x="647" 
d="M401 710q126 0 176.5 -97t10.5 -271q-40 -175 -125 -263.5t-204 -88.5q-106 0 -158 62.5t-43 150.5h81q-1 -22 3 -43t15.5 -44t38 -37t64.5 -14q92 0 155.5 77t93.5 205q-31 -44 -81.5 -71.5t-113.5 -27.5q-91 0 -142.5 56t-51.5 139q0 108 81.5 187.5t199.5 79.5z
M326 319q75 0 134 53.5t59 136.5q0 61 -33.5 94.5t-87.5 33.5q-74 0 -134 -55.5t-60 -137.5q0 -59 34 -92t88 -33z" />
    <glyph glyph-name="nine.tf.ss07" horiz-adv-x="599" 
d="M361 630q114 0 162.5 -84.5t13.5 -238.5q-36 -159 -112.5 -238t-184.5 -79q-96 0 -144.5 54.5t-39.5 135.5h75q-1 -19 2.5 -38t14 -38.5t34.5 -31.5t58 -12q82 0 138 67t82 178q-61 -88 -168 -88q-80 0 -130.5 49t-50.5 130q0 99 72 166.5t178 67.5zM299 284
q66 0 118.5 47t52.5 118q0 54 -30.5 83.5t-80.5 29.5q-66 0 -117.5 -47.5t-51.5 -119.5q0 -54 30 -82.5t79 -28.5z" />
    <glyph glyph-name="odieresis.ss02" horiz-adv-x="575" 
d="M257 568q-20 0 -31.5 12t-11.5 31q0 26 19 44.5t47 18.5q19 0 31 -12.5t12 -30.5q0 -26 -19 -44.5t-47 -18.5zM455 568q-20 0 -31.5 12t-11.5 31q0 26 19 44.5t47 18.5q19 0 31 -12.5t12 -30.5q0 -26 -19 -44.5t-47 -18.5zM244 -10q-99 0 -152 58t-53 155q0 128 85.5 217
t210.5 89q98 0 149.5 -58t51.5 -155q0 -130 -83.5 -218t-208.5 -88zM248 58q87 0 145 73.5t58 167.5q0 65 -30.5 103t-92.5 38q-87 0 -145 -72.5t-58 -167.5q0 -65 30.5 -103.5t92.5 -38.5z" />
    <glyph glyph-name="one.dnom" horiz-adv-x="294" 
d="M245 360l-83 -360h-59l56 244q-51 -31 -132 -34l12 49q53 3 99.5 29t57.5 72h49z" />
    <glyph glyph-name="one.dnom.ss06" horiz-adv-x="328" 
d="M179 50h74l-11 -50h-245l11 50h112l45 194q-51 -31 -131 -34l12 49q52 3 99 29t57 72h49z" />
    <glyph glyph-name="one.numr" horiz-adv-x="294" 
d="M324 700l-83 -360h-59l56 244q-51 -31 -132 -34l12 49q53 3 99.5 29t57.5 72h49z" />
    <glyph glyph-name="one.numr.ss06" horiz-adv-x="328" 
d="M258 390h74l-11 -50h-245l11 50h112l45 194q-51 -31 -131 -34l12 49q52 3 99 29t57 72h49z" />
    <glyph glyph-name="one.ss06" horiz-adv-x="589" 
d="M342 76h158l-17 -76h-451l18 76h203l96 417q-93 -61 -252 -67l17 76q47 2 91 12.5t87 32t74.5 61t44.5 92.5h75z" />
    <glyph glyph-name="one.ss07" horiz-adv-x="416" 
d="M418 620l-143 -620h-84l98 427q-79 -49 -208 -53l16 71q55 3 102.5 18t91 55.5t57.5 101.5h70z" />
    <glyph glyph-name="one.ss07.ss06" horiz-adv-x="553" 
d="M292 72h136l-17 -72h-404l17 72h184l81 355q-79 -49 -208 -53l16 71q55 3 102.5 18t91 55.5t57.5 101.5h70z" />
    <glyph glyph-name="one.tf" horiz-adv-x="647" 
d="M391 76h158l-17 -76h-451l18 76h203l96 417q-93 -61 -252 -67l17 76q47 2 91 12.5t87 32t74.5 61t44.5 92.5h75z" />
    <glyph glyph-name="one.tf.ss07" horiz-adv-x="599" 
d="M344 72h136l-17 -72h-404l17 72h184l81 355q-79 -49 -208 -53l16 71q55 3 102.5 18t91 55.5t57.5 101.5h70z" />
    <glyph glyph-name="oneeighth.ss03" horiz-adv-x="843" 
d="M7 0l748 700h82l-748 -700h-82zM324 700l-83 -360h-59l56 244q-51 -31 -132 -34l12 49q53 3 99.5 29t57.5 72h49zM708 190q59 -21 59 -80q0 -52 -46.5 -86t-118.5 -34q-61 0 -97.5 25.5t-36.5 68.5q0 40 29 66.5t72 39.5q-46 19 -46 66q0 48 43.5 78.5t102.5 30.5
q52 0 87 -24t35 -64q0 -57 -83 -87zM667 317q-36 0 -60.5 -17.5t-24.5 -42.5q0 -38 61 -50q12 2 27 5.5t37 20t22 40.5q0 44 -62 44zM604 39q45 0 74 21t29 51q0 29 -28 43t-45 14q-6 0 -21 -3.5t-35 -11t-34.5 -24t-14.5 -37.5q0 -23 19.5 -38t55.5 -15z" />
    <glyph glyph-name="oneeighth.ss06" horiz-adv-x="894" 
d="M42 0l748 700h82l-748 -700h-82zM258 390h74l-11 -50h-245l11 50h112l45 194q-51 -31 -131 -34l12 49q52 3 99 29t57 72h49zM752 165q47 -21 47 -70q0 -47 -43 -76t-103 -29q-53 0 -87 23.5t-34 63.5q0 59 83 89q-59 21 -59 80q0 52 46.5 85.5t118.5 33.5q61 0 97 -25.5
t36 -68.5q0 -40 -29.5 -67t-72.5 -39zM718 316q-44 0 -73 -21t-29 -51q0 -29 27.5 -43t44.5 -14q10 0 32 5.5t47.5 24t25.5 45.5q0 25 -19 39.5t-56 14.5zM593 82q0 -44 62 -44q37 0 61.5 17.5t24.5 42.5q0 38 -61 50q-87 -17 -87 -66z" />
    <glyph glyph-name="oneeighth.ss06.ss03" horiz-adv-x="878" 
d="M42 0l748 700h82l-748 -700h-82zM258 390h74l-11 -50h-245l11 50h112l45 194q-51 -31 -131 -34l12 49q52 3 99 29t57 72h49zM743 190q59 -21 59 -80q0 -52 -46.5 -86t-118.5 -34q-61 0 -97.5 25.5t-36.5 68.5q0 40 29 66.5t72 39.5q-46 19 -46 66q0 48 43.5 78.5
t102.5 30.5q52 0 87 -24t35 -64q0 -57 -83 -87zM702 317q-36 0 -60.5 -17.5t-24.5 -42.5q0 -38 61 -50q12 2 27 5.5t37 20t22 40.5q0 44 -62 44zM639 39q45 0 74 21t29 51q0 29 -28 43t-45 14q-6 0 -21 -3.5t-35 -11t-34.5 -24t-14.5 -37.5q0 -23 19.5 -38t55.5 -15z" />
    <glyph glyph-name="onehalf.ss06" horiz-adv-x="874" 
d="M42 0l748 700h82l-748 -700h-82zM258 390h74l-11 -50h-245l11 50h112l45 194q-51 -31 -131 -34l12 49q52 3 99 29t57 72h49zM768 0h-264l10 38l107 72q38 25 55 37.5t40.5 33.5t33 40.5t9.5 42.5q0 49 -49 49q-35 0 -57 -27t-29 -67h-61q11 65 49 105.5t100 40.5
q50 0 80 -27t30 -74q0 -48 -35 -88t-109 -89l-55 -37h157z" />
    <glyph glyph-name="onequarter.ss06" horiz-adv-x="803" 
d="M42 0l748 700h82l-748 -700h-82zM258 390h74l-11 -50h-245l11 50h112l45 194q-51 -31 -131 -34l12 49q52 3 99 29t57 72h49zM746 122l-12 -49h-58l-17 -73h-58l17 73h-177l8 37l217 250h76l-55 -238h59zM520 122h110l41 177z" />
    <glyph glyph-name="parenleft.case" horiz-adv-x="288" 
d="M369 834l40 -45q-269 -267 -269 -572q0 -169 63 -318l-54 -33q-88 178 -88 363q0 91 24.5 179t58 151t80 122.5t79 92t66.5 60.5z" />
    <glyph glyph-name="parenright.case" horiz-adv-x="291" 
d="M-35 -134l-40 45q269 267 269 572q0 169 -63 318l54 33q88 -178 88 -363q0 -91 -24.5 -179t-58 -151t-80 -122.5t-79 -92t-66.5 -60.5z" />
    <glyph glyph-name="percent.ss07" horiz-adv-x="868" 
d="M244 325q-58 0 -95.5 37t-37.5 93q0 71 56 123t128 52q59 0 96.5 -37t37.5 -94q0 -70 -56.5 -122t-128.5 -52zM109 0l587 620h91l-587 -620h-91zM251 390q41 0 72 31.5t31 74.5q0 30 -17 49t-48 19q-41 0 -72 -31.5t-31 -73.5q0 -30 17 -49.5t48 -19.5zM600 -10
q-58 0 -95.5 37t-37.5 93q0 71 56 123t128 52q59 0 96.5 -37t37.5 -94q0 -70 -56.5 -122t-128.5 -52zM607 55q41 0 72 31.5t31 74.5q0 30 -17 49t-48 19q-41 0 -72 -31.5t-31 -73.5q0 -30 17 -49.5t48 -19.5z" />
    <glyph glyph-name="period.ss02" horiz-adv-x="220" 
d="M51 -10q-23 0 -36 13.5t-13 35.5q0 29 22 50t53 21q22 0 35.5 -14t13.5 -35q0 -29 -22 -50t-53 -21z" />
    <glyph glyph-name="periodcentered.case" horiz-adv-x="224" 
d="M75 310l23 99h101l-22 -99h-102z" />
    <glyph glyph-name="periodcentered.case.ss02" horiz-adv-x="244" 
d="M134 293q-23 0 -36 13.5t-13 35.5q0 29 22 50t53 21q22 0 35.5 -14t13.5 -35q0 -29 -22 -50t-53 -21z" />
    <glyph glyph-name="periodcentered.ss02" horiz-adv-x="245" 
d="M119 231q-23 0 -36 13.5t-13 35.5q0 29 22 50t53 21q22 0 35.5 -14t13.5 -35q0 -29 -22 -50t-53 -21z" />
    <glyph glyph-name="perthousand.ss07" horiz-adv-x="1225" 
d="M244 325q-58 0 -95.5 37t-37.5 93q0 71 56 123t128 52q59 0 96.5 -37t37.5 -94q0 -70 -56.5 -122t-128.5 -52zM109 0l587 620h91l-587 -620h-91zM251 390q41 0 72 31.5t31 74.5q0 30 -17 49t-48 19q-41 0 -72 -31.5t-31 -73.5q0 -30 17 -49.5t48 -19.5zM600 -10
q-58 0 -95.5 37t-37.5 93q0 71 56 123t128 52q59 0 96.5 -37t37.5 -94q0 -70 -56.5 -122t-128.5 -52zM965 -10q-58 0 -95.5 37t-37.5 93q0 71 56 123t128 52q59 0 96.5 -37t37.5 -94q0 -70 -56.5 -122t-128.5 -52zM607 55q41 0 72 31.5t31 74.5q0 30 -17 49t-48 19
q-41 0 -72 -31.5t-31 -73.5q0 -30 17 -49.5t48 -19.5zM972 55q41 0 72 31.5t31 74.5q0 30 -17 49t-48 19q-41 0 -72 -31.5t-31 -73.5q0 -30 17 -49.5t48 -19.5z" />
    <glyph glyph-name="question.ss02" horiz-adv-x="504" 
d="M349 710q80 0 127 -39.5t47 -114.5q0 -51 -23.5 -89.5t-58.5 -63t-71.5 -48t-67.5 -58.5t-41 -79l-6 -25h-81l8 36q12 54 43 94t66.5 63.5t69 45t55.5 51t22 68.5q0 87 -93 87q-130 0 -166 -178h-81q24 126 88.5 188t162.5 62zM169 -10q-23 0 -36 13.5t-13 35.5
q0 29 22 50t53 21q22 0 35.5 -14t13.5 -35q0 -29 -22 -50t-53 -21z" />
    <glyph glyph-name="questiondown.case" horiz-adv-x="493" 
d="M301 598l23 99h101l-22 -99h-102zM197 -9q-80 0 -127 39.5t-47 114.5q0 51 23.5 89.5t58.5 63t71.5 48t67.5 58.5t41 79l6 25h81l-8 -36q-12 -54 -43 -94t-66.5 -63.5t-69 -45t-55.5 -51t-22 -68.5q0 -87 93 -87q130 0 166 178h81q-24 -126 -88.5 -188t-162.5 -62z" />
    <glyph glyph-name="questiondown.case.ss02" horiz-adv-x="493" 
d="M351 588q-23 0 -36 13.5t-13 35.5q0 29 22 50t53 21q22 0 35.5 -14t13.5 -35q0 -29 -22 -50t-53 -21zM197 -9q-80 0 -127 39.5t-47 114.5q0 51 23.5 89.5t58.5 63t71.5 48t67.5 58.5t41 79l6 25h81l-8 -36q-12 -54 -43 -94t-66.5 -63.5t-69 -45t-55.5 -51t-22 -68.5
q0 -87 93 -87q130 0 166 178h81q-24 -126 -88.5 -188t-162.5 -62z" />
    <glyph glyph-name="questiondown.ss02" horiz-adv-x="459" 
d="M293 368q-23 0 -36 13.5t-13 35.5q0 29 22 50t53 21q22 0 35.5 -14t13.5 -35q0 -29 -22 -50t-53 -21zM139 -229q-80 0 -127 39.5t-47 114.5q0 51 23.5 89.5t58.5 63t71.5 48t67.5 58.5t41 79l6 25h81l-8 -36q-12 -54 -43 -94t-66.5 -63.5t-69 -45t-55.5 -51t-22 -68.5
q0 -87 93 -87q130 0 166 178h81q-24 -126 -88.5 -188t-162.5 -62z" />
    <glyph glyph-name="quotedbl.ss02" horiz-adv-x="359" 
d="M117 420l34 225q8 65 56 65q22 0 30.5 -16.5t-1.5 -48.5l-72 -225h-47zM271 420l34 225q8 65 56 65q22 0 30.5 -16.5t-1.5 -48.5l-72 -225h-47z" />
    <glyph glyph-name="quotedblbase.ss02" horiz-adv-x="369" 
d="M64 115q24 0 36.5 -17.5t12.5 -47.5q0 -62 -40.5 -108t-116.5 -53l10 41q28 4 48.5 20.5t25.5 39.5q-22 0 -34 14.5t-12 36.5q0 31 21 52.5t49 21.5zM223 115q24 0 36.5 -17.5t12.5 -47.5q0 -62 -40.5 -108t-116.5 -53l10 41q28 4 48.5 20.5t25.5 39.5q-22 0 -34 14.5
t-12 36.5q0 31 21 52.5t49 21.5z" />
    <glyph glyph-name="quotedblleft.ss02" horiz-adv-x="369" 
d="M168 485q-49 0 -49 65q0 62 40.5 108t116.5 53l-10 -40q-28 -4 -48.5 -21t-25.5 -40q22 0 33.5 -14.5t11.5 -36.5q0 -31 -20.5 -52.5t-48.5 -21.5zM327 485q-49 0 -49 65q0 62 40.5 108t116.5 53l-10 -40q-28 -4 -48.5 -21t-25.5 -40q22 0 33.5 -14.5t11.5 -36.5
q0 -31 -20.5 -52.5t-48.5 -21.5z" />
    <glyph glyph-name="quotedblright.ss02" horiz-adv-x="369" 
d="M200 706q24 0 36.5 -17.5t12.5 -47.5q0 -62 -40.5 -108t-116.5 -53l10 41q28 4 48.5 20.5t25.5 39.5q-22 0 -34 14.5t-12 36.5q0 31 21 52.5t49 21.5zM359 706q24 0 36.5 -17.5t12.5 -47.5q0 -62 -40.5 -108t-116.5 -53l10 41q28 4 48.5 20.5t25.5 39.5q-22 0 -34 14.5
t-12 36.5q0 31 21 52.5t49 21.5z" />
    <glyph glyph-name="quoteleft.ss02" horiz-adv-x="210" 
d="M168 485q-49 0 -49 65q0 62 40.5 108t116.5 53l-10 -40q-28 -4 -48.5 -21t-25.5 -40q22 0 33.5 -14.5t11.5 -36.5q0 -31 -20.5 -52.5t-48.5 -21.5z" />
    <glyph glyph-name="quoteright.ss02" horiz-adv-x="210" 
d="M200 706q24 0 36.5 -17.5t12.5 -47.5q0 -62 -40.5 -108t-116.5 -53l10 41q28 4 48.5 20.5t25.5 39.5q-22 0 -34 14.5t-12 36.5q0 31 21 52.5t49 21.5z" />
    <glyph glyph-name="quotesinglbase.ss02" horiz-adv-x="210" 
d="M64 115q24 0 36.5 -17.5t12.5 -47.5q0 -62 -40.5 -108t-116.5 -53l10 41q28 4 48.5 20.5t25.5 39.5q-22 0 -34 14.5t-12 36.5q0 31 21 52.5t49 21.5z" />
    <glyph glyph-name="quotesingle.ss02" horiz-adv-x="205" 
d="M117 420l34 225q8 65 56 65q22 0 30.5 -16.5t-1.5 -48.5l-72 -225h-47z" />
    <glyph glyph-name="rcommaaccent.ss02" horiz-adv-x="427" 
d="M369 500h78l-16 -72h-66q-79 0 -132 -47.5t-83 -175.5l5 24l-53 -229h-85l115 500h85l-24 -106q58 109 176 106zM42 -60q44 0 44 -56q0 -54 -37.5 -93t-106.5 -45l8 35q24 1 44 16t25 35q-43 0 -43 43q0 26 19.5 45.5t46.5 19.5z" />
    <glyph glyph-name="s.ss03" horiz-adv-x="501" 
d="M386 347q14 96 -90 96q-53 0 -87 -22t-34 -60q0 -16 5.5 -27.5t21 -20t24.5 -12.5t37.5 -12.5t37.5 -11.5q65 -21 98 -50t33 -80q0 -70 -59.5 -113.5t-156.5 -43.5q-94 0 -146.5 45t-41.5 137h80q-10 -60 21 -87.5t90 -27.5q63 0 96.5 26t33.5 61q0 30 -25 45t-84 32
q-36 10 -56.5 18.5t-45.5 23.5t-37 38.5t-12 54.5q0 72 60.5 112.5t148.5 40.5t133 -42t33 -120h-78z" />
    <glyph glyph-name="sacute.ss03" horiz-adv-x="501" 
d="M384 699h107l-141 -129h-83zM386 347q14 96 -90 96q-53 0 -87 -22t-34 -60q0 -16 5.5 -27.5t21 -20t24.5 -12.5t37.5 -12.5t37.5 -11.5q65 -21 98 -50t33 -80q0 -70 -59.5 -113.5t-156.5 -43.5q-94 0 -146.5 45t-41.5 137h80q-10 -60 21 -87.5t90 -27.5q63 0 96.5 26
t33.5 61q0 30 -25 45t-84 32q-36 10 -56.5 18.5t-45.5 23.5t-37 38.5t-12 54.5q0 72 60.5 112.5t148.5 40.5t133 -42t33 -120h-78z" />
    <glyph glyph-name="scaron.ss03" horiz-adv-x="501" 
d="M414 688h81l-125 -127h-82l-65 127h74l41 -77zM386 347q14 96 -90 96q-53 0 -87 -22t-34 -60q0 -16 5.5 -27.5t21 -20t24.5 -12.5t37.5 -12.5t37.5 -11.5q65 -21 98 -50t33 -80q0 -70 -59.5 -113.5t-156.5 -43.5q-94 0 -146.5 45t-41.5 137h80q-10 -60 21 -87.5t90 -27.5
q63 0 96.5 26t33.5 61q0 30 -25 45t-84 32q-36 10 -56.5 18.5t-45.5 23.5t-37 38.5t-12 54.5q0 72 60.5 112.5t148.5 40.5t133 -42t33 -120h-78z" />
    <glyph glyph-name="scedilla.ss03" horiz-adv-x="501" 
d="M464 347h-78q14 96 -90 96q-53 0 -87 -22t-34 -60q0 -16 5.5 -27.5t21 -20t24.5 -12.5t37.5 -12.5t37.5 -11.5q65 -21 98 -50t33 -80q0 -66 -53 -108.5t-141 -47.5q37 -35 37 -80q0 -50 -39.5 -83t-112.5 -33h-48l13 57h36q43 0 65.5 18t22.5 48q0 40 -42 75
q-74 10 -113 54.5t-29 124.5h80q-10 -60 21 -87.5t90 -27.5q63 0 96.5 26t33.5 61q0 30 -25 45t-84 32q-36 10 -56.5 18.5t-45.5 23.5t-37 38.5t-12 54.5q0 72 60.5 112.5t148.5 40.5t133 -42t33 -120z" />
    <glyph glyph-name="scircumflex.ss03" horiz-adv-x="501" 
d="M466 561h-75l-40 77l-76 -77h-81l125 127h82zM386 347q14 96 -90 96q-53 0 -87 -22t-34 -60q0 -16 5.5 -27.5t21 -20t24.5 -12.5t37.5 -12.5t37.5 -11.5q65 -21 98 -50t33 -80q0 -70 -59.5 -113.5t-156.5 -43.5q-94 0 -146.5 45t-41.5 137h80q-10 -60 21 -87.5t90 -27.5
q63 0 96.5 26t33.5 61q0 30 -25 45t-84 32q-36 10 -56.5 18.5t-45.5 23.5t-37 38.5t-12 54.5q0 72 60.5 112.5t148.5 40.5t133 -42t33 -120h-78z" />
    <glyph glyph-name="scommaaccent.ss02" horiz-adv-x="501" 
d="M117 152q-7 -47 18 -71.5t80 -24.5q51 0 80.5 20t29.5 57q0 16 -5 27t-20 20t-24 13t-37 13t-39 13q-65 21 -98 50t-33 80q0 72 62 116t153 44t145.5 -46.5t43.5 -135.5h-78q9 58 -23 86.5t-92 28.5q-61 0 -94.5 -26.5t-33.5 -64.5q0 -20 13 -34t30.5 -21.5t59.5 -21.5
q4 -1 6 -2q34 -11 55.5 -20.5t45.5 -25.5t36 -39t12 -53q0 -68 -57.5 -106t-139.5 -38q-90 0 -138 46t-37 116h79zM179 -60q44 0 44 -56q0 -54 -37.5 -93t-106.5 -45l8 35q24 1 44 16t25 35q-43 0 -43 43q0 26 19.5 45.5t46.5 19.5z" />
    <glyph glyph-name="scommaaccent.ss03" horiz-adv-x="501" 
d="M464 347h-78q14 96 -90 96q-53 0 -87 -22t-34 -60q0 -16 5.5 -27.5t21 -20t24.5 -12.5t37.5 -12.5t37.5 -11.5q65 -21 98 -50t33 -80q0 -70 -59.5 -113.5t-156.5 -43.5q-94 0 -146.5 45t-41.5 137h80q-10 -60 21 -87.5t90 -27.5q63 0 96.5 26t33.5 61q0 30 -25 45t-84 32
q-36 10 -56.5 18.5t-45.5 23.5t-37 38.5t-12 54.5q0 72 60.5 112.5t148.5 40.5t133 -42t33 -120zM122 -151l21 87h96l-14 -58q-18 -73 -47 -100.5t-92 -33.5l10 38q33 4 47.5 19t22.5 48h-44z" />
    <glyph glyph-name="scommaaccent.ss03.ss02" horiz-adv-x="501" 
d="M386 347q14 96 -90 96q-53 0 -87 -22t-34 -60q0 -16 5.5 -27.5t21 -20t24.5 -12.5t37.5 -12.5t37.5 -11.5q65 -21 98 -50t33 -80q0 -70 -59.5 -113.5t-156.5 -43.5q-94 0 -146.5 45t-41.5 137h80q-10 -60 21 -87.5t90 -27.5q63 0 96.5 26t33.5 61q0 30 -25 45t-84 32
q-36 10 -56.5 18.5t-45.5 23.5t-37 38.5t-12 54.5q0 72 60.5 112.5t148.5 40.5t133 -42t33 -120h-78zM186 -60q44 0 44 -56q0 -54 -37.5 -93t-106.5 -45l8 35q24 1 44 16t25 35q-43 0 -43 43q0 26 19.5 45.5t46.5 19.5z" />
    <glyph glyph-name="semicolon.ss02" horiz-adv-x="217" 
d="M139 390q-23 0 -36 13.5t-13 35.5q0 29 22 50t53 21q22 0 35.5 -14t13.5 -35q0 -29 -22 -50t-53 -21zM68 110q49 0 49 -62q0 -60 -42 -103.5t-118 -50.5l9 39q27 2 49 18.5t27 38.5q-48 0 -48 48q0 29 22 50.5t52 21.5z" />
    <glyph glyph-name="seven.dnom" horiz-adv-x="325" 
d="M62 360h260l-9 -38l-239 -322h-73l231 308h-182z" />
    <glyph glyph-name="seven.dnom.ss06" horiz-adv-x="326" 
d="M323 360l-9 -38l-239 -322h-73l231 308h-124l-13 -56h-58l25 108h260z" />
    <glyph glyph-name="seven.numr" horiz-adv-x="325" 
d="M141 700h260l-9 -38l-239 -322h-73l231 308h-182z" />
    <glyph glyph-name="seven.numr.ss06" horiz-adv-x="326" 
d="M402 700l-9 -38l-239 -322h-73l231 308h-124l-13 -56h-58l25 108h260z" />
    <glyph glyph-name="seven.ss06" horiz-adv-x="579" 
d="M633 700l-14 -58l-468 -642h-108l458 623h-278l-26 -112h-84l45 189h475z" />
    <glyph glyph-name="seven.ss07" horiz-adv-x="546" 
d="M151 620h431l-13 -54l-419 -566h-100l408 549h-323z" />
    <glyph glyph-name="seven.ss07.ss06" horiz-adv-x="546" 
d="M582 620l-13 -54l-419 -566h-100l408 549h-245l-24 -104h-78l40 175h431z" />
    <glyph glyph-name="seven.tf" horiz-adv-x="647" 
d="M179 700h475l-14 -58l-468 -642h-108l458 623h-361z" />
    <glyph glyph-name="seven.tf.ss06" horiz-adv-x="579" 
d="M634 700l-14 -58l-468 -642h-108l458 623h-278l-26 -112h-84l45 189h475z" />
    <glyph glyph-name="seven.tf.ss07" horiz-adv-x="599" 
d="M171 620h431l-13 -54l-419 -566h-100l408 549h-323z" />
    <glyph glyph-name="seven.tf.ss07.ss06" horiz-adv-x="599" 
d="M602 620l-13 -54l-419 -566h-100l408 549h-245l-24 -104h-78l40 175h431z" />
    <glyph glyph-name="seveneighths.ss03" horiz-adv-x="773" 
d="M-63 0l748 700h82l-748 -700h-82zM141 700h260l-9 -38l-239 -322h-73l231 308h-182zM638 190q59 -21 59 -80q0 -52 -46.5 -86t-118.5 -34q-61 0 -97.5 25.5t-36.5 68.5q0 40 29 66.5t72 39.5q-46 19 -46 66q0 48 43.5 78.5t102.5 30.5q52 0 87 -24t35 -64q0 -57 -83 -87z
M597 317q-36 0 -60.5 -17.5t-24.5 -42.5q0 -38 61 -50q12 2 27 5.5t37 20t22 40.5q0 44 -62 44zM534 39q45 0 74 21t29 51q0 29 -28 43t-45 14q-6 0 -21 -3.5t-35 -11t-34.5 -24t-14.5 -37.5q0 -23 19.5 -38t55.5 -15z" />
    <glyph glyph-name="seveneighths.ss06" horiz-adv-x="790" 
d="M-62 0l748 700h82l-748 -700h-82zM402 700l-9 -38l-239 -322h-73l231 308h-124l-13 -56h-58l25 108h260zM648 165q47 -21 47 -70q0 -47 -43 -76t-103 -29q-53 0 -87 23.5t-34 63.5q0 59 83 89q-59 21 -59 80q0 52 46.5 85.5t118.5 33.5q61 0 97 -25.5t36 -68.5
q0 -40 -29.5 -67t-72.5 -39zM614 316q-44 0 -73 -21t-29 -51q0 -29 27.5 -43t44.5 -14q10 0 32 5.5t47.5 24t25.5 45.5q0 25 -19 39.5t-56 14.5zM489 82q0 -44 62 -44q37 0 61.5 17.5t24.5 42.5q0 38 -61 50q-87 -17 -87 -66z" />
    <glyph glyph-name="seveneighths.ss06.ss03" horiz-adv-x="774" 
d="M-62 0l748 700h82l-748 -700h-82zM402 700l-9 -38l-239 -322h-73l231 308h-124l-13 -56h-58l25 108h260zM639 190q59 -21 59 -80q0 -52 -46.5 -86t-118.5 -34q-61 0 -97.5 25.5t-36.5 68.5q0 40 29 66.5t72 39.5q-46 19 -46 66q0 48 43.5 78.5t102.5 30.5q52 0 87 -24
t35 -64q0 -57 -83 -87zM598 317q-36 0 -60.5 -17.5t-24.5 -42.5q0 -38 61 -50q12 2 27 5.5t37 20t22 40.5q0 44 -62 44zM535 39q45 0 74 21t29 51q0 29 -28 43t-45 14q-6 0 -21 -3.5t-35 -11t-34.5 -24t-14.5 -37.5q0 -23 19.5 -38t55.5 -15z" />
    <glyph glyph-name="six.dnom" horiz-adv-x="359" 
d="M178 233q47 0 78.5 -28t31.5 -77q0 -58 -44 -98t-109 -40q-119 0 -119 135q0 97 51 168.5t137 71.5q57 0 90 -32.5t26 -80.5h-54q2 25 -12.5 44t-49.5 19q-48 0 -80 -37t-46 -96q41 51 100 51zM135 39q37 0 66 24.5t29 63.5q0 29 -17 44t-44 15q-37 0 -66.5 -24.5
t-29.5 -62.5q0 -29 17.5 -44.5t44.5 -15.5z" />
    <glyph glyph-name="six.numr" horiz-adv-x="359" 
d="M257 573q47 0 78.5 -28t31.5 -77q0 -58 -44 -98t-109 -40q-119 0 -119 135q0 97 51 168.5t137 71.5q57 0 90 -32.5t26 -80.5h-54q2 25 -12.5 44t-49.5 19q-48 0 -80 -37t-46 -96q41 51 100 51zM214 379q37 0 66 24.5t29 63.5q0 29 -17 44t-44 15q-37 0 -66.5 -24.5
t-29.5 -62.5q0 -29 17.5 -44.5t44.5 -15.5z" />
    <glyph glyph-name="six.ss07" horiz-adv-x="582" 
d="M559 440h-75q1 19 -2.5 38t-14 38.5t-34.5 31.5t-58 12q-82 0 -138 -67t-82 -178q61 88 168 88q80 0 130.5 -49t50.5 -130q0 -99 -72 -166.5t-178 -67.5q-114 0 -162.5 84.5t-13.5 238.5q36 159 112.5 238t184.5 79q96 0 144.5 -54.5t39.5 -135.5zM316 336
q-66 0 -118.5 -47t-52.5 -118q0 -54 30.5 -83.5t80.5 -29.5q66 0 117.5 47.5t51.5 119.5q0 54 -30.5 82.5t-78.5 28.5z" />
    <glyph glyph-name="six.tf" horiz-adv-x="647" 
d="M631 497h-81q1 22 -3 43t-15.5 44t-38 37t-64.5 14q-92 0 -155.5 -77t-93.5 -205q31 44 81.5 71.5t113.5 27.5q91 0 142.5 -56t51.5 -139q0 -108 -81.5 -187.5t-199.5 -79.5q-126 0 -176.5 97t-10.5 271q40 175 125 263.5t204 88.5q106 0 158 -62.5t43 -150.5zM363 381
q-75 0 -134 -53.5t-59 -136.5q0 -61 34 -94.5t87 -33.5q74 0 134 55.5t60 137.5q0 59 -34 92t-88 33z" />
    <glyph glyph-name="six.tf.ss07" horiz-adv-x="599" 
d="M570 440h-75q1 19 -2.5 38t-14 38.5t-34.5 31.5t-58 12q-82 0 -138 -67t-82 -178q61 88 168 88q80 0 130.5 -49t50.5 -130q0 -99 -72 -166.5t-178 -67.5q-114 0 -162.5 84.5t-13.5 238.5q36 159 112.5 238t184.5 79q96 0 144.5 -54.5t39.5 -135.5zM327 336
q-66 0 -118.5 -47t-52.5 -118q0 -54 30.5 -83.5t80.5 -29.5q66 0 117.5 47.5t51.5 119.5q0 54 -30 82.5t-79 28.5z" />
    <glyph glyph-name="sterling.ss07" horiz-adv-x="557" 
d="M360 630q87 0 133 -49t32 -146l-74 1q18 126 -91 126q-66 0 -106.5 -40t-40.5 -96q0 -11 1.5 -21t6 -21t6.5 -17.5t10 -19t10 -15t12.5 -17t11.5 -15.5h174l-14 -63h-124q6 -18 6 -40q0 -86 -97 -130h233l-15 -67h-427l13 55q109 8 161.5 44t52.5 90q0 26 -11 48h-140
l15 63h82q-44 59 -44 125q0 92 64.5 148.5t159.5 56.5z" />
    <glyph glyph-name="tcaron.ss02" horiz-adv-x="377" 
d="M468 710q46 0 46 -56q0 -54 -39.5 -93t-112.5 -45l9 35q25 1 46 16t26 35q-23 0 -34.5 12t-11.5 31q0 26 21 45.5t50 19.5zM295 632l-30 -132h122l-15 -66h-123l-60 -263q-12 -52 3.5 -76.5t61.5 -24.5h53l-16 -70h-53q-84 0 -118 45.5t-16 124.5l61 264h-95l15 66h95
l27 118z" />
    <glyph glyph-name="three.dnom" horiz-adv-x="357" 
d="M229 168q41 -16 41 -66q0 -44 -38 -78t-102 -34q-63 0 -93.5 32.5t-22.5 83.5h61q-5 -34 12 -49.5t46 -15.5q35 0 57 20t22 45q0 44 -61 44h-30l10 44h35q42 0 67.5 20t25.5 51q0 49 -63 49q-79 0 -105 -77h-58q40 127 165 127q55 0 89 -25t34 -70q0 -74 -92 -101z" />
    <glyph glyph-name="three.dnom.ss03" horiz-adv-x="357" 
d="M234 186q51 -20 51 -74q0 -55 -46 -88.5t-112 -33.5t-98 35t-24 92h58q-5 -38 14 -57.5t56 -19.5q39 0 64.5 19t25.5 51q0 51 -71 51h-28l10 43h31q40 0 61.5 18t21.5 45q0 20 -13 33t-40 13q-66 0 -88 -65h-60q17 56 56.5 86t95.5 30q53 0 82 -25.5t29 -61.5
q0 -32 -20.5 -56t-55.5 -35z" />
    <glyph glyph-name="three.numr" horiz-adv-x="357" 
d="M308 508q41 -16 41 -66q0 -44 -38 -78t-102 -34q-63 0 -93.5 32.5t-22.5 83.5h61q-5 -34 12 -49.5t46 -15.5q35 0 57 20t22 45q0 44 -61 44h-30l10 44h35q42 0 67.5 20t25.5 51q0 49 -63 49q-79 0 -105 -77h-58q40 127 165 127q55 0 89 -25t34 -70q0 -74 -92 -101z" />
    </font>
</defs>
</svg>
